<svg xmlns="http://www.w3.org/2000/svg" width="512" height="512" viewBox="0 0 512 512"><path d="M174 205 Q208 181 242 203 M270 203 Q304 181 338 205" fill="none" stroke="#203654" stroke-width="11" stroke-linecap="round"/><path d="M180 239 Q207 217 234 239 Q207 257 180 239 Z" fill="#FFFDF8" stroke="#203654" stroke-width="8"/><path d="M278 239 Q305 217 332 239 Q305 257 278 239 Z" fill="#FFFDF8" stroke="#203654" stroke-width="8"/><circle cx="211" cy="235" r="9" fill="#203654"/><circle cx="309" cy="235" r="9" fill="#203654"/><path d="M180 283 Q201 270 222 283 M290 283 Q311 270 332 283" fill="none" stroke="#FF6F91" stroke-width="9" stroke-linecap="round"/><path d="M211 306 Q250 342 304 296" fill="none" stroke="#203654" stroke-width="13" stroke-linecap="round"/><circle cx="256" cy="372" r="28" fill="#FFD166" stroke="#203654" stroke-width="7"/><path d="M256 355 L261 367 L274 368 L264 377 L267 390 L256 383 L245 390 L248 377 L238 368 L251 367 Z" fill="#FFFDF8"/></svg>
