<svg xmlns="http://www.w3.org/2000/svg" width="512" height="512" viewBox="0 0 512 512">
<g transform="translate(146 258) scale(0.76)"><g transform="rotate(0)"><ellipse cx="0" cy="160" rx="94" ry="16" fill="#20324B" opacity=".18"/><path d="M62 65 Q139 45 117 115 Q102 156 63 129" fill="none" stroke="#20324B" stroke-width="48" stroke-linecap="round"/><path d="M62 65 Q139 45 117 115 Q102 156 63 129" fill="none" stroke="#C86543" stroke-width="37" stroke-linecap="round"/><path d="M101 61 Q125 77 128 95 M111 122 Q91 131 75 126" fill="none" stroke="#FFF0D5" stroke-width="13" stroke-linecap="round" opacity=".9"/><path d="M-33 111 L-39 145 M33 111 L39 145" stroke="#20324B" stroke-width="25" stroke-linecap="round"/><path d="M-33 111 L-39 145 M33 111 L39 145" stroke="#8E3F38" stroke-width="17" stroke-linecap="round"/><path d="M-57 150 H-22 M22 150 H57" stroke="#20324B" stroke-width="18" stroke-linecap="round"/><path d="M-55 150 H-24 M24 150 H55" stroke="#FFF0D5" stroke-width="10" stroke-linecap="round"/><rect x="-68" y="36" width="136" height="95" rx="48" fill="#C86543" stroke="#20324B" stroke-width="9"/><path d="M-43 43 Q0 68 43 43 L35 121 H-35 Z" fill="#FFF0D5" opacity=".96"/><path d="M0 47 L-15 72 L0 91 L15 72 Z" fill="#24B39B" stroke="#20324B" stroke-width="6"/><path d="M0 90 V119" stroke="#24B39B" stroke-width="14" stroke-linecap="round"/><path d="M-62 60 Q-72 91 -47 102 M62 60 Q72 91 47 102" fill="none" stroke="#20324B" stroke-width="18" stroke-linecap="round"/><path d="M-62 60 Q-72 91 -47 102 M62 60 Q72 91 47 102" fill="none" stroke="#C86543" stroke-width="14" stroke-linecap="round"/><circle cx="-62" cy="-102" r="35" fill="#8E3F38" stroke="#20324B" stroke-width="9"/><circle cx="62" cy="-102" r="35" fill="#8E3F38" stroke="#20324B" stroke-width="9"/><circle cx="-62" cy="-102" r="18" fill="#FFF0D5"/><circle cx="62" cy="-102" r="18" fill="#FFF0D5"/><rect x="-91" y="-126" width="182" height="146" rx="70" fill="#C86543" stroke="#20324B" stroke-width="10"/><path d="M-82 -85 Q-43 -119 -4 -79 Q-40 -41 -79 -55 Z M82 -85 Q43 -119 4 -79 Q40 -41 79 -55 Z" fill="#8E3F38"/><path d="M-80 -117 Q-46 -144 -13 -119 Q-31 -89 -61 -89 Z M80 -117 Q46 -144 13 -119 Q31 -89 61 -89 Z" fill="#FFF0D5" opacity=".94"/><ellipse cx="0" cy="-22" rx="61" ry="44" fill="#FFF0D5"/><path d="M-13 -44 Q0 -57 13 -44 Q10 -29 0 -27 Q-10 -29 -13 -44 Z" fill="#20324B"/><ellipse cx="-31" cy="-61" rx="18" ry="12" fill="#FFFFFF"/><ellipse cx="31" cy="-61" rx="18" ry="12" fill="#FFFFFF"/><circle cx="-29" cy="-58" r="7" fill="#20324B"/><circle cx="29" cy="-58" r="7" fill="#20324B"/><path d="M-52 -79 L-14 -73 M14 -73 L52 -79" stroke="#20324B" stroke-width="8" stroke-linecap="round"/><path d="M-22 -15 Q0 -3 22 -15" fill="none" stroke="#20324B" stroke-width="8" stroke-linecap="round"/></g><g transform="translate(112 28) scale(.68)"><rect x="-68" y="-55" width="136" height="112" rx="12" fill="#FFFDF7" stroke="#20324B" stroke-width="8" stroke-linejoin="round" stroke-linecap="round"/><rect x="-48" y="16" width="24" height="25" rx="5" fill="#FF6577"/><rect x="-12" y="-7" width="24" height="48" rx="5" fill="#FFCA55"/><rect x="24" y="-33" width="24" height="74" rx="5" fill="#24B39B"/><path d="M-45 -19 L-8 -37 L25 -49 L47 -72" fill="none" stroke="#147D73" stroke-width="8" stroke-linecap="round"/></g></g>
</svg>
