<svg xmlns="http://www.w3.org/2000/svg" width="512" height="512" viewBox="0 0 512 512">
<g transform="translate(146 258) scale(0.76)"><g transform="rotate(0)"><ellipse cx="0" cy="160" rx="94" ry="16" fill="#20324B" opacity=".18"/><path d="M62 65 Q139 45 117 115 Q102 156 63 129" fill="none" stroke="#20324B" stroke-width="48" stroke-linecap="round"/><path d="M62 65 Q139 45 117 115 Q102 156 63 129" fill="none" stroke="#C86543" stroke-width="37" stroke-linecap="round"/><path d="M101 61 Q125 77 128 95 M111 122 Q91 131 75 126" fill="none" stroke="#FFF0D5" stroke-width="13" stroke-linecap="round" opacity=".9"/><path d="M-33 111 L-39 145 M33 111 L39 145" stroke="#20324B" stroke-width="25" stroke-linecap="round"/><path d="M-33 111 L-39 145 M33 111 L39 145" stroke="#8E3F38" stroke-width="17" stroke-linecap="round"/><path d="M-57 150 H-22 M22 150 H57" stroke="#20324B" stroke-width="18" stroke-linecap="round"/><path d="M-55 150 H-24 M24 150 H55" stroke="#FFF0D5" stroke-width="10" stroke-linecap="round"/><rect x="-68" y="36" width="136" height="95" rx="48" fill="#C86543" stroke="#20324B" stroke-width="9"/><path d="M-43 43 Q0 68 43 43 L35 121 H-35 Z" fill="#FFF0D5" opacity=".96"/><path d="M0 47 L-15 72 L0 91 L15 72 Z" fill="#24B39B" stroke="#20324B" stroke-width="6"/><path d="M0 90 V119" stroke="#24B39B" stroke-width="14" stroke-linecap="round"/><path d="M-61 60 Q-94 35 -101 -18 M61 60 Q76 89 94 92" fill="none" stroke="#20324B" stroke-width="18" stroke-linecap="round"/><path d="M-61 60 Q-94 35 -101 -18 M61 60 Q76 89 94 92" fill="none" stroke="#C86543" stroke-width="14" stroke-linecap="round"/><circle cx="-102" cy="-30" r="13" fill="#FFF0D5" stroke="#20324B" stroke-width="7"/><circle cx="-62" cy="-102" r="35" fill="#8E3F38" stroke="#20324B" stroke-width="9"/><circle cx="62" cy="-102" r="35" fill="#8E3F38" stroke="#20324B" stroke-width="9"/><circle cx="-62" cy="-102" r="18" fill="#FFF0D5"/><circle cx="62" cy="-102" r="18" fill="#FFF0D5"/><rect x="-91" y="-126" width="182" height="146" rx="70" fill="#C86543" stroke="#20324B" stroke-width="10"/><path d="M-82 -85 Q-43 -119 -4 -79 Q-40 -41 -79 -55 Z M82 -85 Q43 -119 4 -79 Q40 -41 79 -55 Z" fill="#8E3F38"/><path d="M-80 -117 Q-46 -144 -13 -119 Q-31 -89 -61 -89 Z M80 -117 Q46 -144 13 -119 Q31 -89 61 -89 Z" fill="#FFF0D5" opacity=".94"/><ellipse cx="0" cy="-22" rx="61" ry="44" fill="#FFF0D5"/><path d="M-13 -44 Q0 -57 13 -44 Q10 -29 0 -27 Q-10 -29 -13 -44 Z" fill="#20324B"/><path d="M-47 -63 Q-31 -78 -15 -62 M15 -62 Q31 -78 47 -63" fill="none" stroke="#20324B" stroke-width="9" stroke-linecap="round"/><path d="M-31 -20 Q0 12 32 -20" fill="none" stroke="#20324B" stroke-width="9" stroke-linecap="round"/><ellipse cx="-62" cy="-27" rx="15" ry="7" fill="#FF6577" opacity=".38"/><ellipse cx="62" cy="-27" rx="15" ry="7" fill="#FF6577" opacity=".38"/></g><g transform="translate(112 28) scale(.68)"><path d="M-12 43 Q-52 18 -42 -24 Q-27 -70 10 -82 Q43 -48 44 -5 Q43 35 12 48 Z" fill="#6B8CFF" stroke="#20324B" stroke-width="8" stroke-linejoin="round" stroke-linecap="round"/><circle cx="6" cy="-24" r="18" fill="#69C9F2" stroke="#20324B" stroke-width="8" stroke-linejoin="round" stroke-linecap="round"/><path d="M-24 31 L-57 62 L-15 54 M29 31 L55 65 L17 53" fill="#FFB85C" stroke="#20324B" stroke-width="8" stroke-linejoin="round" stroke-linecap="round"/><path d="M-9 48 Q2 95 15 48" fill="#FF6577" stroke="#20324B" stroke-width="8" stroke-linejoin="round" stroke-linecap="round"/></g></g>
</svg>
