<svg xmlns="http://www.w3.org/2000/svg" width="512" height="512" viewBox="0 0 512 512">
<defs><linearGradient id="softShade" x1="0" y1="0" x2="1" y2="1"><stop offset="0" stop-color="#FFFFFF" stop-opacity=".24"/><stop offset="1" stop-color="#10243A" stop-opacity=".14"/></linearGradient></defs>
<g id="shadow" data-semantic-layer="true"><ellipse cx="256" cy="458" rx="105" ry="14" fill="#AAB2BD" stroke="none" stroke-width="0" opacity=".65"/></g>
<g id="hair-back" data-semantic-layer="true"><ellipse cx="196" cy="83" rx="41" ry="43" fill="#211714" stroke="#162B45" stroke-width="6" /><ellipse cx="316" cy="83" rx="41" ry="43" fill="#211714" stroke="#162B45" stroke-width="6" /></g>
<g id="leg-left" data-semantic-layer="true"><rect x="262" y="305" width="33" height="123" rx="15" fill="#754329" stroke="#162B45" stroke-width="6" /><rect x="255" y="416" width="57" height="29" rx="14" fill="#E94E64" stroke="#162B45" stroke-width="6" /><path d="M264 425 L302 425" fill="none" stroke="#23B6A6" stroke-width="5" stroke-linecap="round" stroke-linejoin="round" /></g>
<g id="leg-right" data-semantic-layer="true"><rect x="217" y="305" width="33" height="123" rx="15" fill="#754329" stroke="#162B45" stroke-width="6" /><rect x="201" y="416" width="57" height="29" rx="14" fill="#E94E64" stroke="#162B45" stroke-width="6" /><path d="M210 425 L248 425" fill="none" stroke="#23B6A6" stroke-width="5" stroke-linecap="round" stroke-linejoin="round" /></g>
<g id="torso" data-semantic-layer="true"><rect x="206" y="215" width="100" height="96" rx="29" fill="#F5B82E" stroke="#162B45" stroke-width="7" /><path d="M224 230 Q256.0 249 288 230" fill="none" stroke="#FFD966" stroke-width="5" stroke-linecap="round" stroke-linejoin="round" /><path d="M244 255 C244 240 268 240 268 255 C268 272 256 279 256 279 C256 279 244 270 244 255 Z" fill="#E85D89" stroke="none" stroke-width="0" stroke-linecap="round" stroke-linejoin="round" /><path d="M202 294 L310 294 L324 350 L188 350 Z" fill="#2879A8" stroke="#162B45" stroke-width="7" stroke-linecap="round" stroke-linejoin="round" /></g>
<g id="head" data-semantic-layer="true"><ellipse cx="192.08" cy="148" rx="12" ry="20" fill="#754329" stroke="#162B45" stroke-width="5" />
<ellipse cx="319.92" cy="148" rx="12" ry="20" fill="#754329" stroke="#162B45" stroke-width="5" />
<ellipse cx="256" cy="143" rx="68" ry="72" fill="#754329" stroke="#162B45" stroke-width="7" />
<path d="M207.04 108.44 Q239.0 86.84 298.15999999999997 105.56" fill="none" stroke="#9A6040" stroke-width="5" stroke-linecap="round" stroke-linejoin="round" opacity=".45"/></g>
<g id="hair-front" data-semantic-layer="true"><ellipse cx="211" cy="81" rx="18" ry="17" fill="#211714" stroke="#162B45" stroke-width="4" /><ellipse cx="226" cy="86" rx="18" ry="17" fill="#211714" stroke="#162B45" stroke-width="4" /><ellipse cx="241" cy="81" rx="18" ry="17" fill="#211714" stroke="#162B45" stroke-width="4" /><ellipse cx="256" cy="86" rx="18" ry="17" fill="#211714" stroke="#162B45" stroke-width="4" /><ellipse cx="271" cy="81" rx="18" ry="17" fill="#211714" stroke="#162B45" stroke-width="4" /><ellipse cx="286" cy="86" rx="18" ry="17" fill="#211714" stroke="#162B45" stroke-width="4" /><ellipse cx="301" cy="81" rx="18" ry="17" fill="#211714" stroke="#162B45" stroke-width="4" /><path d="M202 96 Q256 65 311 100" fill="#211714" stroke="#162B45" stroke-width="6" stroke-linecap="round" stroke-linejoin="round" /></g>
<g id="face-friendly" data-semantic-layer="true"><path d="M212.76 129 Q226.76 122 240.76 129" fill="none" stroke="#162B45" stroke-width="5" stroke-linecap="round" stroke-linejoin="round" />
<path d="M271.24 129 Q285.24 122 299.24 129" fill="none" stroke="#162B45" stroke-width="5" stroke-linecap="round" stroke-linejoin="round" />
<ellipse cx="226.76" cy="147" rx="12" ry="15" fill="#FFF8EE" stroke="#162B45" stroke-width="4" />
<ellipse cx="285.24" cy="147" rx="12" ry="15" fill="#FFF8EE" stroke="#162B45" stroke-width="4" />
<ellipse cx="227.76" cy="149" rx="4" ry="6" fill="#162B45" stroke="#162B45" stroke-width="0" />
<ellipse cx="286.24" cy="149" rx="4" ry="6" fill="#162B45" stroke="#162B45" stroke-width="0" />
<path d="M256 155 q-4 10 4 12" fill="none" stroke="#9A6040" stroke-width="4" stroke-linecap="round" stroke-linejoin="round" />
<ellipse cx="216.56" cy="167" rx="10" ry="6" fill="#E58A78" stroke="none" stroke-width="0" opacity=".45"/>
<ellipse cx="295.44" cy="167" rx="10" ry="6" fill="#E58A78" stroke="none" stroke-width="0" opacity=".45"/>
<path d="M231 178 Q256 198 283 174" fill="none" stroke="#162B45" stroke-width="6" stroke-linecap="round" stroke-linejoin="round" />
<path d="M241 182 Q256 191 272 179" fill="none" stroke="#FFFFFF" stroke-width="3" stroke-linecap="round" stroke-linejoin="round" /></g>
<g id="face-laughing" data-semantic-layer="true" style="display:none"><path d="M214.76 147 Q226.76 158.25 238.76 147" fill="none" stroke="#162B45" stroke-width="5" stroke-linecap="round" stroke-linejoin="round" />
<path d="M273.24 147 Q285.24 158.25 297.24 147" fill="none" stroke="#162B45" stroke-width="5" stroke-linecap="round" stroke-linejoin="round" />
<path d="M212.76 127 Q226.76 121 240.76 127" fill="none" stroke="#162B45" stroke-width="5" stroke-linecap="round" stroke-linejoin="round" />
<path d="M271.24 127 Q285.24 121 299.24 127" fill="none" stroke="#162B45" stroke-width="5" stroke-linecap="round" stroke-linejoin="round" />
<path d="M256 155 q-4 10 5 12" fill="none" stroke="#9A6040" stroke-width="4" stroke-linecap="round" stroke-linejoin="round" />
<path d="M228 177 Q256 218 285 176 Z" fill="#5B2730" stroke="#162B45" stroke-width="5" stroke-linecap="round" stroke-linejoin="round" />
<path d="M241 197 Q256 206 272 196" fill="none" stroke="#E98A86" stroke-width="5" stroke-linecap="round" stroke-linejoin="round" /></g>
<g id="face-surprised" data-semantic-layer="true" style="display:none"><ellipse cx="226.76" cy="147" rx="12" ry="20.25" fill="#FFF8EE" stroke="#162B45" stroke-width="4" />
<ellipse cx="227.76" cy="149" rx="4" ry="8.100000000000001" fill="#162B45" stroke="#162B45" stroke-width="0" />
<ellipse cx="285.24" cy="147" rx="12" ry="20.25" fill="#FFF8EE" stroke="#162B45" stroke-width="4" />
<ellipse cx="286.24" cy="149" rx="4" ry="8.100000000000001" fill="#162B45" stroke="#162B45" stroke-width="0" />
<path d="M212.76 118 Q226.76 112 240.76 118" fill="none" stroke="#162B45" stroke-width="5" stroke-linecap="round" stroke-linejoin="round" />
<path d="M271.24 118 Q285.24 112 299.24 118" fill="none" stroke="#162B45" stroke-width="5" stroke-linecap="round" stroke-linejoin="round" />
<path d="M256 155 q-4 10 5 12" fill="none" stroke="#9A6040" stroke-width="4" stroke-linecap="round" stroke-linejoin="round" />
<ellipse cx="256" cy="184" rx="12" ry="16" fill="#5B2730" stroke="#162B45" stroke-width="5" /></g>
<g id="face-thinking" data-semantic-layer="true" style="display:none"><ellipse cx="226.76" cy="147" rx="12" ry="15.0" fill="#FFF8EE" stroke="#162B45" stroke-width="4" />
<ellipse cx="230.76" cy="149" rx="4" ry="6.0" fill="#162B45" stroke="#162B45" stroke-width="0" />
<ellipse cx="285.24" cy="147" rx="12" ry="15.0" fill="#FFF8EE" stroke="#162B45" stroke-width="4" />
<ellipse cx="289.24" cy="149" rx="4" ry="6.0" fill="#162B45" stroke="#162B45" stroke-width="0" />
<path d="M212.76 132 L240.76 125" fill="none" stroke="#162B45" stroke-width="5" stroke-linecap="round" stroke-linejoin="round" />
<path d="M271.24 125 L299.24 125" fill="none" stroke="#162B45" stroke-width="5" stroke-linecap="round" stroke-linejoin="round" />
<path d="M256 155 q-4 10 5 12" fill="none" stroke="#9A6040" stroke-width="4" stroke-linecap="round" stroke-linejoin="round" />
<path d="M238 184 Q259 180 278 187" fill="none" stroke="#162B45" stroke-width="5" stroke-linecap="round" stroke-linejoin="round" /></g>
<g id="face-confident" data-semantic-layer="true" style="display:none"><ellipse cx="226.76" cy="147" rx="12" ry="9.3" fill="#FFF8EE" stroke="#162B45" stroke-width="4" />
<ellipse cx="227.76" cy="149" rx="4" ry="3.7199999999999998" fill="#162B45" stroke="#162B45" stroke-width="0" />
<ellipse cx="285.24" cy="147" rx="12" ry="9.3" fill="#FFF8EE" stroke="#162B45" stroke-width="4" />
<ellipse cx="286.24" cy="149" rx="4" ry="3.7199999999999998" fill="#162B45" stroke="#162B45" stroke-width="0" />
<path d="M212.76 132 Q226.76 126 240.76 132" fill="none" stroke="#162B45" stroke-width="5" stroke-linecap="round" stroke-linejoin="round" />
<path d="M271.24 132 Q285.24 126 299.24 132" fill="none" stroke="#162B45" stroke-width="5" stroke-linecap="round" stroke-linejoin="round" />
<path d="M256 155 q-4 10 5 12" fill="none" stroke="#9A6040" stroke-width="4" stroke-linecap="round" stroke-linejoin="round" />
<path d="M232 181 Q261 203 285 176" fill="none" stroke="#162B45" stroke-width="6" stroke-linecap="round" stroke-linejoin="round" /></g>
<g id="face-sorry" data-semantic-layer="true" style="display:none"><ellipse cx="226.76" cy="147" rx="12" ry="15.0" fill="#FFF8EE" stroke="#162B45" stroke-width="4" />
<ellipse cx="227.76" cy="149" rx="4" ry="6.0" fill="#162B45" stroke="#162B45" stroke-width="0" />
<ellipse cx="285.24" cy="147" rx="12" ry="15.0" fill="#FFF8EE" stroke="#162B45" stroke-width="4" />
<ellipse cx="286.24" cy="149" rx="4" ry="6.0" fill="#162B45" stroke="#162B45" stroke-width="0" />
<path d="M212.76 129 Q228.76 123 240.76 134" fill="none" stroke="#162B45" stroke-width="5" stroke-linecap="round" stroke-linejoin="round" />
<path d="M271.24 134 Q283.24 123 299.24 129" fill="none" stroke="#162B45" stroke-width="5" stroke-linecap="round" stroke-linejoin="round" />
<path d="M256 155 q-4 10 5 12" fill="none" stroke="#9A6040" stroke-width="4" stroke-linecap="round" stroke-linejoin="round" />
<path d="M232 193 Q256 174 280 193" fill="none" stroke="#162B45" stroke-width="6" stroke-linecap="round" stroke-linejoin="round" /></g>
<g id="face-excited" data-semantic-layer="true" style="display:none"><ellipse cx="226.76" cy="147" rx="12" ry="20.25" fill="#FFF8EE" stroke="#162B45" stroke-width="4" />
<ellipse cx="227.76" cy="149" rx="4" ry="8.100000000000001" fill="#162B45" stroke="#162B45" stroke-width="0" />
<ellipse cx="285.24" cy="147" rx="12" ry="20.25" fill="#FFF8EE" stroke="#162B45" stroke-width="4" />
<ellipse cx="286.24" cy="149" rx="4" ry="8.100000000000001" fill="#162B45" stroke="#162B45" stroke-width="0" />
<path d="M212.76 122 Q226.76 116 240.76 122" fill="none" stroke="#162B45" stroke-width="5" stroke-linecap="round" stroke-linejoin="round" />
<path d="M271.24 122 Q285.24 116 299.24 122" fill="none" stroke="#162B45" stroke-width="5" stroke-linecap="round" stroke-linejoin="round" />
<path d="M256 155 q-4 10 5 12" fill="none" stroke="#9A6040" stroke-width="4" stroke-linecap="round" stroke-linejoin="round" />
<path d="M229 179 Q256 208 284 177" fill="none" stroke="#162B45" stroke-width="6" stroke-linecap="round" stroke-linejoin="round" /></g>
<g id="arm-left-rest" data-semantic-layer="true" style="display:none"><polyline points="298,249 312.0,284.0 326,319" fill="none" stroke="#162B45" stroke-width="32" stroke-linecap="round" stroke-linejoin="round"/><polyline points="298,249 312.0,284.0 326,319" fill="none" stroke="#F5B82E" stroke-width="24" stroke-linecap="round" stroke-linejoin="round"/><polyline points="326,319 320,369" fill="none" stroke="#162B45" stroke-width="25" stroke-linecap="round" stroke-linejoin="round"/><polyline points="326,319 320,369" fill="none" stroke="#754329" stroke-width="18" stroke-linecap="round" stroke-linejoin="round"/><ellipse cx="320" cy="369" rx="11" ry="13" fill="#9A6040" stroke="#162B45" stroke-width="5" /></g>
<g id="arm-right-rest" data-semantic-layer="true" style="display:none"><polyline points="214,249 200.0,284.0 186,319" fill="none" stroke="#162B45" stroke-width="32" stroke-linecap="round" stroke-linejoin="round"/><polyline points="214,249 200.0,284.0 186,319" fill="none" stroke="#F5B82E" stroke-width="24" stroke-linecap="round" stroke-linejoin="round"/><polyline points="186,319 192,369" fill="none" stroke="#162B45" stroke-width="25" stroke-linecap="round" stroke-linejoin="round"/><polyline points="186,319 192,369" fill="none" stroke="#754329" stroke-width="18" stroke-linecap="round" stroke-linejoin="round"/><ellipse cx="192" cy="369" rx="11" ry="13" fill="#9A6040" stroke="#162B45" stroke-width="5" /></g>
<g id="arm-left-greeting" data-semantic-layer="true"><polyline points="298,249 312.0,284.0 326,319" fill="none" stroke="#162B45" stroke-width="32" stroke-linecap="round" stroke-linejoin="round"/><polyline points="298,249 312.0,284.0 326,319" fill="none" stroke="#F5B82E" stroke-width="24" stroke-linecap="round" stroke-linejoin="round"/><polyline points="326,319 320,369" fill="none" stroke="#162B45" stroke-width="25" stroke-linecap="round" stroke-linejoin="round"/><polyline points="326,319 320,369" fill="none" stroke="#754329" stroke-width="18" stroke-linecap="round" stroke-linejoin="round"/><ellipse cx="320" cy="369" rx="13" ry="15" fill="#9A6040" stroke="#162B45" stroke-width="5" /><path d="M315.8 363 L306.2 342.8" fill="none" stroke="#754329" stroke-width="6" stroke-linecap="round" stroke-linejoin="round" /><path d="M318.6 363 L315.4 341.6" fill="none" stroke="#754329" stroke-width="6" stroke-linecap="round" stroke-linejoin="round" /><path d="M321.4 363 L324.6 341.6" fill="none" stroke="#754329" stroke-width="6" stroke-linecap="round" stroke-linejoin="round" /><path d="M324.2 363 L333.8 342.8" fill="none" stroke="#754329" stroke-width="6" stroke-linecap="round" stroke-linejoin="round" /></g>
<g id="arm-right-greeting" data-semantic-layer="true"><polyline points="214,249 196.0,233.0 178,217" fill="none" stroke="#162B45" stroke-width="32" stroke-linecap="round" stroke-linejoin="round"/><polyline points="214,249 196.0,233.0 178,217" fill="none" stroke="#F5B82E" stroke-width="24" stroke-linecap="round" stroke-linejoin="round"/><polyline points="178,217 166,159" fill="none" stroke="#162B45" stroke-width="25" stroke-linecap="round" stroke-linejoin="round"/><polyline points="178,217 166,159" fill="none" stroke="#754329" stroke-width="18" stroke-linecap="round" stroke-linejoin="round"/><ellipse cx="166" cy="159" rx="13" ry="15" fill="#9A6040" stroke="#162B45" stroke-width="5" /><path d="M161.8 153 L152.2 132.8" fill="none" stroke="#754329" stroke-width="6" stroke-linecap="round" stroke-linejoin="round" /><path d="M164.6 153 L161.4 131.6" fill="none" stroke="#754329" stroke-width="6" stroke-linecap="round" stroke-linejoin="round" /><path d="M167.4 153 L170.6 131.6" fill="none" stroke="#754329" stroke-width="6" stroke-linecap="round" stroke-linejoin="round" /><path d="M170.2 153 L179.8 132.8" fill="none" stroke="#754329" stroke-width="6" stroke-linecap="round" stroke-linejoin="round" /></g>
<g id="arm-left-farewell" data-semantic-layer="true" style="display:none"><polyline points="298,249 316.0,233.0 334,217" fill="none" stroke="#162B45" stroke-width="32" stroke-linecap="round" stroke-linejoin="round"/><polyline points="298,249 316.0,233.0 334,217" fill="none" stroke="#F5B82E" stroke-width="24" stroke-linecap="round" stroke-linejoin="round"/><polyline points="334,217 346,159" fill="none" stroke="#162B45" stroke-width="25" stroke-linecap="round" stroke-linejoin="round"/><polyline points="334,217 346,159" fill="none" stroke="#754329" stroke-width="18" stroke-linecap="round" stroke-linejoin="round"/><ellipse cx="346" cy="159" rx="13" ry="15" fill="#9A6040" stroke="#162B45" stroke-width="5" /><path d="M341.8 153 L332.2 132.8" fill="none" stroke="#754329" stroke-width="6" stroke-linecap="round" stroke-linejoin="round" /><path d="M344.6 153 L341.4 131.6" fill="none" stroke="#754329" stroke-width="6" stroke-linecap="round" stroke-linejoin="round" /><path d="M347.4 153 L350.6 131.6" fill="none" stroke="#754329" stroke-width="6" stroke-linecap="round" stroke-linejoin="round" /><path d="M350.2 153 L359.8 132.8" fill="none" stroke="#754329" stroke-width="6" stroke-linecap="round" stroke-linejoin="round" /></g>
<g id="arm-right-farewell" data-semantic-layer="true" style="display:none"><polyline points="214,249 200.0,284.0 186,319" fill="none" stroke="#162B45" stroke-width="32" stroke-linecap="round" stroke-linejoin="round"/><polyline points="214,249 200.0,284.0 186,319" fill="none" stroke="#F5B82E" stroke-width="24" stroke-linecap="round" stroke-linejoin="round"/><polyline points="186,319 192,369" fill="none" stroke="#162B45" stroke-width="25" stroke-linecap="round" stroke-linejoin="round"/><polyline points="186,319 192,369" fill="none" stroke="#754329" stroke-width="18" stroke-linecap="round" stroke-linejoin="round"/><ellipse cx="192" cy="369" rx="13" ry="15" fill="#9A6040" stroke="#162B45" stroke-width="5" /><path d="M187.8 363 L178.2 342.8" fill="none" stroke="#754329" stroke-width="6" stroke-linecap="round" stroke-linejoin="round" /><path d="M190.6 363 L187.4 341.6" fill="none" stroke="#754329" stroke-width="6" stroke-linecap="round" stroke-linejoin="round" /><path d="M193.4 363 L196.6 341.6" fill="none" stroke="#754329" stroke-width="6" stroke-linecap="round" stroke-linejoin="round" /><path d="M196.2 363 L205.8 342.8" fill="none" stroke="#754329" stroke-width="6" stroke-linecap="round" stroke-linejoin="round" /></g>
<g id="arm-left-agreement" data-semantic-layer="true" style="display:none"><polyline points="298,249 308.0,266.5 318,284" fill="none" stroke="#162B45" stroke-width="32" stroke-linecap="round" stroke-linejoin="round"/><polyline points="298,249 308.0,266.5 318,284" fill="none" stroke="#F5B82E" stroke-width="24" stroke-linecap="round" stroke-linejoin="round"/><polyline points="318,284 301,259" fill="none" stroke="#162B45" stroke-width="25" stroke-linecap="round" stroke-linejoin="round"/><polyline points="318,284 301,259" fill="none" stroke="#754329" stroke-width="18" stroke-linecap="round" stroke-linejoin="round"/><ellipse cx="301" cy="259" rx="11" ry="13" fill="#9A6040" stroke="#162B45" stroke-width="5" /></g>
<g id="arm-right-agreement" data-semantic-layer="true" style="display:none"><polyline points="214,249 204.0,266.5 194,284" fill="none" stroke="#162B45" stroke-width="32" stroke-linecap="round" stroke-linejoin="round"/><polyline points="214,249 204.0,266.5 194,284" fill="none" stroke="#F5B82E" stroke-width="24" stroke-linecap="round" stroke-linejoin="round"/><polyline points="194,284 211,259" fill="none" stroke="#162B45" stroke-width="25" stroke-linecap="round" stroke-linejoin="round"/><polyline points="194,284 211,259" fill="none" stroke="#754329" stroke-width="18" stroke-linecap="round" stroke-linejoin="round"/><ellipse cx="211" cy="259" rx="11" ry="13" fill="#9A6040" stroke="#162B45" stroke-width="5" /></g>
<g id="arm-left-disagreement" data-semantic-layer="true" style="display:none"><polyline points="298,249 306.0,271.5 314,294" fill="none" stroke="#162B45" stroke-width="32" stroke-linecap="round" stroke-linejoin="round"/><polyline points="298,249 306.0,271.5 314,294" fill="none" stroke="#F5B82E" stroke-width="24" stroke-linecap="round" stroke-linejoin="round"/><polyline points="314,294 218,322" fill="none" stroke="#162B45" stroke-width="25" stroke-linecap="round" stroke-linejoin="round"/><polyline points="314,294 218,322" fill="none" stroke="#754329" stroke-width="18" stroke-linecap="round" stroke-linejoin="round"/><ellipse cx="218" cy="322" rx="11" ry="13" fill="#9A6040" stroke="#162B45" stroke-width="5" /></g>
<g id="arm-right-disagreement" data-semantic-layer="true" style="display:none"><polyline points="214,249 206.0,271.5 198,294" fill="none" stroke="#162B45" stroke-width="32" stroke-linecap="round" stroke-linejoin="round"/><polyline points="214,249 206.0,271.5 198,294" fill="none" stroke="#F5B82E" stroke-width="24" stroke-linecap="round" stroke-linejoin="round"/><polyline points="198,294 294,322" fill="none" stroke="#162B45" stroke-width="25" stroke-linecap="round" stroke-linejoin="round"/><polyline points="198,294 294,322" fill="none" stroke="#754329" stroke-width="18" stroke-linecap="round" stroke-linejoin="round"/><ellipse cx="294" cy="322" rx="11" ry="13" fill="#9A6040" stroke="#162B45" stroke-width="5" /></g>
<g id="arm-left-gratitude" data-semantic-layer="true" style="display:none"><polyline points="298,249 307.0,272.5 316,296" fill="none" stroke="#162B45" stroke-width="32" stroke-linecap="round" stroke-linejoin="round"/><polyline points="298,249 307.0,272.5 316,296" fill="none" stroke="#F5B82E" stroke-width="24" stroke-linecap="round" stroke-linejoin="round"/><polyline points="316,296 266,311" fill="none" stroke="#162B45" stroke-width="25" stroke-linecap="round" stroke-linejoin="round"/><polyline points="316,296 266,311" fill="none" stroke="#754329" stroke-width="18" stroke-linecap="round" stroke-linejoin="round"/><ellipse cx="266" cy="311" rx="11" ry="13" fill="#9A6040" stroke="#162B45" stroke-width="5" /></g>
<g id="arm-right-gratitude" data-semantic-layer="true" style="display:none"><polyline points="214,249 205.0,272.5 196,296" fill="none" stroke="#162B45" stroke-width="32" stroke-linecap="round" stroke-linejoin="round"/><polyline points="214,249 205.0,272.5 196,296" fill="none" stroke="#F5B82E" stroke-width="24" stroke-linecap="round" stroke-linejoin="round"/><polyline points="196,296 246,311" fill="none" stroke="#162B45" stroke-width="25" stroke-linecap="round" stroke-linejoin="round"/><polyline points="196,296 246,311" fill="none" stroke="#754329" stroke-width="18" stroke-linecap="round" stroke-linejoin="round"/><ellipse cx="246" cy="311" rx="11" ry="13" fill="#9A6040" stroke="#162B45" stroke-width="5" /></g>
<g id="arm-left-concern" data-semantic-layer="true" style="display:none"><polyline points="298,249 310.0,260.0 322,271" fill="none" stroke="#162B45" stroke-width="32" stroke-linecap="round" stroke-linejoin="round"/><polyline points="298,249 310.0,260.0 322,271" fill="none" stroke="#F5B82E" stroke-width="24" stroke-linecap="round" stroke-linejoin="round"/><polyline points="322,271 294,186" fill="none" stroke="#162B45" stroke-width="25" stroke-linecap="round" stroke-linejoin="round"/><polyline points="322,271 294,186" fill="none" stroke="#754329" stroke-width="18" stroke-linecap="round" stroke-linejoin="round"/><ellipse cx="294" cy="186" rx="11" ry="13" fill="#9A6040" stroke="#162B45" stroke-width="5" /></g>
<g id="arm-right-concern" data-semantic-layer="true" style="display:none"><polyline points="214,249 202.0,260.0 190,271" fill="none" stroke="#162B45" stroke-width="32" stroke-linecap="round" stroke-linejoin="round"/><polyline points="214,249 202.0,260.0 190,271" fill="none" stroke="#F5B82E" stroke-width="24" stroke-linecap="round" stroke-linejoin="round"/><polyline points="190,271 218,186" fill="none" stroke="#162B45" stroke-width="25" stroke-linecap="round" stroke-linejoin="round"/><polyline points="190,271 218,186" fill="none" stroke="#754329" stroke-width="18" stroke-linecap="round" stroke-linejoin="round"/><ellipse cx="218" cy="186" rx="11" ry="13" fill="#9A6040" stroke="#162B45" stroke-width="5" /></g>
<g id="arm-left-surprise" data-semantic-layer="true" style="display:none"><polyline points="298,249 312.0,253.0 326,257" fill="none" stroke="#162B45" stroke-width="32" stroke-linecap="round" stroke-linejoin="round"/><polyline points="298,249 312.0,253.0 326,257" fill="none" stroke="#F5B82E" stroke-width="24" stroke-linecap="round" stroke-linejoin="round"/><polyline points="326,257 314,173" fill="none" stroke="#162B45" stroke-width="25" stroke-linecap="round" stroke-linejoin="round"/><polyline points="326,257 314,173" fill="none" stroke="#754329" stroke-width="18" stroke-linecap="round" stroke-linejoin="round"/><ellipse cx="314" cy="173" rx="13" ry="15" fill="#9A6040" stroke="#162B45" stroke-width="5" /><path d="M309.8 167 L300.2 146.8" fill="none" stroke="#754329" stroke-width="6" stroke-linecap="round" stroke-linejoin="round" /><path d="M312.6 167 L309.4 145.6" fill="none" stroke="#754329" stroke-width="6" stroke-linecap="round" stroke-linejoin="round" /><path d="M315.4 167 L318.6 145.6" fill="none" stroke="#754329" stroke-width="6" stroke-linecap="round" stroke-linejoin="round" /><path d="M318.2 167 L327.8 146.8" fill="none" stroke="#754329" stroke-width="6" stroke-linecap="round" stroke-linejoin="round" /></g>
<g id="arm-right-surprise" data-semantic-layer="true" style="display:none"><polyline points="214,249 200.0,253.0 186,257" fill="none" stroke="#162B45" stroke-width="32" stroke-linecap="round" stroke-linejoin="round"/><polyline points="214,249 200.0,253.0 186,257" fill="none" stroke="#F5B82E" stroke-width="24" stroke-linecap="round" stroke-linejoin="round"/><polyline points="186,257 198,173" fill="none" stroke="#162B45" stroke-width="25" stroke-linecap="round" stroke-linejoin="round"/><polyline points="186,257 198,173" fill="none" stroke="#754329" stroke-width="18" stroke-linecap="round" stroke-linejoin="round"/><ellipse cx="198" cy="173" rx="13" ry="15" fill="#9A6040" stroke="#162B45" stroke-width="5" /><path d="M193.8 167 L184.2 146.8" fill="none" stroke="#754329" stroke-width="6" stroke-linecap="round" stroke-linejoin="round" /><path d="M196.6 167 L193.4 145.6" fill="none" stroke="#754329" stroke-width="6" stroke-linecap="round" stroke-linejoin="round" /><path d="M199.4 167 L202.6 145.6" fill="none" stroke="#754329" stroke-width="6" stroke-linecap="round" stroke-linejoin="round" /><path d="M202.2 167 L211.8 146.8" fill="none" stroke="#754329" stroke-width="6" stroke-linecap="round" stroke-linejoin="round" /></g>
<g id="arm-left-celebration" data-semantic-layer="true" style="display:none"><polyline points="298,249 315.0,228.0 332,207" fill="none" stroke="#162B45" stroke-width="32" stroke-linecap="round" stroke-linejoin="round"/><polyline points="298,249 315.0,228.0 332,207" fill="none" stroke="#F5B82E" stroke-width="24" stroke-linecap="round" stroke-linejoin="round"/><polyline points="332,207 350,145" fill="none" stroke="#162B45" stroke-width="25" stroke-linecap="round" stroke-linejoin="round"/><polyline points="332,207 350,145" fill="none" stroke="#754329" stroke-width="18" stroke-linecap="round" stroke-linejoin="round"/><ellipse cx="350" cy="145" rx="13" ry="15" fill="#9A6040" stroke="#162B45" stroke-width="5" /><path d="M345.8 139 L336.2 118.8" fill="none" stroke="#754329" stroke-width="6" stroke-linecap="round" stroke-linejoin="round" /><path d="M348.6 139 L345.4 117.6" fill="none" stroke="#754329" stroke-width="6" stroke-linecap="round" stroke-linejoin="round" /><path d="M351.4 139 L354.6 117.6" fill="none" stroke="#754329" stroke-width="6" stroke-linecap="round" stroke-linejoin="round" /><path d="M354.2 139 L363.8 118.8" fill="none" stroke="#754329" stroke-width="6" stroke-linecap="round" stroke-linejoin="round" /></g>
<g id="arm-right-celebration" data-semantic-layer="true" style="display:none"><polyline points="214,249 197.0,228.0 180,207" fill="none" stroke="#162B45" stroke-width="32" stroke-linecap="round" stroke-linejoin="round"/><polyline points="214,249 197.0,228.0 180,207" fill="none" stroke="#F5B82E" stroke-width="24" stroke-linecap="round" stroke-linejoin="round"/><polyline points="180,207 162,145" fill="none" stroke="#162B45" stroke-width="25" stroke-linecap="round" stroke-linejoin="round"/><polyline points="180,207 162,145" fill="none" stroke="#754329" stroke-width="18" stroke-linecap="round" stroke-linejoin="round"/><ellipse cx="162" cy="145" rx="13" ry="15" fill="#9A6040" stroke="#162B45" stroke-width="5" /><path d="M157.8 139 L148.2 118.8" fill="none" stroke="#754329" stroke-width="6" stroke-linecap="round" stroke-linejoin="round" /><path d="M160.6 139 L157.4 117.6" fill="none" stroke="#754329" stroke-width="6" stroke-linecap="round" stroke-linejoin="round" /><path d="M163.4 139 L166.6 117.6" fill="none" stroke="#754329" stroke-width="6" stroke-linecap="round" stroke-linejoin="round" /><path d="M166.2 139 L175.8 118.8" fill="none" stroke="#754329" stroke-width="6" stroke-linecap="round" stroke-linejoin="round" /></g>
</svg>
