<svg xmlns="http://www.w3.org/2000/svg" width="512" height="512" viewBox="0 0 512 512">
<path d="M91 226 Q64 194 81 169 Q119 178 119 218 Q105 230 91 226 Z" fill="#329B62" stroke="#20324B" stroke-width="6"/><path d="M421 334 Q450 304 470 326 Q460 365 422 367 Q409 350 421 334 Z" fill="#FFD65A" stroke="#20324B" stroke-width="6"/>
<path d="M177 241 Q208 208 239 241" fill="none" stroke="#20324B" stroke-width="14" stroke-linecap="round"/>
<path d="M273 241 Q304 208 335 241" fill="none" stroke="#20324B" stroke-width="14" stroke-linecap="round"/>
<path d="M207 284 Q256 345 305 284 Q300 352 256 360 Q212 352 207 284 Z" fill="#DFF7C8" stroke="#20324B" stroke-width="10" stroke-linejoin="round"/>
<polygon points="394,129 399,146 416,151 399,156 394,173 389,156 372,151 389,146" fill="#FFD65A" stroke="#20324B" stroke-width="5" stroke-linejoin="round"/>
</svg>
