<svg xmlns="http://www.w3.org/2000/svg" width="512" height="512" viewBox="0 0 512 512">
<path d="M91 226 Q64 194 81 169 Q119 178 119 218 Q105 230 91 226 Z" fill="#329B62" stroke="#20324B" stroke-width="6"/><path d="M421 334 Q450 304 470 326 Q460 365 422 367 Q409 350 421 334 Z" fill="#FFD65A" stroke="#20324B" stroke-width="6"/>
<path d="M174 205 L238 232 M338 205 L274 232" fill="none" stroke="#20324B" stroke-width="14" stroke-linecap="round"/>
<ellipse cx="210" cy="252" rx="23" ry="26" fill="#FFFDF8" stroke="#20324B" stroke-width="8"/>
<ellipse cx="302" cy="252" rx="23" ry="26" fill="#FFFDF8" stroke="#20324B" stroke-width="8"/>
<circle cx="215" cy="256" r="10" fill="#20324B"/><circle cx="297" cy="256" r="10" fill="#20324B"/>
<path d="M220 326 Q256 304 292 326" fill="none" stroke="#20324B" stroke-width="13" stroke-linecap="round"/>
<path d="M115 178 Q75 156 102 124 M397 178 Q437 156 410 124" fill="none" stroke="#329B62" stroke-width="13" stroke-linecap="round"/>
</svg>
