<svg xmlns="http://www.w3.org/2000/svg" width="512" height="512" viewBox="0 0 512 512">
<path d="M91 226 Q64 194 81 169 Q119 178 119 218 Q105 230 91 226 Z" fill="#329B62" stroke="#20324B" stroke-width="6"/><path d="M421 334 Q450 304 470 326 Q460 365 422 367 Q409 350 421 334 Z" fill="#FFD65A" stroke="#20324B" stroke-width="6"/>
<path d="M176 244 Q208 260 240 244 M272 244 Q304 260 336 244" fill="none" stroke="#20324B" stroke-width="12" stroke-linecap="round"/>
<ellipse cx="256" cy="325" rx="31" ry="25" fill="#20324B"/>
<path d="M176 286 L222 292 M290 292 L336 286" fill="none" stroke="#FF8FA8" stroke-width="8" stroke-linecap="round"/>
<circle cx="395" cy="207" r="13" fill="#DFF7C8" stroke="#20324B" stroke-width="5"/>
<circle cx="421" cy="177" r="9" fill="#DFF7C8" stroke="#20324B" stroke-width="5"/>
</svg>
