<svg xmlns="http://www.w3.org/2000/svg" width="512" height="512" viewBox="0 0 512 512">
<defs><linearGradient id="softShade" x1="0" y1="0" x2="1" y2="1"><stop offset="0" stop-color="#FFFFFF" stop-opacity=".24"/><stop offset="1" stop-color="#10243A" stop-opacity=".14"/></linearGradient></defs>
<ellipse cx="256" cy="472" rx="105" ry="14" fill="#AAB2BD" stroke="none" stroke-width="0" opacity=".65"/><rect x="271" y="321" width="42" height="126" rx="15.96" fill="#2F3442" stroke="#162B45" stroke-width="6" /><rect x="268" y="437" width="66" height="28" rx="13" fill="#CF6C62" stroke="#162B45" stroke-width="6" /><rect x="199" y="321" width="42" height="126" rx="15.96" fill="#2F3442" stroke="#162B45" stroke-width="6" /><rect x="187" y="437" width="66" height="28" rx="13" fill="#CF6C62" stroke="#162B45" stroke-width="6" /><polyline points="336,212 350.0,247.0 364,282" fill="none" stroke="#162B45" stroke-width="32" stroke-linecap="round" stroke-linejoin="round"/><polyline points="336,212 350.0,247.0 364,282" fill="none" stroke="#365D87" stroke-width="24" stroke-linecap="round" stroke-linejoin="round"/><polyline points="364,282 358,332" fill="none" stroke="#162B45" stroke-width="25" stroke-linecap="round" stroke-linejoin="round"/><polyline points="364,282 358,332" fill="none" stroke="#87513D" stroke-width="18" stroke-linecap="round" stroke-linejoin="round"/><ellipse cx="358" cy="332" rx="11" ry="13" fill="#B4765C" stroke="#162B45" stroke-width="5" /><polyline points="176,212 162.0,247.0 148,282" fill="none" stroke="#162B45" stroke-width="32" stroke-linecap="round" stroke-linejoin="round"/><polyline points="176,212 162.0,247.0 148,282" fill="none" stroke="#365D87" stroke-width="24" stroke-linecap="round" stroke-linejoin="round"/><polyline points="148,282 154,332" fill="none" stroke="#162B45" stroke-width="25" stroke-linecap="round" stroke-linejoin="round"/><polyline points="148,282 154,332" fill="none" stroke="#87513D" stroke-width="18" stroke-linecap="round" stroke-linejoin="round"/><ellipse cx="154" cy="332" rx="11" ry="13" fill="#B4765C" stroke="#162B45" stroke-width="5" /><rect x="168" y="178" width="176" height="151" rx="30" fill="#365D87" stroke="#162B45" stroke-width="7" /><path d="M186 200 Q256.0 216 326 200" fill="none" stroke="#E56A62" stroke-width="8" stroke-linecap="round" stroke-linejoin="round" /><ellipse cx="256" cy="105" rx="63" ry="67" fill="#87513D" stroke="#162B45" stroke-width="7" /><ellipse cx="213" cy="43" rx="16" ry="16" fill="#201718" stroke="#162B45" stroke-width="4" /><ellipse cx="227" cy="47" rx="16" ry="16" fill="#201718" stroke="#162B45" stroke-width="4" /><ellipse cx="241" cy="43" rx="16" ry="16" fill="#201718" stroke="#162B45" stroke-width="4" /><ellipse cx="255" cy="47" rx="16" ry="16" fill="#201718" stroke="#162B45" stroke-width="4" /><ellipse cx="269" cy="43" rx="16" ry="16" fill="#201718" stroke="#162B45" stroke-width="4" /><ellipse cx="283" cy="47" rx="16" ry="16" fill="#201718" stroke="#162B45" stroke-width="4" /><ellipse cx="297" cy="43" rx="16" ry="16" fill="#201718" stroke="#162B45" stroke-width="4" /><path d="M208 71 Q256 37 306 73" fill="#201718" stroke="#162B45" stroke-width="5" stroke-linecap="round" stroke-linejoin="round" />
</svg>
