<svg xmlns="http://www.w3.org/2000/svg" width="512" height="512" viewBox="0 0 512 512">
<defs><linearGradient id="softShade" x1="0" y1="0" x2="1" y2="1"><stop offset="0" stop-color="#FFFFFF" stop-opacity=".24"/><stop offset="1" stop-color="#10243A" stop-opacity=".14"/></linearGradient></defs>
<ellipse cx="256" cy="472" rx="105" ry="14" fill="#AAB2BD" stroke="none" stroke-width="0" opacity=".65"/><rect x="236" y="322" width="34" height="141" rx="14" fill="#2F3442" stroke="#162B45" stroke-width="6" /><rect x="230" y="443" width="61" height="27" rx="13" fill="#CF6C62" stroke="#162B45" stroke-width="6" /><rect x="214.0" y="178" width="88.0" height="151" rx="25" fill="#365D87" stroke="#162B45" stroke-width="7" /><path d="M231.6 198 L284.4 198" fill="none" stroke="#E56A62" stroke-width="7" stroke-linecap="round" stroke-linejoin="round" /><path d="M258 213 Q293 273 278 328" fill="none" stroke="#87513D" stroke-width="20" stroke-linecap="round" stroke-linejoin="round" /><ellipse cx="258" cy="105" rx="36.54" ry="67" fill="#87513D" stroke="#162B45" stroke-width="7" /><ellipse cx="230" cy="46" rx="16" ry="16" fill="#201718" stroke="#162B45" stroke-width="4" /><ellipse cx="244" cy="50" rx="16" ry="16" fill="#201718" stroke="#162B45" stroke-width="4" /><ellipse cx="258" cy="46" rx="16" ry="16" fill="#201718" stroke="#162B45" stroke-width="4" /><ellipse cx="272" cy="50" rx="16" ry="16" fill="#201718" stroke="#162B45" stroke-width="4" /><ellipse cx="286" cy="46" rx="16" ry="16" fill="#201718" stroke="#162B45" stroke-width="4" /><ellipse cx="270.6" cy="107" rx="9" ry="12" fill="#FFF8EE" stroke="#162B45" stroke-width="4" /><ellipse cx="273.12" cy="109" rx="4" ry="6" fill="#162B45" stroke="#162B45" stroke-width="0" /><path d="M289.5 113 q12 8 0 16" fill="none" stroke="#B4765C" stroke-width="5" stroke-linecap="round" stroke-linejoin="round" /><path d="M260 142 Q276 153 289 139" fill="none" stroke="#162B45" stroke-width="5" stroke-linecap="round" stroke-linejoin="round" />
</svg>
