<svg xmlns="http://www.w3.org/2000/svg" width="512" height="512" viewBox="0 0 512 512">
<defs><linearGradient id="softShade" x1="0" y1="0" x2="1" y2="1"><stop offset="0" stop-color="#FFFFFF" stop-opacity=".24"/><stop offset="1" stop-color="#10243A" stop-opacity=".14"/></linearGradient></defs>
<ellipse cx="256" cy="472" rx="105" ry="14" fill="#AAB2BD" stroke="none" stroke-width="0" opacity=".65"/><g transform="translate(38 0) scale(.86 1)"><rect x="271" y="321" width="42" height="126" rx="15.96" fill="#2F3442" stroke="#162B45" stroke-width="6" /><rect x="268" y="437" width="66" height="28" rx="13" fill="#CF6C62" stroke="#162B45" stroke-width="6" /><rect x="199" y="321" width="42" height="126" rx="15.96" fill="#2F3442" stroke="#162B45" stroke-width="6" /><rect x="187" y="437" width="66" height="28" rx="13" fill="#CF6C62" stroke="#162B45" stroke-width="6" /><rect x="168" y="178" width="176" height="151" rx="30" fill="#365D87" stroke="#162B45" stroke-width="7" /><path d="M186 196 Q256.0 221 326 196" fill="none" stroke="#E56A62" stroke-width="8" stroke-linecap="round" stroke-linejoin="round" /><path d="M199.68 196 Q256.0 186 312.32 196" fill="none" stroke="#E9B542" stroke-width="5" stroke-linecap="round" stroke-linejoin="round" /><path d="M215.52 182 Q256.0 222 296.48 182" fill="none" stroke="#E56A62" stroke-width="8" stroke-linecap="round" stroke-linejoin="round" /><rect x="215.52" y="265.58" width="80.96000000000001" height="37.75" rx="14" fill="#E56A62" stroke="#162B45" stroke-width="4" /><polyline points="336,212 350.0,247.0 364,282" fill="none" stroke="#162B45" stroke-width="32" stroke-linecap="round" stroke-linejoin="round"/><polyline points="336,212 350.0,247.0 364,282" fill="none" stroke="#365D87" stroke-width="24" stroke-linecap="round" stroke-linejoin="round"/><polyline points="364,282 358,332" fill="none" stroke="#162B45" stroke-width="25" stroke-linecap="round" stroke-linejoin="round"/><polyline points="364,282 358,332" fill="none" stroke="#87513D" stroke-width="18" stroke-linecap="round" stroke-linejoin="round"/><ellipse cx="358" cy="332" rx="11" ry="13" fill="#B4765C" stroke="#162B45" stroke-width="5" /><polyline points="176,212 162.0,247.0 148,282" fill="none" stroke="#162B45" stroke-width="32" stroke-linecap="round" stroke-linejoin="round"/><polyline points="176,212 162.0,247.0 148,282" fill="none" stroke="#365D87" stroke-width="24" stroke-linecap="round" stroke-linejoin="round"/><polyline points="148,282 154,332" fill="none" stroke="#162B45" stroke-width="25" stroke-linecap="round" stroke-linejoin="round"/><polyline points="148,282 154,332" fill="none" stroke="#87513D" stroke-width="18" stroke-linecap="round" stroke-linejoin="round"/><ellipse cx="154" cy="332" rx="11" ry="13" fill="#B4765C" stroke="#162B45" stroke-width="5" /></g><ellipse cx="269" cy="105" rx="56.7" ry="67" fill="#87513D" stroke="#162B45" stroke-width="7" /><g transform="translate(33.48 0) scale(.92 1)"><ellipse cx="213" cy="43" rx="16" ry="16" fill="#201718" stroke="#162B45" stroke-width="4" /><ellipse cx="227" cy="47" rx="16" ry="16" fill="#201718" stroke="#162B45" stroke-width="4" /><ellipse cx="241" cy="43" rx="16" ry="16" fill="#201718" stroke="#162B45" stroke-width="4" /><ellipse cx="255" cy="47" rx="16" ry="16" fill="#201718" stroke="#162B45" stroke-width="4" /><ellipse cx="269" cy="43" rx="16" ry="16" fill="#201718" stroke="#162B45" stroke-width="4" /><ellipse cx="283" cy="47" rx="16" ry="16" fill="#201718" stroke="#162B45" stroke-width="4" /><ellipse cx="297" cy="43" rx="16" ry="16" fill="#201718" stroke="#162B45" stroke-width="4" /><path d="M208 71 Q256 37 306 73" fill="#201718" stroke="#162B45" stroke-width="5" stroke-linecap="round" stroke-linejoin="round" /></g><ellipse cx="254" cy="109" rx="9" ry="12" fill="#FFF8EE" stroke="#162B45" stroke-width="4" /><ellipse cx="293" cy="109" rx="7" ry="10" fill="#FFF8EE" stroke="#162B45" stroke-width="4" /><ellipse cx="257" cy="111" rx="4" ry="6" fill="#162B45" stroke="#162B45" stroke-width="0" /><ellipse cx="295" cy="111" rx="3" ry="5" fill="#162B45" stroke="#162B45" stroke-width="0" /><path d="M273 117 Q287 123 278 129" fill="none" stroke="#B4765C" stroke-width="4" stroke-linecap="round" stroke-linejoin="round" /><path d="M252 141 Q277 157 299 136" fill="none" stroke="#162B45" stroke-width="6" stroke-linecap="round" stroke-linejoin="round" />
</svg>
