<svg xmlns="http://www.w3.org/2000/svg" width="512" height="512" viewBox="0 0 512 512">
<defs><linearGradient id="softShade" x1="0" y1="0" x2="1" y2="1"><stop offset="0" stop-color="#FFFFFF" stop-opacity=".24"/><stop offset="1" stop-color="#10243A" stop-opacity=".14"/></linearGradient></defs>
<g id="shadow" data-semantic-layer="true"><ellipse cx="256" cy="472" rx="105" ry="14" fill="#AAB2BD" stroke="none" stroke-width="0" opacity=".65"/></g>
<g id="hair-back" data-semantic-layer="true"><path d="M182 76 Q169 165 199 215 Q256 234 313 215 Q343 165 330 76 Z" fill="#426B4B" stroke="#162B45" stroke-width="7" stroke-linecap="round" stroke-linejoin="round" /></g>
<g id="leg-left" data-semantic-layer="true"><rect x="272" y="331" width="33" height="116" rx="12.540000000000001" fill="#3C493D" stroke="#162B45" stroke-width="6" /><rect x="269" y="437" width="57" height="28" rx="13" fill="#2E3831" stroke="#162B45" stroke-width="6" /></g>
<g id="leg-right" data-semantic-layer="true"><rect x="207" y="331" width="33" height="116" rx="12.540000000000001" fill="#3C493D" stroke="#162B45" stroke-width="6" /><rect x="195" y="437" width="57" height="28" rx="13" fill="#2E3831" stroke="#162B45" stroke-width="6" /></g>
<g id="torso" data-semantic-layer="true"><rect x="190" y="181" width="132" height="158" rx="30" fill="#6F8A4B" stroke="#162B45" stroke-width="7" /><path d="M208 199 Q256.0 224 304 199" fill="none" stroke="#D7A742" stroke-width="8" stroke-linecap="round" stroke-linejoin="round" /><path d="M213.76 199 Q256.0 189 298.24 199" fill="none" stroke="#A65A54" stroke-width="5" stroke-linecap="round" stroke-linejoin="round" /><path d="M208 269.48 Q256.0 294.76 304 269.48" fill="none" stroke="#D7A742" stroke-width="7" stroke-linecap="round" stroke-linejoin="round" /><path d="M256.0 191 L256.0 330" fill="none" stroke="#A65A54" stroke-width="4" stroke-linecap="round" stroke-linejoin="round" /></g>
<g id="head" data-semantic-layer="true"><ellipse cx="200.54000000000002" cy="116" rx="12" ry="20" fill="#C58A62" stroke="#162B45" stroke-width="5" />
<ellipse cx="311.46" cy="116" rx="12" ry="20" fill="#C58A62" stroke="#162B45" stroke-width="5" />
<ellipse cx="256" cy="111" rx="59" ry="65" fill="#C58A62" stroke="#162B45" stroke-width="7" />
<path d="M213.52 79.8 Q241.25 60.3 292.58 77.19999999999999" fill="none" stroke="#E1AD84" stroke-width="5" stroke-linecap="round" stroke-linejoin="round" opacity=".45"/></g>
<g id="hair-front" data-semantic-layer="true"><path d="M199 84 Q256 15 313 84 L305 108 Q256 81 207 108 Z" fill="#426B4B" stroke="#162B45" stroke-width="6" stroke-linecap="round" stroke-linejoin="round" /><path d="M195 107 Q189 156 216 198" fill="none" stroke="#7E9B65" stroke-width="5" stroke-linecap="round" stroke-linejoin="round" /><path d="M317 107 Q323 156 296 198" fill="none" stroke="#7E9B65" stroke-width="5" stroke-linecap="round" stroke-linejoin="round" /><path d="M213 183 Q256 202 299 183" fill="none" stroke="#7E9B65" stroke-width="4" stroke-linecap="round" stroke-linejoin="round" /></g>
<g id="face-friendly" data-semantic-layer="true"><path d="M216.63 97 Q230.63 90 244.63 97" fill="none" stroke="#162B45" stroke-width="5" stroke-linecap="round" stroke-linejoin="round" />
<path d="M267.37 97 Q281.37 90 295.37 97" fill="none" stroke="#162B45" stroke-width="5" stroke-linecap="round" stroke-linejoin="round" />
<ellipse cx="230.63" cy="115" rx="10" ry="12" fill="#FFF8EE" stroke="#162B45" stroke-width="4" />
<ellipse cx="281.37" cy="115" rx="10" ry="12" fill="#FFF8EE" stroke="#162B45" stroke-width="4" />
<ellipse cx="231.63" cy="117" rx="4" ry="6" fill="#162B45" stroke="#162B45" stroke-width="0" />
<ellipse cx="282.37" cy="117" rx="4" ry="6" fill="#162B45" stroke="#162B45" stroke-width="0" />
<path d="M256 123 q-4 10 4 12" fill="none" stroke="#E1AD84" stroke-width="4" stroke-linecap="round" stroke-linejoin="round" />
<ellipse cx="221.78" cy="135" rx="10" ry="6" fill="#E58A78" stroke="none" stroke-width="0" opacity=".45"/>
<ellipse cx="290.22" cy="135" rx="10" ry="6" fill="#E58A78" stroke="none" stroke-width="0" opacity=".45"/>
<path d="M231 146 Q256 166 283 142" fill="none" stroke="#162B45" stroke-width="6" stroke-linecap="round" stroke-linejoin="round" />
<path d="M241 150 Q256 159 272 147" fill="none" stroke="#FFFFFF" stroke-width="3" stroke-linecap="round" stroke-linejoin="round" /></g>
<g id="face-laughing" data-semantic-layer="true" style="display:none"><path d="M220.63 115 Q230.63 124.0 240.63 115" fill="none" stroke="#162B45" stroke-width="5" stroke-linecap="round" stroke-linejoin="round" />
<path d="M271.37 115 Q281.37 124.0 291.37 115" fill="none" stroke="#162B45" stroke-width="5" stroke-linecap="round" stroke-linejoin="round" />
<path d="M216.63 95 Q230.63 89 244.63 95" fill="none" stroke="#162B45" stroke-width="5" stroke-linecap="round" stroke-linejoin="round" />
<path d="M267.37 95 Q281.37 89 295.37 95" fill="none" stroke="#162B45" stroke-width="5" stroke-linecap="round" stroke-linejoin="round" />
<path d="M256 123 q-4 10 5 12" fill="none" stroke="#E1AD84" stroke-width="4" stroke-linecap="round" stroke-linejoin="round" />
<path d="M228 145 Q256 186 285 144 Z" fill="#5B2730" stroke="#162B45" stroke-width="5" stroke-linecap="round" stroke-linejoin="round" />
<path d="M241 165 Q256 174 272 164" fill="none" stroke="#E98A86" stroke-width="5" stroke-linecap="round" stroke-linejoin="round" /></g>
<g id="face-surprised" data-semantic-layer="true" style="display:none"><ellipse cx="230.63" cy="115" rx="10" ry="16.200000000000003" fill="#FFF8EE" stroke="#162B45" stroke-width="4" />
<ellipse cx="231.63" cy="117" rx="4" ry="8.100000000000001" fill="#162B45" stroke="#162B45" stroke-width="0" />
<ellipse cx="281.37" cy="115" rx="10" ry="16.200000000000003" fill="#FFF8EE" stroke="#162B45" stroke-width="4" />
<ellipse cx="282.37" cy="117" rx="4" ry="8.100000000000001" fill="#162B45" stroke="#162B45" stroke-width="0" />
<path d="M216.63 86 Q230.63 80 244.63 86" fill="none" stroke="#162B45" stroke-width="5" stroke-linecap="round" stroke-linejoin="round" />
<path d="M267.37 86 Q281.37 80 295.37 86" fill="none" stroke="#162B45" stroke-width="5" stroke-linecap="round" stroke-linejoin="round" />
<path d="M256 123 q-4 10 5 12" fill="none" stroke="#E1AD84" stroke-width="4" stroke-linecap="round" stroke-linejoin="round" />
<ellipse cx="256" cy="152" rx="12" ry="16" fill="#5B2730" stroke="#162B45" stroke-width="5" /></g>
<g id="face-thinking" data-semantic-layer="true" style="display:none"><ellipse cx="230.63" cy="115" rx="10" ry="12.0" fill="#FFF8EE" stroke="#162B45" stroke-width="4" />
<ellipse cx="234.63" cy="117" rx="4" ry="6.0" fill="#162B45" stroke="#162B45" stroke-width="0" />
<ellipse cx="281.37" cy="115" rx="10" ry="12.0" fill="#FFF8EE" stroke="#162B45" stroke-width="4" />
<ellipse cx="285.37" cy="117" rx="4" ry="6.0" fill="#162B45" stroke="#162B45" stroke-width="0" />
<path d="M216.63 100 L244.63 93" fill="none" stroke="#162B45" stroke-width="5" stroke-linecap="round" stroke-linejoin="round" />
<path d="M267.37 93 L295.37 93" fill="none" stroke="#162B45" stroke-width="5" stroke-linecap="round" stroke-linejoin="round" />
<path d="M256 123 q-4 10 5 12" fill="none" stroke="#E1AD84" stroke-width="4" stroke-linecap="round" stroke-linejoin="round" />
<path d="M238 152 Q259 148 278 155" fill="none" stroke="#162B45" stroke-width="5" stroke-linecap="round" stroke-linejoin="round" /></g>
<g id="face-confident" data-semantic-layer="true" style="display:none"><ellipse cx="230.63" cy="115" rx="10" ry="7.4399999999999995" fill="#FFF8EE" stroke="#162B45" stroke-width="4" />
<ellipse cx="231.63" cy="117" rx="4" ry="3.7199999999999998" fill="#162B45" stroke="#162B45" stroke-width="0" />
<ellipse cx="281.37" cy="115" rx="10" ry="7.4399999999999995" fill="#FFF8EE" stroke="#162B45" stroke-width="4" />
<ellipse cx="282.37" cy="117" rx="4" ry="3.7199999999999998" fill="#162B45" stroke="#162B45" stroke-width="0" />
<path d="M216.63 100 Q230.63 94 244.63 100" fill="none" stroke="#162B45" stroke-width="5" stroke-linecap="round" stroke-linejoin="round" />
<path d="M267.37 100 Q281.37 94 295.37 100" fill="none" stroke="#162B45" stroke-width="5" stroke-linecap="round" stroke-linejoin="round" />
<path d="M256 123 q-4 10 5 12" fill="none" stroke="#E1AD84" stroke-width="4" stroke-linecap="round" stroke-linejoin="round" />
<path d="M232 149 Q261 171 285 144" fill="none" stroke="#162B45" stroke-width="6" stroke-linecap="round" stroke-linejoin="round" /></g>
<g id="face-sorry" data-semantic-layer="true" style="display:none"><ellipse cx="230.63" cy="115" rx="10" ry="12.0" fill="#FFF8EE" stroke="#162B45" stroke-width="4" />
<ellipse cx="231.63" cy="117" rx="4" ry="6.0" fill="#162B45" stroke="#162B45" stroke-width="0" />
<ellipse cx="281.37" cy="115" rx="10" ry="12.0" fill="#FFF8EE" stroke="#162B45" stroke-width="4" />
<ellipse cx="282.37" cy="117" rx="4" ry="6.0" fill="#162B45" stroke="#162B45" stroke-width="0" />
<path d="M216.63 97 Q232.63 91 244.63 102" fill="none" stroke="#162B45" stroke-width="5" stroke-linecap="round" stroke-linejoin="round" />
<path d="M267.37 102 Q279.37 91 295.37 97" fill="none" stroke="#162B45" stroke-width="5" stroke-linecap="round" stroke-linejoin="round" />
<path d="M256 123 q-4 10 5 12" fill="none" stroke="#E1AD84" stroke-width="4" stroke-linecap="round" stroke-linejoin="round" />
<path d="M232 161 Q256 142 280 161" fill="none" stroke="#162B45" stroke-width="6" stroke-linecap="round" stroke-linejoin="round" /></g>
<g id="face-excited" data-semantic-layer="true" style="display:none"><ellipse cx="230.63" cy="115" rx="10" ry="16.200000000000003" fill="#FFF8EE" stroke="#162B45" stroke-width="4" />
<ellipse cx="231.63" cy="117" rx="4" ry="8.100000000000001" fill="#162B45" stroke="#162B45" stroke-width="0" />
<ellipse cx="281.37" cy="115" rx="10" ry="16.200000000000003" fill="#FFF8EE" stroke="#162B45" stroke-width="4" />
<ellipse cx="282.37" cy="117" rx="4" ry="8.100000000000001" fill="#162B45" stroke="#162B45" stroke-width="0" />
<path d="M216.63 90 Q230.63 84 244.63 90" fill="none" stroke="#162B45" stroke-width="5" stroke-linecap="round" stroke-linejoin="round" />
<path d="M267.37 90 Q281.37 84 295.37 90" fill="none" stroke="#162B45" stroke-width="5" stroke-linecap="round" stroke-linejoin="round" />
<path d="M256 123 q-4 10 5 12" fill="none" stroke="#E1AD84" stroke-width="4" stroke-linecap="round" stroke-linejoin="round" />
<path d="M229 147 Q256 176 284 145" fill="none" stroke="#162B45" stroke-width="6" stroke-linecap="round" stroke-linejoin="round" /></g>
<g id="arm-left-rest" data-semantic-layer="true" style="display:none"><polyline points="314,215 328.0,250.0 342,285" fill="none" stroke="#162B45" stroke-width="32" stroke-linecap="round" stroke-linejoin="round"/><polyline points="314,215 328.0,250.0 342,285" fill="none" stroke="#6F8A4B" stroke-width="24" stroke-linecap="round" stroke-linejoin="round"/><polyline points="342,285 336,335" fill="none" stroke="#162B45" stroke-width="25" stroke-linecap="round" stroke-linejoin="round"/><polyline points="342,285 336,335" fill="none" stroke="#C58A62" stroke-width="18" stroke-linecap="round" stroke-linejoin="round"/><ellipse cx="336" cy="335" rx="11" ry="13" fill="#E1AD84" stroke="#162B45" stroke-width="5" /></g>
<g id="arm-right-rest" data-semantic-layer="true" style="display:none"><polyline points="198,215 184.0,250.0 170,285" fill="none" stroke="#162B45" stroke-width="32" stroke-linecap="round" stroke-linejoin="round"/><polyline points="198,215 184.0,250.0 170,285" fill="none" stroke="#6F8A4B" stroke-width="24" stroke-linecap="round" stroke-linejoin="round"/><polyline points="170,285 176,335" fill="none" stroke="#162B45" stroke-width="25" stroke-linecap="round" stroke-linejoin="round"/><polyline points="170,285 176,335" fill="none" stroke="#C58A62" stroke-width="18" stroke-linecap="round" stroke-linejoin="round"/><ellipse cx="176" cy="335" rx="11" ry="13" fill="#E1AD84" stroke="#162B45" stroke-width="5" /></g>
<g id="arm-left-greeting" data-semantic-layer="true"><polyline points="314,215 328.0,250.0 342,285" fill="none" stroke="#162B45" stroke-width="32" stroke-linecap="round" stroke-linejoin="round"/><polyline points="314,215 328.0,250.0 342,285" fill="none" stroke="#6F8A4B" stroke-width="24" stroke-linecap="round" stroke-linejoin="round"/><polyline points="342,285 336,335" fill="none" stroke="#162B45" stroke-width="25" stroke-linecap="round" stroke-linejoin="round"/><polyline points="342,285 336,335" fill="none" stroke="#C58A62" stroke-width="18" stroke-linecap="round" stroke-linejoin="round"/><ellipse cx="336" cy="335" rx="13" ry="15" fill="#E1AD84" stroke="#162B45" stroke-width="5" /><path d="M331.8 329 L322.2 308.8" fill="none" stroke="#C58A62" stroke-width="6" stroke-linecap="round" stroke-linejoin="round" /><path d="M334.6 329 L331.4 307.6" fill="none" stroke="#C58A62" stroke-width="6" stroke-linecap="round" stroke-linejoin="round" /><path d="M337.4 329 L340.6 307.6" fill="none" stroke="#C58A62" stroke-width="6" stroke-linecap="round" stroke-linejoin="round" /><path d="M340.2 329 L349.8 308.8" fill="none" stroke="#C58A62" stroke-width="6" stroke-linecap="round" stroke-linejoin="round" /></g>
<g id="arm-right-greeting" data-semantic-layer="true"><polyline points="198,215 180.0,199.0 162,183" fill="none" stroke="#162B45" stroke-width="32" stroke-linecap="round" stroke-linejoin="round"/><polyline points="198,215 180.0,199.0 162,183" fill="none" stroke="#6F8A4B" stroke-width="24" stroke-linecap="round" stroke-linejoin="round"/><polyline points="162,183 150,125" fill="none" stroke="#162B45" stroke-width="25" stroke-linecap="round" stroke-linejoin="round"/><polyline points="162,183 150,125" fill="none" stroke="#C58A62" stroke-width="18" stroke-linecap="round" stroke-linejoin="round"/><ellipse cx="150" cy="125" rx="13" ry="15" fill="#E1AD84" stroke="#162B45" stroke-width="5" /><path d="M145.8 119 L136.2 98.8" fill="none" stroke="#C58A62" stroke-width="6" stroke-linecap="round" stroke-linejoin="round" /><path d="M148.6 119 L145.4 97.6" fill="none" stroke="#C58A62" stroke-width="6" stroke-linecap="round" stroke-linejoin="round" /><path d="M151.4 119 L154.6 97.6" fill="none" stroke="#C58A62" stroke-width="6" stroke-linecap="round" stroke-linejoin="round" /><path d="M154.2 119 L163.8 98.8" fill="none" stroke="#C58A62" stroke-width="6" stroke-linecap="round" stroke-linejoin="round" /></g>
<g id="arm-left-farewell" data-semantic-layer="true" style="display:none"><polyline points="314,215 332.0,199.0 350,183" fill="none" stroke="#162B45" stroke-width="32" stroke-linecap="round" stroke-linejoin="round"/><polyline points="314,215 332.0,199.0 350,183" fill="none" stroke="#6F8A4B" stroke-width="24" stroke-linecap="round" stroke-linejoin="round"/><polyline points="350,183 362,125" fill="none" stroke="#162B45" stroke-width="25" stroke-linecap="round" stroke-linejoin="round"/><polyline points="350,183 362,125" fill="none" stroke="#C58A62" stroke-width="18" stroke-linecap="round" stroke-linejoin="round"/><ellipse cx="362" cy="125" rx="13" ry="15" fill="#E1AD84" stroke="#162B45" stroke-width="5" /><path d="M357.8 119 L348.2 98.8" fill="none" stroke="#C58A62" stroke-width="6" stroke-linecap="round" stroke-linejoin="round" /><path d="M360.6 119 L357.4 97.6" fill="none" stroke="#C58A62" stroke-width="6" stroke-linecap="round" stroke-linejoin="round" /><path d="M363.4 119 L366.6 97.6" fill="none" stroke="#C58A62" stroke-width="6" stroke-linecap="round" stroke-linejoin="round" /><path d="M366.2 119 L375.8 98.8" fill="none" stroke="#C58A62" stroke-width="6" stroke-linecap="round" stroke-linejoin="round" /></g>
<g id="arm-right-farewell" data-semantic-layer="true" style="display:none"><polyline points="198,215 184.0,250.0 170,285" fill="none" stroke="#162B45" stroke-width="32" stroke-linecap="round" stroke-linejoin="round"/><polyline points="198,215 184.0,250.0 170,285" fill="none" stroke="#6F8A4B" stroke-width="24" stroke-linecap="round" stroke-linejoin="round"/><polyline points="170,285 176,335" fill="none" stroke="#162B45" stroke-width="25" stroke-linecap="round" stroke-linejoin="round"/><polyline points="170,285 176,335" fill="none" stroke="#C58A62" stroke-width="18" stroke-linecap="round" stroke-linejoin="round"/><ellipse cx="176" cy="335" rx="13" ry="15" fill="#E1AD84" stroke="#162B45" stroke-width="5" /><path d="M171.8 329 L162.2 308.8" fill="none" stroke="#C58A62" stroke-width="6" stroke-linecap="round" stroke-linejoin="round" /><path d="M174.6 329 L171.4 307.6" fill="none" stroke="#C58A62" stroke-width="6" stroke-linecap="round" stroke-linejoin="round" /><path d="M177.4 329 L180.6 307.6" fill="none" stroke="#C58A62" stroke-width="6" stroke-linecap="round" stroke-linejoin="round" /><path d="M180.2 329 L189.8 308.8" fill="none" stroke="#C58A62" stroke-width="6" stroke-linecap="round" stroke-linejoin="round" /></g>
<g id="arm-left-agreement" data-semantic-layer="true" style="display:none"><polyline points="314,215 324.0,232.5 334,250" fill="none" stroke="#162B45" stroke-width="32" stroke-linecap="round" stroke-linejoin="round"/><polyline points="314,215 324.0,232.5 334,250" fill="none" stroke="#6F8A4B" stroke-width="24" stroke-linecap="round" stroke-linejoin="round"/><polyline points="334,250 301,225" fill="none" stroke="#162B45" stroke-width="25" stroke-linecap="round" stroke-linejoin="round"/><polyline points="334,250 301,225" fill="none" stroke="#C58A62" stroke-width="18" stroke-linecap="round" stroke-linejoin="round"/><ellipse cx="301" cy="225" rx="11" ry="13" fill="#E1AD84" stroke="#162B45" stroke-width="5" /></g>
<g id="arm-right-agreement" data-semantic-layer="true" style="display:none"><polyline points="198,215 188.0,232.5 178,250" fill="none" stroke="#162B45" stroke-width="32" stroke-linecap="round" stroke-linejoin="round"/><polyline points="198,215 188.0,232.5 178,250" fill="none" stroke="#6F8A4B" stroke-width="24" stroke-linecap="round" stroke-linejoin="round"/><polyline points="178,250 211,225" fill="none" stroke="#162B45" stroke-width="25" stroke-linecap="round" stroke-linejoin="round"/><polyline points="178,250 211,225" fill="none" stroke="#C58A62" stroke-width="18" stroke-linecap="round" stroke-linejoin="round"/><ellipse cx="211" cy="225" rx="11" ry="13" fill="#E1AD84" stroke="#162B45" stroke-width="5" /></g>
<g id="arm-left-disagreement" data-semantic-layer="true" style="display:none"><polyline points="314,215 322.0,237.5 330,260" fill="none" stroke="#162B45" stroke-width="32" stroke-linecap="round" stroke-linejoin="round"/><polyline points="314,215 322.0,237.5 330,260" fill="none" stroke="#6F8A4B" stroke-width="24" stroke-linecap="round" stroke-linejoin="round"/><polyline points="330,260 218,288" fill="none" stroke="#162B45" stroke-width="25" stroke-linecap="round" stroke-linejoin="round"/><polyline points="330,260 218,288" fill="none" stroke="#C58A62" stroke-width="18" stroke-linecap="round" stroke-linejoin="round"/><ellipse cx="218" cy="288" rx="11" ry="13" fill="#E1AD84" stroke="#162B45" stroke-width="5" /></g>
<g id="arm-right-disagreement" data-semantic-layer="true" style="display:none"><polyline points="198,215 190.0,237.5 182,260" fill="none" stroke="#162B45" stroke-width="32" stroke-linecap="round" stroke-linejoin="round"/><polyline points="198,215 190.0,237.5 182,260" fill="none" stroke="#6F8A4B" stroke-width="24" stroke-linecap="round" stroke-linejoin="round"/><polyline points="182,260 294,288" fill="none" stroke="#162B45" stroke-width="25" stroke-linecap="round" stroke-linejoin="round"/><polyline points="182,260 294,288" fill="none" stroke="#C58A62" stroke-width="18" stroke-linecap="round" stroke-linejoin="round"/><ellipse cx="294" cy="288" rx="11" ry="13" fill="#E1AD84" stroke="#162B45" stroke-width="5" /></g>
<g id="arm-left-gratitude" data-semantic-layer="true" style="display:none"><polyline points="314,215 323.0,238.5 332,262" fill="none" stroke="#162B45" stroke-width="32" stroke-linecap="round" stroke-linejoin="round"/><polyline points="314,215 323.0,238.5 332,262" fill="none" stroke="#6F8A4B" stroke-width="24" stroke-linecap="round" stroke-linejoin="round"/><polyline points="332,262 266,277" fill="none" stroke="#162B45" stroke-width="25" stroke-linecap="round" stroke-linejoin="round"/><polyline points="332,262 266,277" fill="none" stroke="#C58A62" stroke-width="18" stroke-linecap="round" stroke-linejoin="round"/><ellipse cx="266" cy="277" rx="11" ry="13" fill="#E1AD84" stroke="#162B45" stroke-width="5" /></g>
<g id="arm-right-gratitude" data-semantic-layer="true" style="display:none"><polyline points="198,215 189.0,238.5 180,262" fill="none" stroke="#162B45" stroke-width="32" stroke-linecap="round" stroke-linejoin="round"/><polyline points="198,215 189.0,238.5 180,262" fill="none" stroke="#6F8A4B" stroke-width="24" stroke-linecap="round" stroke-linejoin="round"/><polyline points="180,262 246,277" fill="none" stroke="#162B45" stroke-width="25" stroke-linecap="round" stroke-linejoin="round"/><polyline points="180,262 246,277" fill="none" stroke="#C58A62" stroke-width="18" stroke-linecap="round" stroke-linejoin="round"/><ellipse cx="246" cy="277" rx="11" ry="13" fill="#E1AD84" stroke="#162B45" stroke-width="5" /></g>
<g id="arm-left-concern" data-semantic-layer="true" style="display:none"><polyline points="314,215 326.0,226.0 338,237" fill="none" stroke="#162B45" stroke-width="32" stroke-linecap="round" stroke-linejoin="round"/><polyline points="314,215 326.0,226.0 338,237" fill="none" stroke="#6F8A4B" stroke-width="24" stroke-linecap="round" stroke-linejoin="round"/><polyline points="338,237 294,154" fill="none" stroke="#162B45" stroke-width="25" stroke-linecap="round" stroke-linejoin="round"/><polyline points="338,237 294,154" fill="none" stroke="#C58A62" stroke-width="18" stroke-linecap="round" stroke-linejoin="round"/><ellipse cx="294" cy="154" rx="11" ry="13" fill="#E1AD84" stroke="#162B45" stroke-width="5" /></g>
<g id="arm-right-concern" data-semantic-layer="true" style="display:none"><polyline points="198,215 186.0,226.0 174,237" fill="none" stroke="#162B45" stroke-width="32" stroke-linecap="round" stroke-linejoin="round"/><polyline points="198,215 186.0,226.0 174,237" fill="none" stroke="#6F8A4B" stroke-width="24" stroke-linecap="round" stroke-linejoin="round"/><polyline points="174,237 218,154" fill="none" stroke="#162B45" stroke-width="25" stroke-linecap="round" stroke-linejoin="round"/><polyline points="174,237 218,154" fill="none" stroke="#C58A62" stroke-width="18" stroke-linecap="round" stroke-linejoin="round"/><ellipse cx="218" cy="154" rx="11" ry="13" fill="#E1AD84" stroke="#162B45" stroke-width="5" /></g>
<g id="arm-left-surprise" data-semantic-layer="true" style="display:none"><polyline points="314,215 328.0,219.0 342,223" fill="none" stroke="#162B45" stroke-width="32" stroke-linecap="round" stroke-linejoin="round"/><polyline points="314,215 328.0,219.0 342,223" fill="none" stroke="#6F8A4B" stroke-width="24" stroke-linecap="round" stroke-linejoin="round"/><polyline points="342,223 314,141" fill="none" stroke="#162B45" stroke-width="25" stroke-linecap="round" stroke-linejoin="round"/><polyline points="342,223 314,141" fill="none" stroke="#C58A62" stroke-width="18" stroke-linecap="round" stroke-linejoin="round"/><ellipse cx="314" cy="141" rx="13" ry="15" fill="#E1AD84" stroke="#162B45" stroke-width="5" /><path d="M309.8 135 L300.2 114.8" fill="none" stroke="#C58A62" stroke-width="6" stroke-linecap="round" stroke-linejoin="round" /><path d="M312.6 135 L309.4 113.6" fill="none" stroke="#C58A62" stroke-width="6" stroke-linecap="round" stroke-linejoin="round" /><path d="M315.4 135 L318.6 113.6" fill="none" stroke="#C58A62" stroke-width="6" stroke-linecap="round" stroke-linejoin="round" /><path d="M318.2 135 L327.8 114.8" fill="none" stroke="#C58A62" stroke-width="6" stroke-linecap="round" stroke-linejoin="round" /></g>
<g id="arm-right-surprise" data-semantic-layer="true" style="display:none"><polyline points="198,215 184.0,219.0 170,223" fill="none" stroke="#162B45" stroke-width="32" stroke-linecap="round" stroke-linejoin="round"/><polyline points="198,215 184.0,219.0 170,223" fill="none" stroke="#6F8A4B" stroke-width="24" stroke-linecap="round" stroke-linejoin="round"/><polyline points="170,223 198,141" fill="none" stroke="#162B45" stroke-width="25" stroke-linecap="round" stroke-linejoin="round"/><polyline points="170,223 198,141" fill="none" stroke="#C58A62" stroke-width="18" stroke-linecap="round" stroke-linejoin="round"/><ellipse cx="198" cy="141" rx="13" ry="15" fill="#E1AD84" stroke="#162B45" stroke-width="5" /><path d="M193.8 135 L184.2 114.8" fill="none" stroke="#C58A62" stroke-width="6" stroke-linecap="round" stroke-linejoin="round" /><path d="M196.6 135 L193.4 113.6" fill="none" stroke="#C58A62" stroke-width="6" stroke-linecap="round" stroke-linejoin="round" /><path d="M199.4 135 L202.6 113.6" fill="none" stroke="#C58A62" stroke-width="6" stroke-linecap="round" stroke-linejoin="round" /><path d="M202.2 135 L211.8 114.8" fill="none" stroke="#C58A62" stroke-width="6" stroke-linecap="round" stroke-linejoin="round" /></g>
<g id="arm-left-celebration" data-semantic-layer="true" style="display:none"><polyline points="314,215 331.0,194.0 348,173" fill="none" stroke="#162B45" stroke-width="32" stroke-linecap="round" stroke-linejoin="round"/><polyline points="314,215 331.0,194.0 348,173" fill="none" stroke="#6F8A4B" stroke-width="24" stroke-linecap="round" stroke-linejoin="round"/><polyline points="348,173 366,111" fill="none" stroke="#162B45" stroke-width="25" stroke-linecap="round" stroke-linejoin="round"/><polyline points="348,173 366,111" fill="none" stroke="#C58A62" stroke-width="18" stroke-linecap="round" stroke-linejoin="round"/><ellipse cx="366" cy="111" rx="13" ry="15" fill="#E1AD84" stroke="#162B45" stroke-width="5" /><path d="M361.8 105 L352.2 84.8" fill="none" stroke="#C58A62" stroke-width="6" stroke-linecap="round" stroke-linejoin="round" /><path d="M364.6 105 L361.4 83.6" fill="none" stroke="#C58A62" stroke-width="6" stroke-linecap="round" stroke-linejoin="round" /><path d="M367.4 105 L370.6 83.6" fill="none" stroke="#C58A62" stroke-width="6" stroke-linecap="round" stroke-linejoin="round" /><path d="M370.2 105 L379.8 84.8" fill="none" stroke="#C58A62" stroke-width="6" stroke-linecap="round" stroke-linejoin="round" /></g>
<g id="arm-right-celebration" data-semantic-layer="true" style="display:none"><polyline points="198,215 181.0,194.0 164,173" fill="none" stroke="#162B45" stroke-width="32" stroke-linecap="round" stroke-linejoin="round"/><polyline points="198,215 181.0,194.0 164,173" fill="none" stroke="#6F8A4B" stroke-width="24" stroke-linecap="round" stroke-linejoin="round"/><polyline points="164,173 146,111" fill="none" stroke="#162B45" stroke-width="25" stroke-linecap="round" stroke-linejoin="round"/><polyline points="164,173 146,111" fill="none" stroke="#C58A62" stroke-width="18" stroke-linecap="round" stroke-linejoin="round"/><ellipse cx="146" cy="111" rx="13" ry="15" fill="#E1AD84" stroke="#162B45" stroke-width="5" /><path d="M141.8 105 L132.2 84.8" fill="none" stroke="#C58A62" stroke-width="6" stroke-linecap="round" stroke-linejoin="round" /><path d="M144.6 105 L141.4 83.6" fill="none" stroke="#C58A62" stroke-width="6" stroke-linecap="round" stroke-linejoin="round" /><path d="M147.4 105 L150.6 83.6" fill="none" stroke="#C58A62" stroke-width="6" stroke-linecap="round" stroke-linejoin="round" /><path d="M150.2 105 L159.8 84.8" fill="none" stroke="#C58A62" stroke-width="6" stroke-linecap="round" stroke-linejoin="round" /></g>
</svg>
