<svg xmlns="http://www.w3.org/2000/svg" width="512" height="512" viewBox="0 0 512 512">
<defs><linearGradient id="softShade" x1="0" y1="0" x2="1" y2="1"><stop offset="0" stop-color="#FFFFFF" stop-opacity=".24"/><stop offset="1" stop-color="#10243A" stop-opacity=".14"/></linearGradient></defs>
<g id="shadow" data-semantic-layer="true"><ellipse cx="256" cy="472" rx="105" ry="14" fill="#AAB2BD" stroke="none" stroke-width="0" opacity=".65"/></g>
<g id="leg-left" data-semantic-layer="true"><rect x="275" y="292" width="28" height="155" rx="10.64" fill="#4A4038" stroke="#162B45" stroke-width="6" /><rect x="272" y="437" width="52" height="28" rx="13" fill="#3B342F" stroke="#162B45" stroke-width="6" /></g>
<g id="leg-right" data-semantic-layer="true"><rect x="209" y="292" width="28" height="155" rx="10.64" fill="#4A4038" stroke="#162B45" stroke-width="6" /><rect x="197" y="437" width="52" height="28" rx="13" fill="#3B342F" stroke="#162B45" stroke-width="6" /></g>
<g id="torso" data-semantic-layer="true"><rect x="207" y="162" width="98" height="138" rx="30" fill="#3F6585" stroke="#162B45" stroke-width="7" /><path d="M225 180 Q256.0 205 287 180" fill="none" stroke="#D29B46" stroke-width="8" stroke-linecap="round" stroke-linejoin="round" /><path d="M224.64 180 Q256.0 170 287.36 180" fill="none" stroke="#6FA59A" stroke-width="5" stroke-linecap="round" stroke-linejoin="round" /><path d="M239.34 172 L239.34 290 M272.66 172 L272.66 290" fill="none" stroke="#D29B46" stroke-width="6" stroke-linecap="round" stroke-linejoin="round" /><path d="M239.34 173 L256.0 209 L272.66 173" fill="none" stroke="#6FA59A" stroke-width="5" stroke-linecap="round" stroke-linejoin="round" /></g>
<g id="head" data-semantic-layer="true"><ellipse cx="205.24" cy="101" rx="12" ry="20" fill="#A86640" stroke="#162B45" stroke-width="5" />
<ellipse cx="306.76" cy="101" rx="12" ry="20" fill="#A86640" stroke="#162B45" stroke-width="5" />
<ellipse cx="256" cy="96" rx="54" ry="60" fill="#A86640" stroke="#162B45" stroke-width="7" />
<path d="M217.12 67.2 Q242.5 49.199999999999996 289.48 64.8" fill="none" stroke="#CB8A61" stroke-width="5" stroke-linecap="round" stroke-linejoin="round" opacity=".45"/></g>
<g id="hair-front" data-semantic-layer="true"><path d="M205 66 Q226 8 314 59 Q274 30 236 33 Q212 41 205 66 Z" fill="#AAA7A3" stroke="#162B45" stroke-width="6" stroke-linecap="round" stroke-linejoin="round" /><path d="M228 41 Q258 31 291 53" fill="none" stroke="#E1DDD7" stroke-width="5" stroke-linecap="round" stroke-linejoin="round" /></g>
<g id="face-friendly" data-semantic-layer="true"><path d="M218.78 82 Q232.78 75 246.78 82" fill="none" stroke="#162B45" stroke-width="5" stroke-linecap="round" stroke-linejoin="round" />
<path d="M265.22 82 Q279.22 75 293.22 82" fill="none" stroke="#162B45" stroke-width="5" stroke-linecap="round" stroke-linejoin="round" />
<ellipse cx="232.78" cy="100" rx="9" ry="11" fill="#FFF8EE" stroke="#162B45" stroke-width="4" />
<ellipse cx="279.22" cy="100" rx="9" ry="11" fill="#FFF8EE" stroke="#162B45" stroke-width="4" />
<ellipse cx="233.78" cy="102" rx="4" ry="6" fill="#162B45" stroke="#162B45" stroke-width="0" />
<ellipse cx="280.22" cy="102" rx="4" ry="6" fill="#162B45" stroke="#162B45" stroke-width="0" />
<path d="M256 108 q-4 10 4 12" fill="none" stroke="#CB8A61" stroke-width="4" stroke-linecap="round" stroke-linejoin="round" />
<ellipse cx="224.68" cy="120" rx="10" ry="6" fill="#E58A78" stroke="none" stroke-width="0" opacity=".45"/>
<ellipse cx="287.32" cy="120" rx="10" ry="6" fill="#E58A78" stroke="none" stroke-width="0" opacity=".45"/>
<path d="M231 131 Q256 151 283 127" fill="none" stroke="#162B45" stroke-width="6" stroke-linecap="round" stroke-linejoin="round" />
<path d="M241 135 Q256 144 272 132" fill="none" stroke="#FFFFFF" stroke-width="3" stroke-linecap="round" stroke-linejoin="round" />
<ellipse cx="232.78" cy="100" rx="18" ry="16" fill="none" stroke="#162B45" stroke-width="4" />
<ellipse cx="279.22" cy="100" rx="18" ry="16" fill="none" stroke="#162B45" stroke-width="4" />
<path d="M250.78 100 L261.22 100" fill="none" stroke="#162B45" stroke-width="4" stroke-linecap="round" stroke-linejoin="round" />
<path d="M252 125 Q239 118 228 127" fill="none" stroke="#AAA7A3" stroke-width="6" stroke-linecap="round" stroke-linejoin="round" />
<path d="M260 125 Q273 118 284 127" fill="none" stroke="#AAA7A3" stroke-width="6" stroke-linecap="round" stroke-linejoin="round" /></g>
<g id="face-laughing" data-semantic-layer="true" style="display:none"><path d="M223.78 100 Q232.78 108.25 241.78 100" fill="none" stroke="#162B45" stroke-width="5" stroke-linecap="round" stroke-linejoin="round" />
<path d="M270.22 100 Q279.22 108.25 288.22 100" fill="none" stroke="#162B45" stroke-width="5" stroke-linecap="round" stroke-linejoin="round" />
<path d="M218.78 80 Q232.78 74 246.78 80" fill="none" stroke="#162B45" stroke-width="5" stroke-linecap="round" stroke-linejoin="round" />
<path d="M265.22 80 Q279.22 74 293.22 80" fill="none" stroke="#162B45" stroke-width="5" stroke-linecap="round" stroke-linejoin="round" />
<path d="M256 108 q-4 10 5 12" fill="none" stroke="#CB8A61" stroke-width="4" stroke-linecap="round" stroke-linejoin="round" />
<path d="M228 130 Q256 171 285 129 Z" fill="#5B2730" stroke="#162B45" stroke-width="5" stroke-linecap="round" stroke-linejoin="round" />
<path d="M241 150 Q256 159 272 149" fill="none" stroke="#E98A86" stroke-width="5" stroke-linecap="round" stroke-linejoin="round" />
<ellipse cx="232.78" cy="100" rx="18" ry="16" fill="none" stroke="#162B45" stroke-width="4" />
<ellipse cx="279.22" cy="100" rx="18" ry="16" fill="none" stroke="#162B45" stroke-width="4" />
<path d="M250.78 100 L261.22 100" fill="none" stroke="#162B45" stroke-width="4" stroke-linecap="round" stroke-linejoin="round" />
<path d="M252 125 Q239 118 228 127" fill="none" stroke="#AAA7A3" stroke-width="6" stroke-linecap="round" stroke-linejoin="round" />
<path d="M260 125 Q273 118 284 127" fill="none" stroke="#AAA7A3" stroke-width="6" stroke-linecap="round" stroke-linejoin="round" /></g>
<g id="face-surprised" data-semantic-layer="true" style="display:none"><ellipse cx="232.78" cy="100" rx="9" ry="14.850000000000001" fill="#FFF8EE" stroke="#162B45" stroke-width="4" />
<ellipse cx="233.78" cy="102" rx="4" ry="8.100000000000001" fill="#162B45" stroke="#162B45" stroke-width="0" />
<ellipse cx="279.22" cy="100" rx="9" ry="14.850000000000001" fill="#FFF8EE" stroke="#162B45" stroke-width="4" />
<ellipse cx="280.22" cy="102" rx="4" ry="8.100000000000001" fill="#162B45" stroke="#162B45" stroke-width="0" />
<path d="M218.78 71 Q232.78 65 246.78 71" fill="none" stroke="#162B45" stroke-width="5" stroke-linecap="round" stroke-linejoin="round" />
<path d="M265.22 71 Q279.22 65 293.22 71" fill="none" stroke="#162B45" stroke-width="5" stroke-linecap="round" stroke-linejoin="round" />
<path d="M256 108 q-4 10 5 12" fill="none" stroke="#CB8A61" stroke-width="4" stroke-linecap="round" stroke-linejoin="round" />
<ellipse cx="256" cy="137" rx="12" ry="16" fill="#5B2730" stroke="#162B45" stroke-width="5" />
<ellipse cx="232.78" cy="100" rx="18" ry="16" fill="none" stroke="#162B45" stroke-width="4" />
<ellipse cx="279.22" cy="100" rx="18" ry="16" fill="none" stroke="#162B45" stroke-width="4" />
<path d="M250.78 100 L261.22 100" fill="none" stroke="#162B45" stroke-width="4" stroke-linecap="round" stroke-linejoin="round" />
<path d="M252 125 Q239 118 228 127" fill="none" stroke="#AAA7A3" stroke-width="6" stroke-linecap="round" stroke-linejoin="round" />
<path d="M260 125 Q273 118 284 127" fill="none" stroke="#AAA7A3" stroke-width="6" stroke-linecap="round" stroke-linejoin="round" /></g>
<g id="face-thinking" data-semantic-layer="true" style="display:none"><ellipse cx="232.78" cy="100" rx="9" ry="11.0" fill="#FFF8EE" stroke="#162B45" stroke-width="4" />
<ellipse cx="236.78" cy="102" rx="4" ry="6.0" fill="#162B45" stroke="#162B45" stroke-width="0" />
<ellipse cx="279.22" cy="100" rx="9" ry="11.0" fill="#FFF8EE" stroke="#162B45" stroke-width="4" />
<ellipse cx="283.22" cy="102" rx="4" ry="6.0" fill="#162B45" stroke="#162B45" stroke-width="0" />
<path d="M218.78 85 L246.78 78" fill="none" stroke="#162B45" stroke-width="5" stroke-linecap="round" stroke-linejoin="round" />
<path d="M265.22 78 L293.22 78" fill="none" stroke="#162B45" stroke-width="5" stroke-linecap="round" stroke-linejoin="round" />
<path d="M256 108 q-4 10 5 12" fill="none" stroke="#CB8A61" stroke-width="4" stroke-linecap="round" stroke-linejoin="round" />
<path d="M238 137 Q259 133 278 140" fill="none" stroke="#162B45" stroke-width="5" stroke-linecap="round" stroke-linejoin="round" />
<ellipse cx="232.78" cy="100" rx="18" ry="16" fill="none" stroke="#162B45" stroke-width="4" />
<ellipse cx="279.22" cy="100" rx="18" ry="16" fill="none" stroke="#162B45" stroke-width="4" />
<path d="M250.78 100 L261.22 100" fill="none" stroke="#162B45" stroke-width="4" stroke-linecap="round" stroke-linejoin="round" />
<path d="M252 125 Q239 118 228 127" fill="none" stroke="#AAA7A3" stroke-width="6" stroke-linecap="round" stroke-linejoin="round" />
<path d="M260 125 Q273 118 284 127" fill="none" stroke="#AAA7A3" stroke-width="6" stroke-linecap="round" stroke-linejoin="round" /></g>
<g id="face-confident" data-semantic-layer="true" style="display:none"><ellipse cx="232.78" cy="100" rx="9" ry="6.82" fill="#FFF8EE" stroke="#162B45" stroke-width="4" />
<ellipse cx="233.78" cy="102" rx="4" ry="3.7199999999999998" fill="#162B45" stroke="#162B45" stroke-width="0" />
<ellipse cx="279.22" cy="100" rx="9" ry="6.82" fill="#FFF8EE" stroke="#162B45" stroke-width="4" />
<ellipse cx="280.22" cy="102" rx="4" ry="3.7199999999999998" fill="#162B45" stroke="#162B45" stroke-width="0" />
<path d="M218.78 85 Q232.78 79 246.78 85" fill="none" stroke="#162B45" stroke-width="5" stroke-linecap="round" stroke-linejoin="round" />
<path d="M265.22 85 Q279.22 79 293.22 85" fill="none" stroke="#162B45" stroke-width="5" stroke-linecap="round" stroke-linejoin="round" />
<path d="M256 108 q-4 10 5 12" fill="none" stroke="#CB8A61" stroke-width="4" stroke-linecap="round" stroke-linejoin="round" />
<path d="M232 134 Q261 156 285 129" fill="none" stroke="#162B45" stroke-width="6" stroke-linecap="round" stroke-linejoin="round" />
<ellipse cx="232.78" cy="100" rx="18" ry="16" fill="none" stroke="#162B45" stroke-width="4" />
<ellipse cx="279.22" cy="100" rx="18" ry="16" fill="none" stroke="#162B45" stroke-width="4" />
<path d="M250.78 100 L261.22 100" fill="none" stroke="#162B45" stroke-width="4" stroke-linecap="round" stroke-linejoin="round" />
<path d="M252 125 Q239 118 228 127" fill="none" stroke="#AAA7A3" stroke-width="6" stroke-linecap="round" stroke-linejoin="round" />
<path d="M260 125 Q273 118 284 127" fill="none" stroke="#AAA7A3" stroke-width="6" stroke-linecap="round" stroke-linejoin="round" /></g>
<g id="face-sorry" data-semantic-layer="true" style="display:none"><ellipse cx="232.78" cy="100" rx="9" ry="11.0" fill="#FFF8EE" stroke="#162B45" stroke-width="4" />
<ellipse cx="233.78" cy="102" rx="4" ry="6.0" fill="#162B45" stroke="#162B45" stroke-width="0" />
<ellipse cx="279.22" cy="100" rx="9" ry="11.0" fill="#FFF8EE" stroke="#162B45" stroke-width="4" />
<ellipse cx="280.22" cy="102" rx="4" ry="6.0" fill="#162B45" stroke="#162B45" stroke-width="0" />
<path d="M218.78 82 Q234.78 76 246.78 87" fill="none" stroke="#162B45" stroke-width="5" stroke-linecap="round" stroke-linejoin="round" />
<path d="M265.22 87 Q277.22 76 293.22 82" fill="none" stroke="#162B45" stroke-width="5" stroke-linecap="round" stroke-linejoin="round" />
<path d="M256 108 q-4 10 5 12" fill="none" stroke="#CB8A61" stroke-width="4" stroke-linecap="round" stroke-linejoin="round" />
<path d="M232 146 Q256 127 280 146" fill="none" stroke="#162B45" stroke-width="6" stroke-linecap="round" stroke-linejoin="round" />
<ellipse cx="232.78" cy="100" rx="18" ry="16" fill="none" stroke="#162B45" stroke-width="4" />
<ellipse cx="279.22" cy="100" rx="18" ry="16" fill="none" stroke="#162B45" stroke-width="4" />
<path d="M250.78 100 L261.22 100" fill="none" stroke="#162B45" stroke-width="4" stroke-linecap="round" stroke-linejoin="round" />
<path d="M252 125 Q239 118 228 127" fill="none" stroke="#AAA7A3" stroke-width="6" stroke-linecap="round" stroke-linejoin="round" />
<path d="M260 125 Q273 118 284 127" fill="none" stroke="#AAA7A3" stroke-width="6" stroke-linecap="round" stroke-linejoin="round" /></g>
<g id="face-excited" data-semantic-layer="true" style="display:none"><ellipse cx="232.78" cy="100" rx="9" ry="14.850000000000001" fill="#FFF8EE" stroke="#162B45" stroke-width="4" />
<ellipse cx="233.78" cy="102" rx="4" ry="8.100000000000001" fill="#162B45" stroke="#162B45" stroke-width="0" />
<ellipse cx="279.22" cy="100" rx="9" ry="14.850000000000001" fill="#FFF8EE" stroke="#162B45" stroke-width="4" />
<ellipse cx="280.22" cy="102" rx="4" ry="8.100000000000001" fill="#162B45" stroke="#162B45" stroke-width="0" />
<path d="M218.78 75 Q232.78 69 246.78 75" fill="none" stroke="#162B45" stroke-width="5" stroke-linecap="round" stroke-linejoin="round" />
<path d="M265.22 75 Q279.22 69 293.22 75" fill="none" stroke="#162B45" stroke-width="5" stroke-linecap="round" stroke-linejoin="round" />
<path d="M256 108 q-4 10 5 12" fill="none" stroke="#CB8A61" stroke-width="4" stroke-linecap="round" stroke-linejoin="round" />
<path d="M229 132 Q256 161 284 130" fill="none" stroke="#162B45" stroke-width="6" stroke-linecap="round" stroke-linejoin="round" />
<ellipse cx="232.78" cy="100" rx="18" ry="16" fill="none" stroke="#162B45" stroke-width="4" />
<ellipse cx="279.22" cy="100" rx="18" ry="16" fill="none" stroke="#162B45" stroke-width="4" />
<path d="M250.78 100 L261.22 100" fill="none" stroke="#162B45" stroke-width="4" stroke-linecap="round" stroke-linejoin="round" />
<path d="M252 125 Q239 118 228 127" fill="none" stroke="#AAA7A3" stroke-width="6" stroke-linecap="round" stroke-linejoin="round" />
<path d="M260 125 Q273 118 284 127" fill="none" stroke="#AAA7A3" stroke-width="6" stroke-linecap="round" stroke-linejoin="round" /></g>
<g id="arm-left-rest" data-semantic-layer="true" style="display:none"><polyline points="297,196 311.0,231.0 325,266" fill="none" stroke="#162B45" stroke-width="32" stroke-linecap="round" stroke-linejoin="round"/><polyline points="297,196 311.0,231.0 325,266" fill="none" stroke="#3F6585" stroke-width="24" stroke-linecap="round" stroke-linejoin="round"/><polyline points="325,266 319,316" fill="none" stroke="#162B45" stroke-width="25" stroke-linecap="round" stroke-linejoin="round"/><polyline points="325,266 319,316" fill="none" stroke="#A86640" stroke-width="18" stroke-linecap="round" stroke-linejoin="round"/><ellipse cx="319" cy="316" rx="11" ry="13" fill="#CB8A61" stroke="#162B45" stroke-width="5" /></g>
<g id="arm-right-rest" data-semantic-layer="true" style="display:none"><polyline points="215,196 201.0,231.0 187,266" fill="none" stroke="#162B45" stroke-width="32" stroke-linecap="round" stroke-linejoin="round"/><polyline points="215,196 201.0,231.0 187,266" fill="none" stroke="#3F6585" stroke-width="24" stroke-linecap="round" stroke-linejoin="round"/><polyline points="187,266 193,316" fill="none" stroke="#162B45" stroke-width="25" stroke-linecap="round" stroke-linejoin="round"/><polyline points="187,266 193,316" fill="none" stroke="#A86640" stroke-width="18" stroke-linecap="round" stroke-linejoin="round"/><ellipse cx="193" cy="316" rx="11" ry="13" fill="#CB8A61" stroke="#162B45" stroke-width="5" /></g>
<g id="arm-left-greeting" data-semantic-layer="true"><polyline points="297,196 311.0,231.0 325,266" fill="none" stroke="#162B45" stroke-width="32" stroke-linecap="round" stroke-linejoin="round"/><polyline points="297,196 311.0,231.0 325,266" fill="none" stroke="#3F6585" stroke-width="24" stroke-linecap="round" stroke-linejoin="round"/><polyline points="325,266 319,316" fill="none" stroke="#162B45" stroke-width="25" stroke-linecap="round" stroke-linejoin="round"/><polyline points="325,266 319,316" fill="none" stroke="#A86640" stroke-width="18" stroke-linecap="round" stroke-linejoin="round"/><ellipse cx="319" cy="316" rx="13" ry="15" fill="#CB8A61" stroke="#162B45" stroke-width="5" /><path d="M314.8 310 L305.2 289.8" fill="none" stroke="#A86640" stroke-width="6" stroke-linecap="round" stroke-linejoin="round" /><path d="M317.6 310 L314.4 288.6" fill="none" stroke="#A86640" stroke-width="6" stroke-linecap="round" stroke-linejoin="round" /><path d="M320.4 310 L323.6 288.6" fill="none" stroke="#A86640" stroke-width="6" stroke-linecap="round" stroke-linejoin="round" /><path d="M323.2 310 L332.8 289.8" fill="none" stroke="#A86640" stroke-width="6" stroke-linecap="round" stroke-linejoin="round" /></g>
<g id="arm-right-greeting" data-semantic-layer="true"><polyline points="215,196 197.0,180.0 179,164" fill="none" stroke="#162B45" stroke-width="32" stroke-linecap="round" stroke-linejoin="round"/><polyline points="215,196 197.0,180.0 179,164" fill="none" stroke="#3F6585" stroke-width="24" stroke-linecap="round" stroke-linejoin="round"/><polyline points="179,164 167,106" fill="none" stroke="#162B45" stroke-width="25" stroke-linecap="round" stroke-linejoin="round"/><polyline points="179,164 167,106" fill="none" stroke="#A86640" stroke-width="18" stroke-linecap="round" stroke-linejoin="round"/><ellipse cx="167" cy="106" rx="13" ry="15" fill="#CB8A61" stroke="#162B45" stroke-width="5" /><path d="M162.8 100 L153.2 79.8" fill="none" stroke="#A86640" stroke-width="6" stroke-linecap="round" stroke-linejoin="round" /><path d="M165.6 100 L162.4 78.6" fill="none" stroke="#A86640" stroke-width="6" stroke-linecap="round" stroke-linejoin="round" /><path d="M168.4 100 L171.6 78.6" fill="none" stroke="#A86640" stroke-width="6" stroke-linecap="round" stroke-linejoin="round" /><path d="M171.2 100 L180.8 79.8" fill="none" stroke="#A86640" stroke-width="6" stroke-linecap="round" stroke-linejoin="round" /></g>
<g id="arm-left-farewell" data-semantic-layer="true" style="display:none"><polyline points="297,196 315.0,180.0 333,164" fill="none" stroke="#162B45" stroke-width="32" stroke-linecap="round" stroke-linejoin="round"/><polyline points="297,196 315.0,180.0 333,164" fill="none" stroke="#3F6585" stroke-width="24" stroke-linecap="round" stroke-linejoin="round"/><polyline points="333,164 345,106" fill="none" stroke="#162B45" stroke-width="25" stroke-linecap="round" stroke-linejoin="round"/><polyline points="333,164 345,106" fill="none" stroke="#A86640" stroke-width="18" stroke-linecap="round" stroke-linejoin="round"/><ellipse cx="345" cy="106" rx="13" ry="15" fill="#CB8A61" stroke="#162B45" stroke-width="5" /><path d="M340.8 100 L331.2 79.8" fill="none" stroke="#A86640" stroke-width="6" stroke-linecap="round" stroke-linejoin="round" /><path d="M343.6 100 L340.4 78.6" fill="none" stroke="#A86640" stroke-width="6" stroke-linecap="round" stroke-linejoin="round" /><path d="M346.4 100 L349.6 78.6" fill="none" stroke="#A86640" stroke-width="6" stroke-linecap="round" stroke-linejoin="round" /><path d="M349.2 100 L358.8 79.8" fill="none" stroke="#A86640" stroke-width="6" stroke-linecap="round" stroke-linejoin="round" /></g>
<g id="arm-right-farewell" data-semantic-layer="true" style="display:none"><polyline points="215,196 201.0,231.0 187,266" fill="none" stroke="#162B45" stroke-width="32" stroke-linecap="round" stroke-linejoin="round"/><polyline points="215,196 201.0,231.0 187,266" fill="none" stroke="#3F6585" stroke-width="24" stroke-linecap="round" stroke-linejoin="round"/><polyline points="187,266 193,316" fill="none" stroke="#162B45" stroke-width="25" stroke-linecap="round" stroke-linejoin="round"/><polyline points="187,266 193,316" fill="none" stroke="#A86640" stroke-width="18" stroke-linecap="round" stroke-linejoin="round"/><ellipse cx="193" cy="316" rx="13" ry="15" fill="#CB8A61" stroke="#162B45" stroke-width="5" /><path d="M188.8 310 L179.2 289.8" fill="none" stroke="#A86640" stroke-width="6" stroke-linecap="round" stroke-linejoin="round" /><path d="M191.6 310 L188.4 288.6" fill="none" stroke="#A86640" stroke-width="6" stroke-linecap="round" stroke-linejoin="round" /><path d="M194.4 310 L197.6 288.6" fill="none" stroke="#A86640" stroke-width="6" stroke-linecap="round" stroke-linejoin="round" /><path d="M197.2 310 L206.8 289.8" fill="none" stroke="#A86640" stroke-width="6" stroke-linecap="round" stroke-linejoin="round" /></g>
<g id="arm-left-agreement" data-semantic-layer="true" style="display:none"><polyline points="297,196 307.0,213.5 317,231" fill="none" stroke="#162B45" stroke-width="32" stroke-linecap="round" stroke-linejoin="round"/><polyline points="297,196 307.0,213.5 317,231" fill="none" stroke="#3F6585" stroke-width="24" stroke-linecap="round" stroke-linejoin="round"/><polyline points="317,231 301,206" fill="none" stroke="#162B45" stroke-width="25" stroke-linecap="round" stroke-linejoin="round"/><polyline points="317,231 301,206" fill="none" stroke="#A86640" stroke-width="18" stroke-linecap="round" stroke-linejoin="round"/><ellipse cx="301" cy="206" rx="11" ry="13" fill="#CB8A61" stroke="#162B45" stroke-width="5" /></g>
<g id="arm-right-agreement" data-semantic-layer="true" style="display:none"><polyline points="215,196 205.0,213.5 195,231" fill="none" stroke="#162B45" stroke-width="32" stroke-linecap="round" stroke-linejoin="round"/><polyline points="215,196 205.0,213.5 195,231" fill="none" stroke="#3F6585" stroke-width="24" stroke-linecap="round" stroke-linejoin="round"/><polyline points="195,231 211,206" fill="none" stroke="#162B45" stroke-width="25" stroke-linecap="round" stroke-linejoin="round"/><polyline points="195,231 211,206" fill="none" stroke="#A86640" stroke-width="18" stroke-linecap="round" stroke-linejoin="round"/><ellipse cx="211" cy="206" rx="11" ry="13" fill="#CB8A61" stroke="#162B45" stroke-width="5" /></g>
<g id="arm-left-disagreement" data-semantic-layer="true" style="display:none"><polyline points="297,196 305.0,218.5 313,241" fill="none" stroke="#162B45" stroke-width="32" stroke-linecap="round" stroke-linejoin="round"/><polyline points="297,196 305.0,218.5 313,241" fill="none" stroke="#3F6585" stroke-width="24" stroke-linecap="round" stroke-linejoin="round"/><polyline points="313,241 218,269" fill="none" stroke="#162B45" stroke-width="25" stroke-linecap="round" stroke-linejoin="round"/><polyline points="313,241 218,269" fill="none" stroke="#A86640" stroke-width="18" stroke-linecap="round" stroke-linejoin="round"/><ellipse cx="218" cy="269" rx="11" ry="13" fill="#CB8A61" stroke="#162B45" stroke-width="5" /></g>
<g id="arm-right-disagreement" data-semantic-layer="true" style="display:none"><polyline points="215,196 207.0,218.5 199,241" fill="none" stroke="#162B45" stroke-width="32" stroke-linecap="round" stroke-linejoin="round"/><polyline points="215,196 207.0,218.5 199,241" fill="none" stroke="#3F6585" stroke-width="24" stroke-linecap="round" stroke-linejoin="round"/><polyline points="199,241 294,269" fill="none" stroke="#162B45" stroke-width="25" stroke-linecap="round" stroke-linejoin="round"/><polyline points="199,241 294,269" fill="none" stroke="#A86640" stroke-width="18" stroke-linecap="round" stroke-linejoin="round"/><ellipse cx="294" cy="269" rx="11" ry="13" fill="#CB8A61" stroke="#162B45" stroke-width="5" /></g>
<g id="arm-left-gratitude" data-semantic-layer="true" style="display:none"><polyline points="297,196 306.0,219.5 315,243" fill="none" stroke="#162B45" stroke-width="32" stroke-linecap="round" stroke-linejoin="round"/><polyline points="297,196 306.0,219.5 315,243" fill="none" stroke="#3F6585" stroke-width="24" stroke-linecap="round" stroke-linejoin="round"/><polyline points="315,243 266,258" fill="none" stroke="#162B45" stroke-width="25" stroke-linecap="round" stroke-linejoin="round"/><polyline points="315,243 266,258" fill="none" stroke="#A86640" stroke-width="18" stroke-linecap="round" stroke-linejoin="round"/><ellipse cx="266" cy="258" rx="11" ry="13" fill="#CB8A61" stroke="#162B45" stroke-width="5" /></g>
<g id="arm-right-gratitude" data-semantic-layer="true" style="display:none"><polyline points="215,196 206.0,219.5 197,243" fill="none" stroke="#162B45" stroke-width="32" stroke-linecap="round" stroke-linejoin="round"/><polyline points="215,196 206.0,219.5 197,243" fill="none" stroke="#3F6585" stroke-width="24" stroke-linecap="round" stroke-linejoin="round"/><polyline points="197,243 246,258" fill="none" stroke="#162B45" stroke-width="25" stroke-linecap="round" stroke-linejoin="round"/><polyline points="197,243 246,258" fill="none" stroke="#A86640" stroke-width="18" stroke-linecap="round" stroke-linejoin="round"/><ellipse cx="246" cy="258" rx="11" ry="13" fill="#CB8A61" stroke="#162B45" stroke-width="5" /></g>
<g id="arm-left-concern" data-semantic-layer="true" style="display:none"><polyline points="297,196 309.0,207.0 321,218" fill="none" stroke="#162B45" stroke-width="32" stroke-linecap="round" stroke-linejoin="round"/><polyline points="297,196 309.0,207.0 321,218" fill="none" stroke="#3F6585" stroke-width="24" stroke-linecap="round" stroke-linejoin="round"/><polyline points="321,218 294,139" fill="none" stroke="#162B45" stroke-width="25" stroke-linecap="round" stroke-linejoin="round"/><polyline points="321,218 294,139" fill="none" stroke="#A86640" stroke-width="18" stroke-linecap="round" stroke-linejoin="round"/><ellipse cx="294" cy="139" rx="11" ry="13" fill="#CB8A61" stroke="#162B45" stroke-width="5" /></g>
<g id="arm-right-concern" data-semantic-layer="true" style="display:none"><polyline points="215,196 203.0,207.0 191,218" fill="none" stroke="#162B45" stroke-width="32" stroke-linecap="round" stroke-linejoin="round"/><polyline points="215,196 203.0,207.0 191,218" fill="none" stroke="#3F6585" stroke-width="24" stroke-linecap="round" stroke-linejoin="round"/><polyline points="191,218 218,139" fill="none" stroke="#162B45" stroke-width="25" stroke-linecap="round" stroke-linejoin="round"/><polyline points="191,218 218,139" fill="none" stroke="#A86640" stroke-width="18" stroke-linecap="round" stroke-linejoin="round"/><ellipse cx="218" cy="139" rx="11" ry="13" fill="#CB8A61" stroke="#162B45" stroke-width="5" /></g>
<g id="arm-left-surprise" data-semantic-layer="true" style="display:none"><polyline points="297,196 311.0,200.0 325,204" fill="none" stroke="#162B45" stroke-width="32" stroke-linecap="round" stroke-linejoin="round"/><polyline points="297,196 311.0,200.0 325,204" fill="none" stroke="#3F6585" stroke-width="24" stroke-linecap="round" stroke-linejoin="round"/><polyline points="325,204 314,126" fill="none" stroke="#162B45" stroke-width="25" stroke-linecap="round" stroke-linejoin="round"/><polyline points="325,204 314,126" fill="none" stroke="#A86640" stroke-width="18" stroke-linecap="round" stroke-linejoin="round"/><ellipse cx="314" cy="126" rx="13" ry="15" fill="#CB8A61" stroke="#162B45" stroke-width="5" /><path d="M309.8 120 L300.2 99.8" fill="none" stroke="#A86640" stroke-width="6" stroke-linecap="round" stroke-linejoin="round" /><path d="M312.6 120 L309.4 98.6" fill="none" stroke="#A86640" stroke-width="6" stroke-linecap="round" stroke-linejoin="round" /><path d="M315.4 120 L318.6 98.6" fill="none" stroke="#A86640" stroke-width="6" stroke-linecap="round" stroke-linejoin="round" /><path d="M318.2 120 L327.8 99.8" fill="none" stroke="#A86640" stroke-width="6" stroke-linecap="round" stroke-linejoin="round" /></g>
<g id="arm-right-surprise" data-semantic-layer="true" style="display:none"><polyline points="215,196 201.0,200.0 187,204" fill="none" stroke="#162B45" stroke-width="32" stroke-linecap="round" stroke-linejoin="round"/><polyline points="215,196 201.0,200.0 187,204" fill="none" stroke="#3F6585" stroke-width="24" stroke-linecap="round" stroke-linejoin="round"/><polyline points="187,204 198,126" fill="none" stroke="#162B45" stroke-width="25" stroke-linecap="round" stroke-linejoin="round"/><polyline points="187,204 198,126" fill="none" stroke="#A86640" stroke-width="18" stroke-linecap="round" stroke-linejoin="round"/><ellipse cx="198" cy="126" rx="13" ry="15" fill="#CB8A61" stroke="#162B45" stroke-width="5" /><path d="M193.8 120 L184.2 99.8" fill="none" stroke="#A86640" stroke-width="6" stroke-linecap="round" stroke-linejoin="round" /><path d="M196.6 120 L193.4 98.6" fill="none" stroke="#A86640" stroke-width="6" stroke-linecap="round" stroke-linejoin="round" /><path d="M199.4 120 L202.6 98.6" fill="none" stroke="#A86640" stroke-width="6" stroke-linecap="round" stroke-linejoin="round" /><path d="M202.2 120 L211.8 99.8" fill="none" stroke="#A86640" stroke-width="6" stroke-linecap="round" stroke-linejoin="round" /></g>
<g id="arm-left-celebration" data-semantic-layer="true" style="display:none"><polyline points="297,196 314.0,175.0 331,154" fill="none" stroke="#162B45" stroke-width="32" stroke-linecap="round" stroke-linejoin="round"/><polyline points="297,196 314.0,175.0 331,154" fill="none" stroke="#3F6585" stroke-width="24" stroke-linecap="round" stroke-linejoin="round"/><polyline points="331,154 349,92" fill="none" stroke="#162B45" stroke-width="25" stroke-linecap="round" stroke-linejoin="round"/><polyline points="331,154 349,92" fill="none" stroke="#A86640" stroke-width="18" stroke-linecap="round" stroke-linejoin="round"/><ellipse cx="349" cy="92" rx="13" ry="15" fill="#CB8A61" stroke="#162B45" stroke-width="5" /><path d="M344.8 86 L335.2 65.8" fill="none" stroke="#A86640" stroke-width="6" stroke-linecap="round" stroke-linejoin="round" /><path d="M347.6 86 L344.4 64.6" fill="none" stroke="#A86640" stroke-width="6" stroke-linecap="round" stroke-linejoin="round" /><path d="M350.4 86 L353.6 64.6" fill="none" stroke="#A86640" stroke-width="6" stroke-linecap="round" stroke-linejoin="round" /><path d="M353.2 86 L362.8 65.8" fill="none" stroke="#A86640" stroke-width="6" stroke-linecap="round" stroke-linejoin="round" /></g>
<g id="arm-right-celebration" data-semantic-layer="true" style="display:none"><polyline points="215,196 198.0,175.0 181,154" fill="none" stroke="#162B45" stroke-width="32" stroke-linecap="round" stroke-linejoin="round"/><polyline points="215,196 198.0,175.0 181,154" fill="none" stroke="#3F6585" stroke-width="24" stroke-linecap="round" stroke-linejoin="round"/><polyline points="181,154 163,92" fill="none" stroke="#162B45" stroke-width="25" stroke-linecap="round" stroke-linejoin="round"/><polyline points="181,154 163,92" fill="none" stroke="#A86640" stroke-width="18" stroke-linecap="round" stroke-linejoin="round"/><ellipse cx="163" cy="92" rx="13" ry="15" fill="#CB8A61" stroke="#162B45" stroke-width="5" /><path d="M158.8 86 L149.2 65.8" fill="none" stroke="#A86640" stroke-width="6" stroke-linecap="round" stroke-linejoin="round" /><path d="M161.6 86 L158.4 64.6" fill="none" stroke="#A86640" stroke-width="6" stroke-linecap="round" stroke-linejoin="round" /><path d="M164.4 86 L167.6 64.6" fill="none" stroke="#A86640" stroke-width="6" stroke-linecap="round" stroke-linejoin="round" /><path d="M167.2 86 L176.8 65.8" fill="none" stroke="#A86640" stroke-width="6" stroke-linecap="round" stroke-linejoin="round" /></g>
</svg>
