<svg xmlns="http://www.w3.org/2000/svg" width="512" height="512" viewBox="0 0 512 512">
<defs><linearGradient id="softShade" x1="0" y1="0" x2="1" y2="1"><stop offset="0" stop-color="#FFFFFF" stop-opacity=".24"/><stop offset="1" stop-color="#10243A" stop-opacity=".14"/></linearGradient></defs>
<ellipse cx="256" cy="472" rx="105" ry="14" fill="#AAB2BD" stroke="none" stroke-width="0" opacity=".65"/><rect x="272" y="317" width="43" height="130" rx="16.34" fill="#2D3541" stroke="#162B45" stroke-width="6" /><rect x="269" y="437" width="67" height="28" rx="13" fill="#5A4438" stroke="#162B45" stroke-width="6" /><rect x="197" y="317" width="43" height="130" rx="16.34" fill="#2D3541" stroke="#162B45" stroke-width="6" /><rect x="185" y="437" width="67" height="28" rx="13" fill="#5A4438" stroke="#162B45" stroke-width="6" /><polyline points="335,208 349.0,243.0 363,278" fill="none" stroke="#162B45" stroke-width="32" stroke-linecap="round" stroke-linejoin="round"/><polyline points="335,208 349.0,243.0 363,278" fill="none" stroke="#8A5B3E" stroke-width="24" stroke-linecap="round" stroke-linejoin="round"/><polyline points="363,278 357,328" fill="none" stroke="#162B45" stroke-width="25" stroke-linecap="round" stroke-linejoin="round"/><polyline points="363,278 357,328" fill="none" stroke="#D6A17D" stroke-width="18" stroke-linecap="round" stroke-linejoin="round"/><ellipse cx="357" cy="328" rx="11" ry="13" fill="#EBC2A4" stroke="#162B45" stroke-width="5" /><polyline points="177,208 163.0,243.0 149,278" fill="none" stroke="#162B45" stroke-width="32" stroke-linecap="round" stroke-linejoin="round"/><polyline points="177,208 163.0,243.0 149,278" fill="none" stroke="#8A5B3E" stroke-width="24" stroke-linecap="round" stroke-linejoin="round"/><polyline points="149,278 155,328" fill="none" stroke="#162B45" stroke-width="25" stroke-linecap="round" stroke-linejoin="round"/><polyline points="149,278 155,328" fill="none" stroke="#D6A17D" stroke-width="18" stroke-linecap="round" stroke-linejoin="round"/><ellipse cx="155" cy="328" rx="11" ry="13" fill="#EBC2A4" stroke="#162B45" stroke-width="5" /><rect x="169" y="174" width="174" height="151" rx="30" fill="#8A5B3E" stroke="#162B45" stroke-width="7" /><path d="M187 196 Q256.0 212 325 196" fill="none" stroke="#4F7690" stroke-width="8" stroke-linecap="round" stroke-linejoin="round" /><ellipse cx="256" cy="102" rx="61" ry="64" fill="#D6A17D" stroke="#162B45" stroke-width="7" />
</svg>
