<svg xmlns="http://www.w3.org/2000/svg" width="512" height="512" viewBox="0 0 512 512">
<defs><linearGradient id="softShade" x1="0" y1="0" x2="1" y2="1"><stop offset="0" stop-color="#FFFFFF" stop-opacity=".24"/><stop offset="1" stop-color="#10243A" stop-opacity=".14"/></linearGradient></defs>
<ellipse cx="256" cy="472" rx="105" ry="14" fill="#AAB2BD" stroke="none" stroke-width="0" opacity=".65"/><rect x="236" y="318" width="34" height="145" rx="14" fill="#2D3541" stroke="#162B45" stroke-width="6" /><rect x="230" y="443" width="61" height="27" rx="13" fill="#5A4438" stroke="#162B45" stroke-width="6" /><rect x="214.5" y="174" width="87.0" height="151" rx="25" fill="#8A5B3E" stroke="#162B45" stroke-width="7" /><path d="M231.9 194 L284.1 194" fill="none" stroke="#4F7690" stroke-width="7" stroke-linecap="round" stroke-linejoin="round" /><path d="M258 209 Q293 269 278 324" fill="none" stroke="#D6A17D" stroke-width="20" stroke-linecap="round" stroke-linejoin="round" /><ellipse cx="258" cy="102" rx="35.379999999999995" ry="64" fill="#D6A17D" stroke="#162B45" stroke-width="7" /><path d="M236.65 57.2 Q258 48.24 275.08 58.48" fill="none" stroke="#EBC2A4" stroke-width="4" stroke-linecap="round" stroke-linejoin="round" opacity=".55"/><ellipse cx="270.2" cy="104" rx="9" ry="12" fill="#FFF8EE" stroke="#162B45" stroke-width="4" /><ellipse cx="272.64" cy="106" rx="4" ry="6" fill="#162B45" stroke="#162B45" stroke-width="0" /><path d="M288.5 110 q12 8 0 16" fill="none" stroke="#EBC2A4" stroke-width="5" stroke-linecap="round" stroke-linejoin="round" /><path d="M260 139 Q276 150 289 136" fill="none" stroke="#162B45" stroke-width="5" stroke-linecap="round" stroke-linejoin="round" />
</svg>
