<svg xmlns="http://www.w3.org/2000/svg" width="512" height="512" viewBox="0 0 512 512">
<defs><linearGradient id="softShade" x1="0" y1="0" x2="1" y2="1"><stop offset="0" stop-color="#FFFFFF" stop-opacity=".24"/><stop offset="1" stop-color="#10243A" stop-opacity=".14"/></linearGradient></defs>
<ellipse cx="256" cy="472" rx="105" ry="14" fill="#AAB2BD" stroke="none" stroke-width="0" opacity=".65"/><g transform="translate(38 0) scale(.86 1)"><rect x="272" y="317" width="43" height="130" rx="16.34" fill="#2D3541" stroke="#162B45" stroke-width="6" /><rect x="269" y="437" width="67" height="28" rx="13" fill="#5A4438" stroke="#162B45" stroke-width="6" /><rect x="197" y="317" width="43" height="130" rx="16.34" fill="#2D3541" stroke="#162B45" stroke-width="6" /><rect x="185" y="437" width="67" height="28" rx="13" fill="#5A4438" stroke="#162B45" stroke-width="6" /><rect x="169" y="174" width="174" height="151" rx="30" fill="#8A5B3E" stroke="#162B45" stroke-width="7" /><path d="M187 192 Q256.0 217 325 192" fill="none" stroke="#4F7690" stroke-width="8" stroke-linecap="round" stroke-linejoin="round" /><path d="M200.32 192 Q256.0 182 311.67999999999995 192" fill="none" stroke="#D8A746" stroke-width="5" stroke-linecap="round" stroke-linejoin="round" /><ellipse cx="256.0" cy="246.48000000000002" rx="22" ry="22" fill="#4F7690" stroke="#162B45" stroke-width="4" /><path d="M245.0 246.48000000000002 L267.0 246.48000000000002" fill="none" stroke="#D8A746" stroke-width="5" stroke-linecap="round" stroke-linejoin="round" /><polyline points="335,208 349.0,243.0 363,278" fill="none" stroke="#162B45" stroke-width="32" stroke-linecap="round" stroke-linejoin="round"/><polyline points="335,208 349.0,243.0 363,278" fill="none" stroke="#8A5B3E" stroke-width="24" stroke-linecap="round" stroke-linejoin="round"/><polyline points="363,278 357,328" fill="none" stroke="#162B45" stroke-width="25" stroke-linecap="round" stroke-linejoin="round"/><polyline points="363,278 357,328" fill="none" stroke="#D6A17D" stroke-width="18" stroke-linecap="round" stroke-linejoin="round"/><ellipse cx="357" cy="328" rx="11" ry="13" fill="#EBC2A4" stroke="#162B45" stroke-width="5" /><polyline points="177,208 163.0,243.0 149,278" fill="none" stroke="#162B45" stroke-width="32" stroke-linecap="round" stroke-linejoin="round"/><polyline points="177,208 163.0,243.0 149,278" fill="none" stroke="#8A5B3E" stroke-width="24" stroke-linecap="round" stroke-linejoin="round"/><polyline points="149,278 155,328" fill="none" stroke="#162B45" stroke-width="25" stroke-linecap="round" stroke-linejoin="round"/><polyline points="149,278 155,328" fill="none" stroke="#D6A17D" stroke-width="18" stroke-linecap="round" stroke-linejoin="round"/><ellipse cx="155" cy="328" rx="11" ry="13" fill="#EBC2A4" stroke="#162B45" stroke-width="5" /></g><ellipse cx="269" cy="102" rx="54.9" ry="64" fill="#D6A17D" stroke="#162B45" stroke-width="7" /><g transform="translate(33.48 0) scale(.92 1)"><path d="M218.18 65.52000000000001 Q256 53.36 293.82 65.52000000000001" fill="none" stroke="#EBC2A4" stroke-width="4" stroke-linecap="round" stroke-linejoin="round" opacity=".55"/></g><ellipse cx="254" cy="106" rx="9" ry="12" fill="#FFF8EE" stroke="#162B45" stroke-width="4" /><ellipse cx="293" cy="106" rx="7" ry="10" fill="#FFF8EE" stroke="#162B45" stroke-width="4" /><ellipse cx="257" cy="108" rx="4" ry="6" fill="#162B45" stroke="#162B45" stroke-width="0" /><ellipse cx="295" cy="108" rx="3" ry="5" fill="#162B45" stroke="#162B45" stroke-width="0" /><path d="M273 114 Q287 120 278 126" fill="none" stroke="#EBC2A4" stroke-width="4" stroke-linecap="round" stroke-linejoin="round" /><path d="M252 138 Q277 154 299 133" fill="none" stroke="#162B45" stroke-width="6" stroke-linecap="round" stroke-linejoin="round" />
</svg>
