<svg xmlns="http://www.w3.org/2000/svg" width="512" height="512" viewBox="0 0 512 512">
<defs><linearGradient id="softShade" x1="0" y1="0" x2="1" y2="1"><stop offset="0" stop-color="#FFFFFF" stop-opacity=".24"/><stop offset="1" stop-color="#10243A" stop-opacity=".14"/></linearGradient></defs>
<g id="shadow" data-semantic-layer="true"><ellipse cx="256" cy="472" rx="105" ry="14" fill="#AAB2BD" stroke="none" stroke-width="0" opacity=".65"/></g>
<g id="leg-left" data-semantic-layer="true"><rect x="271" y="321" width="42" height="126" rx="15.96" fill="#2F3442" stroke="#162B45" stroke-width="6" /><rect x="268" y="437" width="66" height="28" rx="13" fill="#CF6C62" stroke="#162B45" stroke-width="6" /></g>
<g id="leg-right" data-semantic-layer="true"><rect x="199" y="321" width="42" height="126" rx="15.96" fill="#2F3442" stroke="#162B45" stroke-width="6" /><rect x="187" y="437" width="66" height="28" rx="13" fill="#CF6C62" stroke="#162B45" stroke-width="6" /></g>
<g id="torso" data-semantic-layer="true"><rect x="168" y="178" width="176" height="151" rx="30" fill="#365D87" stroke="#162B45" stroke-width="7" /><path d="M186 196 Q256.0 221 326 196" fill="none" stroke="#E56A62" stroke-width="8" stroke-linecap="round" stroke-linejoin="round" /><path d="M199.68 196 Q256.0 186 312.32 196" fill="none" stroke="#E9B542" stroke-width="5" stroke-linecap="round" stroke-linejoin="round" /><path d="M215.52 182 Q256.0 222 296.48 182" fill="none" stroke="#E56A62" stroke-width="8" stroke-linecap="round" stroke-linejoin="round" /><rect x="215.52" y="265.58" width="80.96000000000001" height="37.75" rx="14" fill="#E56A62" stroke="#162B45" stroke-width="4" /></g>
<g id="head" data-semantic-layer="true"><ellipse cx="196.78" cy="110" rx="12" ry="20" fill="#87513D" stroke="#162B45" stroke-width="5" />
<ellipse cx="315.22" cy="110" rx="12" ry="20" fill="#87513D" stroke="#162B45" stroke-width="5" />
<ellipse cx="256" cy="105" rx="63" ry="67" fill="#87513D" stroke="#162B45" stroke-width="7" />
<path d="M210.64 72.84 Q240.25 52.739999999999995 295.06 70.16" fill="none" stroke="#B4765C" stroke-width="5" stroke-linecap="round" stroke-linejoin="round" opacity=".45"/></g>
<g id="hair-front" data-semantic-layer="true"><ellipse cx="213" cy="43" rx="16" ry="16" fill="#201718" stroke="#162B45" stroke-width="4" /><ellipse cx="227" cy="47" rx="16" ry="16" fill="#201718" stroke="#162B45" stroke-width="4" /><ellipse cx="241" cy="43" rx="16" ry="16" fill="#201718" stroke="#162B45" stroke-width="4" /><ellipse cx="255" cy="47" rx="16" ry="16" fill="#201718" stroke="#162B45" stroke-width="4" /><ellipse cx="269" cy="43" rx="16" ry="16" fill="#201718" stroke="#162B45" stroke-width="4" /><ellipse cx="283" cy="47" rx="16" ry="16" fill="#201718" stroke="#162B45" stroke-width="4" /><ellipse cx="297" cy="43" rx="16" ry="16" fill="#201718" stroke="#162B45" stroke-width="4" /><path d="M208 71 Q256 37 306 73" fill="#201718" stroke="#162B45" stroke-width="5" stroke-linecap="round" stroke-linejoin="round" /></g>
<g id="face-friendly" data-semantic-layer="true"><path d="M214.91 91 Q228.91 84 242.91 91" fill="none" stroke="#162B45" stroke-width="5" stroke-linecap="round" stroke-linejoin="round" />
<path d="M269.09 91 Q283.09 84 297.09 91" fill="none" stroke="#162B45" stroke-width="5" stroke-linecap="round" stroke-linejoin="round" />
<ellipse cx="228.91" cy="109" rx="11" ry="12" fill="#FFF8EE" stroke="#162B45" stroke-width="4" />
<ellipse cx="283.09" cy="109" rx="11" ry="12" fill="#FFF8EE" stroke="#162B45" stroke-width="4" />
<ellipse cx="229.91" cy="111" rx="4" ry="6" fill="#162B45" stroke="#162B45" stroke-width="0" />
<ellipse cx="284.09" cy="111" rx="4" ry="6" fill="#162B45" stroke="#162B45" stroke-width="0" />
<path d="M256 117 q-4 10 4 12" fill="none" stroke="#B4765C" stroke-width="4" stroke-linecap="round" stroke-linejoin="round" />
<ellipse cx="219.46" cy="129" rx="10" ry="6" fill="#E58A78" stroke="none" stroke-width="0" opacity=".45"/>
<ellipse cx="292.54" cy="129" rx="10" ry="6" fill="#E58A78" stroke="none" stroke-width="0" opacity=".45"/>
<path d="M231 140 Q256 160 283 136" fill="none" stroke="#162B45" stroke-width="6" stroke-linecap="round" stroke-linejoin="round" />
<path d="M241 144 Q256 153 272 141" fill="none" stroke="#FFFFFF" stroke-width="3" stroke-linecap="round" stroke-linejoin="round" /></g>
<g id="face-laughing" data-semantic-layer="true" style="display:none"><path d="M217.91 109 Q228.91 118.0 239.91 109" fill="none" stroke="#162B45" stroke-width="5" stroke-linecap="round" stroke-linejoin="round" />
<path d="M272.09 109 Q283.09 118.0 294.09 109" fill="none" stroke="#162B45" stroke-width="5" stroke-linecap="round" stroke-linejoin="round" />
<path d="M214.91 89 Q228.91 83 242.91 89" fill="none" stroke="#162B45" stroke-width="5" stroke-linecap="round" stroke-linejoin="round" />
<path d="M269.09 89 Q283.09 83 297.09 89" fill="none" stroke="#162B45" stroke-width="5" stroke-linecap="round" stroke-linejoin="round" />
<path d="M256 117 q-4 10 5 12" fill="none" stroke="#B4765C" stroke-width="4" stroke-linecap="round" stroke-linejoin="round" />
<path d="M228 139 Q256 180 285 138 Z" fill="#5B2730" stroke="#162B45" stroke-width="5" stroke-linecap="round" stroke-linejoin="round" />
<path d="M241 159 Q256 168 272 158" fill="none" stroke="#E98A86" stroke-width="5" stroke-linecap="round" stroke-linejoin="round" /></g>
<g id="face-surprised" data-semantic-layer="true" style="display:none"><ellipse cx="228.91" cy="109" rx="11" ry="16.200000000000003" fill="#FFF8EE" stroke="#162B45" stroke-width="4" />
<ellipse cx="229.91" cy="111" rx="4" ry="8.100000000000001" fill="#162B45" stroke="#162B45" stroke-width="0" />
<ellipse cx="283.09" cy="109" rx="11" ry="16.200000000000003" fill="#FFF8EE" stroke="#162B45" stroke-width="4" />
<ellipse cx="284.09" cy="111" rx="4" ry="8.100000000000001" fill="#162B45" stroke="#162B45" stroke-width="0" />
<path d="M214.91 80 Q228.91 74 242.91 80" fill="none" stroke="#162B45" stroke-width="5" stroke-linecap="round" stroke-linejoin="round" />
<path d="M269.09 80 Q283.09 74 297.09 80" fill="none" stroke="#162B45" stroke-width="5" stroke-linecap="round" stroke-linejoin="round" />
<path d="M256 117 q-4 10 5 12" fill="none" stroke="#B4765C" stroke-width="4" stroke-linecap="round" stroke-linejoin="round" />
<ellipse cx="256" cy="146" rx="12" ry="16" fill="#5B2730" stroke="#162B45" stroke-width="5" /></g>
<g id="face-thinking" data-semantic-layer="true" style="display:none"><ellipse cx="228.91" cy="109" rx="11" ry="12.0" fill="#FFF8EE" stroke="#162B45" stroke-width="4" />
<ellipse cx="232.91" cy="111" rx="4" ry="6.0" fill="#162B45" stroke="#162B45" stroke-width="0" />
<ellipse cx="283.09" cy="109" rx="11" ry="12.0" fill="#FFF8EE" stroke="#162B45" stroke-width="4" />
<ellipse cx="287.09" cy="111" rx="4" ry="6.0" fill="#162B45" stroke="#162B45" stroke-width="0" />
<path d="M214.91 94 L242.91 87" fill="none" stroke="#162B45" stroke-width="5" stroke-linecap="round" stroke-linejoin="round" />
<path d="M269.09 87 L297.09 87" fill="none" stroke="#162B45" stroke-width="5" stroke-linecap="round" stroke-linejoin="round" />
<path d="M256 117 q-4 10 5 12" fill="none" stroke="#B4765C" stroke-width="4" stroke-linecap="round" stroke-linejoin="round" />
<path d="M238 146 Q259 142 278 149" fill="none" stroke="#162B45" stroke-width="5" stroke-linecap="round" stroke-linejoin="round" /></g>
<g id="face-confident" data-semantic-layer="true" style="display:none"><ellipse cx="228.91" cy="109" rx="11" ry="7.4399999999999995" fill="#FFF8EE" stroke="#162B45" stroke-width="4" />
<ellipse cx="229.91" cy="111" rx="4" ry="3.7199999999999998" fill="#162B45" stroke="#162B45" stroke-width="0" />
<ellipse cx="283.09" cy="109" rx="11" ry="7.4399999999999995" fill="#FFF8EE" stroke="#162B45" stroke-width="4" />
<ellipse cx="284.09" cy="111" rx="4" ry="3.7199999999999998" fill="#162B45" stroke="#162B45" stroke-width="0" />
<path d="M214.91 94 Q228.91 88 242.91 94" fill="none" stroke="#162B45" stroke-width="5" stroke-linecap="round" stroke-linejoin="round" />
<path d="M269.09 94 Q283.09 88 297.09 94" fill="none" stroke="#162B45" stroke-width="5" stroke-linecap="round" stroke-linejoin="round" />
<path d="M256 117 q-4 10 5 12" fill="none" stroke="#B4765C" stroke-width="4" stroke-linecap="round" stroke-linejoin="round" />
<path d="M232 143 Q261 165 285 138" fill="none" stroke="#162B45" stroke-width="6" stroke-linecap="round" stroke-linejoin="round" /></g>
<g id="face-sorry" data-semantic-layer="true" style="display:none"><ellipse cx="228.91" cy="109" rx="11" ry="12.0" fill="#FFF8EE" stroke="#162B45" stroke-width="4" />
<ellipse cx="229.91" cy="111" rx="4" ry="6.0" fill="#162B45" stroke="#162B45" stroke-width="0" />
<ellipse cx="283.09" cy="109" rx="11" ry="12.0" fill="#FFF8EE" stroke="#162B45" stroke-width="4" />
<ellipse cx="284.09" cy="111" rx="4" ry="6.0" fill="#162B45" stroke="#162B45" stroke-width="0" />
<path d="M214.91 91 Q230.91 85 242.91 96" fill="none" stroke="#162B45" stroke-width="5" stroke-linecap="round" stroke-linejoin="round" />
<path d="M269.09 96 Q281.09 85 297.09 91" fill="none" stroke="#162B45" stroke-width="5" stroke-linecap="round" stroke-linejoin="round" />
<path d="M256 117 q-4 10 5 12" fill="none" stroke="#B4765C" stroke-width="4" stroke-linecap="round" stroke-linejoin="round" />
<path d="M232 155 Q256 136 280 155" fill="none" stroke="#162B45" stroke-width="6" stroke-linecap="round" stroke-linejoin="round" /></g>
<g id="face-excited" data-semantic-layer="true" style="display:none"><ellipse cx="228.91" cy="109" rx="11" ry="16.200000000000003" fill="#FFF8EE" stroke="#162B45" stroke-width="4" />
<ellipse cx="229.91" cy="111" rx="4" ry="8.100000000000001" fill="#162B45" stroke="#162B45" stroke-width="0" />
<ellipse cx="283.09" cy="109" rx="11" ry="16.200000000000003" fill="#FFF8EE" stroke="#162B45" stroke-width="4" />
<ellipse cx="284.09" cy="111" rx="4" ry="8.100000000000001" fill="#162B45" stroke="#162B45" stroke-width="0" />
<path d="M214.91 84 Q228.91 78 242.91 84" fill="none" stroke="#162B45" stroke-width="5" stroke-linecap="round" stroke-linejoin="round" />
<path d="M269.09 84 Q283.09 78 297.09 84" fill="none" stroke="#162B45" stroke-width="5" stroke-linecap="round" stroke-linejoin="round" />
<path d="M256 117 q-4 10 5 12" fill="none" stroke="#B4765C" stroke-width="4" stroke-linecap="round" stroke-linejoin="round" />
<path d="M229 141 Q256 170 284 139" fill="none" stroke="#162B45" stroke-width="6" stroke-linecap="round" stroke-linejoin="round" /></g>
<g id="arm-left-rest" data-semantic-layer="true" style="display:none"><polyline points="336,212 350.0,247.0 364,282" fill="none" stroke="#162B45" stroke-width="32" stroke-linecap="round" stroke-linejoin="round"/><polyline points="336,212 350.0,247.0 364,282" fill="none" stroke="#365D87" stroke-width="24" stroke-linecap="round" stroke-linejoin="round"/><polyline points="364,282 358,332" fill="none" stroke="#162B45" stroke-width="25" stroke-linecap="round" stroke-linejoin="round"/><polyline points="364,282 358,332" fill="none" stroke="#87513D" stroke-width="18" stroke-linecap="round" stroke-linejoin="round"/><ellipse cx="358" cy="332" rx="11" ry="13" fill="#B4765C" stroke="#162B45" stroke-width="5" /></g>
<g id="arm-right-rest" data-semantic-layer="true" style="display:none"><polyline points="176,212 162.0,247.0 148,282" fill="none" stroke="#162B45" stroke-width="32" stroke-linecap="round" stroke-linejoin="round"/><polyline points="176,212 162.0,247.0 148,282" fill="none" stroke="#365D87" stroke-width="24" stroke-linecap="round" stroke-linejoin="round"/><polyline points="148,282 154,332" fill="none" stroke="#162B45" stroke-width="25" stroke-linecap="round" stroke-linejoin="round"/><polyline points="148,282 154,332" fill="none" stroke="#87513D" stroke-width="18" stroke-linecap="round" stroke-linejoin="round"/><ellipse cx="154" cy="332" rx="11" ry="13" fill="#B4765C" stroke="#162B45" stroke-width="5" /></g>
<g id="arm-left-greeting" data-semantic-layer="true"><polyline points="336,212 350.0,247.0 364,282" fill="none" stroke="#162B45" stroke-width="32" stroke-linecap="round" stroke-linejoin="round"/><polyline points="336,212 350.0,247.0 364,282" fill="none" stroke="#365D87" stroke-width="24" stroke-linecap="round" stroke-linejoin="round"/><polyline points="364,282 358,332" fill="none" stroke="#162B45" stroke-width="25" stroke-linecap="round" stroke-linejoin="round"/><polyline points="364,282 358,332" fill="none" stroke="#87513D" stroke-width="18" stroke-linecap="round" stroke-linejoin="round"/><ellipse cx="358" cy="332" rx="13" ry="15" fill="#B4765C" stroke="#162B45" stroke-width="5" /><path d="M353.8 326 L344.2 305.8" fill="none" stroke="#87513D" stroke-width="6" stroke-linecap="round" stroke-linejoin="round" /><path d="M356.6 326 L353.4 304.6" fill="none" stroke="#87513D" stroke-width="6" stroke-linecap="round" stroke-linejoin="round" /><path d="M359.4 326 L362.6 304.6" fill="none" stroke="#87513D" stroke-width="6" stroke-linecap="round" stroke-linejoin="round" /><path d="M362.2 326 L371.8 305.8" fill="none" stroke="#87513D" stroke-width="6" stroke-linecap="round" stroke-linejoin="round" /></g>
<g id="arm-right-greeting" data-semantic-layer="true"><polyline points="176,212 158.0,196.0 140,180" fill="none" stroke="#162B45" stroke-width="32" stroke-linecap="round" stroke-linejoin="round"/><polyline points="176,212 158.0,196.0 140,180" fill="none" stroke="#365D87" stroke-width="24" stroke-linecap="round" stroke-linejoin="round"/><polyline points="140,180 128,122" fill="none" stroke="#162B45" stroke-width="25" stroke-linecap="round" stroke-linejoin="round"/><polyline points="140,180 128,122" fill="none" stroke="#87513D" stroke-width="18" stroke-linecap="round" stroke-linejoin="round"/><ellipse cx="128" cy="122" rx="13" ry="15" fill="#B4765C" stroke="#162B45" stroke-width="5" /><path d="M123.8 116 L114.2 95.8" fill="none" stroke="#87513D" stroke-width="6" stroke-linecap="round" stroke-linejoin="round" /><path d="M126.6 116 L123.4 94.6" fill="none" stroke="#87513D" stroke-width="6" stroke-linecap="round" stroke-linejoin="round" /><path d="M129.4 116 L132.6 94.6" fill="none" stroke="#87513D" stroke-width="6" stroke-linecap="round" stroke-linejoin="round" /><path d="M132.2 116 L141.8 95.8" fill="none" stroke="#87513D" stroke-width="6" stroke-linecap="round" stroke-linejoin="round" /></g>
<g id="arm-left-farewell" data-semantic-layer="true" style="display:none"><polyline points="336,212 354.0,196.0 372,180" fill="none" stroke="#162B45" stroke-width="32" stroke-linecap="round" stroke-linejoin="round"/><polyline points="336,212 354.0,196.0 372,180" fill="none" stroke="#365D87" stroke-width="24" stroke-linecap="round" stroke-linejoin="round"/><polyline points="372,180 384,122" fill="none" stroke="#162B45" stroke-width="25" stroke-linecap="round" stroke-linejoin="round"/><polyline points="372,180 384,122" fill="none" stroke="#87513D" stroke-width="18" stroke-linecap="round" stroke-linejoin="round"/><ellipse cx="384" cy="122" rx="13" ry="15" fill="#B4765C" stroke="#162B45" stroke-width="5" /><path d="M379.8 116 L370.2 95.8" fill="none" stroke="#87513D" stroke-width="6" stroke-linecap="round" stroke-linejoin="round" /><path d="M382.6 116 L379.4 94.6" fill="none" stroke="#87513D" stroke-width="6" stroke-linecap="round" stroke-linejoin="round" /><path d="M385.4 116 L388.6 94.6" fill="none" stroke="#87513D" stroke-width="6" stroke-linecap="round" stroke-linejoin="round" /><path d="M388.2 116 L397.8 95.8" fill="none" stroke="#87513D" stroke-width="6" stroke-linecap="round" stroke-linejoin="round" /></g>
<g id="arm-right-farewell" data-semantic-layer="true" style="display:none"><polyline points="176,212 162.0,247.0 148,282" fill="none" stroke="#162B45" stroke-width="32" stroke-linecap="round" stroke-linejoin="round"/><polyline points="176,212 162.0,247.0 148,282" fill="none" stroke="#365D87" stroke-width="24" stroke-linecap="round" stroke-linejoin="round"/><polyline points="148,282 154,332" fill="none" stroke="#162B45" stroke-width="25" stroke-linecap="round" stroke-linejoin="round"/><polyline points="148,282 154,332" fill="none" stroke="#87513D" stroke-width="18" stroke-linecap="round" stroke-linejoin="round"/><ellipse cx="154" cy="332" rx="13" ry="15" fill="#B4765C" stroke="#162B45" stroke-width="5" /><path d="M149.8 326 L140.2 305.8" fill="none" stroke="#87513D" stroke-width="6" stroke-linecap="round" stroke-linejoin="round" /><path d="M152.6 326 L149.4 304.6" fill="none" stroke="#87513D" stroke-width="6" stroke-linecap="round" stroke-linejoin="round" /><path d="M155.4 326 L158.6 304.6" fill="none" stroke="#87513D" stroke-width="6" stroke-linecap="round" stroke-linejoin="round" /><path d="M158.2 326 L167.8 305.8" fill="none" stroke="#87513D" stroke-width="6" stroke-linecap="round" stroke-linejoin="round" /></g>
<g id="arm-left-agreement" data-semantic-layer="true" style="display:none"><polyline points="336,212 346.0,229.5 356,247" fill="none" stroke="#162B45" stroke-width="32" stroke-linecap="round" stroke-linejoin="round"/><polyline points="336,212 346.0,229.5 356,247" fill="none" stroke="#365D87" stroke-width="24" stroke-linecap="round" stroke-linejoin="round"/><polyline points="356,247 301,222" fill="none" stroke="#162B45" stroke-width="25" stroke-linecap="round" stroke-linejoin="round"/><polyline points="356,247 301,222" fill="none" stroke="#87513D" stroke-width="18" stroke-linecap="round" stroke-linejoin="round"/><ellipse cx="301" cy="222" rx="11" ry="13" fill="#B4765C" stroke="#162B45" stroke-width="5" /></g>
<g id="arm-right-agreement" data-semantic-layer="true" style="display:none"><polyline points="176,212 166.0,229.5 156,247" fill="none" stroke="#162B45" stroke-width="32" stroke-linecap="round" stroke-linejoin="round"/><polyline points="176,212 166.0,229.5 156,247" fill="none" stroke="#365D87" stroke-width="24" stroke-linecap="round" stroke-linejoin="round"/><polyline points="156,247 211,222" fill="none" stroke="#162B45" stroke-width="25" stroke-linecap="round" stroke-linejoin="round"/><polyline points="156,247 211,222" fill="none" stroke="#87513D" stroke-width="18" stroke-linecap="round" stroke-linejoin="round"/><ellipse cx="211" cy="222" rx="11" ry="13" fill="#B4765C" stroke="#162B45" stroke-width="5" /></g>
<g id="arm-left-disagreement" data-semantic-layer="true" style="display:none"><polyline points="336,212 344.0,234.5 352,257" fill="none" stroke="#162B45" stroke-width="32" stroke-linecap="round" stroke-linejoin="round"/><polyline points="336,212 344.0,234.5 352,257" fill="none" stroke="#365D87" stroke-width="24" stroke-linecap="round" stroke-linejoin="round"/><polyline points="352,257 218,285" fill="none" stroke="#162B45" stroke-width="25" stroke-linecap="round" stroke-linejoin="round"/><polyline points="352,257 218,285" fill="none" stroke="#87513D" stroke-width="18" stroke-linecap="round" stroke-linejoin="round"/><ellipse cx="218" cy="285" rx="11" ry="13" fill="#B4765C" stroke="#162B45" stroke-width="5" /></g>
<g id="arm-right-disagreement" data-semantic-layer="true" style="display:none"><polyline points="176,212 168.0,234.5 160,257" fill="none" stroke="#162B45" stroke-width="32" stroke-linecap="round" stroke-linejoin="round"/><polyline points="176,212 168.0,234.5 160,257" fill="none" stroke="#365D87" stroke-width="24" stroke-linecap="round" stroke-linejoin="round"/><polyline points="160,257 294,285" fill="none" stroke="#162B45" stroke-width="25" stroke-linecap="round" stroke-linejoin="round"/><polyline points="160,257 294,285" fill="none" stroke="#87513D" stroke-width="18" stroke-linecap="round" stroke-linejoin="round"/><ellipse cx="294" cy="285" rx="11" ry="13" fill="#B4765C" stroke="#162B45" stroke-width="5" /></g>
<g id="arm-left-gratitude" data-semantic-layer="true" style="display:none"><polyline points="336,212 345.0,235.5 354,259" fill="none" stroke="#162B45" stroke-width="32" stroke-linecap="round" stroke-linejoin="round"/><polyline points="336,212 345.0,235.5 354,259" fill="none" stroke="#365D87" stroke-width="24" stroke-linecap="round" stroke-linejoin="round"/><polyline points="354,259 266,274" fill="none" stroke="#162B45" stroke-width="25" stroke-linecap="round" stroke-linejoin="round"/><polyline points="354,259 266,274" fill="none" stroke="#87513D" stroke-width="18" stroke-linecap="round" stroke-linejoin="round"/><ellipse cx="266" cy="274" rx="11" ry="13" fill="#B4765C" stroke="#162B45" stroke-width="5" /></g>
<g id="arm-right-gratitude" data-semantic-layer="true" style="display:none"><polyline points="176,212 167.0,235.5 158,259" fill="none" stroke="#162B45" stroke-width="32" stroke-linecap="round" stroke-linejoin="round"/><polyline points="176,212 167.0,235.5 158,259" fill="none" stroke="#365D87" stroke-width="24" stroke-linecap="round" stroke-linejoin="round"/><polyline points="158,259 246,274" fill="none" stroke="#162B45" stroke-width="25" stroke-linecap="round" stroke-linejoin="round"/><polyline points="158,259 246,274" fill="none" stroke="#87513D" stroke-width="18" stroke-linecap="round" stroke-linejoin="round"/><ellipse cx="246" cy="274" rx="11" ry="13" fill="#B4765C" stroke="#162B45" stroke-width="5" /></g>
<g id="arm-left-concern" data-semantic-layer="true" style="display:none"><polyline points="336,212 348.0,223.0 360,234" fill="none" stroke="#162B45" stroke-width="32" stroke-linecap="round" stroke-linejoin="round"/><polyline points="336,212 348.0,223.0 360,234" fill="none" stroke="#365D87" stroke-width="24" stroke-linecap="round" stroke-linejoin="round"/><polyline points="360,234 294,148" fill="none" stroke="#162B45" stroke-width="25" stroke-linecap="round" stroke-linejoin="round"/><polyline points="360,234 294,148" fill="none" stroke="#87513D" stroke-width="18" stroke-linecap="round" stroke-linejoin="round"/><ellipse cx="294" cy="148" rx="11" ry="13" fill="#B4765C" stroke="#162B45" stroke-width="5" /></g>
<g id="arm-right-concern" data-semantic-layer="true" style="display:none"><polyline points="176,212 164.0,223.0 152,234" fill="none" stroke="#162B45" stroke-width="32" stroke-linecap="round" stroke-linejoin="round"/><polyline points="176,212 164.0,223.0 152,234" fill="none" stroke="#365D87" stroke-width="24" stroke-linecap="round" stroke-linejoin="round"/><polyline points="152,234 218,148" fill="none" stroke="#162B45" stroke-width="25" stroke-linecap="round" stroke-linejoin="round"/><polyline points="152,234 218,148" fill="none" stroke="#87513D" stroke-width="18" stroke-linecap="round" stroke-linejoin="round"/><ellipse cx="218" cy="148" rx="11" ry="13" fill="#B4765C" stroke="#162B45" stroke-width="5" /></g>
<g id="arm-left-surprise" data-semantic-layer="true" style="display:none"><polyline points="336,212 350.0,216.0 364,220" fill="none" stroke="#162B45" stroke-width="32" stroke-linecap="round" stroke-linejoin="round"/><polyline points="336,212 350.0,216.0 364,220" fill="none" stroke="#365D87" stroke-width="24" stroke-linecap="round" stroke-linejoin="round"/><polyline points="364,220 314,135" fill="none" stroke="#162B45" stroke-width="25" stroke-linecap="round" stroke-linejoin="round"/><polyline points="364,220 314,135" fill="none" stroke="#87513D" stroke-width="18" stroke-linecap="round" stroke-linejoin="round"/><ellipse cx="314" cy="135" rx="13" ry="15" fill="#B4765C" stroke="#162B45" stroke-width="5" /><path d="M309.8 129 L300.2 108.8" fill="none" stroke="#87513D" stroke-width="6" stroke-linecap="round" stroke-linejoin="round" /><path d="M312.6 129 L309.4 107.6" fill="none" stroke="#87513D" stroke-width="6" stroke-linecap="round" stroke-linejoin="round" /><path d="M315.4 129 L318.6 107.6" fill="none" stroke="#87513D" stroke-width="6" stroke-linecap="round" stroke-linejoin="round" /><path d="M318.2 129 L327.8 108.8" fill="none" stroke="#87513D" stroke-width="6" stroke-linecap="round" stroke-linejoin="round" /></g>
<g id="arm-right-surprise" data-semantic-layer="true" style="display:none"><polyline points="176,212 162.0,216.0 148,220" fill="none" stroke="#162B45" stroke-width="32" stroke-linecap="round" stroke-linejoin="round"/><polyline points="176,212 162.0,216.0 148,220" fill="none" stroke="#365D87" stroke-width="24" stroke-linecap="round" stroke-linejoin="round"/><polyline points="148,220 198,135" fill="none" stroke="#162B45" stroke-width="25" stroke-linecap="round" stroke-linejoin="round"/><polyline points="148,220 198,135" fill="none" stroke="#87513D" stroke-width="18" stroke-linecap="round" stroke-linejoin="round"/><ellipse cx="198" cy="135" rx="13" ry="15" fill="#B4765C" stroke="#162B45" stroke-width="5" /><path d="M193.8 129 L184.2 108.8" fill="none" stroke="#87513D" stroke-width="6" stroke-linecap="round" stroke-linejoin="round" /><path d="M196.6 129 L193.4 107.6" fill="none" stroke="#87513D" stroke-width="6" stroke-linecap="round" stroke-linejoin="round" /><path d="M199.4 129 L202.6 107.6" fill="none" stroke="#87513D" stroke-width="6" stroke-linecap="round" stroke-linejoin="round" /><path d="M202.2 129 L211.8 108.8" fill="none" stroke="#87513D" stroke-width="6" stroke-linecap="round" stroke-linejoin="round" /></g>
<g id="arm-left-celebration" data-semantic-layer="true" style="display:none"><polyline points="336,212 353.0,191.0 370,170" fill="none" stroke="#162B45" stroke-width="32" stroke-linecap="round" stroke-linejoin="round"/><polyline points="336,212 353.0,191.0 370,170" fill="none" stroke="#365D87" stroke-width="24" stroke-linecap="round" stroke-linejoin="round"/><polyline points="370,170 388,108" fill="none" stroke="#162B45" stroke-width="25" stroke-linecap="round" stroke-linejoin="round"/><polyline points="370,170 388,108" fill="none" stroke="#87513D" stroke-width="18" stroke-linecap="round" stroke-linejoin="round"/><ellipse cx="388" cy="108" rx="13" ry="15" fill="#B4765C" stroke="#162B45" stroke-width="5" /><path d="M383.8 102 L374.2 81.8" fill="none" stroke="#87513D" stroke-width="6" stroke-linecap="round" stroke-linejoin="round" /><path d="M386.6 102 L383.4 80.6" fill="none" stroke="#87513D" stroke-width="6" stroke-linecap="round" stroke-linejoin="round" /><path d="M389.4 102 L392.6 80.6" fill="none" stroke="#87513D" stroke-width="6" stroke-linecap="round" stroke-linejoin="round" /><path d="M392.2 102 L401.8 81.8" fill="none" stroke="#87513D" stroke-width="6" stroke-linecap="round" stroke-linejoin="round" /></g>
<g id="arm-right-celebration" data-semantic-layer="true" style="display:none"><polyline points="176,212 159.0,191.0 142,170" fill="none" stroke="#162B45" stroke-width="32" stroke-linecap="round" stroke-linejoin="round"/><polyline points="176,212 159.0,191.0 142,170" fill="none" stroke="#365D87" stroke-width="24" stroke-linecap="round" stroke-linejoin="round"/><polyline points="142,170 124,108" fill="none" stroke="#162B45" stroke-width="25" stroke-linecap="round" stroke-linejoin="round"/><polyline points="142,170 124,108" fill="none" stroke="#87513D" stroke-width="18" stroke-linecap="round" stroke-linejoin="round"/><ellipse cx="124" cy="108" rx="13" ry="15" fill="#B4765C" stroke="#162B45" stroke-width="5" /><path d="M119.8 102 L110.2 81.8" fill="none" stroke="#87513D" stroke-width="6" stroke-linecap="round" stroke-linejoin="round" /><path d="M122.6 102 L119.4 80.6" fill="none" stroke="#87513D" stroke-width="6" stroke-linecap="round" stroke-linejoin="round" /><path d="M125.4 102 L128.6 80.6" fill="none" stroke="#87513D" stroke-width="6" stroke-linecap="round" stroke-linejoin="round" /><path d="M128.2 102 L137.8 81.8" fill="none" stroke="#87513D" stroke-width="6" stroke-linecap="round" stroke-linejoin="round" /></g>
</svg>
