<svg xmlns="http://www.w3.org/2000/svg" width="512" height="512" viewBox="0 0 512 512">
<defs><linearGradient id="softShade" x1="0" y1="0" x2="1" y2="1"><stop offset="0" stop-color="#FFFFFF" stop-opacity=".24"/><stop offset="1" stop-color="#10243A" stop-opacity=".14"/></linearGradient></defs>
<g id="shadow" data-semantic-layer="true"><ellipse cx="256" cy="472" rx="105" ry="14" fill="#AAB2BD" stroke="none" stroke-width="0" opacity=".65"/></g>
<g id="leg-left" data-semantic-layer="true"><rect x="272" y="317" width="43" height="130" rx="16.34" fill="#2D3541" stroke="#162B45" stroke-width="6" /><rect x="269" y="437" width="67" height="28" rx="13" fill="#5A4438" stroke="#162B45" stroke-width="6" /></g>
<g id="leg-right" data-semantic-layer="true"><rect x="197" y="317" width="43" height="130" rx="16.34" fill="#2D3541" stroke="#162B45" stroke-width="6" /><rect x="185" y="437" width="67" height="28" rx="13" fill="#5A4438" stroke="#162B45" stroke-width="6" /></g>
<g id="torso" data-semantic-layer="true"><rect x="169" y="174" width="174" height="151" rx="30" fill="#8A5B3E" stroke="#162B45" stroke-width="7" /><path d="M187 192 Q256.0 217 325 192" fill="none" stroke="#4F7690" stroke-width="8" stroke-linecap="round" stroke-linejoin="round" /><path d="M200.32 192 Q256.0 182 311.67999999999995 192" fill="none" stroke="#D8A746" stroke-width="5" stroke-linecap="round" stroke-linejoin="round" /><ellipse cx="256.0" cy="246.48000000000002" rx="22" ry="22" fill="#4F7690" stroke="#162B45" stroke-width="4" /><path d="M245.0 246.48000000000002 L267.0 246.48000000000002" fill="none" stroke="#D8A746" stroke-width="5" stroke-linecap="round" stroke-linejoin="round" /></g>
<g id="head" data-semantic-layer="true"><ellipse cx="198.66" cy="107" rx="12" ry="20" fill="#D6A17D" stroke="#162B45" stroke-width="5" />
<ellipse cx="313.34" cy="107" rx="12" ry="20" fill="#D6A17D" stroke="#162B45" stroke-width="5" />
<ellipse cx="256" cy="102" rx="61" ry="64" fill="#D6A17D" stroke="#162B45" stroke-width="7" />
<path d="M212.07999999999998 71.28 Q240.75 52.08 293.82 68.72" fill="none" stroke="#EBC2A4" stroke-width="5" stroke-linecap="round" stroke-linejoin="round" opacity=".45"/></g>
<g id="hair-front" data-semantic-layer="true"><path d="M218.18 65.52000000000001 Q256 53.36 293.82 65.52000000000001" fill="none" stroke="#EBC2A4" stroke-width="4" stroke-linecap="round" stroke-linejoin="round" opacity=".55"/></g>
<g id="face-friendly" data-semantic-layer="true"><path d="M215.77 88 Q229.77 81 243.77 88" fill="none" stroke="#162B45" stroke-width="5" stroke-linecap="round" stroke-linejoin="round" />
<path d="M268.23 88 Q282.23 81 296.23 88" fill="none" stroke="#162B45" stroke-width="5" stroke-linecap="round" stroke-linejoin="round" />
<ellipse cx="229.77" cy="106" rx="10" ry="11" fill="#FFF8EE" stroke="#162B45" stroke-width="4" />
<ellipse cx="282.23" cy="106" rx="10" ry="11" fill="#FFF8EE" stroke="#162B45" stroke-width="4" />
<ellipse cx="230.77" cy="108" rx="4" ry="6" fill="#162B45" stroke="#162B45" stroke-width="0" />
<ellipse cx="283.23" cy="108" rx="4" ry="6" fill="#162B45" stroke="#162B45" stroke-width="0" />
<path d="M256 114 q-4 10 4 12" fill="none" stroke="#EBC2A4" stroke-width="4" stroke-linecap="round" stroke-linejoin="round" />
<ellipse cx="220.62" cy="126" rx="10" ry="6" fill="#E58A78" stroke="none" stroke-width="0" opacity=".45"/>
<ellipse cx="291.38" cy="126" rx="10" ry="6" fill="#E58A78" stroke="none" stroke-width="0" opacity=".45"/>
<path d="M231 137 Q256 157 283 133" fill="none" stroke="#162B45" stroke-width="6" stroke-linecap="round" stroke-linejoin="round" />
<path d="M241 141 Q256 150 272 138" fill="none" stroke="#FFFFFF" stroke-width="3" stroke-linecap="round" stroke-linejoin="round" />
<path d="M222 129 Q256 171 290 128" fill="none" stroke="#4A2D23" stroke-width="7" stroke-linecap="round" stroke-linejoin="round" /></g>
<g id="face-laughing" data-semantic-layer="true" style="display:none"><path d="M219.77 106 Q229.77 114.25 239.77 106" fill="none" stroke="#162B45" stroke-width="5" stroke-linecap="round" stroke-linejoin="round" />
<path d="M272.23 106 Q282.23 114.25 292.23 106" fill="none" stroke="#162B45" stroke-width="5" stroke-linecap="round" stroke-linejoin="round" />
<path d="M215.77 86 Q229.77 80 243.77 86" fill="none" stroke="#162B45" stroke-width="5" stroke-linecap="round" stroke-linejoin="round" />
<path d="M268.23 86 Q282.23 80 296.23 86" fill="none" stroke="#162B45" stroke-width="5" stroke-linecap="round" stroke-linejoin="round" />
<path d="M256 114 q-4 10 5 12" fill="none" stroke="#EBC2A4" stroke-width="4" stroke-linecap="round" stroke-linejoin="round" />
<path d="M228 136 Q256 177 285 135 Z" fill="#5B2730" stroke="#162B45" stroke-width="5" stroke-linecap="round" stroke-linejoin="round" />
<path d="M241 156 Q256 165 272 155" fill="none" stroke="#E98A86" stroke-width="5" stroke-linecap="round" stroke-linejoin="round" />
<path d="M222 129 Q256 171 290 128" fill="none" stroke="#4A2D23" stroke-width="7" stroke-linecap="round" stroke-linejoin="round" /></g>
<g id="face-surprised" data-semantic-layer="true" style="display:none"><ellipse cx="229.77" cy="106" rx="10" ry="14.850000000000001" fill="#FFF8EE" stroke="#162B45" stroke-width="4" />
<ellipse cx="230.77" cy="108" rx="4" ry="8.100000000000001" fill="#162B45" stroke="#162B45" stroke-width="0" />
<ellipse cx="282.23" cy="106" rx="10" ry="14.850000000000001" fill="#FFF8EE" stroke="#162B45" stroke-width="4" />
<ellipse cx="283.23" cy="108" rx="4" ry="8.100000000000001" fill="#162B45" stroke="#162B45" stroke-width="0" />
<path d="M215.77 77 Q229.77 71 243.77 77" fill="none" stroke="#162B45" stroke-width="5" stroke-linecap="round" stroke-linejoin="round" />
<path d="M268.23 77 Q282.23 71 296.23 77" fill="none" stroke="#162B45" stroke-width="5" stroke-linecap="round" stroke-linejoin="round" />
<path d="M256 114 q-4 10 5 12" fill="none" stroke="#EBC2A4" stroke-width="4" stroke-linecap="round" stroke-linejoin="round" />
<ellipse cx="256" cy="143" rx="12" ry="16" fill="#5B2730" stroke="#162B45" stroke-width="5" />
<path d="M222 129 Q256 171 290 128" fill="none" stroke="#4A2D23" stroke-width="7" stroke-linecap="round" stroke-linejoin="round" /></g>
<g id="face-thinking" data-semantic-layer="true" style="display:none"><ellipse cx="229.77" cy="106" rx="10" ry="11.0" fill="#FFF8EE" stroke="#162B45" stroke-width="4" />
<ellipse cx="233.77" cy="108" rx="4" ry="6.0" fill="#162B45" stroke="#162B45" stroke-width="0" />
<ellipse cx="282.23" cy="106" rx="10" ry="11.0" fill="#FFF8EE" stroke="#162B45" stroke-width="4" />
<ellipse cx="286.23" cy="108" rx="4" ry="6.0" fill="#162B45" stroke="#162B45" stroke-width="0" />
<path d="M215.77 91 L243.77 84" fill="none" stroke="#162B45" stroke-width="5" stroke-linecap="round" stroke-linejoin="round" />
<path d="M268.23 84 L296.23 84" fill="none" stroke="#162B45" stroke-width="5" stroke-linecap="round" stroke-linejoin="round" />
<path d="M256 114 q-4 10 5 12" fill="none" stroke="#EBC2A4" stroke-width="4" stroke-linecap="round" stroke-linejoin="round" />
<path d="M238 143 Q259 139 278 146" fill="none" stroke="#162B45" stroke-width="5" stroke-linecap="round" stroke-linejoin="round" />
<path d="M222 129 Q256 171 290 128" fill="none" stroke="#4A2D23" stroke-width="7" stroke-linecap="round" stroke-linejoin="round" /></g>
<g id="face-confident" data-semantic-layer="true" style="display:none"><ellipse cx="229.77" cy="106" rx="10" ry="6.82" fill="#FFF8EE" stroke="#162B45" stroke-width="4" />
<ellipse cx="230.77" cy="108" rx="4" ry="3.7199999999999998" fill="#162B45" stroke="#162B45" stroke-width="0" />
<ellipse cx="282.23" cy="106" rx="10" ry="6.82" fill="#FFF8EE" stroke="#162B45" stroke-width="4" />
<ellipse cx="283.23" cy="108" rx="4" ry="3.7199999999999998" fill="#162B45" stroke="#162B45" stroke-width="0" />
<path d="M215.77 91 Q229.77 85 243.77 91" fill="none" stroke="#162B45" stroke-width="5" stroke-linecap="round" stroke-linejoin="round" />
<path d="M268.23 91 Q282.23 85 296.23 91" fill="none" stroke="#162B45" stroke-width="5" stroke-linecap="round" stroke-linejoin="round" />
<path d="M256 114 q-4 10 5 12" fill="none" stroke="#EBC2A4" stroke-width="4" stroke-linecap="round" stroke-linejoin="round" />
<path d="M232 140 Q261 162 285 135" fill="none" stroke="#162B45" stroke-width="6" stroke-linecap="round" stroke-linejoin="round" />
<path d="M222 129 Q256 171 290 128" fill="none" stroke="#4A2D23" stroke-width="7" stroke-linecap="round" stroke-linejoin="round" /></g>
<g id="face-sorry" data-semantic-layer="true" style="display:none"><ellipse cx="229.77" cy="106" rx="10" ry="11.0" fill="#FFF8EE" stroke="#162B45" stroke-width="4" />
<ellipse cx="230.77" cy="108" rx="4" ry="6.0" fill="#162B45" stroke="#162B45" stroke-width="0" />
<ellipse cx="282.23" cy="106" rx="10" ry="11.0" fill="#FFF8EE" stroke="#162B45" stroke-width="4" />
<ellipse cx="283.23" cy="108" rx="4" ry="6.0" fill="#162B45" stroke="#162B45" stroke-width="0" />
<path d="M215.77 88 Q231.77 82 243.77 93" fill="none" stroke="#162B45" stroke-width="5" stroke-linecap="round" stroke-linejoin="round" />
<path d="M268.23 93 Q280.23 82 296.23 88" fill="none" stroke="#162B45" stroke-width="5" stroke-linecap="round" stroke-linejoin="round" />
<path d="M256 114 q-4 10 5 12" fill="none" stroke="#EBC2A4" stroke-width="4" stroke-linecap="round" stroke-linejoin="round" />
<path d="M232 152 Q256 133 280 152" fill="none" stroke="#162B45" stroke-width="6" stroke-linecap="round" stroke-linejoin="round" />
<path d="M222 129 Q256 171 290 128" fill="none" stroke="#4A2D23" stroke-width="7" stroke-linecap="round" stroke-linejoin="round" /></g>
<g id="face-excited" data-semantic-layer="true" style="display:none"><ellipse cx="229.77" cy="106" rx="10" ry="14.850000000000001" fill="#FFF8EE" stroke="#162B45" stroke-width="4" />
<ellipse cx="230.77" cy="108" rx="4" ry="8.100000000000001" fill="#162B45" stroke="#162B45" stroke-width="0" />
<ellipse cx="282.23" cy="106" rx="10" ry="14.850000000000001" fill="#FFF8EE" stroke="#162B45" stroke-width="4" />
<ellipse cx="283.23" cy="108" rx="4" ry="8.100000000000001" fill="#162B45" stroke="#162B45" stroke-width="0" />
<path d="M215.77 81 Q229.77 75 243.77 81" fill="none" stroke="#162B45" stroke-width="5" stroke-linecap="round" stroke-linejoin="round" />
<path d="M268.23 81 Q282.23 75 296.23 81" fill="none" stroke="#162B45" stroke-width="5" stroke-linecap="round" stroke-linejoin="round" />
<path d="M256 114 q-4 10 5 12" fill="none" stroke="#EBC2A4" stroke-width="4" stroke-linecap="round" stroke-linejoin="round" />
<path d="M229 138 Q256 167 284 136" fill="none" stroke="#162B45" stroke-width="6" stroke-linecap="round" stroke-linejoin="round" />
<path d="M222 129 Q256 171 290 128" fill="none" stroke="#4A2D23" stroke-width="7" stroke-linecap="round" stroke-linejoin="round" /></g>
<g id="arm-left-rest" data-semantic-layer="true" style="display:none"><polyline points="335,208 349.0,243.0 363,278" fill="none" stroke="#162B45" stroke-width="32" stroke-linecap="round" stroke-linejoin="round"/><polyline points="335,208 349.0,243.0 363,278" fill="none" stroke="#8A5B3E" stroke-width="24" stroke-linecap="round" stroke-linejoin="round"/><polyline points="363,278 357,328" fill="none" stroke="#162B45" stroke-width="25" stroke-linecap="round" stroke-linejoin="round"/><polyline points="363,278 357,328" fill="none" stroke="#D6A17D" stroke-width="18" stroke-linecap="round" stroke-linejoin="round"/><ellipse cx="357" cy="328" rx="11" ry="13" fill="#EBC2A4" stroke="#162B45" stroke-width="5" /></g>
<g id="arm-right-rest" data-semantic-layer="true" style="display:none"><polyline points="177,208 163.0,243.0 149,278" fill="none" stroke="#162B45" stroke-width="32" stroke-linecap="round" stroke-linejoin="round"/><polyline points="177,208 163.0,243.0 149,278" fill="none" stroke="#8A5B3E" stroke-width="24" stroke-linecap="round" stroke-linejoin="round"/><polyline points="149,278 155,328" fill="none" stroke="#162B45" stroke-width="25" stroke-linecap="round" stroke-linejoin="round"/><polyline points="149,278 155,328" fill="none" stroke="#D6A17D" stroke-width="18" stroke-linecap="round" stroke-linejoin="round"/><ellipse cx="155" cy="328" rx="11" ry="13" fill="#EBC2A4" stroke="#162B45" stroke-width="5" /></g>
<g id="arm-left-greeting" data-semantic-layer="true"><polyline points="335,208 349.0,243.0 363,278" fill="none" stroke="#162B45" stroke-width="32" stroke-linecap="round" stroke-linejoin="round"/><polyline points="335,208 349.0,243.0 363,278" fill="none" stroke="#8A5B3E" stroke-width="24" stroke-linecap="round" stroke-linejoin="round"/><polyline points="363,278 357,328" fill="none" stroke="#162B45" stroke-width="25" stroke-linecap="round" stroke-linejoin="round"/><polyline points="363,278 357,328" fill="none" stroke="#D6A17D" stroke-width="18" stroke-linecap="round" stroke-linejoin="round"/><ellipse cx="357" cy="328" rx="13" ry="15" fill="#EBC2A4" stroke="#162B45" stroke-width="5" /><path d="M352.8 322 L343.2 301.8" fill="none" stroke="#D6A17D" stroke-width="6" stroke-linecap="round" stroke-linejoin="round" /><path d="M355.6 322 L352.4 300.6" fill="none" stroke="#D6A17D" stroke-width="6" stroke-linecap="round" stroke-linejoin="round" /><path d="M358.4 322 L361.6 300.6" fill="none" stroke="#D6A17D" stroke-width="6" stroke-linecap="round" stroke-linejoin="round" /><path d="M361.2 322 L370.8 301.8" fill="none" stroke="#D6A17D" stroke-width="6" stroke-linecap="round" stroke-linejoin="round" /></g>
<g id="arm-right-greeting" data-semantic-layer="true"><polyline points="177,208 159.0,192.0 141,176" fill="none" stroke="#162B45" stroke-width="32" stroke-linecap="round" stroke-linejoin="round"/><polyline points="177,208 159.0,192.0 141,176" fill="none" stroke="#8A5B3E" stroke-width="24" stroke-linecap="round" stroke-linejoin="round"/><polyline points="141,176 129,118" fill="none" stroke="#162B45" stroke-width="25" stroke-linecap="round" stroke-linejoin="round"/><polyline points="141,176 129,118" fill="none" stroke="#D6A17D" stroke-width="18" stroke-linecap="round" stroke-linejoin="round"/><ellipse cx="129" cy="118" rx="13" ry="15" fill="#EBC2A4" stroke="#162B45" stroke-width="5" /><path d="M124.8 112 L115.2 91.8" fill="none" stroke="#D6A17D" stroke-width="6" stroke-linecap="round" stroke-linejoin="round" /><path d="M127.6 112 L124.4 90.6" fill="none" stroke="#D6A17D" stroke-width="6" stroke-linecap="round" stroke-linejoin="round" /><path d="M130.4 112 L133.6 90.6" fill="none" stroke="#D6A17D" stroke-width="6" stroke-linecap="round" stroke-linejoin="round" /><path d="M133.2 112 L142.8 91.8" fill="none" stroke="#D6A17D" stroke-width="6" stroke-linecap="round" stroke-linejoin="round" /></g>
<g id="arm-left-farewell" data-semantic-layer="true" style="display:none"><polyline points="335,208 353.0,192.0 371,176" fill="none" stroke="#162B45" stroke-width="32" stroke-linecap="round" stroke-linejoin="round"/><polyline points="335,208 353.0,192.0 371,176" fill="none" stroke="#8A5B3E" stroke-width="24" stroke-linecap="round" stroke-linejoin="round"/><polyline points="371,176 383,118" fill="none" stroke="#162B45" stroke-width="25" stroke-linecap="round" stroke-linejoin="round"/><polyline points="371,176 383,118" fill="none" stroke="#D6A17D" stroke-width="18" stroke-linecap="round" stroke-linejoin="round"/><ellipse cx="383" cy="118" rx="13" ry="15" fill="#EBC2A4" stroke="#162B45" stroke-width="5" /><path d="M378.8 112 L369.2 91.8" fill="none" stroke="#D6A17D" stroke-width="6" stroke-linecap="round" stroke-linejoin="round" /><path d="M381.6 112 L378.4 90.6" fill="none" stroke="#D6A17D" stroke-width="6" stroke-linecap="round" stroke-linejoin="round" /><path d="M384.4 112 L387.6 90.6" fill="none" stroke="#D6A17D" stroke-width="6" stroke-linecap="round" stroke-linejoin="round" /><path d="M387.2 112 L396.8 91.8" fill="none" stroke="#D6A17D" stroke-width="6" stroke-linecap="round" stroke-linejoin="round" /></g>
<g id="arm-right-farewell" data-semantic-layer="true" style="display:none"><polyline points="177,208 163.0,243.0 149,278" fill="none" stroke="#162B45" stroke-width="32" stroke-linecap="round" stroke-linejoin="round"/><polyline points="177,208 163.0,243.0 149,278" fill="none" stroke="#8A5B3E" stroke-width="24" stroke-linecap="round" stroke-linejoin="round"/><polyline points="149,278 155,328" fill="none" stroke="#162B45" stroke-width="25" stroke-linecap="round" stroke-linejoin="round"/><polyline points="149,278 155,328" fill="none" stroke="#D6A17D" stroke-width="18" stroke-linecap="round" stroke-linejoin="round"/><ellipse cx="155" cy="328" rx="13" ry="15" fill="#EBC2A4" stroke="#162B45" stroke-width="5" /><path d="M150.8 322 L141.2 301.8" fill="none" stroke="#D6A17D" stroke-width="6" stroke-linecap="round" stroke-linejoin="round" /><path d="M153.6 322 L150.4 300.6" fill="none" stroke="#D6A17D" stroke-width="6" stroke-linecap="round" stroke-linejoin="round" /><path d="M156.4 322 L159.6 300.6" fill="none" stroke="#D6A17D" stroke-width="6" stroke-linecap="round" stroke-linejoin="round" /><path d="M159.2 322 L168.8 301.8" fill="none" stroke="#D6A17D" stroke-width="6" stroke-linecap="round" stroke-linejoin="round" /></g>
<g id="arm-left-agreement" data-semantic-layer="true" style="display:none"><polyline points="335,208 345.0,225.5 355,243" fill="none" stroke="#162B45" stroke-width="32" stroke-linecap="round" stroke-linejoin="round"/><polyline points="335,208 345.0,225.5 355,243" fill="none" stroke="#8A5B3E" stroke-width="24" stroke-linecap="round" stroke-linejoin="round"/><polyline points="355,243 301,218" fill="none" stroke="#162B45" stroke-width="25" stroke-linecap="round" stroke-linejoin="round"/><polyline points="355,243 301,218" fill="none" stroke="#D6A17D" stroke-width="18" stroke-linecap="round" stroke-linejoin="round"/><ellipse cx="301" cy="218" rx="11" ry="13" fill="#EBC2A4" stroke="#162B45" stroke-width="5" /></g>
<g id="arm-right-agreement" data-semantic-layer="true" style="display:none"><polyline points="177,208 167.0,225.5 157,243" fill="none" stroke="#162B45" stroke-width="32" stroke-linecap="round" stroke-linejoin="round"/><polyline points="177,208 167.0,225.5 157,243" fill="none" stroke="#8A5B3E" stroke-width="24" stroke-linecap="round" stroke-linejoin="round"/><polyline points="157,243 211,218" fill="none" stroke="#162B45" stroke-width="25" stroke-linecap="round" stroke-linejoin="round"/><polyline points="157,243 211,218" fill="none" stroke="#D6A17D" stroke-width="18" stroke-linecap="round" stroke-linejoin="round"/><ellipse cx="211" cy="218" rx="11" ry="13" fill="#EBC2A4" stroke="#162B45" stroke-width="5" /></g>
<g id="arm-left-disagreement" data-semantic-layer="true" style="display:none"><polyline points="335,208 343.0,230.5 351,253" fill="none" stroke="#162B45" stroke-width="32" stroke-linecap="round" stroke-linejoin="round"/><polyline points="335,208 343.0,230.5 351,253" fill="none" stroke="#8A5B3E" stroke-width="24" stroke-linecap="round" stroke-linejoin="round"/><polyline points="351,253 218,281" fill="none" stroke="#162B45" stroke-width="25" stroke-linecap="round" stroke-linejoin="round"/><polyline points="351,253 218,281" fill="none" stroke="#D6A17D" stroke-width="18" stroke-linecap="round" stroke-linejoin="round"/><ellipse cx="218" cy="281" rx="11" ry="13" fill="#EBC2A4" stroke="#162B45" stroke-width="5" /></g>
<g id="arm-right-disagreement" data-semantic-layer="true" style="display:none"><polyline points="177,208 169.0,230.5 161,253" fill="none" stroke="#162B45" stroke-width="32" stroke-linecap="round" stroke-linejoin="round"/><polyline points="177,208 169.0,230.5 161,253" fill="none" stroke="#8A5B3E" stroke-width="24" stroke-linecap="round" stroke-linejoin="round"/><polyline points="161,253 294,281" fill="none" stroke="#162B45" stroke-width="25" stroke-linecap="round" stroke-linejoin="round"/><polyline points="161,253 294,281" fill="none" stroke="#D6A17D" stroke-width="18" stroke-linecap="round" stroke-linejoin="round"/><ellipse cx="294" cy="281" rx="11" ry="13" fill="#EBC2A4" stroke="#162B45" stroke-width="5" /></g>
<g id="arm-left-gratitude" data-semantic-layer="true" style="display:none"><polyline points="335,208 344.0,231.5 353,255" fill="none" stroke="#162B45" stroke-width="32" stroke-linecap="round" stroke-linejoin="round"/><polyline points="335,208 344.0,231.5 353,255" fill="none" stroke="#8A5B3E" stroke-width="24" stroke-linecap="round" stroke-linejoin="round"/><polyline points="353,255 266,270" fill="none" stroke="#162B45" stroke-width="25" stroke-linecap="round" stroke-linejoin="round"/><polyline points="353,255 266,270" fill="none" stroke="#D6A17D" stroke-width="18" stroke-linecap="round" stroke-linejoin="round"/><ellipse cx="266" cy="270" rx="11" ry="13" fill="#EBC2A4" stroke="#162B45" stroke-width="5" /></g>
<g id="arm-right-gratitude" data-semantic-layer="true" style="display:none"><polyline points="177,208 168.0,231.5 159,255" fill="none" stroke="#162B45" stroke-width="32" stroke-linecap="round" stroke-linejoin="round"/><polyline points="177,208 168.0,231.5 159,255" fill="none" stroke="#8A5B3E" stroke-width="24" stroke-linecap="round" stroke-linejoin="round"/><polyline points="159,255 246,270" fill="none" stroke="#162B45" stroke-width="25" stroke-linecap="round" stroke-linejoin="round"/><polyline points="159,255 246,270" fill="none" stroke="#D6A17D" stroke-width="18" stroke-linecap="round" stroke-linejoin="round"/><ellipse cx="246" cy="270" rx="11" ry="13" fill="#EBC2A4" stroke="#162B45" stroke-width="5" /></g>
<g id="arm-left-concern" data-semantic-layer="true" style="display:none"><polyline points="335,208 347.0,219.0 359,230" fill="none" stroke="#162B45" stroke-width="32" stroke-linecap="round" stroke-linejoin="round"/><polyline points="335,208 347.0,219.0 359,230" fill="none" stroke="#8A5B3E" stroke-width="24" stroke-linecap="round" stroke-linejoin="round"/><polyline points="359,230 294,145" fill="none" stroke="#162B45" stroke-width="25" stroke-linecap="round" stroke-linejoin="round"/><polyline points="359,230 294,145" fill="none" stroke="#D6A17D" stroke-width="18" stroke-linecap="round" stroke-linejoin="round"/><ellipse cx="294" cy="145" rx="11" ry="13" fill="#EBC2A4" stroke="#162B45" stroke-width="5" /></g>
<g id="arm-right-concern" data-semantic-layer="true" style="display:none"><polyline points="177,208 165.0,219.0 153,230" fill="none" stroke="#162B45" stroke-width="32" stroke-linecap="round" stroke-linejoin="round"/><polyline points="177,208 165.0,219.0 153,230" fill="none" stroke="#8A5B3E" stroke-width="24" stroke-linecap="round" stroke-linejoin="round"/><polyline points="153,230 218,145" fill="none" stroke="#162B45" stroke-width="25" stroke-linecap="round" stroke-linejoin="round"/><polyline points="153,230 218,145" fill="none" stroke="#D6A17D" stroke-width="18" stroke-linecap="round" stroke-linejoin="round"/><ellipse cx="218" cy="145" rx="11" ry="13" fill="#EBC2A4" stroke="#162B45" stroke-width="5" /></g>
<g id="arm-left-surprise" data-semantic-layer="true" style="display:none"><polyline points="335,208 349.0,212.0 363,216" fill="none" stroke="#162B45" stroke-width="32" stroke-linecap="round" stroke-linejoin="round"/><polyline points="335,208 349.0,212.0 363,216" fill="none" stroke="#8A5B3E" stroke-width="24" stroke-linecap="round" stroke-linejoin="round"/><polyline points="363,216 314,132" fill="none" stroke="#162B45" stroke-width="25" stroke-linecap="round" stroke-linejoin="round"/><polyline points="363,216 314,132" fill="none" stroke="#D6A17D" stroke-width="18" stroke-linecap="round" stroke-linejoin="round"/><ellipse cx="314" cy="132" rx="13" ry="15" fill="#EBC2A4" stroke="#162B45" stroke-width="5" /><path d="M309.8 126 L300.2 105.8" fill="none" stroke="#D6A17D" stroke-width="6" stroke-linecap="round" stroke-linejoin="round" /><path d="M312.6 126 L309.4 104.6" fill="none" stroke="#D6A17D" stroke-width="6" stroke-linecap="round" stroke-linejoin="round" /><path d="M315.4 126 L318.6 104.6" fill="none" stroke="#D6A17D" stroke-width="6" stroke-linecap="round" stroke-linejoin="round" /><path d="M318.2 126 L327.8 105.8" fill="none" stroke="#D6A17D" stroke-width="6" stroke-linecap="round" stroke-linejoin="round" /></g>
<g id="arm-right-surprise" data-semantic-layer="true" style="display:none"><polyline points="177,208 163.0,212.0 149,216" fill="none" stroke="#162B45" stroke-width="32" stroke-linecap="round" stroke-linejoin="round"/><polyline points="177,208 163.0,212.0 149,216" fill="none" stroke="#8A5B3E" stroke-width="24" stroke-linecap="round" stroke-linejoin="round"/><polyline points="149,216 198,132" fill="none" stroke="#162B45" stroke-width="25" stroke-linecap="round" stroke-linejoin="round"/><polyline points="149,216 198,132" fill="none" stroke="#D6A17D" stroke-width="18" stroke-linecap="round" stroke-linejoin="round"/><ellipse cx="198" cy="132" rx="13" ry="15" fill="#EBC2A4" stroke="#162B45" stroke-width="5" /><path d="M193.8 126 L184.2 105.8" fill="none" stroke="#D6A17D" stroke-width="6" stroke-linecap="round" stroke-linejoin="round" /><path d="M196.6 126 L193.4 104.6" fill="none" stroke="#D6A17D" stroke-width="6" stroke-linecap="round" stroke-linejoin="round" /><path d="M199.4 126 L202.6 104.6" fill="none" stroke="#D6A17D" stroke-width="6" stroke-linecap="round" stroke-linejoin="round" /><path d="M202.2 126 L211.8 105.8" fill="none" stroke="#D6A17D" stroke-width="6" stroke-linecap="round" stroke-linejoin="round" /></g>
<g id="arm-left-celebration" data-semantic-layer="true" style="display:none"><polyline points="335,208 352.0,187.0 369,166" fill="none" stroke="#162B45" stroke-width="32" stroke-linecap="round" stroke-linejoin="round"/><polyline points="335,208 352.0,187.0 369,166" fill="none" stroke="#8A5B3E" stroke-width="24" stroke-linecap="round" stroke-linejoin="round"/><polyline points="369,166 387,104" fill="none" stroke="#162B45" stroke-width="25" stroke-linecap="round" stroke-linejoin="round"/><polyline points="369,166 387,104" fill="none" stroke="#D6A17D" stroke-width="18" stroke-linecap="round" stroke-linejoin="round"/><ellipse cx="387" cy="104" rx="13" ry="15" fill="#EBC2A4" stroke="#162B45" stroke-width="5" /><path d="M382.8 98 L373.2 77.8" fill="none" stroke="#D6A17D" stroke-width="6" stroke-linecap="round" stroke-linejoin="round" /><path d="M385.6 98 L382.4 76.6" fill="none" stroke="#D6A17D" stroke-width="6" stroke-linecap="round" stroke-linejoin="round" /><path d="M388.4 98 L391.6 76.6" fill="none" stroke="#D6A17D" stroke-width="6" stroke-linecap="round" stroke-linejoin="round" /><path d="M391.2 98 L400.8 77.8" fill="none" stroke="#D6A17D" stroke-width="6" stroke-linecap="round" stroke-linejoin="round" /></g>
<g id="arm-right-celebration" data-semantic-layer="true" style="display:none"><polyline points="177,208 160.0,187.0 143,166" fill="none" stroke="#162B45" stroke-width="32" stroke-linecap="round" stroke-linejoin="round"/><polyline points="177,208 160.0,187.0 143,166" fill="none" stroke="#8A5B3E" stroke-width="24" stroke-linecap="round" stroke-linejoin="round"/><polyline points="143,166 125,104" fill="none" stroke="#162B45" stroke-width="25" stroke-linecap="round" stroke-linejoin="round"/><polyline points="143,166 125,104" fill="none" stroke="#D6A17D" stroke-width="18" stroke-linecap="round" stroke-linejoin="round"/><ellipse cx="125" cy="104" rx="13" ry="15" fill="#EBC2A4" stroke="#162B45" stroke-width="5" /><path d="M120.8 98 L111.2 77.8" fill="none" stroke="#D6A17D" stroke-width="6" stroke-linecap="round" stroke-linejoin="round" /><path d="M123.6 98 L120.4 76.6" fill="none" stroke="#D6A17D" stroke-width="6" stroke-linecap="round" stroke-linejoin="round" /><path d="M126.4 98 L129.6 76.6" fill="none" stroke="#D6A17D" stroke-width="6" stroke-linecap="round" stroke-linejoin="round" /><path d="M129.2 98 L138.8 77.8" fill="none" stroke="#D6A17D" stroke-width="6" stroke-linecap="round" stroke-linejoin="round" /></g>
</svg>
