<svg xmlns="http://www.w3.org/2000/svg" width="512" height="512" viewBox="0 0 512 512">
<defs><linearGradient id="softShade" x1="0" y1="0" x2="1" y2="1"><stop offset="0" stop-color="#FFFFFF" stop-opacity=".24"/><stop offset="1" stop-color="#10243A" stop-opacity=".14"/></linearGradient></defs>
<ellipse cx="256" cy="466" rx="105" ry="14" fill="#AAB2BD" stroke="none" stroke-width="0" opacity=".65"/><rect x="274" y="301" width="31" height="140" rx="11.78" fill="#C7A66B" stroke="#162B45" stroke-width="6" /><rect x="271" y="431" width="55" height="28" rx="13" fill="#24435C" stroke="#162B45" stroke-width="6" /><rect x="207" y="301" width="31" height="140" rx="11.78" fill="#C7A66B" stroke="#162B45" stroke-width="6" /><rect x="195" y="431" width="55" height="28" rx="13" fill="#24435C" stroke="#162B45" stroke-width="6" /><rect x="199" y="201" width="114" height="108" rx="30" fill="#1F9B92" stroke="#162B45" stroke-width="7" /><path d="M217 219 Q256.0 244 295 219" fill="none" stroke="#F1C34A" stroke-width="8" stroke-linecap="round" stroke-linejoin="round" /><path d="M219.52 219 Q256.0 209 292.48 219" fill="none" stroke="#F06C62" stroke-width="5" stroke-linecap="round" stroke-linejoin="round" /><path d="M229.78 205 Q256.0 245 282.22 205" fill="none" stroke="#F1C34A" stroke-width="8" stroke-linecap="round" stroke-linejoin="round" /><rect x="229.78" y="263.64" width="52.440000000000005" height="27.0" rx="14" fill="#F1C34A" stroke="#162B45" stroke-width="4" /><ellipse cx="199.6" cy="131" rx="12" ry="20" fill="#B86F45" stroke="#162B45" stroke-width="5" />
<ellipse cx="312.4" cy="131" rx="12" ry="20" fill="#B86F45" stroke="#162B45" stroke-width="5" />
<ellipse cx="256" cy="126" rx="60" ry="66" fill="#B86F45" stroke="#162B45" stroke-width="7" />
<path d="M212.8 94.32 Q241.0 74.52 293.2 91.68" fill="none" stroke="#D89164" stroke-width="5" stroke-linecap="round" stroke-linejoin="round" opacity=".45"/><ellipse cx="210" cy="68" rx="18" ry="17" fill="#352019" stroke="#162B45" stroke-width="4" /><ellipse cx="225" cy="73" rx="18" ry="17" fill="#352019" stroke="#162B45" stroke-width="4" /><ellipse cx="240" cy="68" rx="18" ry="17" fill="#352019" stroke="#162B45" stroke-width="4" /><ellipse cx="255" cy="73" rx="18" ry="17" fill="#352019" stroke="#162B45" stroke-width="4" /><ellipse cx="270" cy="68" rx="18" ry="17" fill="#352019" stroke="#162B45" stroke-width="4" /><ellipse cx="285" cy="73" rx="18" ry="17" fill="#352019" stroke="#162B45" stroke-width="4" /><ellipse cx="300" cy="68" rx="18" ry="17" fill="#352019" stroke="#162B45" stroke-width="4" /><path d="M201 87 Q256 36 314 89" fill="#352019" stroke="#162B45" stroke-width="5" stroke-linecap="round" stroke-linejoin="round" /><path d="M216.2 112 Q230.2 105 244.2 112" fill="none" stroke="#162B45" stroke-width="5" stroke-linecap="round" stroke-linejoin="round" />
<path d="M267.8 112 Q281.8 105 295.8 112" fill="none" stroke="#162B45" stroke-width="5" stroke-linecap="round" stroke-linejoin="round" />
<ellipse cx="230.2" cy="130" rx="11" ry="13" fill="#FFF8EE" stroke="#162B45" stroke-width="4" />
<ellipse cx="281.8" cy="130" rx="11" ry="13" fill="#FFF8EE" stroke="#162B45" stroke-width="4" />
<ellipse cx="231.2" cy="132" rx="4" ry="6" fill="#162B45" stroke="#162B45" stroke-width="0" />
<ellipse cx="282.8" cy="132" rx="4" ry="6" fill="#162B45" stroke="#162B45" stroke-width="0" />
<path d="M256 138 q-4 10 4 12" fill="none" stroke="#D89164" stroke-width="4" stroke-linecap="round" stroke-linejoin="round" />
<ellipse cx="221.2" cy="150" rx="10" ry="6" fill="#E58A78" stroke="none" stroke-width="0" opacity=".45"/>
<ellipse cx="290.8" cy="150" rx="10" ry="6" fill="#E58A78" stroke="none" stroke-width="0" opacity=".45"/>
<path d="M231 161 Q256 181 283 157" fill="none" stroke="#162B45" stroke-width="6" stroke-linecap="round" stroke-linejoin="round" />
<path d="M241 165 Q256 174 272 162" fill="none" stroke="#FFFFFF" stroke-width="3" stroke-linecap="round" stroke-linejoin="round" /><polyline points="305,235 319.0,270.0 333,305" fill="none" stroke="#162B45" stroke-width="32" stroke-linecap="round" stroke-linejoin="round"/><polyline points="305,235 319.0,270.0 333,305" fill="none" stroke="#1F9B92" stroke-width="24" stroke-linecap="round" stroke-linejoin="round"/><polyline points="333,305 327,355" fill="none" stroke="#162B45" stroke-width="25" stroke-linecap="round" stroke-linejoin="round"/><polyline points="333,305 327,355" fill="none" stroke="#B86F45" stroke-width="18" stroke-linecap="round" stroke-linejoin="round"/><ellipse cx="327" cy="355" rx="11" ry="13" fill="#D89164" stroke="#162B45" stroke-width="5" /><polyline points="207,235 193.0,270.0 179,305" fill="none" stroke="#162B45" stroke-width="32" stroke-linecap="round" stroke-linejoin="round"/><polyline points="207,235 193.0,270.0 179,305" fill="none" stroke="#1F9B92" stroke-width="24" stroke-linecap="round" stroke-linejoin="round"/><polyline points="179,305 185,355" fill="none" stroke="#162B45" stroke-width="25" stroke-linecap="round" stroke-linejoin="round"/><polyline points="179,305 185,355" fill="none" stroke="#B86F45" stroke-width="18" stroke-linecap="round" stroke-linejoin="round"/><ellipse cx="185" cy="355" rx="11" ry="13" fill="#D89164" stroke="#162B45" stroke-width="5" />
</svg>
