<svg xmlns="http://www.w3.org/2000/svg" width="512" height="512" viewBox="0 0 512 512">
<defs><linearGradient id="softShade" x1="0" y1="0" x2="1" y2="1"><stop offset="0" stop-color="#FFFFFF" stop-opacity=".24"/><stop offset="1" stop-color="#10243A" stop-opacity=".14"/></linearGradient></defs>
<ellipse cx="256" cy="466" rx="105" ry="14" fill="#AAB2BD" stroke="none" stroke-width="0" opacity=".65"/><rect x="236" y="302" width="34" height="155" rx="14" fill="#C7A66B" stroke="#162B45" stroke-width="6" /><rect x="230" y="437" width="61" height="27" rx="13" fill="#24435C" stroke="#162B45" stroke-width="6" /><rect x="229.0" y="201" width="58" height="108" rx="25" fill="#1F9B92" stroke="#162B45" stroke-width="7" /><path d="M240.6 221 L275.4 221" fill="none" stroke="#F1C34A" stroke-width="7" stroke-linecap="round" stroke-linejoin="round" /><path d="M258 236 Q293 296 278 351" fill="none" stroke="#B86F45" stroke-width="20" stroke-linecap="round" stroke-linejoin="round" /><ellipse cx="258" cy="126" rx="34.8" ry="66" fill="#B86F45" stroke="#162B45" stroke-width="7" /><ellipse cx="230" cy="68" rx="16" ry="16" fill="#352019" stroke="#162B45" stroke-width="4" /><ellipse cx="244" cy="72" rx="16" ry="16" fill="#352019" stroke="#162B45" stroke-width="4" /><ellipse cx="258" cy="68" rx="16" ry="16" fill="#352019" stroke="#162B45" stroke-width="4" /><ellipse cx="272" cy="72" rx="16" ry="16" fill="#352019" stroke="#162B45" stroke-width="4" /><ellipse cx="286" cy="68" rx="16" ry="16" fill="#352019" stroke="#162B45" stroke-width="4" /><ellipse cx="270.0" cy="128" rx="9" ry="12" fill="#FFF8EE" stroke="#162B45" stroke-width="4" /><ellipse cx="272.4" cy="130" rx="4" ry="6" fill="#162B45" stroke="#162B45" stroke-width="0" /><path d="M288.0 134 q12 8 0 16" fill="none" stroke="#D89164" stroke-width="5" stroke-linecap="round" stroke-linejoin="round" /><path d="M260 163 Q276 174 289 160" fill="none" stroke="#162B45" stroke-width="5" stroke-linecap="round" stroke-linejoin="round" />
</svg>
