<svg xmlns="http://www.w3.org/2000/svg" width="512" height="512" viewBox="0 0 512 512">
<defs><linearGradient id="softShade" x1="0" y1="0" x2="1" y2="1"><stop offset="0" stop-color="#FFFFFF" stop-opacity=".24"/><stop offset="1" stop-color="#10243A" stop-opacity=".14"/></linearGradient></defs>
<path d="M216.63 101 Q230.63 94 244.63 101" fill="none" stroke="#162B45" stroke-width="5" stroke-linecap="round" stroke-linejoin="round" />
<path d="M267.37 101 Q281.37 94 295.37 101" fill="none" stroke="#162B45" stroke-width="5" stroke-linecap="round" stroke-linejoin="round" />
<ellipse cx="230.63" cy="119" rx="9" ry="11" fill="#FFF8EE" stroke="#162B45" stroke-width="4" />
<ellipse cx="281.37" cy="119" rx="9" ry="11" fill="#FFF8EE" stroke="#162B45" stroke-width="4" />
<ellipse cx="231.63" cy="121" rx="4" ry="6" fill="#162B45" stroke="#162B45" stroke-width="0" />
<ellipse cx="282.37" cy="121" rx="4" ry="6" fill="#162B45" stroke="#162B45" stroke-width="0" />
<path d="M256 127 q-4 10 4 12" fill="none" stroke="#F1C49B" stroke-width="4" stroke-linecap="round" stroke-linejoin="round" />
<ellipse cx="221.78" cy="139" rx="10" ry="6" fill="#E58A78" stroke="none" stroke-width="0" opacity=".45"/>
<ellipse cx="290.22" cy="139" rx="10" ry="6" fill="#E58A78" stroke="none" stroke-width="0" opacity=".45"/>
<path d="M234 150 Q256 164 279 149" fill="none" stroke="#162B45" stroke-width="5" stroke-linecap="round" stroke-linejoin="round" />
<path d="M246 154 Q256 159 267 153" fill="none" stroke="#FFFFFF" stroke-width="3" stroke-linecap="round" stroke-linejoin="round" />
</svg>
