<svg xmlns="http://www.w3.org/2000/svg" width="512" height="512" viewBox="0 0 512 512">
<path d="M106 440 Q256 452 406 440" fill="none" stroke="#E63958" stroke-width="13" stroke-linecap="round" opacity=".18"/>
<path d="M56 400 Q122 345 184 375 M327 128 Q390 70 453 119" fill="none" stroke="#087F5B" stroke-width="14" stroke-linecap="round" opacity=".23"/><g transform="translate(78 105) scale(.58)"><path d="M0 -72 L-43 -16 H-21 L-60 34 H-29 L-72 90 H72 L29 34 H60 L21 -16 H43 Z" fill="#087F5B" stroke="#172B46" stroke-width="6" stroke-linejoin="round"/></g><g transform="translate(418 372) scale(.50)"><ellipse rx="50" ry="28" fill="#E63958"/><path d="M27 -13 Q54 -52 78 -52 L80 -9 Q64 4 44 8 M-29 17 V72 M-2 20 V72" fill="none" stroke="#E63958" stroke-width="14" stroke-linecap="round"/><circle cx="75" cy="-62" r="20" fill="#E63958"/><path d="M70 -81 l-15 -29 M83 -82 l17 -29 M60 -92 l-20 -9 M93 -94 l20 -11" stroke="#172B46" stroke-width="6" stroke-linecap="round"/></g><path d="M62 365 C82 336 108 365 86 389 C74 401 63 409 62 413 C61 409 49 401 38 389 C16 365 42 336 62 365 Z" fill="#E63958"/>
<path d="M78 111 v31 M62 126 h32 M68 116 l20 20 M88 116 l-20 20 M422 355 v31 M406 370 h32 M412 360 l20 20 M432 360 l-20 20" fill="none" stroke="#FFD166" stroke-width="6" stroke-linecap="round" opacity=".92"/><circle cx="112" cy="383" r="7" fill="#E63958"/><circle cx="403" cy="105" r="6" fill="#087F5B"/><polygon points="91,340 94,348 102,351 94,354 91,362 88,354 80,351 88,348" fill="#FFD166" stroke="#172B46" stroke-width="5" stroke-linejoin="round"/>
<rect x="58" y="344" width="68" height="58" rx="9" fill="#E63958" stroke="#172B46" stroke-width="6" stroke-linejoin="round"/><path d="M92 344 V402 M58 371 H126" stroke="#FFD166" stroke-width="9"/><path d="M403 97 q19 -31 38 0 q-19 26 -38 0 Z" fill="#087F5B" stroke="#172B46" stroke-width="6" stroke-linejoin="round"/>
<g transform="translate(256 145) scale(0.8)"><path d="M0 -116 L-58 -48 H-28 L-91 22 H-48 L-112 91 H112 L48 22 H91 L28 -48 H58 Z" fill="#087F5B" stroke="#172B46" stroke-width="8" stroke-linejoin="round"/><rect x="-14" y="88" width="28" height="38" rx="5" fill="#FFD166" stroke="#172B46" stroke-width="8" stroke-linejoin="round"/><polygon points="0.0,-146.0 6.5,-129.9 23.8,-128.7 10.5,-117.6 14.7,-100.8 0.0,-110.0 -14.7,-100.8 -10.5,-117.6 -23.8,-128.7 -6.5,-129.9" fill="#FFD166" stroke="#172B46" stroke-width="8" stroke-linejoin="round"/><circle cx="-43" cy="18" r="11" fill="#E63958"/><circle cx="39" cy="48" r="10" fill="#FFD166"/><rect x="-103" y="74" width="57" height="47" rx="8" fill="#E63958" stroke="#172B46" stroke-width="8" stroke-linejoin="round"/><path d="M-75 74 V121 M-103 92 H-46" fill="none" stroke="#F7FCFF" stroke-width="8"/></g>
</svg>
