<svg xmlns="http://www.w3.org/2000/svg" width="512" height="512" viewBox="0 0 512 512">
<path d="M106 440 Q256 453 406 440" fill="none" stroke="#0BAA83" stroke-width="13" stroke-linecap="round" opacity=".18"/>
<path d="M56 400 Q122 345 184 375 M327 128 Q390 70 453 119" fill="none" stroke="#D93256" stroke-width="14" stroke-linecap="round" opacity=".23"/><g transform="translate(80 106) rotate(-12)"><path d="M0 0 C-9 -37 15 -60 42 -64 C33 -34 22 -12 0 0 Z M0 0 C28 -27 60 -15 68 14 C35 15 14 12 0 0 Z M0 0 C9 37 -18 58 -45 56 C-33 27 -19 8 0 0 Z" fill="#D93256" stroke="#172B46" stroke-width="6" stroke-linejoin="round"/><circle cx="8" cy="0" r="12" fill="#0BAA83"/><circle cx="29" cy="-8" r="10" fill="#0BAA83"/></g><g transform="translate(420 371)"><path d="M0 -56 L18 -17 L60 -20 L30 10 L46 50 L7 27 L-27 52 L-18 12 L-55 -12 L-13 -16 Z" fill="#0BAA83" stroke="#172B46" stroke-width="6" stroke-linejoin="round"/><circle r="10" fill="#FFE2A8"/></g><circle cx="64" cy="373" r="10" fill="#0BAA83"/><circle cx="87" cy="391" r="8" fill="#0BAA83"/>
<path d="M78 111 v31 M62 126 h32 M68 116 l20 20 M88 116 l-20 20 M422 355 v31 M406 370 h32 M412 360 l20 20 M432 360 l-20 20" fill="none" stroke="#FFE2A8" stroke-width="6" stroke-linecap="round" opacity=".92"/><circle cx="112" cy="383" r="7" fill="#0BAA83"/><circle cx="403" cy="105" r="6" fill="#D93256"/><polygon points="91,340 94,348 102,351 94,354 91,362 88,354 80,351 88,348" fill="#FFE2A8" stroke="#172B46" stroke-width="5" stroke-linejoin="round"/>
<path d="M67 360 q32 -47 72 -16 q-29 9 -35 46 q-20 -20 -37 -30 Z" fill="#D93256" stroke="#172B46" stroke-width="6" stroke-linejoin="round"/><circle cx="120" cy="376" r="11" fill="#0BAA83" stroke="#172B46" stroke-width="6" stroke-linejoin="round"/><circle cx="139" cy="365" r="10" fill="#0BAA83" stroke="#172B46" stroke-width="6" stroke-linejoin="round"/><polygon points="420,95 424,110 439,114 424,118 420,133 416,118 401,114 416,110" fill="#FFE2A8" stroke="#172B46" stroke-width="5" stroke-linejoin="round"/>
<g transform="translate(112 267) scale(0.82)"><circle cx="0" cy="0" r="77" fill="none" stroke="#D93256" stroke-width="35"/><circle cx="-48" cy="-45" r="9" fill="#0BAA83"/><circle cx="52" cy="-36" r="9" fill="#FFE2A8"/><circle cx="-58" cy="38" r="8" fill="#FFE2A8"/><circle cx="45" cy="49" r="8" fill="#0BAA83"/><path d="M0 58 C-29 23 -73 58 -38 91 Q-18 103 0 76 C29 23 73 58 38 91 Q18 103 0 76 Z" fill="#0BAA83" stroke="#172B46" stroke-width="8" stroke-linejoin="round"/><path d="M-10 79 L-38 126 L0 109 L37 128 L11 79" fill="#0BAA83" stroke="#172B46" stroke-width="8" stroke-linejoin="round"/></g>
</svg>
