<svg xmlns="http://www.w3.org/2000/svg" width="512" height="512" viewBox="0 0 512 512">
<path d="M106 440 Q256 454 406 440" fill="none" stroke="#EF476F" stroke-width="13" stroke-linecap="round" opacity=".18"/>
<path d="M56 400 Q122 345 184 375 M327 128 Q390 70 453 119" fill="none" stroke="#0A7C66" stroke-width="14" stroke-linecap="round" opacity=".23"/><g transform="translate(79 104) rotate(28)"><path d="M0 56 V-26 Q0 -68 39 -68 Q70 -68 70 -39" fill="none" stroke="#F7FCFF" stroke-width="27" stroke-linecap="round"/><path d="M-13 29 H13 M-13 -8 H13 M4 -47 L27 -36 M38 -66 L54 -48" stroke="#EF476F" stroke-width="11"/></g><g transform="translate(423 371)"><circle r="50" fill="#F7FCFF" stroke="#172B46" stroke-width="6" stroke-linejoin="round"/><path d="M-41 0 Q0 -44 41 0 Q0 44 -41 0 Z" fill="#EF476F"/><circle r="11" fill="#F5C451"/></g><polygon points="74.0,354.0 79.9,369.9 96.8,370.6 83.5,381.1 88.1,397.4 74.0,388.0 59.9,397.4 64.5,381.1 51.2,370.6 68.1,369.9" fill="#F5C451" stroke="#172B46" stroke-width="6" stroke-linejoin="round"/>
<path d="M78 111 v31 M62 126 h32 M68 116 l20 20 M88 116 l-20 20 M422 355 v31 M406 370 h32 M412 360 l20 20 M432 360 l-20 20" fill="none" stroke="#F5C451" stroke-width="6" stroke-linecap="round" opacity=".92"/><circle cx="112" cy="383" r="7" fill="#EF476F"/><circle cx="403" cy="105" r="6" fill="#0A7C66"/><polygon points="91,340 94,348 102,351 94,354 91,362 88,354 80,351 88,348" fill="#F5C451" stroke="#172B46" stroke-width="5" stroke-linejoin="round"/>
<polygon points="91.0,88.0 98.1,106.3 117.6,107.3 102.4,119.7 107.5,138.7 91.0,128.0 74.5,138.7 79.6,119.7 64.4,107.3 83.9,106.3" fill="#F5C451" stroke="#172B46" stroke-width="6" stroke-linejoin="round"/><path d="M390 365 l52 0 M416 339 v52 M398 347 l36 36 M434 347 l-36 36" stroke="#0A7C66" stroke-width="7" stroke-linecap="round"/>
<g transform="translate(256 385) scale(0.88)"><path d="M-70 -116 V-74 M0 -126 V-84 M70 -112 V-66" fill="none" stroke="#172B46" stroke-width="8" stroke-linejoin="round" stroke-linecap="round"/><circle cx="-70" cy="-23" r="54" fill="#EF476F" stroke="#172B46" stroke-width="8" stroke-linejoin="round"/><circle cx="0" cy="-28" r="62" fill="#F5C451" stroke="#172B46" stroke-width="8" stroke-linejoin="round"/><circle cx="70" cy="-14" r="49" fill="#0A7C66" stroke="#172B46" stroke-width="8" stroke-linejoin="round"/><path d="M-97 -25 Q-70 -50 -42 -25 M-28 -18 Q0 12 29 -18 M48 -17 Q70 -38 92 -17" fill="none" stroke="#F7FCFF" stroke-width="10" stroke-linecap="round"/></g>
</svg>
