<svg xmlns="http://www.w3.org/2000/svg" width="512" height="512" viewBox="0 0 512 512">
<path d="M106 440 Q256 455 406 440" fill="none" stroke="#E24444" stroke-width="13" stroke-linecap="round" opacity=".18"/>
<path d="M56 400 Q122 345 184 375 M327 128 Q390 70 453 119" fill="none" stroke="#1A6D54" stroke-width="14" stroke-linecap="round" opacity=".23"/><path d="M77 43 V80 M423 42 V80" stroke="#172B46" stroke-width="7"/><circle cx="77" cy="116" r="38" fill="#E24444" stroke="#172B46" stroke-width="6" stroke-linejoin="round"/><circle cx="423" cy="117" r="39" fill="#1A6D54" stroke="#172B46" stroke-width="6" stroke-linejoin="round"/><path d="M47 116 Q77 87 107 116 M393 117 Q423 146 453 117" fill="none" stroke="#FFF1C9" stroke-width="8"/><g transform="translate(420 376)"><rect x="-47" y="-40" width="94" height="80" rx="10" fill="#E24444" stroke="#172B46" stroke-width="6" stroke-linejoin="round"/><path d="M0 -40 V40 M-47 0 H47" stroke="#F7FCFF" stroke-width="9"/></g>
<path d="M78 111 v31 M62 126 h32 M68 116 l20 20 M88 116 l-20 20 M422 355 v31 M406 370 h32 M412 360 l20 20 M432 360 l-20 20" fill="none" stroke="#FFF1C9" stroke-width="6" stroke-linecap="round" opacity=".92"/><circle cx="112" cy="383" r="7" fill="#E24444"/><circle cx="403" cy="105" r="6" fill="#1A6D54"/><polygon points="91,340 94,348 102,351 94,354 91,362 88,354 80,351 88,348" fill="#FFF1C9" stroke="#172B46" stroke-width="5" stroke-linejoin="round"/>
<path d="M59 339 H121 V405 Q90 431 59 405 Z" fill="#E24444" stroke="#172B46" stroke-width="6" stroke-linejoin="round"/><rect x="50" y="331" width="80" height="24" rx="12" fill="#F7FCFF" stroke="#172B46" stroke-width="6" stroke-linejoin="round"/><path d="M388 103 q24 -23 48 0" fill="none" stroke="#FFF1C9" stroke-width="11" stroke-linecap="round"/><polygon points="432,122 435,133 446,136 435,139 432,150 429,139 418,136 429,133" fill="#FFF1C9" stroke="#172B46" stroke-width="5" stroke-linejoin="round"/>
<g transform="translate(394 136) scale(0.7)"><path d="M-98 39 Q-39 -88 47 -103 Q38 -27 95 31 Z" fill="#E24444" stroke="#172B46" stroke-width="8" stroke-linejoin="round"/><rect x="-108" y="25" width="211" height="53" rx="27" fill="#F7FCFF" stroke="#172B46" stroke-width="8" stroke-linejoin="round"/><circle cx="54" cy="-91" r="33" fill="#F7FCFF" stroke="#172B46" stroke-width="8" stroke-linejoin="round"/></g>
</svg>
