<svg xmlns="http://www.w3.org/2000/svg" width="512" height="512" viewBox="0 0 512 512">
<path d="M106 440 Q256 452 406 440" fill="none" stroke="#D92F4F" stroke-width="13" stroke-linecap="round" opacity=".18"/>
<path d="M56 400 Q122 345 184 375 M327 128 Q390 70 453 119" fill="none" stroke="#0B8F72" stroke-width="14" stroke-linecap="round" opacity=".23"/><g transform="translate(80 122)"><path d="M-44 -37 H27 V33 Q26 57 -8 58 Q-42 57 -44 33 Z" fill="#D92F4F" stroke="#172B46" stroke-width="6" stroke-linejoin="round"/><path d="M27 -23 Q67 -25 60 13 Q54 37 29 30" fill="none" stroke="#172B46" stroke-width="8"/><path d="M-24 -54 q-13 -19 1 -35 M8 -53 q-10 -20 3 -34" fill="none" stroke="#FFCB5C" stroke-width="7" stroke-linecap="round"/></g><g transform="translate(420 372)"><path d="M-37 -58 V15 Q-35 52 0 51 Q37 51 39 18 L14 3 V-58 Z" fill="#0B8F72" stroke="#172B46" stroke-width="6" stroke-linejoin="round"/><path d="M-37 -26 H15" stroke="#FFCB5C" stroke-width="10"/></g>
<path d="M78 111 v31 M62 126 h32 M68 116 l20 20 M88 116 l-20 20 M422 355 v31 M406 370 h32 M412 360 l20 20 M432 360 l-20 20" fill="none" stroke="#FFCB5C" stroke-width="6" stroke-linecap="round" opacity=".92"/><circle cx="112" cy="383" r="7" fill="#D92F4F"/><circle cx="403" cy="105" r="6" fill="#0B8F72"/><polygon points="91,340 94,348 102,351 94,354 91,362 88,354 80,351 88,348" fill="#FFCB5C" stroke="#172B46" stroke-width="5" stroke-linejoin="round"/>
<polygon points="91.0,88.0 98.1,106.3 117.6,107.3 102.4,119.7 107.5,138.7 91.0,128.0 74.5,138.7 79.6,119.7 64.4,107.3 83.9,106.3" fill="#FFCB5C" stroke="#172B46" stroke-width="6" stroke-linejoin="round"/><path d="M390 365 l52 0 M416 339 v52 M398 347 l36 36 M434 347 l-36 36" stroke="#0B8F72" stroke-width="7" stroke-linecap="round"/>
<g transform="translate(256 142) scale(0.62)"><g transform="rotate(-20)"><path d="M-96 36 Q-88 -64 -30 -69 Q29 -63 35 36 Z" fill="#FFCB5C" stroke="#172B46" stroke-width="8" stroke-linejoin="round"/><path d="M-103 38 H42" fill="none" stroke="#172B46" stroke-width="8" stroke-linejoin="round" stroke-linecap="round"/><circle cx="-30" cy="45" r="14" fill="#D92F4F"/></g><g transform="translate(66 2) rotate(18)"><path d="M-58 31 Q-51 -52 0 -58 Q51 -52 58 31 Z" fill="#D92F4F" stroke="#172B46" stroke-width="8" stroke-linejoin="round"/><path d="M-64 33 H64" fill="none" stroke="#172B46" stroke-width="8" stroke-linejoin="round" stroke-linecap="round"/><circle cx="0" cy="40" r="13" fill="#FFCB5C"/></g></g>
<path d="M126 250 H60 M386 250 H452 M148 168 L103 123 M364 168 L409 123 M148 334 L105 377 M364 334 L407 377" fill="none" stroke="#FFCB5C" stroke-width="9" stroke-linecap="round" opacity=".65"/>
</svg>
