<svg xmlns="http://www.w3.org/2000/svg" width="512" height="512" viewBox="0 0 512 512">
<path d="M106 440 Q256 453 406 440" fill="none" stroke="#69C9F5" stroke-width="13" stroke-linecap="round" opacity=".18"/>
<path d="M56 400 Q122 345 184 375 M327 128 Q390 70 453 119" fill="none" stroke="#2E5FA7" stroke-width="14" stroke-linecap="round" opacity=".23"/><g transform="translate(78 105) scale(.58)"><path d="M0 -72 L-43 -16 H-21 L-60 34 H-29 L-72 90 H72 L29 34 H60 L21 -16 H43 Z" fill="#2E5FA7" stroke="#172B46" stroke-width="6" stroke-linejoin="round"/></g><g transform="translate(418 372) scale(.50)"><ellipse rx="50" ry="28" fill="#69C9F5"/><path d="M27 -13 Q54 -52 78 -52 L80 -9 Q64 4 44 8 M-29 17 V72 M-2 20 V72" fill="none" stroke="#69C9F5" stroke-width="14" stroke-linecap="round"/><circle cx="75" cy="-62" r="20" fill="#69C9F5"/><path d="M70 -81 l-15 -29 M83 -82 l17 -29 M60 -92 l-20 -9 M93 -94 l20 -11" stroke="#172B46" stroke-width="6" stroke-linecap="round"/></g><path d="M62 365 C82 336 108 365 86 389 C74 401 63 409 62 413 C61 409 49 401 38 389 C16 365 42 336 62 365 Z" fill="#69C9F5"/>
<path d="M78 111 v31 M62 126 h32 M68 116 l20 20 M88 116 l-20 20 M422 355 v31 M406 370 h32 M412 360 l20 20 M432 360 l-20 20" fill="none" stroke="#F9FDFF" stroke-width="6" stroke-linecap="round" opacity=".92"/><circle cx="112" cy="383" r="7" fill="#69C9F5"/><circle cx="403" cy="105" r="6" fill="#2E5FA7"/><polygon points="91,340 94,348 102,351 94,354 91,362 88,354 80,351 88,348" fill="#F9FDFF" stroke="#172B46" stroke-width="5" stroke-linejoin="round"/>
<polygon points="91.0,88.0 98.1,106.3 117.6,107.3 102.4,119.7 107.5,138.7 91.0,128.0 74.5,138.7 79.6,119.7 64.4,107.3 83.9,106.3" fill="#F9FDFF" stroke="#172B46" stroke-width="6" stroke-linejoin="round"/><path d="M390 365 l52 0 M416 339 v52 M398 347 l36 36 M434 347 l-36 36" stroke="#2E5FA7" stroke-width="7" stroke-linecap="round"/>
<g transform="translate(400 386) scale(0.7)"><circle cx="0" cy="-18" r="82" fill="#CDEFFF" stroke="#172B46" stroke-width="8" stroke-linejoin="round"/><path d="M-72 30 Q0 -6 72 30" fill="#F7FCFF" stroke="none"/><path d="M0 -62 L-33 -15 H-13 L-48 29 H48 L13 -15 H33 Z" fill="#2E5FA7" stroke="#172B46" stroke-width="8" stroke-linejoin="round"/><circle cx="-46" cy="-46" r="6" fill="#F7FCFF"/><circle cx="47" cy="-24" r="7" fill="#F7FCFF"/><path d="M-77 68 H77 L98 111 H-98 Z" fill="#69C9F5" stroke="#172B46" stroke-width="8" stroke-linejoin="round"/></g>
</svg>
