<svg xmlns="http://www.w3.org/2000/svg" width="512" height="512" viewBox="0 0 512 512">
<path d="M106 440 Q256 454 406 440" fill="none" stroke="#E84D62" stroke-width="13" stroke-linecap="round" opacity=".18"/>
<path d="M56 400 Q122 345 184 375 M327 128 Q390 70 453 119" fill="none" stroke="#0E765D" stroke-width="14" stroke-linecap="round" opacity=".23"/><g transform="translate(80 106) rotate(-12)"><path d="M0 0 C-9 -37 15 -60 42 -64 C33 -34 22 -12 0 0 Z M0 0 C28 -27 60 -15 68 14 C35 15 14 12 0 0 Z M0 0 C9 37 -18 58 -45 56 C-33 27 -19 8 0 0 Z" fill="#0E765D" stroke="#172B46" stroke-width="6" stroke-linejoin="round"/><circle cx="8" cy="0" r="12" fill="#E84D62"/><circle cx="29" cy="-8" r="10" fill="#E84D62"/></g><g transform="translate(420 371)"><path d="M0 -56 L18 -17 L60 -20 L30 10 L46 50 L7 27 L-27 52 L-18 12 L-55 -12 L-13 -16 Z" fill="#E84D62" stroke="#172B46" stroke-width="6" stroke-linejoin="round"/><circle r="10" fill="#FFC857"/></g><circle cx="64" cy="373" r="10" fill="#E84D62"/><circle cx="87" cy="391" r="8" fill="#E84D62"/>
<path d="M78 111 v31 M62 126 h32 M68 116 l20 20 M88 116 l-20 20 M422 355 v31 M406 370 h32 M412 360 l20 20 M432 360 l-20 20" fill="none" stroke="#FFC857" stroke-width="6" stroke-linecap="round" opacity=".92"/><circle cx="112" cy="383" r="7" fill="#E84D62"/><circle cx="403" cy="105" r="6" fill="#0E765D"/><polygon points="91,340 94,348 102,351 94,354 91,362 88,354 80,351 88,348" fill="#FFC857" stroke="#172B46" stroke-width="5" stroke-linejoin="round"/>
<path d="M59 339 H121 V405 Q90 431 59 405 Z" fill="#E84D62" stroke="#172B46" stroke-width="6" stroke-linejoin="round"/><rect x="50" y="331" width="80" height="24" rx="12" fill="#F7FCFF" stroke="#172B46" stroke-width="6" stroke-linejoin="round"/><path d="M388 103 q24 -23 48 0" fill="none" stroke="#FFC857" stroke-width="11" stroke-linecap="round"/><polygon points="432,122 435,133 446,136 435,139 432,150 429,139 418,136 429,133" fill="#FFC857" stroke="#172B46" stroke-width="5" stroke-linejoin="round"/>
<g transform="translate(112 267) scale(0.82)"><path d="M-104 36 H58 Q100 33 103 -6 Q119 70 49 82 H-77 Z" fill="#E84D62" stroke="#172B46" stroke-width="8" stroke-linejoin="round"/><path d="M-92 81 Q-38 119 80 83" fill="none" stroke="#172B46" stroke-width="8" stroke-linejoin="round" stroke-linecap="round"/><rect x="-73" y="-37" width="65" height="72" rx="9" fill="#FFC857" stroke="#172B46" stroke-width="8" stroke-linejoin="round"/><rect x="-7" y="-57" width="63" height="92" rx="9" fill="#0E765D" stroke="#172B46" stroke-width="8" stroke-linejoin="round"/><path d="M-41 -37 V35 M-73 -8 H-8 M24 -57 V35 M-7 -24 H56" fill="none" stroke="#F7FCFF" stroke-width="8"/></g>
</svg>
