<svg xmlns="http://www.w3.org/2000/svg" width="512" height="512" viewBox="0 0 512 512">
<path d="M106 440 Q256 455 406 440" fill="none" stroke="#D93C55" stroke-width="13" stroke-linecap="round" opacity=".18"/>
<path d="M56 400 Q122 345 184 375 M327 128 Q390 70 453 119" fill="none" stroke="#236B54" stroke-width="14" stroke-linecap="round" opacity=".23"/><g transform="translate(79 104) rotate(28)"><path d="M0 56 V-26 Q0 -68 39 -68 Q70 -68 70 -39" fill="none" stroke="#F7FCFF" stroke-width="27" stroke-linecap="round"/><path d="M-13 29 H13 M-13 -8 H13 M4 -47 L27 -36 M38 -66 L54 -48" stroke="#D93C55" stroke-width="11"/></g><g transform="translate(423 371)"><circle r="50" fill="#F7FCFF" stroke="#172B46" stroke-width="6" stroke-linejoin="round"/><path d="M-41 0 Q0 -44 41 0 Q0 44 -41 0 Z" fill="#D93C55"/><circle r="11" fill="#FFF0D5"/></g><polygon points="74.0,354.0 79.9,369.9 96.8,370.6 83.5,381.1 88.1,397.4 74.0,388.0 59.9,397.4 64.5,381.1 51.2,370.6 68.1,369.9" fill="#FFF0D5" stroke="#172B46" stroke-width="6" stroke-linejoin="round"/>
<path d="M78 111 v31 M62 126 h32 M68 116 l20 20 M88 116 l-20 20 M422 355 v31 M406 370 h32 M412 360 l20 20 M432 360 l-20 20" fill="none" stroke="#FFF0D5" stroke-width="6" stroke-linecap="round" opacity=".92"/><circle cx="112" cy="383" r="7" fill="#D93C55"/><circle cx="403" cy="105" r="6" fill="#236B54"/><polygon points="91,340 94,348 102,351 94,354 91,362 88,354 80,351 88,348" fill="#FFF0D5" stroke="#172B46" stroke-width="5" stroke-linejoin="round"/>
<path d="M59 339 H121 V405 Q90 431 59 405 Z" fill="#D93C55" stroke="#172B46" stroke-width="6" stroke-linejoin="round"/><rect x="50" y="331" width="80" height="24" rx="12" fill="#F7FCFF" stroke="#172B46" stroke-width="6" stroke-linejoin="round"/><path d="M388 103 q24 -23 48 0" fill="none" stroke="#FFF0D5" stroke-width="11" stroke-linecap="round"/><polygon points="432,122 435,133 446,136 435,139 432,150 429,139 418,136 429,133" fill="#FFF0D5" stroke="#172B46" stroke-width="5" stroke-linejoin="round"/>
<g transform="translate(256 385) scale(0.88)"><rect x="-85" y="-5" width="170" height="111" rx="8" fill="#D93C55" stroke="#172B46" stroke-width="8" stroke-linejoin="round"/><path d="M-85 30 H85 M-28 -5 V106 M35 30 V106" fill="none" stroke="#FFF0D5" stroke-width="8"/><circle cx="0" cy="-49" r="45" fill="#8B4A35" stroke="#172B46" stroke-width="8" stroke-linejoin="round"/><path d="M-42 -57 Q-4 -116 52 -88 L35 -41 Z" fill="#D93C55" stroke="#172B46" stroke-width="8" stroke-linejoin="round"/><circle cx="48" cy="-88" r="18" fill="#F7FCFF" stroke="#172B46" stroke-width="8" stroke-linejoin="round"/><path d="M-31 -31 Q0 7 31 -31" fill="#F7FCFF" stroke="#172B46" stroke-width="8" stroke-linejoin="round"/></g>
</svg>
