<svg xmlns="http://www.w3.org/2000/svg" width="512" height="512" viewBox="0 0 512 512">
<path d="M106 440 Q256 452 406 440" fill="none" stroke="#E55050" stroke-width="13" stroke-linecap="round" opacity=".18"/>
<path d="M56 400 Q122 345 184 375 M327 128 Q390 70 453 119" fill="none" stroke="#0B7A62" stroke-width="14" stroke-linecap="round" opacity=".23"/><path d="M77 43 V80 M423 42 V80" stroke="#172B46" stroke-width="7"/><circle cx="77" cy="116" r="38" fill="#E55050" stroke="#172B46" stroke-width="6" stroke-linejoin="round"/><circle cx="423" cy="117" r="39" fill="#0B7A62" stroke="#172B46" stroke-width="6" stroke-linejoin="round"/><path d="M47 116 Q77 87 107 116 M393 117 Q423 146 453 117" fill="none" stroke="#F7C94B" stroke-width="8"/><g transform="translate(420 376)"><rect x="-47" y="-40" width="94" height="80" rx="10" fill="#E55050" stroke="#172B46" stroke-width="6" stroke-linejoin="round"/><path d="M0 -40 V40 M-47 0 H47" stroke="#F7FCFF" stroke-width="9"/></g>
<path d="M78 111 v31 M62 126 h32 M68 116 l20 20 M88 116 l-20 20 M422 355 v31 M406 370 h32 M412 360 l20 20 M432 360 l-20 20" fill="none" stroke="#F7C94B" stroke-width="6" stroke-linecap="round" opacity=".92"/><circle cx="112" cy="383" r="7" fill="#E55050"/><circle cx="403" cy="105" r="6" fill="#0B7A62"/><polygon points="91,340 94,348 102,351 94,354 91,362 88,354 80,351 88,348" fill="#F7C94B" stroke="#172B46" stroke-width="5" stroke-linejoin="round"/>
<rect x="58" y="344" width="68" height="58" rx="9" fill="#E55050" stroke="#172B46" stroke-width="6" stroke-linejoin="round"/><path d="M92 344 V402 M58 371 H126" stroke="#F7C94B" stroke-width="9"/><path d="M403 97 q19 -31 38 0 q-19 26 -38 0 Z" fill="#0B7A62" stroke="#172B46" stroke-width="6" stroke-linejoin="round"/>
<g transform="translate(394 136) scale(0.7)"><path d="M-77 -100 Q-102 -88 -86 -61 V89 Q-99 112 -66 118 H66 Q99 112 86 89 V-61 Q102 -88 77 -100 Z" fill="#F7FCFF" stroke="#172B46" stroke-width="8" stroke-linejoin="round"/><path d="M-52 -49 H53 M-52 -8 H53 M-52 33 H34" fill="none" stroke="#0B7A62" stroke-width="9" stroke-linecap="round"/><path d="M-48 69 L-27 91 L17 54" fill="none" stroke="#E55050" stroke-width="14" stroke-linecap="round" stroke-linejoin="round"/></g>
</svg>
