<svg xmlns="http://www.w3.org/2000/svg" width="512" height="512" viewBox="0 0 512 512">
<path d="M106 440 Q256 453 406 440" fill="none" stroke="#BE354D" stroke-width="13" stroke-linecap="round" opacity=".18"/>
<path d="M56 400 Q122 345 184 375 M327 128 Q390 70 453 119" fill="none" stroke="#176B57" stroke-width="14" stroke-linecap="round" opacity=".23"/><g transform="translate(80 122)"><path d="M-44 -37 H27 V33 Q26 57 -8 58 Q-42 57 -44 33 Z" fill="#BE354D" stroke="#172B46" stroke-width="6" stroke-linejoin="round"/><path d="M27 -23 Q67 -25 60 13 Q54 37 29 30" fill="none" stroke="#172B46" stroke-width="8"/><path d="M-24 -54 q-13 -19 1 -35 M8 -53 q-10 -20 3 -34" fill="none" stroke="#FFE1A3" stroke-width="7" stroke-linecap="round"/></g><g transform="translate(420 372)"><path d="M-37 -58 V15 Q-35 52 0 51 Q37 51 39 18 L14 3 V-58 Z" fill="#176B57" stroke="#172B46" stroke-width="6" stroke-linejoin="round"/><path d="M-37 -26 H15" stroke="#FFE1A3" stroke-width="10"/></g>
<path d="M78 111 v31 M62 126 h32 M68 116 l20 20 M88 116 l-20 20 M422 355 v31 M406 370 h32 M412 360 l20 20 M432 360 l-20 20" fill="none" stroke="#FFE1A3" stroke-width="6" stroke-linecap="round" opacity=".92"/><circle cx="112" cy="383" r="7" fill="#BE354D"/><circle cx="403" cy="105" r="6" fill="#176B57"/><polygon points="91,340 94,348 102,351 94,354 91,362 88,354 80,351 88,348" fill="#FFE1A3" stroke="#172B46" stroke-width="5" stroke-linejoin="round"/>
<circle cx="91" cy="378" r="35" fill="#FFE1A3" stroke="#172B46" stroke-width="6" stroke-linejoin="round"/><circle cx="80" cy="365" r="5" fill="#BE354D"/><circle cx="105" cy="384" r="5" fill="#176B57"/><path d="M399 92 q28 29 0 58 q-28 -29 0 -58 Z" fill="#BE354D" stroke="#172B46" stroke-width="6" stroke-linejoin="round"/><path d="M390 104 l19 10 M390 127 l18 9" stroke="#F7FCFF" stroke-width="6"/>
<g transform="translate(400 386) scale(0.7)"><path d="M-86 -40 H61 V72 Q58 104 0 107 Q-61 104 -65 72 Z" fill="#BE354D" stroke="#172B46" stroke-width="8" stroke-linejoin="round"/><path d="M61 -17 Q118 -21 108 38 Q98 77 62 64" fill="none" stroke="#172B46" stroke-width="8" stroke-linejoin="round" stroke-linecap="round"/><ellipse cx="-12" cy="-39" rx="73" ry="24" fill="#6E3B2E" stroke="#172B46" stroke-width="8" stroke-linejoin="round"/><circle cx="-45" cy="-51" r="17" fill="#F7FCFF"/><circle cx="-7" cy="-49" r="18" fill="#F7FCFF"/><circle cx="32" cy="-48" r="16" fill="#F7FCFF"/><path d="M-50 -83 Q-66 -111 -47 -129 M2 -82 Q-12 -109 5 -130 M48 -78 Q35 -102 51 -121" fill="none" stroke="#FFE1A3" stroke-width="8" stroke-linecap="round"/></g>
</svg>
