<svg xmlns="http://www.w3.org/2000/svg" width="512" height="512" viewBox="0 0 512 512">
<path d="M106 440 Q256 454 406 440" fill="none" stroke="#E84A5F" stroke-width="13" stroke-linecap="round" opacity=".18"/>
<path d="M56 400 Q122 345 184 375 M327 128 Q390 70 453 119" fill="none" stroke="#16836B" stroke-width="14" stroke-linecap="round" opacity=".23"/><g transform="translate(78 105) scale(.58)"><path d="M0 -72 L-43 -16 H-21 L-60 34 H-29 L-72 90 H72 L29 34 H60 L21 -16 H43 Z" fill="#16836B" stroke="#172B46" stroke-width="6" stroke-linejoin="round"/></g><g transform="translate(418 372) scale(.50)"><ellipse rx="50" ry="28" fill="#E84A5F"/><path d="M27 -13 Q54 -52 78 -52 L80 -9 Q64 4 44 8 M-29 17 V72 M-2 20 V72" fill="none" stroke="#E84A5F" stroke-width="14" stroke-linecap="round"/><circle cx="75" cy="-62" r="20" fill="#E84A5F"/><path d="M70 -81 l-15 -29 M83 -82 l17 -29 M60 -92 l-20 -9 M93 -94 l20 -11" stroke="#172B46" stroke-width="6" stroke-linecap="round"/></g><path d="M62 365 C82 336 108 365 86 389 C74 401 63 409 62 413 C61 409 49 401 38 389 C16 365 42 336 62 365 Z" fill="#E84A5F"/>
<path d="M78 111 v31 M62 126 h32 M68 116 l20 20 M88 116 l-20 20 M422 355 v31 M406 370 h32 M412 360 l20 20 M432 360 l-20 20" fill="none" stroke="#FFD56A" stroke-width="6" stroke-linecap="round" opacity=".92"/><circle cx="112" cy="383" r="7" fill="#E84A5F"/><circle cx="403" cy="105" r="6" fill="#16836B"/><polygon points="91,340 94,348 102,351 94,354 91,362 88,354 80,351 88,348" fill="#FFD56A" stroke="#172B46" stroke-width="5" stroke-linejoin="round"/>
<path d="M67 360 q32 -47 72 -16 q-29 9 -35 46 q-20 -20 -37 -30 Z" fill="#16836B" stroke="#172B46" stroke-width="6" stroke-linejoin="round"/><circle cx="120" cy="376" r="11" fill="#E84A5F" stroke="#172B46" stroke-width="6" stroke-linejoin="round"/><circle cx="139" cy="365" r="10" fill="#E84A5F" stroke="#172B46" stroke-width="6" stroke-linejoin="round"/><polygon points="420,95 424,110 439,114 424,118 420,133 416,118 401,114 416,110" fill="#FFD56A" stroke="#172B46" stroke-width="5" stroke-linejoin="round"/>
<g transform="translate(256 145) scale(0.8)"><g transform="rotate(-16 -38 0)"><path d="M-90 -28 Q-95 -74 -58 -80 Q-22 -83 -11 -48 L9 -2 Q17 51 -28 70 Q-73 84 -83 36 Z" fill="#E84A5F" stroke="#172B46" stroke-width="8" stroke-linejoin="round"/><rect x="-82" y="46" width="67" height="39" rx="14" fill="#FFD56A" stroke="#172B46" stroke-width="8" stroke-linejoin="round"/></g><g transform="rotate(16 38 0)"><path d="M90 -28 Q95 -74 58 -80 Q22 -83 11 -48 L-9 -2 Q-17 51 28 70 Q73 84 83 36 Z" fill="#16836B" stroke="#172B46" stroke-width="8" stroke-linejoin="round"/><rect x="15" y="46" width="67" height="39" rx="14" fill="#FFD56A" stroke="#172B46" stroke-width="8" stroke-linejoin="round"/></g><path d="M0 112 C-54 78 -41 38 -8 47 Q0 50 0 64 Q0 50 9 47 C42 38 54 78 0 112 Z" fill="#E84A5F"/></g>
</svg>
