<svg xmlns="http://www.w3.org/2000/svg" width="512" height="512" viewBox="0 0 512 512">
<path d="M106 440 Q256 455 406 440" fill="none" stroke="#DC3652" stroke-width="13" stroke-linecap="round" opacity=".18"/>
<path d="M56 400 Q122 345 184 375 M327 128 Q390 70 453 119" fill="none" stroke="#087C65" stroke-width="14" stroke-linecap="round" opacity=".23"/><g transform="translate(80 106) rotate(-12)"><path d="M0 0 C-9 -37 15 -60 42 -64 C33 -34 22 -12 0 0 Z M0 0 C28 -27 60 -15 68 14 C35 15 14 12 0 0 Z M0 0 C9 37 -18 58 -45 56 C-33 27 -19 8 0 0 Z" fill="#087C65" stroke="#172B46" stroke-width="6" stroke-linejoin="round"/><circle cx="8" cy="0" r="12" fill="#DC3652"/><circle cx="29" cy="-8" r="10" fill="#DC3652"/></g><g transform="translate(420 371)"><path d="M0 -56 L18 -17 L60 -20 L30 10 L46 50 L7 27 L-27 52 L-18 12 L-55 -12 L-13 -16 Z" fill="#DC3652" stroke="#172B46" stroke-width="6" stroke-linejoin="round"/><circle r="10" fill="#FFF3C8"/></g><circle cx="64" cy="373" r="10" fill="#DC3652"/><circle cx="87" cy="391" r="8" fill="#DC3652"/>
<path d="M78 111 v31 M62 126 h32 M68 116 l20 20 M88 116 l-20 20 M422 355 v31 M406 370 h32 M412 360 l20 20 M432 360 l-20 20" fill="none" stroke="#FFF3C8" stroke-width="6" stroke-linecap="round" opacity=".92"/><circle cx="112" cy="383" r="7" fill="#DC3652"/><circle cx="403" cy="105" r="6" fill="#087C65"/><polygon points="91,340 94,348 102,351 94,354 91,362 88,354 80,351 88,348" fill="#FFF3C8" stroke="#172B46" stroke-width="5" stroke-linejoin="round"/>
<circle cx="91" cy="378" r="35" fill="#FFF3C8" stroke="#172B46" stroke-width="6" stroke-linejoin="round"/><circle cx="80" cy="365" r="5" fill="#DC3652"/><circle cx="105" cy="384" r="5" fill="#087C65"/><path d="M399 92 q28 29 0 58 q-28 -29 0 -58 Z" fill="#DC3652" stroke="#172B46" stroke-width="6" stroke-linejoin="round"/><path d="M390 104 l19 10 M390 127 l18 9" stroke="#F7FCFF" stroke-width="6"/>
<g transform="translate(256 142) scale(0.62)"><path d="M-83 90 L-28 -71 Q-12 -118 -52 -126 Q-89 -132 -103 -96" fill="none" stroke="#F7FCFF" stroke-width="34" stroke-linecap="round"/><path d="M83 90 L28 -71 Q12 -118 52 -126 Q89 -132 103 -96" fill="none" stroke="#F7FCFF" stroke-width="34" stroke-linecap="round"/><path d="M-74 63 l-26 -9 M-57 14 l-26 -9 M-40 -35 l-25 -9 M74 63 l26 -9 M57 14 l26 -9 M40 -35 l25 -9" stroke="#DC3652" stroke-width="15"/><path d="M-61 24 Q0 91 61 24" fill="none" stroke="#087C65" stroke-width="16" stroke-linecap="round"/></g>
<path d="M126 250 H60 M386 250 H452 M148 168 L103 123 M364 168 L409 123 M148 334 L105 377 M364 334 L407 377" fill="none" stroke="#FFF3C8" stroke-width="9" stroke-linecap="round" opacity=".65"/>
</svg>
