<svg xmlns="http://www.w3.org/2000/svg" width="512" height="512" viewBox="0 0 512 512">
<path d="M106 440 Q256 452 406 440" fill="none" stroke="#2F80ED" stroke-width="13" stroke-linecap="round" opacity=".18"/>
<path d="M56 400 Q122 345 184 375 M327 128 Q390 70 453 119" fill="none" stroke="#7057D9" stroke-width="14" stroke-linecap="round" opacity=".23"/><g transform="translate(79 104) rotate(28)"><path d="M0 56 V-26 Q0 -68 39 -68 Q70 -68 70 -39" fill="none" stroke="#F7FCFF" stroke-width="27" stroke-linecap="round"/><path d="M-13 29 H13 M-13 -8 H13 M4 -47 L27 -36 M38 -66 L54 -48" stroke="#2F80ED" stroke-width="11"/></g><g transform="translate(423 371)"><circle r="50" fill="#F7FCFF" stroke="#172B46" stroke-width="6" stroke-linejoin="round"/><path d="M-41 0 Q0 -44 41 0 Q0 44 -41 0 Z" fill="#2F80ED"/><circle r="11" fill="#FFD166"/></g><polygon points="74.0,354.0 79.9,369.9 96.8,370.6 83.5,381.1 88.1,397.4 74.0,388.0 59.9,397.4 64.5,381.1 51.2,370.6 68.1,369.9" fill="#FFD166" stroke="#172B46" stroke-width="6" stroke-linejoin="round"/>
<path d="M78 111 v31 M62 126 h32 M68 116 l20 20 M88 116 l-20 20 M422 355 v31 M406 370 h32 M412 360 l20 20 M432 360 l-20 20" fill="none" stroke="#FFD166" stroke-width="6" stroke-linecap="round" opacity=".92"/><circle cx="112" cy="383" r="7" fill="#2F80ED"/><circle cx="403" cy="105" r="6" fill="#7057D9"/><polygon points="91,340 94,348 102,351 94,354 91,362 88,354 80,351 88,348" fill="#FFD166" stroke="#172B46" stroke-width="5" stroke-linejoin="round"/>
<polygon points="91.0,88.0 98.1,106.3 117.6,107.3 102.4,119.7 107.5,138.7 91.0,128.0 74.5,138.7 79.6,119.7 64.4,107.3 83.9,106.3" fill="#FFD166" stroke="#172B46" stroke-width="6" stroke-linejoin="round"/><path d="M390 365 l52 0 M416 339 v52 M398 347 l36 36 M434 347 l-36 36" stroke="#7057D9" stroke-width="7" stroke-linecap="round"/>
<g transform="translate(256 385) scale(0.88)"><circle cx="0" cy="12" r="82" fill="#61C6E8" stroke="#172B46" stroke-width="8" stroke-linejoin="round"/><path d="M-70 -22 Q-34 -45 -7 -18 Q6 3 35 -10 Q72 -20 78 17 Q49 25 41 52 Q11 46 -5 69 Q-40 66 -51 38 Q-77 22 -70 -22 Z" fill="#7057D9"/><polygon points="0.0,-135.0 8.8,-112.1 33.3,-110.8 14.3,-95.4 20.6,-71.7 0.0,-85.0 -20.6,-71.7 -14.3,-95.4 -33.3,-110.8 -8.8,-112.1" fill="#FFD166" stroke="#172B46" stroke-width="8" stroke-linejoin="round"/></g>
</svg>
