<svg xmlns="http://www.w3.org/2000/svg" width="512" height="512" viewBox="0 0 512 512">
<path d="M106 440 Q256 453 406 440" fill="none" stroke="#5965D8" stroke-width="13" stroke-linecap="round" opacity=".18"/>
<path d="M56 400 Q122 345 184 375 M327 128 Q390 70 453 119" fill="none" stroke="#9B51E0" stroke-width="14" stroke-linecap="round" opacity=".23"/><path d="M77 43 V80 M423 42 V80" stroke="#172B46" stroke-width="7"/><circle cx="77" cy="116" r="38" fill="#5965D8" stroke="#172B46" stroke-width="6" stroke-linejoin="round"/><circle cx="423" cy="117" r="39" fill="#9B51E0" stroke="#172B46" stroke-width="6" stroke-linejoin="round"/><path d="M47 116 Q77 87 107 116 M393 117 Q423 146 453 117" fill="none" stroke="#72E1F2" stroke-width="8"/><g transform="translate(420 376)"><rect x="-47" y="-40" width="94" height="80" rx="10" fill="#5965D8" stroke="#172B46" stroke-width="6" stroke-linejoin="round"/><path d="M0 -40 V40 M-47 0 H47" stroke="#F7FCFF" stroke-width="9"/></g>
<path d="M78 111 v31 M62 126 h32 M68 116 l20 20 M88 116 l-20 20 M422 355 v31 M406 370 h32 M412 360 l20 20 M432 360 l-20 20" fill="none" stroke="#72E1F2" stroke-width="6" stroke-linecap="round" opacity=".92"/><circle cx="112" cy="383" r="7" fill="#5965D8"/><circle cx="403" cy="105" r="6" fill="#9B51E0"/><polygon points="91,340 94,348 102,351 94,354 91,362 88,354 80,351 88,348" fill="#72E1F2" stroke="#172B46" stroke-width="5" stroke-linejoin="round"/>
<polygon points="91.0,88.0 98.1,106.3 117.6,107.3 102.4,119.7 107.5,138.7 91.0,128.0 74.5,138.7 79.6,119.7 64.4,107.3 83.9,106.3" fill="#72E1F2" stroke="#172B46" stroke-width="6" stroke-linejoin="round"/><path d="M390 365 l52 0 M416 339 v52 M398 347 l36 36 M434 347 l-36 36" stroke="#9B51E0" stroke-width="7" stroke-linecap="round"/>
<g transform="translate(112 267) scale(0.82)"><path d="M-100 21 Q-49 -79 13 -39 Q43 -95 92 -87 Q55 -43 77 2 Q44 68 -25 55 Q-58 89 -100 74 Q-69 49 -100 21 Z" fill="#F7FCFF" stroke="#172B46" stroke-width="8" stroke-linejoin="round"/><circle cx="49" cy="-46" r="6" fill="#172B46"/><path d="M72 -31 L111 -18 L75 -3 Z" fill="#72E1F2" stroke="#172B46" stroke-width="8" stroke-linejoin="round"/><path d="M-29 62 Q20 99 82 69 M14 84 l-9 27 M42 82 l8 26 M65 72 l17 22" fill="none" stroke="#9B51E0" stroke-width="10" stroke-linecap="round"/></g>
</svg>
