<svg xmlns="http://www.w3.org/2000/svg" width="512" height="512" viewBox="0 0 512 512">
<path d="M106 440 Q256 454 406 440" fill="none" stroke="#6C5CE7" stroke-width="13" stroke-linecap="round" opacity=".18"/>
<path d="M56 400 Q122 345 184 375 M327 128 Q390 70 453 119" fill="none" stroke="#244C9A" stroke-width="14" stroke-linecap="round" opacity=".23"/><g transform="translate(80 122)"><path d="M-44 -37 H27 V33 Q26 57 -8 58 Q-42 57 -44 33 Z" fill="#6C5CE7" stroke="#172B46" stroke-width="6" stroke-linejoin="round"/><path d="M27 -23 Q67 -25 60 13 Q54 37 29 30" fill="none" stroke="#172B46" stroke-width="8"/><path d="M-24 -54 q-13 -19 1 -35 M8 -53 q-10 -20 3 -34" fill="none" stroke="#FFD76A" stroke-width="7" stroke-linecap="round"/></g><g transform="translate(420 372)"><path d="M-37 -58 V15 Q-35 52 0 51 Q37 51 39 18 L14 3 V-58 Z" fill="#244C9A" stroke="#172B46" stroke-width="6" stroke-linejoin="round"/><path d="M-37 -26 H15" stroke="#FFD76A" stroke-width="10"/></g>
<path d="M78 111 v31 M62 126 h32 M68 116 l20 20 M88 116 l-20 20 M422 355 v31 M406 370 h32 M412 360 l20 20 M432 360 l-20 20" fill="none" stroke="#FFD76A" stroke-width="6" stroke-linecap="round" opacity=".92"/><circle cx="112" cy="383" r="7" fill="#6C5CE7"/><circle cx="403" cy="105" r="6" fill="#244C9A"/><polygon points="91,340 94,348 102,351 94,354 91,362 88,354 80,351 88,348" fill="#FFD76A" stroke="#172B46" stroke-width="5" stroke-linejoin="round"/>
<rect x="58" y="344" width="68" height="58" rx="9" fill="#6C5CE7" stroke="#172B46" stroke-width="6" stroke-linejoin="round"/><path d="M92 344 V402 M58 371 H126" stroke="#FFD76A" stroke-width="9"/><path d="M403 97 q19 -31 38 0 q-19 26 -38 0 Z" fill="#244C9A" stroke="#172B46" stroke-width="6" stroke-linejoin="round"/>
<g transform="translate(256 145) scale(0.8)"><rect x="-94" y="-43" width="188" height="143" rx="14" fill="#6C5CE7" stroke="#172B46" stroke-width="8" stroke-linejoin="round"/><rect x="-108" y="-73" width="216" height="47" rx="13" fill="#FFD76A" stroke="#172B46" stroke-width="8" stroke-linejoin="round"/><path d="M0 -73 V100 M-94 18 H94" fill="none" stroke="#244C9A" stroke-width="19"/><path d="M0 -72 Q-75 -84 -71 -122 Q-65 -153 -22 -124 Q-4 -111 0 -72 Q75 -84 71 -122 Q65 -153 22 -124 Q4 -111 0 -72 Z" fill="#244C9A" stroke="#172B46" stroke-width="8" stroke-linejoin="round"/></g>
</svg>
