<svg xmlns="http://www.w3.org/2000/svg" width="512" height="512" viewBox="0 0 512 512">
<path d="M106 440 Q256 455 406 440" fill="none" stroke="#3D7AE6" stroke-width="13" stroke-linecap="round" opacity=".18"/>
<path d="M56 400 Q122 345 184 375 M327 128 Q390 70 453 119" fill="none" stroke="#814DD6" stroke-width="14" stroke-linecap="round" opacity=".23"/><g transform="translate(78 105) scale(.58)"><path d="M0 -72 L-43 -16 H-21 L-60 34 H-29 L-72 90 H72 L29 34 H60 L21 -16 H43 Z" fill="#814DD6" stroke="#172B46" stroke-width="6" stroke-linejoin="round"/></g><g transform="translate(418 372) scale(.50)"><ellipse rx="50" ry="28" fill="#3D7AE6"/><path d="M27 -13 Q54 -52 78 -52 L80 -9 Q64 4 44 8 M-29 17 V72 M-2 20 V72" fill="none" stroke="#3D7AE6" stroke-width="14" stroke-linecap="round"/><circle cx="75" cy="-62" r="20" fill="#3D7AE6"/><path d="M70 -81 l-15 -29 M83 -82 l17 -29 M60 -92 l-20 -9 M93 -94 l20 -11" stroke="#172B46" stroke-width="6" stroke-linecap="round"/></g><path d="M62 365 C82 336 108 365 86 389 C74 401 63 409 62 413 C61 409 49 401 38 389 C16 365 42 336 62 365 Z" fill="#3D7AE6"/>
<path d="M78 111 v31 M62 126 h32 M68 116 l20 20 M88 116 l-20 20 M422 355 v31 M406 370 h32 M412 360 l20 20 M432 360 l-20 20" fill="none" stroke="#F8E16C" stroke-width="6" stroke-linecap="round" opacity=".92"/><circle cx="112" cy="383" r="7" fill="#3D7AE6"/><circle cx="403" cy="105" r="6" fill="#814DD6"/><polygon points="91,340 94,348 102,351 94,354 91,362 88,354 80,351 88,348" fill="#F8E16C" stroke="#172B46" stroke-width="5" stroke-linejoin="round"/>
<path d="M67 360 q32 -47 72 -16 q-29 9 -35 46 q-20 -20 -37 -30 Z" fill="#814DD6" stroke="#172B46" stroke-width="6" stroke-linejoin="round"/><circle cx="120" cy="376" r="11" fill="#3D7AE6" stroke="#172B46" stroke-width="6" stroke-linejoin="round"/><circle cx="139" cy="365" r="10" fill="#3D7AE6" stroke="#172B46" stroke-width="6" stroke-linejoin="round"/><polygon points="420,95 424,110 439,114 424,118 420,133 416,118 401,114 416,110" fill="#F8E16C" stroke="#172B46" stroke-width="5" stroke-linejoin="round"/>
<g transform="translate(256 142) scale(0.62)"><path d="M-112 -24 Q0 104 112 -24" fill="none" stroke="#814DD6" stroke-width="15" stroke-linecap="round"/><circle cx="-91" cy="10" r="13" fill="#3D7AE6" stroke="#172B46" stroke-width="8" stroke-linejoin="round"/><circle cx="-49" cy="36" r="13" fill="#F8E16C" stroke="#172B46" stroke-width="8" stroke-linejoin="round"/><circle cx="0" cy="44" r="13" fill="#3D7AE6" stroke="#172B46" stroke-width="8" stroke-linejoin="round"/><circle cx="49" cy="36" r="13" fill="#F8E16C" stroke="#172B46" stroke-width="8" stroke-linejoin="round"/><circle cx="91" cy="10" r="13" fill="#3D7AE6" stroke="#172B46" stroke-width="8" stroke-linejoin="round"/><path d="M-77 -17 l-22 -45 M-29 21 l-8 -52 M29 21 l8 -52 M77 -17 l22 -45" stroke="#172B46" stroke-width="7"/></g>
<path d="M126 250 H60 M386 250 H452 M148 168 L103 123 M364 168 L409 123 M148 334 L105 377 M364 334 L407 377" fill="none" stroke="#F8E16C" stroke-width="9" stroke-linecap="round" opacity=".65"/>
</svg>
