<svg xmlns="http://www.w3.org/2000/svg" width="512" height="512" viewBox="0 0 512 512">
<path d="M106 440 Q256 452 406 440" fill="none" stroke="#8D5CF6" stroke-width="13" stroke-linecap="round" opacity=".18"/>
<path d="M56 400 Q122 345 184 375 M327 128 Q390 70 453 119" fill="none" stroke="#254E9B" stroke-width="14" stroke-linecap="round" opacity=".23"/><g transform="translate(80 106) rotate(-12)"><path d="M0 0 C-9 -37 15 -60 42 -64 C33 -34 22 -12 0 0 Z M0 0 C28 -27 60 -15 68 14 C35 15 14 12 0 0 Z M0 0 C9 37 -18 58 -45 56 C-33 27 -19 8 0 0 Z" fill="#254E9B" stroke="#172B46" stroke-width="6" stroke-linejoin="round"/><circle cx="8" cy="0" r="12" fill="#8D5CF6"/><circle cx="29" cy="-8" r="10" fill="#8D5CF6"/></g><g transform="translate(420 371)"><path d="M0 -56 L18 -17 L60 -20 L30 10 L46 50 L7 27 L-27 52 L-18 12 L-55 -12 L-13 -16 Z" fill="#8D5CF6" stroke="#172B46" stroke-width="6" stroke-linejoin="round"/><circle r="10" fill="#6FE7E7"/></g><circle cx="64" cy="373" r="10" fill="#8D5CF6"/><circle cx="87" cy="391" r="8" fill="#8D5CF6"/>
<path d="M78 111 v31 M62 126 h32 M68 116 l20 20 M88 116 l-20 20 M422 355 v31 M406 370 h32 M412 360 l20 20 M432 360 l-20 20" fill="none" stroke="#6FE7E7" stroke-width="6" stroke-linecap="round" opacity=".92"/><circle cx="112" cy="383" r="7" fill="#8D5CF6"/><circle cx="403" cy="105" r="6" fill="#254E9B"/><polygon points="91,340 94,348 102,351 94,354 91,362 88,354 80,351 88,348" fill="#6FE7E7" stroke="#172B46" stroke-width="5" stroke-linejoin="round"/>
<polygon points="91.0,88.0 98.1,106.3 117.6,107.3 102.4,119.7 107.5,138.7 91.0,128.0 74.5,138.7 79.6,119.7 64.4,107.3 83.9,106.3" fill="#6FE7E7" stroke="#172B46" stroke-width="6" stroke-linejoin="round"/><path d="M390 365 l52 0 M416 339 v52 M398 347 l36 36 M434 347 l-36 36" stroke="#254E9B" stroke-width="7" stroke-linecap="round"/>
<g transform="translate(394 136) scale(0.7)"><polygon points="0.0,-93.0 23.5,-32.4 88.4,-28.7 38.0,12.4 54.7,75.2 0.0,40.0 -54.7,75.2 -38.0,12.4 -88.4,-28.7 -23.5,-32.4" fill="#6FE7E7" stroke="#172B46" stroke-width="8" stroke-linejoin="round"/><path d="M-106 77 Q-34 44 -16 2 M26 -21 Q76 -57 111 -39" fill="none" stroke="#8D5CF6" stroke-width="13" stroke-linecap="round"/><polygon points="-82,-91 -78,-77 -64,-73 -78,-69 -82,-55 -86,-69 -100,-73 -86,-77" fill="#F7FCFF" stroke="#172B46" stroke-width="5" stroke-linejoin="round"/><polygon points="83,57 86,69 98,72 86,75 83,87 80,75 68,72 80,69" fill="#254E9B" stroke="#172B46" stroke-width="5" stroke-linejoin="round"/></g>
</svg>
