<svg xmlns="http://www.w3.org/2000/svg" width="512" height="512" viewBox="0 0 512 512">
<path d="M106 440 Q256 453 406 440" fill="none" stroke="#2F76DC" stroke-width="13" stroke-linecap="round" opacity=".18"/>
<path d="M56 400 Q122 345 184 375 M327 128 Q390 70 453 119" fill="none" stroke="#7149C6" stroke-width="14" stroke-linecap="round" opacity=".23"/><g transform="translate(79 104) rotate(28)"><path d="M0 56 V-26 Q0 -68 39 -68 Q70 -68 70 -39" fill="none" stroke="#F7FCFF" stroke-width="27" stroke-linecap="round"/><path d="M-13 29 H13 M-13 -8 H13 M4 -47 L27 -36 M38 -66 L54 -48" stroke="#2F76DC" stroke-width="11"/></g><g transform="translate(423 371)"><circle r="50" fill="#F7FCFF" stroke="#172B46" stroke-width="6" stroke-linejoin="round"/><path d="M-41 0 Q0 -44 41 0 Q0 44 -41 0 Z" fill="#2F76DC"/><circle r="11" fill="#FFE08A"/></g><polygon points="74.0,354.0 79.9,369.9 96.8,370.6 83.5,381.1 88.1,397.4 74.0,388.0 59.9,397.4 64.5,381.1 51.2,370.6 68.1,369.9" fill="#FFE08A" stroke="#172B46" stroke-width="6" stroke-linejoin="round"/>
<path d="M78 111 v31 M62 126 h32 M68 116 l20 20 M88 116 l-20 20 M422 355 v31 M406 370 h32 M412 360 l20 20 M432 360 l-20 20" fill="none" stroke="#FFE08A" stroke-width="6" stroke-linecap="round" opacity=".92"/><circle cx="112" cy="383" r="7" fill="#2F76DC"/><circle cx="403" cy="105" r="6" fill="#7149C6"/><polygon points="91,340 94,348 102,351 94,354 91,362 88,354 80,351 88,348" fill="#FFE08A" stroke="#172B46" stroke-width="5" stroke-linejoin="round"/>
<circle cx="91" cy="378" r="35" fill="#FFE08A" stroke="#172B46" stroke-width="6" stroke-linejoin="round"/><circle cx="80" cy="365" r="5" fill="#2F76DC"/><circle cx="105" cy="384" r="5" fill="#7149C6"/><path d="M399 92 q28 29 0 58 q-28 -29 0 -58 Z" fill="#2F76DC" stroke="#172B46" stroke-width="6" stroke-linejoin="round"/><path d="M390 104 l19 10 M390 127 l18 9" stroke="#F7FCFF" stroke-width="6"/>
<g transform="translate(400 386) scale(0.7)"><g transform="rotate(-12 -42 0)"><path d="M-88 -79 H-14 L-25 17 Q-29 55 -52 55 Q-75 55 -79 17 Z" fill="#2F76DC" stroke="#172B46" stroke-width="8" stroke-linejoin="round"/><path d="M-52 55 V94 M-86 98 H-19" fill="none" stroke="#172B46" stroke-width="8" stroke-linejoin="round" stroke-linecap="round"/></g><g transform="rotate(12 42 0)"><path d="M14 -79 H88 L79 17 Q75 55 52 55 Q29 55 25 17 Z" fill="#FFE08A" stroke="#172B46" stroke-width="8" stroke-linejoin="round"/><path d="M52 55 V94 M19 98 H86" fill="none" stroke="#172B46" stroke-width="8" stroke-linejoin="round" stroke-linecap="round"/></g><circle cx="0" cy="-103" r="8" fill="#7149C6"/><circle cx="27" cy="-123" r="6" fill="#2F76DC"/></g>
</svg>
