<svg xmlns="http://www.w3.org/2000/svg" width="512" height="512" viewBox="0 0 512 512">
<path d="M112 440 Q256 456 400 440" fill="none" stroke="#087F5B" stroke-width="12" stroke-linecap="round" opacity=".20"/>
<path d="M60 392 Q118 340 174 367 M338 132 Q397 78 452 119" fill="none" stroke="#087F5B" stroke-width="14" stroke-linecap="round" opacity=".26"/><path d="M62 245 l25 -20 M88 266 l34 -6 M424 238 l-21 -26 M449 264 l-35 4" stroke="#FFD166" stroke-width="9" stroke-linecap="round"/><g transform="translate(84 106) scale(.54)"><circle r="73" fill="#F7FCFF" stroke="#172B46" stroke-width="6" stroke-linejoin="round"/><path d="M0 0 V-56 M0 0 L32 -32" stroke="#E63958" stroke-width="12" stroke-linecap="round"/></g><g transform="translate(424 367) rotate(10)"><path d="M-29 -58 H29 L22 13 Q17 42 0 44 Q-17 42 -22 13 Z" fill="#FFD166" stroke="#172B46" stroke-width="6" stroke-linejoin="round"/><path d="M0 44 V74 M-31 78 H31" stroke="#172B46" stroke-width="7" stroke-linecap="round"/></g><circle cx="391" cy="302" r="8" fill="#E63958"/><circle cx="451" cy="292" r="7" fill="#FFD166"/>
<path d="M72 144 l21 -33 M91 149 l34 -10 M420 342 l-28 25 M426 364 l-10 35" fill="none" stroke="#FFD166" stroke-width="9" stroke-linecap="round"/><polygon points="92,365 95,376 106,379 95,382 92,393 89,382 78,379 89,376" fill="#E63958" stroke="#172B46" stroke-width="5" stroke-linejoin="round"/><polygon points="419,115 422,124 431,127 422,130 419,139 416,130 407,127 416,124" fill="#FFD166" stroke="#172B46" stroke-width="5" stroke-linejoin="round"/><circle cx="119" cy="91" r="7" fill="#087F5B"/><circle cx="397" cy="414" r="6" fill="#E63958"/>
<g transform="translate(426 116)"><circle r="8" fill="#FFD166"/><path d="M0 -18 V-45 M0 18 V45 M-18 0 H-45 M18 0 H45 M-14 -14 L-34 -34 M14 14 L34 34 M14 -14 L34 -34 M-14 14 L-34 34" stroke="#E63958" stroke-width="7" stroke-linecap="round"/></g><polygon points="86.0,360.0 92.5,376.1 109.8,377.3 96.5,388.4 100.7,405.2 86.0,396.0 71.3,405.2 75.5,388.4 62.2,377.3 79.5,376.1" fill="#FFD166" stroke="#172B46" stroke-width="6" stroke-linejoin="round"/>
<g transform="translate(256 142) scale(0.62)"><path d="M0 -58 L0 -105" transform="rotate(0)" stroke="#E63958" stroke-width="10" stroke-linecap="round"/><path d="M0 -68 L0 -113" transform="rotate(30)" stroke="#FFD166" stroke-width="10" stroke-linecap="round"/><path d="M0 -58 L0 -121" transform="rotate(60)" stroke="#087F5B" stroke-width="10" stroke-linecap="round"/><path d="M0 -68 L0 -105" transform="rotate(90)" stroke="#E63958" stroke-width="10" stroke-linecap="round"/><path d="M0 -58 L0 -113" transform="rotate(120)" stroke="#FFD166" stroke-width="10" stroke-linecap="round"/><path d="M0 -68 L0 -121" transform="rotate(150)" stroke="#087F5B" stroke-width="10" stroke-linecap="round"/><path d="M0 -58 L0 -105" transform="rotate(180)" stroke="#E63958" stroke-width="10" stroke-linecap="round"/><path d="M0 -68 L0 -113" transform="rotate(210)" stroke="#FFD166" stroke-width="10" stroke-linecap="round"/><path d="M0 -58 L0 -121" transform="rotate(240)" stroke="#087F5B" stroke-width="10" stroke-linecap="round"/><path d="M0 -68 L0 -105" transform="rotate(270)" stroke="#E63958" stroke-width="10" stroke-linecap="round"/><path d="M0 -58 L0 -113" transform="rotate(300)" stroke="#FFD166" stroke-width="10" stroke-linecap="round"/><path d="M0 -68 L0 -121" transform="rotate(330)" stroke="#087F5B" stroke-width="10" stroke-linecap="round"/><circle cx="0" cy="0" r="18" fill="#FFD166"/><path d="M-120 109 V49 H-79 V72 H-43 V20 H-5 V81 H34 V42 H70 V66 H112 V109 Z" fill="#172B46"/></g>
<path d="M126 250 H60 M386 250 H452 M148 168 L103 123 M364 168 L409 123 M148 334 L105 377 M364 334 L407 377" fill="none" stroke="#FFD166" stroke-width="9" stroke-linecap="round" opacity=".65"/>
</svg>
