<svg xmlns="http://www.w3.org/2000/svg" width="512" height="512" viewBox="0 0 512 512">
<path d="M112 440 Q256 457 400 440" fill="none" stroke="#D93256" stroke-width="12" stroke-linecap="round" opacity=".20"/>
<path d="M60 392 Q118 340 174 367 M338 132 Q397 78 452 119" fill="none" stroke="#D93256" stroke-width="14" stroke-linecap="round" opacity=".26"/><path d="M62 245 l25 -20 M88 266 l34 -6 M424 238 l-21 -26 M449 264 l-35 4" stroke="#FFE2A8" stroke-width="9" stroke-linecap="round"/><g transform="translate(84 105)"><rect x="-48" y="-43" width="96" height="89" rx="12" fill="#F7FCFF" stroke="#172B46" stroke-width="6" stroke-linejoin="round"/><path d="M-48 -14 H48" stroke="#0BAA83" stroke-width="13"/><path d="M-24 -57 V-27 M24 -57 V-27" stroke="#172B46" stroke-width="8" stroke-linecap="round"/></g><path d="M382 364 Q414 320 449 349 Q468 382 430 409 Q394 420 382 388 Z" fill="#D93256" stroke="#172B46" stroke-width="6" stroke-linejoin="round"/><polygon points="426.0,341.0 432.5,357.1 449.8,358.3 436.5,369.4 440.7,386.2 426.0,377.0 411.3,386.2 415.5,369.4 402.2,358.3 419.5,357.1" fill="#FFE2A8"/>
<path d="M72 144 l21 -33 M91 149 l34 -10 M420 342 l-28 25 M426 364 l-10 35" fill="none" stroke="#FFE2A8" stroke-width="9" stroke-linecap="round"/><polygon points="92,365 95,376 106,379 95,382 92,393 89,382 78,379 89,376" fill="#0BAA83" stroke="#172B46" stroke-width="5" stroke-linejoin="round"/><polygon points="419,115 422,124 431,127 422,130 419,139 416,130 407,127 416,124" fill="#FFE2A8" stroke="#172B46" stroke-width="5" stroke-linejoin="round"/><circle cx="119" cy="91" r="7" fill="#D93256"/><circle cx="397" cy="414" r="6" fill="#0BAA83"/>
<polygon points="92.0,90.0 99.1,108.3 118.6,109.3 103.4,121.7 108.5,140.7 92.0,130.0 75.5,140.7 80.6,121.7 65.4,109.3 84.9,108.3" fill="#FFE2A8" stroke="#172B46" stroke-width="6" stroke-linejoin="round"/><path d="M69 393 Q117 350 153 365" fill="none" stroke="#0BAA83" stroke-width="12" stroke-linecap="round"/><polygon points="425,353 429,367 443,371 429,375 425,389 421,375 407,371 421,367" fill="#D93256" stroke="#172B46" stroke-width="5" stroke-linejoin="round"/>
<g transform="translate(256 385) scale(0.88)"><path d="M0 -31 L0 -82" transform="rotate(-75)" stroke="#FFE2A8" stroke-width="10" stroke-linecap="round"/><path d="M0 -31 L0 -95" transform="rotate(-50)" stroke="#FFE2A8" stroke-width="10" stroke-linecap="round"/><path d="M0 -31 L0 -82" transform="rotate(-25)" stroke="#FFE2A8" stroke-width="10" stroke-linecap="round"/><path d="M0 -31 L0 -95" transform="rotate(0)" stroke="#FFE2A8" stroke-width="10" stroke-linecap="round"/><path d="M0 -31 L0 -82" transform="rotate(25)" stroke="#FFE2A8" stroke-width="10" stroke-linecap="round"/><path d="M0 -31 L0 -95" transform="rotate(50)" stroke="#FFE2A8" stroke-width="10" stroke-linecap="round"/><path d="M0 -31 L0 -82" transform="rotate(75)" stroke="#FFE2A8" stroke-width="10" stroke-linecap="round"/><path d="M-103 98 Q-88 -30 0 -31 Q88 -30 103 98 Z" fill="#FFE2A8" stroke="#172B46" stroke-width="8" stroke-linejoin="round"/><rect x="-67" y="-9" width="134" height="118" rx="10" fill="#D93256" stroke="#172B46" stroke-width="8" stroke-linejoin="round"/><path d="M0 -9 V109 L67 87 V10 Z" fill="#0BAA83" stroke="#172B46" stroke-width="8" stroke-linejoin="round"/><circle cx="43" cy="50" r="8" fill="#FFE2A8"/></g>
</svg>
