<svg xmlns="http://www.w3.org/2000/svg" width="512" height="512" viewBox="0 0 512 512">
<path d="M112 440 Q256 456 400 440" fill="none" stroke="#1A6D54" stroke-width="12" stroke-linecap="round" opacity=".20"/>
<path d="M60 392 Q118 340 174 367 M338 132 Q397 78 452 119" fill="none" stroke="#1A6D54" stroke-width="14" stroke-linecap="round" opacity=".26"/><path d="M62 245 l25 -20 M88 266 l34 -6 M424 238 l-21 -26 M449 264 l-35 4" stroke="#FFF1C9" stroke-width="9" stroke-linecap="round"/><path d="M50 73 L102 44 L120 121 Z" fill="#E24444" stroke="#172B46" stroke-width="6" stroke-linejoin="round"/><circle cx="102" cy="44" r="12" fill="#FFF1C9"/><path d="M392 392 q25 -45 56 -5 M398 359 q20 -25 42 2" fill="none" stroke="#E24444" stroke-width="9" stroke-linecap="round"/><rect x="418" y="72" width="12" height="43" rx="6" fill="#FFF1C9" transform="rotate(28 424 94)"/><rect x="67" y="354" width="12" height="40" rx="6" fill="#1A6D54" transform="rotate(-31 73 374)"/>
<path d="M72 144 l21 -33 M91 149 l34 -10 M420 342 l-28 25 M426 364 l-10 35" fill="none" stroke="#FFF1C9" stroke-width="9" stroke-linecap="round"/><polygon points="92,365 95,376 106,379 95,382 92,393 89,382 78,379 89,376" fill="#E24444" stroke="#172B46" stroke-width="5" stroke-linejoin="round"/><polygon points="419,115 422,124 431,127 422,130 419,139 416,130 407,127 416,124" fill="#FFF1C9" stroke="#172B46" stroke-width="5" stroke-linejoin="round"/><circle cx="119" cy="91" r="7" fill="#1A6D54"/><circle cx="397" cy="414" r="6" fill="#E24444"/>
<g transform="translate(426 116)"><circle r="8" fill="#FFF1C9"/><path d="M0 -18 V-45 M0 18 V45 M-18 0 H-45 M18 0 H45 M-14 -14 L-34 -34 M14 14 L34 34 M14 -14 L34 -34 M-14 14 L-34 34" stroke="#E24444" stroke-width="7" stroke-linecap="round"/></g><polygon points="86.0,360.0 92.5,376.1 109.8,377.3 96.5,388.4 100.7,405.2 86.0,396.0 71.3,405.2 75.5,388.4 62.2,377.3 79.5,376.1" fill="#FFF1C9" stroke="#172B46" stroke-width="6" stroke-linejoin="round"/>
<g transform="translate(112 267) scale(0.82)"><circle cx="0" cy="0" r="94" fill="#F7FCFF" stroke="#172B46" stroke-width="8" stroke-linejoin="round"/><circle cx="0" cy="0" r="77" fill="none" stroke="#E24444" stroke-width="8"/><path d="M0 0 V-55 M0 0 L49 -42" fill="none" stroke="#172B46" stroke-width="13" stroke-linecap="round"/><circle cx="0" cy="0" r="11" fill="#FFF1C9"/><path d="M0 -68 V-79 M68 0 H79 M0 68 V79 M-68 0 H-79" stroke="#1A6D54" stroke-width="8" stroke-linecap="round"/></g>
</svg>
