<svg xmlns="http://www.w3.org/2000/svg" width="512" height="512" viewBox="0 0 512 512">
<path d="M112 440 Q256 457 400 440" fill="none" stroke="#0B8F72" stroke-width="12" stroke-linecap="round" opacity=".20"/>
<path d="M60 392 Q118 340 174 367 M338 132 Q397 78 452 119" fill="none" stroke="#0B8F72" stroke-width="14" stroke-linecap="round" opacity=".26"/><path d="M62 245 l25 -20 M88 266 l34 -6 M424 238 l-21 -26 M449 264 l-35 4" stroke="#FFCB5C" stroke-width="9" stroke-linecap="round"/><g transform="translate(84 106) scale(.54)"><circle r="73" fill="#F7FCFF" stroke="#172B46" stroke-width="6" stroke-linejoin="round"/><path d="M0 0 V-56 M0 0 L32 -32" stroke="#D92F4F" stroke-width="12" stroke-linecap="round"/></g><g transform="translate(424 367) rotate(10)"><path d="M-29 -58 H29 L22 13 Q17 42 0 44 Q-17 42 -22 13 Z" fill="#FFCB5C" stroke="#172B46" stroke-width="6" stroke-linejoin="round"/><path d="M0 44 V74 M-31 78 H31" stroke="#172B46" stroke-width="7" stroke-linecap="round"/></g><circle cx="391" cy="302" r="8" fill="#D92F4F"/><circle cx="451" cy="292" r="7" fill="#FFCB5C"/>
<path d="M72 144 l21 -33 M91 149 l34 -10 M420 342 l-28 25 M426 364 l-10 35" fill="none" stroke="#FFCB5C" stroke-width="9" stroke-linecap="round"/><polygon points="92,365 95,376 106,379 95,382 92,393 89,382 78,379 89,376" fill="#D92F4F" stroke="#172B46" stroke-width="5" stroke-linejoin="round"/><polygon points="419,115 422,124 431,127 422,130 419,139 416,130 407,127 416,124" fill="#FFCB5C" stroke="#172B46" stroke-width="5" stroke-linejoin="round"/><circle cx="119" cy="91" r="7" fill="#0B8F72"/><circle cx="397" cy="414" r="6" fill="#D92F4F"/>
<g transform="translate(426 116)"><circle r="8" fill="#FFCB5C"/><path d="M0 -18 V-45 M0 18 V45 M-18 0 H-45 M18 0 H45 M-14 -14 L-34 -34 M14 14 L34 34 M14 -14 L34 -34 M-14 14 L-34 34" stroke="#D92F4F" stroke-width="7" stroke-linecap="round"/></g><polygon points="86.0,360.0 92.5,376.1 109.8,377.3 96.5,388.4 100.7,405.2 86.0,396.0 71.3,405.2 75.5,388.4 62.2,377.3 79.5,376.1" fill="#FFCB5C" stroke="#172B46" stroke-width="6" stroke-linejoin="round"/>
<g transform="translate(256 142) scale(0.62)"><polygon points="0.0,-115.0 35.9,-49.4 109.4,-35.5 58.0,18.9 67.6,93.0 0.0,61.0 -67.6,93.0 -58.0,18.9 -109.4,-35.5 -35.9,-49.4" fill="#FFCB5C" stroke="#172B46" stroke-width="8" stroke-linejoin="round"/><circle cx="0" cy="0" r="65" fill="#D92F4F" stroke="#172B46" stroke-width="8" stroke-linejoin="round"/><path d="M-39 -23 H-8 L-31 6 Q-7 4 -7 29 Q-9 58 -46 53 M8 -18 Q18 -41 43 -25 Q63 -8 12 48 H61" fill="none" stroke="#F7FCFF" stroke-width="14" stroke-linecap="round" stroke-linejoin="round"/></g>
<path d="M126 250 H60 M386 250 H452 M148 168 L103 123 M364 168 L409 123 M148 334 L105 377 M364 334 L407 377" fill="none" stroke="#FFCB5C" stroke-width="9" stroke-linecap="round" opacity=".65"/>
</svg>
