<svg xmlns="http://www.w3.org/2000/svg" width="512" height="512" viewBox="0 0 512 512">
<path d="M112 440 Q256 458 400 440" fill="none" stroke="#2E5FA7" stroke-width="12" stroke-linecap="round" opacity=".20"/>
<path d="M60 392 Q118 340 174 367 M338 132 Q397 78 452 119" fill="none" stroke="#2E5FA7" stroke-width="14" stroke-linecap="round" opacity=".26"/><path d="M62 245 l25 -20 M88 266 l34 -6 M424 238 l-21 -26 M449 264 l-35 4" stroke="#F9FDFF" stroke-width="9" stroke-linecap="round"/><g transform="translate(84 105)"><rect x="-48" y="-43" width="96" height="89" rx="12" fill="#F7FCFF" stroke="#172B46" stroke-width="6" stroke-linejoin="round"/><path d="M-48 -14 H48" stroke="#69C9F5" stroke-width="13"/><path d="M-24 -57 V-27 M24 -57 V-27" stroke="#172B46" stroke-width="8" stroke-linecap="round"/></g><path d="M382 364 Q414 320 449 349 Q468 382 430 409 Q394 420 382 388 Z" fill="#2E5FA7" stroke="#172B46" stroke-width="6" stroke-linejoin="round"/><polygon points="426.0,341.0 432.5,357.1 449.8,358.3 436.5,369.4 440.7,386.2 426.0,377.0 411.3,386.2 415.5,369.4 402.2,358.3 419.5,357.1" fill="#F9FDFF"/>
<path d="M72 144 l21 -33 M91 149 l34 -10 M420 342 l-28 25 M426 364 l-10 35" fill="none" stroke="#F9FDFF" stroke-width="9" stroke-linecap="round"/><polygon points="92,365 95,376 106,379 95,382 92,393 89,382 78,379 89,376" fill="#69C9F5" stroke="#172B46" stroke-width="5" stroke-linejoin="round"/><polygon points="419,115 422,124 431,127 422,130 419,139 416,130 407,127 416,124" fill="#F9FDFF" stroke="#172B46" stroke-width="5" stroke-linejoin="round"/><circle cx="119" cy="91" r="7" fill="#2E5FA7"/><circle cx="397" cy="414" r="6" fill="#69C9F5"/>
<circle cx="91" cy="120" r="20" fill="none" stroke="#F9FDFF" stroke-width="7"/><circle cx="124" cy="91" r="11" fill="none" stroke="#69C9F5" stroke-width="6"/><circle cx="420" cy="355" r="16" fill="none" stroke="#2E5FA7" stroke-width="6"/><circle cx="447" cy="328" r="8" fill="#F9FDFF"/>
<g transform="translate(400 386) scale(0.7)"><path d="M-58 -111 H57 L45 -4 Q40 50 0 53 Q-40 50 -45 -4 Z" fill="#F9FDFF" stroke="#172B46" stroke-width="8" stroke-linejoin="round"/><path d="M-50 -31 Q0 -4 50 -31" fill="none" stroke="#69C9F5" stroke-width="17"/><path d="M0 53 V92 M-54 98 H54" fill="none" stroke="#172B46" stroke-width="8" stroke-linejoin="round" stroke-linecap="round"/><circle cx="-56" cy="-112" r="10" fill="#69C9F5"/><circle cx="3" cy="-139" r="12" fill="#F9FDFF"/><circle cx="58" cy="-120" r="8" fill="#2E5FA7"/></g>
</svg>
