<svg xmlns="http://www.w3.org/2000/svg" width="512" height="512" viewBox="0 0 512 512">
<path d="M112 440 Q256 456 400 440" fill="none" stroke="#0E765D" stroke-width="12" stroke-linecap="round" opacity=".20"/>
<path d="M60 392 Q118 340 174 367 M338 132 Q397 78 452 119" fill="none" stroke="#0E765D" stroke-width="14" stroke-linecap="round" opacity=".26"/><path d="M62 245 l25 -20 M88 266 l34 -6 M424 238 l-21 -26 M449 264 l-35 4" stroke="#FFC857" stroke-width="9" stroke-linecap="round"/><g transform="translate(87 105)"><circle r="9" fill="#FFC857"/><path d="M0 -22 V-57 M0 22 V57 M-22 0 H-57 M22 0 H57 M-16 -16 L-40 -40 M16 16 L40 40 M16 -16 L40 -40 M-16 16 L-40 40" stroke="#E84D62" stroke-width="8" stroke-linecap="round"/></g><g transform="translate(423 374) scale(.58)"><circle r="58" fill="#0E765D" stroke="#172B46" stroke-width="6" stroke-linejoin="round"/><path d="M-39 -9 H39 M-31 -34 H31 M-28 18 H28 M0 -52 V52" stroke="#FFC857" stroke-width="8"/></g>
<path d="M72 144 l21 -33 M91 149 l34 -10 M420 342 l-28 25 M426 364 l-10 35" fill="none" stroke="#FFC857" stroke-width="9" stroke-linecap="round"/><polygon points="92,365 95,376 106,379 95,382 92,393 89,382 78,379 89,376" fill="#E84D62" stroke="#172B46" stroke-width="5" stroke-linejoin="round"/><polygon points="419,115 422,124 431,127 422,130 419,139 416,130 407,127 416,124" fill="#FFC857" stroke="#172B46" stroke-width="5" stroke-linejoin="round"/><circle cx="119" cy="91" r="7" fill="#0E765D"/><circle cx="397" cy="414" r="6" fill="#E84D62"/>
<polygon points="92.0,90.0 99.1,108.3 118.6,109.3 103.4,121.7 108.5,140.7 92.0,130.0 75.5,140.7 80.6,121.7 65.4,109.3 84.9,108.3" fill="#FFC857" stroke="#172B46" stroke-width="6" stroke-linejoin="round"/><path d="M69 393 Q117 350 153 365" fill="none" stroke="#E84D62" stroke-width="12" stroke-linecap="round"/><polygon points="425,353 429,367 443,371 429,375 425,389 421,375 407,371 421,367" fill="#0E765D" stroke="#172B46" stroke-width="5" stroke-linejoin="round"/>
<g transform="translate(256 145) scale(0.8)"><polygon points="32.0,-88.0 49.6,-42.3 98.6,-39.6 60.5,-8.7 73.1,38.6 32.0,12.0 -9.1,38.6 3.5,-8.7 -34.6,-39.6 14.4,-42.3" fill="#FFC857" stroke="#172B46" stroke-width="8" stroke-linejoin="round"/><path d="M-115 78 Q-61 20 -21 5 M-102 106 Q-42 50 1 34" fill="none" stroke="#E84D62" stroke-width="17" stroke-linecap="round"/><polygon points="-63,-80 -59,-68 -47,-64 -59,-60 -63,-48 -67,-60 -79,-64 -67,-68" fill="#0E765D" stroke="#172B46" stroke-width="5" stroke-linejoin="round"/><polygon points="99,53 102,62 111,65 102,68 99,77 96,68 87,65 96,62" fill="#F7FCFF" stroke="#172B46" stroke-width="5" stroke-linejoin="round"/></g>
</svg>
