<svg xmlns="http://www.w3.org/2000/svg" width="512" height="512" viewBox="0 0 512 512">
<path d="M112 440 Q256 457 400 440" fill="none" stroke="#236B54" stroke-width="12" stroke-linecap="round" opacity=".20"/>
<path d="M60 392 Q118 340 174 367 M338 132 Q397 78 452 119" fill="none" stroke="#236B54" stroke-width="14" stroke-linecap="round" opacity=".26"/><path d="M62 245 l25 -20 M88 266 l34 -6 M424 238 l-21 -26 M449 264 l-35 4" stroke="#FFF0D5" stroke-width="9" stroke-linecap="round"/><path d="M50 73 L102 44 L120 121 Z" fill="#D93C55" stroke="#172B46" stroke-width="6" stroke-linejoin="round"/><circle cx="102" cy="44" r="12" fill="#FFF0D5"/><path d="M392 392 q25 -45 56 -5 M398 359 q20 -25 42 2" fill="none" stroke="#D93C55" stroke-width="9" stroke-linecap="round"/><rect x="418" y="72" width="12" height="43" rx="6" fill="#FFF0D5" transform="rotate(28 424 94)"/><rect x="67" y="354" width="12" height="40" rx="6" fill="#236B54" transform="rotate(-31 73 374)"/>
<path d="M72 144 l21 -33 M91 149 l34 -10 M420 342 l-28 25 M426 364 l-10 35" fill="none" stroke="#FFF0D5" stroke-width="9" stroke-linecap="round"/><polygon points="92,365 95,376 106,379 95,382 92,393 89,382 78,379 89,376" fill="#D93C55" stroke="#172B46" stroke-width="5" stroke-linejoin="round"/><polygon points="419,115 422,124 431,127 422,130 419,139 416,130 407,127 416,124" fill="#FFF0D5" stroke="#172B46" stroke-width="5" stroke-linejoin="round"/><circle cx="119" cy="91" r="7" fill="#236B54"/><circle cx="397" cy="414" r="6" fill="#D93C55"/>
<path d="M66 355 l34 -18 20 38 -34 18 Z" fill="#D93C55" stroke="#172B46" stroke-width="6" stroke-linejoin="round"/><path d="M402 116 l36 12 -12 38 -36 -12 Z" fill="#FFF0D5" stroke="#172B46" stroke-width="6" stroke-linejoin="round"/><path d="M82 95 l19 22 M431 386 l-23 17" stroke="#236B54" stroke-width="8" stroke-linecap="round"/>
<g transform="translate(112 267) scale(0.82)"><rect x="-94" y="-105" width="188" height="210" rx="17" fill="#F7FCFF" stroke="#172B46" stroke-width="8" stroke-linejoin="round"/><path d="M-94 -59 H94" stroke="#D93C55" stroke-width="16"/><circle cx="-57" cy="-83" r="7" fill="#236B54"/><circle cx="-31" cy="-83" r="7" fill="#FFF0D5"/><path d="M-58 -13 H56 M-58 25 H38 M-58 63 H19" fill="none" stroke="#236B54" stroke-width="10" stroke-linecap="round"/><path d="M50 43 V91 M25 67 H75" stroke="#D93C55" stroke-width="12" stroke-linecap="round"/></g>
</svg>
