<svg xmlns="http://www.w3.org/2000/svg" width="512" height="512" viewBox="0 0 512 512">
<path d="M112 440 Q256 458 400 440" fill="none" stroke="#0B7A62" stroke-width="12" stroke-linecap="round" opacity=".20"/>
<path d="M60 392 Q118 340 174 367 M338 132 Q397 78 452 119" fill="none" stroke="#0B7A62" stroke-width="14" stroke-linecap="round" opacity=".26"/><path d="M62 245 l25 -20 M88 266 l34 -6 M424 238 l-21 -26 M449 264 l-35 4" stroke="#F7C94B" stroke-width="9" stroke-linecap="round"/><g transform="translate(84 106) scale(.54)"><circle r="73" fill="#F7FCFF" stroke="#172B46" stroke-width="6" stroke-linejoin="round"/><path d="M0 0 V-56 M0 0 L32 -32" stroke="#E55050" stroke-width="12" stroke-linecap="round"/></g><g transform="translate(424 367) rotate(10)"><path d="M-29 -58 H29 L22 13 Q17 42 0 44 Q-17 42 -22 13 Z" fill="#F7C94B" stroke="#172B46" stroke-width="6" stroke-linejoin="round"/><path d="M0 44 V74 M-31 78 H31" stroke="#172B46" stroke-width="7" stroke-linecap="round"/></g><circle cx="391" cy="302" r="8" fill="#E55050"/><circle cx="451" cy="292" r="7" fill="#F7C94B"/>
<path d="M72 144 l21 -33 M91 149 l34 -10 M420 342 l-28 25 M426 364 l-10 35" fill="none" stroke="#F7C94B" stroke-width="9" stroke-linecap="round"/><polygon points="92,365 95,376 106,379 95,382 92,393 89,382 78,379 89,376" fill="#E55050" stroke="#172B46" stroke-width="5" stroke-linejoin="round"/><polygon points="419,115 422,124 431,127 422,130 419,139 416,130 407,127 416,124" fill="#F7C94B" stroke="#172B46" stroke-width="5" stroke-linejoin="round"/><circle cx="119" cy="91" r="7" fill="#0B7A62"/><circle cx="397" cy="414" r="6" fill="#E55050"/>
<path d="M66 355 l34 -18 20 38 -34 18 Z" fill="#E55050" stroke="#172B46" stroke-width="6" stroke-linejoin="round"/><path d="M402 116 l36 12 -12 38 -36 -12 Z" fill="#F7C94B" stroke="#172B46" stroke-width="6" stroke-linejoin="round"/><path d="M82 95 l19 22 M431 386 l-23 17" stroke="#0B7A62" stroke-width="8" stroke-linecap="round"/>
<g transform="translate(256 385) scale(0.88)"><rect x="-77" y="-103" width="154" height="215" rx="10" fill="#0B7A62" stroke="#172B46" stroke-width="8" stroke-linejoin="round"/><path d="M-2 -103 V112 L77 88 V-82 Z" fill="#E55050" stroke="#172B46" stroke-width="8" stroke-linejoin="round"/><circle cx="53" cy="21" r="8" fill="#F7C94B"/><path d="M-109 -72 l25 20 M-108 -22 h32 M104 -76 l-24 22 M111 -24 H79" stroke="#F7C94B" stroke-width="10" stroke-linecap="round"/><circle cx="-99" cy="28" r="8" fill="#E55050"/><circle cx="103" cy="36" r="7" fill="#0B7A62"/></g>
</svg>
