<svg xmlns="http://www.w3.org/2000/svg" width="512" height="512" viewBox="0 0 512 512">
<path d="M112 440 Q256 457 400 440" fill="none" stroke="#16836B" stroke-width="12" stroke-linecap="round" opacity=".20"/>
<path d="M60 392 Q118 340 174 367 M338 132 Q397 78 452 119" fill="none" stroke="#16836B" stroke-width="14" stroke-linecap="round" opacity=".26"/><path d="M62 245 l25 -20 M88 266 l34 -6 M424 238 l-21 -26 M449 264 l-35 4" stroke="#FFD56A" stroke-width="9" stroke-linecap="round"/><g transform="translate(87 105)"><circle r="9" fill="#FFD56A"/><path d="M0 -22 V-57 M0 22 V57 M-22 0 H-57 M22 0 H57 M-16 -16 L-40 -40 M16 16 L40 40 M16 -16 L40 -40 M-16 16 L-40 40" stroke="#E84A5F" stroke-width="8" stroke-linecap="round"/></g><g transform="translate(423 374) scale(.58)"><circle r="58" fill="#16836B" stroke="#172B46" stroke-width="6" stroke-linejoin="round"/><path d="M-39 -9 H39 M-31 -34 H31 M-28 18 H28 M0 -52 V52" stroke="#FFD56A" stroke-width="8"/></g>
<path d="M72 144 l21 -33 M91 149 l34 -10 M420 342 l-28 25 M426 364 l-10 35" fill="none" stroke="#FFD56A" stroke-width="9" stroke-linecap="round"/><polygon points="92,365 95,376 106,379 95,382 92,393 89,382 78,379 89,376" fill="#E84A5F" stroke="#172B46" stroke-width="5" stroke-linejoin="round"/><polygon points="419,115 422,124 431,127 422,130 419,139 416,130 407,127 416,124" fill="#FFD56A" stroke="#172B46" stroke-width="5" stroke-linejoin="round"/><circle cx="119" cy="91" r="7" fill="#16836B"/><circle cx="397" cy="414" r="6" fill="#E84A5F"/>
<polygon points="92.0,90.0 99.1,108.3 118.6,109.3 103.4,121.7 108.5,140.7 92.0,130.0 75.5,140.7 80.6,121.7 65.4,109.3 84.9,108.3" fill="#FFD56A" stroke="#172B46" stroke-width="6" stroke-linejoin="round"/><path d="M69 393 Q117 350 153 365" fill="none" stroke="#E84A5F" stroke-width="12" stroke-linecap="round"/><polygon points="425,353 429,367 443,371 429,375 425,389 421,375 407,371 421,367" fill="#16836B" stroke="#172B46" stroke-width="5" stroke-linejoin="round"/>
<g transform="translate(256 145) scale(0.8)"><path d="M-119 69 Q-53 -17 16 -17 Q67 -17 109 -77" fill="none" stroke="#E84A5F" stroke-width="18" stroke-linecap="round"/><polygon points="45.0,-80.0 59.7,-42.2 100.2,-39.9 68.8,-14.3 79.1,24.9 45.0,3.0 10.9,24.9 21.2,-14.3 -10.2,-39.9 30.3,-42.2" fill="#FFD56A" stroke="#172B46" stroke-width="8" stroke-linejoin="round"/><polygon points="-70,-61 -65,-44 -48,-39 -65,-34 -70,-17 -75,-34 -92,-39 -75,-44" fill="#16836B" stroke="#172B46" stroke-width="5" stroke-linejoin="round"/><polygon points="105,18 109,31 122,35 109,39 105,52 101,39 88,35 101,31" fill="#F7FCFF" stroke="#172B46" stroke-width="5" stroke-linejoin="round"/><circle cx="-106" cy="78" r="11" fill="#FFD56A"/></g>
</svg>
