<svg xmlns="http://www.w3.org/2000/svg" width="512" height="512" viewBox="0 0 512 512">
<path d="M112 440 Q256 458 400 440" fill="none" stroke="#087C65" stroke-width="12" stroke-linecap="round" opacity=".20"/>
<path d="M60 392 Q118 340 174 367 M338 132 Q397 78 452 119" fill="none" stroke="#087C65" stroke-width="14" stroke-linecap="round" opacity=".26"/><path d="M62 245 l25 -20 M88 266 l34 -6 M424 238 l-21 -26 M449 264 l-35 4" stroke="#FFF3C8" stroke-width="9" stroke-linecap="round"/><path d="M50 73 L102 44 L120 121 Z" fill="#DC3652" stroke="#172B46" stroke-width="6" stroke-linejoin="round"/><circle cx="102" cy="44" r="12" fill="#FFF3C8"/><path d="M392 392 q25 -45 56 -5 M398 359 q20 -25 42 2" fill="none" stroke="#DC3652" stroke-width="9" stroke-linecap="round"/><rect x="418" y="72" width="12" height="43" rx="6" fill="#FFF3C8" transform="rotate(28 424 94)"/><rect x="67" y="354" width="12" height="40" rx="6" fill="#087C65" transform="rotate(-31 73 374)"/>
<path d="M72 144 l21 -33 M91 149 l34 -10 M420 342 l-28 25 M426 364 l-10 35" fill="none" stroke="#FFF3C8" stroke-width="9" stroke-linecap="round"/><polygon points="92,365 95,376 106,379 95,382 92,393 89,382 78,379 89,376" fill="#DC3652" stroke="#172B46" stroke-width="5" stroke-linejoin="round"/><polygon points="419,115 422,124 431,127 422,130 419,139 416,130 407,127 416,124" fill="#FFF3C8" stroke="#172B46" stroke-width="5" stroke-linejoin="round"/><circle cx="119" cy="91" r="7" fill="#087C65"/><circle cx="397" cy="414" r="6" fill="#DC3652"/>
<path d="M66 355 l34 -18 20 38 -34 18 Z" fill="#DC3652" stroke="#172B46" stroke-width="6" stroke-linejoin="round"/><path d="M402 116 l36 12 -12 38 -36 -12 Z" fill="#FFF3C8" stroke="#172B46" stroke-width="6" stroke-linejoin="round"/><path d="M82 95 l19 22 M431 386 l-23 17" stroke="#087C65" stroke-width="8" stroke-linecap="round"/>
<g transform="translate(400 386) scale(0.7)"><rect x="-101" y="-81" width="202" height="171" rx="18" fill="#F7FCFF" stroke="#172B46" stroke-width="8" stroke-linejoin="round"/><path d="M-101 -33 H101" stroke="#DC3652" stroke-width="18"/><path d="M-52 -107 V-59 M52 -107 V-59" fill="none" stroke="#172B46" stroke-width="8" stroke-linejoin="round" stroke-linecap="round"/><path d="M-56 13 H57 M-56 48 H25" fill="none" stroke="#087C65" stroke-width="12" stroke-linecap="round"/><path d="M62 39 L102 79 L72 103" fill="#FFF3C8" stroke="#172B46" stroke-width="8" stroke-linejoin="round"/></g>
</svg>
