<svg xmlns="http://www.w3.org/2000/svg" width="512" height="512" viewBox="0 0 512 512">
<defs><linearGradient id="softShade" x1="0" y1="0" x2="1" y2="1"><stop offset="0" stop-color="#FFFFFF" stop-opacity=".24"/><stop offset="1" stop-color="#10243A" stop-opacity=".14"/></linearGradient></defs>
<path d="M218.21 91 L246.21 85" fill="none" stroke="#162B45" stroke-width="7" stroke-linecap="round" stroke-linejoin="round" />
<path d="M265.79 85 L293.79 91" fill="none" stroke="#162B45" stroke-width="7" stroke-linecap="round" stroke-linejoin="round" />
<ellipse cx="233.21" cy="108" rx="9" ry="12" fill="#FFF8EE" stroke="#162B45" stroke-width="4" />
<ellipse cx="278.79" cy="108" rx="9" ry="12" fill="#FFF8EE" stroke="#162B45" stroke-width="4" />
<ellipse cx="234.21" cy="110" rx="4" ry="6" fill="#162B45" stroke="#162B45" stroke-width="0" />
<ellipse cx="279.79" cy="110" rx="4" ry="6" fill="#162B45" stroke="#162B45" stroke-width="0" />
<path d="M256 116 q-4 10 4 12" fill="none" stroke="#9A6040" stroke-width="4" stroke-linecap="round" stroke-linejoin="round" />
<ellipse cx="225.26" cy="128" rx="10" ry="6" fill="#E58A78" stroke="none" stroke-width="0" opacity=".45"/>
<ellipse cx="286.74" cy="128" rx="10" ry="6" fill="#E58A78" stroke="none" stroke-width="0" opacity=".45"/>
<path d="M223.14 129 Q256 172 288.86 127" fill="none" stroke="#201714" stroke-width="7" stroke-linecap="round" stroke-linejoin="round" />
<path d="M238 135 Q256 144 274 134" fill="none" stroke="#201714" stroke-width="4" stroke-linecap="round" stroke-linejoin="round" />
<path d="M231 138 Q256 156 283 136" fill="none" stroke="#FFFFFF" stroke-width="4" stroke-linecap="round" stroke-linejoin="round" />
<path d="M248 156 L256 164 L264 156" fill="#201714" stroke="#162B45" stroke-width="3" stroke-linecap="round" stroke-linejoin="round" />
</svg>
