<svg xmlns="http://www.w3.org/2000/svg" width="512" height="512" viewBox="0 0 512 512">
<defs><linearGradient id="softShade" x1="0" y1="0" x2="1" y2="1"><stop offset="0" stop-color="#FFFFFF" stop-opacity=".24"/><stop offset="1" stop-color="#10243A" stop-opacity=".14"/></linearGradient></defs>
<ellipse cx="256" cy="472" rx="105" ry="14" fill="#AAB2BD" stroke="none" stroke-width="0" opacity=".65"/><rect x="236" y="319" width="34" height="144" rx="14" fill="#243B59" stroke="#162B45" stroke-width="6" /><rect x="230" y="443" width="61" height="27" rx="13" fill="#D9874E" stroke="#162B45" stroke-width="6" /><rect x="216.5" y="181" width="83.0" height="145" rx="25" fill="#C95449" stroke="#162B45" stroke-width="7" /><path d="M233.1 201 L282.9 201" fill="none" stroke="#F0B63B" stroke-width="7" stroke-linecap="round" stroke-linejoin="round" /><path d="M258 216 Q293 276 278 331" fill="none" stroke="#AD704C" stroke-width="20" stroke-linecap="round" stroke-linejoin="round" /><ellipse cx="230" cy="63" rx="28" ry="28" fill="#2A1917" stroke="#162B45" stroke-width="4" /><ellipse cx="258" cy="40" rx="30" ry="30" fill="#2A1917" stroke="#162B45" stroke-width="4" /><ellipse cx="286" cy="58" rx="29" ry="29" fill="#2A1917" stroke="#162B45" stroke-width="4" /><ellipse cx="226" cy="96" rx="27" ry="27" fill="#2A1917" stroke="#162B45" stroke-width="4" /><ellipse cx="258" cy="108" rx="35.96" ry="66" fill="#AD704C" stroke="#162B45" stroke-width="7" /><path d="M246 47 Q276 39 293 70" fill="none" stroke="#6A3A31" stroke-width="4" stroke-linecap="round" stroke-linejoin="round" /><ellipse cx="270.4" cy="110" rx="9" ry="12" fill="#FFF8EE" stroke="#162B45" stroke-width="4" /><ellipse cx="272.88" cy="112" rx="4" ry="6" fill="#162B45" stroke="#162B45" stroke-width="0" /><path d="M289.0 116 q12 8 0 16" fill="none" stroke="#D19369" stroke-width="5" stroke-linecap="round" stroke-linejoin="round" /><path d="M260 145 Q276 156 289 142" fill="none" stroke="#162B45" stroke-width="5" stroke-linecap="round" stroke-linejoin="round" />
</svg>
