<svg xmlns="http://www.w3.org/2000/svg" width="512" height="512" viewBox="0 0 512 512">
<defs><linearGradient id="softShade" x1="0" y1="0" x2="1" y2="1"><stop offset="0" stop-color="#FFFFFF" stop-opacity=".24"/><stop offset="1" stop-color="#10243A" stop-opacity=".14"/></linearGradient></defs>
<ellipse cx="256" cy="472" rx="105" ry="14" fill="#AAB2BD" stroke="none" stroke-width="0" opacity=".65"/><g transform="translate(38 0) scale(.86 1)"><rect x="272" y="318" width="39" height="129" rx="14.82" fill="#243B59" stroke="#162B45" stroke-width="6" /><rect x="269" y="437" width="63" height="28" rx="13" fill="#D9874E" stroke="#162B45" stroke-width="6" /><rect x="201" y="318" width="39" height="129" rx="14.82" fill="#243B59" stroke="#162B45" stroke-width="6" /><rect x="189" y="437" width="63" height="28" rx="13" fill="#D9874E" stroke="#162B45" stroke-width="6" /><rect x="173" y="181" width="166" height="145" rx="30" fill="#C95449" stroke="#162B45" stroke-width="7" /><path d="M191 199 Q256.0 224 321 199" fill="none" stroke="#F0B63B" stroke-width="8" stroke-linecap="round" stroke-linejoin="round" /><path d="M202.88 199 Q256.0 189 309.12 199" fill="none" stroke="#2CA59B" stroke-width="5" stroke-linecap="round" stroke-linejoin="round" /><ellipse cx="256.0" cy="250.6" rx="22" ry="22" fill="#F0B63B" stroke="#162B45" stroke-width="4" /><path d="M245.0 250.6 L267.0 250.6" fill="none" stroke="#2CA59B" stroke-width="5" stroke-linecap="round" stroke-linejoin="round" /><polyline points="331,215 345.0,250.0 359,285" fill="none" stroke="#162B45" stroke-width="32" stroke-linecap="round" stroke-linejoin="round"/><polyline points="331,215 345.0,250.0 359,285" fill="none" stroke="#C95449" stroke-width="24" stroke-linecap="round" stroke-linejoin="round"/><polyline points="359,285 353,335" fill="none" stroke="#162B45" stroke-width="25" stroke-linecap="round" stroke-linejoin="round"/><polyline points="359,285 353,335" fill="none" stroke="#AD704C" stroke-width="18" stroke-linecap="round" stroke-linejoin="round"/><ellipse cx="353" cy="335" rx="11" ry="13" fill="#D19369" stroke="#162B45" stroke-width="5" /><polyline points="181,215 167.0,250.0 153,285" fill="none" stroke="#162B45" stroke-width="32" stroke-linecap="round" stroke-linejoin="round"/><polyline points="181,215 167.0,250.0 153,285" fill="none" stroke="#C95449" stroke-width="24" stroke-linecap="round" stroke-linejoin="round"/><polyline points="153,285 159,335" fill="none" stroke="#162B45" stroke-width="25" stroke-linecap="round" stroke-linejoin="round"/><polyline points="153,285 159,335" fill="none" stroke="#AD704C" stroke-width="18" stroke-linecap="round" stroke-linejoin="round"/><ellipse cx="159" cy="335" rx="11" ry="13" fill="#D19369" stroke="#162B45" stroke-width="5" /></g><ellipse cx="269" cy="108" rx="55.800000000000004" ry="66" fill="#AD704C" stroke="#162B45" stroke-width="7" /><g transform="translate(33.48 0) scale(.92 1)"><ellipse cx="198" cy="66" rx="27" ry="27" fill="#2A1917" stroke="#162B45" stroke-width="4" /><ellipse cx="218" cy="42" rx="28" ry="28" fill="#2A1917" stroke="#162B45" stroke-width="4" /><ellipse cx="248" cy="32" rx="29" ry="29" fill="#2A1917" stroke="#162B45" stroke-width="4" /><ellipse cx="280" cy="38" rx="30" ry="30" fill="#2A1917" stroke="#162B45" stroke-width="4" /><ellipse cx="308" cy="60" rx="29" ry="29" fill="#2A1917" stroke="#162B45" stroke-width="4" /><ellipse cx="194" cy="96" rx="27" ry="27" fill="#2A1917" stroke="#162B45" stroke-width="4" /><ellipse cx="316" cy="95" rx="27" ry="27" fill="#2A1917" stroke="#162B45" stroke-width="4" /></g><ellipse cx="254" cy="112" rx="9" ry="12" fill="#FFF8EE" stroke="#162B45" stroke-width="4" /><ellipse cx="293" cy="112" rx="7" ry="10" fill="#FFF8EE" stroke="#162B45" stroke-width="4" /><ellipse cx="257" cy="114" rx="4" ry="6" fill="#162B45" stroke="#162B45" stroke-width="0" /><ellipse cx="295" cy="114" rx="3" ry="5" fill="#162B45" stroke="#162B45" stroke-width="0" /><path d="M273 120 Q287 126 278 132" fill="none" stroke="#D19369" stroke-width="4" stroke-linecap="round" stroke-linejoin="round" /><path d="M252 144 Q277 160 299 139" fill="none" stroke="#162B45" stroke-width="6" stroke-linecap="round" stroke-linejoin="round" />
</svg>
