<svg xmlns="http://www.w3.org/2000/svg" width="512" height="512" viewBox="0 0 512 512">
<defs><linearGradient id="softShade" x1="0" y1="0" x2="1" y2="1"><stop offset="0" stop-color="#FFFFFF" stop-opacity=".24"/><stop offset="1" stop-color="#10243A" stop-opacity=".14"/></linearGradient></defs>
<g id="shadow" data-semantic-layer="true"><ellipse cx="256" cy="472" rx="105" ry="14" fill="#AAB2BD" stroke="none" stroke-width="0" opacity=".65"/></g>
<g id="leg-left" data-semantic-layer="true"><rect x="274" y="301" width="35" height="146" rx="13.3" fill="#202B39" stroke="#162B45" stroke-width="6" /><rect x="271" y="437" width="59" height="28" rx="13" fill="#E8E4DA" stroke="#162B45" stroke-width="6" /></g>
<g id="leg-right" data-semantic-layer="true"><rect x="203" y="301" width="35" height="146" rx="13.3" fill="#202B39" stroke="#162B45" stroke-width="6" /><rect x="191" y="437" width="59" height="28" rx="13" fill="#E8E4DA" stroke="#162B45" stroke-width="6" /></g>
<g id="torso" data-semantic-layer="true"><rect x="190" y="170" width="132" height="139" rx="30" fill="#294C70" stroke="#162B45" stroke-width="7" /><path d="M208 188 Q256.0 213 304 188" fill="none" stroke="#D95B55" stroke-width="8" stroke-linecap="round" stroke-linejoin="round" /><path d="M213.76 188 Q256.0 178 298.24 188" fill="none" stroke="#49B5B2" stroke-width="5" stroke-linecap="round" stroke-linejoin="round" /><path d="M256.0 177 L256.0 301" fill="none" stroke="#D95B55" stroke-width="6" stroke-linecap="round" stroke-linejoin="round" /><path d="M213.76 188 L245.44 228 M298.24 188 L266.56 228" fill="none" stroke="#49B5B2" stroke-width="7" stroke-linecap="round" stroke-linejoin="round" /></g>
<g id="head" data-semantic-layer="true"><ellipse cx="203.36" cy="109" rx="12" ry="20" fill="#D6A57C" stroke="#162B45" stroke-width="5" />
<ellipse cx="308.64" cy="109" rx="12" ry="20" fill="#D6A57C" stroke="#162B45" stroke-width="5" />
<ellipse cx="256" cy="104" rx="56" ry="61" fill="#D6A57C" stroke="#162B45" stroke-width="7" />
<path d="M215.68 74.72 Q242.0 56.42 290.72 72.28" fill="none" stroke="#EAC29E" stroke-width="5" stroke-linecap="round" stroke-linejoin="round" opacity=".45"/></g>
<g id="hair-front" data-semantic-layer="true"><path d="M205 81 Q224 12 318 64 Q281 37 239 38 Q208 49 205 81 Z" fill="#17191E" stroke="#162B45" stroke-width="6" stroke-linecap="round" stroke-linejoin="round" /><path d="M247 42 Q278 46 300 65" fill="none" stroke="#45505D" stroke-width="4" stroke-linecap="round" stroke-linejoin="round" /></g>
<g id="face-friendly" data-semantic-layer="true"><path d="M217.92000000000002 90 Q231.92000000000002 83 245.92000000000002 90" fill="none" stroke="#162B45" stroke-width="5" stroke-linecap="round" stroke-linejoin="round" />
<path d="M266.08 90 Q280.08 83 294.08 90" fill="none" stroke="#162B45" stroke-width="5" stroke-linecap="round" stroke-linejoin="round" />
<ellipse cx="231.92000000000002" cy="108" rx="10" ry="10" fill="#FFF8EE" stroke="#162B45" stroke-width="4" />
<ellipse cx="280.08" cy="108" rx="10" ry="10" fill="#FFF8EE" stroke="#162B45" stroke-width="4" />
<ellipse cx="232.92000000000002" cy="110" rx="4" ry="6" fill="#162B45" stroke="#162B45" stroke-width="0" />
<ellipse cx="281.08" cy="110" rx="4" ry="6" fill="#162B45" stroke="#162B45" stroke-width="0" />
<path d="M256 116 q-4 10 4 12" fill="none" stroke="#EAC29E" stroke-width="4" stroke-linecap="round" stroke-linejoin="round" />
<ellipse cx="223.52" cy="128" rx="10" ry="6" fill="#E58A78" stroke="none" stroke-width="0" opacity=".45"/>
<ellipse cx="288.48" cy="128" rx="10" ry="6" fill="#E58A78" stroke="none" stroke-width="0" opacity=".45"/>
<path d="M231 139 Q256 159 283 135" fill="none" stroke="#162B45" stroke-width="6" stroke-linecap="round" stroke-linejoin="round" />
<path d="M241 143 Q256 152 272 140" fill="none" stroke="#FFFFFF" stroke-width="3" stroke-linecap="round" stroke-linejoin="round" /></g>
<g id="face-laughing" data-semantic-layer="true" style="display:none"><path d="M221.92000000000002 108 Q231.92000000000002 115.5 241.92000000000002 108" fill="none" stroke="#162B45" stroke-width="5" stroke-linecap="round" stroke-linejoin="round" />
<path d="M270.08 108 Q280.08 115.5 290.08 108" fill="none" stroke="#162B45" stroke-width="5" stroke-linecap="round" stroke-linejoin="round" />
<path d="M217.92000000000002 88 Q231.92000000000002 82 245.92000000000002 88" fill="none" stroke="#162B45" stroke-width="5" stroke-linecap="round" stroke-linejoin="round" />
<path d="M266.08 88 Q280.08 82 294.08 88" fill="none" stroke="#162B45" stroke-width="5" stroke-linecap="round" stroke-linejoin="round" />
<path d="M256 116 q-4 10 5 12" fill="none" stroke="#EAC29E" stroke-width="4" stroke-linecap="round" stroke-linejoin="round" />
<path d="M228 138 Q256 179 285 137 Z" fill="#5B2730" stroke="#162B45" stroke-width="5" stroke-linecap="round" stroke-linejoin="round" />
<path d="M241 158 Q256 167 272 157" fill="none" stroke="#E98A86" stroke-width="5" stroke-linecap="round" stroke-linejoin="round" /></g>
<g id="face-surprised" data-semantic-layer="true" style="display:none"><ellipse cx="231.92000000000002" cy="108" rx="10" ry="13.5" fill="#FFF8EE" stroke="#162B45" stroke-width="4" />
<ellipse cx="232.92000000000002" cy="110" rx="4" ry="8.100000000000001" fill="#162B45" stroke="#162B45" stroke-width="0" />
<ellipse cx="280.08" cy="108" rx="10" ry="13.5" fill="#FFF8EE" stroke="#162B45" stroke-width="4" />
<ellipse cx="281.08" cy="110" rx="4" ry="8.100000000000001" fill="#162B45" stroke="#162B45" stroke-width="0" />
<path d="M217.92000000000002 79 Q231.92000000000002 73 245.92000000000002 79" fill="none" stroke="#162B45" stroke-width="5" stroke-linecap="round" stroke-linejoin="round" />
<path d="M266.08 79 Q280.08 73 294.08 79" fill="none" stroke="#162B45" stroke-width="5" stroke-linecap="round" stroke-linejoin="round" />
<path d="M256 116 q-4 10 5 12" fill="none" stroke="#EAC29E" stroke-width="4" stroke-linecap="round" stroke-linejoin="round" />
<ellipse cx="256" cy="145" rx="12" ry="16" fill="#5B2730" stroke="#162B45" stroke-width="5" /></g>
<g id="face-thinking" data-semantic-layer="true" style="display:none"><ellipse cx="231.92000000000002" cy="108" rx="10" ry="10.0" fill="#FFF8EE" stroke="#162B45" stroke-width="4" />
<ellipse cx="235.92000000000002" cy="110" rx="4" ry="6.0" fill="#162B45" stroke="#162B45" stroke-width="0" />
<ellipse cx="280.08" cy="108" rx="10" ry="10.0" fill="#FFF8EE" stroke="#162B45" stroke-width="4" />
<ellipse cx="284.08" cy="110" rx="4" ry="6.0" fill="#162B45" stroke="#162B45" stroke-width="0" />
<path d="M217.92000000000002 93 L245.92000000000002 86" fill="none" stroke="#162B45" stroke-width="5" stroke-linecap="round" stroke-linejoin="round" />
<path d="M266.08 86 L294.08 86" fill="none" stroke="#162B45" stroke-width="5" stroke-linecap="round" stroke-linejoin="round" />
<path d="M256 116 q-4 10 5 12" fill="none" stroke="#EAC29E" stroke-width="4" stroke-linecap="round" stroke-linejoin="round" />
<path d="M238 145 Q259 141 278 148" fill="none" stroke="#162B45" stroke-width="5" stroke-linecap="round" stroke-linejoin="round" /></g>
<g id="face-confident" data-semantic-layer="true" style="display:none"><ellipse cx="231.92000000000002" cy="108" rx="10" ry="6.2" fill="#FFF8EE" stroke="#162B45" stroke-width="4" />
<ellipse cx="232.92000000000002" cy="110" rx="4" ry="3.7199999999999998" fill="#162B45" stroke="#162B45" stroke-width="0" />
<ellipse cx="280.08" cy="108" rx="10" ry="6.2" fill="#FFF8EE" stroke="#162B45" stroke-width="4" />
<ellipse cx="281.08" cy="110" rx="4" ry="3.7199999999999998" fill="#162B45" stroke="#162B45" stroke-width="0" />
<path d="M217.92000000000002 93 Q231.92000000000002 87 245.92000000000002 93" fill="none" stroke="#162B45" stroke-width="5" stroke-linecap="round" stroke-linejoin="round" />
<path d="M266.08 93 Q280.08 87 294.08 93" fill="none" stroke="#162B45" stroke-width="5" stroke-linecap="round" stroke-linejoin="round" />
<path d="M256 116 q-4 10 5 12" fill="none" stroke="#EAC29E" stroke-width="4" stroke-linecap="round" stroke-linejoin="round" />
<path d="M232 142 Q261 164 285 137" fill="none" stroke="#162B45" stroke-width="6" stroke-linecap="round" stroke-linejoin="round" /></g>
<g id="face-sorry" data-semantic-layer="true" style="display:none"><ellipse cx="231.92000000000002" cy="108" rx="10" ry="10.0" fill="#FFF8EE" stroke="#162B45" stroke-width="4" />
<ellipse cx="232.92000000000002" cy="110" rx="4" ry="6.0" fill="#162B45" stroke="#162B45" stroke-width="0" />
<ellipse cx="280.08" cy="108" rx="10" ry="10.0" fill="#FFF8EE" stroke="#162B45" stroke-width="4" />
<ellipse cx="281.08" cy="110" rx="4" ry="6.0" fill="#162B45" stroke="#162B45" stroke-width="0" />
<path d="M217.92000000000002 90 Q233.92000000000002 84 245.92000000000002 95" fill="none" stroke="#162B45" stroke-width="5" stroke-linecap="round" stroke-linejoin="round" />
<path d="M266.08 95 Q278.08 84 294.08 90" fill="none" stroke="#162B45" stroke-width="5" stroke-linecap="round" stroke-linejoin="round" />
<path d="M256 116 q-4 10 5 12" fill="none" stroke="#EAC29E" stroke-width="4" stroke-linecap="round" stroke-linejoin="round" />
<path d="M232 154 Q256 135 280 154" fill="none" stroke="#162B45" stroke-width="6" stroke-linecap="round" stroke-linejoin="round" /></g>
<g id="face-excited" data-semantic-layer="true" style="display:none"><ellipse cx="231.92000000000002" cy="108" rx="10" ry="13.5" fill="#FFF8EE" stroke="#162B45" stroke-width="4" />
<ellipse cx="232.92000000000002" cy="110" rx="4" ry="8.100000000000001" fill="#162B45" stroke="#162B45" stroke-width="0" />
<ellipse cx="280.08" cy="108" rx="10" ry="13.5" fill="#FFF8EE" stroke="#162B45" stroke-width="4" />
<ellipse cx="281.08" cy="110" rx="4" ry="8.100000000000001" fill="#162B45" stroke="#162B45" stroke-width="0" />
<path d="M217.92000000000002 83 Q231.92000000000002 77 245.92000000000002 83" fill="none" stroke="#162B45" stroke-width="5" stroke-linecap="round" stroke-linejoin="round" />
<path d="M266.08 83 Q280.08 77 294.08 83" fill="none" stroke="#162B45" stroke-width="5" stroke-linecap="round" stroke-linejoin="round" />
<path d="M256 116 q-4 10 5 12" fill="none" stroke="#EAC29E" stroke-width="4" stroke-linecap="round" stroke-linejoin="round" />
<path d="M229 140 Q256 169 284 138" fill="none" stroke="#162B45" stroke-width="6" stroke-linecap="round" stroke-linejoin="round" /></g>
<g id="arm-left-rest" data-semantic-layer="true" style="display:none"><polyline points="314,204 328.0,239.0 342,274" fill="none" stroke="#162B45" stroke-width="32" stroke-linecap="round" stroke-linejoin="round"/><polyline points="314,204 328.0,239.0 342,274" fill="none" stroke="#294C70" stroke-width="24" stroke-linecap="round" stroke-linejoin="round"/><polyline points="342,274 336,324" fill="none" stroke="#162B45" stroke-width="25" stroke-linecap="round" stroke-linejoin="round"/><polyline points="342,274 336,324" fill="none" stroke="#D6A57C" stroke-width="18" stroke-linecap="round" stroke-linejoin="round"/><ellipse cx="336" cy="324" rx="11" ry="13" fill="#EAC29E" stroke="#162B45" stroke-width="5" /></g>
<g id="arm-right-rest" data-semantic-layer="true" style="display:none"><polyline points="198,204 184.0,239.0 170,274" fill="none" stroke="#162B45" stroke-width="32" stroke-linecap="round" stroke-linejoin="round"/><polyline points="198,204 184.0,239.0 170,274" fill="none" stroke="#294C70" stroke-width="24" stroke-linecap="round" stroke-linejoin="round"/><polyline points="170,274 176,324" fill="none" stroke="#162B45" stroke-width="25" stroke-linecap="round" stroke-linejoin="round"/><polyline points="170,274 176,324" fill="none" stroke="#D6A57C" stroke-width="18" stroke-linecap="round" stroke-linejoin="round"/><ellipse cx="176" cy="324" rx="11" ry="13" fill="#EAC29E" stroke="#162B45" stroke-width="5" /></g>
<g id="arm-left-greeting" data-semantic-layer="true"><polyline points="314,204 328.0,239.0 342,274" fill="none" stroke="#162B45" stroke-width="32" stroke-linecap="round" stroke-linejoin="round"/><polyline points="314,204 328.0,239.0 342,274" fill="none" stroke="#294C70" stroke-width="24" stroke-linecap="round" stroke-linejoin="round"/><polyline points="342,274 336,324" fill="none" stroke="#162B45" stroke-width="25" stroke-linecap="round" stroke-linejoin="round"/><polyline points="342,274 336,324" fill="none" stroke="#D6A57C" stroke-width="18" stroke-linecap="round" stroke-linejoin="round"/><ellipse cx="336" cy="324" rx="13" ry="15" fill="#EAC29E" stroke="#162B45" stroke-width="5" /><path d="M331.8 318 L322.2 297.8" fill="none" stroke="#D6A57C" stroke-width="6" stroke-linecap="round" stroke-linejoin="round" /><path d="M334.6 318 L331.4 296.6" fill="none" stroke="#D6A57C" stroke-width="6" stroke-linecap="round" stroke-linejoin="round" /><path d="M337.4 318 L340.6 296.6" fill="none" stroke="#D6A57C" stroke-width="6" stroke-linecap="round" stroke-linejoin="round" /><path d="M340.2 318 L349.8 297.8" fill="none" stroke="#D6A57C" stroke-width="6" stroke-linecap="round" stroke-linejoin="round" /></g>
<g id="arm-right-greeting" data-semantic-layer="true"><polyline points="198,204 180.0,188.0 162,172" fill="none" stroke="#162B45" stroke-width="32" stroke-linecap="round" stroke-linejoin="round"/><polyline points="198,204 180.0,188.0 162,172" fill="none" stroke="#294C70" stroke-width="24" stroke-linecap="round" stroke-linejoin="round"/><polyline points="162,172 150,114" fill="none" stroke="#162B45" stroke-width="25" stroke-linecap="round" stroke-linejoin="round"/><polyline points="162,172 150,114" fill="none" stroke="#D6A57C" stroke-width="18" stroke-linecap="round" stroke-linejoin="round"/><ellipse cx="150" cy="114" rx="13" ry="15" fill="#EAC29E" stroke="#162B45" stroke-width="5" /><path d="M145.8 108 L136.2 87.8" fill="none" stroke="#D6A57C" stroke-width="6" stroke-linecap="round" stroke-linejoin="round" /><path d="M148.6 108 L145.4 86.6" fill="none" stroke="#D6A57C" stroke-width="6" stroke-linecap="round" stroke-linejoin="round" /><path d="M151.4 108 L154.6 86.6" fill="none" stroke="#D6A57C" stroke-width="6" stroke-linecap="round" stroke-linejoin="round" /><path d="M154.2 108 L163.8 87.8" fill="none" stroke="#D6A57C" stroke-width="6" stroke-linecap="round" stroke-linejoin="round" /></g>
<g id="arm-left-farewell" data-semantic-layer="true" style="display:none"><polyline points="314,204 332.0,188.0 350,172" fill="none" stroke="#162B45" stroke-width="32" stroke-linecap="round" stroke-linejoin="round"/><polyline points="314,204 332.0,188.0 350,172" fill="none" stroke="#294C70" stroke-width="24" stroke-linecap="round" stroke-linejoin="round"/><polyline points="350,172 362,114" fill="none" stroke="#162B45" stroke-width="25" stroke-linecap="round" stroke-linejoin="round"/><polyline points="350,172 362,114" fill="none" stroke="#D6A57C" stroke-width="18" stroke-linecap="round" stroke-linejoin="round"/><ellipse cx="362" cy="114" rx="13" ry="15" fill="#EAC29E" stroke="#162B45" stroke-width="5" /><path d="M357.8 108 L348.2 87.8" fill="none" stroke="#D6A57C" stroke-width="6" stroke-linecap="round" stroke-linejoin="round" /><path d="M360.6 108 L357.4 86.6" fill="none" stroke="#D6A57C" stroke-width="6" stroke-linecap="round" stroke-linejoin="round" /><path d="M363.4 108 L366.6 86.6" fill="none" stroke="#D6A57C" stroke-width="6" stroke-linecap="round" stroke-linejoin="round" /><path d="M366.2 108 L375.8 87.8" fill="none" stroke="#D6A57C" stroke-width="6" stroke-linecap="round" stroke-linejoin="round" /></g>
<g id="arm-right-farewell" data-semantic-layer="true" style="display:none"><polyline points="198,204 184.0,239.0 170,274" fill="none" stroke="#162B45" stroke-width="32" stroke-linecap="round" stroke-linejoin="round"/><polyline points="198,204 184.0,239.0 170,274" fill="none" stroke="#294C70" stroke-width="24" stroke-linecap="round" stroke-linejoin="round"/><polyline points="170,274 176,324" fill="none" stroke="#162B45" stroke-width="25" stroke-linecap="round" stroke-linejoin="round"/><polyline points="170,274 176,324" fill="none" stroke="#D6A57C" stroke-width="18" stroke-linecap="round" stroke-linejoin="round"/><ellipse cx="176" cy="324" rx="13" ry="15" fill="#EAC29E" stroke="#162B45" stroke-width="5" /><path d="M171.8 318 L162.2 297.8" fill="none" stroke="#D6A57C" stroke-width="6" stroke-linecap="round" stroke-linejoin="round" /><path d="M174.6 318 L171.4 296.6" fill="none" stroke="#D6A57C" stroke-width="6" stroke-linecap="round" stroke-linejoin="round" /><path d="M177.4 318 L180.6 296.6" fill="none" stroke="#D6A57C" stroke-width="6" stroke-linecap="round" stroke-linejoin="round" /><path d="M180.2 318 L189.8 297.8" fill="none" stroke="#D6A57C" stroke-width="6" stroke-linecap="round" stroke-linejoin="round" /></g>
<g id="arm-left-agreement" data-semantic-layer="true" style="display:none"><polyline points="314,204 324.0,221.5 334,239" fill="none" stroke="#162B45" stroke-width="32" stroke-linecap="round" stroke-linejoin="round"/><polyline points="314,204 324.0,221.5 334,239" fill="none" stroke="#294C70" stroke-width="24" stroke-linecap="round" stroke-linejoin="round"/><polyline points="334,239 301,214" fill="none" stroke="#162B45" stroke-width="25" stroke-linecap="round" stroke-linejoin="round"/><polyline points="334,239 301,214" fill="none" stroke="#D6A57C" stroke-width="18" stroke-linecap="round" stroke-linejoin="round"/><ellipse cx="301" cy="214" rx="11" ry="13" fill="#EAC29E" stroke="#162B45" stroke-width="5" /></g>
<g id="arm-right-agreement" data-semantic-layer="true" style="display:none"><polyline points="198,204 188.0,221.5 178,239" fill="none" stroke="#162B45" stroke-width="32" stroke-linecap="round" stroke-linejoin="round"/><polyline points="198,204 188.0,221.5 178,239" fill="none" stroke="#294C70" stroke-width="24" stroke-linecap="round" stroke-linejoin="round"/><polyline points="178,239 211,214" fill="none" stroke="#162B45" stroke-width="25" stroke-linecap="round" stroke-linejoin="round"/><polyline points="178,239 211,214" fill="none" stroke="#D6A57C" stroke-width="18" stroke-linecap="round" stroke-linejoin="round"/><ellipse cx="211" cy="214" rx="11" ry="13" fill="#EAC29E" stroke="#162B45" stroke-width="5" /></g>
<g id="arm-left-disagreement" data-semantic-layer="true" style="display:none"><polyline points="314,204 322.0,226.5 330,249" fill="none" stroke="#162B45" stroke-width="32" stroke-linecap="round" stroke-linejoin="round"/><polyline points="314,204 322.0,226.5 330,249" fill="none" stroke="#294C70" stroke-width="24" stroke-linecap="round" stroke-linejoin="round"/><polyline points="330,249 218,277" fill="none" stroke="#162B45" stroke-width="25" stroke-linecap="round" stroke-linejoin="round"/><polyline points="330,249 218,277" fill="none" stroke="#D6A57C" stroke-width="18" stroke-linecap="round" stroke-linejoin="round"/><ellipse cx="218" cy="277" rx="11" ry="13" fill="#EAC29E" stroke="#162B45" stroke-width="5" /></g>
<g id="arm-right-disagreement" data-semantic-layer="true" style="display:none"><polyline points="198,204 190.0,226.5 182,249" fill="none" stroke="#162B45" stroke-width="32" stroke-linecap="round" stroke-linejoin="round"/><polyline points="198,204 190.0,226.5 182,249" fill="none" stroke="#294C70" stroke-width="24" stroke-linecap="round" stroke-linejoin="round"/><polyline points="182,249 294,277" fill="none" stroke="#162B45" stroke-width="25" stroke-linecap="round" stroke-linejoin="round"/><polyline points="182,249 294,277" fill="none" stroke="#D6A57C" stroke-width="18" stroke-linecap="round" stroke-linejoin="round"/><ellipse cx="294" cy="277" rx="11" ry="13" fill="#EAC29E" stroke="#162B45" stroke-width="5" /></g>
<g id="arm-left-gratitude" data-semantic-layer="true" style="display:none"><polyline points="314,204 323.0,227.5 332,251" fill="none" stroke="#162B45" stroke-width="32" stroke-linecap="round" stroke-linejoin="round"/><polyline points="314,204 323.0,227.5 332,251" fill="none" stroke="#294C70" stroke-width="24" stroke-linecap="round" stroke-linejoin="round"/><polyline points="332,251 266,266" fill="none" stroke="#162B45" stroke-width="25" stroke-linecap="round" stroke-linejoin="round"/><polyline points="332,251 266,266" fill="none" stroke="#D6A57C" stroke-width="18" stroke-linecap="round" stroke-linejoin="round"/><ellipse cx="266" cy="266" rx="11" ry="13" fill="#EAC29E" stroke="#162B45" stroke-width="5" /></g>
<g id="arm-right-gratitude" data-semantic-layer="true" style="display:none"><polyline points="198,204 189.0,227.5 180,251" fill="none" stroke="#162B45" stroke-width="32" stroke-linecap="round" stroke-linejoin="round"/><polyline points="198,204 189.0,227.5 180,251" fill="none" stroke="#294C70" stroke-width="24" stroke-linecap="round" stroke-linejoin="round"/><polyline points="180,251 246,266" fill="none" stroke="#162B45" stroke-width="25" stroke-linecap="round" stroke-linejoin="round"/><polyline points="180,251 246,266" fill="none" stroke="#D6A57C" stroke-width="18" stroke-linecap="round" stroke-linejoin="round"/><ellipse cx="246" cy="266" rx="11" ry="13" fill="#EAC29E" stroke="#162B45" stroke-width="5" /></g>
<g id="arm-left-concern" data-semantic-layer="true" style="display:none"><polyline points="314,204 326.0,215.0 338,226" fill="none" stroke="#162B45" stroke-width="32" stroke-linecap="round" stroke-linejoin="round"/><polyline points="314,204 326.0,215.0 338,226" fill="none" stroke="#294C70" stroke-width="24" stroke-linecap="round" stroke-linejoin="round"/><polyline points="338,226 294,147" fill="none" stroke="#162B45" stroke-width="25" stroke-linecap="round" stroke-linejoin="round"/><polyline points="338,226 294,147" fill="none" stroke="#D6A57C" stroke-width="18" stroke-linecap="round" stroke-linejoin="round"/><ellipse cx="294" cy="147" rx="11" ry="13" fill="#EAC29E" stroke="#162B45" stroke-width="5" /></g>
<g id="arm-right-concern" data-semantic-layer="true" style="display:none"><polyline points="198,204 186.0,215.0 174,226" fill="none" stroke="#162B45" stroke-width="32" stroke-linecap="round" stroke-linejoin="round"/><polyline points="198,204 186.0,215.0 174,226" fill="none" stroke="#294C70" stroke-width="24" stroke-linecap="round" stroke-linejoin="round"/><polyline points="174,226 218,147" fill="none" stroke="#162B45" stroke-width="25" stroke-linecap="round" stroke-linejoin="round"/><polyline points="174,226 218,147" fill="none" stroke="#D6A57C" stroke-width="18" stroke-linecap="round" stroke-linejoin="round"/><ellipse cx="218" cy="147" rx="11" ry="13" fill="#EAC29E" stroke="#162B45" stroke-width="5" /></g>
<g id="arm-left-surprise" data-semantic-layer="true" style="display:none"><polyline points="314,204 328.0,208.0 342,212" fill="none" stroke="#162B45" stroke-width="32" stroke-linecap="round" stroke-linejoin="round"/><polyline points="314,204 328.0,208.0 342,212" fill="none" stroke="#294C70" stroke-width="24" stroke-linecap="round" stroke-linejoin="round"/><polyline points="342,212 314,134" fill="none" stroke="#162B45" stroke-width="25" stroke-linecap="round" stroke-linejoin="round"/><polyline points="342,212 314,134" fill="none" stroke="#D6A57C" stroke-width="18" stroke-linecap="round" stroke-linejoin="round"/><ellipse cx="314" cy="134" rx="13" ry="15" fill="#EAC29E" stroke="#162B45" stroke-width="5" /><path d="M309.8 128 L300.2 107.8" fill="none" stroke="#D6A57C" stroke-width="6" stroke-linecap="round" stroke-linejoin="round" /><path d="M312.6 128 L309.4 106.6" fill="none" stroke="#D6A57C" stroke-width="6" stroke-linecap="round" stroke-linejoin="round" /><path d="M315.4 128 L318.6 106.6" fill="none" stroke="#D6A57C" stroke-width="6" stroke-linecap="round" stroke-linejoin="round" /><path d="M318.2 128 L327.8 107.8" fill="none" stroke="#D6A57C" stroke-width="6" stroke-linecap="round" stroke-linejoin="round" /></g>
<g id="arm-right-surprise" data-semantic-layer="true" style="display:none"><polyline points="198,204 184.0,208.0 170,212" fill="none" stroke="#162B45" stroke-width="32" stroke-linecap="round" stroke-linejoin="round"/><polyline points="198,204 184.0,208.0 170,212" fill="none" stroke="#294C70" stroke-width="24" stroke-linecap="round" stroke-linejoin="round"/><polyline points="170,212 198,134" fill="none" stroke="#162B45" stroke-width="25" stroke-linecap="round" stroke-linejoin="round"/><polyline points="170,212 198,134" fill="none" stroke="#D6A57C" stroke-width="18" stroke-linecap="round" stroke-linejoin="round"/><ellipse cx="198" cy="134" rx="13" ry="15" fill="#EAC29E" stroke="#162B45" stroke-width="5" /><path d="M193.8 128 L184.2 107.8" fill="none" stroke="#D6A57C" stroke-width="6" stroke-linecap="round" stroke-linejoin="round" /><path d="M196.6 128 L193.4 106.6" fill="none" stroke="#D6A57C" stroke-width="6" stroke-linecap="round" stroke-linejoin="round" /><path d="M199.4 128 L202.6 106.6" fill="none" stroke="#D6A57C" stroke-width="6" stroke-linecap="round" stroke-linejoin="round" /><path d="M202.2 128 L211.8 107.8" fill="none" stroke="#D6A57C" stroke-width="6" stroke-linecap="round" stroke-linejoin="round" /></g>
<g id="arm-left-celebration" data-semantic-layer="true" style="display:none"><polyline points="314,204 331.0,183.0 348,162" fill="none" stroke="#162B45" stroke-width="32" stroke-linecap="round" stroke-linejoin="round"/><polyline points="314,204 331.0,183.0 348,162" fill="none" stroke="#294C70" stroke-width="24" stroke-linecap="round" stroke-linejoin="round"/><polyline points="348,162 366,100" fill="none" stroke="#162B45" stroke-width="25" stroke-linecap="round" stroke-linejoin="round"/><polyline points="348,162 366,100" fill="none" stroke="#D6A57C" stroke-width="18" stroke-linecap="round" stroke-linejoin="round"/><ellipse cx="366" cy="100" rx="13" ry="15" fill="#EAC29E" stroke="#162B45" stroke-width="5" /><path d="M361.8 94 L352.2 73.8" fill="none" stroke="#D6A57C" stroke-width="6" stroke-linecap="round" stroke-linejoin="round" /><path d="M364.6 94 L361.4 72.6" fill="none" stroke="#D6A57C" stroke-width="6" stroke-linecap="round" stroke-linejoin="round" /><path d="M367.4 94 L370.6 72.6" fill="none" stroke="#D6A57C" stroke-width="6" stroke-linecap="round" stroke-linejoin="round" /><path d="M370.2 94 L379.8 73.8" fill="none" stroke="#D6A57C" stroke-width="6" stroke-linecap="round" stroke-linejoin="round" /></g>
<g id="arm-right-celebration" data-semantic-layer="true" style="display:none"><polyline points="198,204 181.0,183.0 164,162" fill="none" stroke="#162B45" stroke-width="32" stroke-linecap="round" stroke-linejoin="round"/><polyline points="198,204 181.0,183.0 164,162" fill="none" stroke="#294C70" stroke-width="24" stroke-linecap="round" stroke-linejoin="round"/><polyline points="164,162 146,100" fill="none" stroke="#162B45" stroke-width="25" stroke-linecap="round" stroke-linejoin="round"/><polyline points="164,162 146,100" fill="none" stroke="#D6A57C" stroke-width="18" stroke-linecap="round" stroke-linejoin="round"/><ellipse cx="146" cy="100" rx="13" ry="15" fill="#EAC29E" stroke="#162B45" stroke-width="5" /><path d="M141.8 94 L132.2 73.8" fill="none" stroke="#D6A57C" stroke-width="6" stroke-linecap="round" stroke-linejoin="round" /><path d="M144.6 94 L141.4 72.6" fill="none" stroke="#D6A57C" stroke-width="6" stroke-linecap="round" stroke-linejoin="round" /><path d="M147.4 94 L150.6 72.6" fill="none" stroke="#D6A57C" stroke-width="6" stroke-linecap="round" stroke-linejoin="round" /><path d="M150.2 94 L159.8 73.8" fill="none" stroke="#D6A57C" stroke-width="6" stroke-linecap="round" stroke-linejoin="round" /></g>
</svg>
