<svg xmlns="http://www.w3.org/2000/svg" width="512" height="512" viewBox="0 0 512 512">
<defs><linearGradient id="softShade" x1="0" y1="0" x2="1" y2="1"><stop offset="0" stop-color="#FFFFFF" stop-opacity=".24"/><stop offset="1" stop-color="#10243A" stop-opacity=".14"/></linearGradient></defs>
<g id="shadow" data-semantic-layer="true"><ellipse cx="256" cy="472" rx="105" ry="14" fill="#AAB2BD" stroke="none" stroke-width="0" opacity=".65"/></g>
<g id="hair-back" data-semantic-layer="true"><path d="M181 85 Q173 165 214 190 L301 188 Q338 160 325 81 Z" fill="#2B292C" stroke="#162B45" stroke-width="7" stroke-linecap="round" stroke-linejoin="round" /></g>
<g id="leg-left" data-semantic-layer="true"><path d="M254 303 L301 302 Q305 362 297 442 L260 442 Z" fill="#203B5D" stroke="#162B45" stroke-width="7" stroke-linecap="round" stroke-linejoin="round" /><rect x="250" y="432" width="61" height="28" rx="13" fill="#1C2633" stroke="#162B45" stroke-width="6" /></g>
<g id="leg-right" data-semantic-layer="true"><path d="M211 302 Q210 360 215 442 L252 442 L258 303 Z" fill="#203B5D" stroke="#162B45" stroke-width="7" stroke-linecap="round" stroke-linejoin="round" /><rect x="202" y="432" width="61" height="28" rx="13" fill="#1C2633" stroke="#162B45" stroke-width="6" /></g>
<g id="torso" data-semantic-layer="true"><rect x="195" y="188" width="122" height="142" rx="30" fill="#9970A8" stroke="#162B45" stroke-width="7" /><path d="M213 206 Q256.0 231 299 206" fill="none" stroke="#F2E7D7" stroke-width="8" stroke-linecap="round" stroke-linejoin="round" /><path d="M216.96 206 Q256.0 196 295.03999999999996 206" fill="none" stroke="#5BD1C6" stroke-width="5" stroke-linecap="round" stroke-linejoin="round" /><path d="M229.16 198 L229.16 320 M282.84000000000003 198 L282.84000000000003 320" fill="none" stroke="#F2E7D7" stroke-width="6" stroke-linecap="round" stroke-linejoin="round" /><ellipse cx="229.16" cy="224" rx="3" ry="3" fill="#162B45" stroke="none" stroke-width="0" /><ellipse cx="229.16" cy="249" rx="3" ry="3" fill="#162B45" stroke="none" stroke-width="0" /><ellipse cx="229.16" cy="274" rx="3" ry="3" fill="#162B45" stroke="none" stroke-width="0" /><ellipse cx="229.16" cy="299" rx="3" ry="3" fill="#162B45" stroke="none" stroke-width="0" /><path d="M229.16 199 L253.56 236 L238.92000000000002 267" fill="none" stroke="#F2E7D7" stroke-width="5" stroke-linecap="round" stroke-linejoin="round" /><path d="M282.84000000000003 199 L258.44 236 L273.08 267" fill="none" stroke="#F2E7D7" stroke-width="5" stroke-linecap="round" stroke-linejoin="round" /></g>
<g id="head" data-semantic-layer="true"><ellipse cx="200.54000000000002" cy="120" rx="12" ry="20" fill="#E2AD7D" stroke="#162B45" stroke-width="5" />
<ellipse cx="311.46" cy="120" rx="12" ry="20" fill="#E2AD7D" stroke="#162B45" stroke-width="5" />
<ellipse cx="256" cy="115" rx="59" ry="65" fill="#E2AD7D" stroke="#162B45" stroke-width="7" />
<path d="M213.52 83.8 Q241.25 64.3 292.58 81.19999999999999" fill="none" stroke="#F1C49B" stroke-width="5" stroke-linecap="round" stroke-linejoin="round" opacity=".45"/></g>
<g id="hair-front" data-semantic-layer="true"><path d="M202 80 Q241 30 315 85 Q292 60 259 56 Q226 55 202 80 Z" fill="#2B292C" stroke="#162B45" stroke-width="6" stroke-linecap="round" stroke-linejoin="round" /><path d="M263 55 Q243 60 205 85" fill="none" stroke="#7D7B80" stroke-width="5" stroke-linecap="round" stroke-linejoin="round" /><path d="M263 55 Q287 61 312 84" fill="none" stroke="#7D7B80" stroke-width="4" stroke-linecap="round" stroke-linejoin="round" /><path d="M261 57 Q251 72 232 81" fill="none" stroke="#B1ADB1" stroke-width="3" stroke-linecap="round" stroke-linejoin="round" /><path d="M234 61 Q218 73 204 95" fill="none" stroke="#7D7B80" stroke-width="8" stroke-linecap="round" stroke-linejoin="round" /></g>
<g id="face-friendly" data-semantic-layer="true"><path d="M216.63 101 Q230.63 94 244.63 101" fill="none" stroke="#162B45" stroke-width="5" stroke-linecap="round" stroke-linejoin="round" />
<path d="M267.37 101 Q281.37 94 295.37 101" fill="none" stroke="#162B45" stroke-width="5" stroke-linecap="round" stroke-linejoin="round" />
<ellipse cx="230.63" cy="119" rx="9" ry="11" fill="#FFF8EE" stroke="#162B45" stroke-width="4" />
<ellipse cx="281.37" cy="119" rx="9" ry="11" fill="#FFF8EE" stroke="#162B45" stroke-width="4" />
<ellipse cx="231.63" cy="121" rx="4" ry="6" fill="#162B45" stroke="#162B45" stroke-width="0" />
<ellipse cx="282.37" cy="121" rx="4" ry="6" fill="#162B45" stroke="#162B45" stroke-width="0" />
<path d="M256 127 q-4 10 4 12" fill="none" stroke="#F1C49B" stroke-width="4" stroke-linecap="round" stroke-linejoin="round" />
<ellipse cx="221.78" cy="139" rx="10" ry="6" fill="#E58A78" stroke="none" stroke-width="0" opacity=".45"/>
<ellipse cx="290.22" cy="139" rx="10" ry="6" fill="#E58A78" stroke="none" stroke-width="0" opacity=".45"/>
<path d="M234 150 Q256 164 279 149" fill="none" stroke="#162B45" stroke-width="5" stroke-linecap="round" stroke-linejoin="round" />
<path d="M246 154 Q256 159 267 153" fill="none" stroke="#FFFFFF" stroke-width="3" stroke-linecap="round" stroke-linejoin="round" /></g>
<g id="face-laughing" data-semantic-layer="true" style="display:none"><path d="M221.63 119 Q230.63 127.25 239.63 119" fill="none" stroke="#162B45" stroke-width="5" stroke-linecap="round" stroke-linejoin="round" />
<path d="M272.37 119 Q281.37 127.25 290.37 119" fill="none" stroke="#162B45" stroke-width="5" stroke-linecap="round" stroke-linejoin="round" />
<path d="M216.63 99 Q230.63 93 244.63 99" fill="none" stroke="#162B45" stroke-width="5" stroke-linecap="round" stroke-linejoin="round" />
<path d="M267.37 99 Q281.37 93 295.37 99" fill="none" stroke="#162B45" stroke-width="5" stroke-linecap="round" stroke-linejoin="round" />
<path d="M256 127 q-4 10 5 12" fill="none" stroke="#F1C49B" stroke-width="4" stroke-linecap="round" stroke-linejoin="round" />
<path d="M228 149 Q256 190 285 148 Z" fill="#5B2730" stroke="#162B45" stroke-width="5" stroke-linecap="round" stroke-linejoin="round" />
<path d="M241 169 Q256 178 272 168" fill="none" stroke="#E98A86" stroke-width="5" stroke-linecap="round" stroke-linejoin="round" /></g>
<g id="face-surprised" data-semantic-layer="true" style="display:none"><ellipse cx="230.63" cy="119" rx="9" ry="14.850000000000001" fill="#FFF8EE" stroke="#162B45" stroke-width="4" />
<ellipse cx="231.63" cy="121" rx="4" ry="8.100000000000001" fill="#162B45" stroke="#162B45" stroke-width="0" />
<ellipse cx="281.37" cy="119" rx="9" ry="14.850000000000001" fill="#FFF8EE" stroke="#162B45" stroke-width="4" />
<ellipse cx="282.37" cy="121" rx="4" ry="8.100000000000001" fill="#162B45" stroke="#162B45" stroke-width="0" />
<path d="M216.63 90 Q230.63 84 244.63 90" fill="none" stroke="#162B45" stroke-width="5" stroke-linecap="round" stroke-linejoin="round" />
<path d="M267.37 90 Q281.37 84 295.37 90" fill="none" stroke="#162B45" stroke-width="5" stroke-linecap="round" stroke-linejoin="round" />
<path d="M256 127 q-4 10 5 12" fill="none" stroke="#F1C49B" stroke-width="4" stroke-linecap="round" stroke-linejoin="round" />
<ellipse cx="256" cy="156" rx="12" ry="16" fill="#5B2730" stroke="#162B45" stroke-width="5" /></g>
<g id="face-thinking" data-semantic-layer="true" style="display:none"><ellipse cx="230.63" cy="119" rx="9" ry="11.0" fill="#FFF8EE" stroke="#162B45" stroke-width="4" />
<ellipse cx="234.63" cy="121" rx="4" ry="6.0" fill="#162B45" stroke="#162B45" stroke-width="0" />
<ellipse cx="281.37" cy="119" rx="9" ry="11.0" fill="#FFF8EE" stroke="#162B45" stroke-width="4" />
<ellipse cx="285.37" cy="121" rx="4" ry="6.0" fill="#162B45" stroke="#162B45" stroke-width="0" />
<path d="M216.63 104 L244.63 97" fill="none" stroke="#162B45" stroke-width="5" stroke-linecap="round" stroke-linejoin="round" />
<path d="M267.37 97 L295.37 97" fill="none" stroke="#162B45" stroke-width="5" stroke-linecap="round" stroke-linejoin="round" />
<path d="M256 127 q-4 10 5 12" fill="none" stroke="#F1C49B" stroke-width="4" stroke-linecap="round" stroke-linejoin="round" />
<path d="M238 156 Q259 152 278 159" fill="none" stroke="#162B45" stroke-width="5" stroke-linecap="round" stroke-linejoin="round" /></g>
<g id="face-confident" data-semantic-layer="true" style="display:none"><ellipse cx="230.63" cy="119" rx="9" ry="6.82" fill="#FFF8EE" stroke="#162B45" stroke-width="4" />
<ellipse cx="231.63" cy="121" rx="4" ry="3.7199999999999998" fill="#162B45" stroke="#162B45" stroke-width="0" />
<ellipse cx="281.37" cy="119" rx="9" ry="6.82" fill="#FFF8EE" stroke="#162B45" stroke-width="4" />
<ellipse cx="282.37" cy="121" rx="4" ry="3.7199999999999998" fill="#162B45" stroke="#162B45" stroke-width="0" />
<path d="M216.63 104 Q230.63 98 244.63 104" fill="none" stroke="#162B45" stroke-width="5" stroke-linecap="round" stroke-linejoin="round" />
<path d="M267.37 104 Q281.37 98 295.37 104" fill="none" stroke="#162B45" stroke-width="5" stroke-linecap="round" stroke-linejoin="round" />
<path d="M256 127 q-4 10 5 12" fill="none" stroke="#F1C49B" stroke-width="4" stroke-linecap="round" stroke-linejoin="round" />
<path d="M232 153 Q261 175 285 148" fill="none" stroke="#162B45" stroke-width="6" stroke-linecap="round" stroke-linejoin="round" /></g>
<g id="face-sorry" data-semantic-layer="true" style="display:none"><ellipse cx="230.63" cy="119" rx="9" ry="11.0" fill="#FFF8EE" stroke="#162B45" stroke-width="4" />
<ellipse cx="231.63" cy="121" rx="4" ry="6.0" fill="#162B45" stroke="#162B45" stroke-width="0" />
<ellipse cx="281.37" cy="119" rx="9" ry="11.0" fill="#FFF8EE" stroke="#162B45" stroke-width="4" />
<ellipse cx="282.37" cy="121" rx="4" ry="6.0" fill="#162B45" stroke="#162B45" stroke-width="0" />
<path d="M216.63 101 Q232.63 95 244.63 106" fill="none" stroke="#162B45" stroke-width="5" stroke-linecap="round" stroke-linejoin="round" />
<path d="M267.37 106 Q279.37 95 295.37 101" fill="none" stroke="#162B45" stroke-width="5" stroke-linecap="round" stroke-linejoin="round" />
<path d="M256 127 q-4 10 5 12" fill="none" stroke="#F1C49B" stroke-width="4" stroke-linecap="round" stroke-linejoin="round" />
<path d="M232 165 Q256 146 280 165" fill="none" stroke="#162B45" stroke-width="6" stroke-linecap="round" stroke-linejoin="round" /></g>
<g id="face-excited" data-semantic-layer="true" style="display:none"><ellipse cx="230.63" cy="119" rx="9" ry="14.850000000000001" fill="#FFF8EE" stroke="#162B45" stroke-width="4" />
<ellipse cx="231.63" cy="121" rx="4" ry="8.100000000000001" fill="#162B45" stroke="#162B45" stroke-width="0" />
<ellipse cx="281.37" cy="119" rx="9" ry="14.850000000000001" fill="#FFF8EE" stroke="#162B45" stroke-width="4" />
<ellipse cx="282.37" cy="121" rx="4" ry="8.100000000000001" fill="#162B45" stroke="#162B45" stroke-width="0" />
<path d="M216.63 94 Q230.63 88 244.63 94" fill="none" stroke="#162B45" stroke-width="5" stroke-linecap="round" stroke-linejoin="round" />
<path d="M267.37 94 Q281.37 88 295.37 94" fill="none" stroke="#162B45" stroke-width="5" stroke-linecap="round" stroke-linejoin="round" />
<path d="M256 127 q-4 10 5 12" fill="none" stroke="#F1C49B" stroke-width="4" stroke-linecap="round" stroke-linejoin="round" />
<path d="M229 151 Q256 180 284 149" fill="none" stroke="#162B45" stroke-width="6" stroke-linecap="round" stroke-linejoin="round" /></g>
<g id="arm-left-rest" data-semantic-layer="true" style="display:none"><polyline points="309,222 323.0,257.0 337,292" fill="none" stroke="#162B45" stroke-width="32" stroke-linecap="round" stroke-linejoin="round"/><polyline points="309,222 323.0,257.0 337,292" fill="none" stroke="#9970A8" stroke-width="24" stroke-linecap="round" stroke-linejoin="round"/><polyline points="337,292 331,342" fill="none" stroke="#162B45" stroke-width="25" stroke-linecap="round" stroke-linejoin="round"/><polyline points="337,292 331,342" fill="none" stroke="#E2AD7D" stroke-width="18" stroke-linecap="round" stroke-linejoin="round"/><ellipse cx="331" cy="342" rx="11" ry="13" fill="#F1C49B" stroke="#162B45" stroke-width="5" /></g>
<g id="arm-right-rest" data-semantic-layer="true" style="display:none"><polyline points="203,222 189.0,257.0 175,292" fill="none" stroke="#162B45" stroke-width="32" stroke-linecap="round" stroke-linejoin="round"/><polyline points="203,222 189.0,257.0 175,292" fill="none" stroke="#9970A8" stroke-width="24" stroke-linecap="round" stroke-linejoin="round"/><polyline points="175,292 181,342" fill="none" stroke="#162B45" stroke-width="25" stroke-linecap="round" stroke-linejoin="round"/><polyline points="175,292 181,342" fill="none" stroke="#E2AD7D" stroke-width="18" stroke-linecap="round" stroke-linejoin="round"/><ellipse cx="181" cy="342" rx="11" ry="13" fill="#F1C49B" stroke="#162B45" stroke-width="5" /></g>
<g id="arm-left-greeting" data-semantic-layer="true"><polyline points="309,222 323.0,257.0 337,292" fill="none" stroke="#162B45" stroke-width="32" stroke-linecap="round" stroke-linejoin="round"/><polyline points="309,222 323.0,257.0 337,292" fill="none" stroke="#9970A8" stroke-width="24" stroke-linecap="round" stroke-linejoin="round"/><polyline points="337,292 331,342" fill="none" stroke="#162B45" stroke-width="25" stroke-linecap="round" stroke-linejoin="round"/><polyline points="337,292 331,342" fill="none" stroke="#E2AD7D" stroke-width="18" stroke-linecap="round" stroke-linejoin="round"/><ellipse cx="331" cy="342" rx="13" ry="15" fill="#F1C49B" stroke="#162B45" stroke-width="5" /><path d="M326.8 336 L317.2 315.8" fill="none" stroke="#E2AD7D" stroke-width="6" stroke-linecap="round" stroke-linejoin="round" /><path d="M329.6 336 L326.4 314.6" fill="none" stroke="#E2AD7D" stroke-width="6" stroke-linecap="round" stroke-linejoin="round" /><path d="M332.4 336 L335.6 314.6" fill="none" stroke="#E2AD7D" stroke-width="6" stroke-linecap="round" stroke-linejoin="round" /><path d="M335.2 336 L344.8 315.8" fill="none" stroke="#E2AD7D" stroke-width="6" stroke-linecap="round" stroke-linejoin="round" /></g>
<g id="arm-right-greeting" data-semantic-layer="true"><polyline points="203,222 185.0,206.0 167,190" fill="none" stroke="#162B45" stroke-width="32" stroke-linecap="round" stroke-linejoin="round"/><polyline points="203,222 185.0,206.0 167,190" fill="none" stroke="#9970A8" stroke-width="24" stroke-linecap="round" stroke-linejoin="round"/><polyline points="167,190 155,132" fill="none" stroke="#162B45" stroke-width="25" stroke-linecap="round" stroke-linejoin="round"/><polyline points="167,190 155,132" fill="none" stroke="#E2AD7D" stroke-width="18" stroke-linecap="round" stroke-linejoin="round"/><ellipse cx="155" cy="132" rx="13" ry="15" fill="#F1C49B" stroke="#162B45" stroke-width="5" /><path d="M150.8 126 L141.2 105.8" fill="none" stroke="#E2AD7D" stroke-width="6" stroke-linecap="round" stroke-linejoin="round" /><path d="M153.6 126 L150.4 104.6" fill="none" stroke="#E2AD7D" stroke-width="6" stroke-linecap="round" stroke-linejoin="round" /><path d="M156.4 126 L159.6 104.6" fill="none" stroke="#E2AD7D" stroke-width="6" stroke-linecap="round" stroke-linejoin="round" /><path d="M159.2 126 L168.8 105.8" fill="none" stroke="#E2AD7D" stroke-width="6" stroke-linecap="round" stroke-linejoin="round" /></g>
<g id="arm-left-farewell" data-semantic-layer="true" style="display:none"><polyline points="309,222 327.0,206.0 345,190" fill="none" stroke="#162B45" stroke-width="32" stroke-linecap="round" stroke-linejoin="round"/><polyline points="309,222 327.0,206.0 345,190" fill="none" stroke="#9970A8" stroke-width="24" stroke-linecap="round" stroke-linejoin="round"/><polyline points="345,190 357,132" fill="none" stroke="#162B45" stroke-width="25" stroke-linecap="round" stroke-linejoin="round"/><polyline points="345,190 357,132" fill="none" stroke="#E2AD7D" stroke-width="18" stroke-linecap="round" stroke-linejoin="round"/><ellipse cx="357" cy="132" rx="13" ry="15" fill="#F1C49B" stroke="#162B45" stroke-width="5" /><path d="M352.8 126 L343.2 105.8" fill="none" stroke="#E2AD7D" stroke-width="6" stroke-linecap="round" stroke-linejoin="round" /><path d="M355.6 126 L352.4 104.6" fill="none" stroke="#E2AD7D" stroke-width="6" stroke-linecap="round" stroke-linejoin="round" /><path d="M358.4 126 L361.6 104.6" fill="none" stroke="#E2AD7D" stroke-width="6" stroke-linecap="round" stroke-linejoin="round" /><path d="M361.2 126 L370.8 105.8" fill="none" stroke="#E2AD7D" stroke-width="6" stroke-linecap="round" stroke-linejoin="round" /></g>
<g id="arm-right-farewell" data-semantic-layer="true" style="display:none"><polyline points="203,222 189.0,257.0 175,292" fill="none" stroke="#162B45" stroke-width="32" stroke-linecap="round" stroke-linejoin="round"/><polyline points="203,222 189.0,257.0 175,292" fill="none" stroke="#9970A8" stroke-width="24" stroke-linecap="round" stroke-linejoin="round"/><polyline points="175,292 181,342" fill="none" stroke="#162B45" stroke-width="25" stroke-linecap="round" stroke-linejoin="round"/><polyline points="175,292 181,342" fill="none" stroke="#E2AD7D" stroke-width="18" stroke-linecap="round" stroke-linejoin="round"/><ellipse cx="181" cy="342" rx="13" ry="15" fill="#F1C49B" stroke="#162B45" stroke-width="5" /><path d="M176.8 336 L167.2 315.8" fill="none" stroke="#E2AD7D" stroke-width="6" stroke-linecap="round" stroke-linejoin="round" /><path d="M179.6 336 L176.4 314.6" fill="none" stroke="#E2AD7D" stroke-width="6" stroke-linecap="round" stroke-linejoin="round" /><path d="M182.4 336 L185.6 314.6" fill="none" stroke="#E2AD7D" stroke-width="6" stroke-linecap="round" stroke-linejoin="round" /><path d="M185.2 336 L194.8 315.8" fill="none" stroke="#E2AD7D" stroke-width="6" stroke-linecap="round" stroke-linejoin="round" /></g>
<g id="arm-left-agreement" data-semantic-layer="true" style="display:none"><polyline points="309,222 319.0,239.5 329,257" fill="none" stroke="#162B45" stroke-width="32" stroke-linecap="round" stroke-linejoin="round"/><polyline points="309,222 319.0,239.5 329,257" fill="none" stroke="#9970A8" stroke-width="24" stroke-linecap="round" stroke-linejoin="round"/><polyline points="329,257 301,232" fill="none" stroke="#162B45" stroke-width="25" stroke-linecap="round" stroke-linejoin="round"/><polyline points="329,257 301,232" fill="none" stroke="#E2AD7D" stroke-width="18" stroke-linecap="round" stroke-linejoin="round"/><ellipse cx="301" cy="232" rx="11" ry="13" fill="#F1C49B" stroke="#162B45" stroke-width="5" /></g>
<g id="arm-right-agreement" data-semantic-layer="true" style="display:none"><polyline points="203,222 193.0,239.5 183,257" fill="none" stroke="#162B45" stroke-width="32" stroke-linecap="round" stroke-linejoin="round"/><polyline points="203,222 193.0,239.5 183,257" fill="none" stroke="#9970A8" stroke-width="24" stroke-linecap="round" stroke-linejoin="round"/><polyline points="183,257 211,232" fill="none" stroke="#162B45" stroke-width="25" stroke-linecap="round" stroke-linejoin="round"/><polyline points="183,257 211,232" fill="none" stroke="#E2AD7D" stroke-width="18" stroke-linecap="round" stroke-linejoin="round"/><ellipse cx="211" cy="232" rx="11" ry="13" fill="#F1C49B" stroke="#162B45" stroke-width="5" /></g>
<g id="arm-left-disagreement" data-semantic-layer="true" style="display:none"><polyline points="309,222 317.0,244.5 325,267" fill="none" stroke="#162B45" stroke-width="32" stroke-linecap="round" stroke-linejoin="round"/><polyline points="309,222 317.0,244.5 325,267" fill="none" stroke="#9970A8" stroke-width="24" stroke-linecap="round" stroke-linejoin="round"/><polyline points="325,267 218,295" fill="none" stroke="#162B45" stroke-width="25" stroke-linecap="round" stroke-linejoin="round"/><polyline points="325,267 218,295" fill="none" stroke="#E2AD7D" stroke-width="18" stroke-linecap="round" stroke-linejoin="round"/><ellipse cx="218" cy="295" rx="11" ry="13" fill="#F1C49B" stroke="#162B45" stroke-width="5" /></g>
<g id="arm-right-disagreement" data-semantic-layer="true" style="display:none"><polyline points="203,222 195.0,244.5 187,267" fill="none" stroke="#162B45" stroke-width="32" stroke-linecap="round" stroke-linejoin="round"/><polyline points="203,222 195.0,244.5 187,267" fill="none" stroke="#9970A8" stroke-width="24" stroke-linecap="round" stroke-linejoin="round"/><polyline points="187,267 294,295" fill="none" stroke="#162B45" stroke-width="25" stroke-linecap="round" stroke-linejoin="round"/><polyline points="187,267 294,295" fill="none" stroke="#E2AD7D" stroke-width="18" stroke-linecap="round" stroke-linejoin="round"/><ellipse cx="294" cy="295" rx="11" ry="13" fill="#F1C49B" stroke="#162B45" stroke-width="5" /></g>
<g id="arm-left-gratitude" data-semantic-layer="true" style="display:none"><polyline points="309,222 318.0,245.5 327,269" fill="none" stroke="#162B45" stroke-width="32" stroke-linecap="round" stroke-linejoin="round"/><polyline points="309,222 318.0,245.5 327,269" fill="none" stroke="#9970A8" stroke-width="24" stroke-linecap="round" stroke-linejoin="round"/><polyline points="327,269 266,284" fill="none" stroke="#162B45" stroke-width="25" stroke-linecap="round" stroke-linejoin="round"/><polyline points="327,269 266,284" fill="none" stroke="#E2AD7D" stroke-width="18" stroke-linecap="round" stroke-linejoin="round"/><ellipse cx="266" cy="284" rx="11" ry="13" fill="#F1C49B" stroke="#162B45" stroke-width="5" /></g>
<g id="arm-right-gratitude" data-semantic-layer="true" style="display:none"><polyline points="203,222 194.0,245.5 185,269" fill="none" stroke="#162B45" stroke-width="32" stroke-linecap="round" stroke-linejoin="round"/><polyline points="203,222 194.0,245.5 185,269" fill="none" stroke="#9970A8" stroke-width="24" stroke-linecap="round" stroke-linejoin="round"/><polyline points="185,269 246,284" fill="none" stroke="#162B45" stroke-width="25" stroke-linecap="round" stroke-linejoin="round"/><polyline points="185,269 246,284" fill="none" stroke="#E2AD7D" stroke-width="18" stroke-linecap="round" stroke-linejoin="round"/><ellipse cx="246" cy="284" rx="11" ry="13" fill="#F1C49B" stroke="#162B45" stroke-width="5" /></g>
<g id="arm-left-concern" data-semantic-layer="true" style="display:none"><polyline points="309,222 321.0,233.0 333,244" fill="none" stroke="#162B45" stroke-width="32" stroke-linecap="round" stroke-linejoin="round"/><polyline points="309,222 321.0,233.0 333,244" fill="none" stroke="#9970A8" stroke-width="24" stroke-linecap="round" stroke-linejoin="round"/><polyline points="333,244 294,158" fill="none" stroke="#162B45" stroke-width="25" stroke-linecap="round" stroke-linejoin="round"/><polyline points="333,244 294,158" fill="none" stroke="#E2AD7D" stroke-width="18" stroke-linecap="round" stroke-linejoin="round"/><ellipse cx="294" cy="158" rx="11" ry="13" fill="#F1C49B" stroke="#162B45" stroke-width="5" /></g>
<g id="arm-right-concern" data-semantic-layer="true" style="display:none"><polyline points="203,222 191.0,233.0 179,244" fill="none" stroke="#162B45" stroke-width="32" stroke-linecap="round" stroke-linejoin="round"/><polyline points="203,222 191.0,233.0 179,244" fill="none" stroke="#9970A8" stroke-width="24" stroke-linecap="round" stroke-linejoin="round"/><polyline points="179,244 218,158" fill="none" stroke="#162B45" stroke-width="25" stroke-linecap="round" stroke-linejoin="round"/><polyline points="179,244 218,158" fill="none" stroke="#E2AD7D" stroke-width="18" stroke-linecap="round" stroke-linejoin="round"/><ellipse cx="218" cy="158" rx="11" ry="13" fill="#F1C49B" stroke="#162B45" stroke-width="5" /></g>
<g id="arm-left-surprise" data-semantic-layer="true" style="display:none"><polyline points="309,222 323.0,226.0 337,230" fill="none" stroke="#162B45" stroke-width="32" stroke-linecap="round" stroke-linejoin="round"/><polyline points="309,222 323.0,226.0 337,230" fill="none" stroke="#9970A8" stroke-width="24" stroke-linecap="round" stroke-linejoin="round"/><polyline points="337,230 314,145" fill="none" stroke="#162B45" stroke-width="25" stroke-linecap="round" stroke-linejoin="round"/><polyline points="337,230 314,145" fill="none" stroke="#E2AD7D" stroke-width="18" stroke-linecap="round" stroke-linejoin="round"/><ellipse cx="314" cy="145" rx="13" ry="15" fill="#F1C49B" stroke="#162B45" stroke-width="5" /><path d="M309.8 139 L300.2 118.8" fill="none" stroke="#E2AD7D" stroke-width="6" stroke-linecap="round" stroke-linejoin="round" /><path d="M312.6 139 L309.4 117.6" fill="none" stroke="#E2AD7D" stroke-width="6" stroke-linecap="round" stroke-linejoin="round" /><path d="M315.4 139 L318.6 117.6" fill="none" stroke="#E2AD7D" stroke-width="6" stroke-linecap="round" stroke-linejoin="round" /><path d="M318.2 139 L327.8 118.8" fill="none" stroke="#E2AD7D" stroke-width="6" stroke-linecap="round" stroke-linejoin="round" /></g>
<g id="arm-right-surprise" data-semantic-layer="true" style="display:none"><polyline points="203,222 189.0,226.0 175,230" fill="none" stroke="#162B45" stroke-width="32" stroke-linecap="round" stroke-linejoin="round"/><polyline points="203,222 189.0,226.0 175,230" fill="none" stroke="#9970A8" stroke-width="24" stroke-linecap="round" stroke-linejoin="round"/><polyline points="175,230 198,145" fill="none" stroke="#162B45" stroke-width="25" stroke-linecap="round" stroke-linejoin="round"/><polyline points="175,230 198,145" fill="none" stroke="#E2AD7D" stroke-width="18" stroke-linecap="round" stroke-linejoin="round"/><ellipse cx="198" cy="145" rx="13" ry="15" fill="#F1C49B" stroke="#162B45" stroke-width="5" /><path d="M193.8 139 L184.2 118.8" fill="none" stroke="#E2AD7D" stroke-width="6" stroke-linecap="round" stroke-linejoin="round" /><path d="M196.6 139 L193.4 117.6" fill="none" stroke="#E2AD7D" stroke-width="6" stroke-linecap="round" stroke-linejoin="round" /><path d="M199.4 139 L202.6 117.6" fill="none" stroke="#E2AD7D" stroke-width="6" stroke-linecap="round" stroke-linejoin="round" /><path d="M202.2 139 L211.8 118.8" fill="none" stroke="#E2AD7D" stroke-width="6" stroke-linecap="round" stroke-linejoin="round" /></g>
<g id="arm-left-celebration" data-semantic-layer="true" style="display:none"><polyline points="309,222 326.0,201.0 343,180" fill="none" stroke="#162B45" stroke-width="32" stroke-linecap="round" stroke-linejoin="round"/><polyline points="309,222 326.0,201.0 343,180" fill="none" stroke="#9970A8" stroke-width="24" stroke-linecap="round" stroke-linejoin="round"/><polyline points="343,180 361,118" fill="none" stroke="#162B45" stroke-width="25" stroke-linecap="round" stroke-linejoin="round"/><polyline points="343,180 361,118" fill="none" stroke="#E2AD7D" stroke-width="18" stroke-linecap="round" stroke-linejoin="round"/><ellipse cx="361" cy="118" rx="13" ry="15" fill="#F1C49B" stroke="#162B45" stroke-width="5" /><path d="M356.8 112 L347.2 91.8" fill="none" stroke="#E2AD7D" stroke-width="6" stroke-linecap="round" stroke-linejoin="round" /><path d="M359.6 112 L356.4 90.6" fill="none" stroke="#E2AD7D" stroke-width="6" stroke-linecap="round" stroke-linejoin="round" /><path d="M362.4 112 L365.6 90.6" fill="none" stroke="#E2AD7D" stroke-width="6" stroke-linecap="round" stroke-linejoin="round" /><path d="M365.2 112 L374.8 91.8" fill="none" stroke="#E2AD7D" stroke-width="6" stroke-linecap="round" stroke-linejoin="round" /></g>
<g id="arm-right-celebration" data-semantic-layer="true" style="display:none"><polyline points="203,222 186.0,201.0 169,180" fill="none" stroke="#162B45" stroke-width="32" stroke-linecap="round" stroke-linejoin="round"/><polyline points="203,222 186.0,201.0 169,180" fill="none" stroke="#9970A8" stroke-width="24" stroke-linecap="round" stroke-linejoin="round"/><polyline points="169,180 151,118" fill="none" stroke="#162B45" stroke-width="25" stroke-linecap="round" stroke-linejoin="round"/><polyline points="169,180 151,118" fill="none" stroke="#E2AD7D" stroke-width="18" stroke-linecap="round" stroke-linejoin="round"/><ellipse cx="151" cy="118" rx="13" ry="15" fill="#F1C49B" stroke="#162B45" stroke-width="5" /><path d="M146.8 112 L137.2 91.8" fill="none" stroke="#E2AD7D" stroke-width="6" stroke-linecap="round" stroke-linejoin="round" /><path d="M149.6 112 L146.4 90.6" fill="none" stroke="#E2AD7D" stroke-width="6" stroke-linecap="round" stroke-linejoin="round" /><path d="M152.4 112 L155.6 90.6" fill="none" stroke="#E2AD7D" stroke-width="6" stroke-linecap="round" stroke-linejoin="round" /><path d="M155.2 112 L164.8 91.8" fill="none" stroke="#E2AD7D" stroke-width="6" stroke-linecap="round" stroke-linejoin="round" /></g>
<g id="device-hearing-case-right" data-semantic-layer="true"><ellipse cx="183" cy="108" rx="7" ry="11" fill="#D5E6E4" stroke="#162B45" stroke-width="4" /></g>
<g id="device-hearing-tube-right" data-semantic-layer="true"><path d="M200 93 Q179 95 183 123" fill="none" stroke="#5BD1C6" stroke-width="7" stroke-linecap="round" stroke-linejoin="round" /></g>
<g id="device-hearing-earpiece-right" data-semantic-layer="true"><path d="M183 123 Q187 137 195 140" fill="none" stroke="#5BD1C6" stroke-width="9" stroke-linecap="round" stroke-linejoin="round" /></g>
</svg>
