<svg xmlns="http://www.w3.org/2000/svg" width="512" height="512" viewBox="0 0 512 512">
<defs><linearGradient id="softShade" x1="0" y1="0" x2="1" y2="1"><stop offset="0" stop-color="#FFFFFF" stop-opacity=".24"/><stop offset="1" stop-color="#10243A" stop-opacity=".14"/></linearGradient></defs>
<ellipse cx="256" cy="472" rx="180" ry="14" fill="#AAB2BD" stroke="none" stroke-width="0" opacity=".65"/><ellipse cx="254" cy="394" rx="76" ry="76" fill="none" stroke="#162B45" stroke-width="12" /><ellipse cx="254" cy="394" rx="60" ry="60" fill="none" stroke="#7F8992" stroke-width="5" /><path d="M220 292 L230 379 L308 379 L318 306 M233 322 L215 450" fill="none" stroke="#434B52" stroke-width="10" stroke-linecap="round" stroke-linejoin="round" /><path d="M258 302 Q282 338 260 370 L287 407" fill="none" stroke="#315D82" stroke-width="32" stroke-linecap="round" stroke-linejoin="round" /><rect x="269" y="394" width="55" height="27" rx="13" fill="#E8D8B9" stroke="#162B45" stroke-width="6" /><rect x="227.0" y="195" width="62.0" height="125" rx="25" fill="#D9C6A5" stroke="#162B45" stroke-width="7" /><path d="M239.4 215 L276.6 215" fill="none" stroke="#65704D" stroke-width="7" stroke-linecap="round" stroke-linejoin="round" /><path d="M258 230 Q293 290 278 345" fill="none" stroke="#B87542" stroke-width="20" stroke-linecap="round" stroke-linejoin="round" /><ellipse cx="258" cy="128" rx="33.64" ry="62" fill="#B87542" stroke="#162B45" stroke-width="7" /><g transform="translate(2 0) scale(.64 1)"><path d="M200 110 L202 85 Q234 43 317 93 Q291 76 251 70 Q219 74 200 110 Z" fill="#171719" stroke="#162B45" stroke-width="6" stroke-linecap="round" stroke-linejoin="round" /><path d="M239 75 Q261 79 284 93" fill="none" stroke="#4B3B35" stroke-width="4" stroke-linecap="round" stroke-linejoin="round" /></g><ellipse cx="269.6" cy="130" rx="9" ry="12" fill="#FFF8EE" stroke="#162B45" stroke-width="4" /><ellipse cx="271.92" cy="132" rx="4" ry="6" fill="#162B45" stroke="#162B45" stroke-width="0" /><path d="M287.0 136 q12 8 0 16" fill="none" stroke="#D89965" stroke-width="5" stroke-linecap="round" stroke-linejoin="round" /><path d="M260 165 Q276 176 289 162" fill="none" stroke="#162B45" stroke-width="5" stroke-linecap="round" stroke-linejoin="round" />
</svg>
