<svg xmlns="http://www.w3.org/2000/svg" width="512" height="512" viewBox="0 0 512 512">
<defs><linearGradient id="softShade" x1="0" y1="0" x2="1" y2="1"><stop offset="0" stop-color="#FFFFFF" stop-opacity=".24"/><stop offset="1" stop-color="#10243A" stop-opacity=".14"/></linearGradient></defs>
<ellipse cx="256" cy="472" rx="180" ry="14" fill="#AAB2BD" stroke="none" stroke-width="0" opacity=".65"/><g transform="translate(38 0) scale(.86 1)"><ellipse cx="376" cy="398" rx="66" ry="66" fill="none" stroke="#162B45" stroke-width="12" /><ellipse cx="376" cy="398" rx="52" ry="52" fill="none" stroke="#7F8992" stroke-width="5" /><path d="M376 398 L428.0 398.0" fill="none" stroke="#8B949C" stroke-width="2" stroke-linecap="round" stroke-linejoin="round" /><path d="M376 398 L421.0 424.0" fill="none" stroke="#8B949C" stroke-width="2" stroke-linecap="round" stroke-linejoin="round" /><path d="M376 398 L402.0 443.0" fill="none" stroke="#8B949C" stroke-width="2" stroke-linecap="round" stroke-linejoin="round" /><path d="M376 398 L376.0 450.0" fill="none" stroke="#8B949C" stroke-width="2" stroke-linecap="round" stroke-linejoin="round" /><path d="M376 398 L350.0 443.0" fill="none" stroke="#8B949C" stroke-width="2" stroke-linecap="round" stroke-linejoin="round" /><path d="M376 398 L331.0 424.0" fill="none" stroke="#8B949C" stroke-width="2" stroke-linecap="round" stroke-linejoin="round" /><path d="M376 398 L324.0 398.0" fill="none" stroke="#8B949C" stroke-width="2" stroke-linecap="round" stroke-linejoin="round" /><path d="M376 398 L331.0 372.0" fill="none" stroke="#8B949C" stroke-width="2" stroke-linecap="round" stroke-linejoin="round" /><path d="M376 398 L350.0 353.0" fill="none" stroke="#8B949C" stroke-width="2" stroke-linecap="round" stroke-linejoin="round" /><path d="M376 398 L376.0 346.0" fill="none" stroke="#8B949C" stroke-width="2" stroke-linecap="round" stroke-linejoin="round" /><path d="M376 398 L402.0 353.0" fill="none" stroke="#8B949C" stroke-width="2" stroke-linecap="round" stroke-linejoin="round" /><path d="M376 398 L421.0 372.0" fill="none" stroke="#8B949C" stroke-width="2" stroke-linecap="round" stroke-linejoin="round" /><ellipse cx="154" cy="393" rx="78" ry="78" fill="none" stroke="#162B45" stroke-width="12" /><ellipse cx="154" cy="393" rx="62" ry="62" fill="none" stroke="#7F8992" stroke-width="5" /><path d="M154 393 L216.0 393.0" fill="none" stroke="#8B949C" stroke-width="2" stroke-linecap="round" stroke-linejoin="round" /><path d="M154 393 L207.7 424.0" fill="none" stroke="#8B949C" stroke-width="2" stroke-linecap="round" stroke-linejoin="round" /><path d="M154 393 L185.0 446.7" fill="none" stroke="#8B949C" stroke-width="2" stroke-linecap="round" stroke-linejoin="round" /><path d="M154 393 L154.0 455.0" fill="none" stroke="#8B949C" stroke-width="2" stroke-linecap="round" stroke-linejoin="round" /><path d="M154 393 L123.0 446.7" fill="none" stroke="#8B949C" stroke-width="2" stroke-linecap="round" stroke-linejoin="round" /><path d="M154 393 L100.3 424.0" fill="none" stroke="#8B949C" stroke-width="2" stroke-linecap="round" stroke-linejoin="round" /><path d="M154 393 L92.0 393.0" fill="none" stroke="#8B949C" stroke-width="2" stroke-linecap="round" stroke-linejoin="round" /><path d="M154 393 L100.3 362.0" fill="none" stroke="#8B949C" stroke-width="2" stroke-linecap="round" stroke-linejoin="round" /><path d="M154 393 L123.0 339.3" fill="none" stroke="#8B949C" stroke-width="2" stroke-linecap="round" stroke-linejoin="round" /><path d="M154 393 L154.0 331.0" fill="none" stroke="#8B949C" stroke-width="2" stroke-linecap="round" stroke-linejoin="round" /><path d="M154 393 L185.0 339.3" fill="none" stroke="#8B949C" stroke-width="2" stroke-linecap="round" stroke-linejoin="round" /><path d="M154 393 L207.7 362.0" fill="none" stroke="#8B949C" stroke-width="2" stroke-linecap="round" stroke-linejoin="round" /><path d="M168 265 L182 381 L350 382 L362 300" fill="none" stroke="#434B52" stroke-width="12" stroke-linecap="round" stroke-linejoin="round" /><rect x="182" y="292" width="170" height="28" rx="12" fill="#252D34" stroke="#162B45" stroke-width="5" /><path d="M182 306 L170 450 M350 306 L372 450" fill="none" stroke="#5F6870" stroke-width="7" stroke-linecap="round" stroke-linejoin="round" /><ellipse cx="170" cy="451" rx="18" ry="18" fill="#242A30" stroke="#162B45" stroke-width="5" /><ellipse cx="373" cy="451" rx="18" ry="18" fill="#242A30" stroke="#162B45" stroke-width="5" /><path d="M208 412 L340 412 L354 431 L225 431 Z" fill="#353D44" stroke="#162B45" stroke-width="6" stroke-linecap="round" stroke-linejoin="round" /><path d="M276 300 Q294 334 278 365 L294 404" fill="none" stroke="#315D82" stroke-width="34" stroke-linecap="round" stroke-linejoin="round" /><rect x="269" y="392" width="58" height="28" rx="13" fill="#E8D8B9" stroke="#162B45" stroke-width="6" /><path d="M236 300 Q218 334 236 365 L220 404" fill="none" stroke="#315D82" stroke-width="34" stroke-linecap="round" stroke-linejoin="round" /><rect x="191" y="392" width="58" height="28" rx="13" fill="#E8D8B9" stroke="#162B45" stroke-width="6" /><rect x="194" y="195" width="124" height="125" rx="30" fill="#D9C6A5" stroke="#162B45" stroke-width="7" /><path d="M212 213 Q256.0 238 300 213" fill="none" stroke="#65704D" stroke-width="8" stroke-linecap="round" stroke-linejoin="round" /><path d="M216.32 213 Q256.0 203 295.68 213" fill="none" stroke="#294E72" stroke-width="5" stroke-linecap="round" stroke-linejoin="round" /><path d="M212 207 L248.56 306 M300 207 L263.44 306" fill="none" stroke="#65704D" stroke-width="8" stroke-linecap="round" stroke-linejoin="round" /><path d="M248.56 217 L263.44 217 L263.44 302 L248.56 302 Z" fill="#294E72" stroke="#162B45" stroke-width="3" stroke-linecap="round" stroke-linejoin="round" /><polyline points="310,229 324.0,265.0 338,301" fill="none" stroke="#162B45" stroke-width="32" stroke-linecap="round" stroke-linejoin="round"/><polyline points="310,229 324.0,265.0 338,301" fill="none" stroke="#D9C6A5" stroke-width="24" stroke-linecap="round" stroke-linejoin="round"/><polyline points="338,301 328,332" fill="none" stroke="#162B45" stroke-width="25" stroke-linecap="round" stroke-linejoin="round"/><polyline points="338,301 328,332" fill="none" stroke="#B87542" stroke-width="18" stroke-linecap="round" stroke-linejoin="round"/><ellipse cx="328" cy="332" rx="11" ry="13" fill="#D89965" stroke="#162B45" stroke-width="5" /><polyline points="202,229 188.0,265.0 174,301" fill="none" stroke="#162B45" stroke-width="32" stroke-linecap="round" stroke-linejoin="round"/><polyline points="202,229 188.0,265.0 174,301" fill="none" stroke="#D9C6A5" stroke-width="24" stroke-linecap="round" stroke-linejoin="round"/><polyline points="174,301 184,332" fill="none" stroke="#162B45" stroke-width="25" stroke-linecap="round" stroke-linejoin="round"/><polyline points="174,301 184,332" fill="none" stroke="#B87542" stroke-width="18" stroke-linecap="round" stroke-linejoin="round"/><ellipse cx="184" cy="332" rx="11" ry="13" fill="#D89965" stroke="#162B45" stroke-width="5" /></g><ellipse cx="269" cy="128" rx="52.2" ry="62" fill="#B87542" stroke="#162B45" stroke-width="7" /><g transform="translate(13 0) scale(.92 1)"><path d="M200 110 L202 85 Q234 43 317 93 Q291 76 251 70 Q219 74 200 110 Z" fill="#171719" stroke="#162B45" stroke-width="6" stroke-linecap="round" stroke-linejoin="round" /><path d="M239 75 Q261 79 284 93" fill="none" stroke="#4B3B35" stroke-width="4" stroke-linecap="round" stroke-linejoin="round" /></g><ellipse cx="254" cy="132" rx="9" ry="12" fill="#FFF8EE" stroke="#162B45" stroke-width="4" /><ellipse cx="293" cy="132" rx="7" ry="10" fill="#FFF8EE" stroke="#162B45" stroke-width="4" /><ellipse cx="257" cy="134" rx="4" ry="6" fill="#162B45" stroke="#162B45" stroke-width="0" /><ellipse cx="295" cy="134" rx="3" ry="5" fill="#162B45" stroke="#162B45" stroke-width="0" /><path d="M273 140 Q287 146 278 152" fill="none" stroke="#D89965" stroke-width="4" stroke-linecap="round" stroke-linejoin="round" /><path d="M252 164 Q277 180 299 159" fill="none" stroke="#162B45" stroke-width="6" stroke-linecap="round" stroke-linejoin="round" />
</svg>
