<svg xmlns="http://www.w3.org/2000/svg" width="512" height="512" viewBox="0 0 512 512">
<g transform="translate(290 224) scale(0.96)"><g transform="translate(-112 24) scale(.62)"><path d="M-65 25 Q-79 -32 -35 -61 Q15 -91 59 -48 Q88 -20 59 20 Q47 36 25 26 Q5 20 2 43 Q-3 68 -30 69 Q-58 66 -65 25 Z" fill="#FFF3D3" stroke="#173257" stroke-width="8" stroke-linejoin="round" stroke-linecap="round"/><circle cx="-39" cy="-24" r="11" fill="#E34A3B"/><circle cx="-8" cy="-47" r="11" fill="#F7BF32"/><circle cx="25" cy="-42" r="11" fill="#168A62"/><circle cx="48" cy="-12" r="11" fill="#287BD1"/><path d="M19 66 L70 -58" stroke="#8A5BD7" stroke-width="15" stroke-linecap="round"/><path d="M70 -58 L77 -78 L58 -63 Z" fill="#173257"/></g></g>
</svg>
