<svg xmlns="http://www.w3.org/2000/svg" width="512" height="512" viewBox="0 0 512 512">
<g transform="translate(220 268) scale(0.79)"><g transform="translate(112 24) scale(.62)"><path d="M-67 -59 H-14 Q-23 -37 -5 -28 Q18 -18 25 -41 Q28 -52 19 -59 H67 V-11 Q44 -20 35 2 Q27 26 53 32 Q62 34 67 28 V67 H17 Q25 45 5 38 Q-19 30 -25 53 Q-28 63 -20 67 H-67 V22 Q-45 33 -35 12 Q-27 -11 -52 -18 Q-60 -20 -67 -14 Z" fill="#168A62" stroke="#173257" stroke-width="8" stroke-linejoin="round" stroke-linecap="round"/></g></g>
</svg>
