<svg xmlns="http://www.w3.org/2000/svg" width="512" height="512" viewBox="0 0 512 512">
<g transform="translate(181 228) scale(0.73)"><circle cx="-32" cy="-29" r="11" fill="#173257"/><circle cx="32" cy="-29" r="11" fill="#173257"/><circle cx="-29" cy="-33" r="3" fill="#FFFFFF"/><circle cx="35" cy="-33" r="3" fill="#FFFFFF"/><circle cx="-33" cy="-29" r="27" fill="none" stroke="#173257" stroke-width="7"/><circle cx="33" cy="-29" r="27" fill="none" stroke="#173257" stroke-width="7"/><path d="M-6 -29 H6" stroke="#173257" stroke-width="7" stroke-linecap="round"/><path d="M-15 27 Q0 12 15 27" fill="none" stroke="#173257" stroke-width="6" stroke-linecap="round"/><path d="M62 -55 Q79 -34 64 -17 Q50 -35 62 -55 Z" fill="#287BD1" opacity=".8"/></g><g transform="translate(331 228) scale(0.73)"><circle cx="-32" cy="-29" r="11" fill="#173257"/><circle cx="32" cy="-29" r="11" fill="#173257"/><circle cx="-29" cy="-33" r="3" fill="#FFFFFF"/><circle cx="35" cy="-33" r="3" fill="#FFFFFF"/><circle cx="-33" cy="-29" r="27" fill="none" stroke="#173257" stroke-width="7"/><circle cx="33" cy="-29" r="27" fill="none" stroke="#173257" stroke-width="7"/><path d="M-6 -29 H6" stroke="#173257" stroke-width="7" stroke-linecap="round"/><path d="M-15 27 Q0 12 15 27" fill="none" stroke="#173257" stroke-width="6" stroke-linecap="round"/><path d="M62 -55 Q79 -34 64 -17 Q50 -35 62 -55 Z" fill="#287BD1" opacity=".8"/></g>
</svg>
