<svg xmlns="http://www.w3.org/2000/svg" width="512" height="512" viewBox="0 0 512 512">
<g transform="translate(181 271) scale(0.73)"><path d="M-55 54 Q-91 75 -72 109 Q-45 92 -34 67" fill="#653317" stroke="#173257" stroke-width="8" stroke-linejoin="round"/><path d="M55 54 Q87 71 72 106 Q45 91 34 67" fill="#653317" stroke="#173257" stroke-width="8" stroke-linejoin="round"/><path d="M-69 48 Q-85 68 -76 91 M69 48 Q85 68 76 91" fill="none" stroke="#D58A3D" stroke-width="8" stroke-linecap="round"/><path d="M-61 45 Q-74 66 -66 79 M61 45 Q74 66 66 79" fill="none" stroke="#FFF1CC" stroke-width="4" opacity=".7"/></g><g transform="translate(331 271) scale(0.73)"><path d="M-55 54 Q-91 75 -72 109 Q-45 92 -34 67" fill="#653317" stroke="#173257" stroke-width="8" stroke-linejoin="round"/><path d="M55 54 Q87 71 72 106 Q45 91 34 67" fill="#653317" stroke="#173257" stroke-width="8" stroke-linejoin="round"/><path d="M-69 48 Q-85 68 -76 91 M69 48 Q85 68 76 91" fill="none" stroke="#D58A3D" stroke-width="8" stroke-linecap="round"/><path d="M-61 45 Q-74 66 -66 79 M61 45 Q74 66 66 79" fill="none" stroke="#FFF1CC" stroke-width="4" opacity=".7"/></g>
</svg>
