<svg xmlns="http://www.w3.org/2000/svg" width="512" height="512" viewBox="0 0 512 512">
<g transform="translate(290 224) scale(0.96)"><g transform="translate(112 24) scale(.62)"><path d="M-4 57 Q-38 71 -48 39 Q-78 27 -65 -8 Q-78 -40 -45 -50 Q-31 -78 -3 -59 Q25 -77 42 -51 Q75 -43 64 -10 Q78 20 48 36 Q40 67 8 56 Z" fill="#E34A3B" stroke="#173257" stroke-width="8" stroke-linejoin="round" stroke-linecap="round"/><path d="M-4 -55 V56 M-36 -40 Q-10 -26 -31 -5 Q-47 13 -25 34 M31 -42 Q9 -26 31 -5 Q47 14 24 35" fill="none" stroke="#287BD1" stroke-width="8" stroke-linecap="round"/></g></g>
</svg>
