<svg xmlns="http://www.w3.org/2000/svg" width="512" height="512" viewBox="0 0 512 512">
<polygon points="84,179 88,194 103,198 88,202 84,217 80,202 65,198 80,194" fill="#FFD25F" stroke="#20324B" stroke-width="5" stroke-linejoin="round"/><circle cx="433" cy="335" r="10" fill="#F0EAFF" stroke="#20324B" stroke-width="5"/>
<path d="M174 205 L238 232 M338 205 L274 232" fill="none" stroke="#20324B" stroke-width="14" stroke-linecap="round"/>
<ellipse cx="210" cy="252" rx="23" ry="26" fill="#FFFDF8" stroke="#20324B" stroke-width="8"/>
<ellipse cx="302" cy="252" rx="23" ry="26" fill="#FFFDF8" stroke="#20324B" stroke-width="8"/>
<circle cx="215" cy="256" r="10" fill="#20324B"/><circle cx="297" cy="256" r="10" fill="#20324B"/>
<path d="M220 326 Q256 304 292 326" fill="none" stroke="#20324B" stroke-width="13" stroke-linecap="round"/>
<path d="M115 178 Q75 156 102 124 M397 178 Q437 156 410 124" fill="none" stroke="#6553C7" stroke-width="13" stroke-linecap="round"/>
</svg>
