<svg xmlns="http://www.w3.org/2000/svg" width="512" height="512" viewBox="0 0 512 512">
<polygon points="84,179 88,194 103,198 88,202 84,217 80,202 65,198 80,194" fill="#FFD25F" stroke="#20324B" stroke-width="5" stroke-linejoin="round"/><circle cx="433" cy="335" r="10" fill="#F0EAFF" stroke="#20324B" stroke-width="5"/>
<path d="M174 205 Q208 181 242 203 M270 203 Q304 181 338 205" fill="none" stroke="#20324B" stroke-width="11" stroke-linecap="round"/>
<path d="M180 239 Q207 217 234 239 Q207 257 180 239 Z" fill="#FFFDF8" stroke="#20324B" stroke-width="8" stroke-linejoin="round"/>
<path d="M278 239 Q305 217 332 239 Q305 257 278 239 Z" fill="#FFFDF8" stroke="#20324B" stroke-width="8" stroke-linejoin="round"/>
<circle cx="211" cy="235" r="9" fill="#20324B"/><circle cx="309" cy="235" r="9" fill="#20324B"/>
<path d="M180 283 Q201 270 222 283 M290 283 Q311 270 332 283" fill="none" stroke="#FF8FA8" stroke-width="9" stroke-linecap="round"/>
<path d="M211 306 Q250 342 304 296" fill="none" stroke="#20324B" stroke-width="13" stroke-linecap="round"/>
<circle cx="256" cy="372" r="28" fill="#FFD25F" stroke="#20324B" stroke-width="7"/>
<polygon points="256,358 260,368 270,372 260,376 256,386 252,376 242,372 252,368" fill="#FFFDF8" stroke="#20324B" stroke-width="5" stroke-linejoin="round"/>
<polygon points="168,141 172,152 183,156 172,160 168,171 164,160 153,156 164,152" fill="#FFD25F" stroke="#20324B" stroke-width="5" stroke-linejoin="round"/>
<polygon points="256,110 261,128 279,133 261,138 256,156 251,138 233,133 251,128" fill="#F0EAFF" stroke="#20324B" stroke-width="5" stroke-linejoin="round"/>
<polygon points="348,141 352,152 363,156 352,160 348,171 344,160 333,156 344,152" fill="#FFD25F" stroke="#20324B" stroke-width="5" stroke-linejoin="round"/>
</svg>
