<svg xmlns="http://www.w3.org/2000/svg" width="512" height="512" viewBox="0 0 512 512">
<defs><linearGradient id="softShade" x1="0" y1="0" x2="1" y2="1"><stop offset="0" stop-color="#FFFFFF" stop-opacity=".24"/><stop offset="1" stop-color="#10243A" stop-opacity=".14"/></linearGradient></defs>
<path d="M218.35 90 Q232.35 83 246.35 90" fill="none" stroke="#162B45" stroke-width="5" stroke-linecap="round" stroke-linejoin="round" />
<path d="M265.65 90 Q279.65 83 293.65 90" fill="none" stroke="#162B45" stroke-width="5" stroke-linecap="round" stroke-linejoin="round" />
<ellipse cx="232.35" cy="108" rx="9" ry="11" fill="#FFF8EE" stroke="#162B45" stroke-width="4" />
<ellipse cx="279.65" cy="108" rx="9" ry="11" fill="#FFF8EE" stroke="#162B45" stroke-width="4" />
<ellipse cx="233.35" cy="110" rx="4" ry="6" fill="#162B45" stroke="#162B45" stroke-width="0" />
<ellipse cx="280.65" cy="110" rx="4" ry="6" fill="#162B45" stroke="#162B45" stroke-width="0" />
<path d="M256 116 q-4 10 4 12" fill="none" stroke="#F0C9AF" stroke-width="4" stroke-linecap="round" stroke-linejoin="round" />
<ellipse cx="224.1" cy="128" rx="10" ry="6" fill="#E58A78" stroke="none" stroke-width="0" opacity=".45"/>
<ellipse cx="287.9" cy="128" rx="10" ry="6" fill="#E58A78" stroke="none" stroke-width="0" opacity=".45"/>
<path d="M231 139 Q256 159 283 135" fill="none" stroke="#162B45" stroke-width="6" stroke-linecap="round" stroke-linejoin="round" />
<path d="M241 143 Q256 152 272 140" fill="none" stroke="#FFFFFF" stroke-width="3" stroke-linecap="round" stroke-linejoin="round" />
</svg>
