<svg xmlns="http://www.w3.org/2000/svg" width="512" height="512" viewBox="0 0 512 512">
<path d="M132 436 Q202 450 250 439 M273 439 Q330 449 381 432" fill="none" stroke="#5E8BFF" stroke-width="10" stroke-linecap="round" opacity=".26"/>
<path d="M68 118 q34 -29 58 4 M77 151 q30 -18 49 8 M444 342 q-34 29 -58 -4 M435 309 q-30 18 -49 -8" fill="none" stroke="#5E8BFF" stroke-width="9" stroke-linecap="round"/><polygon points="90,339 93,349 103,352 93,355 90,365 87,355 77,352 87,349" fill="#7EE7C4" stroke="#4D4DB7" stroke-width="5" stroke-linejoin="round"/><polygon points="419,135 422,144 431,147 422,150 419,159 416,150 407,147 416,144" fill="#4D4DB7" stroke="#5E8BFF" stroke-width="5" stroke-linejoin="round"/><circle cx="121" cy="78" r="7" fill="#7EE7C4"/><circle cx="397" cy="416" r="7" fill="#5E8BFF"/>
<g transform="translate(256 391) scale(0.700)"><g transform="rotate(-8)"><rect x="-82" y="-42" width="164" height="84" rx="24" fill="#FFF9E8" stroke="#20324B" stroke-width="8" stroke-linejoin="round"/><path d="M-55 -12 H48 M-55 10 H34" fill="none" stroke="#4D4DB7" stroke-width="8" stroke-linecap="round"/><circle cx="70" cy="0" r="24" fill="#5E8BFF" stroke="#20324B" stroke-width="8" stroke-linejoin="round"/><path d="M59 18 L50 67 L72 53 L91 69 L82 18" fill="#7EE7C4" stroke="#20324B" stroke-width="8" stroke-linejoin="round"/></g></g>
<path d="M118 386 Q256 430 394 386 L375 438 Q256 405 137 438 Z" fill="#7EE7C4" stroke="#4D4DB7" stroke-width="7" stroke-linejoin="round"/>
</svg>
