<svg xmlns="http://www.w3.org/2000/svg" width="512" height="512" viewBox="0 0 512 512">
<path d="M177 439 H335" fill="none" stroke="#147D73" stroke-width="9" stroke-linecap="round" opacity=".22"/>
<path d="M72 188 H112 M82 156 L111 177 M82 220 L111 199 M400 312 H440 M401 323 L430 344 M401 301 L430 280" fill="none" stroke="#26C485" stroke-width="9" stroke-linecap="round"/><path d="M104 91 l14 24 l-27 0 Z M408 396 l14 24 l-27 0 Z" fill="#B7F5CB" stroke="#147D73" stroke-width="5" stroke-linejoin="round"/><circle cx="421" cy="103" r="8" fill="#147D73"/><circle cx="91" cy="409" r="8" fill="#26C485"/>
<g transform="translate(256 106) scale(0.720)"><path d="M-72 -66 V80" fill="none" stroke="#20324B" stroke-width="8" stroke-linejoin="round" stroke-linecap="round"/><path d="M-64 -58 Q8 -88 70 -54 V18 Q6 -14 -64 16 Z" fill="#26C485" stroke="#20324B" stroke-width="8" stroke-linejoin="round"/><path d="M-58 -54 L-10 -68 V-15 L-58 0 Z M-10 -68 L38 -64 V-8 L-10 -15 Z M38 -64 L65 -55 V5 L38 -8 Z" fill="#B7F5CB" opacity=".9"/></g>
</svg>
