<svg xmlns="http://www.w3.org/2000/svg" width="512" height="512" viewBox="0 0 512 512">
<path d="M89 438 Q256 461 423 438" fill="none" stroke="#5E4BB3" stroke-width="13" stroke-linecap="round" opacity=".22"/>
<rect x="67.0" y="99.0" width="18" height="8" rx="3" fill="#5E4BB3" transform="rotate(-20 76 103)"/><rect x="114.5" y="68.0" width="9" height="20" rx="3" fill="#FFD166" transform="rotate(28 119 78)"/><rect x="388.0" y="85.0" width="18" height="8" rx="3" fill="#A66CFF" transform="rotate(18 397 89)"/><rect x="425.5" y="126.0" width="9" height="20" rx="3" fill="#5E4BB3" transform="rotate(-28 430 136)"/><rect x="73.0" y="400.0" width="18" height="8" rx="3" fill="#FFD166" transform="rotate(16 82 404)"/><rect x="418.0" y="394.0" width="18" height="8" rx="3" fill="#A66CFF" transform="rotate(-18 427 398)"/><polygon points="72,142 75,151 84,154 75,157 72,166 69,157 60,154 69,151" fill="#FFD166" stroke="#5E4BB3" stroke-width="5" stroke-linejoin="round"/><polygon points="435,340 438,349 447,352 438,355 435,364 432,355 423,352 432,349" fill="#A66CFF" stroke="#5E4BB3" stroke-width="5" stroke-linejoin="round"/><circle cx="94" cy="371" r="7" fill="#A66CFF"/><circle cx="414" cy="151" r="7" fill="#FFD166"/>
<g transform="translate(122 250) scale(0.600)"><path d="M-48 35 L-74 94 L-24 78 L0 112 L23 78 L75 94 L48 35" fill="#5E4BB3" stroke="#20324B" stroke-width="8" stroke-linejoin="round"/><circle cx="0" cy="0" r="70" fill="#FFD166" stroke="#20324B" stroke-width="8" stroke-linejoin="round"/><polygon points="0.0,-46.0 12.3,-17.0 43.7,-14.2 20.0,6.5 27.0,37.2 0.0,21.0 -27.0,37.2 -20.0,6.5 -43.7,-14.2 -12.3,-17.0" fill="#A66CFF" stroke="#20324B" stroke-width="8" stroke-linejoin="round"/></g>
</svg>
