<svg xmlns="http://www.w3.org/2000/svg" width="512" height="512" viewBox="0 0 512 512">
<path d="M132 436 Q202 450 250 439 M273 439 Q330 449 381 432" fill="none" stroke="#FF6B9A" stroke-width="10" stroke-linecap="round" opacity=".26"/>
<path d="M68 118 q34 -29 58 4 M77 151 q30 -18 49 8 M444 342 q-34 29 -58 -4 M435 309 q-30 18 -49 -8" fill="none" stroke="#FF6B9A" stroke-width="9" stroke-linecap="round"/><polygon points="90,339 93,349 103,352 93,355 90,365 87,355 77,352 87,349" fill="#8DEBFF" stroke="#AA3D79" stroke-width="5" stroke-linejoin="round"/><polygon points="419,135 422,144 431,147 422,150 419,159 416,150 407,147 416,144" fill="#AA3D79" stroke="#FF6B9A" stroke-width="5" stroke-linejoin="round"/><circle cx="121" cy="78" r="7" fill="#8DEBFF"/><circle cx="397" cy="416" r="7" fill="#FF6B9A"/>
<g transform="translate(256 92) scale(0.520)"><g transform="rotate(-18 -30 0)"><rect x="-75" y="-62" width="62" height="132" rx="28" fill="#8DEBFF" stroke="#20324B" stroke-width="8" stroke-linejoin="round"/><path d="M-62 -58 V-102 M-45 -59 V-116 M-28 -58 V-105" fill="none" stroke="#8DEBFF" stroke-width="19" stroke-linecap="round"/></g><g transform="rotate(18 30 0)"><rect x="13" y="-62" width="62" height="132" rx="28" fill="#FF6B9A" stroke="#20324B" stroke-width="8" stroke-linejoin="round"/><path d="M28 -58 V-105 M45 -59 V-116 M62 -58 V-102" fill="none" stroke="#FF6B9A" stroke-width="19" stroke-linecap="round"/></g></g>
<path d="M124 248 H61 M388 248 H451 M148 165 L105 122 M364 165 L407 122 M148 334 L105 377 M364 334 L407 377" fill="none" stroke="#FF6B9A" stroke-width="9" stroke-linecap="round" opacity=".55"/>
</svg>
