<svg xmlns="http://www.w3.org/2000/svg" width="512" height="512" viewBox="0 0 512 512">
<circle cx="224" cy="439" r="7" fill="#2363A5" opacity=".32"/><circle cx="256" cy="443" r="10" fill="#22B8CF" opacity=".28"/><circle cx="291" cy="438" r="6" fill="#FFE66D" opacity=".48"/>
<circle cx="79" cy="118" r="10" fill="#22B8CF"/><circle cx="105" cy="91" r="6" fill="#FFE66D"/><circle cx="432" cy="375" r="10" fill="#2363A5"/><circle cx="405" cy="404" r="6" fill="#FFE66D"/><path d="M69 366 l22 -34 l20 34 Z M401 107 l21 34 l21 -34 Z" fill="#FFE66D" stroke="#2363A5" stroke-width="5" stroke-linejoin="round"/><polygon points="422,174 425,182 433,185 425,188 422,196 419,188 411,185 419,182" fill="#22B8CF" stroke="#2363A5" stroke-width="5" stroke-linejoin="round"/>
<g transform="translate(122 250) scale(0.600)"><circle cx="0" cy="0" r="76" fill="#FFF9E8" stroke="#20324B" stroke-width="8" stroke-linejoin="round"/><circle cx="0" cy="0" r="52" fill="#22B8CF"/><circle cx="0" cy="0" r="26" fill="#FFE66D"/><path d="M-88 82 L32 -22 M22 -44 L45 -31 L39 -7" fill="none" stroke="#2363A5" stroke-width="13" stroke-linecap="round" stroke-linejoin="round"/></g>
</svg>
