<svg xmlns="http://www.w3.org/2000/svg" width="512" height="512" viewBox="0 0 512 512">
<path d="M177 439 H335" fill="none" stroke="#D95739" stroke-width="9" stroke-linecap="round" opacity=".22"/>
<path d="M72 188 H112 M82 156 L111 177 M82 220 L111 199 M400 312 H440 M401 323 L430 344 M401 301 L430 280" fill="none" stroke="#F7B32B" stroke-width="9" stroke-linecap="round"/><path d="M104 91 l14 24 l-27 0 Z M408 396 l14 24 l-27 0 Z" fill="#FFF0A8" stroke="#D95739" stroke-width="5" stroke-linejoin="round"/><circle cx="421" cy="103" r="8" fill="#D95739"/><circle cx="91" cy="409" r="8" fill="#F7B32B"/>
<g transform="translate(256 106) scale(0.720)"><path d="M-56 -56 H56 V-16 Q50 48 0 54 Q-50 48 -56 -16 Z" fill="#FFF0A8" stroke="#20324B" stroke-width="8" stroke-linejoin="round"/><path d="M-56 -34 Q-104 -42 -92 8 Q-80 38 -48 24 M56 -34 Q104 -42 92 8 Q80 38 48 24" fill="none" stroke="#20324B" stroke-width="8" stroke-linejoin="round" stroke-linecap="round"/><path d="M0 54 V84 M-42 98 H42" fill="none" stroke="#D95739" stroke-width="18" stroke-linecap="round"/><polygon points="0.0,-35.0 7.1,-17.7 25.7,-16.3 11.4,-4.3 15.9,13.8 0.0,4.0 -15.9,13.8 -11.4,-4.3 -25.7,-16.3 -7.1,-17.7" fill="#F7B32B"/></g>
</svg>
