<svg xmlns="http://www.w3.org/2000/svg" width="512" height="512" viewBox="0 0 512 512">
<path d="M132 436 Q202 450 250 439 M273 439 Q330 449 381 432" fill="none" stroke="#FF7A59" stroke-width="10" stroke-linecap="round" opacity=".26"/>
<path d="M68 118 q34 -29 58 4 M77 151 q30 -18 49 8 M444 342 q-34 29 -58 -4 M435 309 q-30 18 -49 -8" fill="none" stroke="#FF7A59" stroke-width="9" stroke-linecap="round"/><polygon points="90,339 93,349 103,352 93,355 90,365 87,355 77,352 87,349" fill="#B7F2E8" stroke="#B33F62" stroke-width="5" stroke-linejoin="round"/><polygon points="419,135 422,144 431,147 422,150 419,159 416,150 407,147 416,144" fill="#B33F62" stroke="#FF7A59" stroke-width="5" stroke-linejoin="round"/><circle cx="121" cy="78" r="7" fill="#B7F2E8"/><circle cx="397" cy="416" r="7" fill="#FF7A59"/>
<g transform="translate(122 250) scale(0.600)"><path d="M-86 -33 H-38 L61 -76 V72 L-38 32 H-86 Z" fill="#FF7A59" stroke="#20324B" stroke-width="8" stroke-linejoin="round"/><path d="M-44 35 L-21 91 H18 L5 52" fill="#B7F2E8" stroke="#20324B" stroke-width="8" stroke-linejoin="round"/><path d="M84 -49 L108 -71 M89 0 H124 M84 49 L108 71" fill="none" stroke="#B33F62" stroke-width="12" stroke-linecap="round"/></g>
</svg>
