<svg xmlns="http://www.w3.org/2000/svg" width="512" height="512" viewBox="0 0 512 512">
<path d="M132 436 Q202 450 250 439 M273 439 Q330 449 381 432" fill="none" stroke="#5E8BFF" stroke-width="10" stroke-linecap="round" opacity=".26"/>
<path d="M68 118 q34 -29 58 4 M77 151 q30 -18 49 8 M444 342 q-34 29 -58 -4 M435 309 q-30 18 -49 -8" fill="none" stroke="#5E8BFF" stroke-width="9" stroke-linecap="round"/><polygon points="90,339 93,349 103,352 93,355 90,365 87,355 77,352 87,349" fill="#7EE7C4" stroke="#4D4DB7" stroke-width="5" stroke-linejoin="round"/><polygon points="419,135 422,144 431,147 422,150 419,159 416,150 407,147 416,144" fill="#4D4DB7" stroke="#5E8BFF" stroke-width="5" stroke-linejoin="round"/><circle cx="121" cy="78" r="7" fill="#7EE7C4"/><circle cx="397" cy="416" r="7" fill="#5E8BFF"/>
<g transform="translate(256 391) scale(0.700)"><path d="M-48 35 L-74 94 L-24 78 L0 112 L23 78 L75 94 L48 35" fill="#4D4DB7" stroke="#20324B" stroke-width="8" stroke-linejoin="round"/><circle cx="0" cy="0" r="70" fill="#7EE7C4" stroke="#20324B" stroke-width="8" stroke-linejoin="round"/><polygon points="0.0,-46.0 12.3,-17.0 43.7,-14.2 20.0,6.5 27.0,37.2 0.0,21.0 -27.0,37.2 -20.0,6.5 -43.7,-14.2 -12.3,-17.0" fill="#5E8BFF" stroke="#20324B" stroke-width="8" stroke-linejoin="round"/></g>
<path d="M118 386 Q256 430 394 386 L375 438 Q256 405 137 438 Z" fill="#7EE7C4" stroke="#4D4DB7" stroke-width="7" stroke-linejoin="round"/>
</svg>
