<svg xmlns="http://www.w3.org/2000/svg" width="512" height="512" viewBox="0 0 512 512">
<circle cx="224" cy="439" r="7" fill="#D94F40" opacity=".32"/><circle cx="256" cy="443" r="10" fill="#FF9F43" opacity=".28"/><circle cx="291" cy="438" r="6" fill="#FFE39A" opacity=".48"/>
<circle cx="79" cy="118" r="10" fill="#FF9F43"/><circle cx="105" cy="91" r="6" fill="#FFE39A"/><circle cx="432" cy="375" r="10" fill="#D94F40"/><circle cx="405" cy="404" r="6" fill="#FFE39A"/><path d="M69 366 l22 -34 l20 34 Z M401 107 l21 34 l21 -34 Z" fill="#FFE39A" stroke="#D94F40" stroke-width="5" stroke-linejoin="round"/><polygon points="422,174 425,182 433,185 425,188 422,196 419,188 411,185 419,182" fill="#FF9F43" stroke="#D94F40" stroke-width="5" stroke-linejoin="round"/>
<g transform="translate(256 106) scale(0.720)"><path d="M-56 -56 H56 V-16 Q50 48 0 54 Q-50 48 -56 -16 Z" fill="#FFE39A" stroke="#20324B" stroke-width="8" stroke-linejoin="round"/><path d="M-56 -34 Q-104 -42 -92 8 Q-80 38 -48 24 M56 -34 Q104 -42 92 8 Q80 38 48 24" fill="none" stroke="#20324B" stroke-width="8" stroke-linejoin="round" stroke-linecap="round"/><path d="M0 54 V84 M-42 98 H42" fill="none" stroke="#D94F40" stroke-width="18" stroke-linecap="round"/><polygon points="0.0,-35.0 7.1,-17.7 25.7,-16.3 11.4,-4.3 15.9,13.8 0.0,4.0 -15.9,13.8 -11.4,-4.3 -25.7,-16.3 -7.1,-17.7" fill="#FF9F43"/></g>
</svg>
