<svg xmlns="http://www.w3.org/2000/svg" width="512" height="512" viewBox="0 0 512 512">
<path d="M177 439 H335" fill="none" stroke="#147D73" stroke-width="9" stroke-linecap="round" opacity=".22"/>
<path d="M72 188 H112 M82 156 L111 177 M82 220 L111 199 M400 312 H440 M401 323 L430 344 M401 301 L430 280" fill="none" stroke="#26C485" stroke-width="9" stroke-linecap="round"/><path d="M104 91 l14 24 l-27 0 Z M408 396 l14 24 l-27 0 Z" fill="#B7F5CB" stroke="#147D73" stroke-width="5" stroke-linejoin="round"/><circle cx="421" cy="103" r="8" fill="#147D73"/><circle cx="91" cy="409" r="8" fill="#26C485"/>
<g transform="translate(122 250) scale(0.600)"><path d="M-20 62 Q-72 30 -67 -11 Q-59 -72 0 -106 Q59 -72 67 -11 Q72 30 20 62 Z" fill="#B7F5CB" stroke="#20324B" stroke-width="8" stroke-linejoin="round"/><circle cx="0" cy="-35" r="24" fill="#26C485" stroke="#20324B" stroke-width="8" stroke-linejoin="round"/><path d="M-35 35 L-74 72 L-28 65 M35 35 L74 72 L28 65" fill="#147D73" stroke="#20324B" stroke-width="8" stroke-linejoin="round"/><path d="M-21 64 Q0 122 22 64 Q0 86 -21 64 Z" fill="#26C485" stroke="#20324B" stroke-width="8" stroke-linejoin="round"/></g>
</svg>
