<svg xmlns="http://www.w3.org/2000/svg" width="512" height="512" viewBox="0 0 512 512">
<circle cx="224" cy="439" r="7" fill="#2363A5" opacity=".32"/><circle cx="256" cy="443" r="10" fill="#22B8CF" opacity=".28"/><circle cx="291" cy="438" r="6" fill="#FFE66D" opacity=".48"/>
<circle cx="79" cy="118" r="10" fill="#22B8CF"/><circle cx="105" cy="91" r="6" fill="#FFE66D"/><circle cx="432" cy="375" r="10" fill="#2363A5"/><circle cx="405" cy="404" r="6" fill="#FFE66D"/><path d="M69 366 l22 -34 l20 34 Z M401 107 l21 34 l21 -34 Z" fill="#FFE66D" stroke="#2363A5" stroke-width="5" stroke-linejoin="round"/><polygon points="422,174 425,182 433,185 425,188 422,196 419,188 411,185 419,182" fill="#22B8CF" stroke="#2363A5" stroke-width="5" stroke-linejoin="round"/>
<g transform="translate(256 106) scale(0.720)"><rect x="-34" y="-80" width="68" height="158" rx="12" fill="#FFE66D" stroke="#20324B" stroke-width="8" stroke-linejoin="round"/><rect x="-105" y="-20" width="70" height="98" rx="12" fill="#22B8CF" stroke="#20324B" stroke-width="8" stroke-linejoin="round"/><rect x="35" y="13" width="70" height="65" rx="12" fill="#2363A5" stroke="#20324B" stroke-width="8" stroke-linejoin="round"/><polygon points="0.0,-60.0 7.1,-43.7 24.7,-42.0 11.4,-30.3 15.3,-13.0 0.0,-22.0 -15.3,-13.0 -11.4,-30.3 -24.7,-42.0 -7.1,-43.7" fill="#22B8CF"/></g>
</svg>
