<svg xmlns="http://www.w3.org/2000/svg" width="512" height="512" viewBox="0 0 512 512">
<circle cx="224" cy="439" r="7" fill="#4B4B9B" opacity=".32"/><circle cx="256" cy="443" r="10" fill="#7B68EE" opacity=".28"/><circle cx="291" cy="438" r="6" fill="#FFCD70" opacity=".48"/>
<circle cx="79" cy="118" r="10" fill="#7B68EE"/><circle cx="105" cy="91" r="6" fill="#FFCD70"/><circle cx="432" cy="375" r="10" fill="#4B4B9B"/><circle cx="405" cy="404" r="6" fill="#FFCD70"/><path d="M69 366 l22 -34 l20 34 Z M401 107 l21 34 l21 -34 Z" fill="#FFCD70" stroke="#4B4B9B" stroke-width="5" stroke-linejoin="round"/><polygon points="422,174 425,182 433,185 425,188 422,196 419,188 411,185 419,182" fill="#7B68EE" stroke="#4B4B9B" stroke-width="5" stroke-linejoin="round"/>
<g transform="translate(256 106) scale(0.720)"><rect x="-91" y="-43" width="182" height="116" rx="22" fill="#7B68EE" stroke="#20324B" stroke-width="8" stroke-linejoin="round"/><path d="M-38 -43 V-72 H38 V-43 M-91 6 H91" fill="none" stroke="#20324B" stroke-width="8" stroke-linejoin="round" stroke-linecap="round"/><path d="M0 51 V-20 M-28 7 L0 -21 L28 7" fill="none" stroke="#FFCD70" stroke-width="15" stroke-linecap="round" stroke-linejoin="round"/></g>
</svg>
