<svg xmlns="http://www.w3.org/2000/svg" width="512" height="512" viewBox="0 0 512 512">
<path d="M177 439 H335" fill="none" stroke="#3A5EAE" stroke-width="9" stroke-linecap="round" opacity=".22"/>
<path d="M72 188 H112 M82 156 L111 177 M82 220 L111 199 M400 312 H440 M401 323 L430 344 M401 301 L430 280" fill="none" stroke="#44B7E8" stroke-width="9" stroke-linecap="round"/><path d="M104 91 l14 24 l-27 0 Z M408 396 l14 24 l-27 0 Z" fill="#FF8FB1" stroke="#3A5EAE" stroke-width="5" stroke-linejoin="round"/><circle cx="421" cy="103" r="8" fill="#3A5EAE"/><circle cx="91" cy="409" r="8" fill="#44B7E8"/>
<g transform="translate(376 106) scale(0.550)"><circle cx="0" cy="15" r="67" fill="#FF8FB1" stroke="#20324B" stroke-width="8" stroke-linejoin="round"/><path d="M0 51 V-33 M-34 -2 L0 -36 L34 -2" fill="none" stroke="#44B7E8" stroke-width="17" stroke-linecap="round" stroke-linejoin="round"/><path d="M-42 76 L-66 112 L-15 98 M42 76 L66 112 L15 98" fill="#3A5EAE" stroke="#20324B" stroke-width="8" stroke-linejoin="round"/></g>
</svg>
