<svg xmlns="http://www.w3.org/2000/svg" width="512" height="512" viewBox="0 0 512 512">
<path d="M89 438 Q256 461 423 438" fill="none" stroke="#A63A66" stroke-width="13" stroke-linecap="round" opacity=".22"/>
<rect x="67.0" y="99.0" width="18" height="8" rx="3" fill="#FF5D73" transform="rotate(-20 76 103)"/><rect x="114.5" y="68.0" width="9" height="20" rx="3" fill="#A63A66" transform="rotate(28 119 78)"/><rect x="388.0" y="85.0" width="18" height="8" rx="3" fill="#FFD166" transform="rotate(18 397 89)"/><rect x="425.5" y="126.0" width="9" height="20" rx="3" fill="#FF5D73" transform="rotate(-28 430 136)"/><rect x="73.0" y="400.0" width="18" height="8" rx="3" fill="#A63A66" transform="rotate(16 82 404)"/><rect x="418.0" y="394.0" width="18" height="8" rx="3" fill="#FFD166" transform="rotate(-18 427 398)"/><polygon points="72,142 75,151 84,154 75,157 72,166 69,157 60,154 69,151" fill="#FFD166" stroke="#A63A66" stroke-width="5" stroke-linejoin="round"/><polygon points="435,340 438,349 447,352 438,355 435,364 432,355 423,352 432,349" fill="#FF5D73" stroke="#A63A66" stroke-width="5" stroke-linejoin="round"/><circle cx="94" cy="371" r="7" fill="#FF5D73"/><circle cx="414" cy="151" r="7" fill="#FFD166"/>
<g transform="translate(256 106) scale(0.720)"><path d="M-99 -17 L0 -93 L99 -17 V88 H-99 Z" fill="#FFD166" stroke="#20324B" stroke-width="8" stroke-linejoin="round"/><path d="M-118 -7 L0 -105 L118 -7" fill="none" stroke="#FF5D73" stroke-width="19" stroke-linecap="round" stroke-linejoin="round"/><rect x="-21" y="24" width="42" height="64" rx="10" fill="#A63A66" stroke="#20324B" stroke-width="8" stroke-linejoin="round"/><path d="M-47 2 Q-24 -18 0 2 Q24 -18 47 2" fill="none" stroke="#FF5D73" stroke-width="10" stroke-linecap="round"/></g>
</svg>
