<svg xmlns="http://www.w3.org/2000/svg" width="512" height="512" viewBox="0 0 512 512">
<path d="M132 436 Q202 450 250 439 M273 439 Q330 449 381 432" fill="none" stroke="#5E8BFF" stroke-width="10" stroke-linecap="round" opacity=".26"/>
<path d="M68 118 q34 -29 58 4 M77 151 q30 -18 49 8 M444 342 q-34 29 -58 -4 M435 309 q-30 18 -49 -8" fill="none" stroke="#5E8BFF" stroke-width="9" stroke-linecap="round"/><polygon points="90,339 93,349 103,352 93,355 90,365 87,355 77,352 87,349" fill="#7EE7C4" stroke="#4D4DB7" stroke-width="5" stroke-linejoin="round"/><polygon points="419,135 422,144 431,147 422,150 419,159 416,150 407,147 416,144" fill="#4D4DB7" stroke="#5E8BFF" stroke-width="5" stroke-linejoin="round"/><circle cx="121" cy="78" r="7" fill="#7EE7C4"/><circle cx="397" cy="416" r="7" fill="#5E8BFF"/>
<g transform="translate(122 250) scale(0.600)"><rect x="-102" y="-8" width="76" height="76" rx="15" fill="#5E8BFF" stroke="#20324B" stroke-width="8" stroke-linejoin="round"/><rect x="-37" y="-73" width="76" height="76" rx="15" fill="#7EE7C4" stroke="#20324B" stroke-width="8" stroke-linejoin="round"/><rect x="28" y="-8" width="76" height="76" rx="15" fill="#4D4DB7" stroke="#20324B" stroke-width="8" stroke-linejoin="round"/><circle cx="-64" cy="30" r="14" fill="#FFF9E8"/><polygon points="1.0,-53.0 5.7,-41.5 18.1,-40.6 8.6,-32.5 11.6,-20.4 1.0,-27.0 -9.6,-20.4 -6.6,-32.5 -16.1,-40.6 -3.7,-41.5" fill="#5E8BFF"/><path d="M50 31 Q66 16 83 31" fill="none" stroke="#FFF9E8" stroke-width="10" stroke-linecap="round"/></g>
</svg>
