<svg xmlns="http://www.w3.org/2000/svg" width="512" height="512" viewBox="0 0 512 512">
<circle cx="224" cy="439" r="7" fill="#D94F40" opacity=".32"/><circle cx="256" cy="443" r="10" fill="#FF9F43" opacity=".28"/><circle cx="291" cy="438" r="6" fill="#FFE39A" opacity=".48"/>
<circle cx="79" cy="118" r="10" fill="#FF9F43"/><circle cx="105" cy="91" r="6" fill="#FFE39A"/><circle cx="432" cy="375" r="10" fill="#D94F40"/><circle cx="405" cy="404" r="6" fill="#FFE39A"/><path d="M69 366 l22 -34 l20 34 Z M401 107 l21 34 l21 -34 Z" fill="#FFE39A" stroke="#D94F40" stroke-width="5" stroke-linejoin="round"/><polygon points="422,174 425,182 433,185 425,188 422,196 419,188 411,185 419,182" fill="#FF9F43" stroke="#D94F40" stroke-width="5" stroke-linejoin="round"/>
<g transform="translate(256 391) scale(0.700)"><path d="M0 67 C-92 10 -72 -65 -18 -48 C-3 -43 0 -25 0 -25 C0 -25 5 -46 27 -49 C82 -56 94 17 0 67 Z" fill="#FF9F43" stroke="#20324B" stroke-width="8" stroke-linejoin="round"/><path d="M-42 74 Q-96 26 -80 -42 M42 74 Q96 26 80 -42" fill="none" stroke="#D94F40" stroke-width="11" stroke-linecap="round"/><path d="M-73 22 l-27 -8 M-67 -6 l-26 -16 M73 22 l27 -8 M67 -6 l26 -16" fill="none" stroke="#FFE39A" stroke-width="13" stroke-linecap="round"/></g>
<path d="M118 386 Q256 430 394 386 L375 438 Q256 405 137 438 Z" fill="#FFE39A" stroke="#D94F40" stroke-width="7" stroke-linejoin="round"/>
</svg>
