<svg xmlns="http://www.w3.org/2000/svg" width="512" height="512" viewBox="0 0 512 512">
<path d="M89 438 Q256 461 423 438" fill="none" stroke="#5E4BB3" stroke-width="13" stroke-linecap="round" opacity=".22"/>
<rect x="67.0" y="99.0" width="18" height="8" rx="3" fill="#5E4BB3" transform="rotate(-20 76 103)"/><rect x="114.5" y="68.0" width="9" height="20" rx="3" fill="#FFD166" transform="rotate(28 119 78)"/><rect x="388.0" y="85.0" width="18" height="8" rx="3" fill="#A66CFF" transform="rotate(18 397 89)"/><rect x="425.5" y="126.0" width="9" height="20" rx="3" fill="#5E4BB3" transform="rotate(-28 430 136)"/><rect x="73.0" y="400.0" width="18" height="8" rx="3" fill="#FFD166" transform="rotate(16 82 404)"/><rect x="418.0" y="394.0" width="18" height="8" rx="3" fill="#A66CFF" transform="rotate(-18 427 398)"/><polygon points="72,142 75,151 84,154 75,157 72,166 69,157 60,154 69,151" fill="#FFD166" stroke="#5E4BB3" stroke-width="5" stroke-linejoin="round"/><polygon points="435,340 438,349 447,352 438,355 435,364 432,355 423,352 432,349" fill="#A66CFF" stroke="#5E4BB3" stroke-width="5" stroke-linejoin="round"/><circle cx="94" cy="371" r="7" fill="#A66CFF"/><circle cx="414" cy="151" r="7" fill="#FFD166"/>
<g transform="translate(256 92) scale(0.520)"><path d="M-72 79 L-26 -40 L57 43 Z" fill="#A66CFF" stroke="#20324B" stroke-width="8" stroke-linejoin="round"/><path d="M-56 36 L-7 58 M-42 -3 L25 30" fill="none" stroke="#FFD166" stroke-width="13"/><path d="M-14 -73 Q-41 -103 -13 -124 M22 -67 Q65 -95 70 -56 M57 -30 Q99 -27 105 7" fill="none" stroke="#5E4BB3" stroke-width="11" stroke-linecap="round"/><circle cx="-14" cy="-74" r="10" fill="#FFD166"/><circle cx="57" cy="-42" r="11" fill="#A66CFF"/></g>
<path d="M124 248 H61 M388 248 H451 M148 165 L105 122 M364 165 L407 122 M148 334 L105 377 M364 334 L407 377" fill="none" stroke="#A66CFF" stroke-width="9" stroke-linecap="round" opacity=".55"/>
</svg>
