<svg xmlns="http://www.w3.org/2000/svg" width="512" height="512" viewBox="0 0 512 512">
<path d="M132 436 Q202 450 250 439 M273 439 Q330 449 381 432" fill="none" stroke="#FF6B9A" stroke-width="10" stroke-linecap="round" opacity=".26"/>
<path d="M68 118 q34 -29 58 4 M77 151 q30 -18 49 8 M444 342 q-34 29 -58 -4 M435 309 q-30 18 -49 -8" fill="none" stroke="#FF6B9A" stroke-width="9" stroke-linecap="round"/><polygon points="90,339 93,349 103,352 93,355 90,365 87,355 77,352 87,349" fill="#8DEBFF" stroke="#AA3D79" stroke-width="5" stroke-linejoin="round"/><polygon points="419,135 422,144 431,147 422,150 419,159 416,150 407,147 416,144" fill="#AA3D79" stroke="#FF6B9A" stroke-width="5" stroke-linejoin="round"/><circle cx="121" cy="78" r="7" fill="#8DEBFF"/><circle cx="397" cy="416" r="7" fill="#FF6B9A"/>
<g transform="translate(122 250) scale(0.600)"><path d="M-82 -67 H-14 L-24 22 Q-28 53 -49 53 Q-70 53 -74 22 Z" fill="#8DEBFF" stroke="#20324B" stroke-width="8" stroke-linejoin="round"/><path d="M14 -67 H82 L74 22 Q70 53 49 53 Q28 53 24 22 Z" fill="#FF6B9A" stroke="#20324B" stroke-width="8" stroke-linejoin="round"/><path d="M-49 53 V89 M49 53 V89 M-78 92 H-20 M20 92 H78" fill="none" stroke="#20324B" stroke-width="8" stroke-linejoin="round" stroke-linecap="round"/><path d="M-14 -20 L14 -4" fill="none" stroke="#AA3D79" stroke-width="10" stroke-linecap="round"/></g>
</svg>
