<svg xmlns="http://www.w3.org/2000/svg" width="512" height="512" viewBox="0 0 512 512">
<path d="M89 438 Q256 461 423 438" fill="none" stroke="#168C68" stroke-width="13" stroke-linecap="round" opacity=".22"/>
<rect x="67.0" y="99.0" width="18" height="8" rx="3" fill="#F5D76E" transform="rotate(-20 76 103)"/><rect x="114.5" y="68.0" width="9" height="20" rx="3" fill="#66D17A" transform="rotate(28 119 78)"/><rect x="388.0" y="85.0" width="18" height="8" rx="3" fill="#168C68" transform="rotate(18 397 89)"/><rect x="425.5" y="126.0" width="9" height="20" rx="3" fill="#F5D76E" transform="rotate(-28 430 136)"/><rect x="73.0" y="400.0" width="18" height="8" rx="3" fill="#66D17A" transform="rotate(16 82 404)"/><rect x="418.0" y="394.0" width="18" height="8" rx="3" fill="#168C68" transform="rotate(-18 427 398)"/><polygon points="72,142 75,151 84,154 75,157 72,166 69,157 60,154 69,151" fill="#F5D76E" stroke="#168C68" stroke-width="5" stroke-linejoin="round"/><polygon points="435,340 438,349 447,352 438,355 435,364 432,355 423,352 432,349" fill="#66D17A" stroke="#168C68" stroke-width="5" stroke-linejoin="round"/><circle cx="94" cy="371" r="7" fill="#66D17A"/><circle cx="414" cy="151" r="7" fill="#F5D76E"/>
<g transform="translate(408 395) scale(0.480)"><path d="M-92 42 Q-119 -4 -74 -25 Q-65 -81 -10 -68 Q31 -102 65 -60 Q111 -53 107 -7 Q126 31 86 53 H-72 Q-86 53 -92 42 Z" fill="#F5D76E" stroke="#20324B" stroke-width="8" stroke-linejoin="round"/><polygon points="-70,-95 -66,-81 -52,-77 -66,-73 -70,-59 -74,-73 -88,-77 -74,-81" fill="#66D17A" stroke="#20324B" stroke-width="5" stroke-linejoin="round"/><polygon points="85,-84 88,-73 99,-70 88,-67 85,-56 82,-67 71,-70 82,-73" fill="#168C68" stroke="#20324B" stroke-width="5" stroke-linejoin="round"/></g>
</svg>
