<svg xmlns="http://www.w3.org/2000/svg" width="512" height="512" viewBox="0 0 512 512">
<defs><linearGradient id="softShade" x1="0" y1="0" x2="1" y2="1"><stop offset="0" stop-color="#FFFFFF" stop-opacity=".24"/><stop offset="1" stop-color="#10243A" stop-opacity=".14"/></linearGradient></defs>
<ellipse cx="256" cy="472" rx="105" ry="14" fill="#AAB2BD" stroke="none" stroke-width="0" opacity=".65"/><rect x="236" y="326" width="34" height="137" rx="14" fill="#187B83" stroke="#162B45" stroke-width="6" /><rect x="230" y="443" width="61" height="27" rx="13" fill="#724277" stroke="#162B45" stroke-width="6" /><path d="M290 300 L310 451 M290 300 L350 300" fill="none" stroke="#5A3470" stroke-width="10" stroke-linecap="round" stroke-linejoin="round" /><ellipse cx="312" cy="451" rx="18" ry="18" fill="#252A30" stroke="#162B45" stroke-width="5" /><ellipse cx="342" cy="438" rx="12" ry="12" fill="#414850" stroke="#162B45" stroke-width="4" /><rect x="223.0" y="178" width="70.0" height="155" rx="25" fill="#643A78" stroke="#162B45" stroke-width="7" /><path d="M237.0 198 L279.0 198" fill="none" stroke="#E87522" stroke-width="7" stroke-linecap="round" stroke-linejoin="round" /><path d="M258 213 Q293 273 278 328" fill="none" stroke="#714027" stroke-width="20" stroke-linecap="round" stroke-linejoin="round" /><ellipse cx="258" cy="106" rx="34.8" ry="63" fill="#714027" stroke="#162B45" stroke-width="7" /><g transform="translate(2 0) scale(.64 1)"><ellipse cx="208" cy="56" rx="25" ry="25" fill="#B8B1AA" stroke="#162B45" stroke-width="4" /><path d="M198.0 56 q10.0 -12.5 20.0 0" fill="none" stroke="#E9E4DD" stroke-width="3" stroke-linecap="round" stroke-linejoin="round" /><ellipse cx="231" cy="39" rx="24" ry="24" fill="#B8B1AA" stroke="#162B45" stroke-width="4" /><path d="M221.4 39 q9.600000000000001 -12.0 19.200000000000003 0" fill="none" stroke="#E9E4DD" stroke-width="3" stroke-linecap="round" stroke-linejoin="round" /><ellipse cx="256" cy="34" rx="25" ry="25" fill="#B8B1AA" stroke="#162B45" stroke-width="4" /><path d="M246.0 34 q10.0 -12.5 20.0 0" fill="none" stroke="#E9E4DD" stroke-width="3" stroke-linecap="round" stroke-linejoin="round" /><ellipse cx="282" cy="40" rx="24" ry="24" fill="#B8B1AA" stroke="#162B45" stroke-width="4" /><path d="M272.4 40 q9.600000000000001 -12.0 19.200000000000003 0" fill="none" stroke="#E9E4DD" stroke-width="3" stroke-linecap="round" stroke-linejoin="round" /><ellipse cx="305" cy="58" rx="25" ry="25" fill="#B8B1AA" stroke="#162B45" stroke-width="4" /><path d="M295.0 58 q10.0 -12.5 20.0 0" fill="none" stroke="#E9E4DD" stroke-width="3" stroke-linecap="round" stroke-linejoin="round" /><ellipse cx="200" cy="82" rx="22" ry="22" fill="#B8B1AA" stroke="#162B45" stroke-width="4" /><path d="M191.2 82 q8.8 -11.0 17.6 0" fill="none" stroke="#E9E4DD" stroke-width="3" stroke-linecap="round" stroke-linejoin="round" /><ellipse cx="311" cy="84" rx="22" ry="22" fill="#B8B1AA" stroke="#162B45" stroke-width="4" /><path d="M302.2 84 q8.8 -11.0 17.6 0" fill="none" stroke="#E9E4DD" stroke-width="3" stroke-linecap="round" stroke-linejoin="round" /></g><ellipse cx="270.0" cy="108" rx="9" ry="12" fill="#FFF8EE" stroke="#162B45" stroke-width="4" /><ellipse cx="272.4" cy="110" rx="4" ry="6" fill="#162B45" stroke="#162B45" stroke-width="0" /><path d="M288.0 114 q12 8 0 16" fill="none" stroke="#965F43" stroke-width="5" stroke-linecap="round" stroke-linejoin="round" /><path d="M260 143 Q276 154 289 140" fill="none" stroke="#162B45" stroke-width="5" stroke-linecap="round" stroke-linejoin="round" />
</svg>
