<svg xmlns="http://www.w3.org/2000/svg" width="512" height="512" viewBox="0 0 512 512">
<defs><linearGradient id="softShade" x1="0" y1="0" x2="1" y2="1"><stop offset="0" stop-color="#FFFFFF" stop-opacity=".24"/><stop offset="1" stop-color="#10243A" stop-opacity=".14"/></linearGradient></defs>
<ellipse cx="256" cy="472" rx="105" ry="14" fill="#AAB2BD" stroke="none" stroke-width="0" opacity=".65"/><g transform="translate(38 0) scale(.86 1)"><path d="M168 300 L185 449 M344 300 L327 449 M168 300 L344 300" fill="none" stroke="#5A3470" stroke-width="10" stroke-linecap="round" stroke-linejoin="round" /><path d="M183 355 L329 355" fill="none" stroke="#8D59A3" stroke-width="7" stroke-linecap="round" stroke-linejoin="round" /><rect x="177" y="347" width="158" height="55" rx="12" fill="#252D34" stroke="#162B45" stroke-width="6" /><path d="M181 402 L168 451 M331 402 L344 451" fill="none" stroke="#5A3470" stroke-width="10" stroke-linecap="round" stroke-linejoin="round" /><rect x="309" y="288" width="52" height="18" rx="9" fill="#242A31" stroke="#162B45" stroke-width="5" /><rect x="151" y="288" width="52" height="18" rx="9" fill="#242A31" stroke="#162B45" stroke-width="5" /><ellipse cx="319" cy="438" rx="12" ry="12" fill="#414850" stroke="#162B45" stroke-width="4" /><path d="M319 438 L319 430" fill="none" stroke="#F2A13A" stroke-width="3" stroke-linecap="round" stroke-linejoin="round" /><ellipse cx="193" cy="438" rx="12" ry="12" fill="#414850" stroke="#162B45" stroke-width="4" /><path d="M193 438 L193 430" fill="none" stroke="#F2A13A" stroke-width="3" stroke-linecap="round" stroke-linejoin="round" /><ellipse cx="347" cy="451" rx="18" ry="18" fill="#252A30" stroke="#162B45" stroke-width="5" /><path d="M347 451 L347 437" fill="none" stroke="#F2A13A" stroke-width="4" stroke-linecap="round" stroke-linejoin="round" /><ellipse cx="165" cy="451" rx="18" ry="18" fill="#252A30" stroke="#162B45" stroke-width="5" /><path d="M165 451 L165 437" fill="none" stroke="#F2A13A" stroke-width="4" stroke-linecap="round" stroke-linejoin="round" /><path d="M254 303 L301 302 Q305 362 297 442 L260 442 Z" fill="#187B83" stroke="#162B45" stroke-width="7" stroke-linecap="round" stroke-linejoin="round" /><rect x="250" y="432" width="61" height="28" rx="13" fill="#724277" stroke="#162B45" stroke-width="6" /><path d="M211 302 Q210 360 215 442 L252 442 L258 303 Z" fill="#187B83" stroke="#162B45" stroke-width="7" stroke-linecap="round" stroke-linejoin="round" /><rect x="202" y="432" width="61" height="28" rx="13" fill="#724277" stroke="#162B45" stroke-width="6" /><rect x="186" y="178" width="140" height="155" rx="30" fill="#643A78" stroke="#162B45" stroke-width="7" /><path d="M204 196 Q256.0 221 308 196" fill="none" stroke="#E87522" stroke-width="8" stroke-linecap="round" stroke-linejoin="round" /><path d="M211.2 196 Q256.0 186 300.8 196" fill="none" stroke="#F2A13A" stroke-width="5" stroke-linecap="round" stroke-linejoin="round" /><path d="M194 226 Q256.0 256 318 226" fill="none" stroke="#E87522" stroke-width="10" stroke-linecap="round" stroke-linejoin="round" /><path d="M211 236 Q256.0 268 301 236" fill="none" stroke="#F2A13A" stroke-width="5" stroke-linecap="round" stroke-linejoin="round" /><path d="M228 233 l7 7 l-7 7 l-7 -7 Z" fill="#F2A13A" stroke="none" stroke-width="0" stroke-linecap="round" stroke-linejoin="round" /><path d="M248 233 l7 7 l-7 7 l-7 -7 Z" fill="#F2A13A" stroke="none" stroke-width="0" stroke-linecap="round" stroke-linejoin="round" /><path d="M268 233 l7 7 l-7 7 l-7 -7 Z" fill="#F2A13A" stroke="none" stroke-width="0" stroke-linecap="round" stroke-linejoin="round" /><path d="M288 233 l7 7 l-7 7 l-7 -7 Z" fill="#F2A13A" stroke="none" stroke-width="0" stroke-linecap="round" stroke-linejoin="round" /><polyline points="318,212 328.0,233.0 338,254" fill="none" stroke="#162B45" stroke-width="32" stroke-linecap="round" stroke-linejoin="round"/><polyline points="318,212 328.0,233.0 338,254" fill="none" stroke="#643A78" stroke-width="24" stroke-linecap="round" stroke-linejoin="round"/><polyline points="338,254 335,300" fill="none" stroke="#162B45" stroke-width="25" stroke-linecap="round" stroke-linejoin="round"/><polyline points="338,254 335,300" fill="none" stroke="#714027" stroke-width="18" stroke-linecap="round" stroke-linejoin="round"/><ellipse cx="335" cy="300" rx="11" ry="13" fill="#965F43" stroke="#162B45" stroke-width="5" /><polyline points="194,212 184.0,233.0 174,254" fill="none" stroke="#162B45" stroke-width="32" stroke-linecap="round" stroke-linejoin="round"/><polyline points="194,212 184.0,233.0 174,254" fill="none" stroke="#643A78" stroke-width="24" stroke-linecap="round" stroke-linejoin="round"/><polyline points="174,254 177,300" fill="none" stroke="#162B45" stroke-width="25" stroke-linecap="round" stroke-linejoin="round"/><polyline points="174,254 177,300" fill="none" stroke="#714027" stroke-width="18" stroke-linecap="round" stroke-linejoin="round"/><ellipse cx="177" cy="300" rx="11" ry="13" fill="#965F43" stroke="#162B45" stroke-width="5" /></g><ellipse cx="269" cy="106" rx="54.0" ry="63" fill="#714027" stroke="#162B45" stroke-width="7" /><g transform="translate(13 0) scale(.92 1)"><ellipse cx="208" cy="56" rx="25" ry="25" fill="#B8B1AA" stroke="#162B45" stroke-width="4" /><path d="M198.0 56 q10.0 -12.5 20.0 0" fill="none" stroke="#E9E4DD" stroke-width="3" stroke-linecap="round" stroke-linejoin="round" /><ellipse cx="231" cy="39" rx="24" ry="24" fill="#B8B1AA" stroke="#162B45" stroke-width="4" /><path d="M221.4 39 q9.600000000000001 -12.0 19.200000000000003 0" fill="none" stroke="#E9E4DD" stroke-width="3" stroke-linecap="round" stroke-linejoin="round" /><ellipse cx="256" cy="34" rx="25" ry="25" fill="#B8B1AA" stroke="#162B45" stroke-width="4" /><path d="M246.0 34 q10.0 -12.5 20.0 0" fill="none" stroke="#E9E4DD" stroke-width="3" stroke-linecap="round" stroke-linejoin="round" /><ellipse cx="282" cy="40" rx="24" ry="24" fill="#B8B1AA" stroke="#162B45" stroke-width="4" /><path d="M272.4 40 q9.600000000000001 -12.0 19.200000000000003 0" fill="none" stroke="#E9E4DD" stroke-width="3" stroke-linecap="round" stroke-linejoin="round" /><ellipse cx="305" cy="58" rx="25" ry="25" fill="#B8B1AA" stroke="#162B45" stroke-width="4" /><path d="M295.0 58 q10.0 -12.5 20.0 0" fill="none" stroke="#E9E4DD" stroke-width="3" stroke-linecap="round" stroke-linejoin="round" /><ellipse cx="200" cy="82" rx="22" ry="22" fill="#B8B1AA" stroke="#162B45" stroke-width="4" /><path d="M191.2 82 q8.8 -11.0 17.6 0" fill="none" stroke="#E9E4DD" stroke-width="3" stroke-linecap="round" stroke-linejoin="round" /><ellipse cx="311" cy="84" rx="22" ry="22" fill="#B8B1AA" stroke="#162B45" stroke-width="4" /><path d="M302.2 84 q8.8 -11.0 17.6 0" fill="none" stroke="#E9E4DD" stroke-width="3" stroke-linecap="round" stroke-linejoin="round" /></g><ellipse cx="254" cy="110" rx="9" ry="12" fill="#FFF8EE" stroke="#162B45" stroke-width="4" /><ellipse cx="293" cy="110" rx="7" ry="10" fill="#FFF8EE" stroke="#162B45" stroke-width="4" /><ellipse cx="257" cy="112" rx="4" ry="6" fill="#162B45" stroke="#162B45" stroke-width="0" /><ellipse cx="295" cy="112" rx="3" ry="5" fill="#162B45" stroke="#162B45" stroke-width="0" /><path d="M273 118 Q287 124 278 130" fill="none" stroke="#965F43" stroke-width="4" stroke-linecap="round" stroke-linejoin="round" /><path d="M252 142 Q277 158 299 137" fill="none" stroke="#162B45" stroke-width="6" stroke-linecap="round" stroke-linejoin="round" />
</svg>
