<svg xmlns="http://www.w3.org/2000/svg" width="512" height="512" viewBox="0 0 512 512">
<defs><linearGradient id="softShade" x1="0" y1="0" x2="1" y2="1"><stop offset="0" stop-color="#FFFFFF" stop-opacity=".24"/><stop offset="1" stop-color="#10243A" stop-opacity=".14"/></linearGradient></defs>
<ellipse cx="256" cy="472" rx="105" ry="14" fill="#AAB2BD" stroke="none" stroke-width="0" opacity=".65"/><path d="M254 303 L301 302 Q305 362 297 442 L260 442 Z" fill="#203B5D" stroke="#162B45" stroke-width="7" stroke-linecap="round" stroke-linejoin="round" /><rect x="250" y="432" width="61" height="28" rx="13" fill="#1C2633" stroke="#162B45" stroke-width="6" /><path d="M211 302 Q210 360 215 442 L252 442 L258 303 Z" fill="#203B5D" stroke="#162B45" stroke-width="7" stroke-linecap="round" stroke-linejoin="round" /><rect x="202" y="432" width="61" height="28" rx="13" fill="#1C2633" stroke="#162B45" stroke-width="6" /><ellipse cx="183" cy="108" rx="7" ry="11" fill="#D5E6E4" stroke="#162B45" stroke-width="4" /><path d="M200 93 Q179 95 183 123" fill="none" stroke="#5BD1C6" stroke-width="7" stroke-linecap="round" stroke-linejoin="round" /><path d="M183 123 Q187 137 195 140" fill="none" stroke="#5BD1C6" stroke-width="9" stroke-linecap="round" stroke-linejoin="round" /><polyline points="309,222 323.0,257.0 337,292" fill="none" stroke="#162B45" stroke-width="32" stroke-linecap="round" stroke-linejoin="round"/><polyline points="309,222 323.0,257.0 337,292" fill="none" stroke="#9970A8" stroke-width="24" stroke-linecap="round" stroke-linejoin="round"/><polyline points="337,292 331,342" fill="none" stroke="#162B45" stroke-width="25" stroke-linecap="round" stroke-linejoin="round"/><polyline points="337,292 331,342" fill="none" stroke="#E2AD7D" stroke-width="18" stroke-linecap="round" stroke-linejoin="round"/><ellipse cx="331" cy="342" rx="11" ry="13" fill="#F1C49B" stroke="#162B45" stroke-width="5" /><polyline points="203,222 189.0,257.0 175,292" fill="none" stroke="#162B45" stroke-width="32" stroke-linecap="round" stroke-linejoin="round"/><polyline points="203,222 189.0,257.0 175,292" fill="none" stroke="#9970A8" stroke-width="24" stroke-linecap="round" stroke-linejoin="round"/><polyline points="175,292 181,342" fill="none" stroke="#162B45" stroke-width="25" stroke-linecap="round" stroke-linejoin="round"/><polyline points="175,292 181,342" fill="none" stroke="#E2AD7D" stroke-width="18" stroke-linecap="round" stroke-linejoin="round"/><ellipse cx="181" cy="342" rx="11" ry="13" fill="#F1C49B" stroke="#162B45" stroke-width="5" /><rect x="195" y="188" width="122" height="142" rx="30" fill="#9970A8" stroke="#162B45" stroke-width="7" /><path d="M213 210 Q256.0 226 299 210" fill="none" stroke="#F2E7D7" stroke-width="8" stroke-linecap="round" stroke-linejoin="round" /><ellipse cx="256" cy="115" rx="59" ry="65" fill="#E2AD7D" stroke="#162B45" stroke-width="7" /><path d="M181 85 Q173 165 214 190 L301 188 Q338 160 325 81 Z" fill="#2B292C" stroke="#162B45" stroke-width="7" stroke-linecap="round" stroke-linejoin="round" /><path d="M202 80 Q241 30 315 85 Q292 60 259 56 Q226 55 202 80 Z" fill="#2B292C" stroke="#162B45" stroke-width="6" stroke-linecap="round" stroke-linejoin="round" /><path d="M263 55 Q243 60 205 85" fill="none" stroke="#7D7B80" stroke-width="5" stroke-linecap="round" stroke-linejoin="round" /><path d="M263 55 Q287 61 312 84" fill="none" stroke="#7D7B80" stroke-width="4" stroke-linecap="round" stroke-linejoin="round" /><path d="M261 57 Q251 72 232 81" fill="none" stroke="#B1ADB1" stroke-width="3" stroke-linecap="round" stroke-linejoin="round" /><path d="M234 61 Q218 73 204 95" fill="none" stroke="#7D7B80" stroke-width="8" stroke-linecap="round" stroke-linejoin="round" />
</svg>
