<svg xmlns="http://www.w3.org/2000/svg" width="512" height="512" viewBox="0 0 512 512">
<defs><linearGradient id="softShade" x1="0" y1="0" x2="1" y2="1"><stop offset="0" stop-color="#FFFFFF" stop-opacity=".24"/><stop offset="1" stop-color="#10243A" stop-opacity=".14"/></linearGradient></defs>
<ellipse cx="256" cy="472" rx="105" ry="14" fill="#AAB2BD" stroke="none" stroke-width="0" opacity=".65"/><rect x="236" y="323" width="34" height="140" rx="14" fill="#203B5D" stroke="#162B45" stroke-width="6" /><rect x="230" y="443" width="61" height="27" rx="13" fill="#1C2633" stroke="#162B45" stroke-width="6" /><rect x="227.5" y="188" width="61.0" height="142" rx="25" fill="#9970A8" stroke="#162B45" stroke-width="7" /><path d="M239.7 208 L276.3 208" fill="none" stroke="#F2E7D7" stroke-width="7" stroke-linecap="round" stroke-linejoin="round" /><path d="M258 223 Q293 283 278 338" fill="none" stroke="#E2AD7D" stroke-width="20" stroke-linecap="round" stroke-linejoin="round" /><ellipse cx="258" cy="115" rx="34.22" ry="65" fill="#E2AD7D" stroke="#162B45" stroke-width="7" /><g transform="translate(2 0) scale(.64 1)"><path d="M202 80 Q241 30 315 85 Q292 60 259 56 Q226 55 202 80 Z" fill="#2B292C" stroke="#162B45" stroke-width="6" stroke-linecap="round" stroke-linejoin="round" /><path d="M263 55 Q243 60 205 85" fill="none" stroke="#7D7B80" stroke-width="5" stroke-linecap="round" stroke-linejoin="round" /><path d="M263 55 Q287 61 312 84" fill="none" stroke="#7D7B80" stroke-width="4" stroke-linecap="round" stroke-linejoin="round" /><path d="M261 57 Q251 72 232 81" fill="none" stroke="#B1ADB1" stroke-width="3" stroke-linecap="round" stroke-linejoin="round" /><path d="M234 61 Q218 73 204 95" fill="none" stroke="#7D7B80" stroke-width="8" stroke-linecap="round" stroke-linejoin="round" /></g><ellipse cx="269.8" cy="117" rx="9" ry="12" fill="#FFF8EE" stroke="#162B45" stroke-width="4" /><ellipse cx="272.16" cy="119" rx="4" ry="6" fill="#162B45" stroke="#162B45" stroke-width="0" /><path d="M287.5 123 q12 8 0 16" fill="none" stroke="#F1C49B" stroke-width="5" stroke-linecap="round" stroke-linejoin="round" /><path d="M260 152 Q276 163 289 149" fill="none" stroke="#162B45" stroke-width="5" stroke-linecap="round" stroke-linejoin="round" />
</svg>
