<svg xmlns="http://www.w3.org/2000/svg" width="512" height="512" viewBox="0 0 512 512">
<defs><linearGradient id="softShade" x1="0" y1="0" x2="1" y2="1"><stop offset="0" stop-color="#FFFFFF" stop-opacity=".24"/><stop offset="1" stop-color="#10243A" stop-opacity=".14"/></linearGradient></defs>
<g id="shadow" data-semantic-layer="true"><ellipse cx="256" cy="472" rx="105" ry="14" fill="#AAB2BD" stroke="none" stroke-width="0" opacity=".65"/></g>
<g id="hair-back" data-semantic-layer="true"><path d="M203 77 Q193 52 222 28 Q259 8 314 69 L307 98 Q276 66 203 77 Z" fill="#873E2B" stroke="#162B45" stroke-width="6" stroke-linecap="round" stroke-linejoin="round" /></g>
<g id="leg-left" data-semantic-layer="true"><rect x="274" y="301" width="29" height="146" rx="11.02" fill="#273D52" stroke="#162B45" stroke-width="6" /><rect x="271" y="437" width="53" height="28" rx="13" fill="#E6E0D5" stroke="#162B45" stroke-width="6" /></g>
<g id="leg-right" data-semantic-layer="true"><rect x="209" y="301" width="29" height="146" rx="11.02" fill="#273D52" stroke="#162B45" stroke-width="6" /><rect x="197" y="437" width="53" height="28" rx="13" fill="#E6E0D5" stroke="#162B45" stroke-width="6" /></g>
<g id="torso" data-semantic-layer="true"><rect x="207" y="170" width="98" height="139" rx="30" fill="#537A52" stroke="#162B45" stroke-width="7" /><path d="M225 188 Q256.0 213 287 188" fill="none" stroke="#E5B84A" stroke-width="8" stroke-linecap="round" stroke-linejoin="round" /><path d="M224.64 188 Q256.0 178 287.36 188" fill="none" stroke="#4D8EBA" stroke-width="5" stroke-linecap="round" stroke-linejoin="round" /><path d="M256.0 177 L256.0 301" fill="none" stroke="#E5B84A" stroke-width="6" stroke-linecap="round" stroke-linejoin="round" /><path d="M224.64 188 L248.16 228 M287.36 188 L263.84 228" fill="none" stroke="#4D8EBA" stroke-width="7" stroke-linecap="round" stroke-linejoin="round" /></g>
<g id="head" data-semantic-layer="true"><ellipse cx="204.3" cy="109" rx="12" ry="20" fill="#E2B192" stroke="#162B45" stroke-width="5" />
<ellipse cx="307.7" cy="109" rx="12" ry="20" fill="#E2B192" stroke="#162B45" stroke-width="5" />
<ellipse cx="256" cy="104" rx="55" ry="61" fill="#E2B192" stroke="#162B45" stroke-width="7" />
<path d="M216.4 74.72 Q242.25 56.42 290.1 72.28" fill="none" stroke="#F0C9AF" stroke-width="5" stroke-linecap="round" stroke-linejoin="round" opacity=".45"/></g>
<g id="hair-front" data-semantic-layer="true"><path d="M206 74 Q231 17 314 66 Q269 39 236 41 Q211 51 206 74 Z" fill="#873E2B" stroke="#162B45" stroke-width="6" stroke-linecap="round" stroke-linejoin="round" /><path d="M226 50 Q258 37 291 61" fill="none" stroke="#C56A49" stroke-width="5" stroke-linecap="round" stroke-linejoin="round" /></g>
<g id="face-friendly" data-semantic-layer="true"><path d="M218.35 90 Q232.35 83 246.35 90" fill="none" stroke="#162B45" stroke-width="5" stroke-linecap="round" stroke-linejoin="round" />
<path d="M265.65 90 Q279.65 83 293.65 90" fill="none" stroke="#162B45" stroke-width="5" stroke-linecap="round" stroke-linejoin="round" />
<ellipse cx="232.35" cy="108" rx="9" ry="11" fill="#FFF8EE" stroke="#162B45" stroke-width="4" />
<ellipse cx="279.65" cy="108" rx="9" ry="11" fill="#FFF8EE" stroke="#162B45" stroke-width="4" />
<ellipse cx="233.35" cy="110" rx="4" ry="6" fill="#162B45" stroke="#162B45" stroke-width="0" />
<ellipse cx="280.65" cy="110" rx="4" ry="6" fill="#162B45" stroke="#162B45" stroke-width="0" />
<path d="M256 116 q-4 10 4 12" fill="none" stroke="#F0C9AF" stroke-width="4" stroke-linecap="round" stroke-linejoin="round" />
<ellipse cx="224.1" cy="128" rx="10" ry="6" fill="#E58A78" stroke="none" stroke-width="0" opacity=".45"/>
<ellipse cx="287.9" cy="128" rx="10" ry="6" fill="#E58A78" stroke="none" stroke-width="0" opacity=".45"/>
<path d="M231 139 Q256 159 283 135" fill="none" stroke="#162B45" stroke-width="6" stroke-linecap="round" stroke-linejoin="round" />
<path d="M241 143 Q256 152 272 140" fill="none" stroke="#FFFFFF" stroke-width="3" stroke-linecap="round" stroke-linejoin="round" /></g>
<g id="face-laughing" data-semantic-layer="true" style="display:none"><path d="M223.35 108 Q232.35 116.25 241.35 108" fill="none" stroke="#162B45" stroke-width="5" stroke-linecap="round" stroke-linejoin="round" />
<path d="M270.65 108 Q279.65 116.25 288.65 108" fill="none" stroke="#162B45" stroke-width="5" stroke-linecap="round" stroke-linejoin="round" />
<path d="M218.35 88 Q232.35 82 246.35 88" fill="none" stroke="#162B45" stroke-width="5" stroke-linecap="round" stroke-linejoin="round" />
<path d="M265.65 88 Q279.65 82 293.65 88" fill="none" stroke="#162B45" stroke-width="5" stroke-linecap="round" stroke-linejoin="round" />
<path d="M256 116 q-4 10 5 12" fill="none" stroke="#F0C9AF" stroke-width="4" stroke-linecap="round" stroke-linejoin="round" />
<path d="M228 138 Q256 179 285 137 Z" fill="#5B2730" stroke="#162B45" stroke-width="5" stroke-linecap="round" stroke-linejoin="round" />
<path d="M241 158 Q256 167 272 157" fill="none" stroke="#E98A86" stroke-width="5" stroke-linecap="round" stroke-linejoin="round" /></g>
<g id="face-surprised" data-semantic-layer="true" style="display:none"><ellipse cx="232.35" cy="108" rx="9" ry="14.850000000000001" fill="#FFF8EE" stroke="#162B45" stroke-width="4" />
<ellipse cx="233.35" cy="110" rx="4" ry="8.100000000000001" fill="#162B45" stroke="#162B45" stroke-width="0" />
<ellipse cx="279.65" cy="108" rx="9" ry="14.850000000000001" fill="#FFF8EE" stroke="#162B45" stroke-width="4" />
<ellipse cx="280.65" cy="110" rx="4" ry="8.100000000000001" fill="#162B45" stroke="#162B45" stroke-width="0" />
<path d="M218.35 79 Q232.35 73 246.35 79" fill="none" stroke="#162B45" stroke-width="5" stroke-linecap="round" stroke-linejoin="round" />
<path d="M265.65 79 Q279.65 73 293.65 79" fill="none" stroke="#162B45" stroke-width="5" stroke-linecap="round" stroke-linejoin="round" />
<path d="M256 116 q-4 10 5 12" fill="none" stroke="#F0C9AF" stroke-width="4" stroke-linecap="round" stroke-linejoin="round" />
<ellipse cx="256" cy="145" rx="12" ry="16" fill="#5B2730" stroke="#162B45" stroke-width="5" /></g>
<g id="face-thinking" data-semantic-layer="true" style="display:none"><ellipse cx="232.35" cy="108" rx="9" ry="11.0" fill="#FFF8EE" stroke="#162B45" stroke-width="4" />
<ellipse cx="236.35" cy="110" rx="4" ry="6.0" fill="#162B45" stroke="#162B45" stroke-width="0" />
<ellipse cx="279.65" cy="108" rx="9" ry="11.0" fill="#FFF8EE" stroke="#162B45" stroke-width="4" />
<ellipse cx="283.65" cy="110" rx="4" ry="6.0" fill="#162B45" stroke="#162B45" stroke-width="0" />
<path d="M218.35 93 L246.35 86" fill="none" stroke="#162B45" stroke-width="5" stroke-linecap="round" stroke-linejoin="round" />
<path d="M265.65 86 L293.65 86" fill="none" stroke="#162B45" stroke-width="5" stroke-linecap="round" stroke-linejoin="round" />
<path d="M256 116 q-4 10 5 12" fill="none" stroke="#F0C9AF" stroke-width="4" stroke-linecap="round" stroke-linejoin="round" />
<path d="M238 145 Q259 141 278 148" fill="none" stroke="#162B45" stroke-width="5" stroke-linecap="round" stroke-linejoin="round" /></g>
<g id="face-confident" data-semantic-layer="true" style="display:none"><ellipse cx="232.35" cy="108" rx="9" ry="6.82" fill="#FFF8EE" stroke="#162B45" stroke-width="4" />
<ellipse cx="233.35" cy="110" rx="4" ry="3.7199999999999998" fill="#162B45" stroke="#162B45" stroke-width="0" />
<ellipse cx="279.65" cy="108" rx="9" ry="6.82" fill="#FFF8EE" stroke="#162B45" stroke-width="4" />
<ellipse cx="280.65" cy="110" rx="4" ry="3.7199999999999998" fill="#162B45" stroke="#162B45" stroke-width="0" />
<path d="M218.35 93 Q232.35 87 246.35 93" fill="none" stroke="#162B45" stroke-width="5" stroke-linecap="round" stroke-linejoin="round" />
<path d="M265.65 93 Q279.65 87 293.65 93" fill="none" stroke="#162B45" stroke-width="5" stroke-linecap="round" stroke-linejoin="round" />
<path d="M256 116 q-4 10 5 12" fill="none" stroke="#F0C9AF" stroke-width="4" stroke-linecap="round" stroke-linejoin="round" />
<path d="M232 142 Q261 164 285 137" fill="none" stroke="#162B45" stroke-width="6" stroke-linecap="round" stroke-linejoin="round" /></g>
<g id="face-sorry" data-semantic-layer="true" style="display:none"><ellipse cx="232.35" cy="108" rx="9" ry="11.0" fill="#FFF8EE" stroke="#162B45" stroke-width="4" />
<ellipse cx="233.35" cy="110" rx="4" ry="6.0" fill="#162B45" stroke="#162B45" stroke-width="0" />
<ellipse cx="279.65" cy="108" rx="9" ry="11.0" fill="#FFF8EE" stroke="#162B45" stroke-width="4" />
<ellipse cx="280.65" cy="110" rx="4" ry="6.0" fill="#162B45" stroke="#162B45" stroke-width="0" />
<path d="M218.35 90 Q234.35 84 246.35 95" fill="none" stroke="#162B45" stroke-width="5" stroke-linecap="round" stroke-linejoin="round" />
<path d="M265.65 95 Q277.65 84 293.65 90" fill="none" stroke="#162B45" stroke-width="5" stroke-linecap="round" stroke-linejoin="round" />
<path d="M256 116 q-4 10 5 12" fill="none" stroke="#F0C9AF" stroke-width="4" stroke-linecap="round" stroke-linejoin="round" />
<path d="M232 154 Q256 135 280 154" fill="none" stroke="#162B45" stroke-width="6" stroke-linecap="round" stroke-linejoin="round" /></g>
<g id="face-excited" data-semantic-layer="true" style="display:none"><ellipse cx="232.35" cy="108" rx="9" ry="14.850000000000001" fill="#FFF8EE" stroke="#162B45" stroke-width="4" />
<ellipse cx="233.35" cy="110" rx="4" ry="8.100000000000001" fill="#162B45" stroke="#162B45" stroke-width="0" />
<ellipse cx="279.65" cy="108" rx="9" ry="14.850000000000001" fill="#FFF8EE" stroke="#162B45" stroke-width="4" />
<ellipse cx="280.65" cy="110" rx="4" ry="8.100000000000001" fill="#162B45" stroke="#162B45" stroke-width="0" />
<path d="M218.35 83 Q232.35 77 246.35 83" fill="none" stroke="#162B45" stroke-width="5" stroke-linecap="round" stroke-linejoin="round" />
<path d="M265.65 83 Q279.65 77 293.65 83" fill="none" stroke="#162B45" stroke-width="5" stroke-linecap="round" stroke-linejoin="round" />
<path d="M256 116 q-4 10 5 12" fill="none" stroke="#F0C9AF" stroke-width="4" stroke-linecap="round" stroke-linejoin="round" />
<path d="M229 140 Q256 169 284 138" fill="none" stroke="#162B45" stroke-width="6" stroke-linecap="round" stroke-linejoin="round" /></g>
<g id="arm-left-rest" data-semantic-layer="true" style="display:none"><polyline points="297,204 311.0,239.0 325,274" fill="none" stroke="#162B45" stroke-width="32" stroke-linecap="round" stroke-linejoin="round"/><polyline points="297,204 311.0,239.0 325,274" fill="none" stroke="#537A52" stroke-width="24" stroke-linecap="round" stroke-linejoin="round"/><polyline points="325,274 319,324" fill="none" stroke="#162B45" stroke-width="25" stroke-linecap="round" stroke-linejoin="round"/><polyline points="325,274 319,324" fill="none" stroke="#E2B192" stroke-width="18" stroke-linecap="round" stroke-linejoin="round"/><ellipse cx="319" cy="324" rx="11" ry="13" fill="#F0C9AF" stroke="#162B45" stroke-width="5" /></g>
<g id="arm-right-rest" data-semantic-layer="true" style="display:none"><polyline points="215,204 201.0,239.0 187,274" fill="none" stroke="#162B45" stroke-width="32" stroke-linecap="round" stroke-linejoin="round"/><polyline points="215,204 201.0,239.0 187,274" fill="none" stroke="#537A52" stroke-width="24" stroke-linecap="round" stroke-linejoin="round"/><polyline points="187,274 193,324" fill="none" stroke="#162B45" stroke-width="25" stroke-linecap="round" stroke-linejoin="round"/><polyline points="187,274 193,324" fill="none" stroke="#E2B192" stroke-width="18" stroke-linecap="round" stroke-linejoin="round"/><ellipse cx="193" cy="324" rx="11" ry="13" fill="#F0C9AF" stroke="#162B45" stroke-width="5" /></g>
<g id="arm-left-greeting" data-semantic-layer="true"><polyline points="297,204 315.0,188.0 333,172" fill="none" stroke="#162B45" stroke-width="32" stroke-linecap="round" stroke-linejoin="round"/><polyline points="297,204 315.0,188.0 333,172" fill="none" stroke="#537A52" stroke-width="24" stroke-linecap="round" stroke-linejoin="round"/><polyline points="333,172 345,114" fill="none" stroke="#162B45" stroke-width="25" stroke-linecap="round" stroke-linejoin="round"/><polyline points="333,172 345,114" fill="none" stroke="#E2B192" stroke-width="18" stroke-linecap="round" stroke-linejoin="round"/><ellipse cx="345" cy="114" rx="13" ry="15" fill="#F0C9AF" stroke="#162B45" stroke-width="5" /><path d="M340.8 108 L331.2 87.8" fill="none" stroke="#E2B192" stroke-width="6" stroke-linecap="round" stroke-linejoin="round" /><path d="M343.6 108 L340.4 86.6" fill="none" stroke="#E2B192" stroke-width="6" stroke-linecap="round" stroke-linejoin="round" /><path d="M346.4 108 L349.6 86.6" fill="none" stroke="#E2B192" stroke-width="6" stroke-linecap="round" stroke-linejoin="round" /><path d="M349.2 108 L358.8 87.8" fill="none" stroke="#E2B192" stroke-width="6" stroke-linecap="round" stroke-linejoin="round" /></g>
<g id="arm-right-greeting" data-semantic-layer="true"><polyline points="215,204 201.0,239.0 187,274" fill="none" stroke="#162B45" stroke-width="32" stroke-linecap="round" stroke-linejoin="round"/><polyline points="215,204 201.0,239.0 187,274" fill="none" stroke="#537A52" stroke-width="24" stroke-linecap="round" stroke-linejoin="round"/><polyline points="187,274 193,324" fill="none" stroke="#162B45" stroke-width="25" stroke-linecap="round" stroke-linejoin="round"/><polyline points="187,274 193,324" fill="none" stroke="#E2B192" stroke-width="18" stroke-linecap="round" stroke-linejoin="round"/><ellipse cx="193" cy="324" rx="11" ry="13" fill="#F0C9AF" stroke="#162B45" stroke-width="5" /></g>
<g id="arm-left-farewell" data-semantic-layer="true" style="display:none"><polyline points="297,204 315.0,188.0 333,172" fill="none" stroke="#162B45" stroke-width="32" stroke-linecap="round" stroke-linejoin="round"/><polyline points="297,204 315.0,188.0 333,172" fill="none" stroke="#537A52" stroke-width="24" stroke-linecap="round" stroke-linejoin="round"/><polyline points="333,172 345,114" fill="none" stroke="#162B45" stroke-width="25" stroke-linecap="round" stroke-linejoin="round"/><polyline points="333,172 345,114" fill="none" stroke="#E2B192" stroke-width="18" stroke-linecap="round" stroke-linejoin="round"/><ellipse cx="345" cy="114" rx="13" ry="15" fill="#F0C9AF" stroke="#162B45" stroke-width="5" /><path d="M340.8 108 L331.2 87.8" fill="none" stroke="#E2B192" stroke-width="6" stroke-linecap="round" stroke-linejoin="round" /><path d="M343.6 108 L340.4 86.6" fill="none" stroke="#E2B192" stroke-width="6" stroke-linecap="round" stroke-linejoin="round" /><path d="M346.4 108 L349.6 86.6" fill="none" stroke="#E2B192" stroke-width="6" stroke-linecap="round" stroke-linejoin="round" /><path d="M349.2 108 L358.8 87.8" fill="none" stroke="#E2B192" stroke-width="6" stroke-linecap="round" stroke-linejoin="round" /></g>
<g id="arm-right-farewell" data-semantic-layer="true" style="display:none"><polyline points="215,204 201.0,239.0 187,274" fill="none" stroke="#162B45" stroke-width="32" stroke-linecap="round" stroke-linejoin="round"/><polyline points="215,204 201.0,239.0 187,274" fill="none" stroke="#537A52" stroke-width="24" stroke-linecap="round" stroke-linejoin="round"/><polyline points="187,274 193,324" fill="none" stroke="#162B45" stroke-width="25" stroke-linecap="round" stroke-linejoin="round"/><polyline points="187,274 193,324" fill="none" stroke="#E2B192" stroke-width="18" stroke-linecap="round" stroke-linejoin="round"/><ellipse cx="193" cy="324" rx="11" ry="13" fill="#F0C9AF" stroke="#162B45" stroke-width="5" /></g>
<g id="arm-left-agreement" data-semantic-layer="true" style="display:none"><polyline points="297,204 307.0,221.5 317,239" fill="none" stroke="#162B45" stroke-width="32" stroke-linecap="round" stroke-linejoin="round"/><polyline points="297,204 307.0,221.5 317,239" fill="none" stroke="#537A52" stroke-width="24" stroke-linecap="round" stroke-linejoin="round"/><polyline points="317,239 301,214" fill="none" stroke="#162B45" stroke-width="25" stroke-linecap="round" stroke-linejoin="round"/><polyline points="317,239 301,214" fill="none" stroke="#E2B192" stroke-width="18" stroke-linecap="round" stroke-linejoin="round"/><ellipse cx="301" cy="214" rx="11" ry="13" fill="#F0C9AF" stroke="#162B45" stroke-width="5" /></g>
<g id="arm-right-agreement" data-semantic-layer="true" style="display:none"><polyline points="215,204 201.0,239.0 187,274" fill="none" stroke="#162B45" stroke-width="32" stroke-linecap="round" stroke-linejoin="round"/><polyline points="215,204 201.0,239.0 187,274" fill="none" stroke="#537A52" stroke-width="24" stroke-linecap="round" stroke-linejoin="round"/><polyline points="187,274 193,324" fill="none" stroke="#162B45" stroke-width="25" stroke-linecap="round" stroke-linejoin="round"/><polyline points="187,274 193,324" fill="none" stroke="#E2B192" stroke-width="18" stroke-linecap="round" stroke-linejoin="round"/><ellipse cx="193" cy="324" rx="11" ry="13" fill="#F0C9AF" stroke="#162B45" stroke-width="5" /></g>
<g id="arm-left-disagreement" data-semantic-layer="true" style="display:none"><polyline points="297,204 305.0,226.5 313,249" fill="none" stroke="#162B45" stroke-width="32" stroke-linecap="round" stroke-linejoin="round"/><polyline points="297,204 305.0,226.5 313,249" fill="none" stroke="#537A52" stroke-width="24" stroke-linecap="round" stroke-linejoin="round"/><polyline points="313,249 218,277" fill="none" stroke="#162B45" stroke-width="25" stroke-linecap="round" stroke-linejoin="round"/><polyline points="313,249 218,277" fill="none" stroke="#E2B192" stroke-width="18" stroke-linecap="round" stroke-linejoin="round"/><ellipse cx="218" cy="277" rx="11" ry="13" fill="#F0C9AF" stroke="#162B45" stroke-width="5" /></g>
<g id="arm-right-disagreement" data-semantic-layer="true" style="display:none"><polyline points="215,204 201.0,239.0 187,274" fill="none" stroke="#162B45" stroke-width="32" stroke-linecap="round" stroke-linejoin="round"/><polyline points="215,204 201.0,239.0 187,274" fill="none" stroke="#537A52" stroke-width="24" stroke-linecap="round" stroke-linejoin="round"/><polyline points="187,274 193,324" fill="none" stroke="#162B45" stroke-width="25" stroke-linecap="round" stroke-linejoin="round"/><polyline points="187,274 193,324" fill="none" stroke="#E2B192" stroke-width="18" stroke-linecap="round" stroke-linejoin="round"/><ellipse cx="193" cy="324" rx="11" ry="13" fill="#F0C9AF" stroke="#162B45" stroke-width="5" /></g>
<g id="arm-left-gratitude" data-semantic-layer="true" style="display:none"><polyline points="297,204 306.0,227.5 315,251" fill="none" stroke="#162B45" stroke-width="32" stroke-linecap="round" stroke-linejoin="round"/><polyline points="297,204 306.0,227.5 315,251" fill="none" stroke="#537A52" stroke-width="24" stroke-linecap="round" stroke-linejoin="round"/><polyline points="315,251 266,266" fill="none" stroke="#162B45" stroke-width="25" stroke-linecap="round" stroke-linejoin="round"/><polyline points="315,251 266,266" fill="none" stroke="#E2B192" stroke-width="18" stroke-linecap="round" stroke-linejoin="round"/><ellipse cx="266" cy="266" rx="11" ry="13" fill="#F0C9AF" stroke="#162B45" stroke-width="5" /></g>
<g id="arm-right-gratitude" data-semantic-layer="true" style="display:none"><polyline points="215,204 201.0,239.0 187,274" fill="none" stroke="#162B45" stroke-width="32" stroke-linecap="round" stroke-linejoin="round"/><polyline points="215,204 201.0,239.0 187,274" fill="none" stroke="#537A52" stroke-width="24" stroke-linecap="round" stroke-linejoin="round"/><polyline points="187,274 193,324" fill="none" stroke="#162B45" stroke-width="25" stroke-linecap="round" stroke-linejoin="round"/><polyline points="187,274 193,324" fill="none" stroke="#E2B192" stroke-width="18" stroke-linecap="round" stroke-linejoin="round"/><ellipse cx="193" cy="324" rx="11" ry="13" fill="#F0C9AF" stroke="#162B45" stroke-width="5" /></g>
<g id="arm-left-concern" data-semantic-layer="true" style="display:none"><polyline points="297,204 309.0,215.0 321,226" fill="none" stroke="#162B45" stroke-width="32" stroke-linecap="round" stroke-linejoin="round"/><polyline points="297,204 309.0,215.0 321,226" fill="none" stroke="#537A52" stroke-width="24" stroke-linecap="round" stroke-linejoin="round"/><polyline points="321,226 294,147" fill="none" stroke="#162B45" stroke-width="25" stroke-linecap="round" stroke-linejoin="round"/><polyline points="321,226 294,147" fill="none" stroke="#E2B192" stroke-width="18" stroke-linecap="round" stroke-linejoin="round"/><ellipse cx="294" cy="147" rx="11" ry="13" fill="#F0C9AF" stroke="#162B45" stroke-width="5" /></g>
<g id="arm-right-concern" data-semantic-layer="true" style="display:none"><polyline points="215,204 201.0,239.0 187,274" fill="none" stroke="#162B45" stroke-width="32" stroke-linecap="round" stroke-linejoin="round"/><polyline points="215,204 201.0,239.0 187,274" fill="none" stroke="#537A52" stroke-width="24" stroke-linecap="round" stroke-linejoin="round"/><polyline points="187,274 193,324" fill="none" stroke="#162B45" stroke-width="25" stroke-linecap="round" stroke-linejoin="round"/><polyline points="187,274 193,324" fill="none" stroke="#E2B192" stroke-width="18" stroke-linecap="round" stroke-linejoin="round"/><ellipse cx="193" cy="324" rx="11" ry="13" fill="#F0C9AF" stroke="#162B45" stroke-width="5" /></g>
<g id="arm-left-surprise" data-semantic-layer="true" style="display:none"><polyline points="297,204 311.0,208.0 325,212" fill="none" stroke="#162B45" stroke-width="32" stroke-linecap="round" stroke-linejoin="round"/><polyline points="297,204 311.0,208.0 325,212" fill="none" stroke="#537A52" stroke-width="24" stroke-linecap="round" stroke-linejoin="round"/><polyline points="325,212 314,134" fill="none" stroke="#162B45" stroke-width="25" stroke-linecap="round" stroke-linejoin="round"/><polyline points="325,212 314,134" fill="none" stroke="#E2B192" stroke-width="18" stroke-linecap="round" stroke-linejoin="round"/><ellipse cx="314" cy="134" rx="13" ry="15" fill="#F0C9AF" stroke="#162B45" stroke-width="5" /><path d="M309.8 128 L300.2 107.8" fill="none" stroke="#E2B192" stroke-width="6" stroke-linecap="round" stroke-linejoin="round" /><path d="M312.6 128 L309.4 106.6" fill="none" stroke="#E2B192" stroke-width="6" stroke-linecap="round" stroke-linejoin="round" /><path d="M315.4 128 L318.6 106.6" fill="none" stroke="#E2B192" stroke-width="6" stroke-linecap="round" stroke-linejoin="round" /><path d="M318.2 128 L327.8 107.8" fill="none" stroke="#E2B192" stroke-width="6" stroke-linecap="round" stroke-linejoin="round" /></g>
<g id="arm-right-surprise" data-semantic-layer="true" style="display:none"><polyline points="215,204 201.0,239.0 187,274" fill="none" stroke="#162B45" stroke-width="32" stroke-linecap="round" stroke-linejoin="round"/><polyline points="215,204 201.0,239.0 187,274" fill="none" stroke="#537A52" stroke-width="24" stroke-linecap="round" stroke-linejoin="round"/><polyline points="187,274 193,324" fill="none" stroke="#162B45" stroke-width="25" stroke-linecap="round" stroke-linejoin="round"/><polyline points="187,274 193,324" fill="none" stroke="#E2B192" stroke-width="18" stroke-linecap="round" stroke-linejoin="round"/><ellipse cx="193" cy="324" rx="11" ry="13" fill="#F0C9AF" stroke="#162B45" stroke-width="5" /></g>
<g id="arm-left-celebration" data-semantic-layer="true" style="display:none"><polyline points="297,204 314.0,183.0 331,162" fill="none" stroke="#162B45" stroke-width="32" stroke-linecap="round" stroke-linejoin="round"/><polyline points="297,204 314.0,183.0 331,162" fill="none" stroke="#537A52" stroke-width="24" stroke-linecap="round" stroke-linejoin="round"/><polyline points="331,162 349,100" fill="none" stroke="#162B45" stroke-width="25" stroke-linecap="round" stroke-linejoin="round"/><polyline points="331,162 349,100" fill="none" stroke="#E2B192" stroke-width="18" stroke-linecap="round" stroke-linejoin="round"/><ellipse cx="349" cy="100" rx="13" ry="15" fill="#F0C9AF" stroke="#162B45" stroke-width="5" /><path d="M344.8 94 L335.2 73.8" fill="none" stroke="#E2B192" stroke-width="6" stroke-linecap="round" stroke-linejoin="round" /><path d="M347.6 94 L344.4 72.6" fill="none" stroke="#E2B192" stroke-width="6" stroke-linecap="round" stroke-linejoin="round" /><path d="M350.4 94 L353.6 72.6" fill="none" stroke="#E2B192" stroke-width="6" stroke-linecap="round" stroke-linejoin="round" /><path d="M353.2 94 L362.8 73.8" fill="none" stroke="#E2B192" stroke-width="6" stroke-linecap="round" stroke-linejoin="round" /></g>
<g id="arm-right-celebration" data-semantic-layer="true" style="display:none"><polyline points="215,204 201.0,239.0 187,274" fill="none" stroke="#162B45" stroke-width="32" stroke-linecap="round" stroke-linejoin="round"/><polyline points="215,204 201.0,239.0 187,274" fill="none" stroke="#537A52" stroke-width="24" stroke-linecap="round" stroke-linejoin="round"/><polyline points="187,274 193,324" fill="none" stroke="#162B45" stroke-width="25" stroke-linecap="round" stroke-linejoin="round"/><polyline points="187,274 193,324" fill="none" stroke="#E2B192" stroke-width="18" stroke-linecap="round" stroke-linejoin="round"/><ellipse cx="193" cy="324" rx="11" ry="13" fill="#F0C9AF" stroke="#162B45" stroke-width="5" /></g>
<g id="device-white-cane-grip" data-semantic-layer="true"><rect x="185" y="327" width="16" height="34" rx="8" fill="#263451" stroke="#162B45" stroke-width="4" /></g>
<g id="device-white-cane-shaft" data-semantic-layer="true"><path d="M193 354 L259 450" fill="none" stroke="#162B45" stroke-width="15" stroke-linecap="round" stroke-linejoin="round" /><path d="M193 354 L259 450" fill="none" stroke="#F6F4EA" stroke-width="9" stroke-linecap="round" stroke-linejoin="round" /><path d="M243 415 L259 450" fill="none" stroke="#162B45" stroke-width="15" stroke-linecap="round" stroke-linejoin="round" /><path d="M243 415 L259 450" fill="none" stroke="#E85D68" stroke-width="9" stroke-linecap="round" stroke-linejoin="round" /></g>
<g id="device-white-cane-tip" data-semantic-layer="true"><ellipse cx="259" cy="463" rx="10" ry="7" fill="#303944" stroke="#162B45" stroke-width="4" /></g>
</svg>
