<svg xmlns="http://www.w3.org/2000/svg" width="512" height="512" viewBox="0 0 512 512">
<defs><linearGradient id="softShade" x1="0" y1="0" x2="1" y2="1"><stop offset="0" stop-color="#FFFFFF" stop-opacity=".24"/><stop offset="1" stop-color="#10243A" stop-opacity=".14"/></linearGradient></defs>
<ellipse cx="256" cy="458" rx="105" ry="14" fill="#AAB2BD" stroke="none" stroke-width="0" opacity=".65"/><rect x="262" y="305" width="33" height="123" rx="15" fill="#754329" stroke="#162B45" stroke-width="6" /><rect x="255" y="416" width="57" height="29" rx="14" fill="#E94E64" stroke="#162B45" stroke-width="6" /><path d="M264 425 L302 425" fill="none" stroke="#23B6A6" stroke-width="5" stroke-linecap="round" stroke-linejoin="round" /><rect x="217" y="305" width="33" height="123" rx="15" fill="#754329" stroke="#162B45" stroke-width="6" /><rect x="201" y="416" width="57" height="29" rx="14" fill="#E94E64" stroke="#162B45" stroke-width="6" /><path d="M210 425 L248 425" fill="none" stroke="#23B6A6" stroke-width="5" stroke-linecap="round" stroke-linejoin="round" /><polyline points="298,249 312.0,284.0 326,319" fill="none" stroke="#162B45" stroke-width="32" stroke-linecap="round" stroke-linejoin="round"/><polyline points="298,249 312.0,284.0 326,319" fill="none" stroke="#F5B82E" stroke-width="24" stroke-linecap="round" stroke-linejoin="round"/><polyline points="326,319 320,369" fill="none" stroke="#162B45" stroke-width="25" stroke-linecap="round" stroke-linejoin="round"/><polyline points="326,319 320,369" fill="none" stroke="#754329" stroke-width="18" stroke-linecap="round" stroke-linejoin="round"/><ellipse cx="320" cy="369" rx="11" ry="13" fill="#9A6040" stroke="#162B45" stroke-width="5" /><polyline points="214,249 200.0,284.0 186,319" fill="none" stroke="#162B45" stroke-width="32" stroke-linecap="round" stroke-linejoin="round"/><polyline points="214,249 200.0,284.0 186,319" fill="none" stroke="#F5B82E" stroke-width="24" stroke-linecap="round" stroke-linejoin="round"/><polyline points="186,319 192,369" fill="none" stroke="#162B45" stroke-width="25" stroke-linecap="round" stroke-linejoin="round"/><polyline points="186,319 192,369" fill="none" stroke="#754329" stroke-width="18" stroke-linecap="round" stroke-linejoin="round"/><ellipse cx="192" cy="369" rx="11" ry="13" fill="#9A6040" stroke="#162B45" stroke-width="5" /><rect x="206" y="215" width="100" height="96" rx="30" fill="#F5B82E" stroke="#162B45" stroke-width="7" /><path d="M224 237 Q256.0 253 288 237" fill="none" stroke="#E85D89" stroke-width="8" stroke-linecap="round" stroke-linejoin="round" /><ellipse cx="256" cy="143" rx="68" ry="72" fill="#754329" stroke="#162B45" stroke-width="7" /><ellipse cx="196" cy="83" rx="41" ry="43" fill="#211714" stroke="#162B45" stroke-width="6" /><ellipse cx="316" cy="83" rx="41" ry="43" fill="#211714" stroke="#162B45" stroke-width="6" /><ellipse cx="211" cy="81" rx="18" ry="17" fill="#211714" stroke="#162B45" stroke-width="4" /><ellipse cx="226" cy="86" rx="18" ry="17" fill="#211714" stroke="#162B45" stroke-width="4" /><ellipse cx="241" cy="81" rx="18" ry="17" fill="#211714" stroke="#162B45" stroke-width="4" /><ellipse cx="256" cy="86" rx="18" ry="17" fill="#211714" stroke="#162B45" stroke-width="4" /><ellipse cx="271" cy="81" rx="18" ry="17" fill="#211714" stroke="#162B45" stroke-width="4" /><ellipse cx="286" cy="86" rx="18" ry="17" fill="#211714" stroke="#162B45" stroke-width="4" /><ellipse cx="301" cy="81" rx="18" ry="17" fill="#211714" stroke="#162B45" stroke-width="4" /><path d="M202 96 Q256 65 311 100" fill="#211714" stroke="#162B45" stroke-width="6" stroke-linecap="round" stroke-linejoin="round" />
</svg>
