<svg xmlns="http://www.w3.org/2000/svg" width="512" height="512" viewBox="0 0 512 512">
<defs><linearGradient id="softShade" x1="0" y1="0" x2="1" y2="1"><stop offset="0" stop-color="#FFFFFF" stop-opacity=".24"/><stop offset="1" stop-color="#10243A" stop-opacity=".14"/></linearGradient></defs>
<ellipse cx="256" cy="458" rx="105" ry="14" fill="#AAB2BD" stroke="none" stroke-width="0" opacity=".65"/><ellipse cx="196" cy="83" rx="41" ry="43" fill="#211714" stroke="#162B45" stroke-width="6" /><ellipse cx="316" cy="83" rx="41" ry="43" fill="#211714" stroke="#162B45" stroke-width="6" /><rect x="262" y="305" width="33" height="123" rx="15" fill="#754329" stroke="#162B45" stroke-width="6" /><rect x="255" y="416" width="57" height="29" rx="14" fill="#E94E64" stroke="#162B45" stroke-width="6" /><path d="M264 425 L302 425" fill="none" stroke="#23B6A6" stroke-width="5" stroke-linecap="round" stroke-linejoin="round" /><rect x="217" y="305" width="33" height="123" rx="15" fill="#754329" stroke="#162B45" stroke-width="6" /><rect x="201" y="416" width="57" height="29" rx="14" fill="#E94E64" stroke="#162B45" stroke-width="6" /><path d="M210 425 L248 425" fill="none" stroke="#23B6A6" stroke-width="5" stroke-linecap="round" stroke-linejoin="round" /><rect x="206" y="215" width="100" height="96" rx="29" fill="#F5B82E" stroke="#162B45" stroke-width="7" /><path d="M224 230 Q256.0 249 288 230" fill="none" stroke="#FFD966" stroke-width="5" stroke-linecap="round" stroke-linejoin="round" /><path d="M244 255 C244 240 268 240 268 255 C268 272 256 279 256 279 C256 279 244 270 244 255 Z" fill="#E85D89" stroke="none" stroke-width="0" stroke-linecap="round" stroke-linejoin="round" /><path d="M202 294 L310 294 L324 350 L188 350 Z" fill="#2879A8" stroke="#162B45" stroke-width="7" stroke-linecap="round" stroke-linejoin="round" /><ellipse cx="192.08" cy="148" rx="12" ry="20" fill="#754329" stroke="#162B45" stroke-width="5" />
<ellipse cx="319.92" cy="148" rx="12" ry="20" fill="#754329" stroke="#162B45" stroke-width="5" />
<ellipse cx="256" cy="143" rx="68" ry="72" fill="#754329" stroke="#162B45" stroke-width="7" />
<path d="M207.04 108.44 Q239.0 86.84 298.15999999999997 105.56" fill="none" stroke="#9A6040" stroke-width="5" stroke-linecap="round" stroke-linejoin="round" opacity=".45"/><ellipse cx="211" cy="81" rx="18" ry="17" fill="#211714" stroke="#162B45" stroke-width="4" /><ellipse cx="226" cy="86" rx="18" ry="17" fill="#211714" stroke="#162B45" stroke-width="4" /><ellipse cx="241" cy="81" rx="18" ry="17" fill="#211714" stroke="#162B45" stroke-width="4" /><ellipse cx="256" cy="86" rx="18" ry="17" fill="#211714" stroke="#162B45" stroke-width="4" /><ellipse cx="271" cy="81" rx="18" ry="17" fill="#211714" stroke="#162B45" stroke-width="4" /><ellipse cx="286" cy="86" rx="18" ry="17" fill="#211714" stroke="#162B45" stroke-width="4" /><ellipse cx="301" cy="81" rx="18" ry="17" fill="#211714" stroke="#162B45" stroke-width="4" /><path d="M202 96 Q256 65 311 100" fill="#211714" stroke="#162B45" stroke-width="6" stroke-linecap="round" stroke-linejoin="round" /><path d="M212.76 129 Q226.76 122 240.76 129" fill="none" stroke="#162B45" stroke-width="5" stroke-linecap="round" stroke-linejoin="round" />
<path d="M271.24 129 Q285.24 122 299.24 129" fill="none" stroke="#162B45" stroke-width="5" stroke-linecap="round" stroke-linejoin="round" />
<ellipse cx="226.76" cy="147" rx="12" ry="15" fill="#FFF8EE" stroke="#162B45" stroke-width="4" />
<ellipse cx="285.24" cy="147" rx="12" ry="15" fill="#FFF8EE" stroke="#162B45" stroke-width="4" />
<ellipse cx="227.76" cy="149" rx="4" ry="6" fill="#162B45" stroke="#162B45" stroke-width="0" />
<ellipse cx="286.24" cy="149" rx="4" ry="6" fill="#162B45" stroke="#162B45" stroke-width="0" />
<path d="M256 155 q-4 10 4 12" fill="none" stroke="#9A6040" stroke-width="4" stroke-linecap="round" stroke-linejoin="round" />
<ellipse cx="216.56" cy="167" rx="10" ry="6" fill="#E58A78" stroke="none" stroke-width="0" opacity=".45"/>
<ellipse cx="295.44" cy="167" rx="10" ry="6" fill="#E58A78" stroke="none" stroke-width="0" opacity=".45"/>
<path d="M231 178 Q256 198 283 174" fill="none" stroke="#162B45" stroke-width="6" stroke-linecap="round" stroke-linejoin="round" />
<path d="M241 182 Q256 191 272 179" fill="none" stroke="#FFFFFF" stroke-width="3" stroke-linecap="round" stroke-linejoin="round" /><polyline points="298,249 312.0,284.0 326,319" fill="none" stroke="#162B45" stroke-width="32" stroke-linecap="round" stroke-linejoin="round"/><polyline points="298,249 312.0,284.0 326,319" fill="none" stroke="#F5B82E" stroke-width="24" stroke-linecap="round" stroke-linejoin="round"/><polyline points="326,319 320,369" fill="none" stroke="#162B45" stroke-width="25" stroke-linecap="round" stroke-linejoin="round"/><polyline points="326,319 320,369" fill="none" stroke="#754329" stroke-width="18" stroke-linecap="round" stroke-linejoin="round"/><ellipse cx="320" cy="369" rx="11" ry="13" fill="#9A6040" stroke="#162B45" stroke-width="5" /><polyline points="214,249 200.0,284.0 186,319" fill="none" stroke="#162B45" stroke-width="32" stroke-linecap="round" stroke-linejoin="round"/><polyline points="214,249 200.0,284.0 186,319" fill="none" stroke="#F5B82E" stroke-width="24" stroke-linecap="round" stroke-linejoin="round"/><polyline points="186,319 192,369" fill="none" stroke="#162B45" stroke-width="25" stroke-linecap="round" stroke-linejoin="round"/><polyline points="186,319 192,369" fill="none" stroke="#754329" stroke-width="18" stroke-linecap="round" stroke-linejoin="round"/><ellipse cx="192" cy="369" rx="11" ry="13" fill="#9A6040" stroke="#162B45" stroke-width="5" />
</svg>
