<svg xmlns="http://www.w3.org/2000/svg" width="512" height="512" viewBox="0 0 512 512">
<defs><linearGradient id="softShade" x1="0" y1="0" x2="1" y2="1"><stop offset="0" stop-color="#FFFFFF" stop-opacity=".24"/><stop offset="1" stop-color="#10243A" stop-opacity=".14"/></linearGradient></defs>
<ellipse cx="256" cy="458" rx="105" ry="14" fill="#AAB2BD" stroke="none" stroke-width="0" opacity=".65"/><rect x="236" y="304" width="34" height="145" rx="14" fill="#2879A8" stroke="#162B45" stroke-width="6" /><rect x="230" y="429" width="61" height="27" rx="13" fill="#E94E64" stroke="#162B45" stroke-width="6" /><rect x="229.0" y="215" width="58" height="96" rx="25" fill="#F5B82E" stroke="#162B45" stroke-width="7" /><path d="M240.6 235 L275.4 235" fill="none" stroke="#E85D89" stroke-width="7" stroke-linecap="round" stroke-linejoin="round" /><path d="M258 250 Q293 310 278 365" fill="none" stroke="#754329" stroke-width="20" stroke-linecap="round" stroke-linejoin="round" /><ellipse cx="258" cy="143" rx="39.44" ry="72" fill="#754329" stroke="#162B45" stroke-width="7" /><g transform="translate(2 0) scale(.64 1)"><ellipse cx="211" cy="81" rx="18" ry="17" fill="#211714" stroke="#162B45" stroke-width="4" /><ellipse cx="226" cy="86" rx="18" ry="17" fill="#211714" stroke="#162B45" stroke-width="4" /><ellipse cx="241" cy="81" rx="18" ry="17" fill="#211714" stroke="#162B45" stroke-width="4" /><ellipse cx="256" cy="86" rx="18" ry="17" fill="#211714" stroke="#162B45" stroke-width="4" /><ellipse cx="271" cy="81" rx="18" ry="17" fill="#211714" stroke="#162B45" stroke-width="4" /><ellipse cx="286" cy="86" rx="18" ry="17" fill="#211714" stroke="#162B45" stroke-width="4" /><ellipse cx="301" cy="81" rx="18" ry="17" fill="#211714" stroke="#162B45" stroke-width="4" /><path d="M202 96 Q256 65 311 100" fill="#211714" stroke="#162B45" stroke-width="6" stroke-linecap="round" stroke-linejoin="round" /></g><ellipse cx="271.6" cy="145" rx="9" ry="12" fill="#FFF8EE" stroke="#162B45" stroke-width="4" /><ellipse cx="274.32" cy="147" rx="4" ry="6" fill="#162B45" stroke="#162B45" stroke-width="0" /><path d="M292.0 151 q12 8 0 16" fill="none" stroke="#9A6040" stroke-width="5" stroke-linecap="round" stroke-linejoin="round" /><path d="M260 180 Q276 191 289 177" fill="none" stroke="#162B45" stroke-width="5" stroke-linecap="round" stroke-linejoin="round" />
</svg>
