<svg xmlns="http://www.w3.org/2000/svg" width="512" height="512" viewBox="0 0 512 512">
<defs><linearGradient id="softShade" x1="0" y1="0" x2="1" y2="1"><stop offset="0" stop-color="#FFFFFF" stop-opacity=".24"/><stop offset="1" stop-color="#10243A" stop-opacity=".14"/></linearGradient></defs>
<path d="M217.06 97 Q231.06 90 245.06 97" fill="none" stroke="#162B45" stroke-width="5" stroke-linecap="round" stroke-linejoin="round" />
<path d="M266.94 97 Q280.94 90 294.94 97" fill="none" stroke="#162B45" stroke-width="5" stroke-linecap="round" stroke-linejoin="round" />
<ellipse cx="231.06" cy="115" rx="10" ry="12" fill="#FFF8EE" stroke="#162B45" stroke-width="4" />
<ellipse cx="280.94" cy="115" rx="10" ry="12" fill="#FFF8EE" stroke="#162B45" stroke-width="4" />
<ellipse cx="232.06" cy="117" rx="4" ry="6" fill="#162B45" stroke="#162B45" stroke-width="0" />
<ellipse cx="281.94" cy="117" rx="4" ry="6" fill="#162B45" stroke="#162B45" stroke-width="0" />
<path d="M256 123 q-4 10 4 12" fill="none" stroke="#CE8B61" stroke-width="4" stroke-linecap="round" stroke-linejoin="round" />
<ellipse cx="222.36" cy="135" rx="10" ry="6" fill="#E58A78" stroke="none" stroke-width="0" opacity=".45"/>
<ellipse cx="289.64" cy="135" rx="10" ry="6" fill="#E58A78" stroke="none" stroke-width="0" opacity=".45"/>
<path d="M231 146 Q256 166 283 142" fill="none" stroke="#162B45" stroke-width="6" stroke-linecap="round" stroke-linejoin="round" />
<path d="M241 150 Q256 159 272 147" fill="none" stroke="#FFFFFF" stroke-width="3" stroke-linecap="round" stroke-linejoin="round" />
</svg>
