<svg xmlns="http://www.w3.org/2000/svg" width="512" height="512" viewBox="0 0 512 512">
<path d="M105 356 Q256 390 407 356" fill="none" stroke="#3E4FA3" stroke-width="13" stroke-linecap="round" opacity="0.32"/>
<path d="M70 224 Q95 191 121 224 Q95 257 70 224 Z" fill="#D9CAFF" stroke="#3E4FA3" stroke-width="5"/>
<path d="M391 298 Q417 265 442 298 Q417 331 391 298 Z" fill="#8669E8" stroke="#3E4FA3" stroke-width="5"/>
<polygon points="418,163 421,174 432,177 421,180 418,191 415,180 404,177 415,174" fill="#D9CAFF" stroke="#20324B" stroke-width="5" stroke-linejoin="round"/>
<polygon points="96,318 100,331 113,335 100,339 96,352 92,339 79,335 92,331" fill="#8669E8" stroke="#20324B" stroke-width="5" stroke-linejoin="round"/>
</svg>
