<svg xmlns="http://www.w3.org/2000/svg" width="512" height="512" viewBox="0 0 512 512">
<defs><linearGradient id="softShade" x1="0" y1="0" x2="1" y2="1"><stop offset="0" stop-color="#FFFFFF" stop-opacity=".24"/><stop offset="1" stop-color="#10243A" stop-opacity=".14"/></linearGradient></defs>
<g id="shadow" data-semantic-layer="true"><ellipse cx="256" cy="472" rx="105" ry="14" fill="#AAB2BD" stroke="none" stroke-width="0" opacity=".65"/></g>
<g id="hair-back" data-semantic-layer="true"><path d="M188 70 Q178 143 217 186 L291 186 Q332 142 324 70 Z" fill="#1C1718" stroke="#162B45" stroke-width="7" stroke-linecap="round" stroke-linejoin="round" /></g>
<g id="leg-left" data-semantic-layer="true"><rect x="273" y="315" width="33" height="132" rx="12.540000000000001" fill="#2F5574" stroke="#162B45" stroke-width="6" /><rect x="270" y="437" width="57" height="28" rx="13" fill="#E7D9C4" stroke="#162B45" stroke-width="6" /></g>
<g id="leg-right" data-semantic-layer="true"><rect x="206" y="315" width="33" height="132" rx="12.540000000000001" fill="#2F5574" stroke="#162B45" stroke-width="6" /><rect x="194" y="437" width="57" height="28" rx="13" fill="#E7D9C4" stroke="#162B45" stroke-width="6" /></g>
<g id="torso" data-semantic-layer="true"><rect x="193" y="178" width="126" height="145" rx="30" fill="#2C9990" stroke="#162B45" stroke-width="7" /><path d="M211 196 Q256.0 221 301 196" fill="none" stroke="#F0BE4A" stroke-width="8" stroke-linecap="round" stroke-linejoin="round" /><path d="M215.68 196 Q256.0 186 296.32 196" fill="none" stroke="#E7675F" stroke-width="5" stroke-linecap="round" stroke-linejoin="round" /><path d="M234.58 188 L234.58 313 M277.42 188 L277.42 313" fill="none" stroke="#F0BE4A" stroke-width="6" stroke-linecap="round" stroke-linejoin="round" /><path d="M234.58 189 L256.0 225 L277.42 189" fill="none" stroke="#E7675F" stroke-width="5" stroke-linecap="round" stroke-linejoin="round" /></g>
<g id="head" data-semantic-layer="true"><ellipse cx="201.48000000000002" cy="113" rx="12" ry="20" fill="#B87542" stroke="#162B45" stroke-width="5" />
<ellipse cx="310.52" cy="113" rx="12" ry="20" fill="#B87542" stroke="#162B45" stroke-width="5" />
<ellipse cx="256" cy="108" rx="58" ry="63" fill="#B87542" stroke="#162B45" stroke-width="7" />
<path d="M214.24 77.76 Q241.5 58.86 291.96 75.24000000000001" fill="none" stroke="#D99A68" stroke-width="5" stroke-linecap="round" stroke-linejoin="round" opacity=".45"/></g>
<g id="hair-front" data-semantic-layer="true"><path d="M202 76 Q232 20 317 73 Q272 47 241 45 Q213 53 202 76 Z" fill="#1C1718" stroke="#162B45" stroke-width="6" stroke-linecap="round" stroke-linejoin="round" /><path d="M291 73 Q307 112 292 163" fill="none" stroke="#654034" stroke-width="6" stroke-linecap="round" stroke-linejoin="round" /></g>
<g id="face-friendly" data-semantic-layer="true"><path d="M217.06 94 Q231.06 87 245.06 94" fill="none" stroke="#162B45" stroke-width="5" stroke-linecap="round" stroke-linejoin="round" />
<path d="M266.94 94 Q280.94 87 294.94 94" fill="none" stroke="#162B45" stroke-width="5" stroke-linecap="round" stroke-linejoin="round" />
<ellipse cx="231.06" cy="112" rx="10" ry="11" fill="#FFF8EE" stroke="#162B45" stroke-width="4" />
<ellipse cx="280.94" cy="112" rx="10" ry="11" fill="#FFF8EE" stroke="#162B45" stroke-width="4" />
<ellipse cx="232.06" cy="114" rx="4" ry="6" fill="#162B45" stroke="#162B45" stroke-width="0" />
<ellipse cx="281.94" cy="114" rx="4" ry="6" fill="#162B45" stroke="#162B45" stroke-width="0" />
<path d="M256 120 q-4 10 4 12" fill="none" stroke="#D99A68" stroke-width="4" stroke-linecap="round" stroke-linejoin="round" />
<ellipse cx="222.36" cy="132" rx="10" ry="6" fill="#E58A78" stroke="none" stroke-width="0" opacity=".45"/>
<ellipse cx="289.64" cy="132" rx="10" ry="6" fill="#E58A78" stroke="none" stroke-width="0" opacity=".45"/>
<path d="M231 143 Q256 163 283 139" fill="none" stroke="#162B45" stroke-width="6" stroke-linecap="round" stroke-linejoin="round" />
<path d="M241 147 Q256 156 272 144" fill="none" stroke="#FFFFFF" stroke-width="3" stroke-linecap="round" stroke-linejoin="round" /></g>
<g id="face-laughing" data-semantic-layer="true" style="display:none"><path d="M221.06 112 Q231.06 120.25 241.06 112" fill="none" stroke="#162B45" stroke-width="5" stroke-linecap="round" stroke-linejoin="round" />
<path d="M270.94 112 Q280.94 120.25 290.94 112" fill="none" stroke="#162B45" stroke-width="5" stroke-linecap="round" stroke-linejoin="round" />
<path d="M217.06 92 Q231.06 86 245.06 92" fill="none" stroke="#162B45" stroke-width="5" stroke-linecap="round" stroke-linejoin="round" />
<path d="M266.94 92 Q280.94 86 294.94 92" fill="none" stroke="#162B45" stroke-width="5" stroke-linecap="round" stroke-linejoin="round" />
<path d="M256 120 q-4 10 5 12" fill="none" stroke="#D99A68" stroke-width="4" stroke-linecap="round" stroke-linejoin="round" />
<path d="M228 142 Q256 183 285 141 Z" fill="#5B2730" stroke="#162B45" stroke-width="5" stroke-linecap="round" stroke-linejoin="round" />
<path d="M241 162 Q256 171 272 161" fill="none" stroke="#E98A86" stroke-width="5" stroke-linecap="round" stroke-linejoin="round" /></g>
<g id="face-surprised" data-semantic-layer="true" style="display:none"><ellipse cx="231.06" cy="112" rx="10" ry="14.850000000000001" fill="#FFF8EE" stroke="#162B45" stroke-width="4" />
<ellipse cx="232.06" cy="114" rx="4" ry="8.100000000000001" fill="#162B45" stroke="#162B45" stroke-width="0" />
<ellipse cx="280.94" cy="112" rx="10" ry="14.850000000000001" fill="#FFF8EE" stroke="#162B45" stroke-width="4" />
<ellipse cx="281.94" cy="114" rx="4" ry="8.100000000000001" fill="#162B45" stroke="#162B45" stroke-width="0" />
<path d="M217.06 83 Q231.06 77 245.06 83" fill="none" stroke="#162B45" stroke-width="5" stroke-linecap="round" stroke-linejoin="round" />
<path d="M266.94 83 Q280.94 77 294.94 83" fill="none" stroke="#162B45" stroke-width="5" stroke-linecap="round" stroke-linejoin="round" />
<path d="M256 120 q-4 10 5 12" fill="none" stroke="#D99A68" stroke-width="4" stroke-linecap="round" stroke-linejoin="round" />
<ellipse cx="256" cy="149" rx="12" ry="16" fill="#5B2730" stroke="#162B45" stroke-width="5" /></g>
<g id="face-thinking" data-semantic-layer="true" style="display:none"><ellipse cx="231.06" cy="112" rx="10" ry="11.0" fill="#FFF8EE" stroke="#162B45" stroke-width="4" />
<ellipse cx="235.06" cy="114" rx="4" ry="6.0" fill="#162B45" stroke="#162B45" stroke-width="0" />
<ellipse cx="280.94" cy="112" rx="10" ry="11.0" fill="#FFF8EE" stroke="#162B45" stroke-width="4" />
<ellipse cx="284.94" cy="114" rx="4" ry="6.0" fill="#162B45" stroke="#162B45" stroke-width="0" />
<path d="M217.06 97 L245.06 90" fill="none" stroke="#162B45" stroke-width="5" stroke-linecap="round" stroke-linejoin="round" />
<path d="M266.94 90 L294.94 90" fill="none" stroke="#162B45" stroke-width="5" stroke-linecap="round" stroke-linejoin="round" />
<path d="M256 120 q-4 10 5 12" fill="none" stroke="#D99A68" stroke-width="4" stroke-linecap="round" stroke-linejoin="round" />
<path d="M238 149 Q259 145 278 152" fill="none" stroke="#162B45" stroke-width="5" stroke-linecap="round" stroke-linejoin="round" /></g>
<g id="face-confident" data-semantic-layer="true" style="display:none"><ellipse cx="231.06" cy="112" rx="10" ry="6.82" fill="#FFF8EE" stroke="#162B45" stroke-width="4" />
<ellipse cx="232.06" cy="114" rx="4" ry="3.7199999999999998" fill="#162B45" stroke="#162B45" stroke-width="0" />
<ellipse cx="280.94" cy="112" rx="10" ry="6.82" fill="#FFF8EE" stroke="#162B45" stroke-width="4" />
<ellipse cx="281.94" cy="114" rx="4" ry="3.7199999999999998" fill="#162B45" stroke="#162B45" stroke-width="0" />
<path d="M217.06 97 Q231.06 91 245.06 97" fill="none" stroke="#162B45" stroke-width="5" stroke-linecap="round" stroke-linejoin="round" />
<path d="M266.94 97 Q280.94 91 294.94 97" fill="none" stroke="#162B45" stroke-width="5" stroke-linecap="round" stroke-linejoin="round" />
<path d="M256 120 q-4 10 5 12" fill="none" stroke="#D99A68" stroke-width="4" stroke-linecap="round" stroke-linejoin="round" />
<path d="M232 146 Q261 168 285 141" fill="none" stroke="#162B45" stroke-width="6" stroke-linecap="round" stroke-linejoin="round" /></g>
<g id="face-sorry" data-semantic-layer="true" style="display:none"><ellipse cx="231.06" cy="112" rx="10" ry="11.0" fill="#FFF8EE" stroke="#162B45" stroke-width="4" />
<ellipse cx="232.06" cy="114" rx="4" ry="6.0" fill="#162B45" stroke="#162B45" stroke-width="0" />
<ellipse cx="280.94" cy="112" rx="10" ry="11.0" fill="#FFF8EE" stroke="#162B45" stroke-width="4" />
<ellipse cx="281.94" cy="114" rx="4" ry="6.0" fill="#162B45" stroke="#162B45" stroke-width="0" />
<path d="M217.06 94 Q233.06 88 245.06 99" fill="none" stroke="#162B45" stroke-width="5" stroke-linecap="round" stroke-linejoin="round" />
<path d="M266.94 99 Q278.94 88 294.94 94" fill="none" stroke="#162B45" stroke-width="5" stroke-linecap="round" stroke-linejoin="round" />
<path d="M256 120 q-4 10 5 12" fill="none" stroke="#D99A68" stroke-width="4" stroke-linecap="round" stroke-linejoin="round" />
<path d="M232 158 Q256 139 280 158" fill="none" stroke="#162B45" stroke-width="6" stroke-linecap="round" stroke-linejoin="round" /></g>
<g id="face-excited" data-semantic-layer="true" style="display:none"><ellipse cx="231.06" cy="112" rx="10" ry="14.850000000000001" fill="#FFF8EE" stroke="#162B45" stroke-width="4" />
<ellipse cx="232.06" cy="114" rx="4" ry="8.100000000000001" fill="#162B45" stroke="#162B45" stroke-width="0" />
<ellipse cx="280.94" cy="112" rx="10" ry="14.850000000000001" fill="#FFF8EE" stroke="#162B45" stroke-width="4" />
<ellipse cx="281.94" cy="114" rx="4" ry="8.100000000000001" fill="#162B45" stroke="#162B45" stroke-width="0" />
<path d="M217.06 87 Q231.06 81 245.06 87" fill="none" stroke="#162B45" stroke-width="5" stroke-linecap="round" stroke-linejoin="round" />
<path d="M266.94 87 Q280.94 81 294.94 87" fill="none" stroke="#162B45" stroke-width="5" stroke-linecap="round" stroke-linejoin="round" />
<path d="M256 120 q-4 10 5 12" fill="none" stroke="#D99A68" stroke-width="4" stroke-linecap="round" stroke-linejoin="round" />
<path d="M229 144 Q256 173 284 142" fill="none" stroke="#162B45" stroke-width="6" stroke-linecap="round" stroke-linejoin="round" /></g>
<g id="arm-left-rest" data-semantic-layer="true" style="display:none"><polyline points="311,212 325.0,247.0 339,282" fill="none" stroke="#162B45" stroke-width="32" stroke-linecap="round" stroke-linejoin="round"/><polyline points="311,212 325.0,247.0 339,282" fill="none" stroke="#2C9990" stroke-width="24" stroke-linecap="round" stroke-linejoin="round"/><polyline points="339,282 333,332" fill="none" stroke="#162B45" stroke-width="25" stroke-linecap="round" stroke-linejoin="round"/><polyline points="339,282 333,332" fill="none" stroke="#B87542" stroke-width="18" stroke-linecap="round" stroke-linejoin="round"/><ellipse cx="333" cy="332" rx="11" ry="13" fill="#D99A68" stroke="#162B45" stroke-width="5" /></g>
<g id="arm-right-rest" data-semantic-layer="true" style="display:none"><polyline points="201,212 187.0,247.0 173,282" fill="none" stroke="#162B45" stroke-width="32" stroke-linecap="round" stroke-linejoin="round"/><polyline points="201,212 187.0,247.0 173,282" fill="none" stroke="#2C9990" stroke-width="24" stroke-linecap="round" stroke-linejoin="round"/><polyline points="173,282 179,332" fill="none" stroke="#162B45" stroke-width="25" stroke-linecap="round" stroke-linejoin="round"/><polyline points="173,282 179,332" fill="none" stroke="#B87542" stroke-width="18" stroke-linecap="round" stroke-linejoin="round"/><ellipse cx="179" cy="332" rx="11" ry="13" fill="#D99A68" stroke="#162B45" stroke-width="5" /></g>
<g id="arm-left-greeting" data-semantic-layer="true"><polyline points="311,212 325.0,247.0 339,282" fill="none" stroke="#162B45" stroke-width="32" stroke-linecap="round" stroke-linejoin="round"/><polyline points="311,212 325.0,247.0 339,282" fill="none" stroke="#2C9990" stroke-width="24" stroke-linecap="round" stroke-linejoin="round"/><polyline points="339,282 333,332" fill="none" stroke="#162B45" stroke-width="25" stroke-linecap="round" stroke-linejoin="round"/><polyline points="339,282 333,332" fill="none" stroke="#B87542" stroke-width="18" stroke-linecap="round" stroke-linejoin="round"/><ellipse cx="333" cy="332" rx="13" ry="15" fill="#D99A68" stroke="#162B45" stroke-width="5" /><path d="M328.8 326 L319.2 305.8" fill="none" stroke="#B87542" stroke-width="6" stroke-linecap="round" stroke-linejoin="round" /><path d="M331.6 326 L328.4 304.6" fill="none" stroke="#B87542" stroke-width="6" stroke-linecap="round" stroke-linejoin="round" /><path d="M334.4 326 L337.6 304.6" fill="none" stroke="#B87542" stroke-width="6" stroke-linecap="round" stroke-linejoin="round" /><path d="M337.2 326 L346.8 305.8" fill="none" stroke="#B87542" stroke-width="6" stroke-linecap="round" stroke-linejoin="round" /></g>
<g id="arm-right-greeting" data-semantic-layer="true"><polyline points="201,212 183.0,196.0 165,180" fill="none" stroke="#162B45" stroke-width="32" stroke-linecap="round" stroke-linejoin="round"/><polyline points="201,212 183.0,196.0 165,180" fill="none" stroke="#2C9990" stroke-width="24" stroke-linecap="round" stroke-linejoin="round"/><polyline points="165,180 153,122" fill="none" stroke="#162B45" stroke-width="25" stroke-linecap="round" stroke-linejoin="round"/><polyline points="165,180 153,122" fill="none" stroke="#B87542" stroke-width="18" stroke-linecap="round" stroke-linejoin="round"/><ellipse cx="153" cy="122" rx="13" ry="15" fill="#D99A68" stroke="#162B45" stroke-width="5" /><path d="M148.8 116 L139.2 95.8" fill="none" stroke="#B87542" stroke-width="6" stroke-linecap="round" stroke-linejoin="round" /><path d="M151.6 116 L148.4 94.6" fill="none" stroke="#B87542" stroke-width="6" stroke-linecap="round" stroke-linejoin="round" /><path d="M154.4 116 L157.6 94.6" fill="none" stroke="#B87542" stroke-width="6" stroke-linecap="round" stroke-linejoin="round" /><path d="M157.2 116 L166.8 95.8" fill="none" stroke="#B87542" stroke-width="6" stroke-linecap="round" stroke-linejoin="round" /></g>
<g id="arm-left-farewell" data-semantic-layer="true" style="display:none"><polyline points="311,212 329.0,196.0 347,180" fill="none" stroke="#162B45" stroke-width="32" stroke-linecap="round" stroke-linejoin="round"/><polyline points="311,212 329.0,196.0 347,180" fill="none" stroke="#2C9990" stroke-width="24" stroke-linecap="round" stroke-linejoin="round"/><polyline points="347,180 359,122" fill="none" stroke="#162B45" stroke-width="25" stroke-linecap="round" stroke-linejoin="round"/><polyline points="347,180 359,122" fill="none" stroke="#B87542" stroke-width="18" stroke-linecap="round" stroke-linejoin="round"/><ellipse cx="359" cy="122" rx="13" ry="15" fill="#D99A68" stroke="#162B45" stroke-width="5" /><path d="M354.8 116 L345.2 95.8" fill="none" stroke="#B87542" stroke-width="6" stroke-linecap="round" stroke-linejoin="round" /><path d="M357.6 116 L354.4 94.6" fill="none" stroke="#B87542" stroke-width="6" stroke-linecap="round" stroke-linejoin="round" /><path d="M360.4 116 L363.6 94.6" fill="none" stroke="#B87542" stroke-width="6" stroke-linecap="round" stroke-linejoin="round" /><path d="M363.2 116 L372.8 95.8" fill="none" stroke="#B87542" stroke-width="6" stroke-linecap="round" stroke-linejoin="round" /></g>
<g id="arm-right-farewell" data-semantic-layer="true" style="display:none"><polyline points="201,212 187.0,247.0 173,282" fill="none" stroke="#162B45" stroke-width="32" stroke-linecap="round" stroke-linejoin="round"/><polyline points="201,212 187.0,247.0 173,282" fill="none" stroke="#2C9990" stroke-width="24" stroke-linecap="round" stroke-linejoin="round"/><polyline points="173,282 179,332" fill="none" stroke="#162B45" stroke-width="25" stroke-linecap="round" stroke-linejoin="round"/><polyline points="173,282 179,332" fill="none" stroke="#B87542" stroke-width="18" stroke-linecap="round" stroke-linejoin="round"/><ellipse cx="179" cy="332" rx="13" ry="15" fill="#D99A68" stroke="#162B45" stroke-width="5" /><path d="M174.8 326 L165.2 305.8" fill="none" stroke="#B87542" stroke-width="6" stroke-linecap="round" stroke-linejoin="round" /><path d="M177.6 326 L174.4 304.6" fill="none" stroke="#B87542" stroke-width="6" stroke-linecap="round" stroke-linejoin="round" /><path d="M180.4 326 L183.6 304.6" fill="none" stroke="#B87542" stroke-width="6" stroke-linecap="round" stroke-linejoin="round" /><path d="M183.2 326 L192.8 305.8" fill="none" stroke="#B87542" stroke-width="6" stroke-linecap="round" stroke-linejoin="round" /></g>
<g id="arm-left-agreement" data-semantic-layer="true" style="display:none"><polyline points="311,212 321.0,229.5 331,247" fill="none" stroke="#162B45" stroke-width="32" stroke-linecap="round" stroke-linejoin="round"/><polyline points="311,212 321.0,229.5 331,247" fill="none" stroke="#2C9990" stroke-width="24" stroke-linecap="round" stroke-linejoin="round"/><polyline points="331,247 301,222" fill="none" stroke="#162B45" stroke-width="25" stroke-linecap="round" stroke-linejoin="round"/><polyline points="331,247 301,222" fill="none" stroke="#B87542" stroke-width="18" stroke-linecap="round" stroke-linejoin="round"/><ellipse cx="301" cy="222" rx="11" ry="13" fill="#D99A68" stroke="#162B45" stroke-width="5" /></g>
<g id="arm-right-agreement" data-semantic-layer="true" style="display:none"><polyline points="201,212 191.0,229.5 181,247" fill="none" stroke="#162B45" stroke-width="32" stroke-linecap="round" stroke-linejoin="round"/><polyline points="201,212 191.0,229.5 181,247" fill="none" stroke="#2C9990" stroke-width="24" stroke-linecap="round" stroke-linejoin="round"/><polyline points="181,247 211,222" fill="none" stroke="#162B45" stroke-width="25" stroke-linecap="round" stroke-linejoin="round"/><polyline points="181,247 211,222" fill="none" stroke="#B87542" stroke-width="18" stroke-linecap="round" stroke-linejoin="round"/><ellipse cx="211" cy="222" rx="11" ry="13" fill="#D99A68" stroke="#162B45" stroke-width="5" /></g>
<g id="arm-left-disagreement" data-semantic-layer="true" style="display:none"><polyline points="311,212 319.0,234.5 327,257" fill="none" stroke="#162B45" stroke-width="32" stroke-linecap="round" stroke-linejoin="round"/><polyline points="311,212 319.0,234.5 327,257" fill="none" stroke="#2C9990" stroke-width="24" stroke-linecap="round" stroke-linejoin="round"/><polyline points="327,257 218,285" fill="none" stroke="#162B45" stroke-width="25" stroke-linecap="round" stroke-linejoin="round"/><polyline points="327,257 218,285" fill="none" stroke="#B87542" stroke-width="18" stroke-linecap="round" stroke-linejoin="round"/><ellipse cx="218" cy="285" rx="11" ry="13" fill="#D99A68" stroke="#162B45" stroke-width="5" /></g>
<g id="arm-right-disagreement" data-semantic-layer="true" style="display:none"><polyline points="201,212 193.0,234.5 185,257" fill="none" stroke="#162B45" stroke-width="32" stroke-linecap="round" stroke-linejoin="round"/><polyline points="201,212 193.0,234.5 185,257" fill="none" stroke="#2C9990" stroke-width="24" stroke-linecap="round" stroke-linejoin="round"/><polyline points="185,257 294,285" fill="none" stroke="#162B45" stroke-width="25" stroke-linecap="round" stroke-linejoin="round"/><polyline points="185,257 294,285" fill="none" stroke="#B87542" stroke-width="18" stroke-linecap="round" stroke-linejoin="round"/><ellipse cx="294" cy="285" rx="11" ry="13" fill="#D99A68" stroke="#162B45" stroke-width="5" /></g>
<g id="arm-left-gratitude" data-semantic-layer="true" style="display:none"><polyline points="311,212 320.0,235.5 329,259" fill="none" stroke="#162B45" stroke-width="32" stroke-linecap="round" stroke-linejoin="round"/><polyline points="311,212 320.0,235.5 329,259" fill="none" stroke="#2C9990" stroke-width="24" stroke-linecap="round" stroke-linejoin="round"/><polyline points="329,259 266,274" fill="none" stroke="#162B45" stroke-width="25" stroke-linecap="round" stroke-linejoin="round"/><polyline points="329,259 266,274" fill="none" stroke="#B87542" stroke-width="18" stroke-linecap="round" stroke-linejoin="round"/><ellipse cx="266" cy="274" rx="11" ry="13" fill="#D99A68" stroke="#162B45" stroke-width="5" /></g>
<g id="arm-right-gratitude" data-semantic-layer="true" style="display:none"><polyline points="201,212 192.0,235.5 183,259" fill="none" stroke="#162B45" stroke-width="32" stroke-linecap="round" stroke-linejoin="round"/><polyline points="201,212 192.0,235.5 183,259" fill="none" stroke="#2C9990" stroke-width="24" stroke-linecap="round" stroke-linejoin="round"/><polyline points="183,259 246,274" fill="none" stroke="#162B45" stroke-width="25" stroke-linecap="round" stroke-linejoin="round"/><polyline points="183,259 246,274" fill="none" stroke="#B87542" stroke-width="18" stroke-linecap="round" stroke-linejoin="round"/><ellipse cx="246" cy="274" rx="11" ry="13" fill="#D99A68" stroke="#162B45" stroke-width="5" /></g>
<g id="arm-left-concern" data-semantic-layer="true" style="display:none"><polyline points="311,212 323.0,223.0 335,234" fill="none" stroke="#162B45" stroke-width="32" stroke-linecap="round" stroke-linejoin="round"/><polyline points="311,212 323.0,223.0 335,234" fill="none" stroke="#2C9990" stroke-width="24" stroke-linecap="round" stroke-linejoin="round"/><polyline points="335,234 294,151" fill="none" stroke="#162B45" stroke-width="25" stroke-linecap="round" stroke-linejoin="round"/><polyline points="335,234 294,151" fill="none" stroke="#B87542" stroke-width="18" stroke-linecap="round" stroke-linejoin="round"/><ellipse cx="294" cy="151" rx="11" ry="13" fill="#D99A68" stroke="#162B45" stroke-width="5" /></g>
<g id="arm-right-concern" data-semantic-layer="true" style="display:none"><polyline points="201,212 189.0,223.0 177,234" fill="none" stroke="#162B45" stroke-width="32" stroke-linecap="round" stroke-linejoin="round"/><polyline points="201,212 189.0,223.0 177,234" fill="none" stroke="#2C9990" stroke-width="24" stroke-linecap="round" stroke-linejoin="round"/><polyline points="177,234 218,151" fill="none" stroke="#162B45" stroke-width="25" stroke-linecap="round" stroke-linejoin="round"/><polyline points="177,234 218,151" fill="none" stroke="#B87542" stroke-width="18" stroke-linecap="round" stroke-linejoin="round"/><ellipse cx="218" cy="151" rx="11" ry="13" fill="#D99A68" stroke="#162B45" stroke-width="5" /></g>
<g id="arm-left-surprise" data-semantic-layer="true" style="display:none"><polyline points="311,212 325.0,216.0 339,220" fill="none" stroke="#162B45" stroke-width="32" stroke-linecap="round" stroke-linejoin="round"/><polyline points="311,212 325.0,216.0 339,220" fill="none" stroke="#2C9990" stroke-width="24" stroke-linecap="round" stroke-linejoin="round"/><polyline points="339,220 314,138" fill="none" stroke="#162B45" stroke-width="25" stroke-linecap="round" stroke-linejoin="round"/><polyline points="339,220 314,138" fill="none" stroke="#B87542" stroke-width="18" stroke-linecap="round" stroke-linejoin="round"/><ellipse cx="314" cy="138" rx="13" ry="15" fill="#D99A68" stroke="#162B45" stroke-width="5" /><path d="M309.8 132 L300.2 111.8" fill="none" stroke="#B87542" stroke-width="6" stroke-linecap="round" stroke-linejoin="round" /><path d="M312.6 132 L309.4 110.6" fill="none" stroke="#B87542" stroke-width="6" stroke-linecap="round" stroke-linejoin="round" /><path d="M315.4 132 L318.6 110.6" fill="none" stroke="#B87542" stroke-width="6" stroke-linecap="round" stroke-linejoin="round" /><path d="M318.2 132 L327.8 111.8" fill="none" stroke="#B87542" stroke-width="6" stroke-linecap="round" stroke-linejoin="round" /></g>
<g id="arm-right-surprise" data-semantic-layer="true" style="display:none"><polyline points="201,212 187.0,216.0 173,220" fill="none" stroke="#162B45" stroke-width="32" stroke-linecap="round" stroke-linejoin="round"/><polyline points="201,212 187.0,216.0 173,220" fill="none" stroke="#2C9990" stroke-width="24" stroke-linecap="round" stroke-linejoin="round"/><polyline points="173,220 198,138" fill="none" stroke="#162B45" stroke-width="25" stroke-linecap="round" stroke-linejoin="round"/><polyline points="173,220 198,138" fill="none" stroke="#B87542" stroke-width="18" stroke-linecap="round" stroke-linejoin="round"/><ellipse cx="198" cy="138" rx="13" ry="15" fill="#D99A68" stroke="#162B45" stroke-width="5" /><path d="M193.8 132 L184.2 111.8" fill="none" stroke="#B87542" stroke-width="6" stroke-linecap="round" stroke-linejoin="round" /><path d="M196.6 132 L193.4 110.6" fill="none" stroke="#B87542" stroke-width="6" stroke-linecap="round" stroke-linejoin="round" /><path d="M199.4 132 L202.6 110.6" fill="none" stroke="#B87542" stroke-width="6" stroke-linecap="round" stroke-linejoin="round" /><path d="M202.2 132 L211.8 111.8" fill="none" stroke="#B87542" stroke-width="6" stroke-linecap="round" stroke-linejoin="round" /></g>
<g id="arm-left-celebration" data-semantic-layer="true" style="display:none"><polyline points="311,212 328.0,191.0 345,170" fill="none" stroke="#162B45" stroke-width="32" stroke-linecap="round" stroke-linejoin="round"/><polyline points="311,212 328.0,191.0 345,170" fill="none" stroke="#2C9990" stroke-width="24" stroke-linecap="round" stroke-linejoin="round"/><polyline points="345,170 363,108" fill="none" stroke="#162B45" stroke-width="25" stroke-linecap="round" stroke-linejoin="round"/><polyline points="345,170 363,108" fill="none" stroke="#B87542" stroke-width="18" stroke-linecap="round" stroke-linejoin="round"/><ellipse cx="363" cy="108" rx="13" ry="15" fill="#D99A68" stroke="#162B45" stroke-width="5" /><path d="M358.8 102 L349.2 81.8" fill="none" stroke="#B87542" stroke-width="6" stroke-linecap="round" stroke-linejoin="round" /><path d="M361.6 102 L358.4 80.6" fill="none" stroke="#B87542" stroke-width="6" stroke-linecap="round" stroke-linejoin="round" /><path d="M364.4 102 L367.6 80.6" fill="none" stroke="#B87542" stroke-width="6" stroke-linecap="round" stroke-linejoin="round" /><path d="M367.2 102 L376.8 81.8" fill="none" stroke="#B87542" stroke-width="6" stroke-linecap="round" stroke-linejoin="round" /></g>
<g id="arm-right-celebration" data-semantic-layer="true" style="display:none"><polyline points="201,212 184.0,191.0 167,170" fill="none" stroke="#162B45" stroke-width="32" stroke-linecap="round" stroke-linejoin="round"/><polyline points="201,212 184.0,191.0 167,170" fill="none" stroke="#2C9990" stroke-width="24" stroke-linecap="round" stroke-linejoin="round"/><polyline points="167,170 149,108" fill="none" stroke="#162B45" stroke-width="25" stroke-linecap="round" stroke-linejoin="round"/><polyline points="167,170 149,108" fill="none" stroke="#B87542" stroke-width="18" stroke-linecap="round" stroke-linejoin="round"/><ellipse cx="149" cy="108" rx="13" ry="15" fill="#D99A68" stroke="#162B45" stroke-width="5" /><path d="M144.8 102 L135.2 81.8" fill="none" stroke="#B87542" stroke-width="6" stroke-linecap="round" stroke-linejoin="round" /><path d="M147.6 102 L144.4 80.6" fill="none" stroke="#B87542" stroke-width="6" stroke-linecap="round" stroke-linejoin="round" /><path d="M150.4 102 L153.6 80.6" fill="none" stroke="#B87542" stroke-width="6" stroke-linecap="round" stroke-linejoin="round" /><path d="M153.2 102 L162.8 81.8" fill="none" stroke="#B87542" stroke-width="6" stroke-linecap="round" stroke-linejoin="round" /></g>
</svg>
