<svg xmlns="http://www.w3.org/2000/svg" width="512" height="512" viewBox="0 0 512 512">
<g transform="translate(164 290) scale(0.76)"><ellipse cx="0" cy="158" rx="86" ry="13" fill="#173257" opacity=".17"/><g fill="none" stroke="#FFFDF6" stroke-width="28" stroke-linejoin="round" stroke-linecap="round"><ellipse cx="0" cy="43" rx="83" ry="102"/><path d="M-72 -28 L-91 -111 L-31 -82 Q0 -105 31 -82 L91 -111 L72 -28"/><path d="M-55 52 Q-103 46 -104 95 M55 52 Q103 46 104 95"/></g><ellipse cx="0" cy="43" rx="81" ry="100" fill="#A75C22" stroke="#173257" stroke-width="9"/><ellipse cx="0" cy="61" rx="48" ry="65" fill="#FFF3D3"/><path d="M-76 -18 L-88 -103 L-29 -76 Q0 -99 29 -76 L88 -103 L76 -18" fill="#A75C22" stroke="#173257" stroke-width="9" stroke-linejoin="round"/><path d="M-73 -35 Q-50 -88 0 -57 Q50 -88 73 -35 Q55 16 0 17 Q-55 16 -73 -35 Z" fill="#FFF3D3"/><path d="M-12 -17 L0 -7 L12 -17 L0 -2 Z" fill="#F39A23" stroke="#173257" stroke-width="4"/><path d="M-47 -45 Q-32 -61 -16 -45 M16 -45 Q32 -61 47 -45" fill="none" stroke="#173257" stroke-width="8" stroke-linecap="round"/><circle cx="-32" cy="-44" r="27" fill="none" stroke="#173257" stroke-width="7"/><circle cx="32" cy="-44" r="27" fill="none" stroke="#173257" stroke-width="7"/><path d="M-5 -45 H5" stroke="#173257" stroke-width="7" stroke-linecap="round"/><path d="M-21 -2 Q0 20 21 -2" fill="none" stroke="#173257" stroke-width="7" stroke-linecap="round"/><path d="M-55 45 Q-91 62 -91 104 Q-60 96 -39 70" fill="#6D3518" stroke="#173257" stroke-width="8" stroke-linejoin="round"/><path d="M55 45 Q91 62 91 104 Q60 96 39 70" fill="#6D3518" stroke="#173257" stroke-width="8" stroke-linejoin="round"/><path d="M-73 49 Q-86 66 -78 84 M73 49 Q86 66 78 84" fill="none" stroke="#D78A3E" stroke-width="7" stroke-linecap="round"/><path d="M-37 132 L-52 151 H-19 L-5 133 M37 132 L52 151 H19 L5 133" fill="#F7BF32" stroke="#173257" stroke-width="7" stroke-linejoin="round"/><g transform="translate(112 24) scale(.62)"><circle cx="0" cy="-5" r="54" fill="#E34A3B" stroke="#173257" stroke-width="8" stroke-linejoin="round" stroke-linecap="round"/><polygon points="0.0,-38.0 8.2,-16.3 31.4,-15.2 13.3,-0.7 19.4,21.7 0.0,9.0 -19.4,21.7 -13.3,-0.7 -31.4,-15.2 -8.2,-16.3" fill="#F7BF32"/><path d="M-31 39 L-48 84 L-8 67 L0 91 L11 67 L50 83 L31 39" fill="#B26B13" stroke="#173257" stroke-width="8" stroke-linejoin="round" stroke-linecap="round"/></g></g>
</svg>
