<svg xmlns="http://www.w3.org/2000/svg" width="512" height="512" viewBox="0 0 512 512">
<g transform="translate(256 198) scale(0.82)"><ellipse cx="0" cy="158" rx="86" ry="13" fill="#173257" opacity=".17"/><g fill="none" stroke="#FFFDF6" stroke-width="28" stroke-linejoin="round" stroke-linecap="round"><ellipse cx="0" cy="43" rx="83" ry="102"/><path d="M-72 -28 L-91 -111 L-31 -82 Q0 -105 31 -82 L91 -111 L72 -28"/><path d="M-55 52 Q-103 46 -104 95 M55 52 Q103 46 104 95"/></g><ellipse cx="0" cy="43" rx="81" ry="100" fill="#A75C22" stroke="#173257" stroke-width="9"/><ellipse cx="0" cy="61" rx="48" ry="65" fill="#FFF3D3"/><path d="M-76 -18 L-88 -103 L-29 -76 Q0 -99 29 -76 L88 -103 L76 -18" fill="#A75C22" stroke="#173257" stroke-width="9" stroke-linejoin="round"/><path d="M-73 -35 Q-50 -88 0 -57 Q50 -88 73 -35 Q55 16 0 17 Q-55 16 -73 -35 Z" fill="#FFF3D3"/><path d="M-12 -17 L0 -7 L12 -17 L0 -2 Z" fill="#F39A23" stroke="#173257" stroke-width="4"/><ellipse cx="-31" cy="-44" rx="13" ry="10" fill="#173257"/><ellipse cx="31" cy="-44" rx="13" ry="10" fill="#173257"/><circle cx="-27" cy="-48" r="3" fill="#FFFFFF"/><circle cx="35" cy="-48" r="3" fill="#FFFFFF"/><circle cx="-32" cy="-44" r="27" fill="none" stroke="#173257" stroke-width="7"/><circle cx="32" cy="-44" r="27" fill="none" stroke="#173257" stroke-width="7"/><path d="M-5 -45 H5" stroke="#173257" stroke-width="7" stroke-linecap="round"/><path d="M-15 2 Q0 10 15 2" fill="none" stroke="#173257" stroke-width="6" stroke-linecap="round"/><path d="M-55 54 Q-102 42 -119 11 Q-84 4 -47 18" fill="#6D3518" stroke="#173257" stroke-width="8" stroke-linejoin="round"/><path d="M55 54 Q91 60 111 86 Q77 90 46 73" fill="#6D3518" stroke="#173257" stroke-width="8" stroke-linejoin="round"/><path d="M-73 49 Q-86 66 -78 84 M73 49 Q86 66 78 84" fill="none" stroke="#D78A3E" stroke-width="7" stroke-linecap="round"/><path d="M-37 132 L-52 151 H-19 L-5 133 M37 132 L52 151 H19 L5 133" fill="#F7BF32" stroke="#173257" stroke-width="7" stroke-linejoin="round"/><g transform="translate(112 24) scale(.62)"><path d="M-49 76 V-69" stroke="#173257" stroke-width="11" stroke-linecap="round"/><path d="M-45 -64 Q7 -83 58 -57 L36 -22 L62 8 Q11 -9 -45 8 Z" fill="#287BD1" stroke="#173257" stroke-width="8" stroke-linejoin="round" stroke-linecap="round"/><path d="M-78 78 H5" stroke="#244C94" stroke-width="15" stroke-linecap="round"/></g></g>
</svg>
