<svg xmlns="http://www.w3.org/2000/svg" width="512" height="512" viewBox="0 0 512 512">
<defs><linearGradient id="softShade" x1="0" y1="0" x2="1" y2="1"><stop offset="0" stop-color="#FFFFFF" stop-opacity=".24"/><stop offset="1" stop-color="#10243A" stop-opacity=".14"/></linearGradient></defs>
<ellipse cx="256" cy="472" rx="105" ry="14" fill="#AAB2BD" stroke="none" stroke-width="0" opacity=".65"/><rect x="272" y="331" width="33" height="116" rx="12.540000000000001" fill="#3C493D" stroke="#162B45" stroke-width="6" /><rect x="269" y="437" width="57" height="28" rx="13" fill="#2E3831" stroke="#162B45" stroke-width="6" /><rect x="207" y="331" width="33" height="116" rx="12.540000000000001" fill="#3C493D" stroke="#162B45" stroke-width="6" /><rect x="195" y="437" width="57" height="28" rx="13" fill="#2E3831" stroke="#162B45" stroke-width="6" /><polyline points="314,215 328.0,250.0 342,285" fill="none" stroke="#162B45" stroke-width="32" stroke-linecap="round" stroke-linejoin="round"/><polyline points="314,215 328.0,250.0 342,285" fill="none" stroke="#6F8A4B" stroke-width="24" stroke-linecap="round" stroke-linejoin="round"/><polyline points="342,285 336,335" fill="none" stroke="#162B45" stroke-width="25" stroke-linecap="round" stroke-linejoin="round"/><polyline points="342,285 336,335" fill="none" stroke="#C58A62" stroke-width="18" stroke-linecap="round" stroke-linejoin="round"/><ellipse cx="336" cy="335" rx="11" ry="13" fill="#E1AD84" stroke="#162B45" stroke-width="5" /><polyline points="198,215 184.0,250.0 170,285" fill="none" stroke="#162B45" stroke-width="32" stroke-linecap="round" stroke-linejoin="round"/><polyline points="198,215 184.0,250.0 170,285" fill="none" stroke="#6F8A4B" stroke-width="24" stroke-linecap="round" stroke-linejoin="round"/><polyline points="170,285 176,335" fill="none" stroke="#162B45" stroke-width="25" stroke-linecap="round" stroke-linejoin="round"/><polyline points="170,285 176,335" fill="none" stroke="#C58A62" stroke-width="18" stroke-linecap="round" stroke-linejoin="round"/><ellipse cx="176" cy="335" rx="11" ry="13" fill="#E1AD84" stroke="#162B45" stroke-width="5" /><rect x="190" y="181" width="132" height="158" rx="30" fill="#6F8A4B" stroke="#162B45" stroke-width="7" /><path d="M208 203 Q256.0 219 304 203" fill="none" stroke="#D7A742" stroke-width="8" stroke-linecap="round" stroke-linejoin="round" /><ellipse cx="256" cy="111" rx="59" ry="65" fill="#C58A62" stroke="#162B45" stroke-width="7" /><path d="M182 77 Q170 166 199 215 Q228 231 256 223 Q284 231 313 215 Q342 166 330 77 Z" fill="#426B4B" stroke="#162B45" stroke-width="7" stroke-linecap="round" stroke-linejoin="round" /><path d="M256 55 Q248 147 256 204" fill="none" stroke="#7E9B65" stroke-width="4" stroke-linecap="round" stroke-linejoin="round" />
</svg>
