<svg xmlns="http://www.w3.org/2000/svg" width="512" height="512" viewBox="0 0 512 512">
<defs><linearGradient id="softShade" x1="0" y1="0" x2="1" y2="1"><stop offset="0" stop-color="#FFFFFF" stop-opacity=".24"/><stop offset="1" stop-color="#10243A" stop-opacity=".14"/></linearGradient></defs>
<ellipse cx="256" cy="472" rx="105" ry="14" fill="#AAB2BD" stroke="none" stroke-width="0" opacity=".65"/><path d="M182 76 Q169 165 199 215 Q256 234 313 215 Q343 165 330 76 Z" fill="#426B4B" stroke="#162B45" stroke-width="7" stroke-linecap="round" stroke-linejoin="round" /><rect x="272" y="331" width="33" height="116" rx="12.540000000000001" fill="#3C493D" stroke="#162B45" stroke-width="6" /><rect x="269" y="437" width="57" height="28" rx="13" fill="#2E3831" stroke="#162B45" stroke-width="6" /><rect x="207" y="331" width="33" height="116" rx="12.540000000000001" fill="#3C493D" stroke="#162B45" stroke-width="6" /><rect x="195" y="437" width="57" height="28" rx="13" fill="#2E3831" stroke="#162B45" stroke-width="6" /><rect x="190" y="181" width="132" height="158" rx="30" fill="#6F8A4B" stroke="#162B45" stroke-width="7" /><path d="M208 199 Q256.0 224 304 199" fill="none" stroke="#D7A742" stroke-width="8" stroke-linecap="round" stroke-linejoin="round" /><path d="M213.76 199 Q256.0 189 298.24 199" fill="none" stroke="#A65A54" stroke-width="5" stroke-linecap="round" stroke-linejoin="round" /><path d="M208 269.48 Q256.0 294.76 304 269.48" fill="none" stroke="#D7A742" stroke-width="7" stroke-linecap="round" stroke-linejoin="round" /><path d="M256.0 191 L256.0 330" fill="none" stroke="#A65A54" stroke-width="4" stroke-linecap="round" stroke-linejoin="round" /><ellipse cx="200.54000000000002" cy="116" rx="12" ry="20" fill="#C58A62" stroke="#162B45" stroke-width="5" />
<ellipse cx="311.46" cy="116" rx="12" ry="20" fill="#C58A62" stroke="#162B45" stroke-width="5" />
<ellipse cx="256" cy="111" rx="59" ry="65" fill="#C58A62" stroke="#162B45" stroke-width="7" />
<path d="M213.52 79.8 Q241.25 60.3 292.58 77.19999999999999" fill="none" stroke="#E1AD84" stroke-width="5" stroke-linecap="round" stroke-linejoin="round" opacity=".45"/><path d="M199 84 Q256 15 313 84 L305 108 Q256 81 207 108 Z" fill="#426B4B" stroke="#162B45" stroke-width="6" stroke-linecap="round" stroke-linejoin="round" /><path d="M195 107 Q189 156 216 198" fill="none" stroke="#7E9B65" stroke-width="5" stroke-linecap="round" stroke-linejoin="round" /><path d="M317 107 Q323 156 296 198" fill="none" stroke="#7E9B65" stroke-width="5" stroke-linecap="round" stroke-linejoin="round" /><path d="M213 183 Q256 202 299 183" fill="none" stroke="#7E9B65" stroke-width="4" stroke-linecap="round" stroke-linejoin="round" /><path d="M216.63 97 Q230.63 90 244.63 97" fill="none" stroke="#162B45" stroke-width="5" stroke-linecap="round" stroke-linejoin="round" />
<path d="M267.37 97 Q281.37 90 295.37 97" fill="none" stroke="#162B45" stroke-width="5" stroke-linecap="round" stroke-linejoin="round" />
<ellipse cx="230.63" cy="115" rx="10" ry="12" fill="#FFF8EE" stroke="#162B45" stroke-width="4" />
<ellipse cx="281.37" cy="115" rx="10" ry="12" fill="#FFF8EE" stroke="#162B45" stroke-width="4" />
<ellipse cx="231.63" cy="117" rx="4" ry="6" fill="#162B45" stroke="#162B45" stroke-width="0" />
<ellipse cx="282.37" cy="117" rx="4" ry="6" fill="#162B45" stroke="#162B45" stroke-width="0" />
<path d="M256 123 q-4 10 4 12" fill="none" stroke="#E1AD84" stroke-width="4" stroke-linecap="round" stroke-linejoin="round" />
<ellipse cx="221.78" cy="135" rx="10" ry="6" fill="#E58A78" stroke="none" stroke-width="0" opacity=".45"/>
<ellipse cx="290.22" cy="135" rx="10" ry="6" fill="#E58A78" stroke="none" stroke-width="0" opacity=".45"/>
<path d="M231 146 Q256 166 283 142" fill="none" stroke="#162B45" stroke-width="6" stroke-linecap="round" stroke-linejoin="round" />
<path d="M241 150 Q256 159 272 147" fill="none" stroke="#FFFFFF" stroke-width="3" stroke-linecap="round" stroke-linejoin="round" /><polyline points="314,215 328.0,250.0 342,285" fill="none" stroke="#162B45" stroke-width="32" stroke-linecap="round" stroke-linejoin="round"/><polyline points="314,215 328.0,250.0 342,285" fill="none" stroke="#6F8A4B" stroke-width="24" stroke-linecap="round" stroke-linejoin="round"/><polyline points="342,285 336,335" fill="none" stroke="#162B45" stroke-width="25" stroke-linecap="round" stroke-linejoin="round"/><polyline points="342,285 336,335" fill="none" stroke="#C58A62" stroke-width="18" stroke-linecap="round" stroke-linejoin="round"/><ellipse cx="336" cy="335" rx="11" ry="13" fill="#E1AD84" stroke="#162B45" stroke-width="5" /><polyline points="198,215 184.0,250.0 170,285" fill="none" stroke="#162B45" stroke-width="32" stroke-linecap="round" stroke-linejoin="round"/><polyline points="198,215 184.0,250.0 170,285" fill="none" stroke="#6F8A4B" stroke-width="24" stroke-linecap="round" stroke-linejoin="round"/><polyline points="170,285 176,335" fill="none" stroke="#162B45" stroke-width="25" stroke-linecap="round" stroke-linejoin="round"/><polyline points="170,285 176,335" fill="none" stroke="#C58A62" stroke-width="18" stroke-linecap="round" stroke-linejoin="round"/><ellipse cx="176" cy="335" rx="11" ry="13" fill="#E1AD84" stroke="#162B45" stroke-width="5" />
</svg>
