<svg xmlns="http://www.w3.org/2000/svg" width="512" height="512" viewBox="0 0 512 512">
<defs><linearGradient id="softShade" x1="0" y1="0" x2="1" y2="1"><stop offset="0" stop-color="#FFFFFF" stop-opacity=".24"/><stop offset="1" stop-color="#10243A" stop-opacity=".14"/></linearGradient></defs>
<ellipse cx="256" cy="472" rx="105" ry="14" fill="#AAB2BD" stroke="none" stroke-width="0" opacity=".65"/><rect x="236" y="332" width="34" height="131" rx="14" fill="#3C493D" stroke="#162B45" stroke-width="6" /><rect x="230" y="443" width="61" height="27" rx="13" fill="#2E3831" stroke="#162B45" stroke-width="6" /><rect x="225.0" y="181" width="66.0" height="158" rx="25" fill="#6F8A4B" stroke="#162B45" stroke-width="7" /><path d="M238.2 201 L277.8 201" fill="none" stroke="#D7A742" stroke-width="7" stroke-linecap="round" stroke-linejoin="round" /><path d="M258 216 Q293 276 278 331" fill="none" stroke="#C58A62" stroke-width="20" stroke-linecap="round" stroke-linejoin="round" /><path d="M228.5 70.7 Q215.52 149 229.68 214 Q270 227 285.14 188 L283.96 96 Z" fill="#426B4B" stroke="#162B45" stroke-width="7" stroke-linecap="round" stroke-linejoin="round" /><ellipse cx="258" cy="111" rx="34.22" ry="65" fill="#C58A62" stroke="#162B45" stroke-width="7" /><path d="M247.38 64.2 Q274.52 55.1 286.32 92" fill="none" stroke="#7E9B65" stroke-width="5" stroke-linecap="round" stroke-linejoin="round" /><path d="M236.76 156 Q251 189 277.47 179" fill="none" stroke="#7E9B65" stroke-width="4" stroke-linecap="round" stroke-linejoin="round" /><ellipse cx="269.8" cy="113" rx="9" ry="12" fill="#FFF8EE" stroke="#162B45" stroke-width="4" /><ellipse cx="272.16" cy="115" rx="4" ry="6" fill="#162B45" stroke="#162B45" stroke-width="0" /><path d="M287.5 119 q12 8 0 16" fill="none" stroke="#E1AD84" stroke-width="5" stroke-linecap="round" stroke-linejoin="round" /><path d="M260 148 Q276 159 289 145" fill="none" stroke="#162B45" stroke-width="5" stroke-linecap="round" stroke-linejoin="round" />
</svg>
