<svg xmlns="http://www.w3.org/2000/svg" width="512" height="512" viewBox="0 0 512 512">
<defs><linearGradient id="softShade" x1="0" y1="0" x2="1" y2="1"><stop offset="0" stop-color="#FFFFFF" stop-opacity=".24"/><stop offset="1" stop-color="#10243A" stop-opacity=".14"/></linearGradient></defs>
<g id="shadow" data-semantic-layer="true"><ellipse cx="256" cy="472" rx="105" ry="14" fill="#AAB2BD" stroke="none" stroke-width="0" opacity=".65"/></g>
<g id="leg-left" data-semantic-layer="true"><path d="M254 303 L301 302 Q305 362 297 442 L260 442 Z" fill="#252A34" stroke="#162B45" stroke-width="7" stroke-linecap="round" stroke-linejoin="round" /><rect x="250" y="432" width="61" height="28" rx="13" fill="#E9EEE8" stroke="#162B45" stroke-width="6" /></g>
<g id="leg-right" data-semantic-layer="true"><path d="M211 303 L248 303 L245 355 Q230 369 216 354 Z" fill="#754329" stroke="#162B45" stroke-width="7" stroke-linecap="round" stroke-linejoin="round" /></g>
<g id="device-prosthesis-socket-right" data-semantic-layer="true"><rect x="214" y="346" width="30" height="35" rx="12" fill="#30343B" stroke="#162B45" stroke-width="5" /></g>
<g id="device-prosthesis-pylon-right" data-semantic-layer="true"><path d="M229 379 L229 434" fill="none" stroke="#66717E" stroke-width="13" stroke-linecap="round" stroke-linejoin="round" /><path d="M229 382 L229 432" fill="none" stroke="#B8C1C8" stroke-width="5" stroke-linecap="round" stroke-linejoin="round" /></g>
<g id="device-prosthetic-foot-right" data-semantic-layer="true"><rect x="191" y="426" width="58" height="31" rx="14" fill="#B9C5CB" stroke="#162B45" stroke-width="6" /><path d="M199 438 L235 438" fill="none" stroke="#238C8F" stroke-width="5" stroke-linecap="round" stroke-linejoin="round" /></g>
<g id="torso" data-semantic-layer="true"><rect x="180" y="168" width="152" height="137" rx="30" fill="#238C8F" stroke="#162B45" stroke-width="7" /><path d="M198 186 Q256.0 211 314 186" fill="none" stroke="#173D5E" stroke-width="8" stroke-linecap="round" stroke-linejoin="round" /><path d="M207.36 186 Q256.0 176 304.64 186" fill="none" stroke="#E6F1E9" stroke-width="5" stroke-linecap="round" stroke-linejoin="round" /><path d="M194 180 L212 293 M318 180 L300 293" fill="none" stroke="#173D5E" stroke-width="8" stroke-linecap="round" stroke-linejoin="round" /><path d="M256.0 176 L256.0 297" fill="none" stroke="#E6F1E9" stroke-width="4" stroke-linecap="round" stroke-linejoin="round" /></g>
<g id="head" data-semantic-layer="true"><ellipse cx="206.18" cy="109" rx="12" ry="20" fill="#754329" stroke="#162B45" stroke-width="5" />
<ellipse cx="305.82" cy="109" rx="12" ry="20" fill="#754329" stroke="#162B45" stroke-width="5" />
<ellipse cx="256" cy="104" rx="53" ry="59" fill="#754329" stroke="#162B45" stroke-width="7" />
<path d="M217.84 75.68 Q242.75 57.98 288.86 73.32" fill="none" stroke="#9A6040" stroke-width="5" stroke-linecap="round" stroke-linejoin="round" opacity=".45"/></g>
<g id="hair-front" data-semantic-layer="true"><ellipse cx="211" cy="53" rx="18" ry="16" fill="#201714" stroke="#162B45" stroke-width="4" /><ellipse cx="226" cy="56" rx="18" ry="16" fill="#201714" stroke="#162B45" stroke-width="4" /><ellipse cx="241" cy="53" rx="18" ry="16" fill="#201714" stroke="#162B45" stroke-width="4" /><ellipse cx="256" cy="56" rx="18" ry="16" fill="#201714" stroke="#162B45" stroke-width="4" /><ellipse cx="271" cy="53" rx="18" ry="16" fill="#201714" stroke="#162B45" stroke-width="4" /><ellipse cx="286" cy="56" rx="18" ry="16" fill="#201714" stroke="#162B45" stroke-width="4" /><ellipse cx="301" cy="53" rx="18" ry="16" fill="#201714" stroke="#162B45" stroke-width="4" /><path d="M211 59 Q256 22 305 61" fill="#201714" stroke="#162B45" stroke-width="5" stroke-linecap="round" stroke-linejoin="round" /></g>
<g id="face-friendly" data-semantic-layer="true"><path d="M218.21 91 L246.21 85" fill="none" stroke="#162B45" stroke-width="7" stroke-linecap="round" stroke-linejoin="round" />
<path d="M265.79 85 L293.79 91" fill="none" stroke="#162B45" stroke-width="7" stroke-linecap="round" stroke-linejoin="round" />
<ellipse cx="233.21" cy="108" rx="9" ry="12" fill="#FFF8EE" stroke="#162B45" stroke-width="4" />
<ellipse cx="278.79" cy="108" rx="9" ry="12" fill="#FFF8EE" stroke="#162B45" stroke-width="4" />
<ellipse cx="234.21" cy="110" rx="4" ry="6" fill="#162B45" stroke="#162B45" stroke-width="0" />
<ellipse cx="279.79" cy="110" rx="4" ry="6" fill="#162B45" stroke="#162B45" stroke-width="0" />
<path d="M256 116 q-4 10 4 12" fill="none" stroke="#9A6040" stroke-width="4" stroke-linecap="round" stroke-linejoin="round" />
<ellipse cx="225.26" cy="128" rx="10" ry="6" fill="#E58A78" stroke="none" stroke-width="0" opacity=".45"/>
<ellipse cx="286.74" cy="128" rx="10" ry="6" fill="#E58A78" stroke="none" stroke-width="0" opacity=".45"/>
<path d="M223.14 129 Q256 172 288.86 127" fill="none" stroke="#201714" stroke-width="7" stroke-linecap="round" stroke-linejoin="round" />
<path d="M238 135 Q256 144 274 134" fill="none" stroke="#201714" stroke-width="4" stroke-linecap="round" stroke-linejoin="round" />
<path d="M231 138 Q256 156 283 136" fill="none" stroke="#FFFFFF" stroke-width="4" stroke-linecap="round" stroke-linejoin="round" />
<path d="M248 156 L256 164 L264 156" fill="#201714" stroke="#162B45" stroke-width="3" stroke-linecap="round" stroke-linejoin="round" /></g>
<g id="face-laughing" data-semantic-layer="true" style="display:none"><path d="M224.21 108 Q233.21 117.0 242.21 108" fill="none" stroke="#162B45" stroke-width="5" stroke-linecap="round" stroke-linejoin="round" />
<path d="M269.79 108 Q278.79 117.0 287.79 108" fill="none" stroke="#162B45" stroke-width="5" stroke-linecap="round" stroke-linejoin="round" />
<path d="M219.21 88 Q233.21 82 247.21 88" fill="none" stroke="#162B45" stroke-width="5" stroke-linecap="round" stroke-linejoin="round" />
<path d="M264.79 88 Q278.79 82 292.79 88" fill="none" stroke="#162B45" stroke-width="5" stroke-linecap="round" stroke-linejoin="round" />
<path d="M256 116 q-4 10 5 12" fill="none" stroke="#9A6040" stroke-width="4" stroke-linecap="round" stroke-linejoin="round" />
<path d="M228 138 Q256 179 285 137 Z" fill="#5B2730" stroke="#162B45" stroke-width="5" stroke-linecap="round" stroke-linejoin="round" />
<path d="M241 158 Q256 167 272 157" fill="none" stroke="#E98A86" stroke-width="5" stroke-linecap="round" stroke-linejoin="round" />
<path d="M223.14 129 Q256 172 288.86 127" fill="none" stroke="#201714" stroke-width="7" stroke-linecap="round" stroke-linejoin="round" /></g>
<g id="face-surprised" data-semantic-layer="true" style="display:none"><ellipse cx="233.21" cy="108" rx="9" ry="16.200000000000003" fill="#FFF8EE" stroke="#162B45" stroke-width="4" />
<ellipse cx="234.21" cy="110" rx="4" ry="8.100000000000001" fill="#162B45" stroke="#162B45" stroke-width="0" />
<ellipse cx="278.79" cy="108" rx="9" ry="16.200000000000003" fill="#FFF8EE" stroke="#162B45" stroke-width="4" />
<ellipse cx="279.79" cy="110" rx="4" ry="8.100000000000001" fill="#162B45" stroke="#162B45" stroke-width="0" />
<path d="M219.21 79 Q233.21 73 247.21 79" fill="none" stroke="#162B45" stroke-width="5" stroke-linecap="round" stroke-linejoin="round" />
<path d="M264.79 79 Q278.79 73 292.79 79" fill="none" stroke="#162B45" stroke-width="5" stroke-linecap="round" stroke-linejoin="round" />
<path d="M256 116 q-4 10 5 12" fill="none" stroke="#9A6040" stroke-width="4" stroke-linecap="round" stroke-linejoin="round" />
<ellipse cx="256" cy="145" rx="12" ry="16" fill="#5B2730" stroke="#162B45" stroke-width="5" />
<path d="M223.14 129 Q256 172 288.86 127" fill="none" stroke="#201714" stroke-width="7" stroke-linecap="round" stroke-linejoin="round" /></g>
<g id="face-thinking" data-semantic-layer="true" style="display:none"><ellipse cx="233.21" cy="108" rx="9" ry="12.0" fill="#FFF8EE" stroke="#162B45" stroke-width="4" />
<ellipse cx="237.21" cy="110" rx="4" ry="6.0" fill="#162B45" stroke="#162B45" stroke-width="0" />
<ellipse cx="278.79" cy="108" rx="9" ry="12.0" fill="#FFF8EE" stroke="#162B45" stroke-width="4" />
<ellipse cx="282.79" cy="110" rx="4" ry="6.0" fill="#162B45" stroke="#162B45" stroke-width="0" />
<path d="M219.21 93 L247.21 86" fill="none" stroke="#162B45" stroke-width="5" stroke-linecap="round" stroke-linejoin="round" />
<path d="M264.79 86 L292.79 86" fill="none" stroke="#162B45" stroke-width="5" stroke-linecap="round" stroke-linejoin="round" />
<path d="M256 116 q-4 10 5 12" fill="none" stroke="#9A6040" stroke-width="4" stroke-linecap="round" stroke-linejoin="round" />
<path d="M238 145 Q259 141 278 148" fill="none" stroke="#162B45" stroke-width="5" stroke-linecap="round" stroke-linejoin="round" />
<path d="M223.14 129 Q256 172 288.86 127" fill="none" stroke="#201714" stroke-width="7" stroke-linecap="round" stroke-linejoin="round" /></g>
<g id="face-confident" data-semantic-layer="true" style="display:none"><ellipse cx="233.21" cy="108" rx="9" ry="7.4399999999999995" fill="#FFF8EE" stroke="#162B45" stroke-width="4" />
<ellipse cx="234.21" cy="110" rx="4" ry="3.7199999999999998" fill="#162B45" stroke="#162B45" stroke-width="0" />
<ellipse cx="278.79" cy="108" rx="9" ry="7.4399999999999995" fill="#FFF8EE" stroke="#162B45" stroke-width="4" />
<ellipse cx="279.79" cy="110" rx="4" ry="3.7199999999999998" fill="#162B45" stroke="#162B45" stroke-width="0" />
<path d="M219.21 93 Q233.21 87 247.21 93" fill="none" stroke="#162B45" stroke-width="5" stroke-linecap="round" stroke-linejoin="round" />
<path d="M264.79 93 Q278.79 87 292.79 93" fill="none" stroke="#162B45" stroke-width="5" stroke-linecap="round" stroke-linejoin="round" />
<path d="M256 116 q-4 10 5 12" fill="none" stroke="#9A6040" stroke-width="4" stroke-linecap="round" stroke-linejoin="round" />
<path d="M232 142 Q261 164 285 137" fill="none" stroke="#162B45" stroke-width="6" stroke-linecap="round" stroke-linejoin="round" />
<path d="M223.14 129 Q256 172 288.86 127" fill="none" stroke="#201714" stroke-width="7" stroke-linecap="round" stroke-linejoin="round" /></g>
<g id="face-sorry" data-semantic-layer="true" style="display:none"><ellipse cx="233.21" cy="108" rx="9" ry="12.0" fill="#FFF8EE" stroke="#162B45" stroke-width="4" />
<ellipse cx="234.21" cy="110" rx="4" ry="6.0" fill="#162B45" stroke="#162B45" stroke-width="0" />
<ellipse cx="278.79" cy="108" rx="9" ry="12.0" fill="#FFF8EE" stroke="#162B45" stroke-width="4" />
<ellipse cx="279.79" cy="110" rx="4" ry="6.0" fill="#162B45" stroke="#162B45" stroke-width="0" />
<path d="M219.21 90 Q235.21 84 247.21 95" fill="none" stroke="#162B45" stroke-width="5" stroke-linecap="round" stroke-linejoin="round" />
<path d="M264.79 95 Q276.79 84 292.79 90" fill="none" stroke="#162B45" stroke-width="5" stroke-linecap="round" stroke-linejoin="round" />
<path d="M256 116 q-4 10 5 12" fill="none" stroke="#9A6040" stroke-width="4" stroke-linecap="round" stroke-linejoin="round" />
<path d="M232 154 Q256 135 280 154" fill="none" stroke="#162B45" stroke-width="6" stroke-linecap="round" stroke-linejoin="round" />
<path d="M223.14 129 Q256 172 288.86 127" fill="none" stroke="#201714" stroke-width="7" stroke-linecap="round" stroke-linejoin="round" /></g>
<g id="face-excited" data-semantic-layer="true" style="display:none"><ellipse cx="233.21" cy="108" rx="9" ry="16.200000000000003" fill="#FFF8EE" stroke="#162B45" stroke-width="4" />
<ellipse cx="234.21" cy="110" rx="4" ry="8.100000000000001" fill="#162B45" stroke="#162B45" stroke-width="0" />
<ellipse cx="278.79" cy="108" rx="9" ry="16.200000000000003" fill="#FFF8EE" stroke="#162B45" stroke-width="4" />
<ellipse cx="279.79" cy="110" rx="4" ry="8.100000000000001" fill="#162B45" stroke="#162B45" stroke-width="0" />
<path d="M219.21 83 Q233.21 77 247.21 83" fill="none" stroke="#162B45" stroke-width="5" stroke-linecap="round" stroke-linejoin="round" />
<path d="M264.79 83 Q278.79 77 292.79 83" fill="none" stroke="#162B45" stroke-width="5" stroke-linecap="round" stroke-linejoin="round" />
<path d="M256 116 q-4 10 5 12" fill="none" stroke="#9A6040" stroke-width="4" stroke-linecap="round" stroke-linejoin="round" />
<path d="M229 140 Q256 169 284 138" fill="none" stroke="#162B45" stroke-width="6" stroke-linecap="round" stroke-linejoin="round" />
<path d="M223.14 129 Q256 172 288.86 127" fill="none" stroke="#201714" stroke-width="7" stroke-linecap="round" stroke-linejoin="round" /></g>
<g id="arm-left-rest" data-semantic-layer="true" style="display:none"><polyline points="324,202 338.0,237.0 352,272" fill="none" stroke="#162B45" stroke-width="32" stroke-linecap="round" stroke-linejoin="round"/><polyline points="324,202 338.0,237.0 352,272" fill="none" stroke="#238C8F" stroke-width="24" stroke-linecap="round" stroke-linejoin="round"/><polyline points="352,272 346,322" fill="none" stroke="#162B45" stroke-width="25" stroke-linecap="round" stroke-linejoin="round"/><polyline points="352,272 346,322" fill="none" stroke="#754329" stroke-width="18" stroke-linecap="round" stroke-linejoin="round"/><ellipse cx="346" cy="322" rx="11" ry="13" fill="#9A6040" stroke="#162B45" stroke-width="5" /></g>
<g id="arm-right-rest" data-semantic-layer="true" style="display:none"><polyline points="188,202 174.0,237.0 160,272" fill="none" stroke="#162B45" stroke-width="32" stroke-linecap="round" stroke-linejoin="round"/><polyline points="188,202 174.0,237.0 160,272" fill="none" stroke="#238C8F" stroke-width="24" stroke-linecap="round" stroke-linejoin="round"/><polyline points="160,272 166,322" fill="none" stroke="#162B45" stroke-width="25" stroke-linecap="round" stroke-linejoin="round"/><polyline points="160,272 166,322" fill="none" stroke="#754329" stroke-width="18" stroke-linecap="round" stroke-linejoin="round"/><ellipse cx="166" cy="322" rx="11" ry="13" fill="#9A6040" stroke="#162B45" stroke-width="5" /></g>
<g id="arm-left-greeting" data-semantic-layer="true"><polyline points="324,202 338.0,237.0 352,272" fill="none" stroke="#162B45" stroke-width="32" stroke-linecap="round" stroke-linejoin="round"/><polyline points="324,202 338.0,237.0 352,272" fill="none" stroke="#238C8F" stroke-width="24" stroke-linecap="round" stroke-linejoin="round"/><polyline points="352,272 346,322" fill="none" stroke="#162B45" stroke-width="25" stroke-linecap="round" stroke-linejoin="round"/><polyline points="352,272 346,322" fill="none" stroke="#754329" stroke-width="18" stroke-linecap="round" stroke-linejoin="round"/><ellipse cx="346" cy="322" rx="13" ry="15" fill="#9A6040" stroke="#162B45" stroke-width="5" /><path d="M341.8 316 L332.2 295.8" fill="none" stroke="#754329" stroke-width="6" stroke-linecap="round" stroke-linejoin="round" /><path d="M344.6 316 L341.4 294.6" fill="none" stroke="#754329" stroke-width="6" stroke-linecap="round" stroke-linejoin="round" /><path d="M347.4 316 L350.6 294.6" fill="none" stroke="#754329" stroke-width="6" stroke-linecap="round" stroke-linejoin="round" /><path d="M350.2 316 L359.8 295.8" fill="none" stroke="#754329" stroke-width="6" stroke-linecap="round" stroke-linejoin="round" /></g>
<g id="arm-right-greeting" data-semantic-layer="true"><polyline points="188,202 170.0,186.0 152,170" fill="none" stroke="#162B45" stroke-width="32" stroke-linecap="round" stroke-linejoin="round"/><polyline points="188,202 170.0,186.0 152,170" fill="none" stroke="#238C8F" stroke-width="24" stroke-linecap="round" stroke-linejoin="round"/><polyline points="152,170 140,112" fill="none" stroke="#162B45" stroke-width="25" stroke-linecap="round" stroke-linejoin="round"/><polyline points="152,170 140,112" fill="none" stroke="#754329" stroke-width="18" stroke-linecap="round" stroke-linejoin="round"/><ellipse cx="140" cy="112" rx="13" ry="15" fill="#9A6040" stroke="#162B45" stroke-width="5" /><path d="M135.8 106 L126.2 85.8" fill="none" stroke="#754329" stroke-width="6" stroke-linecap="round" stroke-linejoin="round" /><path d="M138.6 106 L135.4 84.6" fill="none" stroke="#754329" stroke-width="6" stroke-linecap="round" stroke-linejoin="round" /><path d="M141.4 106 L144.6 84.6" fill="none" stroke="#754329" stroke-width="6" stroke-linecap="round" stroke-linejoin="round" /><path d="M144.2 106 L153.8 85.8" fill="none" stroke="#754329" stroke-width="6" stroke-linecap="round" stroke-linejoin="round" /></g>
<g id="arm-left-farewell" data-semantic-layer="true" style="display:none"><polyline points="324,202 342.0,186.0 360,170" fill="none" stroke="#162B45" stroke-width="32" stroke-linecap="round" stroke-linejoin="round"/><polyline points="324,202 342.0,186.0 360,170" fill="none" stroke="#238C8F" stroke-width="24" stroke-linecap="round" stroke-linejoin="round"/><polyline points="360,170 372,112" fill="none" stroke="#162B45" stroke-width="25" stroke-linecap="round" stroke-linejoin="round"/><polyline points="360,170 372,112" fill="none" stroke="#754329" stroke-width="18" stroke-linecap="round" stroke-linejoin="round"/><ellipse cx="372" cy="112" rx="13" ry="15" fill="#9A6040" stroke="#162B45" stroke-width="5" /><path d="M367.8 106 L358.2 85.8" fill="none" stroke="#754329" stroke-width="6" stroke-linecap="round" stroke-linejoin="round" /><path d="M370.6 106 L367.4 84.6" fill="none" stroke="#754329" stroke-width="6" stroke-linecap="round" stroke-linejoin="round" /><path d="M373.4 106 L376.6 84.6" fill="none" stroke="#754329" stroke-width="6" stroke-linecap="round" stroke-linejoin="round" /><path d="M376.2 106 L385.8 85.8" fill="none" stroke="#754329" stroke-width="6" stroke-linecap="round" stroke-linejoin="round" /></g>
<g id="arm-right-farewell" data-semantic-layer="true" style="display:none"><polyline points="188,202 174.0,237.0 160,272" fill="none" stroke="#162B45" stroke-width="32" stroke-linecap="round" stroke-linejoin="round"/><polyline points="188,202 174.0,237.0 160,272" fill="none" stroke="#238C8F" stroke-width="24" stroke-linecap="round" stroke-linejoin="round"/><polyline points="160,272 166,322" fill="none" stroke="#162B45" stroke-width="25" stroke-linecap="round" stroke-linejoin="round"/><polyline points="160,272 166,322" fill="none" stroke="#754329" stroke-width="18" stroke-linecap="round" stroke-linejoin="round"/><ellipse cx="166" cy="322" rx="13" ry="15" fill="#9A6040" stroke="#162B45" stroke-width="5" /><path d="M161.8 316 L152.2 295.8" fill="none" stroke="#754329" stroke-width="6" stroke-linecap="round" stroke-linejoin="round" /><path d="M164.6 316 L161.4 294.6" fill="none" stroke="#754329" stroke-width="6" stroke-linecap="round" stroke-linejoin="round" /><path d="M167.4 316 L170.6 294.6" fill="none" stroke="#754329" stroke-width="6" stroke-linecap="round" stroke-linejoin="round" /><path d="M170.2 316 L179.8 295.8" fill="none" stroke="#754329" stroke-width="6" stroke-linecap="round" stroke-linejoin="round" /></g>
<g id="arm-left-agreement" data-semantic-layer="true" style="display:none"><polyline points="324,202 334.0,219.5 344,237" fill="none" stroke="#162B45" stroke-width="32" stroke-linecap="round" stroke-linejoin="round"/><polyline points="324,202 334.0,219.5 344,237" fill="none" stroke="#238C8F" stroke-width="24" stroke-linecap="round" stroke-linejoin="round"/><polyline points="344,237 301,212" fill="none" stroke="#162B45" stroke-width="25" stroke-linecap="round" stroke-linejoin="round"/><polyline points="344,237 301,212" fill="none" stroke="#754329" stroke-width="18" stroke-linecap="round" stroke-linejoin="round"/><ellipse cx="301" cy="212" rx="11" ry="13" fill="#9A6040" stroke="#162B45" stroke-width="5" /></g>
<g id="arm-right-agreement" data-semantic-layer="true" style="display:none"><polyline points="188,202 178.0,219.5 168,237" fill="none" stroke="#162B45" stroke-width="32" stroke-linecap="round" stroke-linejoin="round"/><polyline points="188,202 178.0,219.5 168,237" fill="none" stroke="#238C8F" stroke-width="24" stroke-linecap="round" stroke-linejoin="round"/><polyline points="168,237 211,212" fill="none" stroke="#162B45" stroke-width="25" stroke-linecap="round" stroke-linejoin="round"/><polyline points="168,237 211,212" fill="none" stroke="#754329" stroke-width="18" stroke-linecap="round" stroke-linejoin="round"/><ellipse cx="211" cy="212" rx="11" ry="13" fill="#9A6040" stroke="#162B45" stroke-width="5" /></g>
<g id="arm-left-disagreement" data-semantic-layer="true" style="display:none"><polyline points="324,202 332.0,224.5 340,247" fill="none" stroke="#162B45" stroke-width="32" stroke-linecap="round" stroke-linejoin="round"/><polyline points="324,202 332.0,224.5 340,247" fill="none" stroke="#238C8F" stroke-width="24" stroke-linecap="round" stroke-linejoin="round"/><polyline points="340,247 218,275" fill="none" stroke="#162B45" stroke-width="25" stroke-linecap="round" stroke-linejoin="round"/><polyline points="340,247 218,275" fill="none" stroke="#754329" stroke-width="18" stroke-linecap="round" stroke-linejoin="round"/><ellipse cx="218" cy="275" rx="11" ry="13" fill="#9A6040" stroke="#162B45" stroke-width="5" /></g>
<g id="arm-right-disagreement" data-semantic-layer="true" style="display:none"><polyline points="188,202 180.0,224.5 172,247" fill="none" stroke="#162B45" stroke-width="32" stroke-linecap="round" stroke-linejoin="round"/><polyline points="188,202 180.0,224.5 172,247" fill="none" stroke="#238C8F" stroke-width="24" stroke-linecap="round" stroke-linejoin="round"/><polyline points="172,247 294,275" fill="none" stroke="#162B45" stroke-width="25" stroke-linecap="round" stroke-linejoin="round"/><polyline points="172,247 294,275" fill="none" stroke="#754329" stroke-width="18" stroke-linecap="round" stroke-linejoin="round"/><ellipse cx="294" cy="275" rx="11" ry="13" fill="#9A6040" stroke="#162B45" stroke-width="5" /></g>
<g id="arm-left-gratitude" data-semantic-layer="true" style="display:none"><polyline points="324,202 333.0,225.5 342,249" fill="none" stroke="#162B45" stroke-width="32" stroke-linecap="round" stroke-linejoin="round"/><polyline points="324,202 333.0,225.5 342,249" fill="none" stroke="#238C8F" stroke-width="24" stroke-linecap="round" stroke-linejoin="round"/><polyline points="342,249 266,264" fill="none" stroke="#162B45" stroke-width="25" stroke-linecap="round" stroke-linejoin="round"/><polyline points="342,249 266,264" fill="none" stroke="#754329" stroke-width="18" stroke-linecap="round" stroke-linejoin="round"/><ellipse cx="266" cy="264" rx="11" ry="13" fill="#9A6040" stroke="#162B45" stroke-width="5" /></g>
<g id="arm-right-gratitude" data-semantic-layer="true" style="display:none"><polyline points="188,202 179.0,225.5 170,249" fill="none" stroke="#162B45" stroke-width="32" stroke-linecap="round" stroke-linejoin="round"/><polyline points="188,202 179.0,225.5 170,249" fill="none" stroke="#238C8F" stroke-width="24" stroke-linecap="round" stroke-linejoin="round"/><polyline points="170,249 246,264" fill="none" stroke="#162B45" stroke-width="25" stroke-linecap="round" stroke-linejoin="round"/><polyline points="170,249 246,264" fill="none" stroke="#754329" stroke-width="18" stroke-linecap="round" stroke-linejoin="round"/><ellipse cx="246" cy="264" rx="11" ry="13" fill="#9A6040" stroke="#162B45" stroke-width="5" /></g>
<g id="arm-left-concern" data-semantic-layer="true" style="display:none"><polyline points="324,202 336.0,213.0 348,224" fill="none" stroke="#162B45" stroke-width="32" stroke-linecap="round" stroke-linejoin="round"/><polyline points="324,202 336.0,213.0 348,224" fill="none" stroke="#238C8F" stroke-width="24" stroke-linecap="round" stroke-linejoin="round"/><polyline points="348,224 294,147" fill="none" stroke="#162B45" stroke-width="25" stroke-linecap="round" stroke-linejoin="round"/><polyline points="348,224 294,147" fill="none" stroke="#754329" stroke-width="18" stroke-linecap="round" stroke-linejoin="round"/><ellipse cx="294" cy="147" rx="11" ry="13" fill="#9A6040" stroke="#162B45" stroke-width="5" /></g>
<g id="arm-right-concern" data-semantic-layer="true" style="display:none"><polyline points="188,202 176.0,213.0 164,224" fill="none" stroke="#162B45" stroke-width="32" stroke-linecap="round" stroke-linejoin="round"/><polyline points="188,202 176.0,213.0 164,224" fill="none" stroke="#238C8F" stroke-width="24" stroke-linecap="round" stroke-linejoin="round"/><polyline points="164,224 218,147" fill="none" stroke="#162B45" stroke-width="25" stroke-linecap="round" stroke-linejoin="round"/><polyline points="164,224 218,147" fill="none" stroke="#754329" stroke-width="18" stroke-linecap="round" stroke-linejoin="round"/><ellipse cx="218" cy="147" rx="11" ry="13" fill="#9A6040" stroke="#162B45" stroke-width="5" /></g>
<g id="arm-left-surprise" data-semantic-layer="true" style="display:none"><polyline points="324,202 338.0,206.0 352,210" fill="none" stroke="#162B45" stroke-width="32" stroke-linecap="round" stroke-linejoin="round"/><polyline points="324,202 338.0,206.0 352,210" fill="none" stroke="#238C8F" stroke-width="24" stroke-linecap="round" stroke-linejoin="round"/><polyline points="352,210 314,134" fill="none" stroke="#162B45" stroke-width="25" stroke-linecap="round" stroke-linejoin="round"/><polyline points="352,210 314,134" fill="none" stroke="#754329" stroke-width="18" stroke-linecap="round" stroke-linejoin="round"/><ellipse cx="314" cy="134" rx="13" ry="15" fill="#9A6040" stroke="#162B45" stroke-width="5" /><path d="M309.8 128 L300.2 107.8" fill="none" stroke="#754329" stroke-width="6" stroke-linecap="round" stroke-linejoin="round" /><path d="M312.6 128 L309.4 106.6" fill="none" stroke="#754329" stroke-width="6" stroke-linecap="round" stroke-linejoin="round" /><path d="M315.4 128 L318.6 106.6" fill="none" stroke="#754329" stroke-width="6" stroke-linecap="round" stroke-linejoin="round" /><path d="M318.2 128 L327.8 107.8" fill="none" stroke="#754329" stroke-width="6" stroke-linecap="round" stroke-linejoin="round" /></g>
<g id="arm-right-surprise" data-semantic-layer="true" style="display:none"><polyline points="188,202 174.0,206.0 160,210" fill="none" stroke="#162B45" stroke-width="32" stroke-linecap="round" stroke-linejoin="round"/><polyline points="188,202 174.0,206.0 160,210" fill="none" stroke="#238C8F" stroke-width="24" stroke-linecap="round" stroke-linejoin="round"/><polyline points="160,210 198,134" fill="none" stroke="#162B45" stroke-width="25" stroke-linecap="round" stroke-linejoin="round"/><polyline points="160,210 198,134" fill="none" stroke="#754329" stroke-width="18" stroke-linecap="round" stroke-linejoin="round"/><ellipse cx="198" cy="134" rx="13" ry="15" fill="#9A6040" stroke="#162B45" stroke-width="5" /><path d="M193.8 128 L184.2 107.8" fill="none" stroke="#754329" stroke-width="6" stroke-linecap="round" stroke-linejoin="round" /><path d="M196.6 128 L193.4 106.6" fill="none" stroke="#754329" stroke-width="6" stroke-linecap="round" stroke-linejoin="round" /><path d="M199.4 128 L202.6 106.6" fill="none" stroke="#754329" stroke-width="6" stroke-linecap="round" stroke-linejoin="round" /><path d="M202.2 128 L211.8 107.8" fill="none" stroke="#754329" stroke-width="6" stroke-linecap="round" stroke-linejoin="round" /></g>
<g id="arm-left-celebration" data-semantic-layer="true" style="display:none"><polyline points="324,202 341.0,181.0 358,160" fill="none" stroke="#162B45" stroke-width="32" stroke-linecap="round" stroke-linejoin="round"/><polyline points="324,202 341.0,181.0 358,160" fill="none" stroke="#238C8F" stroke-width="24" stroke-linecap="round" stroke-linejoin="round"/><polyline points="358,160 376,98" fill="none" stroke="#162B45" stroke-width="25" stroke-linecap="round" stroke-linejoin="round"/><polyline points="358,160 376,98" fill="none" stroke="#754329" stroke-width="18" stroke-linecap="round" stroke-linejoin="round"/><ellipse cx="376" cy="98" rx="13" ry="15" fill="#9A6040" stroke="#162B45" stroke-width="5" /><path d="M371.8 92 L362.2 71.8" fill="none" stroke="#754329" stroke-width="6" stroke-linecap="round" stroke-linejoin="round" /><path d="M374.6 92 L371.4 70.6" fill="none" stroke="#754329" stroke-width="6" stroke-linecap="round" stroke-linejoin="round" /><path d="M377.4 92 L380.6 70.6" fill="none" stroke="#754329" stroke-width="6" stroke-linecap="round" stroke-linejoin="round" /><path d="M380.2 92 L389.8 71.8" fill="none" stroke="#754329" stroke-width="6" stroke-linecap="round" stroke-linejoin="round" /></g>
<g id="arm-right-celebration" data-semantic-layer="true" style="display:none"><polyline points="188,202 171.0,181.0 154,160" fill="none" stroke="#162B45" stroke-width="32" stroke-linecap="round" stroke-linejoin="round"/><polyline points="188,202 171.0,181.0 154,160" fill="none" stroke="#238C8F" stroke-width="24" stroke-linecap="round" stroke-linejoin="round"/><polyline points="154,160 136,98" fill="none" stroke="#162B45" stroke-width="25" stroke-linecap="round" stroke-linejoin="round"/><polyline points="154,160 136,98" fill="none" stroke="#754329" stroke-width="18" stroke-linecap="round" stroke-linejoin="round"/><ellipse cx="136" cy="98" rx="13" ry="15" fill="#9A6040" stroke="#162B45" stroke-width="5" /><path d="M131.8 92 L122.2 71.8" fill="none" stroke="#754329" stroke-width="6" stroke-linecap="round" stroke-linejoin="round" /><path d="M134.6 92 L131.4 70.6" fill="none" stroke="#754329" stroke-width="6" stroke-linecap="round" stroke-linejoin="round" /><path d="M137.4 92 L140.6 70.6" fill="none" stroke="#754329" stroke-width="6" stroke-linecap="round" stroke-linejoin="round" /><path d="M140.2 92 L149.8 71.8" fill="none" stroke="#754329" stroke-width="6" stroke-linecap="round" stroke-linejoin="round" /></g>
</svg>
