<svg xmlns="http://www.w3.org/2000/svg" width="512" height="512" viewBox="0 0 512 512">
<defs><linearGradient id="softShade" x1="0" y1="0" x2="1" y2="1"><stop offset="0" stop-color="#FFFFFF" stop-opacity=".24"/><stop offset="1" stop-color="#10243A" stop-opacity=".14"/></linearGradient></defs>
<g id="shadow" data-semantic-layer="true"><ellipse cx="256" cy="472" rx="105" ry="14" fill="#AAB2BD" stroke="none" stroke-width="0" opacity=".65"/></g>
<g id="leg-left" data-semantic-layer="true"><path d="M254 303 L301 302 Q305 362 297 442 L260 442 Z" fill="#187B83" stroke="#162B45" stroke-width="7" stroke-linecap="round" stroke-linejoin="round" /><rect x="250" y="432" width="61" height="28" rx="13" fill="#724277" stroke="#162B45" stroke-width="6" /></g>
<g id="leg-right" data-semantic-layer="true"><path d="M211 302 Q210 360 215 442 L252 442 L258 303 Z" fill="#187B83" stroke="#162B45" stroke-width="7" stroke-linecap="round" stroke-linejoin="round" /><rect x="202" y="432" width="61" height="28" rx="13" fill="#724277" stroke="#162B45" stroke-width="6" /></g>
<g id="torso" data-semantic-layer="true"><rect x="186" y="178" width="140" height="155" rx="30" fill="#643A78" stroke="#162B45" stroke-width="7" /><path d="M204 196 Q256.0 221 308 196" fill="none" stroke="#E87522" stroke-width="8" stroke-linecap="round" stroke-linejoin="round" /><path d="M211.2 196 Q256.0 186 300.8 196" fill="none" stroke="#F2A13A" stroke-width="5" stroke-linecap="round" stroke-linejoin="round" /><path d="M194 226 Q256.0 256 318 226" fill="none" stroke="#E87522" stroke-width="10" stroke-linecap="round" stroke-linejoin="round" /><path d="M211 236 Q256.0 268 301 236" fill="none" stroke="#F2A13A" stroke-width="5" stroke-linecap="round" stroke-linejoin="round" /><path d="M228 233 l7 7 l-7 7 l-7 -7 Z" fill="#F2A13A" stroke="none" stroke-width="0" stroke-linecap="round" stroke-linejoin="round" /><path d="M248 233 l7 7 l-7 7 l-7 -7 Z" fill="#F2A13A" stroke="none" stroke-width="0" stroke-linecap="round" stroke-linejoin="round" /><path d="M268 233 l7 7 l-7 7 l-7 -7 Z" fill="#F2A13A" stroke="none" stroke-width="0" stroke-linecap="round" stroke-linejoin="round" /><path d="M288 233 l7 7 l-7 7 l-7 -7 Z" fill="#F2A13A" stroke="none" stroke-width="0" stroke-linecap="round" stroke-linejoin="round" /></g>
<g id="head" data-semantic-layer="true"><ellipse cx="199.6" cy="111" rx="12" ry="20" fill="#714027" stroke="#162B45" stroke-width="5" />
<ellipse cx="312.4" cy="111" rx="12" ry="20" fill="#714027" stroke="#162B45" stroke-width="5" />
<ellipse cx="256" cy="106" rx="60" ry="63" fill="#714027" stroke="#162B45" stroke-width="7" />
<path d="M212.8 75.76 Q241.0 56.86 293.2 73.24000000000001" fill="none" stroke="#965F43" stroke-width="5" stroke-linecap="round" stroke-linejoin="round" opacity=".45"/></g>
<g id="hair-front" data-semantic-layer="true"><ellipse cx="208" cy="56" rx="25" ry="25" fill="#B8B1AA" stroke="#162B45" stroke-width="4" /><path d="M198.0 56 q10.0 -12.5 20.0 0" fill="none" stroke="#E9E4DD" stroke-width="3" stroke-linecap="round" stroke-linejoin="round" /><ellipse cx="231" cy="39" rx="24" ry="24" fill="#B8B1AA" stroke="#162B45" stroke-width="4" /><path d="M221.4 39 q9.600000000000001 -12.0 19.200000000000003 0" fill="none" stroke="#E9E4DD" stroke-width="3" stroke-linecap="round" stroke-linejoin="round" /><ellipse cx="256" cy="34" rx="25" ry="25" fill="#B8B1AA" stroke="#162B45" stroke-width="4" /><path d="M246.0 34 q10.0 -12.5 20.0 0" fill="none" stroke="#E9E4DD" stroke-width="3" stroke-linecap="round" stroke-linejoin="round" /><ellipse cx="282" cy="40" rx="24" ry="24" fill="#B8B1AA" stroke="#162B45" stroke-width="4" /><path d="M272.4 40 q9.600000000000001 -12.0 19.200000000000003 0" fill="none" stroke="#E9E4DD" stroke-width="3" stroke-linecap="round" stroke-linejoin="round" /><ellipse cx="305" cy="58" rx="25" ry="25" fill="#B8B1AA" stroke="#162B45" stroke-width="4" /><path d="M295.0 58 q10.0 -12.5 20.0 0" fill="none" stroke="#E9E4DD" stroke-width="3" stroke-linecap="round" stroke-linejoin="round" /><ellipse cx="200" cy="82" rx="22" ry="22" fill="#B8B1AA" stroke="#162B45" stroke-width="4" /><path d="M191.2 82 q8.8 -11.0 17.6 0" fill="none" stroke="#E9E4DD" stroke-width="3" stroke-linecap="round" stroke-linejoin="round" /><ellipse cx="311" cy="84" rx="22" ry="22" fill="#B8B1AA" stroke="#162B45" stroke-width="4" /><path d="M302.2 84 q8.8 -11.0 17.6 0" fill="none" stroke="#E9E4DD" stroke-width="3" stroke-linecap="round" stroke-linejoin="round" /></g>
<g id="face-friendly" data-semantic-layer="true"><path d="M216.2 92 Q230.2 85 244.2 92" fill="none" stroke="#162B45" stroke-width="5" stroke-linecap="round" stroke-linejoin="round" />
<path d="M267.8 92 Q281.8 85 295.8 92" fill="none" stroke="#162B45" stroke-width="5" stroke-linecap="round" stroke-linejoin="round" />
<ellipse cx="230.2" cy="110" rx="9" ry="11" fill="#FFF8EE" stroke="#162B45" stroke-width="4" />
<ellipse cx="281.8" cy="110" rx="9" ry="11" fill="#FFF8EE" stroke="#162B45" stroke-width="4" />
<ellipse cx="231.2" cy="112" rx="4" ry="6" fill="#162B45" stroke="#162B45" stroke-width="0" />
<ellipse cx="282.8" cy="112" rx="4" ry="6" fill="#162B45" stroke="#162B45" stroke-width="0" />
<path d="M256 118 q-4 10 4 12" fill="none" stroke="#965F43" stroke-width="4" stroke-linecap="round" stroke-linejoin="round" />
<ellipse cx="221.2" cy="130" rx="10" ry="6" fill="#E58A78" stroke="none" stroke-width="0" opacity=".45"/>
<ellipse cx="290.8" cy="130" rx="10" ry="6" fill="#E58A78" stroke="none" stroke-width="0" opacity=".45"/>
<path d="M231 141 Q256 161 283 137" fill="none" stroke="#162B45" stroke-width="6" stroke-linecap="round" stroke-linejoin="round" />
<path d="M241 145 Q256 154 272 142" fill="none" stroke="#FFFFFF" stroke-width="3" stroke-linecap="round" stroke-linejoin="round" />
<ellipse cx="230.2" cy="110" rx="19" ry="17" fill="none" stroke="#162B45" stroke-width="4" />
<ellipse cx="281.8" cy="110" rx="19" ry="17" fill="none" stroke="#162B45" stroke-width="4" />
<path d="M249.2 110 L262.8 110" fill="none" stroke="#162B45" stroke-width="4" stroke-linecap="round" stroke-linejoin="round" /></g>
<g id="face-laughing" data-semantic-layer="true" style="display:none"><path d="M221.2 110 Q230.2 118.25 239.2 110" fill="none" stroke="#162B45" stroke-width="5" stroke-linecap="round" stroke-linejoin="round" />
<path d="M272.8 110 Q281.8 118.25 290.8 110" fill="none" stroke="#162B45" stroke-width="5" stroke-linecap="round" stroke-linejoin="round" />
<path d="M216.2 90 Q230.2 84 244.2 90" fill="none" stroke="#162B45" stroke-width="5" stroke-linecap="round" stroke-linejoin="round" />
<path d="M267.8 90 Q281.8 84 295.8 90" fill="none" stroke="#162B45" stroke-width="5" stroke-linecap="round" stroke-linejoin="round" />
<path d="M256 118 q-4 10 5 12" fill="none" stroke="#965F43" stroke-width="4" stroke-linecap="round" stroke-linejoin="round" />
<path d="M228 140 Q256 181 285 139 Z" fill="#5B2730" stroke="#162B45" stroke-width="5" stroke-linecap="round" stroke-linejoin="round" />
<path d="M241 160 Q256 169 272 159" fill="none" stroke="#E98A86" stroke-width="5" stroke-linecap="round" stroke-linejoin="round" />
<ellipse cx="230.2" cy="110" rx="19" ry="17" fill="none" stroke="#162B45" stroke-width="4" />
<ellipse cx="281.8" cy="110" rx="19" ry="17" fill="none" stroke="#162B45" stroke-width="4" />
<path d="M249.2 110 L262.8 110" fill="none" stroke="#162B45" stroke-width="4" stroke-linecap="round" stroke-linejoin="round" /></g>
<g id="face-surprised" data-semantic-layer="true" style="display:none"><ellipse cx="230.2" cy="110" rx="9" ry="14.850000000000001" fill="#FFF8EE" stroke="#162B45" stroke-width="4" />
<ellipse cx="231.2" cy="112" rx="4" ry="8.100000000000001" fill="#162B45" stroke="#162B45" stroke-width="0" />
<ellipse cx="281.8" cy="110" rx="9" ry="14.850000000000001" fill="#FFF8EE" stroke="#162B45" stroke-width="4" />
<ellipse cx="282.8" cy="112" rx="4" ry="8.100000000000001" fill="#162B45" stroke="#162B45" stroke-width="0" />
<path d="M216.2 81 Q230.2 75 244.2 81" fill="none" stroke="#162B45" stroke-width="5" stroke-linecap="round" stroke-linejoin="round" />
<path d="M267.8 81 Q281.8 75 295.8 81" fill="none" stroke="#162B45" stroke-width="5" stroke-linecap="round" stroke-linejoin="round" />
<path d="M256 118 q-4 10 5 12" fill="none" stroke="#965F43" stroke-width="4" stroke-linecap="round" stroke-linejoin="round" />
<ellipse cx="256" cy="147" rx="12" ry="16" fill="#5B2730" stroke="#162B45" stroke-width="5" />
<ellipse cx="230.2" cy="110" rx="19" ry="17" fill="none" stroke="#162B45" stroke-width="4" />
<ellipse cx="281.8" cy="110" rx="19" ry="17" fill="none" stroke="#162B45" stroke-width="4" />
<path d="M249.2 110 L262.8 110" fill="none" stroke="#162B45" stroke-width="4" stroke-linecap="round" stroke-linejoin="round" /></g>
<g id="face-thinking" data-semantic-layer="true" style="display:none"><ellipse cx="230.2" cy="110" rx="9" ry="11.0" fill="#FFF8EE" stroke="#162B45" stroke-width="4" />
<ellipse cx="234.2" cy="112" rx="4" ry="6.0" fill="#162B45" stroke="#162B45" stroke-width="0" />
<ellipse cx="281.8" cy="110" rx="9" ry="11.0" fill="#FFF8EE" stroke="#162B45" stroke-width="4" />
<ellipse cx="285.8" cy="112" rx="4" ry="6.0" fill="#162B45" stroke="#162B45" stroke-width="0" />
<path d="M216.2 95 L244.2 88" fill="none" stroke="#162B45" stroke-width="5" stroke-linecap="round" stroke-linejoin="round" />
<path d="M267.8 88 L295.8 88" fill="none" stroke="#162B45" stroke-width="5" stroke-linecap="round" stroke-linejoin="round" />
<path d="M256 118 q-4 10 5 12" fill="none" stroke="#965F43" stroke-width="4" stroke-linecap="round" stroke-linejoin="round" />
<path d="M238 147 Q259 143 278 150" fill="none" stroke="#162B45" stroke-width="5" stroke-linecap="round" stroke-linejoin="round" />
<ellipse cx="230.2" cy="110" rx="19" ry="17" fill="none" stroke="#162B45" stroke-width="4" />
<ellipse cx="281.8" cy="110" rx="19" ry="17" fill="none" stroke="#162B45" stroke-width="4" />
<path d="M249.2 110 L262.8 110" fill="none" stroke="#162B45" stroke-width="4" stroke-linecap="round" stroke-linejoin="round" /></g>
<g id="face-confident" data-semantic-layer="true" style="display:none"><ellipse cx="230.2" cy="110" rx="9" ry="6.82" fill="#FFF8EE" stroke="#162B45" stroke-width="4" />
<ellipse cx="231.2" cy="112" rx="4" ry="3.7199999999999998" fill="#162B45" stroke="#162B45" stroke-width="0" />
<ellipse cx="281.8" cy="110" rx="9" ry="6.82" fill="#FFF8EE" stroke="#162B45" stroke-width="4" />
<ellipse cx="282.8" cy="112" rx="4" ry="3.7199999999999998" fill="#162B45" stroke="#162B45" stroke-width="0" />
<path d="M216.2 95 Q230.2 89 244.2 95" fill="none" stroke="#162B45" stroke-width="5" stroke-linecap="round" stroke-linejoin="round" />
<path d="M267.8 95 Q281.8 89 295.8 95" fill="none" stroke="#162B45" stroke-width="5" stroke-linecap="round" stroke-linejoin="round" />
<path d="M256 118 q-4 10 5 12" fill="none" stroke="#965F43" stroke-width="4" stroke-linecap="round" stroke-linejoin="round" />
<path d="M232 144 Q261 166 285 139" fill="none" stroke="#162B45" stroke-width="6" stroke-linecap="round" stroke-linejoin="round" />
<ellipse cx="230.2" cy="110" rx="19" ry="17" fill="none" stroke="#162B45" stroke-width="4" />
<ellipse cx="281.8" cy="110" rx="19" ry="17" fill="none" stroke="#162B45" stroke-width="4" />
<path d="M249.2 110 L262.8 110" fill="none" stroke="#162B45" stroke-width="4" stroke-linecap="round" stroke-linejoin="round" /></g>
<g id="face-sorry" data-semantic-layer="true" style="display:none"><ellipse cx="230.2" cy="110" rx="9" ry="11.0" fill="#FFF8EE" stroke="#162B45" stroke-width="4" />
<ellipse cx="231.2" cy="112" rx="4" ry="6.0" fill="#162B45" stroke="#162B45" stroke-width="0" />
<ellipse cx="281.8" cy="110" rx="9" ry="11.0" fill="#FFF8EE" stroke="#162B45" stroke-width="4" />
<ellipse cx="282.8" cy="112" rx="4" ry="6.0" fill="#162B45" stroke="#162B45" stroke-width="0" />
<path d="M216.2 92 Q232.2 86 244.2 97" fill="none" stroke="#162B45" stroke-width="5" stroke-linecap="round" stroke-linejoin="round" />
<path d="M267.8 97 Q279.8 86 295.8 92" fill="none" stroke="#162B45" stroke-width="5" stroke-linecap="round" stroke-linejoin="round" />
<path d="M256 118 q-4 10 5 12" fill="none" stroke="#965F43" stroke-width="4" stroke-linecap="round" stroke-linejoin="round" />
<path d="M232 156 Q256 137 280 156" fill="none" stroke="#162B45" stroke-width="6" stroke-linecap="round" stroke-linejoin="round" />
<ellipse cx="230.2" cy="110" rx="19" ry="17" fill="none" stroke="#162B45" stroke-width="4" />
<ellipse cx="281.8" cy="110" rx="19" ry="17" fill="none" stroke="#162B45" stroke-width="4" />
<path d="M249.2 110 L262.8 110" fill="none" stroke="#162B45" stroke-width="4" stroke-linecap="round" stroke-linejoin="round" /></g>
<g id="face-excited" data-semantic-layer="true" style="display:none"><ellipse cx="230.2" cy="110" rx="9" ry="14.850000000000001" fill="#FFF8EE" stroke="#162B45" stroke-width="4" />
<ellipse cx="231.2" cy="112" rx="4" ry="8.100000000000001" fill="#162B45" stroke="#162B45" stroke-width="0" />
<ellipse cx="281.8" cy="110" rx="9" ry="14.850000000000001" fill="#FFF8EE" stroke="#162B45" stroke-width="4" />
<ellipse cx="282.8" cy="112" rx="4" ry="8.100000000000001" fill="#162B45" stroke="#162B45" stroke-width="0" />
<path d="M216.2 85 Q230.2 79 244.2 85" fill="none" stroke="#162B45" stroke-width="5" stroke-linecap="round" stroke-linejoin="round" />
<path d="M267.8 85 Q281.8 79 295.8 85" fill="none" stroke="#162B45" stroke-width="5" stroke-linecap="round" stroke-linejoin="round" />
<path d="M256 118 q-4 10 5 12" fill="none" stroke="#965F43" stroke-width="4" stroke-linecap="round" stroke-linejoin="round" />
<path d="M229 142 Q256 171 284 140" fill="none" stroke="#162B45" stroke-width="6" stroke-linecap="round" stroke-linejoin="round" />
<ellipse cx="230.2" cy="110" rx="19" ry="17" fill="none" stroke="#162B45" stroke-width="4" />
<ellipse cx="281.8" cy="110" rx="19" ry="17" fill="none" stroke="#162B45" stroke-width="4" />
<path d="M249.2 110 L262.8 110" fill="none" stroke="#162B45" stroke-width="4" stroke-linecap="round" stroke-linejoin="round" /></g>
<g id="arm-left-rest" data-semantic-layer="true" style="display:none"><polyline points="318,212 328.0,233.0 338,254" fill="none" stroke="#162B45" stroke-width="32" stroke-linecap="round" stroke-linejoin="round"/><polyline points="318,212 328.0,233.0 338,254" fill="none" stroke="#643A78" stroke-width="24" stroke-linecap="round" stroke-linejoin="round"/><polyline points="338,254 335,300" fill="none" stroke="#162B45" stroke-width="25" stroke-linecap="round" stroke-linejoin="round"/><polyline points="338,254 335,300" fill="none" stroke="#714027" stroke-width="18" stroke-linecap="round" stroke-linejoin="round"/><ellipse cx="335" cy="300" rx="11" ry="13" fill="#965F43" stroke="#162B45" stroke-width="5" /></g>
<g id="arm-right-rest" data-semantic-layer="true" style="display:none"><polyline points="194,212 184.0,233.0 174,254" fill="none" stroke="#162B45" stroke-width="32" stroke-linecap="round" stroke-linejoin="round"/><polyline points="194,212 184.0,233.0 174,254" fill="none" stroke="#643A78" stroke-width="24" stroke-linecap="round" stroke-linejoin="round"/><polyline points="174,254 177,300" fill="none" stroke="#162B45" stroke-width="25" stroke-linecap="round" stroke-linejoin="round"/><polyline points="174,254 177,300" fill="none" stroke="#714027" stroke-width="18" stroke-linecap="round" stroke-linejoin="round"/><ellipse cx="177" cy="300" rx="11" ry="13" fill="#965F43" stroke="#162B45" stroke-width="5" /></g>
<g id="arm-left-greeting" data-semantic-layer="true"><polyline points="318,212 329.0,232.0 340,252" fill="none" stroke="#162B45" stroke-width="32" stroke-linecap="round" stroke-linejoin="round"/><polyline points="318,212 329.0,232.0 340,252" fill="none" stroke="#643A78" stroke-width="24" stroke-linecap="round" stroke-linejoin="round"/><polyline points="340,252 335,300" fill="none" stroke="#162B45" stroke-width="25" stroke-linecap="round" stroke-linejoin="round"/><polyline points="340,252 335,300" fill="none" stroke="#714027" stroke-width="18" stroke-linecap="round" stroke-linejoin="round"/><ellipse cx="335" cy="300" rx="13" ry="15" fill="#965F43" stroke="#162B45" stroke-width="5" /><path d="M330.8 294 L321.2 273.8" fill="none" stroke="#714027" stroke-width="6" stroke-linecap="round" stroke-linejoin="round" /><path d="M333.6 294 L330.4 272.6" fill="none" stroke="#714027" stroke-width="6" stroke-linecap="round" stroke-linejoin="round" /><path d="M336.4 294 L339.6 272.6" fill="none" stroke="#714027" stroke-width="6" stroke-linecap="round" stroke-linejoin="round" /><path d="M339.2 294 L348.8 273.8" fill="none" stroke="#714027" stroke-width="6" stroke-linecap="round" stroke-linejoin="round" /></g>
<g id="arm-right-greeting" data-semantic-layer="true"><polyline points="194,212 176.0,196.0 158,180" fill="none" stroke="#162B45" stroke-width="32" stroke-linecap="round" stroke-linejoin="round"/><polyline points="194,212 176.0,196.0 158,180" fill="none" stroke="#643A78" stroke-width="24" stroke-linecap="round" stroke-linejoin="round"/><polyline points="158,180 146,122" fill="none" stroke="#162B45" stroke-width="25" stroke-linecap="round" stroke-linejoin="round"/><polyline points="158,180 146,122" fill="none" stroke="#714027" stroke-width="18" stroke-linecap="round" stroke-linejoin="round"/><ellipse cx="146" cy="122" rx="13" ry="15" fill="#965F43" stroke="#162B45" stroke-width="5" /><path d="M141.8 116 L132.2 95.8" fill="none" stroke="#714027" stroke-width="6" stroke-linecap="round" stroke-linejoin="round" /><path d="M144.6 116 L141.4 94.6" fill="none" stroke="#714027" stroke-width="6" stroke-linecap="round" stroke-linejoin="round" /><path d="M147.4 116 L150.6 94.6" fill="none" stroke="#714027" stroke-width="6" stroke-linecap="round" stroke-linejoin="round" /><path d="M150.2 116 L159.8 95.8" fill="none" stroke="#714027" stroke-width="6" stroke-linecap="round" stroke-linejoin="round" /></g>
<g id="arm-left-farewell" data-semantic-layer="true" style="display:none"><polyline points="318,212 336.0,196.0 354,180" fill="none" stroke="#162B45" stroke-width="32" stroke-linecap="round" stroke-linejoin="round"/><polyline points="318,212 336.0,196.0 354,180" fill="none" stroke="#643A78" stroke-width="24" stroke-linecap="round" stroke-linejoin="round"/><polyline points="354,180 366,122" fill="none" stroke="#162B45" stroke-width="25" stroke-linecap="round" stroke-linejoin="round"/><polyline points="354,180 366,122" fill="none" stroke="#714027" stroke-width="18" stroke-linecap="round" stroke-linejoin="round"/><ellipse cx="366" cy="122" rx="13" ry="15" fill="#965F43" stroke="#162B45" stroke-width="5" /><path d="M361.8 116 L352.2 95.8" fill="none" stroke="#714027" stroke-width="6" stroke-linecap="round" stroke-linejoin="round" /><path d="M364.6 116 L361.4 94.6" fill="none" stroke="#714027" stroke-width="6" stroke-linecap="round" stroke-linejoin="round" /><path d="M367.4 116 L370.6 94.6" fill="none" stroke="#714027" stroke-width="6" stroke-linecap="round" stroke-linejoin="round" /><path d="M370.2 116 L379.8 95.8" fill="none" stroke="#714027" stroke-width="6" stroke-linecap="round" stroke-linejoin="round" /></g>
<g id="arm-right-farewell" data-semantic-layer="true" style="display:none"><polyline points="194,212 184.0,233.0 174,254" fill="none" stroke="#162B45" stroke-width="32" stroke-linecap="round" stroke-linejoin="round"/><polyline points="194,212 184.0,233.0 174,254" fill="none" stroke="#643A78" stroke-width="24" stroke-linecap="round" stroke-linejoin="round"/><polyline points="174,254 177,300" fill="none" stroke="#162B45" stroke-width="25" stroke-linecap="round" stroke-linejoin="round"/><polyline points="174,254 177,300" fill="none" stroke="#714027" stroke-width="18" stroke-linecap="round" stroke-linejoin="round"/><ellipse cx="177" cy="300" rx="13" ry="15" fill="#965F43" stroke="#162B45" stroke-width="5" /><path d="M172.8 294 L163.2 273.8" fill="none" stroke="#714027" stroke-width="6" stroke-linecap="round" stroke-linejoin="round" /><path d="M175.6 294 L172.4 272.6" fill="none" stroke="#714027" stroke-width="6" stroke-linecap="round" stroke-linejoin="round" /><path d="M178.4 294 L181.6 272.6" fill="none" stroke="#714027" stroke-width="6" stroke-linecap="round" stroke-linejoin="round" /><path d="M181.2 294 L190.8 273.8" fill="none" stroke="#714027" stroke-width="6" stroke-linecap="round" stroke-linejoin="round" /></g>
<g id="arm-left-agreement" data-semantic-layer="true" style="display:none"><polyline points="318,212 328.0,229.5 338,247" fill="none" stroke="#162B45" stroke-width="32" stroke-linecap="round" stroke-linejoin="round"/><polyline points="318,212 328.0,229.5 338,247" fill="none" stroke="#643A78" stroke-width="24" stroke-linecap="round" stroke-linejoin="round"/><polyline points="338,247 301,222" fill="none" stroke="#162B45" stroke-width="25" stroke-linecap="round" stroke-linejoin="round"/><polyline points="338,247 301,222" fill="none" stroke="#714027" stroke-width="18" stroke-linecap="round" stroke-linejoin="round"/><ellipse cx="301" cy="222" rx="11" ry="13" fill="#965F43" stroke="#162B45" stroke-width="5" /></g>
<g id="arm-right-agreement" data-semantic-layer="true" style="display:none"><polyline points="194,212 184.0,229.5 174,247" fill="none" stroke="#162B45" stroke-width="32" stroke-linecap="round" stroke-linejoin="round"/><polyline points="194,212 184.0,229.5 174,247" fill="none" stroke="#643A78" stroke-width="24" stroke-linecap="round" stroke-linejoin="round"/><polyline points="174,247 211,222" fill="none" stroke="#162B45" stroke-width="25" stroke-linecap="round" stroke-linejoin="round"/><polyline points="174,247 211,222" fill="none" stroke="#714027" stroke-width="18" stroke-linecap="round" stroke-linejoin="round"/><ellipse cx="211" cy="222" rx="11" ry="13" fill="#965F43" stroke="#162B45" stroke-width="5" /></g>
<g id="arm-left-disagreement" data-semantic-layer="true" style="display:none"><polyline points="318,212 326.0,234.5 334,257" fill="none" stroke="#162B45" stroke-width="32" stroke-linecap="round" stroke-linejoin="round"/><polyline points="318,212 326.0,234.5 334,257" fill="none" stroke="#643A78" stroke-width="24" stroke-linecap="round" stroke-linejoin="round"/><polyline points="334,257 218,285" fill="none" stroke="#162B45" stroke-width="25" stroke-linecap="round" stroke-linejoin="round"/><polyline points="334,257 218,285" fill="none" stroke="#714027" stroke-width="18" stroke-linecap="round" stroke-linejoin="round"/><ellipse cx="218" cy="285" rx="11" ry="13" fill="#965F43" stroke="#162B45" stroke-width="5" /></g>
<g id="arm-right-disagreement" data-semantic-layer="true" style="display:none"><polyline points="194,212 186.0,234.5 178,257" fill="none" stroke="#162B45" stroke-width="32" stroke-linecap="round" stroke-linejoin="round"/><polyline points="194,212 186.0,234.5 178,257" fill="none" stroke="#643A78" stroke-width="24" stroke-linecap="round" stroke-linejoin="round"/><polyline points="178,257 294,285" fill="none" stroke="#162B45" stroke-width="25" stroke-linecap="round" stroke-linejoin="round"/><polyline points="178,257 294,285" fill="none" stroke="#714027" stroke-width="18" stroke-linecap="round" stroke-linejoin="round"/><ellipse cx="294" cy="285" rx="11" ry="13" fill="#965F43" stroke="#162B45" stroke-width="5" /></g>
<g id="arm-left-gratitude" data-semantic-layer="true" style="display:none"><polyline points="318,212 327.0,235.5 336,259" fill="none" stroke="#162B45" stroke-width="32" stroke-linecap="round" stroke-linejoin="round"/><polyline points="318,212 327.0,235.5 336,259" fill="none" stroke="#643A78" stroke-width="24" stroke-linecap="round" stroke-linejoin="round"/><polyline points="336,259 266,274" fill="none" stroke="#162B45" stroke-width="25" stroke-linecap="round" stroke-linejoin="round"/><polyline points="336,259 266,274" fill="none" stroke="#714027" stroke-width="18" stroke-linecap="round" stroke-linejoin="round"/><ellipse cx="266" cy="274" rx="11" ry="13" fill="#965F43" stroke="#162B45" stroke-width="5" /></g>
<g id="arm-right-gratitude" data-semantic-layer="true" style="display:none"><polyline points="194,212 185.0,235.5 176,259" fill="none" stroke="#162B45" stroke-width="32" stroke-linecap="round" stroke-linejoin="round"/><polyline points="194,212 185.0,235.5 176,259" fill="none" stroke="#643A78" stroke-width="24" stroke-linecap="round" stroke-linejoin="round"/><polyline points="176,259 246,274" fill="none" stroke="#162B45" stroke-width="25" stroke-linecap="round" stroke-linejoin="round"/><polyline points="176,259 246,274" fill="none" stroke="#714027" stroke-width="18" stroke-linecap="round" stroke-linejoin="round"/><ellipse cx="246" cy="274" rx="11" ry="13" fill="#965F43" stroke="#162B45" stroke-width="5" /></g>
<g id="arm-left-concern" data-semantic-layer="true" style="display:none"><polyline points="318,212 330.0,223.0 342,234" fill="none" stroke="#162B45" stroke-width="32" stroke-linecap="round" stroke-linejoin="round"/><polyline points="318,212 330.0,223.0 342,234" fill="none" stroke="#643A78" stroke-width="24" stroke-linecap="round" stroke-linejoin="round"/><polyline points="342,234 294,149" fill="none" stroke="#162B45" stroke-width="25" stroke-linecap="round" stroke-linejoin="round"/><polyline points="342,234 294,149" fill="none" stroke="#714027" stroke-width="18" stroke-linecap="round" stroke-linejoin="round"/><ellipse cx="294" cy="149" rx="11" ry="13" fill="#965F43" stroke="#162B45" stroke-width="5" /></g>
<g id="arm-right-concern" data-semantic-layer="true" style="display:none"><polyline points="194,212 182.0,223.0 170,234" fill="none" stroke="#162B45" stroke-width="32" stroke-linecap="round" stroke-linejoin="round"/><polyline points="194,212 182.0,223.0 170,234" fill="none" stroke="#643A78" stroke-width="24" stroke-linecap="round" stroke-linejoin="round"/><polyline points="170,234 218,149" fill="none" stroke="#162B45" stroke-width="25" stroke-linecap="round" stroke-linejoin="round"/><polyline points="170,234 218,149" fill="none" stroke="#714027" stroke-width="18" stroke-linecap="round" stroke-linejoin="round"/><ellipse cx="218" cy="149" rx="11" ry="13" fill="#965F43" stroke="#162B45" stroke-width="5" /></g>
<g id="arm-left-surprise" data-semantic-layer="true" style="display:none"><polyline points="318,212 332.0,216.0 346,220" fill="none" stroke="#162B45" stroke-width="32" stroke-linecap="round" stroke-linejoin="round"/><polyline points="318,212 332.0,216.0 346,220" fill="none" stroke="#643A78" stroke-width="24" stroke-linecap="round" stroke-linejoin="round"/><polyline points="346,220 314,136" fill="none" stroke="#162B45" stroke-width="25" stroke-linecap="round" stroke-linejoin="round"/><polyline points="346,220 314,136" fill="none" stroke="#714027" stroke-width="18" stroke-linecap="round" stroke-linejoin="round"/><ellipse cx="314" cy="136" rx="13" ry="15" fill="#965F43" stroke="#162B45" stroke-width="5" /><path d="M309.8 130 L300.2 109.8" fill="none" stroke="#714027" stroke-width="6" stroke-linecap="round" stroke-linejoin="round" /><path d="M312.6 130 L309.4 108.6" fill="none" stroke="#714027" stroke-width="6" stroke-linecap="round" stroke-linejoin="round" /><path d="M315.4 130 L318.6 108.6" fill="none" stroke="#714027" stroke-width="6" stroke-linecap="round" stroke-linejoin="round" /><path d="M318.2 130 L327.8 109.8" fill="none" stroke="#714027" stroke-width="6" stroke-linecap="round" stroke-linejoin="round" /></g>
<g id="arm-right-surprise" data-semantic-layer="true" style="display:none"><polyline points="194,212 180.0,216.0 166,220" fill="none" stroke="#162B45" stroke-width="32" stroke-linecap="round" stroke-linejoin="round"/><polyline points="194,212 180.0,216.0 166,220" fill="none" stroke="#643A78" stroke-width="24" stroke-linecap="round" stroke-linejoin="round"/><polyline points="166,220 198,136" fill="none" stroke="#162B45" stroke-width="25" stroke-linecap="round" stroke-linejoin="round"/><polyline points="166,220 198,136" fill="none" stroke="#714027" stroke-width="18" stroke-linecap="round" stroke-linejoin="round"/><ellipse cx="198" cy="136" rx="13" ry="15" fill="#965F43" stroke="#162B45" stroke-width="5" /><path d="M193.8 130 L184.2 109.8" fill="none" stroke="#714027" stroke-width="6" stroke-linecap="round" stroke-linejoin="round" /><path d="M196.6 130 L193.4 108.6" fill="none" stroke="#714027" stroke-width="6" stroke-linecap="round" stroke-linejoin="round" /><path d="M199.4 130 L202.6 108.6" fill="none" stroke="#714027" stroke-width="6" stroke-linecap="round" stroke-linejoin="round" /><path d="M202.2 130 L211.8 109.8" fill="none" stroke="#714027" stroke-width="6" stroke-linecap="round" stroke-linejoin="round" /></g>
<g id="arm-left-celebration" data-semantic-layer="true" style="display:none"><polyline points="318,212 335.0,191.0 352,170" fill="none" stroke="#162B45" stroke-width="32" stroke-linecap="round" stroke-linejoin="round"/><polyline points="318,212 335.0,191.0 352,170" fill="none" stroke="#643A78" stroke-width="24" stroke-linecap="round" stroke-linejoin="round"/><polyline points="352,170 370,108" fill="none" stroke="#162B45" stroke-width="25" stroke-linecap="round" stroke-linejoin="round"/><polyline points="352,170 370,108" fill="none" stroke="#714027" stroke-width="18" stroke-linecap="round" stroke-linejoin="round"/><ellipse cx="370" cy="108" rx="13" ry="15" fill="#965F43" stroke="#162B45" stroke-width="5" /><path d="M365.8 102 L356.2 81.8" fill="none" stroke="#714027" stroke-width="6" stroke-linecap="round" stroke-linejoin="round" /><path d="M368.6 102 L365.4 80.6" fill="none" stroke="#714027" stroke-width="6" stroke-linecap="round" stroke-linejoin="round" /><path d="M371.4 102 L374.6 80.6" fill="none" stroke="#714027" stroke-width="6" stroke-linecap="round" stroke-linejoin="round" /><path d="M374.2 102 L383.8 81.8" fill="none" stroke="#714027" stroke-width="6" stroke-linecap="round" stroke-linejoin="round" /></g>
<g id="arm-right-celebration" data-semantic-layer="true" style="display:none"><polyline points="194,212 177.0,191.0 160,170" fill="none" stroke="#162B45" stroke-width="32" stroke-linecap="round" stroke-linejoin="round"/><polyline points="194,212 177.0,191.0 160,170" fill="none" stroke="#643A78" stroke-width="24" stroke-linecap="round" stroke-linejoin="round"/><polyline points="160,170 142,108" fill="none" stroke="#162B45" stroke-width="25" stroke-linecap="round" stroke-linejoin="round"/><polyline points="160,170 142,108" fill="none" stroke="#714027" stroke-width="18" stroke-linecap="round" stroke-linejoin="round"/><ellipse cx="142" cy="108" rx="13" ry="15" fill="#965F43" stroke="#162B45" stroke-width="5" /><path d="M137.8 102 L128.2 81.8" fill="none" stroke="#714027" stroke-width="6" stroke-linecap="round" stroke-linejoin="round" /><path d="M140.6 102 L137.4 80.6" fill="none" stroke="#714027" stroke-width="6" stroke-linecap="round" stroke-linejoin="round" /><path d="M143.4 102 L146.6 80.6" fill="none" stroke="#714027" stroke-width="6" stroke-linecap="round" stroke-linejoin="round" /><path d="M146.2 102 L155.8 81.8" fill="none" stroke="#714027" stroke-width="6" stroke-linecap="round" stroke-linejoin="round" /></g>
<g id="device-rollator-frame" data-semantic-layer="true"><path d="M168 300 L185 449 M344 300 L327 449 M168 300 L344 300" fill="none" stroke="#5A3470" stroke-width="10" stroke-linecap="round" stroke-linejoin="round" /><path d="M183 355 L329 355" fill="none" stroke="#8D59A3" stroke-width="7" stroke-linecap="round" stroke-linejoin="round" /><rect x="177" y="347" width="158" height="55" rx="12" fill="#252D34" stroke="#162B45" stroke-width="6" /><path d="M181 402 L168 451 M331 402 L344 451" fill="none" stroke="#5A3470" stroke-width="10" stroke-linecap="round" stroke-linejoin="round" /></g>
<g id="device-rollator-handle-left" data-semantic-layer="true"><rect x="309" y="288" width="52" height="18" rx="9" fill="#242A31" stroke="#162B45" stroke-width="5" /></g>
<g id="device-rollator-handle-right" data-semantic-layer="true"><rect x="151" y="288" width="52" height="18" rx="9" fill="#242A31" stroke="#162B45" stroke-width="5" /></g>
<g id="device-rollator-wheel-rear-left" data-semantic-layer="true"><ellipse cx="319" cy="438" rx="12" ry="12" fill="#414850" stroke="#162B45" stroke-width="4" /><path d="M319 438 L319 430" fill="none" stroke="#F2A13A" stroke-width="3" stroke-linecap="round" stroke-linejoin="round" /></g>
<g id="device-rollator-wheel-rear-right" data-semantic-layer="true"><ellipse cx="193" cy="438" rx="12" ry="12" fill="#414850" stroke="#162B45" stroke-width="4" /><path d="M193 438 L193 430" fill="none" stroke="#F2A13A" stroke-width="3" stroke-linecap="round" stroke-linejoin="round" /></g>
<g id="device-rollator-wheel-front-left" data-semantic-layer="true"><ellipse cx="347" cy="451" rx="18" ry="18" fill="#252A30" stroke="#162B45" stroke-width="5" /><path d="M347 451 L347 437" fill="none" stroke="#F2A13A" stroke-width="4" stroke-linecap="round" stroke-linejoin="round" /></g>
<g id="device-rollator-wheel-front-right" data-semantic-layer="true"><ellipse cx="165" cy="451" rx="18" ry="18" fill="#252A30" stroke="#162B45" stroke-width="5" /><path d="M165 451 L165 437" fill="none" stroke="#F2A13A" stroke-width="4" stroke-linecap="round" stroke-linejoin="round" /></g>
</svg>
