<svg xmlns="http://www.w3.org/2000/svg" width="512" height="512" viewBox="0 0 512 512">
<defs><linearGradient id="softShade" x1="0" y1="0" x2="1" y2="1"><stop offset="0" stop-color="#FFFFFF" stop-opacity=".24"/><stop offset="1" stop-color="#10243A" stop-opacity=".14"/></linearGradient></defs>
<ellipse cx="256" cy="472" rx="105" ry="14" fill="#AAB2BD" stroke="none" stroke-width="0" opacity=".65"/><path d="M203 77 Q193 52 222 28 Q259 8 314 69 L307 98 Q276 66 203 77 Z" fill="#873E2B" stroke="#162B45" stroke-width="6" stroke-linecap="round" stroke-linejoin="round" /><rect x="274" y="301" width="29" height="146" rx="11.02" fill="#273D52" stroke="#162B45" stroke-width="6" /><rect x="271" y="437" width="53" height="28" rx="13" fill="#E6E0D5" stroke="#162B45" stroke-width="6" /><rect x="209" y="301" width="29" height="146" rx="11.02" fill="#273D52" stroke="#162B45" stroke-width="6" /><rect x="197" y="437" width="53" height="28" rx="13" fill="#E6E0D5" stroke="#162B45" stroke-width="6" /><rect x="207" y="170" width="98" height="139" rx="30" fill="#537A52" stroke="#162B45" stroke-width="7" /><path d="M225 188 Q256.0 213 287 188" fill="none" stroke="#E5B84A" stroke-width="8" stroke-linecap="round" stroke-linejoin="round" /><path d="M224.64 188 Q256.0 178 287.36 188" fill="none" stroke="#4D8EBA" stroke-width="5" stroke-linecap="round" stroke-linejoin="round" /><path d="M256.0 177 L256.0 301" fill="none" stroke="#E5B84A" stroke-width="6" stroke-linecap="round" stroke-linejoin="round" /><path d="M224.64 188 L248.16 228 M287.36 188 L263.84 228" fill="none" stroke="#4D8EBA" stroke-width="7" stroke-linecap="round" stroke-linejoin="round" /><ellipse cx="204.3" cy="109" rx="12" ry="20" fill="#E2B192" stroke="#162B45" stroke-width="5" />
<ellipse cx="307.7" cy="109" rx="12" ry="20" fill="#E2B192" stroke="#162B45" stroke-width="5" />
<ellipse cx="256" cy="104" rx="55" ry="61" fill="#E2B192" stroke="#162B45" stroke-width="7" />
<path d="M216.4 74.72 Q242.25 56.42 290.1 72.28" fill="none" stroke="#F0C9AF" stroke-width="5" stroke-linecap="round" stroke-linejoin="round" opacity=".45"/><path d="M206 74 Q231 17 314 66 Q269 39 236 41 Q211 51 206 74 Z" fill="#873E2B" stroke="#162B45" stroke-width="6" stroke-linecap="round" stroke-linejoin="round" /><path d="M226 50 Q258 37 291 61" fill="none" stroke="#C56A49" stroke-width="5" stroke-linecap="round" stroke-linejoin="round" /><rect x="185" y="327" width="16" height="34" rx="8" fill="#263451" stroke="#162B45" stroke-width="4" /><path d="M193 354 L259 450" fill="none" stroke="#162B45" stroke-width="15" stroke-linecap="round" stroke-linejoin="round" /><path d="M193 354 L259 450" fill="none" stroke="#F6F4EA" stroke-width="9" stroke-linecap="round" stroke-linejoin="round" /><path d="M243 415 L259 450" fill="none" stroke="#162B45" stroke-width="15" stroke-linecap="round" stroke-linejoin="round" /><path d="M243 415 L259 450" fill="none" stroke="#E85D68" stroke-width="9" stroke-linecap="round" stroke-linejoin="round" /><ellipse cx="259" cy="463" rx="10" ry="7" fill="#303944" stroke="#162B45" stroke-width="4" /><path d="M218.35 90 Q232.35 83 246.35 90" fill="none" stroke="#162B45" stroke-width="5" stroke-linecap="round" stroke-linejoin="round" />
<path d="M265.65 90 Q279.65 83 293.65 90" fill="none" stroke="#162B45" stroke-width="5" stroke-linecap="round" stroke-linejoin="round" />
<ellipse cx="232.35" cy="108" rx="9" ry="11" fill="#FFF8EE" stroke="#162B45" stroke-width="4" />
<ellipse cx="279.65" cy="108" rx="9" ry="11" fill="#FFF8EE" stroke="#162B45" stroke-width="4" />
<ellipse cx="233.35" cy="110" rx="4" ry="6" fill="#162B45" stroke="#162B45" stroke-width="0" />
<ellipse cx="280.65" cy="110" rx="4" ry="6" fill="#162B45" stroke="#162B45" stroke-width="0" />
<path d="M256 116 q-4 10 4 12" fill="none" stroke="#F0C9AF" stroke-width="4" stroke-linecap="round" stroke-linejoin="round" />
<ellipse cx="224.1" cy="128" rx="10" ry="6" fill="#E58A78" stroke="none" stroke-width="0" opacity=".45"/>
<ellipse cx="287.9" cy="128" rx="10" ry="6" fill="#E58A78" stroke="none" stroke-width="0" opacity=".45"/>
<path d="M231 139 Q256 159 283 135" fill="none" stroke="#162B45" stroke-width="6" stroke-linecap="round" stroke-linejoin="round" />
<path d="M241 143 Q256 152 272 140" fill="none" stroke="#FFFFFF" stroke-width="3" stroke-linecap="round" stroke-linejoin="round" /><polyline points="297,204 311.0,239.0 325,274" fill="none" stroke="#162B45" stroke-width="32" stroke-linecap="round" stroke-linejoin="round"/><polyline points="297,204 311.0,239.0 325,274" fill="none" stroke="#537A52" stroke-width="24" stroke-linecap="round" stroke-linejoin="round"/><polyline points="325,274 319,324" fill="none" stroke="#162B45" stroke-width="25" stroke-linecap="round" stroke-linejoin="round"/><polyline points="325,274 319,324" fill="none" stroke="#E2B192" stroke-width="18" stroke-linecap="round" stroke-linejoin="round"/><ellipse cx="319" cy="324" rx="11" ry="13" fill="#F0C9AF" stroke="#162B45" stroke-width="5" /><polyline points="215,204 201.0,239.0 187,274" fill="none" stroke="#162B45" stroke-width="32" stroke-linecap="round" stroke-linejoin="round"/><polyline points="215,204 201.0,239.0 187,274" fill="none" stroke="#537A52" stroke-width="24" stroke-linecap="round" stroke-linejoin="round"/><polyline points="187,274 193,324" fill="none" stroke="#162B45" stroke-width="25" stroke-linecap="round" stroke-linejoin="round"/><polyline points="187,274 193,324" fill="none" stroke="#E2B192" stroke-width="18" stroke-linecap="round" stroke-linejoin="round"/><ellipse cx="193" cy="324" rx="11" ry="13" fill="#F0C9AF" stroke="#162B45" stroke-width="5" />
</svg>
