<svg xmlns="http://www.w3.org/2000/svg" width="512" height="512" viewBox="0 0 512 512">
<defs><linearGradient id="softShade" x1="0" y1="0" x2="1" y2="1"><stop offset="0" stop-color="#FFFFFF" stop-opacity=".24"/><stop offset="1" stop-color="#10243A" stop-opacity=".14"/></linearGradient></defs>
<ellipse cx="256" cy="472" rx="105" ry="14" fill="#AAB2BD" stroke="none" stroke-width="0" opacity=".65"/><rect x="236" y="302" width="34" height="161" rx="14" fill="#273D52" stroke="#162B45" stroke-width="6" /><rect x="230" y="443" width="61" height="27" rx="13" fill="#E6E0D5" stroke="#162B45" stroke-width="6" /><rect x="229.0" y="170" width="58" height="139" rx="25" fill="#537A52" stroke="#162B45" stroke-width="7" /><path d="M240.6 190 L275.4 190" fill="none" stroke="#E5B84A" stroke-width="7" stroke-linecap="round" stroke-linejoin="round" /><path d="M258 205 Q293 265 278 320" fill="none" stroke="#E2B192" stroke-width="20" stroke-linecap="round" stroke-linejoin="round" /><rect x="271" y="305" width="14" height="30" rx="7" fill="#263451" stroke="#162B45" stroke-width="4" /><path d="M278 329 L327 452" fill="none" stroke="#F6F4EA" stroke-width="10" stroke-linecap="round" stroke-linejoin="round" /><path d="M315 422 L327 452" fill="none" stroke="#E85D68" stroke-width="10" stroke-linecap="round" stroke-linejoin="round" /><ellipse cx="327" cy="464" rx="9" ry="6" fill="#303944" stroke="#162B45" stroke-width="4" /><ellipse cx="258" cy="104" rx="31.9" ry="61" fill="#E2B192" stroke="#162B45" stroke-width="7" /><path d="M231.6 82 Q244.25 18 282.2 69 Q271.2 41 231.6 82 Z" fill="#873E2B" stroke="#162B45" stroke-width="6" stroke-linecap="round" stroke-linejoin="round" /><path d="M250 50 Q276 51 276.7 65" fill="none" stroke="#C56A49" stroke-width="4" stroke-linecap="round" stroke-linejoin="round" /><ellipse cx="269.0" cy="106" rx="9" ry="12" fill="#FFF8EE" stroke="#162B45" stroke-width="4" /><ellipse cx="271.2" cy="108" rx="4" ry="6" fill="#162B45" stroke="#162B45" stroke-width="0" /><path d="M285.5 112 q12 8 0 16" fill="none" stroke="#F0C9AF" stroke-width="5" stroke-linecap="round" stroke-linejoin="round" /><path d="M260 141 Q276 152 289 138" fill="none" stroke="#162B45" stroke-width="5" stroke-linecap="round" stroke-linejoin="round" />
</svg>
