<svg xmlns="http://www.w3.org/2000/svg" width="512" height="512" viewBox="0 0 512 512">
<defs><linearGradient id="softShade" x1="0" y1="0" x2="1" y2="1"><stop offset="0" stop-color="#FFFFFF" stop-opacity=".24"/><stop offset="1" stop-color="#10243A" stop-opacity=".14"/></linearGradient></defs>
<path d="M214.91 91 Q228.91 84 242.91 91" fill="none" stroke="#162B45" stroke-width="5" stroke-linecap="round" stroke-linejoin="round" />
<path d="M269.09 91 Q283.09 84 297.09 91" fill="none" stroke="#162B45" stroke-width="5" stroke-linecap="round" stroke-linejoin="round" />
<ellipse cx="228.91" cy="109" rx="11" ry="12" fill="#FFF8EE" stroke="#162B45" stroke-width="4" />
<ellipse cx="283.09" cy="109" rx="11" ry="12" fill="#FFF8EE" stroke="#162B45" stroke-width="4" />
<ellipse cx="229.91" cy="111" rx="4" ry="6" fill="#162B45" stroke="#162B45" stroke-width="0" />
<ellipse cx="284.09" cy="111" rx="4" ry="6" fill="#162B45" stroke="#162B45" stroke-width="0" />
<path d="M256 117 q-4 10 4 12" fill="none" stroke="#B4765C" stroke-width="4" stroke-linecap="round" stroke-linejoin="round" />
<ellipse cx="219.46" cy="129" rx="10" ry="6" fill="#E58A78" stroke="none" stroke-width="0" opacity=".45"/>
<ellipse cx="292.54" cy="129" rx="10" ry="6" fill="#E58A78" stroke="none" stroke-width="0" opacity=".45"/>
<path d="M231 140 Q256 160 283 136" fill="none" stroke="#162B45" stroke-width="6" stroke-linecap="round" stroke-linejoin="round" />
<path d="M241 144 Q256 153 272 141" fill="none" stroke="#FFFFFF" stroke-width="3" stroke-linecap="round" stroke-linejoin="round" />
</svg>
