<svg xmlns="http://www.w3.org/2000/svg" width="512" height="512" viewBox="0 0 512 512">
<defs><linearGradient id="softShade" x1="0" y1="0" x2="1" y2="1"><stop offset="0" stop-color="#FFFFFF" stop-opacity=".24"/><stop offset="1" stop-color="#10243A" stop-opacity=".14"/></linearGradient></defs>
<g id="shadow" data-semantic-layer="true"><ellipse cx="256" cy="470" rx="105" ry="14" fill="#AAB2BD" stroke="none" stroke-width="0" opacity=".65"/></g>
<g id="hair-back" data-semantic-layer="true"><path d="M185 71 Q171 181 208 227 L304 227 Q341 181 327 71 Z" fill="#251817" stroke="#162B45" stroke-width="7" stroke-linecap="round" stroke-linejoin="round" /></g>
<g id="leg-left" data-semantic-layer="true"><rect x="273" y="301" width="29" height="144" rx="11.02" fill="#2D3043" stroke="#162B45" stroke-width="6" /><rect x="270" y="435" width="53" height="28" rx="13" fill="#7858A8" stroke="#162B45" stroke-width="6" /></g>
<g id="leg-right" data-semantic-layer="true"><rect x="210" y="301" width="29" height="144" rx="11.02" fill="#2D3043" stroke="#162B45" stroke-width="6" /><rect x="198" y="435" width="53" height="28" rx="13" fill="#7858A8" stroke="#162B45" stroke-width="6" /></g>
<g id="torso" data-semantic-layer="true"><rect x="204" y="183" width="104" height="126" rx="30" fill="#7654A8" stroke="#162B45" stroke-width="7" /><path d="M222 201 Q256.0 226 290 201" fill="none" stroke="#E2A4D2" stroke-width="8" stroke-linecap="round" stroke-linejoin="round" /><path d="M222.72 201 Q256.0 191 289.28 201" fill="none" stroke="#F2A33A" stroke-width="5" stroke-linecap="round" stroke-linejoin="round" /><path d="M256.0 190 L256.0 301" fill="none" stroke="#E2A4D2" stroke-width="6" stroke-linecap="round" stroke-linejoin="round" /><path d="M222.72 201 L247.68 241 M289.28 201 L264.32 241" fill="none" stroke="#F2A33A" stroke-width="7" stroke-linecap="round" stroke-linejoin="round" /></g>
<g id="head" data-semantic-layer="true"><ellipse cx="201.48000000000002" cy="116" rx="12" ry="20" fill="#A9653E" stroke="#162B45" stroke-width="5" />
<ellipse cx="310.52" cy="116" rx="12" ry="20" fill="#A9653E" stroke="#162B45" stroke-width="5" />
<ellipse cx="256" cy="111" rx="58" ry="64" fill="#A9653E" stroke="#162B45" stroke-width="7" />
<path d="M214.24 80.28 Q241.5 61.08 291.96 77.72" fill="none" stroke="#CE8B61" stroke-width="5" stroke-linecap="round" stroke-linejoin="round" opacity=".45"/></g>
<g id="hair-front" data-semantic-layer="true"><path d="M201 75 Q236 23 316 80 Q281 56 247 51 Q217 56 201 75 Z" fill="#251817" stroke="#162B45" stroke-width="6" stroke-linecap="round" stroke-linejoin="round" /><path d="M218 74 Q201 127 213 176" fill="none" stroke="#684034" stroke-width="6" stroke-linecap="round" stroke-linejoin="round" /><path d="M294 75 Q310 127 298 177" fill="none" stroke="#684034" stroke-width="6" stroke-linecap="round" stroke-linejoin="round" /></g>
<g id="face-friendly" data-semantic-layer="true"><path d="M217.06 97 Q231.06 90 245.06 97" fill="none" stroke="#162B45" stroke-width="5" stroke-linecap="round" stroke-linejoin="round" />
<path d="M266.94 97 Q280.94 90 294.94 97" fill="none" stroke="#162B45" stroke-width="5" stroke-linecap="round" stroke-linejoin="round" />
<ellipse cx="231.06" cy="115" rx="10" ry="12" fill="#FFF8EE" stroke="#162B45" stroke-width="4" />
<ellipse cx="280.94" cy="115" rx="10" ry="12" fill="#FFF8EE" stroke="#162B45" stroke-width="4" />
<ellipse cx="232.06" cy="117" rx="4" ry="6" fill="#162B45" stroke="#162B45" stroke-width="0" />
<ellipse cx="281.94" cy="117" rx="4" ry="6" fill="#162B45" stroke="#162B45" stroke-width="0" />
<path d="M256 123 q-4 10 4 12" fill="none" stroke="#CE8B61" stroke-width="4" stroke-linecap="round" stroke-linejoin="round" />
<ellipse cx="222.36" cy="135" rx="10" ry="6" fill="#E58A78" stroke="none" stroke-width="0" opacity=".45"/>
<ellipse cx="289.64" cy="135" rx="10" ry="6" fill="#E58A78" stroke="none" stroke-width="0" opacity=".45"/>
<path d="M231 146 Q256 166 283 142" fill="none" stroke="#162B45" stroke-width="6" stroke-linecap="round" stroke-linejoin="round" />
<path d="M241 150 Q256 159 272 147" fill="none" stroke="#FFFFFF" stroke-width="3" stroke-linecap="round" stroke-linejoin="round" /></g>
<g id="face-laughing" data-semantic-layer="true" style="display:none"><path d="M221.06 115 Q231.06 124.0 241.06 115" fill="none" stroke="#162B45" stroke-width="5" stroke-linecap="round" stroke-linejoin="round" />
<path d="M270.94 115 Q280.94 124.0 290.94 115" fill="none" stroke="#162B45" stroke-width="5" stroke-linecap="round" stroke-linejoin="round" />
<path d="M217.06 95 Q231.06 89 245.06 95" fill="none" stroke="#162B45" stroke-width="5" stroke-linecap="round" stroke-linejoin="round" />
<path d="M266.94 95 Q280.94 89 294.94 95" fill="none" stroke="#162B45" stroke-width="5" stroke-linecap="round" stroke-linejoin="round" />
<path d="M256 123 q-4 10 5 12" fill="none" stroke="#CE8B61" stroke-width="4" stroke-linecap="round" stroke-linejoin="round" />
<path d="M228 145 Q256 186 285 144 Z" fill="#5B2730" stroke="#162B45" stroke-width="5" stroke-linecap="round" stroke-linejoin="round" />
<path d="M241 165 Q256 174 272 164" fill="none" stroke="#E98A86" stroke-width="5" stroke-linecap="round" stroke-linejoin="round" /></g>
<g id="face-surprised" data-semantic-layer="true" style="display:none"><ellipse cx="231.06" cy="115" rx="10" ry="16.200000000000003" fill="#FFF8EE" stroke="#162B45" stroke-width="4" />
<ellipse cx="232.06" cy="117" rx="4" ry="8.100000000000001" fill="#162B45" stroke="#162B45" stroke-width="0" />
<ellipse cx="280.94" cy="115" rx="10" ry="16.200000000000003" fill="#FFF8EE" stroke="#162B45" stroke-width="4" />
<ellipse cx="281.94" cy="117" rx="4" ry="8.100000000000001" fill="#162B45" stroke="#162B45" stroke-width="0" />
<path d="M217.06 86 Q231.06 80 245.06 86" fill="none" stroke="#162B45" stroke-width="5" stroke-linecap="round" stroke-linejoin="round" />
<path d="M266.94 86 Q280.94 80 294.94 86" fill="none" stroke="#162B45" stroke-width="5" stroke-linecap="round" stroke-linejoin="round" />
<path d="M256 123 q-4 10 5 12" fill="none" stroke="#CE8B61" stroke-width="4" stroke-linecap="round" stroke-linejoin="round" />
<ellipse cx="256" cy="152" rx="12" ry="16" fill="#5B2730" stroke="#162B45" stroke-width="5" /></g>
<g id="face-thinking" data-semantic-layer="true" style="display:none"><ellipse cx="231.06" cy="115" rx="10" ry="12.0" fill="#FFF8EE" stroke="#162B45" stroke-width="4" />
<ellipse cx="235.06" cy="117" rx="4" ry="6.0" fill="#162B45" stroke="#162B45" stroke-width="0" />
<ellipse cx="280.94" cy="115" rx="10" ry="12.0" fill="#FFF8EE" stroke="#162B45" stroke-width="4" />
<ellipse cx="284.94" cy="117" rx="4" ry="6.0" fill="#162B45" stroke="#162B45" stroke-width="0" />
<path d="M217.06 100 L245.06 93" fill="none" stroke="#162B45" stroke-width="5" stroke-linecap="round" stroke-linejoin="round" />
<path d="M266.94 93 L294.94 93" fill="none" stroke="#162B45" stroke-width="5" stroke-linecap="round" stroke-linejoin="round" />
<path d="M256 123 q-4 10 5 12" fill="none" stroke="#CE8B61" stroke-width="4" stroke-linecap="round" stroke-linejoin="round" />
<path d="M238 152 Q259 148 278 155" fill="none" stroke="#162B45" stroke-width="5" stroke-linecap="round" stroke-linejoin="round" /></g>
<g id="face-confident" data-semantic-layer="true" style="display:none"><ellipse cx="231.06" cy="115" rx="10" ry="7.4399999999999995" fill="#FFF8EE" stroke="#162B45" stroke-width="4" />
<ellipse cx="232.06" cy="117" rx="4" ry="3.7199999999999998" fill="#162B45" stroke="#162B45" stroke-width="0" />
<ellipse cx="280.94" cy="115" rx="10" ry="7.4399999999999995" fill="#FFF8EE" stroke="#162B45" stroke-width="4" />
<ellipse cx="281.94" cy="117" rx="4" ry="3.7199999999999998" fill="#162B45" stroke="#162B45" stroke-width="0" />
<path d="M217.06 100 Q231.06 94 245.06 100" fill="none" stroke="#162B45" stroke-width="5" stroke-linecap="round" stroke-linejoin="round" />
<path d="M266.94 100 Q280.94 94 294.94 100" fill="none" stroke="#162B45" stroke-width="5" stroke-linecap="round" stroke-linejoin="round" />
<path d="M256 123 q-4 10 5 12" fill="none" stroke="#CE8B61" stroke-width="4" stroke-linecap="round" stroke-linejoin="round" />
<path d="M232 149 Q261 171 285 144" fill="none" stroke="#162B45" stroke-width="6" stroke-linecap="round" stroke-linejoin="round" /></g>
<g id="face-sorry" data-semantic-layer="true" style="display:none"><ellipse cx="231.06" cy="115" rx="10" ry="12.0" fill="#FFF8EE" stroke="#162B45" stroke-width="4" />
<ellipse cx="232.06" cy="117" rx="4" ry="6.0" fill="#162B45" stroke="#162B45" stroke-width="0" />
<ellipse cx="280.94" cy="115" rx="10" ry="12.0" fill="#FFF8EE" stroke="#162B45" stroke-width="4" />
<ellipse cx="281.94" cy="117" rx="4" ry="6.0" fill="#162B45" stroke="#162B45" stroke-width="0" />
<path d="M217.06 97 Q233.06 91 245.06 102" fill="none" stroke="#162B45" stroke-width="5" stroke-linecap="round" stroke-linejoin="round" />
<path d="M266.94 102 Q278.94 91 294.94 97" fill="none" stroke="#162B45" stroke-width="5" stroke-linecap="round" stroke-linejoin="round" />
<path d="M256 123 q-4 10 5 12" fill="none" stroke="#CE8B61" stroke-width="4" stroke-linecap="round" stroke-linejoin="round" />
<path d="M232 161 Q256 142 280 161" fill="none" stroke="#162B45" stroke-width="6" stroke-linecap="round" stroke-linejoin="round" /></g>
<g id="face-excited" data-semantic-layer="true" style="display:none"><ellipse cx="231.06" cy="115" rx="10" ry="16.200000000000003" fill="#FFF8EE" stroke="#162B45" stroke-width="4" />
<ellipse cx="232.06" cy="117" rx="4" ry="8.100000000000001" fill="#162B45" stroke="#162B45" stroke-width="0" />
<ellipse cx="280.94" cy="115" rx="10" ry="16.200000000000003" fill="#FFF8EE" stroke="#162B45" stroke-width="4" />
<ellipse cx="281.94" cy="117" rx="4" ry="8.100000000000001" fill="#162B45" stroke="#162B45" stroke-width="0" />
<path d="M217.06 90 Q231.06 84 245.06 90" fill="none" stroke="#162B45" stroke-width="5" stroke-linecap="round" stroke-linejoin="round" />
<path d="M266.94 90 Q280.94 84 294.94 90" fill="none" stroke="#162B45" stroke-width="5" stroke-linecap="round" stroke-linejoin="round" />
<path d="M256 123 q-4 10 5 12" fill="none" stroke="#CE8B61" stroke-width="4" stroke-linecap="round" stroke-linejoin="round" />
<path d="M229 147 Q256 176 284 145" fill="none" stroke="#162B45" stroke-width="6" stroke-linecap="round" stroke-linejoin="round" /></g>
<g id="arm-left-rest" data-semantic-layer="true" style="display:none"><polyline points="300,217 314.0,252.0 328,287" fill="none" stroke="#162B45" stroke-width="32" stroke-linecap="round" stroke-linejoin="round"/><polyline points="300,217 314.0,252.0 328,287" fill="none" stroke="#7654A8" stroke-width="24" stroke-linecap="round" stroke-linejoin="round"/><polyline points="328,287 322,337" fill="none" stroke="#162B45" stroke-width="25" stroke-linecap="round" stroke-linejoin="round"/><polyline points="328,287 322,337" fill="none" stroke="#A9653E" stroke-width="18" stroke-linecap="round" stroke-linejoin="round"/><ellipse cx="322" cy="337" rx="11" ry="13" fill="#CE8B61" stroke="#162B45" stroke-width="5" /></g>
<g id="arm-right-rest" data-semantic-layer="true" style="display:none"><polyline points="212,217 198.0,252.0 184,287" fill="none" stroke="#162B45" stroke-width="32" stroke-linecap="round" stroke-linejoin="round"/><polyline points="212,217 198.0,252.0 184,287" fill="none" stroke="#7654A8" stroke-width="24" stroke-linecap="round" stroke-linejoin="round"/><polyline points="184,287 190,337" fill="none" stroke="#162B45" stroke-width="25" stroke-linecap="round" stroke-linejoin="round"/><polyline points="184,287 190,337" fill="none" stroke="#A9653E" stroke-width="18" stroke-linecap="round" stroke-linejoin="round"/><ellipse cx="190" cy="337" rx="11" ry="13" fill="#CE8B61" stroke="#162B45" stroke-width="5" /></g>
<g id="arm-left-greeting" data-semantic-layer="true"><polyline points="300,217 314.0,252.0 328,287" fill="none" stroke="#162B45" stroke-width="32" stroke-linecap="round" stroke-linejoin="round"/><polyline points="300,217 314.0,252.0 328,287" fill="none" stroke="#7654A8" stroke-width="24" stroke-linecap="round" stroke-linejoin="round"/><polyline points="328,287 322,337" fill="none" stroke="#162B45" stroke-width="25" stroke-linecap="round" stroke-linejoin="round"/><polyline points="328,287 322,337" fill="none" stroke="#A9653E" stroke-width="18" stroke-linecap="round" stroke-linejoin="round"/><ellipse cx="322" cy="337" rx="13" ry="15" fill="#CE8B61" stroke="#162B45" stroke-width="5" /><path d="M317.8 331 L308.2 310.8" fill="none" stroke="#A9653E" stroke-width="6" stroke-linecap="round" stroke-linejoin="round" /><path d="M320.6 331 L317.4 309.6" fill="none" stroke="#A9653E" stroke-width="6" stroke-linecap="round" stroke-linejoin="round" /><path d="M323.4 331 L326.6 309.6" fill="none" stroke="#A9653E" stroke-width="6" stroke-linecap="round" stroke-linejoin="round" /><path d="M326.2 331 L335.8 310.8" fill="none" stroke="#A9653E" stroke-width="6" stroke-linecap="round" stroke-linejoin="round" /></g>
<g id="arm-right-greeting" data-semantic-layer="true"><polyline points="212,217 194.0,201.0 176,185" fill="none" stroke="#162B45" stroke-width="32" stroke-linecap="round" stroke-linejoin="round"/><polyline points="212,217 194.0,201.0 176,185" fill="none" stroke="#7654A8" stroke-width="24" stroke-linecap="round" stroke-linejoin="round"/><polyline points="176,185 164,127" fill="none" stroke="#162B45" stroke-width="25" stroke-linecap="round" stroke-linejoin="round"/><polyline points="176,185 164,127" fill="none" stroke="#A9653E" stroke-width="18" stroke-linecap="round" stroke-linejoin="round"/><ellipse cx="164" cy="127" rx="13" ry="15" fill="#CE8B61" stroke="#162B45" stroke-width="5" /><path d="M159.8 121 L150.2 100.8" fill="none" stroke="#A9653E" stroke-width="6" stroke-linecap="round" stroke-linejoin="round" /><path d="M162.6 121 L159.4 99.6" fill="none" stroke="#A9653E" stroke-width="6" stroke-linecap="round" stroke-linejoin="round" /><path d="M165.4 121 L168.6 99.6" fill="none" stroke="#A9653E" stroke-width="6" stroke-linecap="round" stroke-linejoin="round" /><path d="M168.2 121 L177.8 100.8" fill="none" stroke="#A9653E" stroke-width="6" stroke-linecap="round" stroke-linejoin="round" /></g>
<g id="arm-left-farewell" data-semantic-layer="true" style="display:none"><polyline points="300,217 318.0,201.0 336,185" fill="none" stroke="#162B45" stroke-width="32" stroke-linecap="round" stroke-linejoin="round"/><polyline points="300,217 318.0,201.0 336,185" fill="none" stroke="#7654A8" stroke-width="24" stroke-linecap="round" stroke-linejoin="round"/><polyline points="336,185 348,127" fill="none" stroke="#162B45" stroke-width="25" stroke-linecap="round" stroke-linejoin="round"/><polyline points="336,185 348,127" fill="none" stroke="#A9653E" stroke-width="18" stroke-linecap="round" stroke-linejoin="round"/><ellipse cx="348" cy="127" rx="13" ry="15" fill="#CE8B61" stroke="#162B45" stroke-width="5" /><path d="M343.8 121 L334.2 100.8" fill="none" stroke="#A9653E" stroke-width="6" stroke-linecap="round" stroke-linejoin="round" /><path d="M346.6 121 L343.4 99.6" fill="none" stroke="#A9653E" stroke-width="6" stroke-linecap="round" stroke-linejoin="round" /><path d="M349.4 121 L352.6 99.6" fill="none" stroke="#A9653E" stroke-width="6" stroke-linecap="round" stroke-linejoin="round" /><path d="M352.2 121 L361.8 100.8" fill="none" stroke="#A9653E" stroke-width="6" stroke-linecap="round" stroke-linejoin="round" /></g>
<g id="arm-right-farewell" data-semantic-layer="true" style="display:none"><polyline points="212,217 198.0,252.0 184,287" fill="none" stroke="#162B45" stroke-width="32" stroke-linecap="round" stroke-linejoin="round"/><polyline points="212,217 198.0,252.0 184,287" fill="none" stroke="#7654A8" stroke-width="24" stroke-linecap="round" stroke-linejoin="round"/><polyline points="184,287 190,337" fill="none" stroke="#162B45" stroke-width="25" stroke-linecap="round" stroke-linejoin="round"/><polyline points="184,287 190,337" fill="none" stroke="#A9653E" stroke-width="18" stroke-linecap="round" stroke-linejoin="round"/><ellipse cx="190" cy="337" rx="13" ry="15" fill="#CE8B61" stroke="#162B45" stroke-width="5" /><path d="M185.8 331 L176.2 310.8" fill="none" stroke="#A9653E" stroke-width="6" stroke-linecap="round" stroke-linejoin="round" /><path d="M188.6 331 L185.4 309.6" fill="none" stroke="#A9653E" stroke-width="6" stroke-linecap="round" stroke-linejoin="round" /><path d="M191.4 331 L194.6 309.6" fill="none" stroke="#A9653E" stroke-width="6" stroke-linecap="round" stroke-linejoin="round" /><path d="M194.2 331 L203.8 310.8" fill="none" stroke="#A9653E" stroke-width="6" stroke-linecap="round" stroke-linejoin="round" /></g>
<g id="arm-left-agreement" data-semantic-layer="true" style="display:none"><polyline points="300,217 310.0,234.5 320,252" fill="none" stroke="#162B45" stroke-width="32" stroke-linecap="round" stroke-linejoin="round"/><polyline points="300,217 310.0,234.5 320,252" fill="none" stroke="#7654A8" stroke-width="24" stroke-linecap="round" stroke-linejoin="round"/><polyline points="320,252 301,227" fill="none" stroke="#162B45" stroke-width="25" stroke-linecap="round" stroke-linejoin="round"/><polyline points="320,252 301,227" fill="none" stroke="#A9653E" stroke-width="18" stroke-linecap="round" stroke-linejoin="round"/><ellipse cx="301" cy="227" rx="11" ry="13" fill="#CE8B61" stroke="#162B45" stroke-width="5" /></g>
<g id="arm-right-agreement" data-semantic-layer="true" style="display:none"><polyline points="212,217 202.0,234.5 192,252" fill="none" stroke="#162B45" stroke-width="32" stroke-linecap="round" stroke-linejoin="round"/><polyline points="212,217 202.0,234.5 192,252" fill="none" stroke="#7654A8" stroke-width="24" stroke-linecap="round" stroke-linejoin="round"/><polyline points="192,252 211,227" fill="none" stroke="#162B45" stroke-width="25" stroke-linecap="round" stroke-linejoin="round"/><polyline points="192,252 211,227" fill="none" stroke="#A9653E" stroke-width="18" stroke-linecap="round" stroke-linejoin="round"/><ellipse cx="211" cy="227" rx="11" ry="13" fill="#CE8B61" stroke="#162B45" stroke-width="5" /></g>
<g id="arm-left-disagreement" data-semantic-layer="true" style="display:none"><polyline points="300,217 308.0,239.5 316,262" fill="none" stroke="#162B45" stroke-width="32" stroke-linecap="round" stroke-linejoin="round"/><polyline points="300,217 308.0,239.5 316,262" fill="none" stroke="#7654A8" stroke-width="24" stroke-linecap="round" stroke-linejoin="round"/><polyline points="316,262 218,290" fill="none" stroke="#162B45" stroke-width="25" stroke-linecap="round" stroke-linejoin="round"/><polyline points="316,262 218,290" fill="none" stroke="#A9653E" stroke-width="18" stroke-linecap="round" stroke-linejoin="round"/><ellipse cx="218" cy="290" rx="11" ry="13" fill="#CE8B61" stroke="#162B45" stroke-width="5" /></g>
<g id="arm-right-disagreement" data-semantic-layer="true" style="display:none"><polyline points="212,217 204.0,239.5 196,262" fill="none" stroke="#162B45" stroke-width="32" stroke-linecap="round" stroke-linejoin="round"/><polyline points="212,217 204.0,239.5 196,262" fill="none" stroke="#7654A8" stroke-width="24" stroke-linecap="round" stroke-linejoin="round"/><polyline points="196,262 294,290" fill="none" stroke="#162B45" stroke-width="25" stroke-linecap="round" stroke-linejoin="round"/><polyline points="196,262 294,290" fill="none" stroke="#A9653E" stroke-width="18" stroke-linecap="round" stroke-linejoin="round"/><ellipse cx="294" cy="290" rx="11" ry="13" fill="#CE8B61" stroke="#162B45" stroke-width="5" /></g>
<g id="arm-left-gratitude" data-semantic-layer="true" style="display:none"><polyline points="300,217 309.0,240.5 318,264" fill="none" stroke="#162B45" stroke-width="32" stroke-linecap="round" stroke-linejoin="round"/><polyline points="300,217 309.0,240.5 318,264" fill="none" stroke="#7654A8" stroke-width="24" stroke-linecap="round" stroke-linejoin="round"/><polyline points="318,264 266,279" fill="none" stroke="#162B45" stroke-width="25" stroke-linecap="round" stroke-linejoin="round"/><polyline points="318,264 266,279" fill="none" stroke="#A9653E" stroke-width="18" stroke-linecap="round" stroke-linejoin="round"/><ellipse cx="266" cy="279" rx="11" ry="13" fill="#CE8B61" stroke="#162B45" stroke-width="5" /></g>
<g id="arm-right-gratitude" data-semantic-layer="true" style="display:none"><polyline points="212,217 203.0,240.5 194,264" fill="none" stroke="#162B45" stroke-width="32" stroke-linecap="round" stroke-linejoin="round"/><polyline points="212,217 203.0,240.5 194,264" fill="none" stroke="#7654A8" stroke-width="24" stroke-linecap="round" stroke-linejoin="round"/><polyline points="194,264 246,279" fill="none" stroke="#162B45" stroke-width="25" stroke-linecap="round" stroke-linejoin="round"/><polyline points="194,264 246,279" fill="none" stroke="#A9653E" stroke-width="18" stroke-linecap="round" stroke-linejoin="round"/><ellipse cx="246" cy="279" rx="11" ry="13" fill="#CE8B61" stroke="#162B45" stroke-width="5" /></g>
<g id="arm-left-concern" data-semantic-layer="true" style="display:none"><polyline points="300,217 312.0,228.0 324,239" fill="none" stroke="#162B45" stroke-width="32" stroke-linecap="round" stroke-linejoin="round"/><polyline points="300,217 312.0,228.0 324,239" fill="none" stroke="#7654A8" stroke-width="24" stroke-linecap="round" stroke-linejoin="round"/><polyline points="324,239 294,154" fill="none" stroke="#162B45" stroke-width="25" stroke-linecap="round" stroke-linejoin="round"/><polyline points="324,239 294,154" fill="none" stroke="#A9653E" stroke-width="18" stroke-linecap="round" stroke-linejoin="round"/><ellipse cx="294" cy="154" rx="11" ry="13" fill="#CE8B61" stroke="#162B45" stroke-width="5" /></g>
<g id="arm-right-concern" data-semantic-layer="true" style="display:none"><polyline points="212,217 200.0,228.0 188,239" fill="none" stroke="#162B45" stroke-width="32" stroke-linecap="round" stroke-linejoin="round"/><polyline points="212,217 200.0,228.0 188,239" fill="none" stroke="#7654A8" stroke-width="24" stroke-linecap="round" stroke-linejoin="round"/><polyline points="188,239 218,154" fill="none" stroke="#162B45" stroke-width="25" stroke-linecap="round" stroke-linejoin="round"/><polyline points="188,239 218,154" fill="none" stroke="#A9653E" stroke-width="18" stroke-linecap="round" stroke-linejoin="round"/><ellipse cx="218" cy="154" rx="11" ry="13" fill="#CE8B61" stroke="#162B45" stroke-width="5" /></g>
<g id="arm-left-surprise" data-semantic-layer="true" style="display:none"><polyline points="300,217 314.0,221.0 328,225" fill="none" stroke="#162B45" stroke-width="32" stroke-linecap="round" stroke-linejoin="round"/><polyline points="300,217 314.0,221.0 328,225" fill="none" stroke="#7654A8" stroke-width="24" stroke-linecap="round" stroke-linejoin="round"/><polyline points="328,225 314,141" fill="none" stroke="#162B45" stroke-width="25" stroke-linecap="round" stroke-linejoin="round"/><polyline points="328,225 314,141" fill="none" stroke="#A9653E" stroke-width="18" stroke-linecap="round" stroke-linejoin="round"/><ellipse cx="314" cy="141" rx="13" ry="15" fill="#CE8B61" stroke="#162B45" stroke-width="5" /><path d="M309.8 135 L300.2 114.8" fill="none" stroke="#A9653E" stroke-width="6" stroke-linecap="round" stroke-linejoin="round" /><path d="M312.6 135 L309.4 113.6" fill="none" stroke="#A9653E" stroke-width="6" stroke-linecap="round" stroke-linejoin="round" /><path d="M315.4 135 L318.6 113.6" fill="none" stroke="#A9653E" stroke-width="6" stroke-linecap="round" stroke-linejoin="round" /><path d="M318.2 135 L327.8 114.8" fill="none" stroke="#A9653E" stroke-width="6" stroke-linecap="round" stroke-linejoin="round" /></g>
<g id="arm-right-surprise" data-semantic-layer="true" style="display:none"><polyline points="212,217 198.0,221.0 184,225" fill="none" stroke="#162B45" stroke-width="32" stroke-linecap="round" stroke-linejoin="round"/><polyline points="212,217 198.0,221.0 184,225" fill="none" stroke="#7654A8" stroke-width="24" stroke-linecap="round" stroke-linejoin="round"/><polyline points="184,225 198,141" fill="none" stroke="#162B45" stroke-width="25" stroke-linecap="round" stroke-linejoin="round"/><polyline points="184,225 198,141" fill="none" stroke="#A9653E" stroke-width="18" stroke-linecap="round" stroke-linejoin="round"/><ellipse cx="198" cy="141" rx="13" ry="15" fill="#CE8B61" stroke="#162B45" stroke-width="5" /><path d="M193.8 135 L184.2 114.8" fill="none" stroke="#A9653E" stroke-width="6" stroke-linecap="round" stroke-linejoin="round" /><path d="M196.6 135 L193.4 113.6" fill="none" stroke="#A9653E" stroke-width="6" stroke-linecap="round" stroke-linejoin="round" /><path d="M199.4 135 L202.6 113.6" fill="none" stroke="#A9653E" stroke-width="6" stroke-linecap="round" stroke-linejoin="round" /><path d="M202.2 135 L211.8 114.8" fill="none" stroke="#A9653E" stroke-width="6" stroke-linecap="round" stroke-linejoin="round" /></g>
<g id="arm-left-celebration" data-semantic-layer="true" style="display:none"><polyline points="300,217 317.0,196.0 334,175" fill="none" stroke="#162B45" stroke-width="32" stroke-linecap="round" stroke-linejoin="round"/><polyline points="300,217 317.0,196.0 334,175" fill="none" stroke="#7654A8" stroke-width="24" stroke-linecap="round" stroke-linejoin="round"/><polyline points="334,175 352,113" fill="none" stroke="#162B45" stroke-width="25" stroke-linecap="round" stroke-linejoin="round"/><polyline points="334,175 352,113" fill="none" stroke="#A9653E" stroke-width="18" stroke-linecap="round" stroke-linejoin="round"/><ellipse cx="352" cy="113" rx="13" ry="15" fill="#CE8B61" stroke="#162B45" stroke-width="5" /><path d="M347.8 107 L338.2 86.8" fill="none" stroke="#A9653E" stroke-width="6" stroke-linecap="round" stroke-linejoin="round" /><path d="M350.6 107 L347.4 85.6" fill="none" stroke="#A9653E" stroke-width="6" stroke-linecap="round" stroke-linejoin="round" /><path d="M353.4 107 L356.6 85.6" fill="none" stroke="#A9653E" stroke-width="6" stroke-linecap="round" stroke-linejoin="round" /><path d="M356.2 107 L365.8 86.8" fill="none" stroke="#A9653E" stroke-width="6" stroke-linecap="round" stroke-linejoin="round" /></g>
<g id="arm-right-celebration" data-semantic-layer="true" style="display:none"><polyline points="212,217 195.0,196.0 178,175" fill="none" stroke="#162B45" stroke-width="32" stroke-linecap="round" stroke-linejoin="round"/><polyline points="212,217 195.0,196.0 178,175" fill="none" stroke="#7654A8" stroke-width="24" stroke-linecap="round" stroke-linejoin="round"/><polyline points="178,175 160,113" fill="none" stroke="#162B45" stroke-width="25" stroke-linecap="round" stroke-linejoin="round"/><polyline points="178,175 160,113" fill="none" stroke="#A9653E" stroke-width="18" stroke-linecap="round" stroke-linejoin="round"/><ellipse cx="160" cy="113" rx="13" ry="15" fill="#CE8B61" stroke="#162B45" stroke-width="5" /><path d="M155.8 107 L146.2 86.8" fill="none" stroke="#A9653E" stroke-width="6" stroke-linecap="round" stroke-linejoin="round" /><path d="M158.6 107 L155.4 85.6" fill="none" stroke="#A9653E" stroke-width="6" stroke-linecap="round" stroke-linejoin="round" /><path d="M161.4 107 L164.6 85.6" fill="none" stroke="#A9653E" stroke-width="6" stroke-linecap="round" stroke-linejoin="round" /><path d="M164.2 107 L173.8 86.8" fill="none" stroke="#A9653E" stroke-width="6" stroke-linecap="round" stroke-linejoin="round" /></g>
</svg>
