<svg xmlns="http://www.w3.org/2000/svg" width="512" height="512" viewBox="0 0 512 512">
<defs><linearGradient id="softShade" x1="0" y1="0" x2="1" y2="1"><stop offset="0" stop-color="#FFFFFF" stop-opacity=".24"/><stop offset="1" stop-color="#10243A" stop-opacity=".14"/></linearGradient></defs>
<ellipse cx="256" cy="470" rx="105" ry="14" fill="#AAB2BD" stroke="none" stroke-width="0" opacity=".65"/><rect x="273" y="301" width="29" height="144" rx="11.02" fill="#2D3043" stroke="#162B45" stroke-width="6" /><rect x="270" y="435" width="53" height="28" rx="13" fill="#7858A8" stroke="#162B45" stroke-width="6" /><rect x="210" y="301" width="29" height="144" rx="11.02" fill="#2D3043" stroke="#162B45" stroke-width="6" /><rect x="198" y="435" width="53" height="28" rx="13" fill="#7858A8" stroke="#162B45" stroke-width="6" /><polyline points="300,217 314.0,252.0 328,287" fill="none" stroke="#162B45" stroke-width="32" stroke-linecap="round" stroke-linejoin="round"/><polyline points="300,217 314.0,252.0 328,287" fill="none" stroke="#7654A8" stroke-width="24" stroke-linecap="round" stroke-linejoin="round"/><polyline points="328,287 322,337" fill="none" stroke="#162B45" stroke-width="25" stroke-linecap="round" stroke-linejoin="round"/><polyline points="328,287 322,337" fill="none" stroke="#A9653E" stroke-width="18" stroke-linecap="round" stroke-linejoin="round"/><ellipse cx="322" cy="337" rx="11" ry="13" fill="#CE8B61" stroke="#162B45" stroke-width="5" /><polyline points="212,217 198.0,252.0 184,287" fill="none" stroke="#162B45" stroke-width="32" stroke-linecap="round" stroke-linejoin="round"/><polyline points="212,217 198.0,252.0 184,287" fill="none" stroke="#7654A8" stroke-width="24" stroke-linecap="round" stroke-linejoin="round"/><polyline points="184,287 190,337" fill="none" stroke="#162B45" stroke-width="25" stroke-linecap="round" stroke-linejoin="round"/><polyline points="184,287 190,337" fill="none" stroke="#A9653E" stroke-width="18" stroke-linecap="round" stroke-linejoin="round"/><ellipse cx="190" cy="337" rx="11" ry="13" fill="#CE8B61" stroke="#162B45" stroke-width="5" /><rect x="204" y="183" width="104" height="126" rx="30" fill="#7654A8" stroke="#162B45" stroke-width="7" /><path d="M222 205 Q256.0 221 290 205" fill="none" stroke="#E2A4D2" stroke-width="8" stroke-linecap="round" stroke-linejoin="round" /><ellipse cx="256" cy="111" rx="58" ry="64" fill="#A9653E" stroke="#162B45" stroke-width="7" /><path d="M186 71 Q174 173 209 227 Q232 241 256 226 Q280 241 303 227 Q338 173 326 71 Z" fill="#251817" stroke="#162B45" stroke-width="7" stroke-linecap="round" stroke-linejoin="round" /><path d="M256 53 Q246 137 256 218" fill="none" stroke="#684034" stroke-width="4" stroke-linecap="round" stroke-linejoin="round" />
</svg>
