<svg xmlns="http://www.w3.org/2000/svg" width="512" height="512" viewBox="0 0 512 512">
<defs><linearGradient id="softShade" x1="0" y1="0" x2="1" y2="1"><stop offset="0" stop-color="#FFFFFF" stop-opacity=".24"/><stop offset="1" stop-color="#10243A" stop-opacity=".14"/></linearGradient></defs>
<ellipse cx="256" cy="470" rx="105" ry="14" fill="#AAB2BD" stroke="none" stroke-width="0" opacity=".65"/><rect x="236" y="302" width="34" height="159" rx="14" fill="#2D3043" stroke="#162B45" stroke-width="6" /><rect x="230" y="441" width="61" height="27" rx="13" fill="#7858A8" stroke="#162B45" stroke-width="6" /><rect x="229.0" y="183" width="58" height="126" rx="25" fill="#7654A8" stroke="#162B45" stroke-width="7" /><path d="M240.6 203 L275.4 203" fill="none" stroke="#E2A4D2" stroke-width="7" stroke-linecap="round" stroke-linejoin="round" /><path d="M258 218 Q293 278 278 333" fill="none" stroke="#A9653E" stroke-width="20" stroke-linecap="round" stroke-linejoin="round" /><path d="M231.32 71.32 Q216.24 131 230.16 223 Q266 236 281.2 205 L282.36 97 Z" fill="#251817" stroke="#162B45" stroke-width="7" stroke-linecap="round" stroke-linejoin="round" /><ellipse cx="258" cy="111" rx="33.64" ry="64" fill="#A9653E" stroke="#162B45" stroke-width="7" /><path d="M246.4 64.92 Q268.44 53.4 285.84 86" fill="none" stroke="#684034" stroke-width="5" stroke-linecap="round" stroke-linejoin="round" /><ellipse cx="269.6" cy="113" rx="9" ry="12" fill="#FFF8EE" stroke="#162B45" stroke-width="4" /><ellipse cx="271.92" cy="115" rx="4" ry="6" fill="#162B45" stroke="#162B45" stroke-width="0" /><path d="M287.0 119 q12 8 0 16" fill="none" stroke="#CE8B61" stroke-width="5" stroke-linecap="round" stroke-linejoin="round" /><path d="M260 148 Q276 159 289 145" fill="none" stroke="#162B45" stroke-width="5" stroke-linecap="round" stroke-linejoin="round" />
</svg>
