<svg xmlns="http://www.w3.org/2000/svg" width="512" height="512" viewBox="0 0 512 512">
<defs><linearGradient id="softShade" x1="0" y1="0" x2="1" y2="1"><stop offset="0" stop-color="#FFFFFF" stop-opacity=".24"/><stop offset="1" stop-color="#10243A" stop-opacity=".14"/></linearGradient></defs>
<ellipse cx="256" cy="470" rx="105" ry="14" fill="#AAB2BD" stroke="none" stroke-width="0" opacity=".65"/><g transform="translate(38 0) scale(.86 1)"><rect x="273" y="301" width="29" height="144" rx="11.02" fill="#2D3043" stroke="#162B45" stroke-width="6" /><rect x="270" y="435" width="53" height="28" rx="13" fill="#7858A8" stroke="#162B45" stroke-width="6" /><rect x="210" y="301" width="29" height="144" rx="11.02" fill="#2D3043" stroke="#162B45" stroke-width="6" /><rect x="198" y="435" width="53" height="28" rx="13" fill="#7858A8" stroke="#162B45" stroke-width="6" /><rect x="204" y="183" width="104" height="126" rx="30" fill="#7654A8" stroke="#162B45" stroke-width="7" /><path d="M222 201 Q256.0 226 290 201" fill="none" stroke="#E2A4D2" stroke-width="8" stroke-linecap="round" stroke-linejoin="round" /><path d="M222.72 201 Q256.0 191 289.28 201" fill="none" stroke="#F2A33A" stroke-width="5" stroke-linecap="round" stroke-linejoin="round" /><path d="M256.0 190 L256.0 301" fill="none" stroke="#E2A4D2" stroke-width="6" stroke-linecap="round" stroke-linejoin="round" /><path d="M222.72 201 L247.68 241 M289.28 201 L264.32 241" fill="none" stroke="#F2A33A" stroke-width="7" stroke-linecap="round" stroke-linejoin="round" /><path d="M185 71 Q171 181 208 227 L304 227 Q341 181 327 71 Z" fill="#251817" stroke="#162B45" stroke-width="7" stroke-linecap="round" stroke-linejoin="round" /><polyline points="300,217 314.0,252.0 328,287" fill="none" stroke="#162B45" stroke-width="32" stroke-linecap="round" stroke-linejoin="round"/><polyline points="300,217 314.0,252.0 328,287" fill="none" stroke="#7654A8" stroke-width="24" stroke-linecap="round" stroke-linejoin="round"/><polyline points="328,287 322,337" fill="none" stroke="#162B45" stroke-width="25" stroke-linecap="round" stroke-linejoin="round"/><polyline points="328,287 322,337" fill="none" stroke="#A9653E" stroke-width="18" stroke-linecap="round" stroke-linejoin="round"/><ellipse cx="322" cy="337" rx="11" ry="13" fill="#CE8B61" stroke="#162B45" stroke-width="5" /><polyline points="212,217 198.0,252.0 184,287" fill="none" stroke="#162B45" stroke-width="32" stroke-linecap="round" stroke-linejoin="round"/><polyline points="212,217 198.0,252.0 184,287" fill="none" stroke="#7654A8" stroke-width="24" stroke-linecap="round" stroke-linejoin="round"/><polyline points="184,287 190,337" fill="none" stroke="#162B45" stroke-width="25" stroke-linecap="round" stroke-linejoin="round"/><polyline points="184,287 190,337" fill="none" stroke="#A9653E" stroke-width="18" stroke-linecap="round" stroke-linejoin="round"/><ellipse cx="190" cy="337" rx="11" ry="13" fill="#CE8B61" stroke="#162B45" stroke-width="5" /></g><ellipse cx="269" cy="111" rx="52.2" ry="64" fill="#A9653E" stroke="#162B45" stroke-width="7" /><g transform="translate(33.48 0) scale(.92 1)"><path d="M201 75 Q236 23 316 80 Q281 56 247 51 Q217 56 201 75 Z" fill="#251817" stroke="#162B45" stroke-width="6" stroke-linecap="round" stroke-linejoin="round" /><path d="M218 74 Q201 127 213 176" fill="none" stroke="#684034" stroke-width="6" stroke-linecap="round" stroke-linejoin="round" /><path d="M294 75 Q310 127 298 177" fill="none" stroke="#684034" stroke-width="6" stroke-linecap="round" stroke-linejoin="round" /></g><ellipse cx="254" cy="115" rx="9" ry="12" fill="#FFF8EE" stroke="#162B45" stroke-width="4" /><ellipse cx="293" cy="115" rx="7" ry="10" fill="#FFF8EE" stroke="#162B45" stroke-width="4" /><ellipse cx="257" cy="117" rx="4" ry="6" fill="#162B45" stroke="#162B45" stroke-width="0" /><ellipse cx="295" cy="117" rx="3" ry="5" fill="#162B45" stroke="#162B45" stroke-width="0" /><path d="M273 123 Q287 129 278 135" fill="none" stroke="#CE8B61" stroke-width="4" stroke-linecap="round" stroke-linejoin="round" /><path d="M252 147 Q277 163 299 142" fill="none" stroke="#162B45" stroke-width="6" stroke-linecap="round" stroke-linejoin="round" />
</svg>
