<svg xmlns="http://www.w3.org/2000/svg" width="512" height="512" viewBox="0 0 512 512">
<defs><linearGradient id="softShade" x1="0" y1="0" x2="1" y2="1"><stop offset="0" stop-color="#FFFFFF" stop-opacity=".24"/><stop offset="1" stop-color="#10243A" stop-opacity=".14"/></linearGradient></defs>
<ellipse cx="256" cy="472" rx="105" ry="14" fill="#AAB2BD" stroke="none" stroke-width="0" opacity=".65"/><rect x="236" y="293" width="34" height="170" rx="14" fill="#4A4038" stroke="#162B45" stroke-width="6" /><rect x="230" y="443" width="61" height="27" rx="13" fill="#3B342F" stroke="#162B45" stroke-width="6" /><rect x="229.0" y="162" width="58" height="138" rx="25" fill="#3F6585" stroke="#162B45" stroke-width="7" /><path d="M240.6 182 L275.4 182" fill="none" stroke="#D29B46" stroke-width="7" stroke-linecap="round" stroke-linejoin="round" /><path d="M258 197 Q293 257 278 312" fill="none" stroke="#A86640" stroke-width="20" stroke-linecap="round" stroke-linejoin="round" /><ellipse cx="258" cy="96" rx="31.319999999999997" ry="60" fill="#A86640" stroke="#162B45" stroke-width="7" /><path d="M232.08 74 Q244.5 11 281.76 61 Q270.96 34 232.08 74 Z" fill="#AAA7A3" stroke="#162B45" stroke-width="6" stroke-linecap="round" stroke-linejoin="round" /><path d="M250 43 Q276 44 276.36 57" fill="none" stroke="#E1DDD7" stroke-width="4" stroke-linecap="round" stroke-linejoin="round" /><ellipse cx="268.8" cy="98" rx="9" ry="12" fill="#FFF8EE" stroke="#162B45" stroke-width="4" /><ellipse cx="270.96" cy="100" rx="4" ry="6" fill="#162B45" stroke="#162B45" stroke-width="0" /><path d="M285.0 104 q12 8 0 16" fill="none" stroke="#CB8A61" stroke-width="5" stroke-linecap="round" stroke-linejoin="round" /><path d="M260 133 Q276 144 289 130" fill="none" stroke="#162B45" stroke-width="5" stroke-linecap="round" stroke-linejoin="round" />
</svg>
