<svg xmlns="http://www.w3.org/2000/svg" width="512" height="512" viewBox="0 0 512 512">
<defs><linearGradient id="softShade" x1="0" y1="0" x2="1" y2="1"><stop offset="0" stop-color="#FFFFFF" stop-opacity=".24"/><stop offset="1" stop-color="#10243A" stop-opacity=".14"/></linearGradient></defs>
<ellipse cx="256" cy="472" rx="105" ry="14" fill="#AAB2BD" stroke="none" stroke-width="0" opacity=".65"/><g transform="translate(38 0) scale(.86 1)"><rect x="275" y="292" width="28" height="155" rx="10.64" fill="#4A4038" stroke="#162B45" stroke-width="6" /><rect x="272" y="437" width="52" height="28" rx="13" fill="#3B342F" stroke="#162B45" stroke-width="6" /><rect x="209" y="292" width="28" height="155" rx="10.64" fill="#4A4038" stroke="#162B45" stroke-width="6" /><rect x="197" y="437" width="52" height="28" rx="13" fill="#3B342F" stroke="#162B45" stroke-width="6" /><rect x="207" y="162" width="98" height="138" rx="30" fill="#3F6585" stroke="#162B45" stroke-width="7" /><path d="M225 180 Q256.0 205 287 180" fill="none" stroke="#D29B46" stroke-width="8" stroke-linecap="round" stroke-linejoin="round" /><path d="M224.64 180 Q256.0 170 287.36 180" fill="none" stroke="#6FA59A" stroke-width="5" stroke-linecap="round" stroke-linejoin="round" /><path d="M239.34 172 L239.34 290 M272.66 172 L272.66 290" fill="none" stroke="#D29B46" stroke-width="6" stroke-linecap="round" stroke-linejoin="round" /><path d="M239.34 173 L256.0 209 L272.66 173" fill="none" stroke="#6FA59A" stroke-width="5" stroke-linecap="round" stroke-linejoin="round" /><polyline points="297,196 311.0,231.0 325,266" fill="none" stroke="#162B45" stroke-width="32" stroke-linecap="round" stroke-linejoin="round"/><polyline points="297,196 311.0,231.0 325,266" fill="none" stroke="#3F6585" stroke-width="24" stroke-linecap="round" stroke-linejoin="round"/><polyline points="325,266 319,316" fill="none" stroke="#162B45" stroke-width="25" stroke-linecap="round" stroke-linejoin="round"/><polyline points="325,266 319,316" fill="none" stroke="#A86640" stroke-width="18" stroke-linecap="round" stroke-linejoin="round"/><ellipse cx="319" cy="316" rx="11" ry="13" fill="#CB8A61" stroke="#162B45" stroke-width="5" /><polyline points="215,196 201.0,231.0 187,266" fill="none" stroke="#162B45" stroke-width="32" stroke-linecap="round" stroke-linejoin="round"/><polyline points="215,196 201.0,231.0 187,266" fill="none" stroke="#3F6585" stroke-width="24" stroke-linecap="round" stroke-linejoin="round"/><polyline points="187,266 193,316" fill="none" stroke="#162B45" stroke-width="25" stroke-linecap="round" stroke-linejoin="round"/><polyline points="187,266 193,316" fill="none" stroke="#A86640" stroke-width="18" stroke-linecap="round" stroke-linejoin="round"/><ellipse cx="193" cy="316" rx="11" ry="13" fill="#CB8A61" stroke="#162B45" stroke-width="5" /></g><ellipse cx="269" cy="96" rx="48.6" ry="60" fill="#A86640" stroke="#162B45" stroke-width="7" /><g transform="translate(33.48 0) scale(.92 1)"><path d="M205 66 Q226 8 314 59 Q274 30 236 33 Q212 41 205 66 Z" fill="#AAA7A3" stroke="#162B45" stroke-width="6" stroke-linecap="round" stroke-linejoin="round" /><path d="M228 41 Q258 31 291 53" fill="none" stroke="#E1DDD7" stroke-width="5" stroke-linecap="round" stroke-linejoin="round" /></g><ellipse cx="254" cy="100" rx="9" ry="12" fill="#FFF8EE" stroke="#162B45" stroke-width="4" /><ellipse cx="293" cy="100" rx="7" ry="10" fill="#FFF8EE" stroke="#162B45" stroke-width="4" /><ellipse cx="257" cy="102" rx="4" ry="6" fill="#162B45" stroke="#162B45" stroke-width="0" /><ellipse cx="295" cy="102" rx="3" ry="5" fill="#162B45" stroke="#162B45" stroke-width="0" /><path d="M273 108 Q287 114 278 120" fill="none" stroke="#CB8A61" stroke-width="4" stroke-linecap="round" stroke-linejoin="round" /><path d="M252 132 Q277 148 299 127" fill="none" stroke="#162B45" stroke-width="6" stroke-linecap="round" stroke-linejoin="round" />
</svg>
