<svg xmlns="http://www.w3.org/2000/svg" width="512" height="512" viewBox="0 0 512 512">
<defs><linearGradient id="softShade" x1="0" y1="0" x2="1" y2="1"><stop offset="0" stop-color="#FFFFFF" stop-opacity=".24"/><stop offset="1" stop-color="#10243A" stop-opacity=".14"/></linearGradient></defs>
<ellipse cx="256" cy="472" rx="105" ry="14" fill="#AAB2BD" stroke="none" stroke-width="0" opacity=".65"/><rect x="274" y="301" width="35" height="146" rx="13.3" fill="#202B39" stroke="#162B45" stroke-width="6" /><rect x="271" y="437" width="59" height="28" rx="13" fill="#E8E4DA" stroke="#162B45" stroke-width="6" /><rect x="203" y="301" width="35" height="146" rx="13.3" fill="#202B39" stroke="#162B45" stroke-width="6" /><rect x="191" y="437" width="59" height="28" rx="13" fill="#E8E4DA" stroke="#162B45" stroke-width="6" /><polyline points="314,204 328.0,239.0 342,274" fill="none" stroke="#162B45" stroke-width="32" stroke-linecap="round" stroke-linejoin="round"/><polyline points="314,204 328.0,239.0 342,274" fill="none" stroke="#294C70" stroke-width="24" stroke-linecap="round" stroke-linejoin="round"/><polyline points="342,274 336,324" fill="none" stroke="#162B45" stroke-width="25" stroke-linecap="round" stroke-linejoin="round"/><polyline points="342,274 336,324" fill="none" stroke="#D6A57C" stroke-width="18" stroke-linecap="round" stroke-linejoin="round"/><ellipse cx="336" cy="324" rx="11" ry="13" fill="#EAC29E" stroke="#162B45" stroke-width="5" /><polyline points="198,204 184.0,239.0 170,274" fill="none" stroke="#162B45" stroke-width="32" stroke-linecap="round" stroke-linejoin="round"/><polyline points="198,204 184.0,239.0 170,274" fill="none" stroke="#294C70" stroke-width="24" stroke-linecap="round" stroke-linejoin="round"/><polyline points="170,274 176,324" fill="none" stroke="#162B45" stroke-width="25" stroke-linecap="round" stroke-linejoin="round"/><polyline points="170,274 176,324" fill="none" stroke="#D6A57C" stroke-width="18" stroke-linecap="round" stroke-linejoin="round"/><ellipse cx="176" cy="324" rx="11" ry="13" fill="#EAC29E" stroke="#162B45" stroke-width="5" /><rect x="190" y="170" width="132" height="139" rx="30" fill="#294C70" stroke="#162B45" stroke-width="7" /><path d="M208 192 Q256.0 208 304 192" fill="none" stroke="#D95B55" stroke-width="8" stroke-linecap="round" stroke-linejoin="round" /><ellipse cx="256" cy="104" rx="56" ry="61" fill="#D6A57C" stroke="#162B45" stroke-width="7" /><path d="M205 81 Q224 12 318 64 Q281 37 239 38 Q208 49 205 81 Z" fill="#17191E" stroke="#162B45" stroke-width="6" stroke-linecap="round" stroke-linejoin="round" /><path d="M247 42 Q278 46 300 65" fill="none" stroke="#45505D" stroke-width="4" stroke-linecap="round" stroke-linejoin="round" />
</svg>
