<svg xmlns="http://www.w3.org/2000/svg" width="512" height="512" viewBox="0 0 512 512">
<defs><linearGradient id="softShade" x1="0" y1="0" x2="1" y2="1"><stop offset="0" stop-color="#FFFFFF" stop-opacity=".24"/><stop offset="1" stop-color="#10243A" stop-opacity=".14"/></linearGradient></defs>
<ellipse cx="256" cy="472" rx="105" ry="14" fill="#AAB2BD" stroke="none" stroke-width="0" opacity=".65"/><rect x="236" y="302" width="34" height="161" rx="14" fill="#202B39" stroke="#162B45" stroke-width="6" /><rect x="230" y="443" width="61" height="27" rx="13" fill="#E8E4DA" stroke="#162B45" stroke-width="6" /><rect x="225.0" y="170" width="66.0" height="139" rx="25" fill="#294C70" stroke="#162B45" stroke-width="7" /><path d="M238.2 190 L277.8 190" fill="none" stroke="#D95B55" stroke-width="7" stroke-linecap="round" stroke-linejoin="round" /><path d="M258 205 Q293 265 278 320" fill="none" stroke="#D6A57C" stroke-width="20" stroke-linecap="round" stroke-linejoin="round" /><ellipse cx="258" cy="104" rx="32.48" ry="61" fill="#D6A57C" stroke="#162B45" stroke-width="7" /><path d="M231.12 82 Q244.0 18 282.64 69 Q271.44 41 231.12 82 Z" fill="#17191E" stroke="#162B45" stroke-width="6" stroke-linecap="round" stroke-linejoin="round" /><path d="M250 50 Q276 51 277.04 65" fill="none" stroke="#45505D" stroke-width="4" stroke-linecap="round" stroke-linejoin="round" /><ellipse cx="269.2" cy="106" rx="9" ry="12" fill="#FFF8EE" stroke="#162B45" stroke-width="4" /><ellipse cx="271.44" cy="108" rx="4" ry="6" fill="#162B45" stroke="#162B45" stroke-width="0" /><path d="M286.0 112 q12 8 0 16" fill="none" stroke="#EAC29E" stroke-width="5" stroke-linecap="round" stroke-linejoin="round" /><path d="M260 141 Q276 152 289 138" fill="none" stroke="#162B45" stroke-width="5" stroke-linecap="round" stroke-linejoin="round" />
</svg>
