<svg xmlns="http://www.w3.org/2000/svg" width="512" height="512" viewBox="0 0 512 512">
<defs><linearGradient id="softShade" x1="0" y1="0" x2="1" y2="1"><stop offset="0" stop-color="#FFFFFF" stop-opacity=".24"/><stop offset="1" stop-color="#10243A" stop-opacity=".14"/></linearGradient></defs>
<ellipse cx="256" cy="472" rx="105" ry="14" fill="#AAB2BD" stroke="none" stroke-width="0" opacity=".65"/><g transform="translate(38 0) scale(.86 1)"><rect x="274" y="301" width="35" height="146" rx="13.3" fill="#202B39" stroke="#162B45" stroke-width="6" /><rect x="271" y="437" width="59" height="28" rx="13" fill="#E8E4DA" stroke="#162B45" stroke-width="6" /><rect x="203" y="301" width="35" height="146" rx="13.3" fill="#202B39" stroke="#162B45" stroke-width="6" /><rect x="191" y="437" width="59" height="28" rx="13" fill="#E8E4DA" stroke="#162B45" stroke-width="6" /><rect x="190" y="170" width="132" height="139" rx="30" fill="#294C70" stroke="#162B45" stroke-width="7" /><path d="M208 188 Q256.0 213 304 188" fill="none" stroke="#D95B55" stroke-width="8" stroke-linecap="round" stroke-linejoin="round" /><path d="M213.76 188 Q256.0 178 298.24 188" fill="none" stroke="#49B5B2" stroke-width="5" stroke-linecap="round" stroke-linejoin="round" /><path d="M256.0 177 L256.0 301" fill="none" stroke="#D95B55" stroke-width="6" stroke-linecap="round" stroke-linejoin="round" /><path d="M213.76 188 L245.44 228 M298.24 188 L266.56 228" fill="none" stroke="#49B5B2" stroke-width="7" stroke-linecap="round" stroke-linejoin="round" /><polyline points="314,204 328.0,239.0 342,274" fill="none" stroke="#162B45" stroke-width="32" stroke-linecap="round" stroke-linejoin="round"/><polyline points="314,204 328.0,239.0 342,274" fill="none" stroke="#294C70" stroke-width="24" stroke-linecap="round" stroke-linejoin="round"/><polyline points="342,274 336,324" fill="none" stroke="#162B45" stroke-width="25" stroke-linecap="round" stroke-linejoin="round"/><polyline points="342,274 336,324" fill="none" stroke="#D6A57C" stroke-width="18" stroke-linecap="round" stroke-linejoin="round"/><ellipse cx="336" cy="324" rx="11" ry="13" fill="#EAC29E" stroke="#162B45" stroke-width="5" /><polyline points="198,204 184.0,239.0 170,274" fill="none" stroke="#162B45" stroke-width="32" stroke-linecap="round" stroke-linejoin="round"/><polyline points="198,204 184.0,239.0 170,274" fill="none" stroke="#294C70" stroke-width="24" stroke-linecap="round" stroke-linejoin="round"/><polyline points="170,274 176,324" fill="none" stroke="#162B45" stroke-width="25" stroke-linecap="round" stroke-linejoin="round"/><polyline points="170,274 176,324" fill="none" stroke="#D6A57C" stroke-width="18" stroke-linecap="round" stroke-linejoin="round"/><ellipse cx="176" cy="324" rx="11" ry="13" fill="#EAC29E" stroke="#162B45" stroke-width="5" /></g><ellipse cx="269" cy="104" rx="50.4" ry="61" fill="#D6A57C" stroke="#162B45" stroke-width="7" /><g transform="translate(33.48 0) scale(.92 1)"><path d="M205 81 Q224 12 318 64 Q281 37 239 38 Q208 49 205 81 Z" fill="#17191E" stroke="#162B45" stroke-width="6" stroke-linecap="round" stroke-linejoin="round" /><path d="M247 42 Q278 46 300 65" fill="none" stroke="#45505D" stroke-width="4" stroke-linecap="round" stroke-linejoin="round" /></g><ellipse cx="254" cy="108" rx="9" ry="12" fill="#FFF8EE" stroke="#162B45" stroke-width="4" /><ellipse cx="293" cy="108" rx="7" ry="10" fill="#FFF8EE" stroke="#162B45" stroke-width="4" /><ellipse cx="257" cy="110" rx="4" ry="6" fill="#162B45" stroke="#162B45" stroke-width="0" /><ellipse cx="295" cy="110" rx="3" ry="5" fill="#162B45" stroke="#162B45" stroke-width="0" /><path d="M273 116 Q287 122 278 128" fill="none" stroke="#EAC29E" stroke-width="4" stroke-linecap="round" stroke-linejoin="round" /><path d="M252 140 Q277 156 299 135" fill="none" stroke="#162B45" stroke-width="6" stroke-linecap="round" stroke-linejoin="round" />
</svg>
