<svg xmlns="http://www.w3.org/2000/svg" width="512" height="512" viewBox="0 0 512 512">
<defs><linearGradient id="softShade" x1="0" y1="0" x2="1" y2="1"><stop offset="0" stop-color="#FFFFFF" stop-opacity=".24"/><stop offset="1" stop-color="#10243A" stop-opacity=".14"/></linearGradient></defs>
<g id="shadow" data-semantic-layer="true"><ellipse cx="256" cy="472" rx="180" ry="14" fill="#AAB2BD" stroke="none" stroke-width="0" opacity=".65"/></g>
<g id="device-wheel-left" data-semantic-layer="true"><ellipse cx="376" cy="398" rx="66" ry="66" fill="none" stroke="#162B45" stroke-width="12" /></g>
<g id="device-pushrim-left" data-semantic-layer="true"><ellipse cx="376" cy="398" rx="52" ry="52" fill="none" stroke="#7F8992" stroke-width="5" /><path d="M376 398 L428.0 398.0" fill="none" stroke="#8B949C" stroke-width="2" stroke-linecap="round" stroke-linejoin="round" /><path d="M376 398 L421.0 424.0" fill="none" stroke="#8B949C" stroke-width="2" stroke-linecap="round" stroke-linejoin="round" /><path d="M376 398 L402.0 443.0" fill="none" stroke="#8B949C" stroke-width="2" stroke-linecap="round" stroke-linejoin="round" /><path d="M376 398 L376.0 450.0" fill="none" stroke="#8B949C" stroke-width="2" stroke-linecap="round" stroke-linejoin="round" /><path d="M376 398 L350.0 443.0" fill="none" stroke="#8B949C" stroke-width="2" stroke-linecap="round" stroke-linejoin="round" /><path d="M376 398 L331.0 424.0" fill="none" stroke="#8B949C" stroke-width="2" stroke-linecap="round" stroke-linejoin="round" /><path d="M376 398 L324.0 398.0" fill="none" stroke="#8B949C" stroke-width="2" stroke-linecap="round" stroke-linejoin="round" /><path d="M376 398 L331.0 372.0" fill="none" stroke="#8B949C" stroke-width="2" stroke-linecap="round" stroke-linejoin="round" /><path d="M376 398 L350.0 353.0" fill="none" stroke="#8B949C" stroke-width="2" stroke-linecap="round" stroke-linejoin="round" /><path d="M376 398 L376.0 346.0" fill="none" stroke="#8B949C" stroke-width="2" stroke-linecap="round" stroke-linejoin="round" /><path d="M376 398 L402.0 353.0" fill="none" stroke="#8B949C" stroke-width="2" stroke-linecap="round" stroke-linejoin="round" /><path d="M376 398 L421.0 372.0" fill="none" stroke="#8B949C" stroke-width="2" stroke-linecap="round" stroke-linejoin="round" /></g>
<g id="device-wheel-right" data-semantic-layer="true"><ellipse cx="154" cy="393" rx="78" ry="78" fill="none" stroke="#162B45" stroke-width="12" /></g>
<g id="device-pushrim-right" data-semantic-layer="true"><ellipse cx="154" cy="393" rx="62" ry="62" fill="none" stroke="#7F8992" stroke-width="5" /><path d="M154 393 L216.0 393.0" fill="none" stroke="#8B949C" stroke-width="2" stroke-linecap="round" stroke-linejoin="round" /><path d="M154 393 L207.7 424.0" fill="none" stroke="#8B949C" stroke-width="2" stroke-linecap="round" stroke-linejoin="round" /><path d="M154 393 L185.0 446.7" fill="none" stroke="#8B949C" stroke-width="2" stroke-linecap="round" stroke-linejoin="round" /><path d="M154 393 L154.0 455.0" fill="none" stroke="#8B949C" stroke-width="2" stroke-linecap="round" stroke-linejoin="round" /><path d="M154 393 L123.0 446.7" fill="none" stroke="#8B949C" stroke-width="2" stroke-linecap="round" stroke-linejoin="round" /><path d="M154 393 L100.3 424.0" fill="none" stroke="#8B949C" stroke-width="2" stroke-linecap="round" stroke-linejoin="round" /><path d="M154 393 L92.0 393.0" fill="none" stroke="#8B949C" stroke-width="2" stroke-linecap="round" stroke-linejoin="round" /><path d="M154 393 L100.3 362.0" fill="none" stroke="#8B949C" stroke-width="2" stroke-linecap="round" stroke-linejoin="round" /><path d="M154 393 L123.0 339.3" fill="none" stroke="#8B949C" stroke-width="2" stroke-linecap="round" stroke-linejoin="round" /><path d="M154 393 L154.0 331.0" fill="none" stroke="#8B949C" stroke-width="2" stroke-linecap="round" stroke-linejoin="round" /><path d="M154 393 L185.0 339.3" fill="none" stroke="#8B949C" stroke-width="2" stroke-linecap="round" stroke-linejoin="round" /><path d="M154 393 L207.7 362.0" fill="none" stroke="#8B949C" stroke-width="2" stroke-linecap="round" stroke-linejoin="round" /></g>
<g id="device-wheelchair-frame" data-semantic-layer="true"><path d="M168 265 L182 381 L350 382 L362 300" fill="none" stroke="#434B52" stroke-width="12" stroke-linecap="round" stroke-linejoin="round" /><rect x="182" y="292" width="170" height="28" rx="12" fill="#252D34" stroke="#162B45" stroke-width="5" /><path d="M182 306 L170 450 M350 306 L372 450" fill="none" stroke="#5F6870" stroke-width="7" stroke-linecap="round" stroke-linejoin="round" /><ellipse cx="170" cy="451" rx="18" ry="18" fill="#242A30" stroke="#162B45" stroke-width="5" /><ellipse cx="373" cy="451" rx="18" ry="18" fill="#242A30" stroke="#162B45" stroke-width="5" /></g>
<g id="leg-left" data-semantic-layer="true"><path d="M276 300 Q294 334 278 365 L294 404" fill="none" stroke="#315D82" stroke-width="34" stroke-linecap="round" stroke-linejoin="round" /><rect x="269" y="392" width="58" height="28" rx="13" fill="#E8D8B9" stroke="#162B45" stroke-width="6" /></g>
<g id="leg-right" data-semantic-layer="true"><path d="M236 300 Q218 334 236 365 L220 404" fill="none" stroke="#315D82" stroke-width="34" stroke-linecap="round" stroke-linejoin="round" /><rect x="191" y="392" width="58" height="28" rx="13" fill="#E8D8B9" stroke="#162B45" stroke-width="6" /></g>
<g id="torso" data-semantic-layer="true"><rect x="194" y="195" width="124" height="125" rx="30" fill="#D9C6A5" stroke="#162B45" stroke-width="7" /><path d="M212 213 Q256.0 238 300 213" fill="none" stroke="#65704D" stroke-width="8" stroke-linecap="round" stroke-linejoin="round" /><path d="M216.32 213 Q256.0 203 295.68 213" fill="none" stroke="#294E72" stroke-width="5" stroke-linecap="round" stroke-linejoin="round" /><path d="M212 207 L248.56 306 M300 207 L263.44 306" fill="none" stroke="#65704D" stroke-width="8" stroke-linecap="round" stroke-linejoin="round" /><path d="M248.56 217 L263.44 217 L263.44 302 L248.56 302 Z" fill="#294E72" stroke="#162B45" stroke-width="3" stroke-linecap="round" stroke-linejoin="round" /></g>
<g id="head" data-semantic-layer="true"><ellipse cx="201.48000000000002" cy="133" rx="12" ry="20" fill="#B87542" stroke="#162B45" stroke-width="5" />
<ellipse cx="310.52" cy="133" rx="12" ry="20" fill="#B87542" stroke="#162B45" stroke-width="5" />
<ellipse cx="256" cy="128" rx="58" ry="62" fill="#B87542" stroke="#162B45" stroke-width="7" />
<path d="M214.24 98.24000000000001 Q241.5 79.64 291.96 95.75999999999999" fill="none" stroke="#D89965" stroke-width="5" stroke-linecap="round" stroke-linejoin="round" opacity=".45"/></g>
<g id="hair-front" data-semantic-layer="true"><path d="M200 110 L202 85 Q234 43 317 93 Q291 76 251 70 Q219 74 200 110 Z" fill="#171719" stroke="#162B45" stroke-width="6" stroke-linecap="round" stroke-linejoin="round" /><path d="M239 75 Q261 79 284 93" fill="none" stroke="#4B3B35" stroke-width="4" stroke-linecap="round" stroke-linejoin="round" /></g>
<g id="face-friendly" data-semantic-layer="true"><path d="M214.32 115 Q229.32 111 244.32 115" fill="none" stroke="#162B45" stroke-width="4" stroke-linecap="round" stroke-linejoin="round" />
<path d="M267.68 115 Q282.68 111 297.68 115" fill="none" stroke="#162B45" stroke-width="4" stroke-linecap="round" stroke-linejoin="round" />
<ellipse cx="229.32" cy="132" rx="12" ry="9" fill="#FFF8EE" stroke="#162B45" stroke-width="4" />
<ellipse cx="282.68" cy="132" rx="12" ry="9" fill="#FFF8EE" stroke="#162B45" stroke-width="4" />
<ellipse cx="230.32" cy="134" rx="4" ry="6" fill="#162B45" stroke="#162B45" stroke-width="0" />
<ellipse cx="283.68" cy="134" rx="4" ry="6" fill="#162B45" stroke="#162B45" stroke-width="0" />
<path d="M256 140 q-6 10 7 12" fill="none" stroke="#D89965" stroke-width="4" stroke-linecap="round" stroke-linejoin="round" />
<ellipse cx="222.36" cy="152" rx="10" ry="6" fill="#E58A78" stroke="none" stroke-width="0" opacity=".45"/>
<ellipse cx="289.64" cy="152" rx="10" ry="6" fill="#E58A78" stroke="none" stroke-width="0" opacity=".45"/>
<path d="M229 161 Q254 179 287 156" fill="none" stroke="#162B45" stroke-width="6" stroke-linecap="round" stroke-linejoin="round" />
<path d="M242 165 Q258 172 274 161" fill="none" stroke="#FFFFFF" stroke-width="3" stroke-linecap="round" stroke-linejoin="round" /></g>
<g id="face-laughing" data-semantic-layer="true" style="display:none"><path d="M217.32 132 Q229.32 138.75 241.32 132" fill="none" stroke="#162B45" stroke-width="5" stroke-linecap="round" stroke-linejoin="round" />
<path d="M270.68 132 Q282.68 138.75 294.68 132" fill="none" stroke="#162B45" stroke-width="5" stroke-linecap="round" stroke-linejoin="round" />
<path d="M215.32 112 Q229.32 106 243.32 112" fill="none" stroke="#162B45" stroke-width="5" stroke-linecap="round" stroke-linejoin="round" />
<path d="M268.68 112 Q282.68 106 296.68 112" fill="none" stroke="#162B45" stroke-width="5" stroke-linecap="round" stroke-linejoin="round" />
<path d="M256 140 q-4 10 5 12" fill="none" stroke="#D89965" stroke-width="4" stroke-linecap="round" stroke-linejoin="round" />
<path d="M228 162 Q256 203 285 161 Z" fill="#5B2730" stroke="#162B45" stroke-width="5" stroke-linecap="round" stroke-linejoin="round" />
<path d="M241 182 Q256 191 272 181" fill="none" stroke="#E98A86" stroke-width="5" stroke-linecap="round" stroke-linejoin="round" /></g>
<g id="face-surprised" data-semantic-layer="true" style="display:none"><ellipse cx="229.32" cy="132" rx="12" ry="12.15" fill="#FFF8EE" stroke="#162B45" stroke-width="4" />
<ellipse cx="230.32" cy="134" rx="4" ry="8.100000000000001" fill="#162B45" stroke="#162B45" stroke-width="0" />
<ellipse cx="282.68" cy="132" rx="12" ry="12.15" fill="#FFF8EE" stroke="#162B45" stroke-width="4" />
<ellipse cx="283.68" cy="134" rx="4" ry="8.100000000000001" fill="#162B45" stroke="#162B45" stroke-width="0" />
<path d="M215.32 103 Q229.32 97 243.32 103" fill="none" stroke="#162B45" stroke-width="5" stroke-linecap="round" stroke-linejoin="round" />
<path d="M268.68 103 Q282.68 97 296.68 103" fill="none" stroke="#162B45" stroke-width="5" stroke-linecap="round" stroke-linejoin="round" />
<path d="M256 140 q-4 10 5 12" fill="none" stroke="#D89965" stroke-width="4" stroke-linecap="round" stroke-linejoin="round" />
<ellipse cx="256" cy="169" rx="12" ry="16" fill="#5B2730" stroke="#162B45" stroke-width="5" /></g>
<g id="face-thinking" data-semantic-layer="true" style="display:none"><ellipse cx="229.32" cy="132" rx="12" ry="9.0" fill="#FFF8EE" stroke="#162B45" stroke-width="4" />
<ellipse cx="233.32" cy="134" rx="4" ry="6.0" fill="#162B45" stroke="#162B45" stroke-width="0" />
<ellipse cx="282.68" cy="132" rx="12" ry="9.0" fill="#FFF8EE" stroke="#162B45" stroke-width="4" />
<ellipse cx="286.68" cy="134" rx="4" ry="6.0" fill="#162B45" stroke="#162B45" stroke-width="0" />
<path d="M215.32 117 L243.32 110" fill="none" stroke="#162B45" stroke-width="5" stroke-linecap="round" stroke-linejoin="round" />
<path d="M268.68 110 L296.68 110" fill="none" stroke="#162B45" stroke-width="5" stroke-linecap="round" stroke-linejoin="round" />
<path d="M256 140 q-4 10 5 12" fill="none" stroke="#D89965" stroke-width="4" stroke-linecap="round" stroke-linejoin="round" />
<path d="M238 169 Q259 165 278 172" fill="none" stroke="#162B45" stroke-width="5" stroke-linecap="round" stroke-linejoin="round" /></g>
<g id="face-confident" data-semantic-layer="true" style="display:none"><ellipse cx="229.32" cy="132" rx="12" ry="5.58" fill="#FFF8EE" stroke="#162B45" stroke-width="4" />
<ellipse cx="230.32" cy="134" rx="4" ry="3.7199999999999998" fill="#162B45" stroke="#162B45" stroke-width="0" />
<ellipse cx="282.68" cy="132" rx="12" ry="5.58" fill="#FFF8EE" stroke="#162B45" stroke-width="4" />
<ellipse cx="283.68" cy="134" rx="4" ry="3.7199999999999998" fill="#162B45" stroke="#162B45" stroke-width="0" />
<path d="M215.32 117 Q229.32 111 243.32 117" fill="none" stroke="#162B45" stroke-width="5" stroke-linecap="round" stroke-linejoin="round" />
<path d="M268.68 117 Q282.68 111 296.68 117" fill="none" stroke="#162B45" stroke-width="5" stroke-linecap="round" stroke-linejoin="round" />
<path d="M256 140 q-4 10 5 12" fill="none" stroke="#D89965" stroke-width="4" stroke-linecap="round" stroke-linejoin="round" />
<path d="M232 166 Q261 188 285 161" fill="none" stroke="#162B45" stroke-width="6" stroke-linecap="round" stroke-linejoin="round" /></g>
<g id="face-sorry" data-semantic-layer="true" style="display:none"><ellipse cx="229.32" cy="132" rx="12" ry="9.0" fill="#FFF8EE" stroke="#162B45" stroke-width="4" />
<ellipse cx="230.32" cy="134" rx="4" ry="6.0" fill="#162B45" stroke="#162B45" stroke-width="0" />
<ellipse cx="282.68" cy="132" rx="12" ry="9.0" fill="#FFF8EE" stroke="#162B45" stroke-width="4" />
<ellipse cx="283.68" cy="134" rx="4" ry="6.0" fill="#162B45" stroke="#162B45" stroke-width="0" />
<path d="M215.32 114 Q231.32 108 243.32 119" fill="none" stroke="#162B45" stroke-width="5" stroke-linecap="round" stroke-linejoin="round" />
<path d="M268.68 119 Q280.68 108 296.68 114" fill="none" stroke="#162B45" stroke-width="5" stroke-linecap="round" stroke-linejoin="round" />
<path d="M256 140 q-4 10 5 12" fill="none" stroke="#D89965" stroke-width="4" stroke-linecap="round" stroke-linejoin="round" />
<path d="M232 178 Q256 159 280 178" fill="none" stroke="#162B45" stroke-width="6" stroke-linecap="round" stroke-linejoin="round" /></g>
<g id="face-excited" data-semantic-layer="true" style="display:none"><ellipse cx="229.32" cy="132" rx="12" ry="12.15" fill="#FFF8EE" stroke="#162B45" stroke-width="4" />
<ellipse cx="230.32" cy="134" rx="4" ry="8.100000000000001" fill="#162B45" stroke="#162B45" stroke-width="0" />
<ellipse cx="282.68" cy="132" rx="12" ry="12.15" fill="#FFF8EE" stroke="#162B45" stroke-width="4" />
<ellipse cx="283.68" cy="134" rx="4" ry="8.100000000000001" fill="#162B45" stroke="#162B45" stroke-width="0" />
<path d="M215.32 107 Q229.32 101 243.32 107" fill="none" stroke="#162B45" stroke-width="5" stroke-linecap="round" stroke-linejoin="round" />
<path d="M268.68 107 Q282.68 101 296.68 107" fill="none" stroke="#162B45" stroke-width="5" stroke-linecap="round" stroke-linejoin="round" />
<path d="M256 140 q-4 10 5 12" fill="none" stroke="#D89965" stroke-width="4" stroke-linecap="round" stroke-linejoin="round" />
<path d="M229 164 Q256 193 284 162" fill="none" stroke="#162B45" stroke-width="6" stroke-linecap="round" stroke-linejoin="round" /></g>
<g id="arm-left-rest" data-semantic-layer="true" style="display:none"><polyline points="310,229 324.0,265.0 338,301" fill="none" stroke="#162B45" stroke-width="32" stroke-linecap="round" stroke-linejoin="round"/><polyline points="310,229 324.0,265.0 338,301" fill="none" stroke="#D9C6A5" stroke-width="24" stroke-linecap="round" stroke-linejoin="round"/><polyline points="338,301 328,332" fill="none" stroke="#162B45" stroke-width="25" stroke-linecap="round" stroke-linejoin="round"/><polyline points="338,301 328,332" fill="none" stroke="#B87542" stroke-width="18" stroke-linecap="round" stroke-linejoin="round"/><ellipse cx="328" cy="332" rx="11" ry="13" fill="#D89965" stroke="#162B45" stroke-width="5" /></g>
<g id="arm-right-rest" data-semantic-layer="true" style="display:none"><polyline points="202,229 188.0,265.0 174,301" fill="none" stroke="#162B45" stroke-width="32" stroke-linecap="round" stroke-linejoin="round"/><polyline points="202,229 188.0,265.0 174,301" fill="none" stroke="#D9C6A5" stroke-width="24" stroke-linecap="round" stroke-linejoin="round"/><polyline points="174,301 184,332" fill="none" stroke="#162B45" stroke-width="25" stroke-linecap="round" stroke-linejoin="round"/><polyline points="174,301 184,332" fill="none" stroke="#B87542" stroke-width="18" stroke-linecap="round" stroke-linejoin="round"/><ellipse cx="184" cy="332" rx="11" ry="13" fill="#D89965" stroke="#162B45" stroke-width="5" /></g>
<g id="arm-left-greeting" data-semantic-layer="true"><polyline points="310,229 324.0,265.0 338,301" fill="none" stroke="#162B45" stroke-width="32" stroke-linecap="round" stroke-linejoin="round"/><polyline points="310,229 324.0,265.0 338,301" fill="none" stroke="#D9C6A5" stroke-width="24" stroke-linecap="round" stroke-linejoin="round"/><polyline points="338,301 328,332" fill="none" stroke="#162B45" stroke-width="25" stroke-linecap="round" stroke-linejoin="round"/><polyline points="338,301 328,332" fill="none" stroke="#B87542" stroke-width="18" stroke-linecap="round" stroke-linejoin="round"/><ellipse cx="328" cy="332" rx="13" ry="15" fill="#D89965" stroke="#162B45" stroke-width="5" /><path d="M323.8 326 L314.2 305.8" fill="none" stroke="#B87542" stroke-width="6" stroke-linecap="round" stroke-linejoin="round" /><path d="M326.6 326 L323.4 304.6" fill="none" stroke="#B87542" stroke-width="6" stroke-linecap="round" stroke-linejoin="round" /><path d="M329.4 326 L332.6 304.6" fill="none" stroke="#B87542" stroke-width="6" stroke-linecap="round" stroke-linejoin="round" /><path d="M332.2 326 L341.8 305.8" fill="none" stroke="#B87542" stroke-width="6" stroke-linecap="round" stroke-linejoin="round" /></g>
<g id="arm-right-greeting" data-semantic-layer="true"><polyline points="202,229 184.0,213.0 166,197" fill="none" stroke="#162B45" stroke-width="32" stroke-linecap="round" stroke-linejoin="round"/><polyline points="202,229 184.0,213.0 166,197" fill="none" stroke="#D9C6A5" stroke-width="24" stroke-linecap="round" stroke-linejoin="round"/><polyline points="166,197 154,139" fill="none" stroke="#162B45" stroke-width="25" stroke-linecap="round" stroke-linejoin="round"/><polyline points="166,197 154,139" fill="none" stroke="#B87542" stroke-width="18" stroke-linecap="round" stroke-linejoin="round"/><ellipse cx="154" cy="139" rx="13" ry="15" fill="#D89965" stroke="#162B45" stroke-width="5" /><path d="M149.8 133 L140.2 112.8" fill="none" stroke="#B87542" stroke-width="6" stroke-linecap="round" stroke-linejoin="round" /><path d="M152.6 133 L149.4 111.6" fill="none" stroke="#B87542" stroke-width="6" stroke-linecap="round" stroke-linejoin="round" /><path d="M155.4 133 L158.6 111.6" fill="none" stroke="#B87542" stroke-width="6" stroke-linecap="round" stroke-linejoin="round" /><path d="M158.2 133 L167.8 112.8" fill="none" stroke="#B87542" stroke-width="6" stroke-linecap="round" stroke-linejoin="round" /></g>
<g id="arm-left-farewell" data-semantic-layer="true" style="display:none"><polyline points="310,229 328.0,213.0 346,197" fill="none" stroke="#162B45" stroke-width="32" stroke-linecap="round" stroke-linejoin="round"/><polyline points="310,229 328.0,213.0 346,197" fill="none" stroke="#D9C6A5" stroke-width="24" stroke-linecap="round" stroke-linejoin="round"/><polyline points="346,197 358,139" fill="none" stroke="#162B45" stroke-width="25" stroke-linecap="round" stroke-linejoin="round"/><polyline points="346,197 358,139" fill="none" stroke="#B87542" stroke-width="18" stroke-linecap="round" stroke-linejoin="round"/><ellipse cx="358" cy="139" rx="13" ry="15" fill="#D89965" stroke="#162B45" stroke-width="5" /><path d="M353.8 133 L344.2 112.8" fill="none" stroke="#B87542" stroke-width="6" stroke-linecap="round" stroke-linejoin="round" /><path d="M356.6 133 L353.4 111.6" fill="none" stroke="#B87542" stroke-width="6" stroke-linecap="round" stroke-linejoin="round" /><path d="M359.4 133 L362.6 111.6" fill="none" stroke="#B87542" stroke-width="6" stroke-linecap="round" stroke-linejoin="round" /><path d="M362.2 133 L371.8 112.8" fill="none" stroke="#B87542" stroke-width="6" stroke-linecap="round" stroke-linejoin="round" /></g>
<g id="arm-right-farewell" data-semantic-layer="true" style="display:none"><polyline points="202,229 188.0,265.0 174,301" fill="none" stroke="#162B45" stroke-width="32" stroke-linecap="round" stroke-linejoin="round"/><polyline points="202,229 188.0,265.0 174,301" fill="none" stroke="#D9C6A5" stroke-width="24" stroke-linecap="round" stroke-linejoin="round"/><polyline points="174,301 184,332" fill="none" stroke="#162B45" stroke-width="25" stroke-linecap="round" stroke-linejoin="round"/><polyline points="174,301 184,332" fill="none" stroke="#B87542" stroke-width="18" stroke-linecap="round" stroke-linejoin="round"/><ellipse cx="184" cy="332" rx="13" ry="15" fill="#D89965" stroke="#162B45" stroke-width="5" /><path d="M179.8 326 L170.2 305.8" fill="none" stroke="#B87542" stroke-width="6" stroke-linecap="round" stroke-linejoin="round" /><path d="M182.6 326 L179.4 304.6" fill="none" stroke="#B87542" stroke-width="6" stroke-linecap="round" stroke-linejoin="round" /><path d="M185.4 326 L188.6 304.6" fill="none" stroke="#B87542" stroke-width="6" stroke-linecap="round" stroke-linejoin="round" /><path d="M188.2 326 L197.8 305.8" fill="none" stroke="#B87542" stroke-width="6" stroke-linecap="round" stroke-linejoin="round" /></g>
<g id="arm-left-agreement" data-semantic-layer="true" style="display:none"><polyline points="310,229 320.0,246.5 330,264" fill="none" stroke="#162B45" stroke-width="32" stroke-linecap="round" stroke-linejoin="round"/><polyline points="310,229 320.0,246.5 330,264" fill="none" stroke="#D9C6A5" stroke-width="24" stroke-linecap="round" stroke-linejoin="round"/><polyline points="330,264 301,239" fill="none" stroke="#162B45" stroke-width="25" stroke-linecap="round" stroke-linejoin="round"/><polyline points="330,264 301,239" fill="none" stroke="#B87542" stroke-width="18" stroke-linecap="round" stroke-linejoin="round"/><ellipse cx="301" cy="239" rx="11" ry="13" fill="#D89965" stroke="#162B45" stroke-width="5" /></g>
<g id="arm-right-agreement" data-semantic-layer="true" style="display:none"><polyline points="202,229 192.0,246.5 182,264" fill="none" stroke="#162B45" stroke-width="32" stroke-linecap="round" stroke-linejoin="round"/><polyline points="202,229 192.0,246.5 182,264" fill="none" stroke="#D9C6A5" stroke-width="24" stroke-linecap="round" stroke-linejoin="round"/><polyline points="182,264 211,239" fill="none" stroke="#162B45" stroke-width="25" stroke-linecap="round" stroke-linejoin="round"/><polyline points="182,264 211,239" fill="none" stroke="#B87542" stroke-width="18" stroke-linecap="round" stroke-linejoin="round"/><ellipse cx="211" cy="239" rx="11" ry="13" fill="#D89965" stroke="#162B45" stroke-width="5" /></g>
<g id="arm-left-disagreement" data-semantic-layer="true" style="display:none"><polyline points="310,229 318.0,251.5 326,274" fill="none" stroke="#162B45" stroke-width="32" stroke-linecap="round" stroke-linejoin="round"/><polyline points="310,229 318.0,251.5 326,274" fill="none" stroke="#D9C6A5" stroke-width="24" stroke-linecap="round" stroke-linejoin="round"/><polyline points="326,274 218,302" fill="none" stroke="#162B45" stroke-width="25" stroke-linecap="round" stroke-linejoin="round"/><polyline points="326,274 218,302" fill="none" stroke="#B87542" stroke-width="18" stroke-linecap="round" stroke-linejoin="round"/><ellipse cx="218" cy="302" rx="11" ry="13" fill="#D89965" stroke="#162B45" stroke-width="5" /></g>
<g id="arm-right-disagreement" data-semantic-layer="true" style="display:none"><polyline points="202,229 194.0,251.5 186,274" fill="none" stroke="#162B45" stroke-width="32" stroke-linecap="round" stroke-linejoin="round"/><polyline points="202,229 194.0,251.5 186,274" fill="none" stroke="#D9C6A5" stroke-width="24" stroke-linecap="round" stroke-linejoin="round"/><polyline points="186,274 294,302" fill="none" stroke="#162B45" stroke-width="25" stroke-linecap="round" stroke-linejoin="round"/><polyline points="186,274 294,302" fill="none" stroke="#B87542" stroke-width="18" stroke-linecap="round" stroke-linejoin="round"/><ellipse cx="294" cy="302" rx="11" ry="13" fill="#D89965" stroke="#162B45" stroke-width="5" /></g>
<g id="arm-left-gratitude" data-semantic-layer="true" style="display:none"><polyline points="310,229 319.0,252.5 328,276" fill="none" stroke="#162B45" stroke-width="32" stroke-linecap="round" stroke-linejoin="round"/><polyline points="310,229 319.0,252.5 328,276" fill="none" stroke="#D9C6A5" stroke-width="24" stroke-linecap="round" stroke-linejoin="round"/><polyline points="328,276 266,291" fill="none" stroke="#162B45" stroke-width="25" stroke-linecap="round" stroke-linejoin="round"/><polyline points="328,276 266,291" fill="none" stroke="#B87542" stroke-width="18" stroke-linecap="round" stroke-linejoin="round"/><ellipse cx="266" cy="291" rx="11" ry="13" fill="#D89965" stroke="#162B45" stroke-width="5" /></g>
<g id="arm-right-gratitude" data-semantic-layer="true" style="display:none"><polyline points="202,229 193.0,252.5 184,276" fill="none" stroke="#162B45" stroke-width="32" stroke-linecap="round" stroke-linejoin="round"/><polyline points="202,229 193.0,252.5 184,276" fill="none" stroke="#D9C6A5" stroke-width="24" stroke-linecap="round" stroke-linejoin="round"/><polyline points="184,276 246,291" fill="none" stroke="#162B45" stroke-width="25" stroke-linecap="round" stroke-linejoin="round"/><polyline points="184,276 246,291" fill="none" stroke="#B87542" stroke-width="18" stroke-linecap="round" stroke-linejoin="round"/><ellipse cx="246" cy="291" rx="11" ry="13" fill="#D89965" stroke="#162B45" stroke-width="5" /></g>
<g id="arm-left-concern" data-semantic-layer="true" style="display:none"><polyline points="310,229 322.0,240.0 334,251" fill="none" stroke="#162B45" stroke-width="32" stroke-linecap="round" stroke-linejoin="round"/><polyline points="310,229 322.0,240.0 334,251" fill="none" stroke="#D9C6A5" stroke-width="24" stroke-linecap="round" stroke-linejoin="round"/><polyline points="334,251 294,171" fill="none" stroke="#162B45" stroke-width="25" stroke-linecap="round" stroke-linejoin="round"/><polyline points="334,251 294,171" fill="none" stroke="#B87542" stroke-width="18" stroke-linecap="round" stroke-linejoin="round"/><ellipse cx="294" cy="171" rx="11" ry="13" fill="#D89965" stroke="#162B45" stroke-width="5" /></g>
<g id="arm-right-concern" data-semantic-layer="true" style="display:none"><polyline points="202,229 190.0,240.0 178,251" fill="none" stroke="#162B45" stroke-width="32" stroke-linecap="round" stroke-linejoin="round"/><polyline points="202,229 190.0,240.0 178,251" fill="none" stroke="#D9C6A5" stroke-width="24" stroke-linecap="round" stroke-linejoin="round"/><polyline points="178,251 218,171" fill="none" stroke="#162B45" stroke-width="25" stroke-linecap="round" stroke-linejoin="round"/><polyline points="178,251 218,171" fill="none" stroke="#B87542" stroke-width="18" stroke-linecap="round" stroke-linejoin="round"/><ellipse cx="218" cy="171" rx="11" ry="13" fill="#D89965" stroke="#162B45" stroke-width="5" /></g>
<g id="arm-left-surprise" data-semantic-layer="true" style="display:none"><polyline points="310,229 324.0,233.0 338,237" fill="none" stroke="#162B45" stroke-width="32" stroke-linecap="round" stroke-linejoin="round"/><polyline points="310,229 324.0,233.0 338,237" fill="none" stroke="#D9C6A5" stroke-width="24" stroke-linecap="round" stroke-linejoin="round"/><polyline points="338,237 314,158" fill="none" stroke="#162B45" stroke-width="25" stroke-linecap="round" stroke-linejoin="round"/><polyline points="338,237 314,158" fill="none" stroke="#B87542" stroke-width="18" stroke-linecap="round" stroke-linejoin="round"/><ellipse cx="314" cy="158" rx="13" ry="15" fill="#D89965" stroke="#162B45" stroke-width="5" /><path d="M309.8 152 L300.2 131.8" fill="none" stroke="#B87542" stroke-width="6" stroke-linecap="round" stroke-linejoin="round" /><path d="M312.6 152 L309.4 130.6" fill="none" stroke="#B87542" stroke-width="6" stroke-linecap="round" stroke-linejoin="round" /><path d="M315.4 152 L318.6 130.6" fill="none" stroke="#B87542" stroke-width="6" stroke-linecap="round" stroke-linejoin="round" /><path d="M318.2 152 L327.8 131.8" fill="none" stroke="#B87542" stroke-width="6" stroke-linecap="round" stroke-linejoin="round" /></g>
<g id="arm-right-surprise" data-semantic-layer="true" style="display:none"><polyline points="202,229 188.0,233.0 174,237" fill="none" stroke="#162B45" stroke-width="32" stroke-linecap="round" stroke-linejoin="round"/><polyline points="202,229 188.0,233.0 174,237" fill="none" stroke="#D9C6A5" stroke-width="24" stroke-linecap="round" stroke-linejoin="round"/><polyline points="174,237 198,158" fill="none" stroke="#162B45" stroke-width="25" stroke-linecap="round" stroke-linejoin="round"/><polyline points="174,237 198,158" fill="none" stroke="#B87542" stroke-width="18" stroke-linecap="round" stroke-linejoin="round"/><ellipse cx="198" cy="158" rx="13" ry="15" fill="#D89965" stroke="#162B45" stroke-width="5" /><path d="M193.8 152 L184.2 131.8" fill="none" stroke="#B87542" stroke-width="6" stroke-linecap="round" stroke-linejoin="round" /><path d="M196.6 152 L193.4 130.6" fill="none" stroke="#B87542" stroke-width="6" stroke-linecap="round" stroke-linejoin="round" /><path d="M199.4 152 L202.6 130.6" fill="none" stroke="#B87542" stroke-width="6" stroke-linecap="round" stroke-linejoin="round" /><path d="M202.2 152 L211.8 131.8" fill="none" stroke="#B87542" stroke-width="6" stroke-linecap="round" stroke-linejoin="round" /></g>
<g id="arm-left-celebration" data-semantic-layer="true" style="display:none"><polyline points="310,229 327.0,208.0 344,187" fill="none" stroke="#162B45" stroke-width="32" stroke-linecap="round" stroke-linejoin="round"/><polyline points="310,229 327.0,208.0 344,187" fill="none" stroke="#D9C6A5" stroke-width="24" stroke-linecap="round" stroke-linejoin="round"/><polyline points="344,187 362,125" fill="none" stroke="#162B45" stroke-width="25" stroke-linecap="round" stroke-linejoin="round"/><polyline points="344,187 362,125" fill="none" stroke="#B87542" stroke-width="18" stroke-linecap="round" stroke-linejoin="round"/><ellipse cx="362" cy="125" rx="13" ry="15" fill="#D89965" stroke="#162B45" stroke-width="5" /><path d="M357.8 119 L348.2 98.8" fill="none" stroke="#B87542" stroke-width="6" stroke-linecap="round" stroke-linejoin="round" /><path d="M360.6 119 L357.4 97.6" fill="none" stroke="#B87542" stroke-width="6" stroke-linecap="round" stroke-linejoin="round" /><path d="M363.4 119 L366.6 97.6" fill="none" stroke="#B87542" stroke-width="6" stroke-linecap="round" stroke-linejoin="round" /><path d="M366.2 119 L375.8 98.8" fill="none" stroke="#B87542" stroke-width="6" stroke-linecap="round" stroke-linejoin="round" /></g>
<g id="arm-right-celebration" data-semantic-layer="true" style="display:none"><polyline points="202,229 185.0,208.0 168,187" fill="none" stroke="#162B45" stroke-width="32" stroke-linecap="round" stroke-linejoin="round"/><polyline points="202,229 185.0,208.0 168,187" fill="none" stroke="#D9C6A5" stroke-width="24" stroke-linecap="round" stroke-linejoin="round"/><polyline points="168,187 150,125" fill="none" stroke="#162B45" stroke-width="25" stroke-linecap="round" stroke-linejoin="round"/><polyline points="168,187 150,125" fill="none" stroke="#B87542" stroke-width="18" stroke-linecap="round" stroke-linejoin="round"/><ellipse cx="150" cy="125" rx="13" ry="15" fill="#D89965" stroke="#162B45" stroke-width="5" /><path d="M145.8 119 L136.2 98.8" fill="none" stroke="#B87542" stroke-width="6" stroke-linecap="round" stroke-linejoin="round" /><path d="M148.6 119 L145.4 97.6" fill="none" stroke="#B87542" stroke-width="6" stroke-linecap="round" stroke-linejoin="round" /><path d="M151.4 119 L154.6 97.6" fill="none" stroke="#B87542" stroke-width="6" stroke-linecap="round" stroke-linejoin="round" /><path d="M154.2 119 L163.8 98.8" fill="none" stroke="#B87542" stroke-width="6" stroke-linecap="round" stroke-linejoin="round" /></g>
<g id="device-wheelchair-footrest" data-semantic-layer="true"><path d="M208 412 L340 412 L354 431 L225 431 Z" fill="#353D44" stroke="#162B45" stroke-width="6" stroke-linecap="round" stroke-linejoin="round" /></g>
</svg>
