<svg xmlns="http://www.w3.org/2000/svg" width="512" height="512" viewBox="0 0 512 512">
<defs><linearGradient id="softShade" x1="0" y1="0" x2="1" y2="1"><stop offset="0" stop-color="#FFFFFF" stop-opacity=".24"/><stop offset="1" stop-color="#10243A" stop-opacity=".14"/></linearGradient></defs>
<rect x="186" y="178" width="140" height="155" rx="30" fill="#643A78" stroke="#162B45" stroke-width="7" /><path d="M204 196 Q256.0 221 308 196" fill="none" stroke="#E87522" stroke-width="8" stroke-linecap="round" stroke-linejoin="round" /><path d="M211.2 196 Q256.0 186 300.8 196" fill="none" stroke="#F2A13A" stroke-width="5" stroke-linecap="round" stroke-linejoin="round" /><path d="M194 226 Q256.0 256 318 226" fill="none" stroke="#E87522" stroke-width="10" stroke-linecap="round" stroke-linejoin="round" /><path d="M211 236 Q256.0 268 301 236" fill="none" stroke="#F2A13A" stroke-width="5" stroke-linecap="round" stroke-linejoin="round" /><path d="M228 233 l7 7 l-7 7 l-7 -7 Z" fill="#F2A13A" stroke="none" stroke-width="0" stroke-linecap="round" stroke-linejoin="round" /><path d="M248 233 l7 7 l-7 7 l-7 -7 Z" fill="#F2A13A" stroke="none" stroke-width="0" stroke-linecap="round" stroke-linejoin="round" /><path d="M268 233 l7 7 l-7 7 l-7 -7 Z" fill="#F2A13A" stroke="none" stroke-width="0" stroke-linecap="round" stroke-linejoin="round" /><path d="M288 233 l7 7 l-7 7 l-7 -7 Z" fill="#F2A13A" stroke="none" stroke-width="0" stroke-linecap="round" stroke-linejoin="round" />
</svg>
