<svg xmlns="http://www.w3.org/2000/svg" width="512" height="512" viewBox="0 0 512 512">
<defs><linearGradient id="softShade" x1="0" y1="0" x2="1" y2="1"><stop offset="0" stop-color="#FFFFFF" stop-opacity=".24"/><stop offset="1" stop-color="#10243A" stop-opacity=".14"/></linearGradient></defs>
<ellipse cx="208" cy="56" rx="25" ry="25" fill="#B8B1AA" stroke="#162B45" stroke-width="4" /><path d="M198.0 56 q10.0 -12.5 20.0 0" fill="none" stroke="#E9E4DD" stroke-width="3" stroke-linecap="round" stroke-linejoin="round" /><ellipse cx="231" cy="39" rx="24" ry="24" fill="#B8B1AA" stroke="#162B45" stroke-width="4" /><path d="M221.4 39 q9.600000000000001 -12.0 19.200000000000003 0" fill="none" stroke="#E9E4DD" stroke-width="3" stroke-linecap="round" stroke-linejoin="round" /><ellipse cx="256" cy="34" rx="25" ry="25" fill="#B8B1AA" stroke="#162B45" stroke-width="4" /><path d="M246.0 34 q10.0 -12.5 20.0 0" fill="none" stroke="#E9E4DD" stroke-width="3" stroke-linecap="round" stroke-linejoin="round" /><ellipse cx="282" cy="40" rx="24" ry="24" fill="#B8B1AA" stroke="#162B45" stroke-width="4" /><path d="M272.4 40 q9.600000000000001 -12.0 19.200000000000003 0" fill="none" stroke="#E9E4DD" stroke-width="3" stroke-linecap="round" stroke-linejoin="round" /><ellipse cx="305" cy="58" rx="25" ry="25" fill="#B8B1AA" stroke="#162B45" stroke-width="4" /><path d="M295.0 58 q10.0 -12.5 20.0 0" fill="none" stroke="#E9E4DD" stroke-width="3" stroke-linecap="round" stroke-linejoin="round" /><ellipse cx="200" cy="82" rx="22" ry="22" fill="#B8B1AA" stroke="#162B45" stroke-width="4" /><path d="M191.2 82 q8.8 -11.0 17.6 0" fill="none" stroke="#E9E4DD" stroke-width="3" stroke-linecap="round" stroke-linejoin="round" /><ellipse cx="311" cy="84" rx="22" ry="22" fill="#B8B1AA" stroke="#162B45" stroke-width="4" /><path d="M302.2 84 q8.8 -11.0 17.6 0" fill="none" stroke="#E9E4DD" stroke-width="3" stroke-linecap="round" stroke-linejoin="round" />
</svg>
