<svg xmlns="http://www.w3.org/2000/svg" width="512" height="512" viewBox="0 0 512 512">
<defs><linearGradient id="softShade" x1="0" y1="0" x2="1" y2="1"><stop offset="0" stop-color="#FFFFFF" stop-opacity=".24"/><stop offset="1" stop-color="#10243A" stop-opacity=".14"/></linearGradient></defs>
<path d="M221.2 110 Q230.2 118.25 239.2 110" fill="none" stroke="#162B45" stroke-width="5" stroke-linecap="round" stroke-linejoin="round" />
<path d="M272.8 110 Q281.8 118.25 290.8 110" fill="none" stroke="#162B45" stroke-width="5" stroke-linecap="round" stroke-linejoin="round" />
<path d="M216.2 90 Q230.2 84 244.2 90" fill="none" stroke="#162B45" stroke-width="5" stroke-linecap="round" stroke-linejoin="round" />
<path d="M267.8 90 Q281.8 84 295.8 90" fill="none" stroke="#162B45" stroke-width="5" stroke-linecap="round" stroke-linejoin="round" />
<path d="M256 118 q-4 10 5 12" fill="none" stroke="#965F43" stroke-width="4" stroke-linecap="round" stroke-linejoin="round" />
<path d="M228 140 Q256 181 285 139 Z" fill="#5B2730" stroke="#162B45" stroke-width="5" stroke-linecap="round" stroke-linejoin="round" />
<path d="M241 160 Q256 169 272 159" fill="none" stroke="#E98A86" stroke-width="5" stroke-linecap="round" stroke-linejoin="round" />
<ellipse cx="230.2" cy="110" rx="19" ry="17" fill="none" stroke="#162B45" stroke-width="4" />
<ellipse cx="281.8" cy="110" rx="19" ry="17" fill="none" stroke="#162B45" stroke-width="4" />
<path d="M249.2 110 L262.8 110" fill="none" stroke="#162B45" stroke-width="4" stroke-linecap="round" stroke-linejoin="round" />
</svg>
