<svg xmlns="http://www.w3.org/2000/svg" width="512" height="512" viewBox="0 0 512 512">
<g transform="translate(242 274) scale(1.04)"><defs><linearGradient id="head" x1="0" y1="0" x2="0" y2="1"><stop offset="0" stop-color="#D99148"/><stop offset="1" stop-color="#A75C22"/></linearGradient></defs><path d="M-76 -12 Q-88 -62 -70 -95 Q-44 -80 -26 -73 Q0 -90 26 -73 Q44 -80 70 -95 Q88 -62 76 -12 Q65 44 0 48 Q-65 44 -76 -12 Z" fill="url(#head)" stroke="#173257" stroke-width="8" stroke-linejoin="round"/><path d="M-70 -28 Q-51 -76 -3 -51 Q-5 -5 -42 15 Q-69 7 -70 -28 Z M70 -28 Q51 -76 3 -51 Q5 -5 42 15 Q69 7 70 -28 Z" fill="#FFF1CC"/><path d="M-8 -6 L0 5 L8 -6 L0 15 Z" fill="#EE8B20" stroke="#173257" stroke-width="3"/><path d="M-60 -64 Q-46 -76 -31 -69 M31 -69 Q46 -76 60 -64" fill="none" stroke="#F5B92C" stroke-width="5" opacity=".55" stroke-linecap="round"/></g>
</svg>
