<svg xmlns="http://www.w3.org/2000/svg" width="512" height="512" viewBox="0 0 512 512">
<g transform="translate(177 249) scale(0.76)"><path d="M-55 49 Q-105 35 -121 0 Q-85 -8 -46 14" fill="#653317" stroke="#173257" stroke-width="8" stroke-linejoin="round"/><path d="M55 49 Q104 34 119 0 Q84 -8 46 14" fill="#653317" stroke="#173257" stroke-width="8" stroke-linejoin="round"/><path d="M-69 48 Q-85 68 -76 91 M69 48 Q85 68 76 91" fill="none" stroke="#D58A3D" stroke-width="8" stroke-linecap="round"/><path d="M-61 45 Q-74 66 -66 79 M61 45 Q74 66 66 79" fill="none" stroke="#FFF1CC" stroke-width="4" opacity=".7"/></g><g transform="translate(335 249) scale(0.76)"><path d="M-55 49 Q-105 35 -121 0 Q-85 -8 -46 14" fill="#653317" stroke="#173257" stroke-width="8" stroke-linejoin="round"/><path d="M55 49 Q104 34 119 0 Q84 -8 46 14" fill="#653317" stroke="#173257" stroke-width="8" stroke-linejoin="round"/><path d="M-69 48 Q-85 68 -76 91 M69 48 Q85 68 76 91" fill="none" stroke="#D58A3D" stroke-width="8" stroke-linecap="round"/><path d="M-61 45 Q-74 66 -66 79 M61 45 Q74 66 66 79" fill="none" stroke="#FFF1CC" stroke-width="4" opacity=".7"/></g>
</svg>
