<svg xmlns="http://www.w3.org/2000/svg" width="512" height="512" viewBox="0 0 512 512">
<defs><linearGradient id="softShade" x1="0" y1="0" x2="1" y2="1"><stop offset="0" stop-color="#FFFFFF" stop-opacity=".24"/><stop offset="1" stop-color="#10243A" stop-opacity=".14"/></linearGradient></defs>
<g id="shadow" data-semantic-layer="true"><ellipse cx="256" cy="472" rx="105" ry="14" fill="#AAB2BD" stroke="none" stroke-width="0" opacity=".65"/></g>
<g id="leg-left" data-semantic-layer="true"><rect x="272" y="318" width="39" height="129" rx="14.82" fill="#243B59" stroke="#162B45" stroke-width="6" /><rect x="269" y="437" width="63" height="28" rx="13" fill="#D9874E" stroke="#162B45" stroke-width="6" /></g>
<g id="leg-right" data-semantic-layer="true"><rect x="201" y="318" width="39" height="129" rx="14.82" fill="#243B59" stroke="#162B45" stroke-width="6" /><rect x="189" y="437" width="63" height="28" rx="13" fill="#D9874E" stroke="#162B45" stroke-width="6" /></g>
<g id="torso" data-semantic-layer="true"><rect x="173" y="181" width="166" height="145" rx="30" fill="#C95449" stroke="#162B45" stroke-width="7" /><path d="M191 199 Q256.0 224 321 199" fill="none" stroke="#F0B63B" stroke-width="8" stroke-linecap="round" stroke-linejoin="round" /><path d="M202.88 199 Q256.0 189 309.12 199" fill="none" stroke="#2CA59B" stroke-width="5" stroke-linecap="round" stroke-linejoin="round" /><ellipse cx="256.0" cy="250.6" rx="22" ry="22" fill="#F0B63B" stroke="#162B45" stroke-width="4" /><path d="M245.0 250.6 L267.0 250.6" fill="none" stroke="#2CA59B" stroke-width="5" stroke-linecap="round" stroke-linejoin="round" /></g>
<g id="head" data-semantic-layer="true"><ellipse cx="197.72" cy="113" rx="12" ry="20" fill="#AD704C" stroke="#162B45" stroke-width="5" />
<ellipse cx="314.28" cy="113" rx="12" ry="20" fill="#AD704C" stroke="#162B45" stroke-width="5" />
<ellipse cx="256" cy="108" rx="62" ry="66" fill="#AD704C" stroke="#162B45" stroke-width="7" />
<path d="M211.36 76.32 Q240.5 56.519999999999996 294.44 73.68" fill="none" stroke="#D19369" stroke-width="5" stroke-linecap="round" stroke-linejoin="round" opacity=".45"/></g>
<g id="hair-front" data-semantic-layer="true"><ellipse cx="198" cy="66" rx="27" ry="27" fill="#2A1917" stroke="#162B45" stroke-width="4" /><ellipse cx="218" cy="42" rx="28" ry="28" fill="#2A1917" stroke="#162B45" stroke-width="4" /><ellipse cx="248" cy="32" rx="29" ry="29" fill="#2A1917" stroke="#162B45" stroke-width="4" /><ellipse cx="280" cy="38" rx="30" ry="30" fill="#2A1917" stroke="#162B45" stroke-width="4" /><ellipse cx="308" cy="60" rx="29" ry="29" fill="#2A1917" stroke="#162B45" stroke-width="4" /><ellipse cx="194" cy="96" rx="27" ry="27" fill="#2A1917" stroke="#162B45" stroke-width="4" /><ellipse cx="316" cy="95" rx="27" ry="27" fill="#2A1917" stroke="#162B45" stroke-width="4" /></g>
<g id="face-friendly" data-semantic-layer="true"><path d="M215.34 94 Q229.34 87 243.34 94" fill="none" stroke="#162B45" stroke-width="5" stroke-linecap="round" stroke-linejoin="round" />
<path d="M268.66 94 Q282.66 87 296.66 94" fill="none" stroke="#162B45" stroke-width="5" stroke-linecap="round" stroke-linejoin="round" />
<ellipse cx="229.34" cy="112" rx="10" ry="12" fill="#FFF8EE" stroke="#162B45" stroke-width="4" />
<ellipse cx="282.66" cy="112" rx="10" ry="12" fill="#FFF8EE" stroke="#162B45" stroke-width="4" />
<ellipse cx="230.34" cy="114" rx="4" ry="6" fill="#162B45" stroke="#162B45" stroke-width="0" />
<ellipse cx="283.66" cy="114" rx="4" ry="6" fill="#162B45" stroke="#162B45" stroke-width="0" />
<path d="M256 120 q-4 10 4 12" fill="none" stroke="#D19369" stroke-width="4" stroke-linecap="round" stroke-linejoin="round" />
<ellipse cx="220.04" cy="132" rx="10" ry="6" fill="#E58A78" stroke="none" stroke-width="0" opacity=".45"/>
<ellipse cx="291.96" cy="132" rx="10" ry="6" fill="#E58A78" stroke="none" stroke-width="0" opacity=".45"/>
<path d="M231 143 Q256 163 283 139" fill="none" stroke="#162B45" stroke-width="6" stroke-linecap="round" stroke-linejoin="round" />
<path d="M241 147 Q256 156 272 144" fill="none" stroke="#FFFFFF" stroke-width="3" stroke-linecap="round" stroke-linejoin="round" /></g>
<g id="face-laughing" data-semantic-layer="true" style="display:none"><path d="M219.34 112 Q229.34 121.0 239.34 112" fill="none" stroke="#162B45" stroke-width="5" stroke-linecap="round" stroke-linejoin="round" />
<path d="M272.66 112 Q282.66 121.0 292.66 112" fill="none" stroke="#162B45" stroke-width="5" stroke-linecap="round" stroke-linejoin="round" />
<path d="M215.34 92 Q229.34 86 243.34 92" fill="none" stroke="#162B45" stroke-width="5" stroke-linecap="round" stroke-linejoin="round" />
<path d="M268.66 92 Q282.66 86 296.66 92" fill="none" stroke="#162B45" stroke-width="5" stroke-linecap="round" stroke-linejoin="round" />
<path d="M256 120 q-4 10 5 12" fill="none" stroke="#D19369" stroke-width="4" stroke-linecap="round" stroke-linejoin="round" />
<path d="M228 142 Q256 183 285 141 Z" fill="#5B2730" stroke="#162B45" stroke-width="5" stroke-linecap="round" stroke-linejoin="round" />
<path d="M241 162 Q256 171 272 161" fill="none" stroke="#E98A86" stroke-width="5" stroke-linecap="round" stroke-linejoin="round" /></g>
<g id="face-surprised" data-semantic-layer="true" style="display:none"><ellipse cx="229.34" cy="112" rx="10" ry="16.200000000000003" fill="#FFF8EE" stroke="#162B45" stroke-width="4" />
<ellipse cx="230.34" cy="114" rx="4" ry="8.100000000000001" fill="#162B45" stroke="#162B45" stroke-width="0" />
<ellipse cx="282.66" cy="112" rx="10" ry="16.200000000000003" fill="#FFF8EE" stroke="#162B45" stroke-width="4" />
<ellipse cx="283.66" cy="114" rx="4" ry="8.100000000000001" fill="#162B45" stroke="#162B45" stroke-width="0" />
<path d="M215.34 83 Q229.34 77 243.34 83" fill="none" stroke="#162B45" stroke-width="5" stroke-linecap="round" stroke-linejoin="round" />
<path d="M268.66 83 Q282.66 77 296.66 83" fill="none" stroke="#162B45" stroke-width="5" stroke-linecap="round" stroke-linejoin="round" />
<path d="M256 120 q-4 10 5 12" fill="none" stroke="#D19369" stroke-width="4" stroke-linecap="round" stroke-linejoin="round" />
<ellipse cx="256" cy="149" rx="12" ry="16" fill="#5B2730" stroke="#162B45" stroke-width="5" /></g>
<g id="face-thinking" data-semantic-layer="true" style="display:none"><ellipse cx="229.34" cy="112" rx="10" ry="12.0" fill="#FFF8EE" stroke="#162B45" stroke-width="4" />
<ellipse cx="233.34" cy="114" rx="4" ry="6.0" fill="#162B45" stroke="#162B45" stroke-width="0" />
<ellipse cx="282.66" cy="112" rx="10" ry="12.0" fill="#FFF8EE" stroke="#162B45" stroke-width="4" />
<ellipse cx="286.66" cy="114" rx="4" ry="6.0" fill="#162B45" stroke="#162B45" stroke-width="0" />
<path d="M215.34 97 L243.34 90" fill="none" stroke="#162B45" stroke-width="5" stroke-linecap="round" stroke-linejoin="round" />
<path d="M268.66 90 L296.66 90" fill="none" stroke="#162B45" stroke-width="5" stroke-linecap="round" stroke-linejoin="round" />
<path d="M256 120 q-4 10 5 12" fill="none" stroke="#D19369" stroke-width="4" stroke-linecap="round" stroke-linejoin="round" />
<path d="M238 149 Q259 145 278 152" fill="none" stroke="#162B45" stroke-width="5" stroke-linecap="round" stroke-linejoin="round" /></g>
<g id="face-confident" data-semantic-layer="true" style="display:none"><ellipse cx="229.34" cy="112" rx="10" ry="7.4399999999999995" fill="#FFF8EE" stroke="#162B45" stroke-width="4" />
<ellipse cx="230.34" cy="114" rx="4" ry="3.7199999999999998" fill="#162B45" stroke="#162B45" stroke-width="0" />
<ellipse cx="282.66" cy="112" rx="10" ry="7.4399999999999995" fill="#FFF8EE" stroke="#162B45" stroke-width="4" />
<ellipse cx="283.66" cy="114" rx="4" ry="3.7199999999999998" fill="#162B45" stroke="#162B45" stroke-width="0" />
<path d="M215.34 97 Q229.34 91 243.34 97" fill="none" stroke="#162B45" stroke-width="5" stroke-linecap="round" stroke-linejoin="round" />
<path d="M268.66 97 Q282.66 91 296.66 97" fill="none" stroke="#162B45" stroke-width="5" stroke-linecap="round" stroke-linejoin="round" />
<path d="M256 120 q-4 10 5 12" fill="none" stroke="#D19369" stroke-width="4" stroke-linecap="round" stroke-linejoin="round" />
<path d="M232 146 Q261 168 285 141" fill="none" stroke="#162B45" stroke-width="6" stroke-linecap="round" stroke-linejoin="round" /></g>
<g id="face-sorry" data-semantic-layer="true" style="display:none"><ellipse cx="229.34" cy="112" rx="10" ry="12.0" fill="#FFF8EE" stroke="#162B45" stroke-width="4" />
<ellipse cx="230.34" cy="114" rx="4" ry="6.0" fill="#162B45" stroke="#162B45" stroke-width="0" />
<ellipse cx="282.66" cy="112" rx="10" ry="12.0" fill="#FFF8EE" stroke="#162B45" stroke-width="4" />
<ellipse cx="283.66" cy="114" rx="4" ry="6.0" fill="#162B45" stroke="#162B45" stroke-width="0" />
<path d="M215.34 94 Q231.34 88 243.34 99" fill="none" stroke="#162B45" stroke-width="5" stroke-linecap="round" stroke-linejoin="round" />
<path d="M268.66 99 Q280.66 88 296.66 94" fill="none" stroke="#162B45" stroke-width="5" stroke-linecap="round" stroke-linejoin="round" />
<path d="M256 120 q-4 10 5 12" fill="none" stroke="#D19369" stroke-width="4" stroke-linecap="round" stroke-linejoin="round" />
<path d="M232 158 Q256 139 280 158" fill="none" stroke="#162B45" stroke-width="6" stroke-linecap="round" stroke-linejoin="round" /></g>
<g id="face-excited" data-semantic-layer="true" style="display:none"><ellipse cx="229.34" cy="112" rx="10" ry="16.200000000000003" fill="#FFF8EE" stroke="#162B45" stroke-width="4" />
<ellipse cx="230.34" cy="114" rx="4" ry="8.100000000000001" fill="#162B45" stroke="#162B45" stroke-width="0" />
<ellipse cx="282.66" cy="112" rx="10" ry="16.200000000000003" fill="#FFF8EE" stroke="#162B45" stroke-width="4" />
<ellipse cx="283.66" cy="114" rx="4" ry="8.100000000000001" fill="#162B45" stroke="#162B45" stroke-width="0" />
<path d="M215.34 87 Q229.34 81 243.34 87" fill="none" stroke="#162B45" stroke-width="5" stroke-linecap="round" stroke-linejoin="round" />
<path d="M268.66 87 Q282.66 81 296.66 87" fill="none" stroke="#162B45" stroke-width="5" stroke-linecap="round" stroke-linejoin="round" />
<path d="M256 120 q-4 10 5 12" fill="none" stroke="#D19369" stroke-width="4" stroke-linecap="round" stroke-linejoin="round" />
<path d="M229 144 Q256 173 284 142" fill="none" stroke="#162B45" stroke-width="6" stroke-linecap="round" stroke-linejoin="round" /></g>
<g id="arm-left-rest" data-semantic-layer="true" style="display:none"><polyline points="331,215 345.0,250.0 359,285" fill="none" stroke="#162B45" stroke-width="32" stroke-linecap="round" stroke-linejoin="round"/><polyline points="331,215 345.0,250.0 359,285" fill="none" stroke="#C95449" stroke-width="24" stroke-linecap="round" stroke-linejoin="round"/><polyline points="359,285 353,335" fill="none" stroke="#162B45" stroke-width="25" stroke-linecap="round" stroke-linejoin="round"/><polyline points="359,285 353,335" fill="none" stroke="#AD704C" stroke-width="18" stroke-linecap="round" stroke-linejoin="round"/><ellipse cx="353" cy="335" rx="11" ry="13" fill="#D19369" stroke="#162B45" stroke-width="5" /></g>
<g id="arm-right-rest" data-semantic-layer="true" style="display:none"><polyline points="181,215 167.0,250.0 153,285" fill="none" stroke="#162B45" stroke-width="32" stroke-linecap="round" stroke-linejoin="round"/><polyline points="181,215 167.0,250.0 153,285" fill="none" stroke="#C95449" stroke-width="24" stroke-linecap="round" stroke-linejoin="round"/><polyline points="153,285 159,335" fill="none" stroke="#162B45" stroke-width="25" stroke-linecap="round" stroke-linejoin="round"/><polyline points="153,285 159,335" fill="none" stroke="#AD704C" stroke-width="18" stroke-linecap="round" stroke-linejoin="round"/><ellipse cx="159" cy="335" rx="11" ry="13" fill="#D19369" stroke="#162B45" stroke-width="5" /></g>
<g id="arm-left-greeting" data-semantic-layer="true"><polyline points="331,215 345.0,250.0 359,285" fill="none" stroke="#162B45" stroke-width="32" stroke-linecap="round" stroke-linejoin="round"/><polyline points="331,215 345.0,250.0 359,285" fill="none" stroke="#C95449" stroke-width="24" stroke-linecap="round" stroke-linejoin="round"/><polyline points="359,285 353,335" fill="none" stroke="#162B45" stroke-width="25" stroke-linecap="round" stroke-linejoin="round"/><polyline points="359,285 353,335" fill="none" stroke="#AD704C" stroke-width="18" stroke-linecap="round" stroke-linejoin="round"/><ellipse cx="353" cy="335" rx="13" ry="15" fill="#D19369" stroke="#162B45" stroke-width="5" /><path d="M348.8 329 L339.2 308.8" fill="none" stroke="#AD704C" stroke-width="6" stroke-linecap="round" stroke-linejoin="round" /><path d="M351.6 329 L348.4 307.6" fill="none" stroke="#AD704C" stroke-width="6" stroke-linecap="round" stroke-linejoin="round" /><path d="M354.4 329 L357.6 307.6" fill="none" stroke="#AD704C" stroke-width="6" stroke-linecap="round" stroke-linejoin="round" /><path d="M357.2 329 L366.8 308.8" fill="none" stroke="#AD704C" stroke-width="6" stroke-linecap="round" stroke-linejoin="round" /></g>
<g id="arm-right-greeting" data-semantic-layer="true"><polyline points="181,215 163.0,199.0 145,183" fill="none" stroke="#162B45" stroke-width="32" stroke-linecap="round" stroke-linejoin="round"/><polyline points="181,215 163.0,199.0 145,183" fill="none" stroke="#C95449" stroke-width="24" stroke-linecap="round" stroke-linejoin="round"/><polyline points="145,183 133,125" fill="none" stroke="#162B45" stroke-width="25" stroke-linecap="round" stroke-linejoin="round"/><polyline points="145,183 133,125" fill="none" stroke="#AD704C" stroke-width="18" stroke-linecap="round" stroke-linejoin="round"/><ellipse cx="133" cy="125" rx="13" ry="15" fill="#D19369" stroke="#162B45" stroke-width="5" /><path d="M128.8 119 L119.2 98.8" fill="none" stroke="#AD704C" stroke-width="6" stroke-linecap="round" stroke-linejoin="round" /><path d="M131.6 119 L128.4 97.6" fill="none" stroke="#AD704C" stroke-width="6" stroke-linecap="round" stroke-linejoin="round" /><path d="M134.4 119 L137.6 97.6" fill="none" stroke="#AD704C" stroke-width="6" stroke-linecap="round" stroke-linejoin="round" /><path d="M137.2 119 L146.8 98.8" fill="none" stroke="#AD704C" stroke-width="6" stroke-linecap="round" stroke-linejoin="round" /></g>
<g id="arm-left-farewell" data-semantic-layer="true" style="display:none"><polyline points="331,215 349.0,199.0 367,183" fill="none" stroke="#162B45" stroke-width="32" stroke-linecap="round" stroke-linejoin="round"/><polyline points="331,215 349.0,199.0 367,183" fill="none" stroke="#C95449" stroke-width="24" stroke-linecap="round" stroke-linejoin="round"/><polyline points="367,183 379,125" fill="none" stroke="#162B45" stroke-width="25" stroke-linecap="round" stroke-linejoin="round"/><polyline points="367,183 379,125" fill="none" stroke="#AD704C" stroke-width="18" stroke-linecap="round" stroke-linejoin="round"/><ellipse cx="379" cy="125" rx="13" ry="15" fill="#D19369" stroke="#162B45" stroke-width="5" /><path d="M374.8 119 L365.2 98.8" fill="none" stroke="#AD704C" stroke-width="6" stroke-linecap="round" stroke-linejoin="round" /><path d="M377.6 119 L374.4 97.6" fill="none" stroke="#AD704C" stroke-width="6" stroke-linecap="round" stroke-linejoin="round" /><path d="M380.4 119 L383.6 97.6" fill="none" stroke="#AD704C" stroke-width="6" stroke-linecap="round" stroke-linejoin="round" /><path d="M383.2 119 L392.8 98.8" fill="none" stroke="#AD704C" stroke-width="6" stroke-linecap="round" stroke-linejoin="round" /></g>
<g id="arm-right-farewell" data-semantic-layer="true" style="display:none"><polyline points="181,215 167.0,250.0 153,285" fill="none" stroke="#162B45" stroke-width="32" stroke-linecap="round" stroke-linejoin="round"/><polyline points="181,215 167.0,250.0 153,285" fill="none" stroke="#C95449" stroke-width="24" stroke-linecap="round" stroke-linejoin="round"/><polyline points="153,285 159,335" fill="none" stroke="#162B45" stroke-width="25" stroke-linecap="round" stroke-linejoin="round"/><polyline points="153,285 159,335" fill="none" stroke="#AD704C" stroke-width="18" stroke-linecap="round" stroke-linejoin="round"/><ellipse cx="159" cy="335" rx="13" ry="15" fill="#D19369" stroke="#162B45" stroke-width="5" /><path d="M154.8 329 L145.2 308.8" fill="none" stroke="#AD704C" stroke-width="6" stroke-linecap="round" stroke-linejoin="round" /><path d="M157.6 329 L154.4 307.6" fill="none" stroke="#AD704C" stroke-width="6" stroke-linecap="round" stroke-linejoin="round" /><path d="M160.4 329 L163.6 307.6" fill="none" stroke="#AD704C" stroke-width="6" stroke-linecap="round" stroke-linejoin="round" /><path d="M163.2 329 L172.8 308.8" fill="none" stroke="#AD704C" stroke-width="6" stroke-linecap="round" stroke-linejoin="round" /></g>
<g id="arm-left-agreement" data-semantic-layer="true" style="display:none"><polyline points="331,215 341.0,232.5 351,250" fill="none" stroke="#162B45" stroke-width="32" stroke-linecap="round" stroke-linejoin="round"/><polyline points="331,215 341.0,232.5 351,250" fill="none" stroke="#C95449" stroke-width="24" stroke-linecap="round" stroke-linejoin="round"/><polyline points="351,250 301,225" fill="none" stroke="#162B45" stroke-width="25" stroke-linecap="round" stroke-linejoin="round"/><polyline points="351,250 301,225" fill="none" stroke="#AD704C" stroke-width="18" stroke-linecap="round" stroke-linejoin="round"/><ellipse cx="301" cy="225" rx="11" ry="13" fill="#D19369" stroke="#162B45" stroke-width="5" /></g>
<g id="arm-right-agreement" data-semantic-layer="true" style="display:none"><polyline points="181,215 171.0,232.5 161,250" fill="none" stroke="#162B45" stroke-width="32" stroke-linecap="round" stroke-linejoin="round"/><polyline points="181,215 171.0,232.5 161,250" fill="none" stroke="#C95449" stroke-width="24" stroke-linecap="round" stroke-linejoin="round"/><polyline points="161,250 211,225" fill="none" stroke="#162B45" stroke-width="25" stroke-linecap="round" stroke-linejoin="round"/><polyline points="161,250 211,225" fill="none" stroke="#AD704C" stroke-width="18" stroke-linecap="round" stroke-linejoin="round"/><ellipse cx="211" cy="225" rx="11" ry="13" fill="#D19369" stroke="#162B45" stroke-width="5" /></g>
<g id="arm-left-disagreement" data-semantic-layer="true" style="display:none"><polyline points="331,215 339.0,237.5 347,260" fill="none" stroke="#162B45" stroke-width="32" stroke-linecap="round" stroke-linejoin="round"/><polyline points="331,215 339.0,237.5 347,260" fill="none" stroke="#C95449" stroke-width="24" stroke-linecap="round" stroke-linejoin="round"/><polyline points="347,260 218,288" fill="none" stroke="#162B45" stroke-width="25" stroke-linecap="round" stroke-linejoin="round"/><polyline points="347,260 218,288" fill="none" stroke="#AD704C" stroke-width="18" stroke-linecap="round" stroke-linejoin="round"/><ellipse cx="218" cy="288" rx="11" ry="13" fill="#D19369" stroke="#162B45" stroke-width="5" /></g>
<g id="arm-right-disagreement" data-semantic-layer="true" style="display:none"><polyline points="181,215 173.0,237.5 165,260" fill="none" stroke="#162B45" stroke-width="32" stroke-linecap="round" stroke-linejoin="round"/><polyline points="181,215 173.0,237.5 165,260" fill="none" stroke="#C95449" stroke-width="24" stroke-linecap="round" stroke-linejoin="round"/><polyline points="165,260 294,288" fill="none" stroke="#162B45" stroke-width="25" stroke-linecap="round" stroke-linejoin="round"/><polyline points="165,260 294,288" fill="none" stroke="#AD704C" stroke-width="18" stroke-linecap="round" stroke-linejoin="round"/><ellipse cx="294" cy="288" rx="11" ry="13" fill="#D19369" stroke="#162B45" stroke-width="5" /></g>
<g id="arm-left-gratitude" data-semantic-layer="true" style="display:none"><polyline points="331,215 340.0,238.5 349,262" fill="none" stroke="#162B45" stroke-width="32" stroke-linecap="round" stroke-linejoin="round"/><polyline points="331,215 340.0,238.5 349,262" fill="none" stroke="#C95449" stroke-width="24" stroke-linecap="round" stroke-linejoin="round"/><polyline points="349,262 266,277" fill="none" stroke="#162B45" stroke-width="25" stroke-linecap="round" stroke-linejoin="round"/><polyline points="349,262 266,277" fill="none" stroke="#AD704C" stroke-width="18" stroke-linecap="round" stroke-linejoin="round"/><ellipse cx="266" cy="277" rx="11" ry="13" fill="#D19369" stroke="#162B45" stroke-width="5" /></g>
<g id="arm-right-gratitude" data-semantic-layer="true" style="display:none"><polyline points="181,215 172.0,238.5 163,262" fill="none" stroke="#162B45" stroke-width="32" stroke-linecap="round" stroke-linejoin="round"/><polyline points="181,215 172.0,238.5 163,262" fill="none" stroke="#C95449" stroke-width="24" stroke-linecap="round" stroke-linejoin="round"/><polyline points="163,262 246,277" fill="none" stroke="#162B45" stroke-width="25" stroke-linecap="round" stroke-linejoin="round"/><polyline points="163,262 246,277" fill="none" stroke="#AD704C" stroke-width="18" stroke-linecap="round" stroke-linejoin="round"/><ellipse cx="246" cy="277" rx="11" ry="13" fill="#D19369" stroke="#162B45" stroke-width="5" /></g>
<g id="arm-left-concern" data-semantic-layer="true" style="display:none"><polyline points="331,215 343.0,226.0 355,237" fill="none" stroke="#162B45" stroke-width="32" stroke-linecap="round" stroke-linejoin="round"/><polyline points="331,215 343.0,226.0 355,237" fill="none" stroke="#C95449" stroke-width="24" stroke-linecap="round" stroke-linejoin="round"/><polyline points="355,237 294,151" fill="none" stroke="#162B45" stroke-width="25" stroke-linecap="round" stroke-linejoin="round"/><polyline points="355,237 294,151" fill="none" stroke="#AD704C" stroke-width="18" stroke-linecap="round" stroke-linejoin="round"/><ellipse cx="294" cy="151" rx="11" ry="13" fill="#D19369" stroke="#162B45" stroke-width="5" /></g>
<g id="arm-right-concern" data-semantic-layer="true" style="display:none"><polyline points="181,215 169.0,226.0 157,237" fill="none" stroke="#162B45" stroke-width="32" stroke-linecap="round" stroke-linejoin="round"/><polyline points="181,215 169.0,226.0 157,237" fill="none" stroke="#C95449" stroke-width="24" stroke-linecap="round" stroke-linejoin="round"/><polyline points="157,237 218,151" fill="none" stroke="#162B45" stroke-width="25" stroke-linecap="round" stroke-linejoin="round"/><polyline points="157,237 218,151" fill="none" stroke="#AD704C" stroke-width="18" stroke-linecap="round" stroke-linejoin="round"/><ellipse cx="218" cy="151" rx="11" ry="13" fill="#D19369" stroke="#162B45" stroke-width="5" /></g>
<g id="arm-left-surprise" data-semantic-layer="true" style="display:none"><polyline points="331,215 345.0,219.0 359,223" fill="none" stroke="#162B45" stroke-width="32" stroke-linecap="round" stroke-linejoin="round"/><polyline points="331,215 345.0,219.0 359,223" fill="none" stroke="#C95449" stroke-width="24" stroke-linecap="round" stroke-linejoin="round"/><polyline points="359,223 314,138" fill="none" stroke="#162B45" stroke-width="25" stroke-linecap="round" stroke-linejoin="round"/><polyline points="359,223 314,138" fill="none" stroke="#AD704C" stroke-width="18" stroke-linecap="round" stroke-linejoin="round"/><ellipse cx="314" cy="138" rx="13" ry="15" fill="#D19369" stroke="#162B45" stroke-width="5" /><path d="M309.8 132 L300.2 111.8" fill="none" stroke="#AD704C" stroke-width="6" stroke-linecap="round" stroke-linejoin="round" /><path d="M312.6 132 L309.4 110.6" fill="none" stroke="#AD704C" stroke-width="6" stroke-linecap="round" stroke-linejoin="round" /><path d="M315.4 132 L318.6 110.6" fill="none" stroke="#AD704C" stroke-width="6" stroke-linecap="round" stroke-linejoin="round" /><path d="M318.2 132 L327.8 111.8" fill="none" stroke="#AD704C" stroke-width="6" stroke-linecap="round" stroke-linejoin="round" /></g>
<g id="arm-right-surprise" data-semantic-layer="true" style="display:none"><polyline points="181,215 167.0,219.0 153,223" fill="none" stroke="#162B45" stroke-width="32" stroke-linecap="round" stroke-linejoin="round"/><polyline points="181,215 167.0,219.0 153,223" fill="none" stroke="#C95449" stroke-width="24" stroke-linecap="round" stroke-linejoin="round"/><polyline points="153,223 198,138" fill="none" stroke="#162B45" stroke-width="25" stroke-linecap="round" stroke-linejoin="round"/><polyline points="153,223 198,138" fill="none" stroke="#AD704C" stroke-width="18" stroke-linecap="round" stroke-linejoin="round"/><ellipse cx="198" cy="138" rx="13" ry="15" fill="#D19369" stroke="#162B45" stroke-width="5" /><path d="M193.8 132 L184.2 111.8" fill="none" stroke="#AD704C" stroke-width="6" stroke-linecap="round" stroke-linejoin="round" /><path d="M196.6 132 L193.4 110.6" fill="none" stroke="#AD704C" stroke-width="6" stroke-linecap="round" stroke-linejoin="round" /><path d="M199.4 132 L202.6 110.6" fill="none" stroke="#AD704C" stroke-width="6" stroke-linecap="round" stroke-linejoin="round" /><path d="M202.2 132 L211.8 111.8" fill="none" stroke="#AD704C" stroke-width="6" stroke-linecap="round" stroke-linejoin="round" /></g>
<g id="arm-left-celebration" data-semantic-layer="true" style="display:none"><polyline points="331,215 348.0,194.0 365,173" fill="none" stroke="#162B45" stroke-width="32" stroke-linecap="round" stroke-linejoin="round"/><polyline points="331,215 348.0,194.0 365,173" fill="none" stroke="#C95449" stroke-width="24" stroke-linecap="round" stroke-linejoin="round"/><polyline points="365,173 383,111" fill="none" stroke="#162B45" stroke-width="25" stroke-linecap="round" stroke-linejoin="round"/><polyline points="365,173 383,111" fill="none" stroke="#AD704C" stroke-width="18" stroke-linecap="round" stroke-linejoin="round"/><ellipse cx="383" cy="111" rx="13" ry="15" fill="#D19369" stroke="#162B45" stroke-width="5" /><path d="M378.8 105 L369.2 84.8" fill="none" stroke="#AD704C" stroke-width="6" stroke-linecap="round" stroke-linejoin="round" /><path d="M381.6 105 L378.4 83.6" fill="none" stroke="#AD704C" stroke-width="6" stroke-linecap="round" stroke-linejoin="round" /><path d="M384.4 105 L387.6 83.6" fill="none" stroke="#AD704C" stroke-width="6" stroke-linecap="round" stroke-linejoin="round" /><path d="M387.2 105 L396.8 84.8" fill="none" stroke="#AD704C" stroke-width="6" stroke-linecap="round" stroke-linejoin="round" /></g>
<g id="arm-right-celebration" data-semantic-layer="true" style="display:none"><polyline points="181,215 164.0,194.0 147,173" fill="none" stroke="#162B45" stroke-width="32" stroke-linecap="round" stroke-linejoin="round"/><polyline points="181,215 164.0,194.0 147,173" fill="none" stroke="#C95449" stroke-width="24" stroke-linecap="round" stroke-linejoin="round"/><polyline points="147,173 129,111" fill="none" stroke="#162B45" stroke-width="25" stroke-linecap="round" stroke-linejoin="round"/><polyline points="147,173 129,111" fill="none" stroke="#AD704C" stroke-width="18" stroke-linecap="round" stroke-linejoin="round"/><ellipse cx="129" cy="111" rx="13" ry="15" fill="#D19369" stroke="#162B45" stroke-width="5" /><path d="M124.8 105 L115.2 84.8" fill="none" stroke="#AD704C" stroke-width="6" stroke-linecap="round" stroke-linejoin="round" /><path d="M127.6 105 L124.4 83.6" fill="none" stroke="#AD704C" stroke-width="6" stroke-linecap="round" stroke-linejoin="round" /><path d="M130.4 105 L133.6 83.6" fill="none" stroke="#AD704C" stroke-width="6" stroke-linecap="round" stroke-linejoin="round" /><path d="M133.2 105 L142.8 84.8" fill="none" stroke="#AD704C" stroke-width="6" stroke-linecap="round" stroke-linejoin="round" /></g>
</svg>
