<svg xmlns="http://www.w3.org/2000/svg" width="512" height="512" viewBox="0 0 512 512">
<defs><linearGradient id="softShade" x1="0" y1="0" x2="1" y2="1"><stop offset="0" stop-color="#FFFFFF" stop-opacity=".24"/><stop offset="1" stop-color="#10243A" stop-opacity=".14"/></linearGradient></defs>
<ellipse cx="256" cy="472" rx="105" ry="14" fill="#AAB2BD" stroke="none" stroke-width="0" opacity=".65"/><path d="M254 303 L301 302 Q305 362 297 442 L260 442 Z" fill="#252A34" stroke="#162B45" stroke-width="7" stroke-linecap="round" stroke-linejoin="round" /><rect x="250" y="432" width="61" height="28" rx="13" fill="#E9EEE8" stroke="#162B45" stroke-width="6" /><path d="M211 303 L248 303 L245 355 Q230 369 216 354 Z" fill="#754329" stroke="#162B45" stroke-width="7" stroke-linecap="round" stroke-linejoin="round" /><rect x="214" y="346" width="30" height="35" rx="12" fill="#30343B" stroke="#162B45" stroke-width="5" /><path d="M229 379 L229 434" fill="none" stroke="#66717E" stroke-width="13" stroke-linecap="round" stroke-linejoin="round" /><path d="M229 382 L229 432" fill="none" stroke="#B8C1C8" stroke-width="5" stroke-linecap="round" stroke-linejoin="round" /><rect x="191" y="426" width="58" height="31" rx="14" fill="#B9C5CB" stroke="#162B45" stroke-width="6" /><path d="M199 438 L235 438" fill="none" stroke="#238C8F" stroke-width="5" stroke-linecap="round" stroke-linejoin="round" /><polyline points="324,202 338.0,237.0 352,272" fill="none" stroke="#162B45" stroke-width="32" stroke-linecap="round" stroke-linejoin="round"/><polyline points="324,202 338.0,237.0 352,272" fill="none" stroke="#238C8F" stroke-width="24" stroke-linecap="round" stroke-linejoin="round"/><polyline points="352,272 346,322" fill="none" stroke="#162B45" stroke-width="25" stroke-linecap="round" stroke-linejoin="round"/><polyline points="352,272 346,322" fill="none" stroke="#754329" stroke-width="18" stroke-linecap="round" stroke-linejoin="round"/><ellipse cx="346" cy="322" rx="11" ry="13" fill="#9A6040" stroke="#162B45" stroke-width="5" /><polyline points="188,202 174.0,237.0 160,272" fill="none" stroke="#162B45" stroke-width="32" stroke-linecap="round" stroke-linejoin="round"/><polyline points="188,202 174.0,237.0 160,272" fill="none" stroke="#238C8F" stroke-width="24" stroke-linecap="round" stroke-linejoin="round"/><polyline points="160,272 166,322" fill="none" stroke="#162B45" stroke-width="25" stroke-linecap="round" stroke-linejoin="round"/><polyline points="160,272 166,322" fill="none" stroke="#754329" stroke-width="18" stroke-linecap="round" stroke-linejoin="round"/><ellipse cx="166" cy="322" rx="11" ry="13" fill="#9A6040" stroke="#162B45" stroke-width="5" /><rect x="180" y="168" width="152" height="137" rx="30" fill="#238C8F" stroke="#162B45" stroke-width="7" /><path d="M198 190 Q256.0 206 314 190" fill="none" stroke="#173D5E" stroke-width="8" stroke-linecap="round" stroke-linejoin="round" /><ellipse cx="256" cy="104" rx="53" ry="59" fill="#754329" stroke="#162B45" stroke-width="7" /><ellipse cx="211" cy="53" rx="18" ry="16" fill="#201714" stroke="#162B45" stroke-width="4" /><ellipse cx="226" cy="56" rx="18" ry="16" fill="#201714" stroke="#162B45" stroke-width="4" /><ellipse cx="241" cy="53" rx="18" ry="16" fill="#201714" stroke="#162B45" stroke-width="4" /><ellipse cx="256" cy="56" rx="18" ry="16" fill="#201714" stroke="#162B45" stroke-width="4" /><ellipse cx="271" cy="53" rx="18" ry="16" fill="#201714" stroke="#162B45" stroke-width="4" /><ellipse cx="286" cy="56" rx="18" ry="16" fill="#201714" stroke="#162B45" stroke-width="4" /><ellipse cx="301" cy="53" rx="18" ry="16" fill="#201714" stroke="#162B45" stroke-width="4" /><path d="M211 59 Q256 22 305 61" fill="#201714" stroke="#162B45" stroke-width="5" stroke-linecap="round" stroke-linejoin="round" />
</svg>
