<svg xmlns="http://www.w3.org/2000/svg" width="512" height="512" viewBox="0 0 512 512">
<defs><linearGradient id="softShade" x1="0" y1="0" x2="1" y2="1"><stop offset="0" stop-color="#FFFFFF" stop-opacity=".24"/><stop offset="1" stop-color="#10243A" stop-opacity=".14"/></linearGradient></defs>
<ellipse cx="256" cy="472" rx="105" ry="14" fill="#AAB2BD" stroke="none" stroke-width="0" opacity=".65"/><rect x="236" y="298" width="34" height="165" rx="14" fill="#252A34" stroke="#162B45" stroke-width="6" /><rect x="230" y="443" width="61" height="27" rx="13" fill="#E9EEE8" stroke="#162B45" stroke-width="6" /><rect x="220.0" y="168" width="76.0" height="137" rx="25" fill="#238C8F" stroke="#162B45" stroke-width="7" /><path d="M235.2 188 L280.8 188" fill="none" stroke="#173D5E" stroke-width="7" stroke-linecap="round" stroke-linejoin="round" /><path d="M258 203 Q293 263 278 318" fill="none" stroke="#754329" stroke-width="20" stroke-linecap="round" stroke-linejoin="round" /><ellipse cx="258" cy="104" rx="30.74" ry="59" fill="#754329" stroke="#162B45" stroke-width="7" /><g transform="translate(2 0) scale(.64 1)"><ellipse cx="211" cy="53" rx="18" ry="16" fill="#201714" stroke="#162B45" stroke-width="4" /><ellipse cx="226" cy="56" rx="18" ry="16" fill="#201714" stroke="#162B45" stroke-width="4" /><ellipse cx="241" cy="53" rx="18" ry="16" fill="#201714" stroke="#162B45" stroke-width="4" /><ellipse cx="256" cy="56" rx="18" ry="16" fill="#201714" stroke="#162B45" stroke-width="4" /><ellipse cx="271" cy="53" rx="18" ry="16" fill="#201714" stroke="#162B45" stroke-width="4" /><ellipse cx="286" cy="56" rx="18" ry="16" fill="#201714" stroke="#162B45" stroke-width="4" /><ellipse cx="301" cy="53" rx="18" ry="16" fill="#201714" stroke="#162B45" stroke-width="4" /><path d="M211 59 Q256 22 305 61" fill="#201714" stroke="#162B45" stroke-width="5" stroke-linecap="round" stroke-linejoin="round" /></g><ellipse cx="268.6" cy="106" rx="9" ry="12" fill="#FFF8EE" stroke="#162B45" stroke-width="4" /><ellipse cx="270.72" cy="108" rx="4" ry="6" fill="#162B45" stroke="#162B45" stroke-width="0" /><path d="M284.5 112 q12 8 0 16" fill="none" stroke="#9A6040" stroke-width="5" stroke-linecap="round" stroke-linejoin="round" /><path d="M260 141 Q276 152 289 138" fill="none" stroke="#162B45" stroke-width="5" stroke-linecap="round" stroke-linejoin="round" />
</svg>
