<svg xmlns="http://www.w3.org/2000/svg" width="512" height="512" viewBox="0 0 512 512">
<defs><linearGradient id="softShade" x1="0" y1="0" x2="1" y2="1"><stop offset="0" stop-color="#FFFFFF" stop-opacity=".24"/><stop offset="1" stop-color="#10243A" stop-opacity=".14"/></linearGradient></defs>
<ellipse cx="256" cy="472" rx="105" ry="14" fill="#AAB2BD" stroke="none" stroke-width="0" opacity=".65"/><rect x="273" y="315" width="33" height="132" rx="12.540000000000001" fill="#2F5574" stroke="#162B45" stroke-width="6" /><rect x="270" y="437" width="57" height="28" rx="13" fill="#E7D9C4" stroke="#162B45" stroke-width="6" /><rect x="206" y="315" width="33" height="132" rx="12.540000000000001" fill="#2F5574" stroke="#162B45" stroke-width="6" /><rect x="194" y="437" width="57" height="28" rx="13" fill="#E7D9C4" stroke="#162B45" stroke-width="6" /><polyline points="311,212 325.0,247.0 339,282" fill="none" stroke="#162B45" stroke-width="32" stroke-linecap="round" stroke-linejoin="round"/><polyline points="311,212 325.0,247.0 339,282" fill="none" stroke="#2C9990" stroke-width="24" stroke-linecap="round" stroke-linejoin="round"/><polyline points="339,282 333,332" fill="none" stroke="#162B45" stroke-width="25" stroke-linecap="round" stroke-linejoin="round"/><polyline points="339,282 333,332" fill="none" stroke="#B87542" stroke-width="18" stroke-linecap="round" stroke-linejoin="round"/><ellipse cx="333" cy="332" rx="11" ry="13" fill="#D99A68" stroke="#162B45" stroke-width="5" /><polyline points="201,212 187.0,247.0 173,282" fill="none" stroke="#162B45" stroke-width="32" stroke-linecap="round" stroke-linejoin="round"/><polyline points="201,212 187.0,247.0 173,282" fill="none" stroke="#2C9990" stroke-width="24" stroke-linecap="round" stroke-linejoin="round"/><polyline points="173,282 179,332" fill="none" stroke="#162B45" stroke-width="25" stroke-linecap="round" stroke-linejoin="round"/><polyline points="173,282 179,332" fill="none" stroke="#B87542" stroke-width="18" stroke-linecap="round" stroke-linejoin="round"/><ellipse cx="179" cy="332" rx="11" ry="13" fill="#D99A68" stroke="#162B45" stroke-width="5" /><rect x="193" y="178" width="126" height="145" rx="30" fill="#2C9990" stroke="#162B45" stroke-width="7" /><path d="M211 200 Q256.0 216 301 200" fill="none" stroke="#F0BE4A" stroke-width="8" stroke-linecap="round" stroke-linejoin="round" /><ellipse cx="256" cy="108" rx="58" ry="63" fill="#B87542" stroke="#162B45" stroke-width="7" /><path d="M186 68 Q174 170 209 187 Q232 201 256 186 Q280 201 303 187 Q338 170 326 68 Z" fill="#1C1718" stroke="#162B45" stroke-width="7" stroke-linecap="round" stroke-linejoin="round" /><path d="M256 51 Q246 134 256 178" fill="none" stroke="#654034" stroke-width="4" stroke-linecap="round" stroke-linejoin="round" />
</svg>
