<svg xmlns="http://www.w3.org/2000/svg" width="512" height="512" viewBox="0 0 512 512">
<defs><linearGradient id="softShade" x1="0" y1="0" x2="1" y2="1"><stop offset="0" stop-color="#FFFFFF" stop-opacity=".24"/><stop offset="1" stop-color="#10243A" stop-opacity=".14"/></linearGradient></defs>
<ellipse cx="256" cy="472" rx="105" ry="14" fill="#AAB2BD" stroke="none" stroke-width="0" opacity=".65"/><path d="M188 70 Q178 143 217 186 L291 186 Q332 142 324 70 Z" fill="#1C1718" stroke="#162B45" stroke-width="7" stroke-linecap="round" stroke-linejoin="round" /><rect x="273" y="315" width="33" height="132" rx="12.540000000000001" fill="#2F5574" stroke="#162B45" stroke-width="6" /><rect x="270" y="437" width="57" height="28" rx="13" fill="#E7D9C4" stroke="#162B45" stroke-width="6" /><rect x="206" y="315" width="33" height="132" rx="12.540000000000001" fill="#2F5574" stroke="#162B45" stroke-width="6" /><rect x="194" y="437" width="57" height="28" rx="13" fill="#E7D9C4" stroke="#162B45" stroke-width="6" /><rect x="193" y="178" width="126" height="145" rx="30" fill="#2C9990" stroke="#162B45" stroke-width="7" /><path d="M211 196 Q256.0 221 301 196" fill="none" stroke="#F0BE4A" stroke-width="8" stroke-linecap="round" stroke-linejoin="round" /><path d="M215.68 196 Q256.0 186 296.32 196" fill="none" stroke="#E7675F" stroke-width="5" stroke-linecap="round" stroke-linejoin="round" /><path d="M234.58 188 L234.58 313 M277.42 188 L277.42 313" fill="none" stroke="#F0BE4A" stroke-width="6" stroke-linecap="round" stroke-linejoin="round" /><path d="M234.58 189 L256.0 225 L277.42 189" fill="none" stroke="#E7675F" stroke-width="5" stroke-linecap="round" stroke-linejoin="round" /><ellipse cx="201.48000000000002" cy="113" rx="12" ry="20" fill="#B87542" stroke="#162B45" stroke-width="5" />
<ellipse cx="310.52" cy="113" rx="12" ry="20" fill="#B87542" stroke="#162B45" stroke-width="5" />
<ellipse cx="256" cy="108" rx="58" ry="63" fill="#B87542" stroke="#162B45" stroke-width="7" />
<path d="M214.24 77.76 Q241.5 58.86 291.96 75.24000000000001" fill="none" stroke="#D99A68" stroke-width="5" stroke-linecap="round" stroke-linejoin="round" opacity=".45"/><path d="M202 76 Q232 20 317 73 Q272 47 241 45 Q213 53 202 76 Z" fill="#1C1718" stroke="#162B45" stroke-width="6" stroke-linecap="round" stroke-linejoin="round" /><path d="M291 73 Q307 112 292 163" fill="none" stroke="#654034" stroke-width="6" stroke-linecap="round" stroke-linejoin="round" /><path d="M217.06 94 Q231.06 87 245.06 94" fill="none" stroke="#162B45" stroke-width="5" stroke-linecap="round" stroke-linejoin="round" />
<path d="M266.94 94 Q280.94 87 294.94 94" fill="none" stroke="#162B45" stroke-width="5" stroke-linecap="round" stroke-linejoin="round" />
<ellipse cx="231.06" cy="112" rx="10" ry="11" fill="#FFF8EE" stroke="#162B45" stroke-width="4" />
<ellipse cx="280.94" cy="112" rx="10" ry="11" fill="#FFF8EE" stroke="#162B45" stroke-width="4" />
<ellipse cx="232.06" cy="114" rx="4" ry="6" fill="#162B45" stroke="#162B45" stroke-width="0" />
<ellipse cx="281.94" cy="114" rx="4" ry="6" fill="#162B45" stroke="#162B45" stroke-width="0" />
<path d="M256 120 q-4 10 4 12" fill="none" stroke="#D99A68" stroke-width="4" stroke-linecap="round" stroke-linejoin="round" />
<ellipse cx="222.36" cy="132" rx="10" ry="6" fill="#E58A78" stroke="none" stroke-width="0" opacity=".45"/>
<ellipse cx="289.64" cy="132" rx="10" ry="6" fill="#E58A78" stroke="none" stroke-width="0" opacity=".45"/>
<path d="M231 143 Q256 163 283 139" fill="none" stroke="#162B45" stroke-width="6" stroke-linecap="round" stroke-linejoin="round" />
<path d="M241 147 Q256 156 272 144" fill="none" stroke="#FFFFFF" stroke-width="3" stroke-linecap="round" stroke-linejoin="round" /><polyline points="311,212 325.0,247.0 339,282" fill="none" stroke="#162B45" stroke-width="32" stroke-linecap="round" stroke-linejoin="round"/><polyline points="311,212 325.0,247.0 339,282" fill="none" stroke="#2C9990" stroke-width="24" stroke-linecap="round" stroke-linejoin="round"/><polyline points="339,282 333,332" fill="none" stroke="#162B45" stroke-width="25" stroke-linecap="round" stroke-linejoin="round"/><polyline points="339,282 333,332" fill="none" stroke="#B87542" stroke-width="18" stroke-linecap="round" stroke-linejoin="round"/><ellipse cx="333" cy="332" rx="11" ry="13" fill="#D99A68" stroke="#162B45" stroke-width="5" /><polyline points="201,212 187.0,247.0 173,282" fill="none" stroke="#162B45" stroke-width="32" stroke-linecap="round" stroke-linejoin="round"/><polyline points="201,212 187.0,247.0 173,282" fill="none" stroke="#2C9990" stroke-width="24" stroke-linecap="round" stroke-linejoin="round"/><polyline points="173,282 179,332" fill="none" stroke="#162B45" stroke-width="25" stroke-linecap="round" stroke-linejoin="round"/><polyline points="173,282 179,332" fill="none" stroke="#B87542" stroke-width="18" stroke-linecap="round" stroke-linejoin="round"/><ellipse cx="179" cy="332" rx="11" ry="13" fill="#D99A68" stroke="#162B45" stroke-width="5" />
</svg>
