<svg xmlns="http://www.w3.org/2000/svg" width="512" height="512" viewBox="0 0 512 512">
<defs><linearGradient id="softShade" x1="0" y1="0" x2="1" y2="1"><stop offset="0" stop-color="#FFFFFF" stop-opacity=".24"/><stop offset="1" stop-color="#10243A" stop-opacity=".14"/></linearGradient></defs>
<ellipse cx="256" cy="472" rx="105" ry="14" fill="#AAB2BD" stroke="none" stroke-width="0" opacity=".65"/><rect x="236" y="316" width="34" height="147" rx="14" fill="#2F5574" stroke="#162B45" stroke-width="6" /><rect x="230" y="443" width="61" height="27" rx="13" fill="#E7D9C4" stroke="#162B45" stroke-width="6" /><rect x="226.5" y="178" width="63.0" height="145" rx="25" fill="#2C9990" stroke="#162B45" stroke-width="7" /><path d="M239.1 198 L276.9 198" fill="none" stroke="#F0BE4A" stroke-width="7" stroke-linecap="round" stroke-linejoin="round" /><path d="M258 213 Q293 273 278 328" fill="none" stroke="#B87542" stroke-width="20" stroke-linecap="round" stroke-linejoin="round" /><path d="M231.32 68.94 Q216.24 128 230.16 184 Q266 197 281.2 166 L282.36 94 Z" fill="#1C1718" stroke="#162B45" stroke-width="7" stroke-linecap="round" stroke-linejoin="round" /><ellipse cx="258" cy="108" rx="33.64" ry="63" fill="#B87542" stroke="#162B45" stroke-width="7" /><path d="M246.4 62.64 Q268.44 51.3 285.84 83" fill="none" stroke="#654034" stroke-width="5" stroke-linecap="round" stroke-linejoin="round" /><ellipse cx="269.6" cy="110" rx="9" ry="12" fill="#FFF8EE" stroke="#162B45" stroke-width="4" /><ellipse cx="271.92" cy="112" rx="4" ry="6" fill="#162B45" stroke="#162B45" stroke-width="0" /><path d="M287.0 116 q12 8 0 16" fill="none" stroke="#D99A68" stroke-width="5" stroke-linecap="round" stroke-linejoin="round" /><path d="M260 145 Q276 156 289 142" fill="none" stroke="#162B45" stroke-width="5" stroke-linecap="round" stroke-linejoin="round" />
</svg>
