<svg xmlns="http://www.w3.org/2000/svg" width="512" height="512" viewBox="0 0 512 512">
<defs><linearGradient id="softShade" x1="0" y1="0" x2="1" y2="1"><stop offset="0" stop-color="#FFFFFF" stop-opacity=".24"/><stop offset="1" stop-color="#10243A" stop-opacity=".14"/></linearGradient></defs>
<g id="shadow" data-semantic-layer="true"><ellipse cx="256" cy="466" rx="105" ry="14" fill="#AAB2BD" stroke="none" stroke-width="0" opacity=".65"/></g>
<g id="leg-left" data-semantic-layer="true"><rect x="274" y="301" width="31" height="140" rx="11.78" fill="#C7A66B" stroke="#162B45" stroke-width="6" /><rect x="271" y="431" width="55" height="28" rx="13" fill="#24435C" stroke="#162B45" stroke-width="6" /></g>
<g id="leg-right" data-semantic-layer="true"><rect x="207" y="301" width="31" height="140" rx="11.78" fill="#C7A66B" stroke="#162B45" stroke-width="6" /><rect x="195" y="431" width="55" height="28" rx="13" fill="#24435C" stroke="#162B45" stroke-width="6" /></g>
<g id="torso" data-semantic-layer="true"><rect x="199" y="201" width="114" height="108" rx="30" fill="#1F9B92" stroke="#162B45" stroke-width="7" /><path d="M217 219 Q256.0 244 295 219" fill="none" stroke="#F1C34A" stroke-width="8" stroke-linecap="round" stroke-linejoin="round" /><path d="M219.52 219 Q256.0 209 292.48 219" fill="none" stroke="#F06C62" stroke-width="5" stroke-linecap="round" stroke-linejoin="round" /><path d="M229.78 205 Q256.0 245 282.22 205" fill="none" stroke="#F1C34A" stroke-width="8" stroke-linecap="round" stroke-linejoin="round" /><rect x="229.78" y="263.64" width="52.440000000000005" height="27.0" rx="14" fill="#F1C34A" stroke="#162B45" stroke-width="4" /></g>
<g id="head" data-semantic-layer="true"><ellipse cx="199.6" cy="131" rx="12" ry="20" fill="#B86F45" stroke="#162B45" stroke-width="5" />
<ellipse cx="312.4" cy="131" rx="12" ry="20" fill="#B86F45" stroke="#162B45" stroke-width="5" />
<ellipse cx="256" cy="126" rx="60" ry="66" fill="#B86F45" stroke="#162B45" stroke-width="7" />
<path d="M212.8 94.32 Q241.0 74.52 293.2 91.68" fill="none" stroke="#D89164" stroke-width="5" stroke-linecap="round" stroke-linejoin="round" opacity=".45"/></g>
<g id="hair-front" data-semantic-layer="true"><ellipse cx="210" cy="68" rx="18" ry="17" fill="#352019" stroke="#162B45" stroke-width="4" /><ellipse cx="225" cy="73" rx="18" ry="17" fill="#352019" stroke="#162B45" stroke-width="4" /><ellipse cx="240" cy="68" rx="18" ry="17" fill="#352019" stroke="#162B45" stroke-width="4" /><ellipse cx="255" cy="73" rx="18" ry="17" fill="#352019" stroke="#162B45" stroke-width="4" /><ellipse cx="270" cy="68" rx="18" ry="17" fill="#352019" stroke="#162B45" stroke-width="4" /><ellipse cx="285" cy="73" rx="18" ry="17" fill="#352019" stroke="#162B45" stroke-width="4" /><ellipse cx="300" cy="68" rx="18" ry="17" fill="#352019" stroke="#162B45" stroke-width="4" /><path d="M201 87 Q256 36 314 89" fill="#352019" stroke="#162B45" stroke-width="5" stroke-linecap="round" stroke-linejoin="round" /></g>
<g id="face-friendly" data-semantic-layer="true"><path d="M216.2 112 Q230.2 105 244.2 112" fill="none" stroke="#162B45" stroke-width="5" stroke-linecap="round" stroke-linejoin="round" />
<path d="M267.8 112 Q281.8 105 295.8 112" fill="none" stroke="#162B45" stroke-width="5" stroke-linecap="round" stroke-linejoin="round" />
<ellipse cx="230.2" cy="130" rx="11" ry="13" fill="#FFF8EE" stroke="#162B45" stroke-width="4" />
<ellipse cx="281.8" cy="130" rx="11" ry="13" fill="#FFF8EE" stroke="#162B45" stroke-width="4" />
<ellipse cx="231.2" cy="132" rx="4" ry="6" fill="#162B45" stroke="#162B45" stroke-width="0" />
<ellipse cx="282.8" cy="132" rx="4" ry="6" fill="#162B45" stroke="#162B45" stroke-width="0" />
<path d="M256 138 q-4 10 4 12" fill="none" stroke="#D89164" stroke-width="4" stroke-linecap="round" stroke-linejoin="round" />
<ellipse cx="221.2" cy="150" rx="10" ry="6" fill="#E58A78" stroke="none" stroke-width="0" opacity=".45"/>
<ellipse cx="290.8" cy="150" rx="10" ry="6" fill="#E58A78" stroke="none" stroke-width="0" opacity=".45"/>
<path d="M231 161 Q256 181 283 157" fill="none" stroke="#162B45" stroke-width="6" stroke-linecap="round" stroke-linejoin="round" />
<path d="M241 165 Q256 174 272 162" fill="none" stroke="#FFFFFF" stroke-width="3" stroke-linecap="round" stroke-linejoin="round" /></g>
<g id="face-laughing" data-semantic-layer="true" style="display:none"><path d="M219.2 130 Q230.2 139.75 241.2 130" fill="none" stroke="#162B45" stroke-width="5" stroke-linecap="round" stroke-linejoin="round" />
<path d="M270.8 130 Q281.8 139.75 292.8 130" fill="none" stroke="#162B45" stroke-width="5" stroke-linecap="round" stroke-linejoin="round" />
<path d="M216.2 110 Q230.2 104 244.2 110" fill="none" stroke="#162B45" stroke-width="5" stroke-linecap="round" stroke-linejoin="round" />
<path d="M267.8 110 Q281.8 104 295.8 110" fill="none" stroke="#162B45" stroke-width="5" stroke-linecap="round" stroke-linejoin="round" />
<path d="M256 138 q-4 10 5 12" fill="none" stroke="#D89164" stroke-width="4" stroke-linecap="round" stroke-linejoin="round" />
<path d="M228 160 Q256 201 285 159 Z" fill="#5B2730" stroke="#162B45" stroke-width="5" stroke-linecap="round" stroke-linejoin="round" />
<path d="M241 180 Q256 189 272 179" fill="none" stroke="#E98A86" stroke-width="5" stroke-linecap="round" stroke-linejoin="round" /></g>
<g id="face-surprised" data-semantic-layer="true" style="display:none"><ellipse cx="230.2" cy="130" rx="11" ry="17.55" fill="#FFF8EE" stroke="#162B45" stroke-width="4" />
<ellipse cx="231.2" cy="132" rx="4" ry="8.100000000000001" fill="#162B45" stroke="#162B45" stroke-width="0" />
<ellipse cx="281.8" cy="130" rx="11" ry="17.55" fill="#FFF8EE" stroke="#162B45" stroke-width="4" />
<ellipse cx="282.8" cy="132" rx="4" ry="8.100000000000001" fill="#162B45" stroke="#162B45" stroke-width="0" />
<path d="M216.2 101 Q230.2 95 244.2 101" fill="none" stroke="#162B45" stroke-width="5" stroke-linecap="round" stroke-linejoin="round" />
<path d="M267.8 101 Q281.8 95 295.8 101" fill="none" stroke="#162B45" stroke-width="5" stroke-linecap="round" stroke-linejoin="round" />
<path d="M256 138 q-4 10 5 12" fill="none" stroke="#D89164" stroke-width="4" stroke-linecap="round" stroke-linejoin="round" />
<ellipse cx="256" cy="167" rx="12" ry="16" fill="#5B2730" stroke="#162B45" stroke-width="5" /></g>
<g id="face-thinking" data-semantic-layer="true" style="display:none"><ellipse cx="230.2" cy="130" rx="11" ry="13.0" fill="#FFF8EE" stroke="#162B45" stroke-width="4" />
<ellipse cx="234.2" cy="132" rx="4" ry="6.0" fill="#162B45" stroke="#162B45" stroke-width="0" />
<ellipse cx="281.8" cy="130" rx="11" ry="13.0" fill="#FFF8EE" stroke="#162B45" stroke-width="4" />
<ellipse cx="285.8" cy="132" rx="4" ry="6.0" fill="#162B45" stroke="#162B45" stroke-width="0" />
<path d="M216.2 115 L244.2 108" fill="none" stroke="#162B45" stroke-width="5" stroke-linecap="round" stroke-linejoin="round" />
<path d="M267.8 108 L295.8 108" fill="none" stroke="#162B45" stroke-width="5" stroke-linecap="round" stroke-linejoin="round" />
<path d="M256 138 q-4 10 5 12" fill="none" stroke="#D89164" stroke-width="4" stroke-linecap="round" stroke-linejoin="round" />
<path d="M238 167 Q259 163 278 170" fill="none" stroke="#162B45" stroke-width="5" stroke-linecap="round" stroke-linejoin="round" /></g>
<g id="face-confident" data-semantic-layer="true" style="display:none"><ellipse cx="230.2" cy="130" rx="11" ry="8.06" fill="#FFF8EE" stroke="#162B45" stroke-width="4" />
<ellipse cx="231.2" cy="132" rx="4" ry="3.7199999999999998" fill="#162B45" stroke="#162B45" stroke-width="0" />
<ellipse cx="281.8" cy="130" rx="11" ry="8.06" fill="#FFF8EE" stroke="#162B45" stroke-width="4" />
<ellipse cx="282.8" cy="132" rx="4" ry="3.7199999999999998" fill="#162B45" stroke="#162B45" stroke-width="0" />
<path d="M216.2 115 Q230.2 109 244.2 115" fill="none" stroke="#162B45" stroke-width="5" stroke-linecap="round" stroke-linejoin="round" />
<path d="M267.8 115 Q281.8 109 295.8 115" fill="none" stroke="#162B45" stroke-width="5" stroke-linecap="round" stroke-linejoin="round" />
<path d="M256 138 q-4 10 5 12" fill="none" stroke="#D89164" stroke-width="4" stroke-linecap="round" stroke-linejoin="round" />
<path d="M232 164 Q261 186 285 159" fill="none" stroke="#162B45" stroke-width="6" stroke-linecap="round" stroke-linejoin="round" /></g>
<g id="face-sorry" data-semantic-layer="true" style="display:none"><ellipse cx="230.2" cy="130" rx="11" ry="13.0" fill="#FFF8EE" stroke="#162B45" stroke-width="4" />
<ellipse cx="231.2" cy="132" rx="4" ry="6.0" fill="#162B45" stroke="#162B45" stroke-width="0" />
<ellipse cx="281.8" cy="130" rx="11" ry="13.0" fill="#FFF8EE" stroke="#162B45" stroke-width="4" />
<ellipse cx="282.8" cy="132" rx="4" ry="6.0" fill="#162B45" stroke="#162B45" stroke-width="0" />
<path d="M216.2 112 Q232.2 106 244.2 117" fill="none" stroke="#162B45" stroke-width="5" stroke-linecap="round" stroke-linejoin="round" />
<path d="M267.8 117 Q279.8 106 295.8 112" fill="none" stroke="#162B45" stroke-width="5" stroke-linecap="round" stroke-linejoin="round" />
<path d="M256 138 q-4 10 5 12" fill="none" stroke="#D89164" stroke-width="4" stroke-linecap="round" stroke-linejoin="round" />
<path d="M232 176 Q256 157 280 176" fill="none" stroke="#162B45" stroke-width="6" stroke-linecap="round" stroke-linejoin="round" /></g>
<g id="face-excited" data-semantic-layer="true" style="display:none"><ellipse cx="230.2" cy="130" rx="11" ry="17.55" fill="#FFF8EE" stroke="#162B45" stroke-width="4" />
<ellipse cx="231.2" cy="132" rx="4" ry="8.100000000000001" fill="#162B45" stroke="#162B45" stroke-width="0" />
<ellipse cx="281.8" cy="130" rx="11" ry="17.55" fill="#FFF8EE" stroke="#162B45" stroke-width="4" />
<ellipse cx="282.8" cy="132" rx="4" ry="8.100000000000001" fill="#162B45" stroke="#162B45" stroke-width="0" />
<path d="M216.2 105 Q230.2 99 244.2 105" fill="none" stroke="#162B45" stroke-width="5" stroke-linecap="round" stroke-linejoin="round" />
<path d="M267.8 105 Q281.8 99 295.8 105" fill="none" stroke="#162B45" stroke-width="5" stroke-linecap="round" stroke-linejoin="round" />
<path d="M256 138 q-4 10 5 12" fill="none" stroke="#D89164" stroke-width="4" stroke-linecap="round" stroke-linejoin="round" />
<path d="M229 162 Q256 191 284 160" fill="none" stroke="#162B45" stroke-width="6" stroke-linecap="round" stroke-linejoin="round" /></g>
<g id="arm-left-rest" data-semantic-layer="true" style="display:none"><polyline points="305,235 319.0,270.0 333,305" fill="none" stroke="#162B45" stroke-width="32" stroke-linecap="round" stroke-linejoin="round"/><polyline points="305,235 319.0,270.0 333,305" fill="none" stroke="#1F9B92" stroke-width="24" stroke-linecap="round" stroke-linejoin="round"/><polyline points="333,305 327,355" fill="none" stroke="#162B45" stroke-width="25" stroke-linecap="round" stroke-linejoin="round"/><polyline points="333,305 327,355" fill="none" stroke="#B86F45" stroke-width="18" stroke-linecap="round" stroke-linejoin="round"/><ellipse cx="327" cy="355" rx="11" ry="13" fill="#D89164" stroke="#162B45" stroke-width="5" /></g>
<g id="arm-right-rest" data-semantic-layer="true" style="display:none"><polyline points="207,235 193.0,270.0 179,305" fill="none" stroke="#162B45" stroke-width="32" stroke-linecap="round" stroke-linejoin="round"/><polyline points="207,235 193.0,270.0 179,305" fill="none" stroke="#1F9B92" stroke-width="24" stroke-linecap="round" stroke-linejoin="round"/><polyline points="179,305 185,355" fill="none" stroke="#162B45" stroke-width="25" stroke-linecap="round" stroke-linejoin="round"/><polyline points="179,305 185,355" fill="none" stroke="#B86F45" stroke-width="18" stroke-linecap="round" stroke-linejoin="round"/><ellipse cx="185" cy="355" rx="11" ry="13" fill="#D89164" stroke="#162B45" stroke-width="5" /></g>
<g id="arm-left-greeting" data-semantic-layer="true"><polyline points="305,235 319.0,270.0 333,305" fill="none" stroke="#162B45" stroke-width="32" stroke-linecap="round" stroke-linejoin="round"/><polyline points="305,235 319.0,270.0 333,305" fill="none" stroke="#1F9B92" stroke-width="24" stroke-linecap="round" stroke-linejoin="round"/><polyline points="333,305 327,355" fill="none" stroke="#162B45" stroke-width="25" stroke-linecap="round" stroke-linejoin="round"/><polyline points="333,305 327,355" fill="none" stroke="#B86F45" stroke-width="18" stroke-linecap="round" stroke-linejoin="round"/><ellipse cx="327" cy="355" rx="13" ry="15" fill="#D89164" stroke="#162B45" stroke-width="5" /><path d="M322.8 349 L313.2 328.8" fill="none" stroke="#B86F45" stroke-width="6" stroke-linecap="round" stroke-linejoin="round" /><path d="M325.6 349 L322.4 327.6" fill="none" stroke="#B86F45" stroke-width="6" stroke-linecap="round" stroke-linejoin="round" /><path d="M328.4 349 L331.6 327.6" fill="none" stroke="#B86F45" stroke-width="6" stroke-linecap="round" stroke-linejoin="round" /><path d="M331.2 349 L340.8 328.8" fill="none" stroke="#B86F45" stroke-width="6" stroke-linecap="round" stroke-linejoin="round" /></g>
<g id="arm-right-greeting" data-semantic-layer="true"><polyline points="207,235 189.0,219.0 171,203" fill="none" stroke="#162B45" stroke-width="32" stroke-linecap="round" stroke-linejoin="round"/><polyline points="207,235 189.0,219.0 171,203" fill="none" stroke="#1F9B92" stroke-width="24" stroke-linecap="round" stroke-linejoin="round"/><polyline points="171,203 159,145" fill="none" stroke="#162B45" stroke-width="25" stroke-linecap="round" stroke-linejoin="round"/><polyline points="171,203 159,145" fill="none" stroke="#B86F45" stroke-width="18" stroke-linecap="round" stroke-linejoin="round"/><ellipse cx="159" cy="145" rx="13" ry="15" fill="#D89164" stroke="#162B45" stroke-width="5" /><path d="M154.8 139 L145.2 118.8" fill="none" stroke="#B86F45" stroke-width="6" stroke-linecap="round" stroke-linejoin="round" /><path d="M157.6 139 L154.4 117.6" fill="none" stroke="#B86F45" stroke-width="6" stroke-linecap="round" stroke-linejoin="round" /><path d="M160.4 139 L163.6 117.6" fill="none" stroke="#B86F45" stroke-width="6" stroke-linecap="round" stroke-linejoin="round" /><path d="M163.2 139 L172.8 118.8" fill="none" stroke="#B86F45" stroke-width="6" stroke-linecap="round" stroke-linejoin="round" /></g>
<g id="arm-left-farewell" data-semantic-layer="true" style="display:none"><polyline points="305,235 323.0,219.0 341,203" fill="none" stroke="#162B45" stroke-width="32" stroke-linecap="round" stroke-linejoin="round"/><polyline points="305,235 323.0,219.0 341,203" fill="none" stroke="#1F9B92" stroke-width="24" stroke-linecap="round" stroke-linejoin="round"/><polyline points="341,203 353,145" fill="none" stroke="#162B45" stroke-width="25" stroke-linecap="round" stroke-linejoin="round"/><polyline points="341,203 353,145" fill="none" stroke="#B86F45" stroke-width="18" stroke-linecap="round" stroke-linejoin="round"/><ellipse cx="353" cy="145" rx="13" ry="15" fill="#D89164" stroke="#162B45" stroke-width="5" /><path d="M348.8 139 L339.2 118.8" fill="none" stroke="#B86F45" stroke-width="6" stroke-linecap="round" stroke-linejoin="round" /><path d="M351.6 139 L348.4 117.6" fill="none" stroke="#B86F45" stroke-width="6" stroke-linecap="round" stroke-linejoin="round" /><path d="M354.4 139 L357.6 117.6" fill="none" stroke="#B86F45" stroke-width="6" stroke-linecap="round" stroke-linejoin="round" /><path d="M357.2 139 L366.8 118.8" fill="none" stroke="#B86F45" stroke-width="6" stroke-linecap="round" stroke-linejoin="round" /></g>
<g id="arm-right-farewell" data-semantic-layer="true" style="display:none"><polyline points="207,235 193.0,270.0 179,305" fill="none" stroke="#162B45" stroke-width="32" stroke-linecap="round" stroke-linejoin="round"/><polyline points="207,235 193.0,270.0 179,305" fill="none" stroke="#1F9B92" stroke-width="24" stroke-linecap="round" stroke-linejoin="round"/><polyline points="179,305 185,355" fill="none" stroke="#162B45" stroke-width="25" stroke-linecap="round" stroke-linejoin="round"/><polyline points="179,305 185,355" fill="none" stroke="#B86F45" stroke-width="18" stroke-linecap="round" stroke-linejoin="round"/><ellipse cx="185" cy="355" rx="13" ry="15" fill="#D89164" stroke="#162B45" stroke-width="5" /><path d="M180.8 349 L171.2 328.8" fill="none" stroke="#B86F45" stroke-width="6" stroke-linecap="round" stroke-linejoin="round" /><path d="M183.6 349 L180.4 327.6" fill="none" stroke="#B86F45" stroke-width="6" stroke-linecap="round" stroke-linejoin="round" /><path d="M186.4 349 L189.6 327.6" fill="none" stroke="#B86F45" stroke-width="6" stroke-linecap="round" stroke-linejoin="round" /><path d="M189.2 349 L198.8 328.8" fill="none" stroke="#B86F45" stroke-width="6" stroke-linecap="round" stroke-linejoin="round" /></g>
<g id="arm-left-agreement" data-semantic-layer="true" style="display:none"><polyline points="305,235 315.0,252.5 325,270" fill="none" stroke="#162B45" stroke-width="32" stroke-linecap="round" stroke-linejoin="round"/><polyline points="305,235 315.0,252.5 325,270" fill="none" stroke="#1F9B92" stroke-width="24" stroke-linecap="round" stroke-linejoin="round"/><polyline points="325,270 301,245" fill="none" stroke="#162B45" stroke-width="25" stroke-linecap="round" stroke-linejoin="round"/><polyline points="325,270 301,245" fill="none" stroke="#B86F45" stroke-width="18" stroke-linecap="round" stroke-linejoin="round"/><ellipse cx="301" cy="245" rx="11" ry="13" fill="#D89164" stroke="#162B45" stroke-width="5" /></g>
<g id="arm-right-agreement" data-semantic-layer="true" style="display:none"><polyline points="207,235 197.0,252.5 187,270" fill="none" stroke="#162B45" stroke-width="32" stroke-linecap="round" stroke-linejoin="round"/><polyline points="207,235 197.0,252.5 187,270" fill="none" stroke="#1F9B92" stroke-width="24" stroke-linecap="round" stroke-linejoin="round"/><polyline points="187,270 211,245" fill="none" stroke="#162B45" stroke-width="25" stroke-linecap="round" stroke-linejoin="round"/><polyline points="187,270 211,245" fill="none" stroke="#B86F45" stroke-width="18" stroke-linecap="round" stroke-linejoin="round"/><ellipse cx="211" cy="245" rx="11" ry="13" fill="#D89164" stroke="#162B45" stroke-width="5" /></g>
<g id="arm-left-disagreement" data-semantic-layer="true" style="display:none"><polyline points="305,235 313.0,257.5 321,280" fill="none" stroke="#162B45" stroke-width="32" stroke-linecap="round" stroke-linejoin="round"/><polyline points="305,235 313.0,257.5 321,280" fill="none" stroke="#1F9B92" stroke-width="24" stroke-linecap="round" stroke-linejoin="round"/><polyline points="321,280 218,308" fill="none" stroke="#162B45" stroke-width="25" stroke-linecap="round" stroke-linejoin="round"/><polyline points="321,280 218,308" fill="none" stroke="#B86F45" stroke-width="18" stroke-linecap="round" stroke-linejoin="round"/><ellipse cx="218" cy="308" rx="11" ry="13" fill="#D89164" stroke="#162B45" stroke-width="5" /></g>
<g id="arm-right-disagreement" data-semantic-layer="true" style="display:none"><polyline points="207,235 199.0,257.5 191,280" fill="none" stroke="#162B45" stroke-width="32" stroke-linecap="round" stroke-linejoin="round"/><polyline points="207,235 199.0,257.5 191,280" fill="none" stroke="#1F9B92" stroke-width="24" stroke-linecap="round" stroke-linejoin="round"/><polyline points="191,280 294,308" fill="none" stroke="#162B45" stroke-width="25" stroke-linecap="round" stroke-linejoin="round"/><polyline points="191,280 294,308" fill="none" stroke="#B86F45" stroke-width="18" stroke-linecap="round" stroke-linejoin="round"/><ellipse cx="294" cy="308" rx="11" ry="13" fill="#D89164" stroke="#162B45" stroke-width="5" /></g>
<g id="arm-left-gratitude" data-semantic-layer="true" style="display:none"><polyline points="305,235 314.0,258.5 323,282" fill="none" stroke="#162B45" stroke-width="32" stroke-linecap="round" stroke-linejoin="round"/><polyline points="305,235 314.0,258.5 323,282" fill="none" stroke="#1F9B92" stroke-width="24" stroke-linecap="round" stroke-linejoin="round"/><polyline points="323,282 266,297" fill="none" stroke="#162B45" stroke-width="25" stroke-linecap="round" stroke-linejoin="round"/><polyline points="323,282 266,297" fill="none" stroke="#B86F45" stroke-width="18" stroke-linecap="round" stroke-linejoin="round"/><ellipse cx="266" cy="297" rx="11" ry="13" fill="#D89164" stroke="#162B45" stroke-width="5" /></g>
<g id="arm-right-gratitude" data-semantic-layer="true" style="display:none"><polyline points="207,235 198.0,258.5 189,282" fill="none" stroke="#162B45" stroke-width="32" stroke-linecap="round" stroke-linejoin="round"/><polyline points="207,235 198.0,258.5 189,282" fill="none" stroke="#1F9B92" stroke-width="24" stroke-linecap="round" stroke-linejoin="round"/><polyline points="189,282 246,297" fill="none" stroke="#162B45" stroke-width="25" stroke-linecap="round" stroke-linejoin="round"/><polyline points="189,282 246,297" fill="none" stroke="#B86F45" stroke-width="18" stroke-linecap="round" stroke-linejoin="round"/><ellipse cx="246" cy="297" rx="11" ry="13" fill="#D89164" stroke="#162B45" stroke-width="5" /></g>
<g id="arm-left-concern" data-semantic-layer="true" style="display:none"><polyline points="305,235 317.0,246.0 329,257" fill="none" stroke="#162B45" stroke-width="32" stroke-linecap="round" stroke-linejoin="round"/><polyline points="305,235 317.0,246.0 329,257" fill="none" stroke="#1F9B92" stroke-width="24" stroke-linecap="round" stroke-linejoin="round"/><polyline points="329,257 294,169" fill="none" stroke="#162B45" stroke-width="25" stroke-linecap="round" stroke-linejoin="round"/><polyline points="329,257 294,169" fill="none" stroke="#B86F45" stroke-width="18" stroke-linecap="round" stroke-linejoin="round"/><ellipse cx="294" cy="169" rx="11" ry="13" fill="#D89164" stroke="#162B45" stroke-width="5" /></g>
<g id="arm-right-concern" data-semantic-layer="true" style="display:none"><polyline points="207,235 195.0,246.0 183,257" fill="none" stroke="#162B45" stroke-width="32" stroke-linecap="round" stroke-linejoin="round"/><polyline points="207,235 195.0,246.0 183,257" fill="none" stroke="#1F9B92" stroke-width="24" stroke-linecap="round" stroke-linejoin="round"/><polyline points="183,257 218,169" fill="none" stroke="#162B45" stroke-width="25" stroke-linecap="round" stroke-linejoin="round"/><polyline points="183,257 218,169" fill="none" stroke="#B86F45" stroke-width="18" stroke-linecap="round" stroke-linejoin="round"/><ellipse cx="218" cy="169" rx="11" ry="13" fill="#D89164" stroke="#162B45" stroke-width="5" /></g>
<g id="arm-left-surprise" data-semantic-layer="true" style="display:none"><polyline points="305,235 319.0,239.0 333,243" fill="none" stroke="#162B45" stroke-width="32" stroke-linecap="round" stroke-linejoin="round"/><polyline points="305,235 319.0,239.0 333,243" fill="none" stroke="#1F9B92" stroke-width="24" stroke-linecap="round" stroke-linejoin="round"/><polyline points="333,243 314,156" fill="none" stroke="#162B45" stroke-width="25" stroke-linecap="round" stroke-linejoin="round"/><polyline points="333,243 314,156" fill="none" stroke="#B86F45" stroke-width="18" stroke-linecap="round" stroke-linejoin="round"/><ellipse cx="314" cy="156" rx="13" ry="15" fill="#D89164" stroke="#162B45" stroke-width="5" /><path d="M309.8 150 L300.2 129.8" fill="none" stroke="#B86F45" stroke-width="6" stroke-linecap="round" stroke-linejoin="round" /><path d="M312.6 150 L309.4 128.6" fill="none" stroke="#B86F45" stroke-width="6" stroke-linecap="round" stroke-linejoin="round" /><path d="M315.4 150 L318.6 128.6" fill="none" stroke="#B86F45" stroke-width="6" stroke-linecap="round" stroke-linejoin="round" /><path d="M318.2 150 L327.8 129.8" fill="none" stroke="#B86F45" stroke-width="6" stroke-linecap="round" stroke-linejoin="round" /></g>
<g id="arm-right-surprise" data-semantic-layer="true" style="display:none"><polyline points="207,235 193.0,239.0 179,243" fill="none" stroke="#162B45" stroke-width="32" stroke-linecap="round" stroke-linejoin="round"/><polyline points="207,235 193.0,239.0 179,243" fill="none" stroke="#1F9B92" stroke-width="24" stroke-linecap="round" stroke-linejoin="round"/><polyline points="179,243 198,156" fill="none" stroke="#162B45" stroke-width="25" stroke-linecap="round" stroke-linejoin="round"/><polyline points="179,243 198,156" fill="none" stroke="#B86F45" stroke-width="18" stroke-linecap="round" stroke-linejoin="round"/><ellipse cx="198" cy="156" rx="13" ry="15" fill="#D89164" stroke="#162B45" stroke-width="5" /><path d="M193.8 150 L184.2 129.8" fill="none" stroke="#B86F45" stroke-width="6" stroke-linecap="round" stroke-linejoin="round" /><path d="M196.6 150 L193.4 128.6" fill="none" stroke="#B86F45" stroke-width="6" stroke-linecap="round" stroke-linejoin="round" /><path d="M199.4 150 L202.6 128.6" fill="none" stroke="#B86F45" stroke-width="6" stroke-linecap="round" stroke-linejoin="round" /><path d="M202.2 150 L211.8 129.8" fill="none" stroke="#B86F45" stroke-width="6" stroke-linecap="round" stroke-linejoin="round" /></g>
<g id="arm-left-celebration" data-semantic-layer="true" style="display:none"><polyline points="305,235 322.0,214.0 339,193" fill="none" stroke="#162B45" stroke-width="32" stroke-linecap="round" stroke-linejoin="round"/><polyline points="305,235 322.0,214.0 339,193" fill="none" stroke="#1F9B92" stroke-width="24" stroke-linecap="round" stroke-linejoin="round"/><polyline points="339,193 357,131" fill="none" stroke="#162B45" stroke-width="25" stroke-linecap="round" stroke-linejoin="round"/><polyline points="339,193 357,131" fill="none" stroke="#B86F45" stroke-width="18" stroke-linecap="round" stroke-linejoin="round"/><ellipse cx="357" cy="131" rx="13" ry="15" fill="#D89164" stroke="#162B45" stroke-width="5" /><path d="M352.8 125 L343.2 104.8" fill="none" stroke="#B86F45" stroke-width="6" stroke-linecap="round" stroke-linejoin="round" /><path d="M355.6 125 L352.4 103.6" fill="none" stroke="#B86F45" stroke-width="6" stroke-linecap="round" stroke-linejoin="round" /><path d="M358.4 125 L361.6 103.6" fill="none" stroke="#B86F45" stroke-width="6" stroke-linecap="round" stroke-linejoin="round" /><path d="M361.2 125 L370.8 104.8" fill="none" stroke="#B86F45" stroke-width="6" stroke-linecap="round" stroke-linejoin="round" /></g>
<g id="arm-right-celebration" data-semantic-layer="true" style="display:none"><polyline points="207,235 190.0,214.0 173,193" fill="none" stroke="#162B45" stroke-width="32" stroke-linecap="round" stroke-linejoin="round"/><polyline points="207,235 190.0,214.0 173,193" fill="none" stroke="#1F9B92" stroke-width="24" stroke-linecap="round" stroke-linejoin="round"/><polyline points="173,193 155,131" fill="none" stroke="#162B45" stroke-width="25" stroke-linecap="round" stroke-linejoin="round"/><polyline points="173,193 155,131" fill="none" stroke="#B86F45" stroke-width="18" stroke-linecap="round" stroke-linejoin="round"/><ellipse cx="155" cy="131" rx="13" ry="15" fill="#D89164" stroke="#162B45" stroke-width="5" /><path d="M150.8 125 L141.2 104.8" fill="none" stroke="#B86F45" stroke-width="6" stroke-linecap="round" stroke-linejoin="round" /><path d="M153.6 125 L150.4 103.6" fill="none" stroke="#B86F45" stroke-width="6" stroke-linecap="round" stroke-linejoin="round" /><path d="M156.4 125 L159.6 103.6" fill="none" stroke="#B86F45" stroke-width="6" stroke-linecap="round" stroke-linejoin="round" /><path d="M159.2 125 L168.8 104.8" fill="none" stroke="#B86F45" stroke-width="6" stroke-linecap="round" stroke-linejoin="round" /></g>
</svg>
